<svg xmlns="http://www.w3.org/2000/svg" xmlns:xlink="http://www.w3.org/1999/xlink" width="96" height="96" viewBox="0 0 96 96">
  <defs>
    <clipPath id="clip-path">
      <rect id="Rectángulo_455595" data-name="Rectángulo 455595" width="96" height="96" fill="none"/>
    </clipPath>
    <clipPath id="clip-path-2">
      <rect id="Rectángulo_460703" data-name="Rectángulo 460703" width="52.123" height="51.876" fill="#fff"/>
    </clipPath>
  </defs>
  <g id="Grupo_1210057" data-name="Grupo 1210057" transform="translate(-735.746 -9117.598)">
    <g id="Grupo_1180407" data-name="Grupo 1180407" transform="translate(735.746 9117.568)">
      <g id="Grupo_1179172" data-name="Grupo 1179172" transform="translate(0 0.03)" clip-path="url(#clip-path)">
        <path id="Trazado_998483" data-name="Trazado 998483" d="M92.627,52.5A40.125,40.125,0,1,1,52.5,12.377,40.125,40.125,0,0,1,92.627,52.5" transform="translate(-4.488 -4.517)" fill="#8d1939"/>
        <path id="Trazado_998485" data-name="Trazado 998485" d="M90.973,46.487A44.486,44.486,0,1,1,46.487,2,44.486,44.486,0,0,1,90.973,46.487Z" transform="translate(1.527 1.499)" fill="none" stroke="#8d1939" stroke-miterlimit="10" stroke-width="4"/>
      </g>
    </g>
    <g id="Grupo_1180408" data-name="Grupo 1180408" transform="translate(893.746 9150)">
      <g id="Grupo_1099618" data-name="Grupo 1099618" transform="translate(-114.731 -8.778)">
        <rect id="Rectángulo_401104" data-name="Rectángulo 401104" width="8.944" height="9.052" transform="translate(0)" fill="none"/>
      </g>
      <g id="Grupo_1211235" data-name="Grupo 1211235" transform="translate(-136 -10.402)">
        <g id="Grupo_1211234" data-name="Grupo 1211234" clip-path="url(#clip-path-2)">
          <path id="Trazado_1273702" data-name="Trazado 1273702" d="M68.142,2.917a10.612,10.612,0,0,1,3.089,8.746,18.881,18.881,0,0,0-.328,2.364c.07.443.643.684.864,1.053,1.127,1.878-.283,4.483-2.131,5.306a9.861,9.861,0,0,0-1.39.436c-.1.1-.907,1.685-1.176,2.076-.215.312-.745.686-.843.9-.354.779.08,3.567-.092,4.67-.7,4.476-9.272,4.671-10.392.412-.332-1.263.257-4.169-.157-5.081-.108-.239-.757-.717-1-1.062-.306-.432-.853-1.763-1.018-1.918s-1.431-.437-1.915-.7c-3.078-1.707-2.67-6.867,1.478-6.317-.008-.555-.143-1.389.479-1.664,1.023-.452,4.778.176,6.23-.119a3.6,3.6,0,0,0,1.614-1.243c.3-.392.392-1.186.97-1.265C63.614,9.346,63.6,11.3,65,11.852c1.554.618,4.033-.73,3.689,1.947h.474c.053-.773.279-1.519.326-2.295C70.21-.45,53.677-2.072,52.178,10.07c-.1.811.359,2.416-1.16,1.952-1.063-.325-.321-3.915-.067-4.766C53.16-.132,62.588-2.41,68.142,2.917M60.033,13.8c-1.549.218-3.557-.162-5.159,0v5.476a10.624,10.624,0,0,0,.5,1.406,6.125,6.125,0,0,0,9.981,1.614c2.193-2.4,1.472-5.527,1.584-8.5a5.045,5.045,0,0,1-4.344-1.575A5.332,5.332,0,0,1,60.033,13.8m-6.9,1.9c-2.779-.776-1.9,2.684,0,3.174Zm15.555,3.174c1.831-.483,2.736-3.97,0-3.174ZM64.4,25.226a9.26,9.26,0,0,1-6.984,0v3.1a6.912,6.912,0,0,0,.65.938,4.426,4.426,0,0,0,5.118.386c.247-.156,1.216-1.107,1.216-1.323Z" transform="translate(-41.756 -0.001)" fill="#fff"/>
          <path id="Trazado_1273703" data-name="Trazado 1273703" d="M147.08,56.388a9.645,9.645,0,0,0-7.741-8.528c-.793-.166-2.456.039-2.667-.832-.418-1.726,2.871-.9,3.714-.691a11.474,11.474,0,0,1,8.43,9.982,2.8,2.8,0,0,0,3.509-2.7l0-11.893a9.967,9.967,0,0,1-8.3-6.8,32.532,32.532,0,0,1-.394-9.206c.268-1.755,1.811-2.443,3.451-2.183.008-.567-.123-1.221.314-1.669a1.422,1.422,0,0,1,1.234.119c.316.315.321,4.376-.038,4.728-1.286.6-1.653-.269-1.511-1.433-.692.054-1.52-.3-1.711.592a44.633,44.633,0,0,0-.041,6.8,7.84,7.84,0,0,0,12.056,6.013c4.658-2.974,3.415-8.357,3.426-13.083-.249-.513-1.209-.27-1.668-.317.562,1.61-1.395,2.277-1.711.84a18.629,18.629,0,0,1,0-3.583.939.939,0,0,1,1.282-.718c.646.194.39,1.185.429,1.716,1.816-.259,3.329.523,3.5,2.453.187,2.116.19,7.037-.4,8.976a9.769,9.769,0,0,1-8.159,6.681c-.262,3.891.293,8.122-.011,11.973a4.522,4.522,0,0,1-4.07,4.5l-11.711.007a3.456,3.456,0,0,1-6.763-1.34,3.5,3.5,0,0,1,5.856-2.045c.468.48.625,1.145,1.049,1.65ZM133.638,58.4a1.742,1.742,0,0,0,2.651-2.255c-1.5-1.906-4.147.565-2.651,2.255" transform="translate(-110.629 -18.306)" fill="#fff"/>
          <path id="Trazado_1273704" data-name="Trazado 1273704" d="M1.849,191.189H6.134v-2.778c0-.767,1.746-.767,1.746,0v8.016H30.419v-8.174c0-.492,1.746-.648,1.746.159v2.778h4.286v-2.778c0-.56,1.126-.781,1.512-.4a1.253,1.253,0,0,1,.223.57,58.1,58.1,0,0,1,.014,8.564,1.133,1.133,0,0,1-.59,1l-36.784.016L.3,197.977.1,197.3c.237-4.244-.316-8.821-.006-13.024a11.492,11.492,0,0,1,10.887-10.4c1.377-.035,1.537,1.5.754,1.721-.828.236-2.078.166-3.06.432-2.979.809-6.829,4.559-6.829,7.774Zm4.286,1.746H1.849v3.492H6.134Zm30.316,0H32.165v3.492h4.286Z" transform="translate(0 -146.282)" fill="#fff"/>
        </g>
      </g>
    </g>
  </g>
</svg>
