<svg xmlns="http://www.w3.org/2000/svg" xmlns:xlink="http://www.w3.org/1999/xlink" width="96" height="96" viewBox="0 0 96 96">
  <defs>
    <clipPath id="clip-path">
      <rect id="Rectángulo_455595" data-name="Rectángulo 455595" width="96" height="96" fill="none"/>
    </clipPath>
    <clipPath id="clip-path-2">
      <rect id="Rectángulo_460706" data-name="Rectángulo 460706" width="46.531" height="46.525" fill="#fff"/>
    </clipPath>
  </defs>
  <g id="Grupo_1210053" data-name="Grupo 1210053" transform="translate(-735.746 -9118)">
    <g id="Grupo_1180407" data-name="Grupo 1180407" transform="translate(735.746 9117.971)">
      <g id="Grupo_1179172" data-name="Grupo 1179172" transform="translate(0 0.03)" clip-path="url(#clip-path)">
        <path id="Trazado_998483" data-name="Trazado 998483" d="M92.627,52.5A40.125,40.125,0,1,1,52.5,12.377,40.125,40.125,0,0,1,92.627,52.5" transform="translate(-4.488 -4.517)" fill="#8d1939"/>
        <path id="Trazado_998485" data-name="Trazado 998485" d="M90.973,46.487A44.486,44.486,0,1,1,46.487,2,44.486,44.486,0,0,1,90.973,46.487Z" transform="translate(1.527 1.499)" fill="none" stroke="#8d1939" stroke-miterlimit="10" stroke-width="4"/>
      </g>
    </g>
    <g id="Grupo_1180408" data-name="Grupo 1180408" transform="translate(755.746 9137)">
      <g id="Grupo_1099618" data-name="Grupo 1099618" transform="translate(0 -0.619)">
        <rect id="Rectángulo_401104" data-name="Rectángulo 401104" width="56.349" height="57.028" transform="translate(0)" fill="none"/>
      </g>
      <g id="Grupo_1211241" data-name="Grupo 1211241" transform="translate(5.333 4.713)">
        <g id="Grupo_1211240" data-name="Grupo 1211240" clip-path="url(#clip-path-2)">
          <path id="Trazado_1273721" data-name="Trazado 1273721" d="M0,36.325,10.069,26.254a23.8,23.8,0,0,0-.468-3c-.239-4.009,1.352-5.435,3.136-8.461,1.541-2.614,2.416-6.566,4.036-9.031A4.047,4.047,0,0,1,24.119,8.71c-.092.792-.628,1.457-.586,2.214L33.4,1.055a4.033,4.033,0,0,1,6.472,1.47,4.13,4.13,0,0,1,5.2,6.2c-.166.219-.934.793-.8,1,3.541,1.865,2.517,5.855-.267,7.937A4.174,4.174,0,0,1,45.711,23.5c-4.1,3.992-8.131,8.9-12.447,12.62a12.653,12.653,0,0,1-7.4,3.2,4.233,4.233,0,0,1-6.981,4.28l-2.952,2.919H0Zm2.667,1.333v6l.2.2H14.734c.543-.815,2.566-2.2,2.926-2.94a16.17,16.17,0,0,0,.332-1.668c.716-2.293,2.17-4.678,2.941-6.991a4.6,4.6,0,0,0-3.455.877l-7.7,7.646L7.877,38.876,15.538,31.2a7.856,7.856,0,0,1,4-1.737h5.533v2.8H22.934l1.752,4.382a9.981,9.981,0,0,0,6.783-2.58c4.088-3.487,7.747-8.2,11.794-11.807a1.375,1.375,0,0,0-1.934-1.934l-4.48,4.463-1.905-1.809,8.449-8.591c1.181-1.565-.542-3.234-2.061-1.928L32.988,20.92l-1.911-1.814L42.934,6.991a1.373,1.373,0,0,0-2.066-1.8L29,17.056,27.07,15.125l10.3-10.367c.519-1.534-.737-2.539-2.1-1.7L21.618,16.833A6.636,6.636,0,0,1,19.8,26.225L18.01,24.343c1.576-1.529,2.872-3.208,1.708-5.469-.4-.77-1.18-1.137-1.581-1.879l3.325-8.819a1.3,1.3,0,0,0-2.42-.811c-1.621,2.382-2.481,6.532-4.007,9.06-.466.773-1.219,1.415-1.676,2.324a8.9,8.9,0,0,0-.625,6.31c.11.443.671,1.569.539,1.861Zm20.221,4.021a1.723,1.723,0,0,0,.42-1.319l-1.439-3.3c-.288,1.252-1.94,3.248-1.071,4.468a1.527,1.527,0,0,0,2.09.152" transform="translate(0 0)" fill="#fff"/>
        </g>
      </g>
    </g>
  </g>
</svg>
