<svg xmlns="http://www.w3.org/2000/svg" xmlns:xlink="http://www.w3.org/1999/xlink" width="96" height="96" viewBox="0 0 96 96">
  <defs>
    <clipPath id="clip-path">
      <rect id="Rectángulo_455595" data-name="Rectángulo 455595" width="96" height="96" fill="none"/>
    </clipPath>
    <clipPath id="clip-path-2">
      <rect id="Rectángulo_459574" data-name="Rectángulo 459574" width="52.722" height="52.68" fill="#fff"/>
    </clipPath>
  </defs>
  <g id="Grupo_1210055" data-name="Grupo 1210055" transform="translate(-735.746 -9118)">
    <g id="Grupo_1180407" data-name="Grupo 1180407" transform="translate(735.746 9117.971)">
      <g id="Grupo_1179172" data-name="Grupo 1179172" transform="translate(0 0.03)" clip-path="url(#clip-path)">
        <path id="Trazado_998483" data-name="Trazado 998483" d="M92.627,52.5A40.125,40.125,0,1,1,52.5,12.377,40.125,40.125,0,0,1,92.627,52.5" transform="translate(-4.488 -4.517)" fill="#8d1939"/>
        <path id="Trazado_998485" data-name="Trazado 998485" d="M90.973,46.487A44.486,44.486,0,1,1,46.487,2,44.486,44.486,0,0,1,90.973,46.487Z" transform="translate(1.527 1.499)" fill="none" stroke="#8d1939" stroke-miterlimit="10" stroke-width="4"/>
      </g>
    </g>
    <g id="Grupo_1180408" data-name="Grupo 1180408" transform="translate(755.746 9137)">
      <g id="Grupo_1099618" data-name="Grupo 1099618" transform="translate(0 -0.168)">
        <rect id="Rectángulo_401104" data-name="Rectángulo 401104" width="56.349" height="57.028" transform="translate(0)" fill="none"/>
      </g>
      <g id="Grupo_1209421" data-name="Grupo 1209421" transform="translate(2 1.832)">
        <g id="Grupo_1209420" data-name="Grupo 1209420" clip-path="url(#clip-path-2)">
          <path id="Trazado_1270110" data-name="Trazado 1270110" d="M205.094,7.341c2.19-.973,3.906.555,4.082,2.789a105.2,105.2,0,0,1,0,12.548,9.568,9.568,0,0,1-2.305,5.7l-.15,23.563a1.162,1.162,0,0,1-1.1.866l-11.9-.036a1.162,1.162,0,0,1-.866-1.1l-.029-22.023A40.179,40.179,0,0,1,188.3,23.3a58.869,58.869,0,0,1-3.627-7.247c-.5-1.415.175-2.347,1.536-2.75,2.114-.626,3.826.512,4.985,2.193,0-3.011-.381-6.284-.156-9.3.176-2.352,1.744-3.785,4.083-2.939a2.932,2.932,0,0,1,5.413-1.712c.383.622.235,1.017.476,1.644,2.812-.878,4.464,1.512,4.082,4.146m-8.309,4.833h2.341c.216-.133.208-.3.234-.521.316-2.691-.2-6.091-.073-8.854a1.278,1.278,0,0,0-2.5.086Zm-1.661.151V5.3c0-.307-1.015-.725-1.4-.656a1.67,1.67,0,0,0-1.017,1.109v6.57Zm8.307-.453V5.755c0-1.383-2.568-1.506-2.568.151v6.117h2.19c.05,0,.229-.2.378-.151m1.661-2.492c-.163.583.119,1.82,0,2.492l2.4-.167c.151-1.123.12-3.348-1.536-2.975a2,2,0,0,0-.864.649m2.417,7.4V13.609c0-.075-.249-.249-.376-.231l-14.048.609-.356.248.053,2.17,7.866,3.773ZM192.86,18.367c.085.832-.014,1.923-1.063,1.9-.838-.228-1.705-3.28-2.232-4.122-.69-1.1-2.332-1.952-3.437-.957a72.974,72.974,0,0,0,5.065,9.6l7.555-3.561Zm14.648.454L192.26,26.077c-.256.374,1.085,1.394,1.35,1.733a3.609,3.609,0,0,1,.911,2.64l12.813-6.216Zm-2.416,14.8V28.26a5.261,5.261,0,0,1,.754-1.36c.033-.1-.124-.1-.222-.072-1.456.459-3.193,1.925-4.762,2.34Zm0,2.869-.144-.687L199.2,30.067l-4.691,2.3.023,2.752Zm0,14.651V38.379L194.52,36.793V51.142Z" transform="translate(-156.641 -0.126)" fill="#fff"/>
          <path id="Trazado_1270111" data-name="Trazado 1270111" d="M71.426,134.95c.663.6,2.115,1.826,2.115,2.794v17.143h7.325c.813,0,.858,1.661.3,1.661H73.54v4.607c0,2.669-5.1,4.19-7.176,4.454-3.512.446-11.313-.292-11.709-4.9-.621-7.231.476-15.338,0-22.662.317-2.931,4.274-4.223,6.747-4.581,4.295-.621,9.191.094,13.564-.172,1.1.206.608,1.658,0,1.658ZM62.333,135c-2.321.207-8.9,2.271-4.64,5,2.956,1.9,8.654,1.888,11.823.519,3.76-1.624,2.578-3.769-.664-4.881A16.318,16.318,0,0,0,62.333,135m9.545,6.147c-3.83,2.41-10.2,2.687-14.254.736-.459-.221-.813-.632-1.3-.736V161a3.9,3.9,0,0,0,.827,1.136c2.711,2.565,10.89,2.487,13.744.144.282-.232.985-.938.985-1.28Z" transform="translate(-46.234 -113.085)" fill="#fff"/>
          <path id="Trazado_1270112" data-name="Trazado 1270112" d="M9.452.011c13.06-.518,14,18.989,1.463,20.04C-2.853,21.206-3.88.54,9.452.011M3.948,4.1c-7.922,7.922,4.337,19.777,12.029,11.8C23.545,8.054,11.7-3.651,3.948,4.1" transform="translate(0 -0.001)" fill="#fff"/>
          <path id="Trazado_1270113" data-name="Trazado 1270113" d="M80.52,150.625c1.87-.181,7.062-.18,8.187,1.541.629.961.064,1.712-.8,2.222-2.122,1.253-8.516,1.246-10.636,0a1.606,1.606,0,0,1-.864-2.134c.553-1.027,3.02-1.523,4.112-1.629m6.525,2.223a15.331,15.331,0,0,0-8.91,0c.219.332.954.483,1.325.561a16.459,16.459,0,0,0,6.383-.029c.38-.085,1.018-.159,1.2-.532" transform="translate(-64.724 -127.809)" fill="#fff"/>
          <path id="Trazado_1270114" data-name="Trazado 1270114" d="M34.614,35.52v2.341a1.727,1.727,0,0,1-.492.414,27.869,27.869,0,0,1-4.873.118c-1.582-.183-.742-1.639-1.044-2.732-.321-.461-2.467.358-2.772-.7a39.907,39.907,0,0,1-.039-5.11c.162-1.221,1.862-.416,2.735-.739.459-.32-.3-2.522.549-2.773,1.206.171,4.538-.366,5.479.049.835.368.259,1.952.522,2.649.824.469,2.488-.429,2.772.853a30.508,30.508,0,0,1,.024,4.792c-.035.222-.353.839-.52.839Zm-1.661-7.552H29.781v2.341a2.521,2.521,0,0,1-.378.378H27.063v3.172h2.19a2.074,2.074,0,0,1,.5.56c.207.694-.256,1.739.258,2.31h2.945v-2.19a1.475,1.475,0,0,1,.68-.68h2.19V30.914c-.571-.514-1.616-.051-2.31-.258a2.074,2.074,0,0,1-.56-.5Z" transform="translate(-21.506 -22.264)" fill="#fff"/>
        </g>
      </g>
    </g>
  </g>
</svg>
