<svg xmlns="http://www.w3.org/2000/svg" xmlns:xlink="http://www.w3.org/1999/xlink" width="96" height="96" viewBox="0 0 96 96">
  <defs>
    <clipPath id="clip-path">
      <rect id="Rectángulo_455595" data-name="Rectángulo 455595" width="96" height="96" fill="none"/>
    </clipPath>
    <clipPath id="clip-path-2">
      <rect id="Rectángulo_460704" data-name="Rectángulo 460704" width="51.801" height="53.929" fill="#fff"/>
    </clipPath>
  </defs>
  <g id="Grupo_1210056" data-name="Grupo 1210056" transform="translate(-735.746 -9118)">
    <g id="Grupo_1180407" data-name="Grupo 1180407" transform="translate(735.746 9117.971)">
      <g id="Grupo_1179172" data-name="Grupo 1179172" transform="translate(0 0.03)" clip-path="url(#clip-path)">
        <path id="Trazado_998483" data-name="Trazado 998483" d="M92.627,52.5A40.125,40.125,0,1,1,52.5,12.377,40.125,40.125,0,0,1,92.627,52.5" transform="translate(-4.488 -4.517)" fill="#8d1939"/>
        <path id="Trazado_998485" data-name="Trazado 998485" d="M90.973,46.487A44.486,44.486,0,1,1,46.487,2,44.486,44.486,0,0,1,90.973,46.487Z" transform="translate(1.527 1.499)" fill="none" stroke="#8d1939" stroke-miterlimit="10" stroke-width="4"/>
      </g>
    </g>
    <g id="Grupo_1180408" data-name="Grupo 1180408" transform="translate(755.746 9137)">
      <g id="Grupo_1099618" data-name="Grupo 1099618" transform="translate(0 -0.402)">
        <rect id="Rectángulo_401104" data-name="Rectángulo 401104" width="56.349" height="57.028" transform="translate(0)" fill="none"/>
      </g>
      <g id="Grupo_1211237" data-name="Grupo 1211237" transform="translate(2 1.597)">
        <g id="Grupo_1211236" data-name="Grupo 1211236" clip-path="url(#clip-path-2)">
          <path id="Trazado_1273705" data-name="Trazado 1273705" d="M112.863,13.953a9.7,9.7,0,0,0,2.385,4.47c.495.544,1.532.917,1.287,1.74l-9.228,9.432,19.514,13.837c1.019.635.5,1.88-.681,1.457l-5.978-4.216c-1.664.806-3.1,2.515-5.062,2.606-1.577.073-2.4-.765-3.745-1.051-2.453-.522-4.792.2-6.758-1.886-.775-.822-.925-1.768-1.554-2.614-.462-.621-1.791-1.338-1.377-2.175.548-1.107,1.947.308,2.391.853.888,1.09.981,2.333,2.178,3.225,1.413,1.052,3.684.714,5.42,1.063,2.182.439,2.448,1.7,4.857.443a14.494,14.494,0,0,0,2.212-1.567l-12.608-8.781c-.779.232-1.653,2.148-2.515,1.756-1.661-.756,1.352-2.48,1.076-2.854a22.381,22.381,0,0,0-5.146-2.148,4.513,4.513,0,0,0-.391,4.673c.292.625,1.392,1.54.715,2.22-.775.778-1.8-.83-2.1-1.448a6.331,6.331,0,0,1-.406-4.535c.093-.384.541-1.246.535-1.467-.009-.333-.712-.911-.735-1.7,1.119-8.1,2.04-16.183,1.66-24.4a.8.8,0,0,1,1.552-.3c-.1,4.314.205,8.665-.156,12.965-.3,3.6-1.169,7.39-1.386,10.962-.04.657-.154.923.459,1.236.914.466,2.554.787,3.656,1.283,1.009.454,1.943,1.04,2.908,1.573l8.708-8.59a12.773,12.773,0,0,1-3.283-5.792c-2.375-10.95,10.217-18.638,18.657-11.4a11.458,11.458,0,0,1-1.08,18.222c-2.543,1.67-6.8,2.757-9.7,1.506-1.045-.451-1-1.622-.038-1.645.686-.017,2.165.583,3.1.6a10.222,10.222,0,0,0,10.111-9.026c.04-.531.1-3.142-.413-3.315-.406-.137-3.048.95-3.985.919-2.335-.075-4.045-2.514-6.3-2.127-1.779.305-2.146,2.551-3.367,3.578-1.239,1.042-3.875,1.707-5.385,2.413m18.515-6.341c-.766-2.713-3.644-4.927-6.325-5.631A9.936,9.936,0,0,0,112.55,12.4c1.585-.8,4.028-1.23,5.157-2.637,1.106-1.378,1.42-2.976,3.6-3.346,3.321-.563,4.5,2.341,7.487,1.93.843-.116,1.722-.614,2.584-.736" transform="translate(-82.118 0)" fill="#fff"/>
          <path id="Trazado_1273706" data-name="Trazado 1273706" d="M39.806,101.157c.655.68-.357,1.761-1.122,1.2l-32.8-16.44C-3.212,80.549,1.246,67.47.171,58.741c.047-.564.1-1.136.736-1.28a.913.913,0,0,1,.971.974c.423,6.088-.583,12.977.016,18.97a9.708,9.708,0,0,0,4.763,7.122Z" transform="translate(0 -48.584)" fill="#fff"/>
          <path id="Trazado_1273707" data-name="Trazado 1273707" d="M231.188,89.857c1.26-.285,3.56-.2,3.753,1.43.315,2.659-.441,4.01-3.308,3.617-2.557-.35-2.211-4.649-.444-5.048m2.184,3.341-.123-1.763-1.708-.068.022,1.831a2.228,2.228,0,0,0,1.809,0" transform="translate(-194.319 -75.88)" fill="#fff"/>
          <path id="Trazado_1273708" data-name="Trazado 1273708" d="M284.3,73.994c1.47-.3,3.381-.029,3.6,1.736.159,1.3-.028,3.137-1.621,3.326-1.42.168-3.269.137-3.48-1.621-.159-1.327-.1-3.114,1.505-3.441m.063,1.684.123,1.763,1.795-.077c.093-.438.208-1.442-.149-1.723a2.373,2.373,0,0,0-1.769.037" transform="translate(-239.094 -62.484)" fill="#fff"/>
          <path id="Trazado_1273709" data-name="Trazado 1273709" d="M2.184,6.607c-.549.548-1.374.086-1.5-.667a29.358,29.358,0,0,1,0-4.762C.884-.208,2.17-.181,2.366,1.019A31.1,31.1,0,0,1,2.381,5.8c-.02.239-.027.635-.2.805" transform="translate(-0.5 -0.108)" fill="#fff"/>
          <path id="Trazado_1273710" data-name="Trazado 1273710" d="M29,175.519c.3.3.145,1.242.227,1.7a4.8,4.8,0,0,0,.551,1.3c.338.536,1.639,1.5,1.7,1.7.144.462.06.907-.43,1.064-1.135.363-2.689-1.885-3.055-2.829-.254-.654-.877-2.827.072-3.1a1.221,1.221,0,0,1,.935.168" transform="translate(-23.305 -148.262)" fill="#fff"/>
          <path id="Trazado_1273711" data-name="Trazado 1273711" d="M256.8,64.534c.833-.075,1.243,1.353.276,1.511a.775.775,0,1,1-.276-1.511" transform="translate(-216.542 -54.571)" fill="#fff"/>
          <path id="Trazado_1273712" data-name="Trazado 1273712" d="M149.4,213.27a.8.8,0,0,1,.554,1.492c-1.121.343-1.295-1.273-.554-1.492" transform="translate(-125.961 -180.313)" fill="#fff"/>
          <path id="Trazado_1273713" data-name="Trazado 1273713" d="M170.544,239.742a.8.8,0,0,1-1.342-.646c.056-1.46,2.3-.316,1.342.646" transform="translate(-143.084 -201.602)" fill="#fff"/>
          <path id="Trazado_1273714" data-name="Trazado 1273714" d="M277.073,114.253a.772.772,0,0,1,.512,1.456.772.772,0,0,1-.512-1.456" transform="translate(-233.877 -96.579)" fill="#fff"/>
          <path id="Trazado_1273715" data-name="Trazado 1273715" d="M205.4,247.286a.772.772,0,1,1,.512,1.456c-1.052.33-1.266-1.233-.512-1.456" transform="translate(-173.312 -209.081)" fill="#fff"/>
        </g>
      </g>
    </g>
  </g>
</svg>
