<svg xmlns="http://www.w3.org/2000/svg" xmlns:xlink="http://www.w3.org/1999/xlink" width="96" height="96" viewBox="0 0 96 96">
  <defs>
    <clipPath id="clip-path">
      <rect id="Rectángulo_455595" data-name="Rectángulo 455595" width="96" height="96" fill="none"/>
    </clipPath>
    <clipPath id="clip-path-2">
      <rect id="Rectángulo_460713" data-name="Rectángulo 460713" width="42.03" height="51.187" fill="#fff"/>
    </clipPath>
  </defs>
  <g id="Grupo_1208572" data-name="Grupo 1208572" transform="translate(-735.746 -9118)">
    <g id="Grupo_1180407" data-name="Grupo 1180407" transform="translate(735.746 9117.971)">
      <g id="Grupo_1179172" data-name="Grupo 1179172" transform="translate(0 0.03)" clip-path="url(#clip-path)">
        <path id="Trazado_998483" data-name="Trazado 998483" d="M92.562,52.469A40.092,40.092,0,1,1,52.469,12.377,40.093,40.093,0,0,1,92.562,52.469" transform="translate(-4.455 -4.484)" fill="#8d1939"/>
        <path id="Trazado_998485" data-name="Trazado 998485" d="M90.9,46.451A44.45,44.45,0,1,1,46.451,2,44.45,44.45,0,0,1,90.9,46.451Z" transform="translate(1.564 1.535)" fill="none" stroke="#8d1939" stroke-miterlimit="10" stroke-width="4"/>
      </g>
    </g>
    <g id="Grupo_1180408" data-name="Grupo 1180408" transform="translate(755.746 9137)">
      <g id="Grupo_1099618" data-name="Grupo 1099618" transform="translate(-0.035 -0.221)">
        <rect id="Rectángulo_401104" data-name="Rectángulo 401104" width="56.349" height="57.028" transform="translate(0)" fill="none"/>
      </g>
      <g id="Grupo_1211255" data-name="Grupo 1211255" transform="translate(71.254 113.402)">
        <g id="Grupo_1211254" data-name="Grupo 1211254" transform="translate(-64.289 -110.624)" clip-path="url(#clip-path-2)">
          <path id="Trazado_1273754" data-name="Trazado 1273754" d="M3.573,34.487A4.674,4.674,0,0,1,0,30.889L.023,3.572C1.449-1.828,8.137.665,12.214.091c.893.12,1.21,1.339,0,1.471-2.318.251-7.359-.523-9.182.332A2.868,2.868,0,0,0,1.445,4.555c-.621,8.3.476,17.376.008,25.76a3.072,3.072,0,0,0,2.413,2.709H6.426V18.463a6.245,6.245,0,0,1,.612-1.437,4.187,4.187,0,0,1,5.24-1.563A4.146,4.146,0,0,1,18.354,11.8a8.153,8.153,0,0,1,1.093-2.268,4.122,4.122,0,0,1,7.321,2.856,4.7,4.7,0,0,1,4.086.376,4.786,4.786,0,0,1,1.913,3.063V33.023h5.341a3.953,3.953,0,0,0,1.463-.732c1.571-1.4.709-3.8.966-5.625a.711.711,0,0,1,1.373-.224,28.432,28.432,0,0,1,.077,4.314c-.278,2.565-2.98,4.138-5.416,3.73.264,4.6.015,8.987-3.816,12.061a20.384,20.384,0,0,0-2.543,1.7c-.539.835.186,2.466-.669,2.849-1.311.588-1.117-1.872-1.023-2.639.2-1.674,1.892-2.074,3.063-2.936,1.591-1.172,3.526-4.135,3.526-6.133v-4.9H32.767c-.016.675.254,2.333-.8,2.33-.173,0-.658-.249-.658-.354V16.122a4.852,4.852,0,0,0-.61-1.439,2.5,2.5,0,0,0-3.9-.289l-.161,16.194a.851.851,0,0,1-1.2-.115l-.135-18.6a2.672,2.672,0,0,0-5.205-.522l-.06,17.793c-.093,1.227-1.513,1.244-1.615,0l-.071-15.586a2.716,2.716,0,0,0-4.614,1.969c-.4,4.621.3,9.817.012,14.5a.739.739,0,1,1-1.478,0l-.021-12.71c-1.5-1.616-4.189-.377-4.362,1.727L7.876,37.186c-.15,1.066-1.45.63-1.45.3v-3c-.9-.085-1.982.117-2.854,0" transform="translate(0 -0.001)" fill="#fff"/>
          <path id="Trazado_1273755" data-name="Trazado 1273755" d="M127.8,4.631a3.054,3.054,0,0,0-2.573-2.4l-22.68-.148a.742.742,0,0,1,.185-1.3L125.514.769c1.387-.055,3.748,2.14,3.748,3.423V24.24c0,.477-1.463.477-1.463,0Z" transform="translate(-87.276 -0.656)" fill="#fff"/>
          <path id="Trazado_1273756" data-name="Trazado 1273756" d="M44.429,272.435c1.291-.443,1.168,1.441,1.445,2.312,1.182,3.709,4.963,4,5.705,7.026.167.683.414,2.078-.728,1.912-.775-.113-.623-1.335-.844-1.95-.485-1.345-2.169-1.856-3.19-2.809a9.347,9.347,0,0,1-2.381-3.765c-.172-.56-.75-2.471-.008-2.725" transform="translate(-37.613 -232.511)" fill="#fff"/>
          <path id="Trazado_1273757" data-name="Trazado 1273757" d="M252.091,28.154c-.588.59-1.71-.293-1.145-1.073.711-.981,1.838.378,1.145,1.073" transform="translate(-214.092 -22.825)" fill="#fff"/>
          <path id="Trazado_1273758" data-name="Trazado 1273758" d="M255.5,46.607c1.152-.306,1.247,1.466.236,1.557a.8.8,0,0,1-.236-1.557" transform="translate(-217.647 -39.757)" fill="#fff"/>
          <path id="Trazado_1273759" data-name="Trazado 1273759" d="M238.186,39.769c.62.622-.257,1.858-.981,1.2a.776.776,0,0,1,.981-1.2" transform="translate(-202.236 -33.783)" fill="#fff"/>
        </g>
      </g>
    </g>
  </g>
</svg>
