<svg xmlns="http://www.w3.org/2000/svg" xmlns:xlink="http://www.w3.org/1999/xlink" width="96" height="96" viewBox="0 0 96 96">
  <defs>
    <clipPath id="clip-path">
      <rect id="Rectángulo_455595" data-name="Rectángulo 455595" width="96" height="96" fill="none"/>
    </clipPath>
    <clipPath id="clip-path-2">
      <rect id="Rectángulo_460720" data-name="Rectángulo 460720" width="53.281" height="53.274" fill="#fff"/>
    </clipPath>
  </defs>
  <g id="Grupo_1208574" data-name="Grupo 1208574" transform="translate(-735.746 -9118)">
    <g id="Grupo_1180407" data-name="Grupo 1180407" transform="translate(735.746 9117.971)">
      <g id="Grupo_1179172" data-name="Grupo 1179172" transform="translate(0 0.03)" clip-path="url(#clip-path)">
        <path id="Trazado_998483" data-name="Trazado 998483" d="M92.562,52.469A40.092,40.092,0,1,1,52.469,12.377,40.093,40.093,0,0,1,92.562,52.469" transform="translate(-4.455 -4.484)" fill="#8d1939"/>
        <path id="Trazado_998485" data-name="Trazado 998485" d="M90.9,46.451A44.45,44.45,0,1,1,46.451,2,44.45,44.45,0,0,1,90.9,46.451Z" transform="translate(1.564 1.535)" fill="none" stroke="#8d1939" stroke-miterlimit="10" stroke-width="4"/>
      </g>
    </g>
    <g id="Grupo_1180408" data-name="Grupo 1180408" transform="translate(755.746 9137)">
      <g id="Grupo_1099618" data-name="Grupo 1099618" transform="translate(-0.035 -0.221)">
        <rect id="Rectángulo_401104" data-name="Rectángulo 401104" width="56.349" height="57.028" transform="translate(0)" fill="none"/>
      </g>
      <g id="Grupo_1211259" data-name="Grupo 1211259" transform="translate(1.965 1.78)">
        <g id="Grupo_1211258" data-name="Grupo 1211258" clip-path="url(#clip-path-2)">
          <path id="Trazado_1273765" data-name="Trazado 1273765" d="M10.061.062C18.034-.713,21.273,6.429,26.642,10.7c.578,0,7.057-7.1,8.242-8.085a11.236,11.236,0,0,1,18.375,9.375c-.405,6.609-7.022,9.929-10.682,14.645,0,.578,7.1,7.058,8.085,8.242a11.239,11.239,0,0,1-9.375,18.375c-6.609-.405-9.929-7.022-14.645-10.682-.578,0-7.057,7.1-8.242,8.085A11.238,11.238,0,0,1,.026,41.281c.431-6.618,7.014-9.932,10.681-14.646,0-.573-7.043-7-8.015-8.159A11.233,11.233,0,0,1,10.061.062m.457,1.526A9.67,9.67,0,0,0,3.469,16.935L36.342,49.807c9.024,6.348,19.807-4.453,13.473-13.473L17.873,4.209a10,10,0,0,0-7.355-2.621m30.813,0c-5.781.449-9.228,6.6-13.321,10.017l-.213.365,13.62,13.51c4.161-4.824,11.6-8.721,10.1-16.166A9.737,9.737,0,0,0,41.331,1.588M11.867,27.79c-2.36,2.565-5.306,4.925-7.576,7.536a9.661,9.661,0,0,0,13.66,13.66c2.611-2.27,4.971-5.215,7.536-7.576Z" transform="translate(0 0)" fill="#fff"/>
          <path id="Trazado_1273766" data-name="Trazado 1273766" d="M89.835,80a2.226,2.226,0,0,1,2.029.495l16.093,16.093A2.354,2.354,0,0,1,107.8,99.8a79.215,79.215,0,0,1-7.93,7.934c-1.086.882-2.1,1.14-3.287.229L80.493,91.871c-.955-1.241-.6-2.248.307-3.361a77.311,77.311,0,0,1,7.7-7.7,4.373,4.373,0,0,1,1.332-.8m.458,1.514a1.308,1.308,0,0,0-.571.355c-2.177,2.675-5.829,5.185-7.855,7.855-.464.611-.519.868.075,1.456l15.864,15.724a.876.876,0,0,0,.922-.318c2.177-2.675,5.829-5.185,7.855-7.855.464-.611.519-.868-.075-1.456L90.643,81.555a.586.586,0,0,0-.351-.037" transform="translate(-67.735 -67.749)" fill="#fff"/>
          <rect id="Rectángulo_460715" data-name="Rectángulo 460715" width="1.496" height="1.497" transform="translate(41.983 40.19) rotate(-47.995)" fill="#fff"/>
          <rect id="Rectángulo_460716" data-name="Rectángulo 460716" width="1.496" height="1.497" transform="translate(44.576 37.597) rotate(-47.995)" fill="#fff"/>
          <rect id="Rectángulo_460717" data-name="Rectángulo 460717" width="1.496" height="1.497" transform="translate(46.559 44.614) rotate(-47.995)" fill="#fff"/>
          <path id="Trazado_1273767" data-name="Trazado 1273767" d="M266.314,295.129l1,1.141a2.012,2.012,0,0,1-1,1l-1.141-1Z" transform="translate(-224.724 -250.11)" fill="#fff"/>
          <path id="Trazado_1273768" data-name="Trazado 1273768" d="M283.192,279.169c.368-.1.994.626,1.119.975l-1,1-1.141-1Z" transform="translate(-239.131 -236.577)" fill="#fff"/>
          <path id="Trazado_1273769" data-name="Trazado 1273769" d="M235.117,267.129l1,1.141-1,1-1-1Z" transform="translate(-198.408 -226.381)" fill="#fff"/>
          <path id="Trazado_1273770" data-name="Trazado 1273770" d="M251.192,251.169c.368-.1.994.626,1.119.975l-1,1-1.141-1Z" transform="translate(-212.012 -212.848)" fill="#fff"/>
          <path id="Trazado_1273771" data-name="Trazado 1273771" d="M268.641,234.45a4.135,4.135,0,0,1,.674.77l-1,1.148-1.141-1.141.918-.921c.235-.128.375.032.551.144" transform="translate(-226.419 -198.525)" fill="#fff"/>
          <path id="Trazado_1273772" data-name="Trazado 1273772" d="M84.229,64.183l1.12.981-1.141,1.141-.981-1.12Z" transform="translate(-70.532 -54.393)" fill="#fff"/>
          <path id="Trazado_1273773" data-name="Trazado 1273773" d="M44.315,73.129l.981,1.12-1.112,1-1.01-.981Z" transform="translate(-36.588 -61.974)" fill="#fff"/>
          <path id="Trazado_1273774" data-name="Trazado 1273774" d="M89.315,88.129l.981,1.12-1.112,1-1.01-.981Z" transform="translate(-74.724 -74.686)" fill="#fff"/>
          <path id="Trazado_1273775" data-name="Trazado 1273775" d="M72.315,105.129l.981,1.12-1.112,1-1.01-.981Z" transform="translate(-60.317 -89.093)" fill="#fff"/>
          <path id="Trazado_1273776" data-name="Trazado 1273776" d="M218.208,284.129l1.141,1.141-1.01.98-1.112-1Z" transform="translate(-184.092 -240.788)" fill="#fff"/>
          <path id="Trazado_1273777" data-name="Trazado 1273777" d="M285.183,217.183l1.112,1-.98,1.12-1.141-1.141Z" transform="translate(-240.826 -184.054)" fill="#fff"/>
          <path id="Trazado_1273778" data-name="Trazado 1273778" d="M300.183,262.183l1.112,1-.98,1.12-1.141-1.141Z" transform="translate(-253.538 -222.19)" fill="#fff"/>
          <path id="Trazado_1273779" data-name="Trazado 1273779" d="M259.183,273.183l1.112,1-.98,1.12-1.141-1.141Z" transform="translate(-218.792 -231.512)" fill="#fff"/>
          <path id="Trazado_1273780" data-name="Trazado 1273780" d="M55.229,34.183l1.12.981-1.141,1.141-.981-1.12Z" transform="translate(-45.956 -28.969)" fill="#fff"/>
          <path id="Trazado_1273781" data-name="Trazado 1273781" d="M242.183,290.183l1.112,1-.98,1.12-1.141-1.141Z" transform="translate(-204.385 -245.919)" fill="#fff"/>
          <path id="Trazado_1273782" data-name="Trazado 1273782" d="M101.229,47.183l1.12.981-1.141,1.141-.981-1.12Z" transform="translate(-84.939 -39.986)" fill="#fff"/>
          <path id="Trazado_1273783" data-name="Trazado 1273783" d="M289.183,302.183l1.112,1-.98,1.12-1.141-1.141Z" transform="translate(-244.216 -256.089)" fill="#fff"/>
          <path id="Trazado_1273784" data-name="Trazado 1273784" d="M106.192,72.158c.4-.1.836.573,1.1.844l-1,1.112-1.12-.98Z" transform="translate(-89.13 -61.142)" fill="#fff"/>
          <path id="Trazado_1273785" data-name="Trazado 1273785" d="M61.192,57.158c.4-.1.836.573,1.1.844l-1,1.112-1.12-.98Z" transform="translate(-50.994 -48.43)" fill="#fff"/>
          <path id="Trazado_1273786" data-name="Trazado 1273786" d="M50.183,98.183l1.12.981-1.01.98-1.12-.98Z" transform="translate(-41.673 -83.207)" fill="#fff"/>
          <path id="Trazado_1273787" data-name="Trazado 1273787" d="M67.183,81.183l1.12.981-1.01.98-1.12-.98Z" transform="translate(-56.08 -68.8)" fill="#fff"/>
          <path id="Trazado_1273788" data-name="Trazado 1273788" d="M38.183,51.183l1.12.981-1.01.98-1.12-.98Z" transform="translate(-31.503 -43.376)" fill="#fff"/>
          <path id="Trazado_1273789" data-name="Trazado 1273789" d="M78.183,40.183l1.12.981-1.01.98-1.12-.98Z" transform="translate(-65.402 -34.054)" fill="#fff"/>
          <path id="Trazado_1273790" data-name="Trazado 1273790" d="M56.208,122.129l.981,1.01-.981,1.12-.981-1.01Z" transform="translate(-46.803 -103.5)" fill="#fff"/>
          <path id="Trazado_1273791" data-name="Trazado 1273791" d="M123.183,55.183l1.12.981-1.01.98-1.12-.98Z" transform="translate(-103.537 -46.766)" fill="#fff"/>
          <path id="Trazado_1273792" data-name="Trazado 1273792" d="M253.183,64.183l1.112,1-.98,1.12-1.141-1.141Z" transform="translate(-213.707 -54.393)" fill="#fff"/>
          <path id="Trazado_1273793" data-name="Trazado 1273793" d="M293.208,73.129l1.141,1.141-1.01.981-1.112-1Z" transform="translate(-247.651 -61.974)" fill="#fff"/>
          <path id="Trazado_1273794" data-name="Trazado 1273794" d="M248.208,88.129l1.141,1.141-1.01.981-1.112-1Z" transform="translate(-209.516 -74.686)" fill="#fff"/>
          <path id="Trazado_1273795" data-name="Trazado 1273795" d="M265.208,105.129l1.141,1.141-1.01.981-1.112-1Z" transform="translate(-223.922 -89.093)" fill="#fff"/>
          <path id="Trazado_1273796" data-name="Trazado 1273796" d="M282.183,34.183l1.112,1-.98,1.12-1.141-1.141Z" transform="translate(-238.284 -28.969)" fill="#fff"/>
          <path id="Trazado_1273797" data-name="Trazado 1273797" d="M236.183,47.183l1.112,1-.98,1.12-1.141-1.141Z" transform="translate(-199.301 -39.986)" fill="#fff"/>
          <path id="Trazado_1273798" data-name="Trazado 1273798" d="M276.086,57.158c.435-.114.923.724,1.263.975l-1.01.98-1.112-1Z" transform="translate(-233.244 -48.431)" fill="#fff"/>
          <path id="Trazado_1273799" data-name="Trazado 1273799" d="M299.183,51.183l1.12.981-1.01.98-1.12-.98Z" transform="translate(-252.691 -43.376)" fill="#fff"/>
          <path id="Trazado_1273800" data-name="Trazado 1273800" d="M259.183,40.183l1.12.981-1.01.98-1.12-.98Z" transform="translate(-218.792 -34.054)" fill="#fff"/>
          <path id="Trazado_1273801" data-name="Trazado 1273801" d="M231.183,72.183l1.12.981-1.01.98-1.12-.98Z" transform="translate(-195.063 -61.173)" fill="#fff"/>
          <path id="Trazado_1273802" data-name="Trazado 1273802" d="M270.183,81.183l1.12.981-1.01.98-1.12-.98Z" transform="translate(-228.114 -68.8)" fill="#fff"/>
          <path id="Trazado_1273803" data-name="Trazado 1273803" d="M214.183,55.183l1.12.981-1.01.98-1.12-.98Z" transform="translate(-180.656 -46.766)" fill="#fff"/>
          <path id="Trazado_1273804" data-name="Trazado 1273804" d="M282.208,122.129l.981,1.01-.981,1.12-.98-1.01Z" transform="translate(-238.329 -103.5)" fill="#fff"/>
          <path id="Trazado_1273805" data-name="Trazado 1273805" d="M287.183,98.183l1.12.981-1.01.98-1.12-.98Z" transform="translate(-242.521 -83.207)" fill="#fff"/>
          <rect id="Rectángulo_460718" data-name="Rectángulo 460718" width="1.496" height="1.497" transform="matrix(0.669, -0.743, 0.743, 0.669, 6.594, 37.597)" fill="#fff"/>
          <rect id="Rectángulo_460719" data-name="Rectángulo 460719" width="1.496" height="1.497" transform="matrix(0.669, -0.743, 0.743, 0.669, 4.611, 44.614)" fill="#fff"/>
          <path id="Trazado_1273806" data-name="Trazado 1273806" d="M102.314,267.129l1,1.141a2.012,2.012,0,0,1-1,1l-1.141-1Z" transform="translate(-85.74 -226.381)" fill="#fff"/>
          <path id="Trazado_1273807" data-name="Trazado 1273807" d="M62.342,257.384l-1.113.914-1-1.112,1.112-1c.2.2,1.151.94,1,1.2" transform="translate(-51.04 -217.106)" fill="#fff"/>
          <path id="Trazado_1273808" data-name="Trazado 1273808" d="M68.995,234.158c.435-.114.923.724,1.263.975l-1.141,1.141-1-1.141Z" transform="translate(-57.729 -198.431)" fill="#fff"/>
          <path id="Trazado_1273809" data-name="Trazado 1273809" d="M71.117,295.129l1.141,1.141-1.141,1a2.012,2.012,0,0,1-1-1Z" transform="translate(-59.424 -250.11)" fill="#fff"/>
          <path id="Trazado_1273810" data-name="Trazado 1273810" d="M53.995,279.158c.435-.114.923.724,1.263.975l-1.141,1-1-1Z" transform="translate(-45.017 -236.567)" fill="#fff"/>
          <path id="Trazado_1273811" data-name="Trazado 1273811" d="M85.995,251.158c.435-.114.923.724,1.263.975l-1.141,1-1-1Z" transform="translate(-72.136 -212.838)" fill="#fff"/>
          <path id="Trazado_1273812" data-name="Trazado 1273812" d="M52.229,217.183l1.12.981-1.141,1.141-.981-1.12Z" transform="translate(-43.413 -184.054)" fill="#fff"/>
          <path id="Trazado_1273813" data-name="Trazado 1273813" d="M37.229,262.183l1.12.98-1.141,1.141-.981-1.12Z" transform="translate(-30.702 -222.19)" fill="#fff"/>
          <path id="Trazado_1273814" data-name="Trazado 1273814" d="M78.229,273.183l1.12.98-1.141,1.141-.981-1.12Z" transform="translate(-65.447 -231.512)" fill="#fff"/>
          <path id="Trazado_1273815" data-name="Trazado 1273815" d="M119.315,284.129l.981,1.12-1.112,1-1.01-.98Z" transform="translate(-100.147 -240.788)" fill="#fff"/>
          <path id="Trazado_1273816" data-name="Trazado 1273816" d="M95.229,290.183l1.12.981-1.141,1.141-.981-1.12Z" transform="translate(-79.854 -245.919)" fill="#fff"/>
          <path id="Trazado_1273817" data-name="Trazado 1273817" d="M48.229,302.183l1.12.98-1.141,1.141-.981-1.12Z" transform="translate(-40.024 -256.089)" fill="#fff"/>
        </g>
      </g>
    </g>
  </g>
</svg>
