<svg xmlns="http://www.w3.org/2000/svg" xmlns:xlink="http://www.w3.org/1999/xlink" width="128" height="128" viewBox="0 0 128 128">
  <defs>
    <clipPath id="clip-path">
      <rect id="Rectángulo_455595" data-name="Rectángulo 455595" width="128" height="128" fill="none"/>
    </clipPath>
    <clipPath id="clip-path-2">
      <rect id="Rectángulo_460711" data-name="Rectángulo 460711" width="45.607" height="65.3" fill="#8d1939"/>
    </clipPath>
  </defs>
  <g id="Grupo_1212896" data-name="Grupo 1212896" transform="translate(-734.604 -1733.826)">
    <g id="Grupo_1208428" data-name="Grupo 1208428" transform="translate(734.604 1733.826)">
      <g id="Grupo_1179172" data-name="Grupo 1179172" clip-path="url(#clip-path)">
        <path id="Trazado_998483" data-name="Trazado 998483" d="M118.651,65.514A53.137,53.137,0,1,1,65.514,12.377a53.138,53.138,0,0,1,53.137,53.137" transform="translate(-1.514 -1.514)" fill="#ff9ebf"/>
        <path id="Trazado_998485" data-name="Trazado 998485" d="M126.489,64.245A62.245,62.245,0,1,1,64.245,2,62.244,62.244,0,0,1,126.489,64.245Z" transform="translate(-0.245 -0.245)" fill="none" stroke="#8d1939" stroke-miterlimit="10" stroke-width="4"/>
      </g>
    </g>
    <g id="Grupo_1208429" data-name="Grupo 1208429" transform="translate(764.604 1763.826)">
      <g id="Grupo_1099618" data-name="Grupo 1099618" transform="translate(0.107 0.174)">
        <rect id="Rectángulo_401104" data-name="Rectángulo 401104" width="68" height="68" transform="translate(0)" fill="none"/>
      </g>
      <g id="Grupo_1211251" data-name="Grupo 1211251" transform="translate(11.107 1.174)">
        <g id="Grupo_1211250" data-name="Grupo 1211250" clip-path="url(#clip-path-2)">
          <path id="Trazado_1273747" data-name="Trazado 1273747" d="M73.578,29.334l-1.133.391-.731-.966-.007-24.2a3.18,3.18,0,0,0-6.153-.515L65.417,28.87c-.318,1.366-1.946,1.058-1.975-.283-.454-6.251.615-13.381.013-19.527a3.155,3.155,0,0,0-4.746-2.476c-2.861,1.612-1.13,7.277-1.648,9.985a.944.944,0,0,1-1.853-.193c-.217-1.562-.174-7.481.319-8.847a5.264,5.264,0,0,1,7.917-2.307c.19-6.921,10.176-7,10.135,0,.738-.116,1.323-.7,2.052-.854,3.883-.8,6.7,2.359,6.392,6.109,3.492-2.522,7.791-.353,8.231,3.87.266,2.555-.08,5.554-.062,8.148a.983.983,0,0,1-1.939-.143c-.492-2.238.264-5.971-.036-8.407-.418-3.4-5.723-3.413-6.2,0l-.009,14.815-.271.667a1.121,1.121,0,0,1-1.5,0,1.421,1.421,0,0,1-.287-.839c-.709-6.014.587-13.4.01-19.524a3.163,3.163,0,0,0-6.109-.841c-.045.131-.277,1.161-.277,1.224Z" transform="translate(-44.748 -0.001)" fill="#8d1939"/>
          <path id="Trazado_1273748" data-name="Trazado 1273748" d="M10.442,106.434c.148-.818,1.753-.967,1.871.005l.11,12.65,3.164,5.092c1.733.258,3.381.579,4.608,1.959a58.723,58.723,0,0,1,3.985,6.334c.476,1.233-.251,2.065-1.369,1.369-1.412-1.764-2.349-4.1-3.695-5.873-1.46-1.92-2.543-1.522-4.681-1.982l-6.807-11.3a3.177,3.177,0,0,0-5.585,2.772l8.694,15.333-.233,1.141a1.2,1.2,0,0,1-1.322-.07L.3,118.261c-1.754-5.207,4.52-8.866,8.449-5.259l1.691,2.531Z" transform="translate(0 -85.919)" fill="#8d1939"/>
          <path id="Trazado_1273749" data-name="Trazado 1273749" d="M232.308,137.758a.987.987,0,0,1,1.284.711l.089,37.446c-.308,1.945-2.139,1.466-2.076-.372l.15-37.2a1.109,1.109,0,0,1,.552-.581" transform="translate(-188.148 -111.865)" fill="#8d1939"/>
          <path id="Trazado_1273750" data-name="Trazado 1273750" d="M130.971,178.038a4.279,4.279,0,0,1,4.335,3.445c.471,3.457-.308,7.859.006,11.419a1.9,1.9,0,0,1-2.667,1.374c-1.008-.5-1.549-2.518-2.389-3.427-1.16-1.255-2.688-1.583-2.985-3.769a31.966,31.966,0,0,1,.075-6.084,4.174,4.174,0,0,1,3.625-2.957m-.394,2.062c-2.325.535-1.762,4.862,1.417,4.041a2.142,2.142,0,0,0-1.417-4.041m2.869,5.589a5.2,5.2,0,0,1-4.314,0c-.382,2.149,1.587,2.83,2.722,4.125.607.693.931,1.629,1.593,2.254Z" transform="translate(-103.303 -144.628)" fill="#8d1939"/>
          <path id="Trazado_1273751" data-name="Trazado 1273751" d="M60.1,267.739a1.139,1.139,0,0,1,1.191.235l3.512,6.244.043,7.839a.962.962,0,0,1-1.837-.04c-.341-2.161.34-5.184-.082-7.235-.293-1.423-2.709-4.2-3.249-5.76a.909.909,0,0,1,.422-1.282" transform="translate(-48.399 -217.448)" fill="#8d1939"/>
        </g>
      </g>
    </g>
  </g>
</svg>
