<svg xmlns="http://www.w3.org/2000/svg" xmlns:xlink="http://www.w3.org/1999/xlink" width="128" height="128" viewBox="0 0 128 128">
  <defs>
    <clipPath id="clip-path">
      <rect id="Rectángulo_455595" data-name="Rectángulo 455595" width="128" height="128" fill="none"/>
    </clipPath>
    <clipPath id="clip-path-2">
      <rect id="Rectángulo_460709" data-name="Rectángulo 460709" width="64.157" height="64.174" fill="#8d1939"/>
    </clipPath>
  </defs>
  <g id="Grupo_1212898" data-name="Grupo 1212898" transform="translate(-5883 9942)">
    <g id="Grupo_1210173" data-name="Grupo 1210173" transform="translate(5883 -9942)">
      <g id="Grupo_1179172" data-name="Grupo 1179172" clip-path="url(#clip-path)">
        <path id="Trazado_998483" data-name="Trazado 998483" d="M118.651,65.514A53.137,53.137,0,1,1,65.514,12.377a53.138,53.138,0,0,1,53.137,53.137" transform="translate(-1.514 -1.514)" fill="#ff9ebf"/>
        <path id="Trazado_998485" data-name="Trazado 998485" d="M126.489,64.245A62.245,62.245,0,1,1,64.245,2,62.244,62.244,0,0,1,126.489,64.245Z" transform="translate(-0.245 -0.245)" fill="none" stroke="#8d1939" stroke-miterlimit="10" stroke-width="4"/>
      </g>
    </g>
    <g id="Grupo_1210176" data-name="Grupo 1210176" transform="translate(5913.117 -9912.174)">
      <g id="Grupo_1099618" data-name="Grupo 1099618" transform="translate(-0.117 0.174)">
        <rect id="Rectángulo_401104" data-name="Rectángulo 401104" width="68" height="68" transform="translate(0)" fill="none"/>
      </g>
      <g id="Grupo_1211247" data-name="Grupo 1211247" transform="translate(1.883 2.174)">
        <g id="Grupo_1211246" data-name="Grupo 1211246" clip-path="url(#clip-path-2)">
          <path id="Trazado_1273734" data-name="Trazado 1273734" d="M74.819,1.63c.028-.013.056-.234.173-.317,2.415-1.712,4.6-1.864,6.762.344C83.562-.022,85.932-.618,88.118.784c.313.2.836.921,1.107.874A4.685,4.685,0,0,1,97.389,3.8c-.6,6.138,1.178,14.764-.706,20.526-.258.788-1.125,3.3-2.3,2.1-.663-.682.507-2.613.732-3.48,1.4-5.406-.107-12.947.461-18.62a2.763,2.763,0,0,0-5.462-.135c-.145.877.345,2.775-1.046,2.617-1.181-.134-.738-1.86-.849-2.645a2.764,2.764,0,0,0-5.441.027c-.153.92.4,2.767-1.046,2.62-1.174-.12-.743-1.885-.848-2.647a2.746,2.746,0,0,0-3.963-1.978c-2.186,1.132-.735,3.9-1.932,4.488-1.741.861-1.313-1.983-1.5-2.814-.609-2.646-4.853-2.521-5.227-.067-.4,2.588.242,6.091,0,8.8-.083.914-.549,1.822-1.579,1.194-.771-.471-.269-1.509-.536-2.209A4.8,4.8,0,0,0,63.2,13.951c-.663,1.389-.6,5.574-.429,7.228a13.91,13.91,0,0,0,6.341,9.8c.816.5,3.432,1.24,2.9,2.416-.659,1.452-2.924-.5-3.025-.362-.263,5.106.174,10.018,2.385,14.671L73.2,45.96c-1.811-1.5-.1-3.32,1.378-1.378,2.138-2.666,4.15-.736,1.379,1.378l1.214,1.179c.786-.8,2.586-1.221,2.235.429-.237,1.117-1.455.765.491,2.331l6.336-6.314a.98.98,0,0,1,1.612.866c-.149.954-5.618,5.532-6.473,6.725.554,2.228-1.194,1.544-2.668,1.57-.7-.345-.162-1.235-.282-1.57-.079-.22-.9-.833-1.118-1.077A15.808,15.808,0,0,0,74.7,52.588c-.057.29.649,1.164.894,1.264.516.21.924-.637,1.651.175.649.726-.141,1.092.078,1.557a3.234,3.234,0,0,0,1.266.9l6.445-6.4c1.716-1.218,2.248,1.25.645,2.108l1.214,1.179c.232.041,1.861-1.965,2.374-.359.341,1.064-.719,1.334-.8,1.768-.069.376.409.915-.025,1.464-.474.6-1.17-.056-1.66.159-.729.32-2.454,2.759-3.308,3.309,1.451-.031,2.523,2.191.809,2.289-1.212.069-6.3-3.381-7.415-4.3-7.755-6.421-10.553-15.95-9.939-25.823a16.19,16.19,0,0,1-5.988-10.517c-.651-4.8-.556-10.578,5.285-11.627.252-2.949-.946-7.147,2.082-9.014a4.828,4.828,0,0,1,5.25.139c.369.233.736,1.023,1.262.773M73.205,51c.3.21,2.2-1.988,2.551-2.316l-1.179-1.347L72.5,49.47ZM84.3,53.574,80.174,57.7l1.406.985.237-.055c.227-.114,3.475-3.365,3.591-3.59.233-.453-.857-1.087-1.111-1.462" transform="translate(-49.543 -0.001)" fill="#8d1939"/>
          <path id="Trazado_1273735" data-name="Trazado 1273735" d="M207.766,156.271c.1,2.7-1.083,7.657,2.794,8.041,4.964.491,10.8-.5,15.779-.007a3.871,3.871,0,0,1,3.768,3.751c.463,5.391-.365,11.425,0,16.886a3.824,3.824,0,0,1-3.4,3.569c-6.741-.6-15.425,1.073-21.888-.67-.541-.146-1.388-.379-1.421-1.069-.079-1.661,2.185-.624,3-.512,6.533.9,13.346.184,19.945.42a2.114,2.114,0,0,0,1.91-1.758c-.351-5.3.507-11.282.019-16.5-.09-.965-.456-1.975-1.559-2.11-5.114-.357-10.932.505-15.961.006a5.307,5.307,0,0,1-4.863-4.49c-.112-1.034.238-3.45-.023-4.2-.115-.328-.591-.286-.812-.471-1.239-1.037,1.458-2.155,2.1-2.686.676-.556,2.468-3.074,3.227-1.544.558,1.125-1.791,2.768-2.621,3.34" transform="translate(-166.095 -124.488)" fill="#8d1939"/>
          <path id="Trazado_1273736" data-name="Trazado 1273736" d="M.489,256.094l16.484-.039.65.265a1.021,1.021,0,0,1-.832,1.587L.555,257.8a.961.961,0,0,1-.066-1.708" transform="translate(0 -209.096)" fill="#8d1939"/>
          <path id="Trazado_1273737" data-name="Trazado 1273737" d="M57.872,279.215a1.043,1.043,0,0,1,1.079.7c.107.388-.249.88-.479,1.2a98.583,98.583,0,0,1-8.527,8.528c-.82.573-1.536.55-1.922-.454a1.368,1.368,0,0,1,.365-.738,94.269,94.269,0,0,1,8.8-8.806,1.648,1.648,0,0,1,.687-.426" transform="translate(-39.216 -228)" fill="#8d1939"/>
          <path id="Trazado_1273738" data-name="Trazado 1273738" d="M42.708,194.56c.973,1.131-.042,2.251-1.211,1.485l-8.456-7.5a1.189,1.189,0,0,1,0-1.315,1.132,1.132,0,0,1,1.4-.083Z" transform="translate(-26.817 -152.663)" fill="#8d1939"/>
          <path id="Trazado_1273739" data-name="Trazado 1273739" d="M104.533,305.235a1.444,1.444,0,0,1,.147.876,51.7,51.7,0,0,1-2.815,6.177c-.83,1.387-2.241.821-1.785-.686l3.013-6.478c.257-.27,1.253-.1,1.44.111" transform="translate(-81.654 -249.052)" fill="#8d1939"/>
          <path id="Trazado_1273740" data-name="Trazado 1273740" d="M139.148,324.945c.759-.229,1.209.037,1.326.8a13.994,13.994,0,0,1-.026,2.883c-.253.874-1.64.889-1.8.039-.118-.648-.2-3.514.5-3.724" transform="translate(-113.16 -265.287)" fill="#8d1939"/>
          <path id="Trazado_1273741" data-name="Trazado 1273741" d="M168.557,238.369a.968.968,0,0,1,.126,1.92.968.968,0,1,1-.126-1.92" transform="translate(-136.889 -194.653)" fill="#8d1939"/>
        </g>
      </g>
    </g>
  </g>
</svg>
