<svg id="Grupo_1210178" data-name="Grupo 1210178" xmlns="http://www.w3.org/2000/svg" xmlns:xlink="http://www.w3.org/1999/xlink" width="85" height="85" viewBox="0 0 85 85">
  <defs>
    <clipPath id="clip-path">
      <rect id="Rectángulo_460722" data-name="Rectángulo 460722" width="64.711" height="69.147" fill="#8d1939"/>
    </clipPath>
  </defs>
  <path id="Sustracción_110" data-name="Sustracción 110" d="M0,0H85V85H0Z" fill="#ffe19a"/>
  <g id="Grupo_1211263" data-name="Grupo 1211263" transform="translate(169.289 122.631)">
    <g id="Grupo_1211262" data-name="Grupo 1211262" transform="translate(-159.289 -114.631)" clip-path="url(#clip-path)">
      <path id="Trazado_1273823" data-name="Trazado 1273823" d="M51.829,44.888l-.519-.321c-2.935,1.458-6.286,4.466-9.518,1.9-2.609-2.071-2.163-6.183-5.075-7.814-1.686.98-3.169,2.235-4.929,3.107a16,16,0,0,1-5.542,1.753l0,2.96c1-.037,2.392-.079,2.524,1.176-.277,5.077.418,10.62.022,15.64a5.9,5.9,0,0,1-5.614,5.8c-4.228.375-7.577-1.269-7.933-5.8-.394-5.022.3-10.562.022-15.64.132-1.255,1.526-1.213,2.524-1.176l0-2.96C-.2,40.217-6.314,17.279,7.739,5.238A22.107,22.107,0,0,1,39.67,8.818a7.1,7.1,0,0,1,9.091.233c1.237,1.141,2.812,4.365,4.33,4.762,1.484.388,4.025.032,5.8.333,4.575.777,6.783,3.718,5.424,8.339-.5,1.7-2.2,3.917-2.337,5.488-.142,1.661.927,2.622,1.333,4.166,1.031,3.918-.385,8.209-4.516,9.389-.418,3.3,1.93,13.49-4.228,12.252-1.086-.218-2.736-1.649-2.736-2.76ZM20.494,2.347A19.73,19.73,0,1,0,38.679,32.584c8.65-13.7-2.067-31.478-18.185-30.237M43.022,44.5c2.805,2.524,6.281-3.253,9.316-2.019,3.209,1.3,1.167,5.866,1.862,8.286.345,1.2,2.088,1.127,2.286-.585.364-3.142-.358-6.857.089-10.06.277-.827,1.662-.762,2.445-1.149,1.635-.809,2.4-2.914,2.334-4.659-.093-2.533-1.93-3.855-1.7-6.548.263-3.061,3.885-6.225,2.367-9.35-1.287-2.649-6.49-1.922-8.82-2.175-3.833-.415-4.848-6.161-8.245-6.555a5.035,5.035,0,0,0-3.93.98,25.893,25.893,0,0,0,1.448,3.192,22.064,22.064,0,0,1-4.176,23c2.866,1.257,2.908,6.013,4.721,7.644m-19.1,1.976-.2-2.449-3.1-.078-.476.34-.032,2.187Zm-6.343,6.978V63.918a10.035,10.035,0,0,0,.753,1.573c1.23,1.652,5.334,1.733,6.851.533a6.05,6.05,0,0,0,1.277-2.106v-14.8l-.317-.317H17.576v2.326H23.6c1.138,0,1.2,2.326.423,2.326Z" transform="translate(0 0)" fill="#8d1939"/>
      <path id="Trazado_1273824" data-name="Trazado 1273824" d="M150.431,197.8c1.327-.356,1.86.89,2.467,1.873,1.407,2.278,2.56,4.664.418,6.936-3.176,3.367-8.964-.115-7.25-4.5.411-1.051,3.315-4.026,4.365-4.307m.159,2.7c-1.2,1.059-3.175,2.194-2.193,4.093.847,1.637,3.6,1.113,3.777-.626.1-1.041-.962-2.653-1.584-3.467" transform="translate(-114.937 -155.927)" fill="#8d1939"/>
      <path id="Trazado_1273825" data-name="Trazado 1273825" d="M38.462,22.849C52.1,21.672,61.7,36.265,55.033,48.3A17.2,17.2,0,1,1,38.462,22.849m0,2.326c-18.873,1.833-16.9,30.582,2.261,29.747,19.694-.858,18.051-31.72-2.261-29.747" transform="translate(-17.968 -17.965)" fill="#8d1939"/>
    </g>
  </g>
</svg>
