<svg xmlns="http://www.w3.org/2000/svg" xmlns:xlink="http://www.w3.org/1999/xlink" width="101" height="101" viewBox="0 0 101 101">
  <defs>
    <clipPath id="clip-path">
      <rect id="Rectángulo_460728" data-name="Rectángulo 460728" width="44.463" height="83.035" fill="none"/>
    </clipPath>
  </defs>
  <g id="Grupo_1211279" data-name="Grupo 1211279" transform="translate(-361.711 -4892)">
    <rect id="Rectángulo_460137" data-name="Rectángulo 460137" width="101" height="101" rx="50.5" transform="translate(361.711 4892)" fill="#fee7ec"/>
    <g id="Grupo_1211278" data-name="Grupo 1211278" transform="translate(389.711 4901)">
      <g id="Grupo_1211277" data-name="Grupo 1211277" clip-path="url(#clip-path)">
        <path id="Trazado_1273966" data-name="Trazado 1273966" d="M20.675,3.048c1.342.9,1.556,1.593,1.687,3.246.59,7.461-.329,15.822-.436,23.3a66.9,66.9,0,0,0,.22,7.46c.57.077.691-.576.785-1a70.09,70.09,0,0,0,.9-10.434c.247-5.428-.149-11.222.2-16.591.126-1.915.444-4.936,3.009-4.863,2.278.065,2.71,2.717,3.019,4.5,2.119,12.207.326,25.191,2.854,37.243.05.236.659,3.138.981,2.691-.208-3.252,1.149-6.2,1.8-9.226.755-3.522,1.463-13.235,6.812-13.026.078.5-.474.512-.626.793a18.108,18.108,0,0,0-.433,3.082c-.066,2.1.224,2.834,2.528,2.633-.245,2.043-.69,4.148-.838,6.2-.363,5.037.03,11.189-.9,16.109-1.415,7.525-7.466,13.526-8.527,21.913-.128,1.012-.381,6.139-.639,6.5a1.738,1.738,0,0,1-.646.4c-4.064,2-20.312,1.751-24.816.463-.856-.245-1.931-.5-2.066-1.5-.421-3.149.315-7.2-.015-10.481-.643-6.4-4.27-13.348-5.011-20.18-.877-8.089-.654-22.795.689-30.8.363-2.164,1.114-7.669,4.508-6.1.969.448,1.337,2.761,1.325,3.733-.083,7.109-1.474,13.913-.654,21.207.035.314.043.648.425.727.385-5.911.027-11.832.634-17.737.269-2.618.67-5.347,1.075-7.952.287-1.846.59-5.093,1.276-6.7a2.53,2.53,0,0,1,1.846-1.618l.312.419c-1.991-.073-2.187,5.049-.533,5.576,2.923.93,2.584-3.455,2.53-5.155,1.449,1.841.658,2.723.621,4.715-.139,7.493-1.042,14.991-1,22.471a22.266,22.266,0,0,1,.169,3.463c.536.6.816-1.764.836-2,.793-9.546.553-19.67,1.684-29.176.19-1.6.282-3.324,1.678-4.305.4.24-.182.7-.222,1.143-.1,1.1-.278,3.73.856,4.2,2.985,1.25,3.33-3.652,2.1-5.348M25.55,5.612c-.277.481-.133,3.462.471,3.95C28.5,11.569,29.3,7,28.329,5.366c-.58-.977-2.39-.43-2.778.246m-21.3,9.859c-1.967.395-1.624,5.581.758,4.344.963-.5,1.268-3.37.553-4.062a1.514,1.514,0,0,0-1.311-.282M22.509,43.615c-1.3.207-2.786,1.226-4.266,1.4-1.813.216-3-.407-4.39-.419-2.379-.02-2.523,1.983-3.772,3.383-.982,1.1-2.531,1.2-3.215,2.664-.59,1.265-.166,4.842-.248,6.469-.167,3.3-1.4,6.839.955,9.734,3.3,4.062,9.389,1,13.624,1.282,2.8.186,5.324,1.3,7.857-.757,2.814-2.286,1.026-5.023,1.717-7.73.281-1.1,1.271-2.415,1.432-3.605.407-3.008-1.556-3.883-2.75-6.031-.967-1.739-.692-3.84-2.049-5.089a5.992,5.992,0,0,0-4.894-1.3" transform="translate(0 -2.408)" fill="#e9b39d"/>
        <path id="Trazado_1273967" data-name="Trazado 1273967" d="M87.1.64c1.235,1.7.89,6.6-2.1,5.348-1.134-.475-.954-3.108-.856-4.2.04-.447.617-.9.222-1.143,1.3-.911,1.549-.793,2.729,0" transform="translate(-66.426 0)" fill="#f0d3cc"/>
        <path id="Trazado_1273968" data-name="Trazado 1273968" d="M50.46,21.788c1.22-.175,1.6-.061,2.309.84.054,1.7.393,6.085-2.53,5.155-1.654-.527-1.459-5.649.533-5.576Z" transform="translate(-38.812 -17.159)" fill="#f0d3cc"/>
        <path id="Trazado_1273969" data-name="Trazado 1273969" d="M199.939,120.556c-2.3.2-2.594-.528-2.528-2.633a18.128,18.128,0,0,1,.433-3.082c.152-.281.7-.3.626-.793,3.022.118,1.7,4.584,1.47,6.508" transform="translate(-155.962 -90.106)" fill="#f0d3cc"/>
        <path id="Trazado_1273970" data-name="Trazado 1273970" d="M45.643,195.989a5.991,5.991,0,0,1,4.894,1.3c1.357,1.249,1.082,3.35,2.048,5.089,1.194,2.148,3.157,3.022,2.75,6.031-.161,1.19-1.151,2.5-1.432,3.605-.69,2.706,1.1,5.444-1.717,7.73-2.532,2.057-5.061.943-7.857.757-4.235-.281-10.32,2.78-13.624-1.282-2.355-2.9-1.122-6.431-.955-9.734.082-1.627-.342-5.2.248-6.47.684-1.465,2.232-1.563,3.215-2.663,1.25-1.4,1.393-3.4,3.772-3.383,1.386.012,2.578.635,4.39.419,1.48-.177,2.964-1.195,4.266-1.4m-11.911,7.717c-1.113,1.01-1.232,3.027-.84,4.409-.449-.006-.573.262-.807.558C30.6,210.547,29.363,213,30.538,215.4a29.267,29.267,0,0,0,1.931,2.688c2.953,2.94,9.4,2.821,12.809.731a10.487,10.487,0,0,0,4.409,0c1.13-.226,2.9-1.128,3.265-2.3.424-1.373-.209-2.992-.1-4.286.12-1.411,1.476-2.692,1.468-4.439-.012-2.445-2.242-3.322-3.251-4.951-1.187-1.916-.248-4.673-3.429-5.178-2.277-.362-3.572.759-5.643.973-2.437.253-5.831-1.137-7.518,1.3a5.638,5.638,0,0,0-.748,3.765" transform="translate(-23.134 -154.781)" fill="#e6998d"/>
        <path id="Trazado_1273971" data-name="Trazado 1273971" d="M121.2,12.339c.389-.676,2.2-1.223,2.778-.246.973,1.638.175,6.2-2.307,4.2-.6-.488-.748-3.469-.471-3.95" transform="translate(-95.65 -9.136)" fill="#f0d3cc"/>
        <path id="Trazado_1273972" data-name="Trazado 1273972" d="M15.415,62.082a1.514,1.514,0,0,1,1.311.282c.715.692.41,3.561-.553,4.062-2.382,1.237-2.725-3.949-.758-4.344" transform="translate(-11.169 -49.019)" fill="#f0d3cc"/>
        <path id="Trazado_1273973" data-name="Trazado 1273973" d="M46.557,219.625c.4-.359,1.863-.851,2.293-1.17.648-.482.848-1.565,2.022-1.756s1.579.3,2.5.414c2.187.271,3.209-.656,5.15-1.054.109.078-1.56,1.566.411,2.006.823.184.434-.632.782-.754,2.068-.726,1.62.4,2.283,1.462,1.417,2.278,3.465,2.353,2.981,5.736-.132.925-.863,2.028-.986,2.791-.278,1.723.5,3.112-.073,4.966-.316,1.016-1.119,1.5-1.409,2.474a10.483,10.483,0,0,1-4.409,0c-.391-.119-.661-.57-.795-.611a18.2,18.2,0,0,0-2.678-.652c-2.36-.127-6.9,2.349-8.54-.685-1.5-2.774.69-4.715.243-7.38-.07-.418-.5-.962-.616-1.378-.392-1.381-.274-3.4.84-4.409m1.05,1.259c-.852-.094-1.865-.041-1.364,1.047.636,1.378,1.724.084,1.364-1.047m16.974,2.549c-.392-.629-2.131-.077-1.348,1.035.5.712,1.924-.11,1.348-1.035" transform="translate(-35.959 -170.701)" fill="#d16e65"/>
        <path id="Trazado_1273974" data-name="Trazado 1273974" d="M66.342,225.173c.291-.977,1.093-1.459,1.409-2.474.577-1.854-.2-3.243.072-4.965.123-.763.854-1.866.986-2.791.484-3.382-1.564-3.457-2.981-5.736-.664-1.067-.215-2.188-2.283-1.462-.347.122.042.938-.782.754-1.971-.44-.3-1.929-.411-2.006-1.941.4-2.963,1.325-5.15,1.054-.922-.114-1.314-.607-2.5-.414s-1.374,1.274-2.022,1.756c-.43.32-1.9.812-2.293,1.171a5.638,5.638,0,0,1,.748-3.765c1.687-2.436,5.081-1.047,7.518-1.3,2.071-.215,3.367-1.335,5.643-.973,3.181.506,2.242,3.262,3.429,5.178,1.009,1.629,3.239,2.507,3.251,4.952.008,1.747-1.348,3.028-1.468,4.439-.11,1.294.522,2.913.1,4.286-.361,1.17-2.135,2.072-3.265,2.3m-1.47-19.525c.635-.637-1.352-1.988-1.167-.2.168.253,1.1.268,1.167.2m-9.267-.178c-.745-1.212-3.423,1.552.031,1.229-.053-.33.113-1-.031-1.229m-3.718,1.049c-.481.305-.213,1.756.814,1.128.948-.58-.027-1.628-.814-1.128" transform="translate(-39.79 -161.134)" fill="#e17f74"/>
        <path id="Trazado_1273975" data-name="Trazado 1273975" d="M35.87,254.048c.118.416.546.961.616,1.378.447,2.665-1.742,4.606-.243,7.38,1.64,3.034,6.179.558,8.54.685a18.18,18.18,0,0,1,2.678.652c.134.042.4.492.795.611-3.413,2.09-9.856,2.209-12.809-.731a29.245,29.245,0,0,1-1.931-2.688c-1.175-2.4.066-4.854,1.547-6.729.234-.3.357-.563.807-.558m-1.54,2.969c-.561.184-1.06,1.808.174,1.877,1.546.086,1.285-2.356-.174-1.877m8.828,7.144c-1.338.4.083,2.347,1.112,1.331.68-.671-.173-1.611-1.112-1.331" transform="translate(-26.112 -200.715)" fill="#e17f74"/>
        <path id="Trazado_1273976" data-name="Trazado 1273976" d="M49.854,238.925c.36,1.131-.728,2.424-1.364,1.047-.5-1.088.512-1.141,1.364-1.047" transform="translate(-38.205 -188.742)" fill="#e17f74"/>
        <path id="Trazado_1273977" data-name="Trazado 1273977" d="M130.516,250.191c.576.925-.847,1.747-1.348,1.035-.783-1.112.957-1.663,1.348-1.035" transform="translate(-101.894 -197.459)" fill="#e17f74"/>
        <path id="Trazado_1273978" data-name="Trazado 1273978" d="M68.967,210.034c.144.234-.023.9.031,1.229-3.454.323-.775-2.44-.031-1.229" transform="translate(-53.151 -165.697)" fill="#e9b39d"/>
        <path id="Trazado_1273979" data-name="Trazado 1273979" d="M56.757,215.7c.787-.5,1.762.548.814,1.128-1.027.628-1.294-.823-.814-1.128" transform="translate(-44.66 -170.316)" fill="#e9b39d"/>
        <path id="Trazado_1273980" data-name="Trazado 1273980" d="M115.043,207.936c-.065.065-1,.05-1.167-.2-.185-1.786,1.8-.434,1.167.2" transform="translate(-89.96 -163.421)" fill="#e9b39d"/>
        <path id="Trazado_1273981" data-name="Trazado 1273981" d="M36.922,267.959c1.459-.479,1.72,1.963.174,1.877-1.234-.069-.735-1.693-.174-1.877" transform="translate(-28.704 -211.657)" fill="#e9b39d"/>
        <path id="Trazado_1273982" data-name="Trazado 1273982" d="M79.15,302.031c.939-.28,1.792.66,1.112,1.331-1.029,1.016-2.451-.931-1.112-1.331" transform="translate(-62.104 -238.585)" fill="#e9b39d"/>
      </g>
    </g>
  </g>
</svg>
