<svg xmlns="http://www.w3.org/2000/svg" xmlns:xlink="http://www.w3.org/1999/xlink" width="96" height="96" viewBox="0 0 96 96">
  <defs>
    <clipPath id="clip-path">
      <rect id="Rectángulo_455595" data-name="Rectángulo 455595" width="96" height="96" fill="none"/>
    </clipPath>
    <clipPath id="clip-path-2">
      <rect id="Rectángulo_460731" data-name="Rectángulo 460731" width="39.313" height="57.028" fill="#fff"/>
    </clipPath>
  </defs>
  <g id="Grupo_1210248" data-name="Grupo 1210248" transform="translate(-735.746 -9118)">
    <g id="Grupo_1180407" data-name="Grupo 1180407" transform="translate(735.746 9117.971)">
      <g id="Grupo_1179172" data-name="Grupo 1179172" transform="translate(0 0.03)" clip-path="url(#clip-path)">
        <path id="Trazado_998483" data-name="Trazado 998483" d="M92.627,52.5A40.125,40.125,0,1,1,52.5,12.377,40.125,40.125,0,0,1,92.627,52.5" transform="translate(-4.488 -4.517)" fill="#8d1939"/>
        <path id="Trazado_998485" data-name="Trazado 998485" d="M90.973,46.487A44.486,44.486,0,1,1,46.487,2,44.486,44.486,0,0,1,90.973,46.487Z" transform="translate(1.527 1.499)" fill="none" stroke="#8d1939" stroke-miterlimit="10" stroke-width="4"/>
      </g>
    </g>
    <g id="Grupo_1180408" data-name="Grupo 1180408" transform="translate(755.746 9137)">
      <g id="Grupo_1099618" data-name="Grupo 1099618" transform="translate(-0.054 0.283)">
        <rect id="Rectángulo_401104" data-name="Rectángulo 401104" width="56.349" height="57.028" transform="translate(0)" fill="none"/>
      </g>
      <g id="Grupo_1211285" data-name="Grupo 1211285" transform="translate(8.946 0.283)">
        <g id="Grupo_1211284" data-name="Grupo 1211284" clip-path="url(#clip-path-2)">
          <path id="Trazado_1273992" data-name="Trazado 1273992" d="M15.83,2.974c.559-3.943,6.255-3.874,6.687-.33.394,3.223-.253,7.267-.012,10.607.053.736.4,1.455.838.5.353-.769.355-3.322.839-3.806.377-.378,1.326-.209,1.433.371a22.209,22.209,0,0,1-.7,4.026c-.783,2.325-3.809,1.888-4.035-.764-.288-3.386.234-7.163,0-10.592a1.649,1.649,0,0,0-3.217-.138c-.348,3.634.348,7.809-.034,11.377-.252,2.351-2.806,2.869-3.877.615-1.379-2.9-2.152-6.776-3.641-9.561-1-1.879-3.278-1.292-3.233.775,1.11,3.606,3.3,7.224,4.4,10.775.246.8.443,1.008.06,1.861A1.893,1.893,0,0,1,8.76,19.5c-1.072-.55-3.028-4.323-4.018-5.436a1.667,1.667,0,0,0-2.8,1.818c.976,2.052,2.948,3.522,3.9,6.041,1.11,2.931.479,5.683,1.639,8.468.922,2.215,2.955,3.433,3.739,5.552a7.056,7.056,0,0,1,.2,4.6c4.695-.083,10.3,1.168,10.354,6.847-1.632,1.535-1.8-1.718-2.557-2.825-1.51-2.2-5.69-2.343-8.1-2.205-.594,3.38-1.317,6.93-1.632,10.349-.1,1.1-.573,2.516,1.032,2.514l11.07-.03.239-.25a5.353,5.353,0,0,0-.047-2.507c-.178-.69-1.36-3.012.612-2.406.92.282,1.522,4.247,1.091,5.185,1.155-.012,2.319.332,2.3-1.223-.069-4.642-1.911-9.831-2.293-14.347a6.412,6.412,0,0,1,.319-2.935c.991-2.515,3.1-2.533,4.472-4.33.924-1.209,1.122-2.684,1.861-4.007,1.787-3.2,4.169-3.628,6.626-5.763.826-.718,1.242-1.492.575-2.523-1.8-2.78-5.556,2.534-7.834,1.8-1.23-.4-1.164-1.928-1.138-2.95.038-1.5.184-3.373.334-4.882.307-3.1,1.011-6.168,1.437-9.25a1.7,1.7,0,0,0-3.312-.285c-.277.8-.254,3.857-1.765,2.906-.6-.376-.044-2.71.166-3.364a3.355,3.355,0,0,1,6.571,1.183c-.09,2.271-1.009,5.3-1.286,7.688a54.24,54.24,0,0,0-.345,7.4c1.721-.8,4.007-2.937,5.948-2.774a3.543,3.543,0,0,1,2.933,4.891c-.7,1.8-5,3.583-6.52,5.379C31,29.654,30.88,31.942,29.427,33.687c-1.241,1.49-3.44,1.892-4.093,3.731-.614,1.729.575,5.543.881,7.5.412,2.636,1.041,5.816,1.187,8.431.1,1.723-.171,3.272-2.2,3.5-4.787.546-10.679-.35-15.577-.072a2.441,2.441,0,0,1-1.958-2.621c.08-4.759,1.834-9.895,2.274-14.523.432-4.551-2.468-4.987-3.971-8.541C4.44,27.468,5.6,24.437,3.346,20.674,2.5,19.267.229,16.988.033,15.512a3.347,3.347,0,0,1,5.019-3.39c1.279.723,3.15,4.211,4.221,5.559.155.195.185.445.525.37a1.47,1.47,0,0,0-.127-.768c-1.2-3.606-3.3-7.207-4.44-10.882A3.36,3.36,0,0,1,10.4,3.025a3.864,3.864,0,0,1,1.433,1.989c1.344,2.952,2.223,6.342,3.546,9.331l.45.284Z" transform="translate(0 0)" fill="#fff"/>
          <path id="Trazado_1273993" data-name="Trazado 1273993" d="M60.569,119.212a1.092,1.092,0,0,1,1.2-.054c.262.2.416,1.1.628,1.49.788,1.441,2.378,1.262,3.43,2.275.935.9,1.537,3.985,2.985,2.494,1.06-3.46,2.587-7.058,5.326-9.508,1.352-1.209,3.112-1.577,1.525-3.963-1.21-1.82-4.036-3.117-6.162-2.468a52.806,52.806,0,0,0-6.439,3.178c-1.648,1.382-.8,2.559-1.479,3.737-.435.754-1.547.435-1.554-.725a6.514,6.514,0,0,1,1.564-3.993,40.509,40.509,0,0,1,8.473-4.077c4.287-.463,10.8,5.055,6.522,8.64-2.451,2.056-3.362,2.739-4.786,5.81-1,2.148-1.218,5.919-4.333,5.426-1.765-.279-1.776-2.354-2.855-3.338-.7-.638-1.822-.783-2.7-1.537-.633-.544-2.1-2.638-1.342-3.388" transform="translate(-50.242 -90.037)" fill="#fff"/>
          <path id="Trazado_1273994" data-name="Trazado 1273994" d="M108.4,128.4c2.582-2.411,6,1.834,3.286,3.856-2.635,1.963-5.5-1.79-3.286-3.856m1.362,1.115c-.892.269-.347,1.826.582,1.575a.843.843,0,1,0-.582-1.575" transform="translate(-90.072 -106.863)" fill="#fff"/>
          <path id="Trazado_1273995" data-name="Trazado 1273995" d="M89.276,297.654c3.976-.729,4.116,5.082.509,4.92-3.014-.135-3.124-4.441-.509-4.92m.322,1.618a.841.841,0,0,0,.586,1.577.841.841,0,0,0-.586-1.577" transform="translate(-73.164 -249.082)" fill="#fff"/>
          <path id="Trazado_1273996" data-name="Trazado 1273996" d="M70.091,317.853a.8.8,0,0,1,.7,1.362c-1.084,1.221-2.206-1.131-.7-1.362" transform="translate(-58.054 -266.032)" fill="#fff"/>
          <path id="Trazado_1273997" data-name="Trazado 1273997" d="M86.449,167.089a.846.846,0,0,1-1.443-.693c.09-1.6,2.435-.3,1.443.693" transform="translate(-71.148 -138.644)" fill="#fff"/>
          <path id="Trazado_1273998" data-name="Trazado 1273998" d="M105.1,167.089c-.992-.988,1.353-2.291,1.443-.693a.846.846,0,0,1-1.443.693" transform="translate(-87.766 -138.644)" fill="#fff"/>
          <path id="Trazado_1273999" data-name="Trazado 1273999" d="M85.034,146.619c-.819-.714.493-2.2,1.277-1.2.664.848-.638,1.754-1.277,1.2" transform="translate(-70.956 -121.435)" fill="#fff"/>
          <path id="Trazado_1274000" data-name="Trazado 1274000" d="M76.475,269.457a.848.848,0,0,1-.542,1.418c-1.727.067-.635-2.585.542-1.418" transform="translate(-62.804 -225.285)" fill="#fff"/>
          <path id="Trazado_1274001" data-name="Trazado 1274001" d="M102.076,277.659a.841.841,0,0,1,.586,1.577.841.841,0,0,1-.586-1.577" transform="translate(-84.99 -232.358)" fill="#fff"/>
          <path id="Trazado_1274002" data-name="Trazado 1274002" d="M74.582,291.512c1.486-.516,1.642,1.777.335,1.578-.891-.136-1-1.347-.335-1.578" transform="translate(-62.067 -243.93)" fill="#fff"/>
          <path id="Trazado_1274003" data-name="Trazado 1274003" d="M103.374,186.211a.82.82,0,1,1,0,1.641.82.82,0,1,1,0-1.641" transform="translate(-85.833 -155.857)" fill="#fff"/>
        </g>
      </g>
    </g>
  </g>
</svg>
