<svg xmlns="http://www.w3.org/2000/svg" xmlns:xlink="http://www.w3.org/1999/xlink" width="96" height="96" viewBox="0 0 96 96">
  <defs>
    <clipPath id="clip-path">
      <rect id="Rectángulo_455595" data-name="Rectángulo 455595" width="96" height="96" fill="none"/>
    </clipPath>
    <clipPath id="clip-path-2">
      <rect id="Rectángulo_460734" data-name="Rectángulo 460734" width="56.349" height="47.276" fill="#fff"/>
    </clipPath>
  </defs>
  <g id="Grupo_1210253" data-name="Grupo 1210253" transform="translate(-735.746 -9118)">
    <g id="Grupo_1180407" data-name="Grupo 1180407" transform="translate(735.746 9117.971)">
      <g id="Grupo_1179172" data-name="Grupo 1179172" transform="translate(0 0.03)" clip-path="url(#clip-path)">
        <path id="Trazado_998483" data-name="Trazado 998483" d="M92.627,52.5A40.125,40.125,0,1,1,52.5,12.377,40.125,40.125,0,0,1,92.627,52.5" transform="translate(-4.488 -4.517)" fill="#8d1939"/>
        <path id="Trazado_998485" data-name="Trazado 998485" d="M90.973,46.487A44.486,44.486,0,1,1,46.487,2,44.486,44.486,0,0,1,90.973,46.487Z" transform="translate(1.527 1.499)" fill="none" stroke="#8d1939" stroke-miterlimit="10" stroke-width="4"/>
      </g>
    </g>
    <g id="Grupo_1180408" data-name="Grupo 1180408" transform="translate(755.746 9137)">
      <g id="Grupo_1099618" data-name="Grupo 1099618" transform="translate(-0.054 0.283)">
        <rect id="Rectángulo_401104" data-name="Rectángulo 401104" width="56.349" height="57.028" transform="translate(0)" fill="none"/>
      </g>
      <g id="Grupo_1211291" data-name="Grupo 1211291" transform="translate(-0.054 4.283)">
        <g id="Grupo_1211290" data-name="Grupo 1211290" clip-path="url(#clip-path-2)">
          <path id="Trazado_1274020" data-name="Trazado 1274020" d="M34.083,0c.433.073,1.465,1.289,1.566,1.306.336.056,1.043-.366,1.709-.3a5.7,5.7,0,0,1,1.376.418c.294.156.634.624.8.657.217.042.688-.337.995-.417a3.524,3.524,0,0,1,4.493,2.223c.1.242.031.593.162.811.088.145,1.037.589,1.319.869a3.562,3.562,0,0,1-.348,5.288c-1.191.918-1.719.386-2.721.682-.587.173-1.194,1.387-2.671,1.549-1.431.157-2.4-.935-2.873-.937a12.854,12.854,0,0,1-1.689.9,3.8,3.8,0,0,1-2.787-.472c-.61-.372-.83-1.046-1.341-1.251a7.265,7.265,0,0,0-2.2-.223l.02,1.839c.473.069,1.01.209,1.113.75L31.037,23.7l2.156,2.219c.368.068.221-.16.24-.4.2-2.472-.784-5.384-.821-7.777a1.979,1.979,0,0,1,1.87-2.164c4.048,1.032,9.114.433,12.071,3.947,1.333,1.584,1.769,3.636,2.621,5.48C52.127,31.394,57.63,38.9,50.849,45.2c-3.973,3.7-6.225,1.412-10.692.979-2.726-.264-6.246.974-7.677-2.207-1.052-2.339.522-8.376.632-11.167a2.328,2.328,0,0,0-.035-.773l-6.041-4.482-6.043,4.482a4.52,4.52,0,0,0-.031,1.1c.111,2.547.855,5.354.968,7.942.085,1.953-.2,3.549-1.993,4.648-1.42.87-4.4.321-6.168.476-4.906.43-7.279,2.925-11.365-1.8-5.69-6.582.128-14.335,3.029-20.631.39-.847.576-1.853,1.017-2.71,2.251-4.372,6.867-4.433,11.14-5.063,1.159-.171,1.925-.769,3.037-.025a1.852,1.852,0,0,1,.823,1.455A43.2,43.2,0,0,1,20.8,22.28c-.114,1.256-.166,2.545-.161,3.807L23.471,23.5l.09-9.632c.114-.727.6-.919,1.279-.908-.075-.539.2-2.213-.154-2.506-.22-.182-1.042-.368-1.449-.658a3.555,3.555,0,0,1,1.9-6.355c.388-.027.8.191,1.056.112.133-.041.779-.992,1.188-1.255.919-.589,1.759-.32,2.325-.591.22-.105.394-.606.64-.818.4-.347.905-.536,1.3-.885ZM26.629,9.641c.166.955-.122,2.315,0,3.322h1.458V9.641a1.089,1.089,0,0,1,.273-.417c.8-.494,3.566.518,4.635.37,1,.232.727,1.816,2.466,1.761,1.776-.056,1.137-1.9,2.577-1.789.94.072.771,1.844,2.431,1.767,1.507-.07,1.415-1.739,2.29-1.762.819-.021,1.649.532,2.447-.23a1.721,1.721,0,0,0-.314-2.733c-.391-.231-1.013-.251-1.261-.521-.5-.543.237-1.817-1.009-2.556-1.844-1.094-2.048,1.023-3.4.811-.573-.09-.53-.7-1.007-1.1-1.505-1.279-2.092.463-3.207.131-.608-.181-.738-1.74-2.138-1.756C31.3,1.6,31.374,3.3,30.633,3.609c-.479.2-1.064-.122-1.66-.053-1.41.162-1.2,1.886-1.976,2.091-.529.14-1.118-.483-1.731-.453A1.765,1.765,0,0,0,25,8.681c.731.206,1.439-.152,1.632.96m2.593,5.1H25.333v9.317c-2.475,2.852-5.861,5.239-8.264,8.1-.153.182-.393.264-.322.568l10.274-7.294,10.3,7.294c.071-.3-.169-.385-.322-.568-2.308-2.749-5.547-5.084-7.778-7.939Zm-9.561,2.593c-3.7,1.108-8.995.275-11.312,4a31.507,31.507,0,0,0-1.51,3.675c-2.8,6.056-8.867,13.928-1.674,19.544,2.6,2.033,5.667.086,8.587-.155s6.928,1.342,6.4-3.323l-.973-7.86c-.541.538-1.559,1-2.048,1.513-.613.646-1.176,1.942-1.817,2.648-.072.458,2.565,1.972,2.56,2.886a23.548,23.548,0,0,1-1.208,2.669.923.923,0,0,1-1.7-.414c-.035-.635.912-1.57.786-2.059l-1.764-1.813c-1.737-.339-3.888.17-5.577-.094a1.251,1.251,0,0,1-1.029-.907.931.931,0,0,1,.7-.862c1.014-.2,5.062.245,5.553-.039l1.783-2.666a1.712,1.712,0,0,0-.93-1.277,25.458,25.458,0,0,0-2.373-1.043c-1.122-.108-3.228.929-4.393.923a.947.947,0,0,1-.779-1.413c.32-.641,3.443-.732,4.145-1.237A9.854,9.854,0,0,0,10.5,27.39c-.548-.729-3.279-1.169-2.925-2.44.506-1.82,2.806.727,3.572.659.955-.306,2.191-2.9,3.261-2.126,1.488,1.076-2.03,2.783-2.032,3.956L13,30.194,15.445,31.2c.732-.881,2.728-2.164,3.254-3.079.355-.618.093-2.85.146-3.742.142-2.357.569-4.7.816-7.041M36.944,34.73a16.832,16.832,0,0,0-1.811-1.35c-.152-.091-.111-.274-.324,0-.139,1.925-.558,3.838-.726,5.756-.133,1.517-.667,4.1.815,5.016.986.609,4.044.139,5.419.252,3.35.277,5.94,2.368,8.919-.161,6.688-5.678.53-13.692-2.221-19.662-.347-.754-.489-1.611-.858-2.383-2.232-4.67-7.524-3.686-11.751-4.856a82.232,82.232,0,0,1,.842,10.579A33.846,33.846,0,0,0,38.4,31.091a.587.587,0,0,0,.542.113c.124-.026,1.876-.9,1.952-.976a10.1,10.1,0,0,0,.771-2.812c.032-.975-3.575-2.975-2.005-3.93,1.112-.676,2.212,1.6,3.123,2.094.752.193,3.431-2.565,3.747-.509.159,1.036-2.447,1.707-3.037,2.409l-.663,2.657c.9.281,3.369.439,4.043.9a.917.917,0,0,1-.526,1.646c-1.163.006-3.421-1.078-4.529-.9-.139.023-2.419,1.092-2.546,1.194a2.279,2.279,0,0,0-.624.994,20.966,20.966,0,0,0,1.913,2.889c1.034.333,5.382-.261,5.955.284a1.009,1.009,0,0,1,.039,1.334c-.646.625-5.039-.029-6.152.328l-2.064,1.94c.206.7,1.113,1.583.808,2.305a.887.887,0,0,1-1.3.425,9.587,9.587,0,0,1-1.47-3.175c.151-.774,2.1-1.838,2.541-2.63-.736-.78-1.277-2.213-1.973-2.943" transform="translate(0)" fill="#fff"/>
          <path id="Trazado_1274021" data-name="Trazado 1274021" d="M46.667,19.833c.219.254,1.609.145,2.33,1.478a3.012,3.012,0,0,1-3.976,4.221c-.667,4.546-7.419,4.567-8.061.039a18.745,18.745,0,0,1,.1-1.878c-.055-.189-1.779-1.42-2.089-1.807a2.637,2.637,0,0,1,3.142-4.114c.858.4,1.428,1.562,2.452,1.455.695-.072.559-.548.961-.995a3.094,3.094,0,0,1,4.879.645,7.866,7.866,0,0,1,.261.955m-2.018-.412a1.271,1.271,0,0,0-1.969.289c-.174.326-.128.824-.342,1.115-.436.592-1.085.156-1.611.157a7.375,7.375,0,0,1-1.382.111c-.862-.239-1.6-2.227-2.7-1.761-2.124.9,1.93,2.882,2.132,3.29.476.961-.223,1.746-.035,2.791a2.31,2.31,0,0,0,3.771,1.254c1.245-1.035.28-2.643,1.168-3.207,1.569-1,1.647.711,2.883.628a1.25,1.25,0,0,0,.492-2.292c-.606-.339-1.536.07-1.887-.381-.313-.4.023-1.46-.516-2" transform="translate(-28.759 -14.515)" fill="#fff"/>
          <path id="Trazado_1274022" data-name="Trazado 1274022" d="M291.338,59.029c.218.126.827-.015,1.17.047a2.284,2.284,0,0,1,1.754,3.186c-.3.734-1.283.975-1.571,1.346-.212.273-.164.66-.568,1.053a2.471,2.471,0,0,1-2.755.31c-.36-.228-.541-.784-1.052-.731-.489.189-.75.653-1.24.883a2,2,0,0,1-2.865-2.379c.2-.892,1.343-1.341,1.511-1.739.11-.26-.125-.594-.1-.887a3,3,0,0,1,4.963-2.2,10.478,10.478,0,0,1,.754,1.108m-1.86.241a1.294,1.294,0,0,0-1.744.028c-.715.728.164,1.749-.273,2.645-.219.45-1.663.764-1.5,1.655l1.855-1.273c.646.3,1.192-.187,1.834.085.4.17.249.774.514.955.979.67.736-1.065,1.019-1.348l1.351-.35c.19-1.729-.9-.219-1.479-.179-1.682.113-.925-1.572-1.576-2.218" transform="translate(-238.103 -47.882)" fill="#fff"/>
        </g>
      </g>
    </g>
  </g>
</svg>
