<svg xmlns="http://www.w3.org/2000/svg" xmlns:xlink="http://www.w3.org/1999/xlink" width="155.998" height="155.999" viewBox="0 0 155.998 155.999">
  <defs>
    <clipPath id="clip-path">
      <rect id="Rectángulo_460729" data-name="Rectángulo 460729" width="95.542" height="95.801" fill="#fff"/>
    </clipPath>
  </defs>
  <g id="Grupo_1207905" data-name="Grupo 1207905" transform="translate(-308.711 -5910)">
    <g id="Grupo_1207900" data-name="Grupo 1207900" transform="translate(308.711 5910)">
      <path id="Trazado_1267157" data-name="Trazado 1267157" d="M148.773,80.575a68.2,68.2,0,1,1-68.2-68.2,68.2,68.2,0,0,1,68.2,68.2" transform="translate(-2.575 -2.576)" fill="#8d1939"/>
      <path id="Trazado_1267158" data-name="Trazado 1267158" d="M78.5,156.5A78.019,78.019,0,0,1,48.138,6.631a78.019,78.019,0,0,1,60.723,143.737A77.513,77.513,0,0,1,78.5,156.5Zm0-150.888A72.888,72.888,0,1,0,151.387,78.5,72.971,72.971,0,0,0,78.5,5.611Z" transform="translate(-0.5 -0.5)" fill="#8d1939"/>
    </g>
    <g id="Grupo_1207901" data-name="Grupo 1207901" transform="translate(340.049 5939.333)">
      <g id="Grupo_1099618" data-name="Grupo 1099618" transform="translate(0.371 -0.334)">
        <rect id="Rectángulo_401104" data-name="Rectángulo 401104" width="94.66" height="95.801" transform="translate(0)" fill="none"/>
      </g>
      <g id="Grupo_1211281" data-name="Grupo 1211281" transform="translate(0.371 -0.334)">
        <g id="Grupo_1211280" data-name="Grupo 1211280" clip-path="url(#clip-path)">
          <path id="Trazado_1273983" data-name="Trazado 1273983" d="M84.185,111.707c-4.458,4.271-8.953,8.53-13.413,12.81-1.557,4.546-1.542,10.378-3.031,14.817-1.122,3.345-11.793,10.831-14.337,14.221-4.28,2.851-9.1.961-11.208-3.515L26.534,164.856c-3.865,3.782-10.736,2.516-11.939-3.013-6.851,3.742-13.858-3.183-9.888-10-7.414-3.785-5.249-11.27.824-15.122-5.683-2.892-6.238-8.319-1.787-12.776,6.654-6.663,13.992-12.763,20.636-19.453a1.936,1.936,0,0,1,2.7,2.7c-6.106,6.143-12.76,11.781-18.94,17.854a28.988,28.988,0,0,0-3,3.04A3.27,3.27,0,0,0,9.1,132.872c5.045-3.911,9.34-8.818,14.183-13.006a1.96,1.96,0,0,1,2.3,3.127C19.8,128.544,13.725,133.847,8,139.46A36.557,36.557,0,0,0,4.2,143.343,3.287,3.287,0,0,0,8.659,147.8c.382-.2,2.389-2.087,2.922-2.57C17.9,139.506,23.838,133.3,30.1,127.5a2.256,2.256,0,0,1,2.756.293c1.341,1.721-.754,3.275-1.91,4.4-7.43,7.215-15.171,14.118-22.665,21.27-2.521,3.353,1.055,7.414,4.534,4.808l24.863-23.466a1.889,1.889,0,0,1,2.054,3.152L18.87,157.74c-2.374,3.438,1.213,7.174,4.651,4.651,8.116-7.521,15.91-15.413,24.025-22.931a57.7,57.7,0,0,1,4.385-3.86c1.919-.61,3.012,1.129,2.275,2.833-1.983,2.668-5.914,4.966-7.755,7.621-2.076,2.995,1.65,6.479,4.808,4.259,4.33-3.045,8.4-8.765,12.763-12.021l3.292-15.86L92.755,98.448a1.85,1.85,0,0,1,2.537,2.537c-.471.893-3.791,3.9-4.762,4.848-2.041,2-4.278,3.894-6.345,5.874" transform="translate(0 -71.223)" fill="#fff"/>
          <path id="Trazado_1273984" data-name="Trazado 1273984" d="M112.886,20.438a2,2,0,0,1,2.956.3c.814,1.289,0,4.534,1.831,5.932a2.638,2.638,0,0,0,4.136-1.3c.358-1.623-2.183-5.012-2.819-6.952-1.117-3.408-1.309-6.141.077-9.511,1.7-4.143,6.929-8.5,11.48-8.843,5.762-.433,1.088,4.581.716,6.761-1.026,6.013,4.783,9.449,8.039,13.524,5.078,6.354,6.287,14.186,1.835,21.338-1.185,1.9-5.784,6.787-8.139,6.4-1.419-.232-1.493-2.473-1.941-3.568-2.163-5.285-7.639-5.52-9.8-.2-.754,1.857-.431,4.547-3.442,3.55-3.989-1.321-8.312-8.074-9.069-12.073-.843-4.457.465-12.333,4.139-15.361M127.9,4.975c-2.885,1.1-5.832,5.1-6.015,8.139-.229,3.8,1.966,5.8,3.195,8.82,2.909,7.143-5.617,12.526-10.911,6.518-.465-.527-.333-1.4-1.094-1.238a14.232,14.232,0,0,0,4.529,15.925c3.251-8.651,13.807-8.636,17.022,0A13.972,13.972,0,0,0,140,31.186c-.759-10.9-15.839-14.384-12.092-26.211" transform="translate(-78.707 -0.025)" fill="#fff"/>
          <path id="Trazado_1273985" data-name="Trazado 1273985" d="M102.235,159.89c.848.693,1.972,2.6,3.1,3.623a21.654,21.654,0,0,0,9.875,4.953c1.236.234,4.275.244,5.064.7,1.641.952.968,3.317-1.062,3.545-5.241.589-13.135-3.161-16.9-6.73a26.021,26.021,0,0,1-3.232-3.906c-.609-2.058,1.418-3.6,3.15-2.188" transform="translate(-71.797 -115.589)" fill="#fff"/>
          <path id="Trazado_1273986" data-name="Trazado 1273986" d="M231.578,60.981c2.016-.6,3.4,2.105,4.244,3.607a27.1,27.1,0,0,1,3.272,11.578c0,1.143-.238,2.1-1.456,2.436-2.955.82-2.449-3.619-2.768-5.374a21.9,21.9,0,0,0-2.343-6.718c-.465-.83-1.944-2.5-2.132-3.1a2.14,2.14,0,0,1,1.183-2.429" transform="translate(-167.082 -44.174)" fill="#fff"/>
          <path id="Trazado_1273987" data-name="Trazado 1273987" d="M215.709.051a1.94,1.94,0,0,1,2,3.113l-9.9,9.321c-2.289,1.481-4.22-1.085-2.463-3.013C207.5,8.316,214.055.395,215.709.051" transform="translate(-148.462 0)" fill="#fff"/>
        </g>
      </g>
    </g>
  </g>
</svg>
