<svg xmlns="http://www.w3.org/2000/svg" xmlns:xlink="http://www.w3.org/1999/xlink" width="96" height="96" viewBox="0 0 96 96">
  <defs>
    <clipPath id="clip-path">
      <rect id="Rectángulo_455595" data-name="Rectángulo 455595" width="96" height="96" fill="none"/>
    </clipPath>
    <clipPath id="clip-path-2">
      <rect id="Rectángulo_460735" data-name="Rectángulo 460735" width="53.977" height="54" fill="#fff"/>
    </clipPath>
  </defs>
  <g id="Grupo_1210251" data-name="Grupo 1210251" transform="translate(-735.746 -9118)">
    <g id="Grupo_1180407" data-name="Grupo 1180407" transform="translate(735.746 9117.971)">
      <g id="Grupo_1179172" data-name="Grupo 1179172" transform="translate(0 0.03)" clip-path="url(#clip-path)">
        <path id="Trazado_998483" data-name="Trazado 998483" d="M92.627,52.5A40.125,40.125,0,1,1,52.5,12.377,40.125,40.125,0,0,1,92.627,52.5" transform="translate(-4.488 -4.517)" fill="#8d1939"/>
        <path id="Trazado_998485" data-name="Trazado 998485" d="M90.973,46.487A44.486,44.486,0,1,1,46.487,2,44.486,44.486,0,0,1,90.973,46.487Z" transform="translate(1.527 1.499)" fill="none" stroke="#8d1939" stroke-miterlimit="10" stroke-width="4"/>
      </g>
    </g>
    <g id="Grupo_1180408" data-name="Grupo 1180408" transform="translate(755.746 9137)">
      <g id="Grupo_1099618" data-name="Grupo 1099618" transform="translate(0.946 0.283)">
        <rect id="Rectángulo_401104" data-name="Rectángulo 401104" width="56.349" height="57.028" transform="translate(0)" fill="none"/>
      </g>
      <g id="Grupo_1211293" data-name="Grupo 1211293" transform="translate(1.946 1.283)">
        <g id="Grupo_1211292" data-name="Grupo 1211292" clip-path="url(#clip-path-2)">
          <path id="Trazado_1274023" data-name="Trazado 1274023" d="M49.127,140.435a2.128,2.128,0,0,0,.514-4.065l-13.136-.112c-.821,3.515-2.323,7.034-6.225,7.838-1.944.4-3.487-.052-5.47.7-3.4,1.282-5.223,4.693-9.447,3.367-.881-.277-1.864-.8-.957-1.76.668-.28,1.814.489,2.677.5,2.233.026,4.692-2.541,6.847-3.45,3.53-1.489,7.1.4,9.524-3.428a9.158,9.158,0,0,0,1.266-3.522c0-.324.013-.2-.231-.233-.418-.06-.889.044-1.356-.035a2.384,2.384,0,0,1-1.957-2.065c-.1-1.478,2.819-4.671,3.353-6.192a1.574,1.574,0,0,0-2.427-1.653,33.408,33.408,0,0,0-4.424,3.75c-.675,1.231-.085,2.319-.208,3.65a6.274,6.274,0,0,1-5.939,5.637c-.729.023-1.515-.3-2.154-.281-.811.021-2,.65-2.927.74-1.444.14-3.079-.1-4.545,0,.3.725.8,1.324,1.106,2.055.344.823,1.269,3.405-.537,2.854-.633-.193-.485-1.062-.646-1.515a9.765,9.765,0,0,0-2.034-3.365c-1.947.13-4.39-.284-6.276-.015a2.257,2.257,0,0,0-1.793,2.217,70.768,70.768,0,0,0,.006,9.884c.152,1.425,1.043,1.973,2.384,2.089,4.312.37,9.27-.435,13.55.013,2.955.309,4.9,2.682,7.643,3.305,2.906.66,6.429-.081,9.422.293.871.546.442,1.389-.544,1.485a47.891,47.891,0,0,1-9.219-.2c-2.792-.58-4.834-3.03-7.765-3.337-4.232-.443-9.135.354-13.4-.013a3.809,3.809,0,0,1-3.6-3.187,72.1,72.1,0,0,1,0-10.923,3.593,3.593,0,0,1,2.875-3.141c4.242-.624,9.709.6,13.947-.234.613-.121,1.252-.5,1.905-.561.939-.092,1.905.225,2.918.143a4.342,4.342,0,0,0,3.736-2.895c.741-2.191-.547-3.9,1.035-5.909a37.1,37.1,0,0,1,4.9-4.042c2.938-1.4,5.6,1.506,4.143,4.457-.472.959-2.817,4.031-2.815,4.76,0,.634.644.655,1.163.7,5.038.413,10.618-.332,15.714.007a3.761,3.761,0,0,1,2.085,5.918,3.691,3.691,0,0,1-1.224,7.034,3.756,3.756,0,0,1-3.544,5.709c1.252,2.576-.029,5.46-3,5.715a39.632,39.632,0,0,1-6.006-.016.8.8,0,0,1-.488-1.394c.458-.363,5.263-.024,6.335-.139A2.1,2.1,0,0,0,44.2,153.4H34.488a.78.78,0,0,1,.143-1.548c4.039-.248,8.511.355,12.5.013,3.254-.279,2.984-3.891.615-4.176-3.548-.427-8.252.521-11.707-.007a.77.77,0,0,1-.017-1.54l14.455-.033a2.07,2.07,0,0,0,.04-4.127l-13.839-.033c-1.037-.232-.664-1.51-.341-1.51Z" transform="translate(0 -105.246)" fill="#fff"/>
          <path id="Trazado_1274024" data-name="Trazado 1274024" d="M159.111,7.873a21.588,21.588,0,0,1-3,.471c-3.1.034-6.153-1.144-9.231.167-.853.363-1.6,1.028-2.408,1.447a23.157,23.157,0,0,1-9.257,2.77c-.2.139-.119.221-.086.4a13.985,13.985,0,0,0,.953,2.606l11.591-3.5.65.04c.447.377.587.8.161,1.245L136.316,17.3a3.163,3.163,0,0,1-5.986,1.564L127.2,8.406a3.2,3.2,0,0,1,5.078-2.6c.386.283.637.851,1.125.809,6.683-1.806,13.322-4.328,20-6.069,1.941-.506,3.121-.919,5.066.02a5.566,5.566,0,0,1,1.874,8.472c-1.886,2.35-5.929,2.487-8.576,3.615-1.065.159-1.578-.939-.565-1.5,1.925-.749,4.28-1.088,6.161-1.856.218-.089,2.1-1.1,1.742-1.418m-25.432.31.846,2.779c.42.506,3.713-.282,4.46-.478,3.864-1.014,6.7-3.93,10.487-4.161,2.956-.18,7.384,1.084,10.005-.322.874-.469.565-1.17.211-2.023A4.137,4.137,0,0,0,155.96,1.54Zm-3.744-1.357a1.759,1.759,0,0,0-1.139,1.56c1,2.918,1.626,6.144,2.685,9.018a4.733,4.733,0,0,0,.283.8,1.6,1.6,0,0,0,2.987-.973c-.979-2.783-1.6-5.776-2.573-8.547-.407-1.157-.7-2.213-2.244-1.855" transform="translate(-107.595 0)" fill="#fff"/>
          <path id="Trazado_1274025" data-name="Trazado 1274025" d="M107.114,130.078c1.884-.363,3.823,3.322,4.162,4.869,1.629,7.433-9.79,7.075-7.469-.457.345-1.12,2.114-4.182,3.307-4.411m.424,1.514c-1.444,1.268-3.391,4.665-1.928,6.4,1.025,1.218,3.53,1,4.045-.583.665-2.049-.8-4.356-2.117-5.82" transform="translate(-87.543 -109.982)" fill="#fff"/>
          <path id="Trazado_1274026" data-name="Trazado 1274026" d="M103.971,232.873c1.213-.367.961,1.231,1.439,1.589.459.344,1.537.039,1.385,1.077-.133.915-1.252.731-1.854.472-1.019-.438-2.234-2.756-.971-3.138" transform="translate(-87.488 -196.887)" fill="#fff"/>
          <path id="Trazado_1274027" data-name="Trazado 1274027" d="M183.056,207.408a.819.819,0,0,1,.82.668c.445,2.052-2.917,3.728-3.285,2.065-.215-.974,1.06-.839,1.462-1.179.447-.379.138-1.514,1-1.554" transform="translate(-152.736 -175.398)" fill="#fff"/>
        </g>
      </g>
    </g>
  </g>
</svg>
