<svg xmlns="http://www.w3.org/2000/svg" xmlns:xlink="http://www.w3.org/1999/xlink" width="96" height="96" viewBox="0 0 96 96">
  <defs>
    <clipPath id="clip-path">
      <rect id="Rectángulo_455595" data-name="Rectángulo 455595" width="96" height="96" fill="none"/>
    </clipPath>
    <clipPath id="clip-path-2">
      <rect id="Rectángulo_460736" data-name="Rectángulo 460736" width="27.979" height="57.027" fill="#fff"/>
    </clipPath>
  </defs>
  <g id="Grupo_1210252" data-name="Grupo 1210252" transform="translate(-735.746 -9118)">
    <g id="Grupo_1180407" data-name="Grupo 1180407" transform="translate(735.746 9117.971)">
      <g id="Grupo_1179172" data-name="Grupo 1179172" transform="translate(0 0.03)" clip-path="url(#clip-path)">
        <path id="Trazado_998483" data-name="Trazado 998483" d="M92.627,52.5A40.125,40.125,0,1,1,52.5,12.377,40.125,40.125,0,0,1,92.627,52.5" transform="translate(-4.488 -4.517)" fill="#8d1939"/>
        <path id="Trazado_998485" data-name="Trazado 998485" d="M90.973,46.487A44.486,44.486,0,1,1,46.487,2,44.486,44.486,0,0,1,90.973,46.487Z" transform="translate(1.527 1.499)" fill="none" stroke="#8d1939" stroke-miterlimit="10" stroke-width="4"/>
      </g>
    </g>
    <g id="Grupo_1180408" data-name="Grupo 1180408" transform="translate(755.746 9137)">
      <g id="Grupo_1099618" data-name="Grupo 1099618" transform="translate(-0.054 0.283)">
        <rect id="Rectángulo_401104" data-name="Rectángulo 401104" width="56.349" height="57.028" transform="translate(0)" fill="none"/>
      </g>
      <g id="Grupo_1211295" data-name="Grupo 1211295" transform="translate(13.947 0.283)">
        <g id="Grupo_1211294" data-name="Grupo 1211294" clip-path="url(#clip-path-2)">
          <path id="Trazado_1274028" data-name="Trazado 1274028" d="M19.294,14.19h4.258c1.644,0,3.851,2.043,4.181,3.639A75.084,75.084,0,0,1,27.8,29.208c-.327,2.493-2.734,4.471-5.036,5.074-.04,1.725.092,3.47.009,5.193-.028.571-.325,1.111-.352,1.733-.164,3.7.343,7.874.014,11.483-.323,3.534-3.683,4.743-6.83,4.209-.64-.109-1.351-.778-1.636-.8a8.329,8.329,0,0,1-1.723.83c-4.071.554-6.57-1.14-6.856-5.278-.279-4.03-.062-8.293-.174-12.339-.046-1.672.041-3.355.018-5.028-2.476-.63-4.815-2.749-5.058-5.4-.189-2.06-.292-9.226.084-11.053.329-1.6,2.537-3.639,4.181-3.639H8.693A8.133,8.133,0,0,1,10.2,1.015c8.378-4.457,16.085,6.836,9.091,13.175M13,2.07C5.49,3.1,6.584,15.122,14.844,14.171c7.693-.886,6.6-13.26-1.848-12.1m9.426,30.194a4.12,4.12,0,0,0,3.485-3.553c.325-3.249-.228-7.085-.05-10.4a3.021,3.021,0,0,0-2.994-2.22c-5.828-.437-12.2.342-18.082.007a2.993,2.993,0,0,0-2.7,2.516A72.123,72.123,0,0,0,2.1,29.038a4.408,4.408,0,0,0,3.291,3.226V24.183c0-1.232,1.912-1.119,1.912-.521v6.865L9.91,30.35a5.244,5.244,0,0,1,4.613-8.521c4.157.3,6.082,5.348,3.555,8.521l2.433.176V24.009c0-.935,1.912-.987,1.912-.348Zm-9.431-8.476a3.605,3.605,0,0,0-2.349,3.472,3.339,3.339,0,0,0,6.518.7c.806-2.684-1.523-4.708-4.169-4.17m6.477,17.339a2.243,2.243,0,0,0,1.379-1.662,38.084,38.084,0,0,0,.015-5.9c-.109-.929-.577-1.227-1.473-1.308a79.751,79.751,0,0,0-10.791,0c-.607.055-1.186.213-1.391.868a42.645,42.645,0,0,0-.067,6.341A2.243,2.243,0,0,0,8.52,41.127V36.347c0-.658,1.655-1.13,1.895.538l.052,17.326a1.334,1.334,0,0,0,2.493-.042l.082-11.041c.507-1.175,1.758-.962,1.911.341.373,3.161-.473,7.36.007,10.42a1.315,1.315,0,0,0,2.606.019l0-17.2a1,1,0,0,1,1.9-.359ZM8.52,54.508V43.3L7.3,42.864v9.471A3.65,3.65,0,0,0,8.52,54.508M20.511,42.864l-1.043.434V54.334c.312-.061,1.043-1.127,1.043-1.3Z" transform="translate(0 0)" fill="#fff"/>
        </g>
      </g>
    </g>
  </g>
</svg>
