<svg xmlns="http://www.w3.org/2000/svg" xmlns:xlink="http://www.w3.org/1999/xlink" width="187.711" height="132.901" viewBox="0 0 187.711 132.901">
  <defs>
    <clipPath id="clip-path">
      <rect id="Rectángulo_460744" data-name="Rectángulo 460744" width="126.563" height="114.207" fill="none"/>
    </clipPath>
  </defs>
  <g id="Grupo_1212906" data-name="Grupo 1212906" transform="translate(-289.711 -7020)">
    <g id="Grupo_1210255" data-name="Grupo 1210255" transform="translate(0.434 -1848.039)">
      <g id="Grupo_1204518" data-name="Grupo 1204518" transform="translate(289.277 8868.039)">
        <rect id="Rectángulo_455283" data-name="Rectángulo 455283" width="187.711" height="132.901" rx="19" fill="#e9c3ff"/>
      </g>
    </g>
    <g id="Grupo_1211297" data-name="Grupo 1211297" transform="translate(320.711 7029)">
      <g id="Grupo_1211296" data-name="Grupo 1211296" clip-path="url(#clip-path)">
        <path id="Trazado_1274029" data-name="Trazado 1274029" d="M73.907,86.739V97.185h17.6a6.537,6.537,0,0,1,1.354,1.741v11.026l4.258,0,0,4.258h-67.7l0-4.258,4.258,0V98.926a6.537,6.537,0,0,1,1.354-1.741h17.6V86.739H5.238c-2,0-5.4-3.387-5.223-5.609L0,6.062A6.155,6.155,0,0,1,4.729.345c39.057-.374,78.339-.578,117.362.1a6.066,6.066,0,0,1,4.445,5.613v74.7c.364,2.359-3.107,5.981-5.237,5.981ZM25.162,4.336H6.012A5.26,5.26,0,0,0,4.461,5.494l.01,75.822a10.013,10.013,0,0,0,1.153,1.168H25.162V75.327c0-.247-2.686-2.825-3.255-3.709a19.176,19.176,0,0,1,.613-21.371c.7-.988,2.438-2.149,2.633-3.17a30.38,30.38,0,0,0-.063-5.723c-.147-.48-2.351-2.083-2.961-3.229-3.637-6.833,1.968-13.9,9.632-12.34,1.389.283,3.649,2.156,4.033,2.156.638,0,2.043-1.393,2.911-1.745,8.569-3.476,15.709,6.3,9.669,13.538-.624.748-1.755.975-1.936,1.929-.539,2.839.361,3.286,2.869,4.1,2.043-2.438,14.142-22.469,15.509-22.469H75.842v4.256H66.75c-1.255,0-11.9,18.677-14.056,20.8-.324,1.312,1.529,2.972,2.146,4.264a19.067,19.067,0,0,1-5.122,23.673c-2.739,2.283-3.939,1.207-3.279,6.2h74.473a9.983,9.983,0,0,0,1.153-1.168l.01-75.822a5.264,5.264,0,0,0-1.55-1.158H46.44c-.842,3.812,1.142,3.475,2.642,5.675,4.588,6.731-1.2,14.82-9.241,13.11-1.42-.3-3.391-2.146-4.04-2.146s-2.484,1.727-3.746,2.054c-7.385,1.909-13.457-5.118-10.067-12,1.288-2.616,4.2-2.822,3.174-6.692m17.022,0H29.417v5.61c0,.675-5.389,2.126-3.958,6.279,1.166,3.386,6.026,4.033,7.663.908.813-1.552.6-5.465,3.637-4.085,1.7.771.706,3.888,3.122,5.391,3.839,2.387,8.337-1.965,5.786-5.786-.9-1.343-2.878-1.555-3.313-2.877-.512-1.555.015-3.783-.17-5.439M39.223,30.777c-1.623,1.546-.861,5.067-3.05,5.291-3.307.339-1.734-4.927-4.841-5.985-4.6-1.568-7.968,3.373-4.837,6.77.775.841,2.555,1.213,2.847,2.182.3,1.005-.143,4.9.077,5.147,4.269-1.523,8.24-2.308,12.766-1.544-1.17-4.636,2.026-4.2,3.482-6.383,2.889-4.332-3.1-8.662-6.444-5.478m2.963,19.985c.135-.132.151-3.327-.373-3.693-2.055-1.438-8.347-.094-10.541,1.1-2.78,1.508-1.72,2.368-1.853,5.3,1-.018,1.808-.506,2.861-.38,1.077.128,2.036,1.277,3.119,1.167,1.173-.119,2.551-2.7,3.788-3.2a14.428,14.428,0,0,1,3-.291M46.44,73.2c1.678-.564,3.284-2.63,4.178-4.14a15,15,0,0,0-.923-16.718,23.984,23.984,0,0,0-2.68-2.738c-.788-.33-.547.534-.576.957-.479,7.095-2.2,3.021-5.8,4.656-1.221.555-2.946,3.751-4.543,4-1.32.2-3.126-1.692-4.232-1.788-1.492-.13-4.975,3.716-6.358.531l-.731-3.71c-1.87,4.448-2.474,9.654.191,13.923.617-1.836-.433-4.145.779-5.794a17.572,17.572,0,0,1,5.842-3.1c1.68-.065,3.059,3.085,4.3,3.423,1.532.419,3.156-1.983,5.518-.9.515.236,5.036,5.012,5.036,5.407ZM42.184,75.52V68.75c0-.411-2.258-2.377-2.594-2.466C38.519,66,36.915,67.751,35.8,67.755c-2.148.007-3.709-4.856-6.157-3.108-.378.27-.463,8.444.156,9.137,1.835,2.055,9.751,3.059,12.385,1.736M29.417,82.484H42.184l0-2.707c-4.307,1.047-8.456.22-12.566-1.168Zm40.235,4.256H56.885V97.185H69.652Zm18.957,14.7H37.928v8.511h50.68Z" transform="translate(0 0)" fill="#030303"/>
        <path id="Trazado_1274030" data-name="Trazado 1274030" d="M32.232,11.207c1.031,3.87-1.885,4.076-3.174,6.692-3.39,6.884,2.682,13.91,10.067,12,1.262-.326,3.105-2.054,3.746-2.054s2.62,1.844,4.04,2.146c8.04,1.71,13.829-6.379,9.241-13.11-1.5-2.2-3.484-1.864-2.642-5.675H127.6a5.264,5.264,0,0,1,1.55,1.158l-.01,75.822a9.982,9.982,0,0,1-1.153,1.168H53.51c-.66-4.993.539-3.916,3.279-6.2A19.067,19.067,0,0,0,61.91,59.482c-.617-1.292-2.47-2.953-2.146-4.264,2.159-2.122,12.8-20.8,14.056-20.8h9.091V30.164H71.886c-1.367,0-13.466,20.031-15.509,22.469-2.508-.812-3.408-1.259-2.869-4.1.181-.955,1.312-1.182,1.936-1.929,6.039-7.24-1.1-17.015-9.669-13.538-.867.352-2.273,1.744-2.911,1.745-.384,0-2.643-1.873-4.033-2.156C31.167,31.1,25.562,38.163,29.2,45c.61,1.146,2.814,2.749,2.961,3.229a30.38,30.38,0,0,1,.063,5.723c-.195,1.021-1.932,2.182-2.633,3.17a19.176,19.176,0,0,0-.613,21.371c.569.884,3.255,3.462,3.255,3.709v7.157H12.695a10.013,10.013,0,0,1-1.153-1.168l-.01-75.822a5.26,5.26,0,0,1,1.551-1.158ZM95.679,30.164H87.167v4.256h8.511Zm25.147,0H99.934v4.256h20.891Zm-12.38,14.7c-.054-.775.307-4.256-.58-4.256H99.934v4.256ZM95.679,41H87.167v3.869h8.511Zm25.147,0H112.7v3.869h8.124ZM99.934,51.442H87.167V55.7H99.934Z" transform="translate(-7.07 -6.871)" fill="#ffcce2"/>
        <rect id="Rectángulo_460737" data-name="Rectángulo 460737" width="50.68" height="8.511" transform="translate(37.928 101.44)" fill="#6a2874"/>
        <path id="Trazado_1274031" data-name="Trazado 1274031" d="M82.149,11.207c.185,1.656-.341,3.884.171,5.439.435,1.322,2.416,1.534,3.313,2.877,2.552,3.821-1.947,8.173-5.786,5.786-2.417-1.5-1.425-4.62-3.122-5.391C73.688,18.538,73.9,22.451,73.088,24c-1.638,3.126-6.5,2.478-7.664-.908-1.43-4.153,3.958-5.6,3.958-6.279v-5.61Z" transform="translate(-39.965 -6.871)" fill="#fff5d4"/>
        <path id="Trazado_1274032" data-name="Trazado 1274032" d="M83.162,151.7v-6c0-.4-4.521-5.172-5.036-5.407-2.361-1.081-3.985,1.322-5.517.9-1.237-.339-2.616-3.488-4.3-3.423a17.571,17.571,0,0,0-5.842,3.1c-1.212,1.65-.162,3.958-.779,5.794-2.664-4.269-2.06-9.474-.191-13.922l.731,3.71c1.383,3.185,4.866-.661,6.358-.532,1.106.1,2.912,1.99,4.232,1.788,1.6-.245,3.322-3.44,4.543-4,3.6-1.635,5.316,2.438,5.795-4.656.029-.423-.213-1.288.576-.958a23.982,23.982,0,0,1,2.68,2.738,15,15,0,0,1,.923,16.718c-.894,1.51-2.5,3.575-4.178,4.14M85.1,135.445c-3.384-.035-4.788-.747-4.275,3.311.287,2.264,2.494,1.071,4.275,1.335Z" transform="translate(-36.722 -78.497)" fill="#d4e4ff"/>
        <path id="Trazado_1274033" data-name="Trazado 1274033" d="M79.282,77.812c3.345-3.185,9.333,1.146,6.445,5.478-1.456,2.183-4.651,1.747-3.482,6.383-4.526-.764-8.5.021-12.766,1.544-.219-.246.226-4.141-.077-5.147-.292-.969-2.072-1.341-2.847-2.182-3.13-3.4.234-8.339,4.838-6.77,3.106,1.058,1.534,6.324,4.84,5.985,2.189-.224,1.427-3.745,3.05-5.291" transform="translate(-40.059 -47.036)" fill="#fff5d4"/>
        <rect id="Rectángulo_460738" data-name="Rectángulo 460738" width="12.767" height="10.446" transform="translate(56.885 86.739)" fill="#da9dfe"/>
        <path id="Trazado_1274034" data-name="Trazado 1274034" d="M88.693,177.374c-2.634,1.323-10.55.319-12.385-1.736-.619-.693-.535-8.867-.156-9.137,2.448-1.747,4.008,3.115,6.156,3.108,1.116,0,2.72-1.755,3.791-1.471.336.089,2.594,2.055,2.594,2.466Z" transform="translate(-46.509 -101.854)" fill="#fff5d4"/>
        <path id="Trazado_1274035" data-name="Trazado 1274035" d="M88.666,124.372a14.4,14.4,0,0,0-3,.291c-1.237.5-2.616,3.082-3.788,3.2-1.083.11-2.042-1.039-3.119-1.167-1.054-.126-1.859.362-2.861.38.132-2.932-.927-3.793,1.852-5.3,2.194-1.19,8.486-2.535,10.541-1.1.524.367.508,3.562.373,3.693" transform="translate(-46.48 -73.61)" fill="#fff5d4"/>
        <path id="Trazado_1274036" data-name="Trazado 1274036" d="M76.039,207.067l.2-3.874c4.11,1.388,8.258,2.215,12.566,1.168l0,2.707Z" transform="translate(-46.622 -124.584)" fill="#fff5d4"/>
        <rect id="Rectángulo_460739" data-name="Rectángulo 460739" width="20.891" height="4.256" transform="translate(92.864 23.292)" fill="#030303"/>
        <rect id="Rectángulo_460740" data-name="Rectángulo 460740" width="12.767" height="4.256" transform="translate(80.097 44.57)" fill="#030303"/>
        <rect id="Rectángulo_460741" data-name="Rectángulo 460741" width="8.511" height="4.256" transform="translate(80.097 23.292)" fill="#030303"/>
        <path id="Trazado_1274037" data-name="Trazado 1274037" d="M248.55,91.463h-8.511V87.207h7.931c.888,0,.527,3.481.58,4.256" transform="translate(-147.175 -53.469)" fill="#030303"/>
        <rect id="Rectángulo_460742" data-name="Rectángulo 460742" width="8.511" height="3.869" transform="translate(80.097 34.125)" fill="#030303"/>
        <rect id="Rectángulo_460743" data-name="Rectángulo 460743" width="8.124" height="3.869" transform="translate(105.631 34.125)" fill="#030303"/>
        <path id="Trazado_1274038" data-name="Trazado 1274038" d="M118.106,147.092v4.646c-1.781-.264-3.988.928-4.275-1.335-.513-4.058.891-3.346,4.275-3.311" transform="translate(-69.73 -90.144)" fill="#030303"/>
      </g>
    </g>
  </g>
</svg>
