<svg xmlns="http://www.w3.org/2000/svg" xmlns:xlink="http://www.w3.org/1999/xlink" width="396.289" height="292.521" viewBox="0 0 396.289 292.521">
  <defs>
    <clipPath id="clip-path">
      <rect id="Rectángulo_460758" data-name="Rectángulo 460758" width="372" height="223.811" fill="none"/>
    </clipPath>
  </defs>
  <g id="Grupo_1210322" data-name="Grupo 1210322" transform="translate(-153.506 -7108.777)">
    <rect id="Rectángulo_460528" data-name="Rectángulo 460528" width="396" height="103" rx="12" transform="translate(153.506 7207.712)" fill="#ff9ebf"/>
    <ellipse id="Elipse_13727" data-name="Elipse 13727" cx="141" cy="140" rx="141" ry="140" transform="translate(211.506 7110.712)" fill="#fff5d4"/>
    <g id="Grupo_1209401" data-name="Grupo 1209401" transform="translate(153.795 7108.777)">
      <path id="Trazado_1266782" data-name="Trazado 1266782" d="M0,0H396V292.521H0Z" fill="none"/>
      <g id="Grupo_1211313" data-name="Grupo 1211313" transform="translate(0 34.354)">
        <g id="Grupo_1211312" data-name="Grupo 1211312" transform="translate(0 0)" clip-path="url(#clip-path)">
          <path id="Trazado_1274092" data-name="Trazado 1274092" d="M113.12,75.45a11.28,11.28,0,0,0,3.485-.819,13.014,13.014,0,0,0,5.486-4.912c3.051-4.721,3.722-10.558,4.066-16.168.167-2.69.261-5.48-.745-7.982-1.19-2.96-3.124-4.968-6.372-3.131a11.041,11.041,0,0,0-2.683,2.369c-6.743,7.535-11.985,16.89-12.533,26.984a5.319,5.319,0,0,0,.231,2.252c.819,2.052,2.91,1.751,4.674,1.631,1.413-.1,2.92-.084,4.39-.224" transform="translate(243.032 97.71)" fill="#231c20"/>
          <path id="Trazado_1274093" data-name="Trazado 1274093" d="M183.974,44.165a51.128,51.128,0,0,0-6.806-9.416c-2.633-2.88-5.51-6.419-8.6-8.774-1.547-1.183-3.568-2.179-5.389-1.48-2.155.829-3.983,1.39-5.75,2.944-1.727,1.517-3.234,3.261-5.343,4.28-2.5,1.213-5.653,1.012-8.353,1.156-3.425.18-6.8.17-10.221.628-8.136,1.089-18.247,2.683-22.393,10.669a40.707,40.707,0,0,0-3.157,9.947q-.922,4.075-1.841,8.153c-1.34,5.931-5.456,10.609-8.888,15.44q-6.51,9.167-12.2,18.882c-3.428,5.857-6.683,12.042-7.431,18.785a9.226,9.226,0,0,0,.805,5.707,7.364,7.364,0,0,0,6.028,3.238c11.741.625,21.975-5.019,30.165-13.121,5.536-5.483,10.241-12.991,16.673-17.415,6.4-4.4,10.137-11.08,14.722-17.117-.551,5.453-2.429,9.853-4.183,15.089a139.389,139.389,0,0,0-4.608,17.468c-.682,3.488-1.156,7.378.782,10.355a11.167,11.167,0,0,0,5.734,4.053c4.511,1.641,10.575,2.2,15.082.3,12.7-5.359,19.292-20.418,24.7-32.056,3.989-8.594,7.919-18.11,6.883-27.783A51.9,51.9,0,0,0,184.7,45.5c-.234-.451-.478-.9-.725-1.337" transform="translate(181.447 56.808)" fill="#395795"/>
          <path id="Trazado_1274094" data-name="Trazado 1274094" d="M92.139,50.306a33.147,33.147,0,0,0,.558,3.622,7.8,7.8,0,0,0,1.28,3.094c1.57,2.062,4.511,2.242,6.88,1.995a24.794,24.794,0,0,0,7.768-2.346,57.893,57.893,0,0,0,7.658-4.38,77.95,77.95,0,0,0,7.087-5.172c2.219-1.871,4.23-3.966,6.268-6.028,2.078-2.1,4.294-4.063,6.322-6.215,1.263-1.343,2.476-2.733,3.672-4.14a40.057,40.057,0,0,0-5-4.761c-1.55-1.183-3.572-2.179-5.389-1.48-2.158.829-3.983,1.39-5.754,2.944-1.727,1.517-3.234,3.261-5.339,4.28-2.5,1.213-5.657,1.012-8.353,1.156-3.428.18-6.806.17-10.221.628-1.447.194-2.954.4-4.477.662a30.414,30.414,0,0,0-2.964,16.142" transform="translate(215.381 56.808)" fill="#231c20"/>
          <path id="Trazado_1274095" data-name="Trazado 1274095" d="M112.608,36.009l-1.286-.535a4.644,4.644,0,0,1,1.764-1.881,3.211,3.211,0,0,0,1.306-1.35,3.188,3.188,0,0,0-.632-2.3,14.278,14.278,0,0,0-2.172-3.161,4.4,4.4,0,0,0-3.067-1.443c-1.316.013-2.523.825-3.853,1.808l-.829-1.123c1.179-.869,2.793-2.062,4.668-2.078h.047a5.771,5.771,0,0,1,4.023,1.851,15.454,15.454,0,0,1,2.4,3.465,4.315,4.315,0,0,1,.742,3.408,4.328,4.328,0,0,1-1.814,2.048,3.535,3.535,0,0,0-1.3,1.286" transform="translate(243.12 56.073)" fill="#395795"/>
          <path id="Trazado_1274096" data-name="Trazado 1274096" d="M110.956,36.482a23.265,23.265,0,0,0-8.32-9.589l-1.216,1.871a20.989,20.989,0,0,1,7.7,9.075,1.318,1.318,0,0,0,1.223.855,1.081,1.081,0,0,0,.184-.013,1.178,1.178,0,0,0,.986-1.059,1.218,1.218,0,0,0-.558-1.139" transform="translate(237.451 62.963)" fill="#395795"/>
          <path id="Trazado_1274097" data-name="Trazado 1274097" d="M105.175,43.532c-.578-.855-1.179-1.724-1.761-2.563a67.423,67.423,0,0,1-5.974-9.76l2.021-.942a65.854,65.854,0,0,0,5.784,9.432c.5.722,1.016,1.463,1.52,2.205l.073-.037.267.561Z" transform="translate(228.133 70.863)" fill="#395795"/>
          <path id="Trazado_1274098" data-name="Trazado 1274098" d="M172.208,56.2c-3-5.837-4.965-12.142-7.458-18.213s-5.62-12.055-10.445-16.5c-5.41-4.989-12.526-7.668-19.6-9.683-1.016-.287-2.052-.6-3.094-.792a5.357,5.357,0,0,1-1.761-.344c-.688-.388-1.266-1.1-1.955-1.527a11.739,11.739,0,0,0-4.651-1.674,35.55,35.55,0,0,0-8.958.464,35.47,35.47,0,0,0-10.054,2.63c-2.82,1.27-6.014,1.557-9.025,2.356-6.028,1.607-11.738,4.247-16.162,8.737-1.988,2.018-3.776,4.471-3.993,7.291-.267,3.5,1.915,6.683,4.2,9.342,1.895,2.2,3.933,4.26,5.881,6.405.812.9,1.611,1.808,2.372,2.743,3.067,3.769,4.4,7.972,6.606,12.109l-.16.067c-.458.2-.748.448-.595.979A29.74,29.74,0,0,0,94.65,63.97c.237.548.484,1.086.745,1.621a3.451,3.451,0,0,0,.792,1.3,1.934,1.934,0,0,0,1.484.144,9.36,9.36,0,0,1,1.106-.067c.775,1.059,1.584,2.092,2.432,3.067,2.686,3.1,6.111,5.744,9.135,8.524a75.683,75.683,0,0,0,11.237,9.068,25.291,25.291,0,0,0,13.646,4.15,36.476,36.476,0,0,0,6.432-.919,45.716,45.716,0,0,0,7.454-2.011c4.628-1.811,8.567-5,12.346-8.23q6.661-5.694,13-11.738c3.682-3.512-.468-9.2-2.255-12.677" transform="translate(175.661 17.149)" fill="#395795"/>
          <path id="Trazado_1274099" data-name="Trazado 1274099" d="M90.632,45.548A93.114,93.114,0,0,1,97.094,33.2a5.449,5.449,0,0,0,1.049-3.084c-.137-1.644-1.681-2.767-3.107-3.6q-2.466-1.443-5.052-2.666c-3.144-1.487-6.836-2.726-10.02-1.33a10.51,10.51,0,0,0-4.815,5.209,74.471,74.471,0,0,0-5.125,13.589,39.541,39.541,0,0,0-1.2,14.738c.441,4.317,2.706,8.751,4.678,12.6,4.39,8.6,10.271,16.312,16.118,23.95a11.337,11.337,0,0,0,2.663,2.767c2.5,1.631,5.911,1.029,8.494-.471a5.45,5.45,0,0,0,2.586-2.683c.541-1.53-.084-3.2-.712-4.7a73.017,73.017,0,0,0-6.024-12.266c-1.34-2.021-1.965-4.728-2.817-6.987q-1.383-3.659-2.763-7.317a25.668,25.668,0,0,1-2-7.571,18.306,18.306,0,0,1,1.584-7.832" transform="translate(160.614 51.298)" fill="#ffa87d"/>
          <path id="Trazado_1274100" data-name="Trazado 1274100" d="M113.57,19.2c-.545-1.737-2.065-4.157-4.023-4.551-1.273-.257-2.419.334-3.629.264-1.193-.07-1.8-.785-2.853-1.393-2.389-1.383-4.7-1.567-7.374-1.724-2.312-.14-4.153-.535-6.121,1.193a14.845,14.845,0,0,0-3.081,4.4C83.2,23.624,80.2,30.01,77.331,36.451q-2.145,4.836-4.213,9.71c-.244.568-.511,1.143-.782,1.727-.12.261-.247.521-.371.789a15.252,15.252,0,0,0-1.848,6.552,75.405,75.405,0,0,0,23.028,7.434c3.712.615,4.487-2.232,5.981-4.945l.007-.01.354-.645,5.406-9.8c2-3.632,4.02-7.307,5.667-11.11a45.081,45.081,0,0,0,3.151-10.137,14.613,14.613,0,0,0-.14-6.823" transform="translate(164.159 27.283)" fill="#395795"/>
          <path id="Trazado_1274101" data-name="Trazado 1274101" d="M98.192,31.673c-.12.214-.237.431-.357.645l0,.01q-1.188-.18-2.369-.4a85.13,85.13,0,0,1-15.58-4.41,85.932,85.932,0,0,1-9.212-4.233c.124-.264.247-.528.371-.789q1.574.857,3.178,1.644a83.325,83.325,0,0,0,14.939,5.62,82.539,82.539,0,0,0,9.035,1.911" transform="translate(165.457 52.674)" fill="#65bfd7"/>
          <path id="Trazado_1274102" data-name="Trazado 1274102" d="M80.394,33.348a12.067,12.067,0,0,0-7.936-3.655c-.144-.01-.488.05-.488.247s.351.241.488.251A10.943,10.943,0,0,1,79.552,33.6c.214.227,1.153.077.842-.251" transform="translate(168.503 69.516)" fill="#e06f63"/>
          <path id="Trazado_1274103" data-name="Trazado 1274103" d="M83.142,21.816a6.072,6.072,0,0,0,.765,1.557A50.923,50.923,0,0,1,87,28.759q1.594,3.283,3,6.649a23.522,23.522,0,0,0,3.592,6.666,68.913,68.913,0,0,1,5.182-8.754c.936-1.27,1.958-2.476,2.877-3.759,3.211-4.494,5.516-9.977,5.3-15.57a8.666,8.666,0,0,0-.976-3.906,3,3,0,0,0-2.954-1.811A23.422,23.422,0,0,0,94.98,9.64a24.318,24.318,0,0,0-6.743,3.3A13.96,13.96,0,0,0,83.5,18.682a4.4,4.4,0,0,0-.357,3.134" transform="translate(194.303 19.352)" fill="#ffa87d"/>
          <path id="Trazado_1274104" data-name="Trazado 1274104" d="M83.5,20.827a8.335,8.335,0,0,0,2.693,5.613c3.545,3.037,7.615,1.33,10.548-1.46,3.137-2.974,4.825-7.775,5.283-11.965A5.908,5.908,0,0,0,101.98,11a2.487,2.487,0,0,0-1.139-1.627c-2.1-1.159-6.058,1.868-7.8,2.89a63.055,63.055,0,0,0-7.755,5.366,5.335,5.335,0,0,0-1.343,1.4,3.54,3.54,0,0,0-.444,1.8" transform="translate(195.493 21.336)" fill="#e06f63"/>
          <path id="Trazado_1274105" data-name="Trazado 1274105" d="M97.148,39.314a46.256,46.256,0,0,1-4.654-4.5A5.727,5.727,0,0,1,90.81,32.3c-.17-1.009.378-1.981.194-2.994-.027-.15-.15-.21-.284-.254q-2.4-.817-4.8-1.631-1.188-.406-2.369-.805a3.371,3.371,0,0,1-.849-.351,1.007,1.007,0,0,1-.388-.9c0-.8.12-1.61.19-2.406.074-.852.154-1.707.237-2.559q.246-2.486.528-4.972.326-2.837.705-5.667c.05-.381-1.1-.428-1.156,0q-.7,5.237-1.216,10.5-.125,1.278-.241,2.559c-.077.842-.207,1.7-.2,2.546A1.531,1.531,0,0,0,82.2,26.848c.728.314,1.507.531,2.259.789l5.416,1.838c.107.972-.391,1.918-.2,2.887a5.786,5.786,0,0,0,1.654,2.553,46.489,46.489,0,0,0,4.831,4.7.89.89,0,0,0,.789.107c.167-.053.414-.231.207-.4" transform="translate(190.01 22.165)" fill="#231c20"/>
          <path id="Trazado_1274106" data-name="Trazado 1274106" d="M89.728,33.407l-4.12-8.6c-.628-1.31-1.216-2.65-1.925-3.916a8.2,8.2,0,0,0-2.523-2.924,5.138,5.138,0,0,0-4.207-.745c-.184.053-.368.214-.2.391a.86.86,0,0,0,.765.1,3.571,3.571,0,0,1,3.081.825,8.736,8.736,0,0,1,2.232,2.92c.638,1.206,1.2,2.456,1.791,3.685q.942,1.965,1.881,3.926,1.073,2.245,2.148,4.487c.164.341,1.26.234,1.076-.15" transform="translate(179.548 39.916)" fill="#231c20"/>
          <path id="Trazado_1274107" data-name="Trazado 1274107" d="M90.951,25.94l-.231-1.9c-.033-.291-.033-.561-.331-.7a1.714,1.714,0,0,0-.862-.084,42.081,42.081,0,0,1-7.969-.337c-.2-.023-.588-.017-.688.2s.241.327.391.351q2.155.3,4.334.381,1.083.045,2.172.03c.361,0,.722-.013,1.083-.027.227-.01.491-.053.735-.057a3.264,3.264,0,0,1,.07.652l.1.815c.06.521.124,1.046.187,1.567q.175,1.448.347,2.9a22.508,22.508,0,0,0-4.755.454c-.16.033-.481.12-.388.347.084.211.511.237.685.2a21.177,21.177,0,0,1,5.052-.418c.14,0,.585-.06.558-.284q-.246-2.045-.491-4.083" transform="translate(189.297 53.622)" fill="#231c20"/>
          <path id="Trazado_1274108" data-name="Trazado 1274108" d="M88.487,20.98a1.381,1.381,0,0,0-1.447-.758,1.1,1.1,0,0,0-.728.324,1.224,1.224,0,0,0-.277.595,2.543,2.543,0,0,0,.013.979,2.363,2.363,0,0,0,.037.3,1.99,1.99,0,0,0,.555,1.022,1.534,1.534,0,0,0,1.577.371.7.7,0,0,0,.441-.578,4.612,4.612,0,0,0,.07-.775,3.734,3.734,0,0,0-.241-1.484" transform="translate(201.332 47.325)" fill="#231c20"/>
          <path id="Trazado_1274109" data-name="Trazado 1274109" d="M89.45,26.507a1.388,1.388,0,0,0-1.487-.682,1.113,1.113,0,0,0-.708.361,1.267,1.267,0,0,0-.247.608,2.476,2.476,0,0,0,.067.976,1.87,1.87,0,0,0,.053.3,1.946,1.946,0,0,0,.6.989,1.527,1.527,0,0,0,1.594.291.687.687,0,0,0,.411-.6,4.668,4.668,0,0,0,.03-.779,3.76,3.76,0,0,0-.317-1.47" transform="translate(203.656 60.419)" fill="#231c20"/>
          <path id="Trazado_1274110" data-name="Trazado 1274110" d="M91.606,30.705a1.391,1.391,0,0,0-1.631-.127,1.128,1.128,0,0,0-.538.588,1.179,1.179,0,0,0-.02.655,2.434,2.434,0,0,0,.4.892,1.935,1.935,0,0,0,.157.267,1.962,1.962,0,0,0,.909.718,1.532,1.532,0,0,0,1.6-.281.7.7,0,0,0,.177-.705,4.444,4.444,0,0,0-.244-.738,3.669,3.669,0,0,0-.805-1.27" transform="translate(209.265 71.116)" fill="#231c20"/>
          <path id="Trazado_1274111" data-name="Trazado 1274111" d="M106.177,26.16c-.04-.518-.084-1.036-.134-1.554-.094-1.036-.2-2.068-.314-3.1q-.341-3.027-.815-6.038-.531-3.433-1.236-6.833c-.087-.421-1.233-.361-1.156,0q1.213,5.9,1.935,11.885c.244,2.008.474,4.026.595,6.044a1.494,1.494,0,0,1-.284,1.143,5.31,5.31,0,0,1-.979.832,8.113,8.113,0,0,1-2.282,1.139c-1.694.531-3.619.421-5.039,1.631a.188.188,0,0,0,0,.3,7.852,7.852,0,0,1,1.159,1.758,120.433,120.433,0,0,0-11.33,8.6c-.2.174.043.347.21.4a.9.9,0,0,0,.792-.107,119.085,119.085,0,0,1,11.457-8.691.191.191,0,0,0,.06-.227,8.609,8.609,0,0,0-1.2-1.854c1.24-.936,2.98-.849,4.414-1.286a9.482,9.482,0,0,0,2.366-1.1c.642-.414,1.527-.966,1.757-1.741a3.46,3.46,0,0,0,.027-1.2" transform="translate(201.871 19.528)" fill="#231c20"/>
          <path id="Trazado_1274112" data-name="Trazado 1274112" d="M98.061,36.749c-.023-.084-.19-.154-.257-.17l-.037-.01a1.523,1.523,0,0,0-.3-.04c-.281-.157-.551-.341-.822-.5q-.586-.351-1.163-.712-1.188-.747-2.352-1.54-2.3-1.574-4.474-3.318a.877.877,0,0,0-.762-.1c-.157.05-.408.227-.2.391q2.551,2.045,5.283,3.859,1.338.892,2.713,1.724a11.419,11.419,0,0,0,1.353.789c.3.127,1.156.154,1.016-.368" transform="translate(205.136 70.969)" fill="#231c20"/>
          <path id="Trazado_1274113" data-name="Trazado 1274113" d="M103.242,41.546q-7.317-2.421-14.819-4.233a.87.87,0,0,0-.765.1c-.17.174.017.344.2.388q7.493,1.814,14.822,4.233a.834.834,0,0,0,.762-.1c.18-.18-.023-.331-.2-.388" transform="translate(205.074 87.266)" fill="#231c20"/>
          <path id="Trazado_1274114" data-name="Trazado 1274114" d="M124.849,36.676c-.09-.221-.5-.217-.685-.2a62.17,62.17,0,0,0-20.328,5.75q-2.686,1.288-5.239,2.833c-.194.117-.2.287,0,.4a.907.907,0,0,0,.789,0A60.611,60.611,0,0,1,118.7,37.909c1.9-.388,3.829-.682,5.76-.882.167-.017.481-.13.391-.351" transform="translate(230.495 85.387)" fill="#231c20"/>
          <path id="Trazado_1274115" data-name="Trazado 1274115" d="M114.309,39.47a89.576,89.576,0,0,0-14.387.351c-.164.017-.478.13-.388.347s.5.221.685.2a87.8,87.8,0,0,1,14.09-.331c.164.01.558-.057.558-.284s-.4-.274-.558-.284" transform="translate(232.999 92.079)" fill="#231c20"/>
          <path id="Trazado_1274116" data-name="Trazado 1274116" d="M81.234,22.582c1.407,3.946,2.349,8.447,4.257,12.169a36.2,36.2,0,0,0,5.8,8.387c5.259,5.62,12.339,1.42,16.566-3.244a16.091,16.091,0,0,0,3.632-10.408c.01-1.22-.117-2.442-.063-3.662a59.338,59.338,0,0,1,1.022-6.278c.8-5.289-1.814-10.956-5.246-14.885A14.167,14.167,0,0,0,103.093,1.3,8.968,8.968,0,0,0,98.555.784,29.368,29.368,0,0,0,88.371,3.547a21.369,21.369,0,0,0-5.563,3.3c-1.139,1-1.333,2.553-1.945,3.846-.211.444-.561.8-.745,1.246a7.139,7.139,0,0,0-.337,2.142,21.2,21.2,0,0,0,1.453,8.5" transform="translate(186.709 1.702)" fill="#ffa87d"/>
          <path id="Trazado_1274117" data-name="Trazado 1274117" d="M111.6,6.042a18.163,18.163,0,0,1,3.167,9.8,44.149,44.149,0,0,1-.087,6.2c-.053.735-.037,1.681-.147,2.586a4.1,4.1,0,0,1-.912,2.386c-.979,1.019-2.112-.14-2.456-1.1-1.073-3-1.774-6.121-2.877-9.115-.845-2.3-2.249-6.285-5.523-5.323-1.35.394-2.132,1.751-3.131,2.743a12.145,12.145,0,0,1-4.521,2.543,18.58,18.58,0,0,1-6.532,1.37,9,9,0,0,1-4.113-.986c-.424-.224-2.914-1.9-2.526-2.576a4.654,4.654,0,0,0-.461,1.971q-.09,1.113-.184,2.225a1.825,1.825,0,0,1-.17.758.634.634,0,0,1-.645.347c-.294-.063-.444-.384-.545-.668C77.2,11.281,84.166,2.884,91.687.916A24.757,24.757,0,0,1,94.3.412a23.541,23.541,0,0,1,8.1-.1,14.9,14.9,0,0,1,9.2,5.73" transform="translate(185.735 -0.001)" fill="#932409"/>
          <path id="Trazado_1274118" data-name="Trazado 1274118" d="M90.537,5.725a2.619,2.619,0,0,1,2.72.611,5.082,5.082,0,0,1,1.276,2.887A7.132,7.132,0,0,1,91.1,16.858a2.156,2.156,0,0,1-1.009.307c-2.232-.02-2.018-4.788-2.108-6.295a6.283,6.283,0,0,1,.591-3.552,3.577,3.577,0,0,1,1.968-1.594" transform="translate(205.92 13.066)" fill="#ffa87d"/>
          <path id="Trazado_1274119" data-name="Trazado 1274119" d="M84.45,6.84a6.7,6.7,0,0,0-1.119.464,6.422,6.422,0,0,0-2.185,1.915c-.247.344-1.093,1.263-.317,1.3a4.773,4.773,0,0,0,2.125-.909,12.276,12.276,0,0,1,4.163-1.136c.581-.08,1.163-.1,1.093-.735a1.383,1.383,0,0,0-.722-1.173,4.219,4.219,0,0,0-1.771,0,6.518,6.518,0,0,0-1.266.267" transform="translate(188.491 15.148)" fill="#932409"/>
          <path id="Trazado_1274120" data-name="Trazado 1274120" d="M88.64,5.634A10,10,0,0,1,94.013,6.8a.576.576,0,0,1,.164.13.156.156,0,0,1,0,.194.243.243,0,0,1-.134.05,49.384,49.384,0,0,0-7.21,1.186c-.678.207-1.975.371-2.112-.682A1.327,1.327,0,0,1,85.5,6.506a6.371,6.371,0,0,1,3.144-.872" transform="translate(198.331 13.19)" fill="#932409"/>
          <path id="Trazado_1274121" data-name="Trazado 1274121" d="M84.178,9.326c-.234-.591-.638-1.276-1.36-1.266a.932.932,0,0,0-.832.491,1.051,1.051,0,0,0-.09.267c-.027.067-.047.134-.067.2a1.823,1.823,0,0,0,.157,1.323,1.3,1.3,0,0,0,.655.845,1.273,1.273,0,0,0,1.316-.261,1.4,1.4,0,0,0,.221-1.6" transform="translate(191.443 18.87)" fill="#231c20"/>
          <path id="Trazado_1274122" data-name="Trazado 1274122" d="M88.5,8.591c-.2-.631-.581-1.37-1.326-1.4a1.136,1.136,0,0,0-1.126.772,1.882,1.882,0,0,0-.05.748,2.082,2.082,0,0,0,.782,1.711A1.036,1.036,0,0,0,87.9,10.4a1.453,1.453,0,0,0,.6-1.811" transform="translate(201.315 16.826)" fill="#231c20"/>
          <path id="Trazado_1274123" data-name="Trazado 1274123" d="M83.2,16.484c.027-.3.057-.608.087-.912.264-2.566.742-5.236.267-7.809-.053-.294.712-.525.758-.264a23.766,23.766,0,0,1-.154,6.95c-.063.585-.13,1.173-.18,1.761a1.609,1.609,0,0,0,.05.9,1.622,1.622,0,0,0,.541.5,3.619,3.619,0,0,0,2.894.508c.114-.033.391-.1.448.06s-.2.3-.314.327a4.534,4.534,0,0,1-3.137-.207,2.447,2.447,0,0,1-1.189-.926,1.705,1.705,0,0,1-.07-.889" transform="translate(194.741 17.292)" fill="#e06f63"/>
          <path id="Trazado_1274124" data-name="Trazado 1274124" d="M91.921,11.345a.854.854,0,0,0-.769.053,9.2,9.2,0,0,1-6.8,2.052c-.164-.02-.561.017-.575.247s.381.3.538.317a10.547,10.547,0,0,0,7.775-2.269c.2-.16-.01-.334-.174-.4" transform="translate(196.153 26.408)" fill="#e06f63"/>
          <path id="Trazado_1274125" data-name="Trazado 1274125" d="M89.949,7.321a.914.914,0,0,0-.785-.05,5.478,5.478,0,0,1-4.9-.361,6.163,6.163,0,0,1-2.736-3.766c-.09-.351-1.2-.354-1.083.08a6.7,6.7,0,0,0,3.371,4.24,7.388,7.388,0,0,0,6.108.257c.221-.087.207-.281.03-.4" transform="translate(188.312 6.765)" fill="#701807"/>
          <path id="Trazado_1274126" data-name="Trazado 1274126" d="M89.823,3.952a.943.943,0,0,0-.789-.053,6.314,6.314,0,0,1-5.924-.842A.88.88,0,0,0,82.325,3c-.217.1-.21.267-.027.4a8.1,8.1,0,0,0,7.5.949c.221-.084.2-.284.027-.4" transform="translate(192.361 6.873)" fill="#701807"/>
          <path id="Trazado_1274127" data-name="Trazado 1274127" d="M92.19,3.981A7.635,7.635,0,0,0,87.523.87c-.194-.037-.585-.057-.7.154s.217.344.364.374c3.829.758,5.51,4.892,5.864,8.36.04.411,1.149.434,1.113.074A12.04,12.04,0,0,0,92.19,3.981" transform="translate(203.224 1.983)" fill="#701807"/>
          <path id="Trazado_1274128" data-name="Trazado 1274128" d="M121.269,53.49c.535,1.861.758,4.016-.408,5.62s-3.368,2.165-5.376,2.526c-5.019.9-10.1,1.4-15.176,1.9l-7.645.752c-2.015.2-4.02.865-5.964-.03a5.071,5.071,0,0,1-2.589-3.241,13.857,13.857,0,0,1-.378-4.207,12.016,12.016,0,0,1,.531-3.852c.819-2.239,3.715-3.782,5.984-4.35a24.441,24.441,0,0,1,4.862-.551q10.931-.491,21.869-.648c.384,0,.448-.127.742.1.969.765,1.316,1.918,1.985,2.89a10.365,10.365,0,0,1,1.564,3.091" transform="translate(196.021 110.904)" fill="#ffa87d"/>
          <path id="Trazado_1274129" data-name="Trazado 1274129" d="M105.234,41.252a1.7,1.7,0,0,1,.144.12l-.02,36.764c-.264.033-.525.063-.785.084a17.476,17.476,0,0,1-1.774.05,13.461,13.461,0,0,1-6.425-1.764,1.8,1.8,0,0,1-.986-1.079,2.34,2.34,0,0,1,.515-1.557,8.231,8.231,0,0,0,.889-6.512,8.672,8.672,0,0,0-2.382-3.388,6.488,6.488,0,0,1-1.243-1.323,2.491,2.491,0,0,1-.244-1.881c.414-1.824,1.935-3.435,2.82-5.055a42.464,42.464,0,0,0,2.623-5.8,53.438,53.438,0,0,1,1.908-5.025,10.085,10.085,0,0,1,2.549-3.5,1.932,1.932,0,0,1,2.412-.134" transform="translate(217.368 95.73)" fill="#65bfd7"/>
          <path id="Trazado_1274130" data-name="Trazado 1274130" d="M99.013,43.517c-.4.17-.521.708-.672,1.083a45.685,45.685,0,0,1-3,6.115c-.648,1.109-1.343,2.182-2.082,3.228a.684.684,0,0,0-.08.591c.037.117.19.324.311.154a46.577,46.577,0,0,0,3.736-6.255q.792-1.6,1.463-3.274a1.977,1.977,0,0,1,.344-.745c.221-.194.538,0,.742.13.341.211,1.564,1.377,1.991,1.079.668-.454-.611-1.216-.879-1.337a5.856,5.856,0,0,1-.708-.391c-.327-.211-.752-.555-1.163-.378" transform="translate(218.07 101.771)" fill="#395795"/>
          <path id="Trazado_1274131" data-name="Trazado 1274131" d="M93.267,45.859a.806.806,0,0,0-.023.334.468.468,0,0,0,.107.257q.7.687,1.4,1.38c.134.13.267-.007.311-.157a.754.754,0,0,0,.023-.334.5.5,0,0,0-.1-.257c-.471-.461-.936-.919-1.407-1.377-.134-.134-.267.007-.311.154" transform="translate(218.289 106.883)" fill="#fff"/>
          <path id="Trazado_1274132" data-name="Trazado 1274132" d="M93.607,45.287a.662.662,0,0,0,.084.591A12.963,12.963,0,0,0,95,47.108c.057.043.107.077.177.043a.342.342,0,0,0,.137-.2.786.786,0,0,0,.023-.331.458.458,0,0,0-.107-.257,13.419,13.419,0,0,1-1.31-1.233c-.127-.14-.271.017-.311.157" transform="translate(219.085 105.534)" fill="#fff"/>
          <path id="Trazado_1274133" data-name="Trazado 1274133" d="M94.051,44.462a.342.342,0,0,0-.137.2.74.74,0,0,0-.023.331A.458.458,0,0,0,94,45.25q.606.5,1.22.982c.053.047.1.08.174.043a.33.33,0,0,0,.137-.2.754.754,0,0,0,.023-.334.436.436,0,0,0-.107-.257q-.606-.491-1.22-.982c-.053-.043-.1-.08-.174-.043" transform="translate(219.801 104.061)" fill="#fff"/>
          <path id="Trazado_1274134" data-name="Trazado 1274134" d="M94.19,43.93a.673.673,0,0,0,.08.591,6.7,6.7,0,0,0,1.484,1.25.142.142,0,0,0,.174-.043.517.517,0,0,0,.107-.261c.02-.174,0-.428-.16-.528-.13-.08-.254-.164-.378-.254-.06-.043-.12-.09-.18-.137l-.03-.023-.033-.027-.09-.074a7.12,7.12,0,0,1-.662-.648c-.124-.147-.271.017-.311.154" transform="translate(220.447 102.357)" fill="#fff"/>
          <path id="Trazado_1274135" data-name="Trazado 1274135" d="M98.22,41.939l.5,35.448a1.16,1.16,0,1,1-2.319.03l-.5-35.444a1.16,1.16,0,1,1,2.319-.033" transform="translate(224.53 95.514)" fill="#fff"/>
          <path id="Trazado_1274136" data-name="Trazado 1274136" d="M213.8,51.337l1.093.01a.938.938,0,0,1,1.106,1.276,95.531,95.531,0,0,1-2.964,16.356c-1.089,3.655-2.262,3.739-5.871,3.769-2.783.023-5.567,0-8.346,0H36.749a39.1,39.1,0,0,1,2.305-12.162,21.893,21.893,0,0,1,7.625-10.111,15.992,15.992,0,0,1,3.876-1.991c3.548-1.233,7.357-1.1,11.05-1.417,4.273-.368,8.54-.732,12.827-.932q6.5-.3,13.011-.307c2.118-.007,4.273-.084,6.388.043a7.04,7.04,0,0,1,1.387.281,6.683,6.683,0,0,0,1.744.351,6.051,6.051,0,0,0,1.6-.257,5.588,5.588,0,0,1,1.57-.224q7.282.226,14.558.658,3.639.21,7.274.454c.869.057,1.7.167,2.526.267a21.628,21.628,0,0,0,3.345.241c.18,0,.364-.013.551-.023a54.18,54.18,0,0,1,7.521.508c5.249.388,10.492.779,15.741,1.143,1.657.114,3.689-.067,5.286.4.261.074.5.14.732.19a8.629,8.629,0,0,0,3.345.084c.1-.01.194-.02.294-.033a33.546,33.546,0,0,1,5.657.287c15.6.779,31.174,1,46.835,1.139" transform="translate(86.039 107.226)" fill="#dd475d"/>
          <rect id="Rectángulo_460757" data-name="Rectángulo 460757" width="167.832" height="12.546" transform="translate(163.558 169.556)" fill="#231c20"/>
          <path id="Trazado_1274137" data-name="Trazado 1274137" d="M57.593,46V74.629H54.248V45.9a6.683,6.683,0,0,0,1.744.351,6.168,6.168,0,0,0,1.6-.257" transform="translate(127.009 107.473)" fill="#fff"/>
          <path id="Trazado_1274138" data-name="Trazado 1274138" d="M66.354,46.519V73.753H63.009V46.278a22.049,22.049,0,0,0,3.345.241" transform="translate(147.521 108.349)" fill="#fff"/>
          <path id="Trazado_1274139" data-name="Trazado 1274139" d="M76.284,47.1V72.031H72.939V47.015a8.627,8.627,0,0,0,3.345.084" transform="translate(170.77 110.074)" fill="#fff"/>
          <path id="Trazado_1274140" data-name="Trazado 1274140" d="M113.791,58.623a366.812,366.812,0,0,0-37.432-2.66c-4.043-.043-10.906-.458-12.653,4.03-1.49,3.829.023,8.483,2.031,11.818,6.188,10.274,16.91,11.03,27.826,10.6l54.783-2.165c5.1-.2,10.2-.4,15.266-1.029,2.025-.247,4.243-.682,5.493-2.292s1.119-3.856.672-5.827c-.478-2.1-1.811-5.025-3.943-5.914-2.98-1.246-7.241-1.073-10.435-1.45L149.212,63c-11.741-1.383-23.569-3.027-35.421-4.377" transform="translate(147.746 130.957)" fill="#ffa87d"/>
          <path id="Trazado_1274141" data-name="Trazado 1274141" d="M111.233,54.074a1.587,1.587,0,0,1,.107.154l-9.349,35.554c-.264-.033-.521-.073-.778-.117a16.828,16.828,0,0,1-1.727-.4,13.462,13.462,0,0,1-5.77-3.335,1.815,1.815,0,0,1-.678-1.3,2.337,2.337,0,0,1,.892-1.373,8.232,8.232,0,0,0,2.513-6.078A8.72,8.72,0,0,0,94.994,73.3a6.515,6.515,0,0,1-.865-1.594,2.514,2.514,0,0,1,.241-1.884c.865-1.657,2.743-2.83,4.013-4.173a42.473,42.473,0,0,0,4.006-4.938,53.746,53.746,0,0,1,3.124-4.377,10.055,10.055,0,0,1,3.355-2.743,1.935,1.935,0,0,1,2.366.484" transform="translate(217.819 125)" fill="#65bfd7"/>
          <path id="Trazado_1274142" data-name="Trazado 1274142" d="M102.17,55.586c-.428.063-.685.551-.926.879a45.192,45.192,0,0,1-4.457,5.149c-.909.909-1.851,1.771-2.83,2.6a.678.678,0,0,0-.231.551c.007.12.1.361.261.227a46.581,46.581,0,0,0,5.2-5.1q1.173-1.353,2.245-2.8c.144-.19.3-.521.525-.631.264-.134.521.137.685.311.277.291,1.159,1.731,1.651,1.554.762-.274-.284-1.337-.511-1.517a6.568,6.568,0,0,1-.585-.558c-.264-.287-.588-.728-1.029-.662" transform="translate(219.437 130.125)" fill="#395795"/>
          <path id="Trazado_1274143" data-name="Trazado 1274143" d="M94.164,57.427a.779.779,0,0,0-.107.317.49.49,0,0,0,.037.277c.334.561.672,1.126,1.009,1.687.1.16.261.063.341-.07a.832.832,0,0,0,.107-.317.49.49,0,0,0-.037-.277c-.337-.561-.672-1.123-1.009-1.687-.1-.164-.261-.06-.341.07" transform="translate(220.203 134.091)" fill="#fff"/>
          <path id="Trazado_1274144" data-name="Trazado 1274144" d="M94.641,56.959a.666.666,0,0,0-.07.591,13.22,13.22,0,0,0,.952,1.524c.043.057.084.1.16.087a.343.343,0,0,0,.184-.16.793.793,0,0,0,.1-.314.436.436,0,0,0-.033-.277,12.971,12.971,0,0,1-.956-1.524c-.09-.167-.267-.053-.341.074" transform="translate(221.312 132.988)" fill="#fff"/>
          <path id="Trazado_1274145" data-name="Trazado 1274145" d="M95.277,56.274a.309.309,0,0,0-.18.157.784.784,0,0,0-.11.317.472.472,0,0,0,.037.274q.466.632.932,1.26c.04.057.08.1.157.087a.328.328,0,0,0,.184-.157.747.747,0,0,0,.107-.317.45.45,0,0,0-.037-.274q-.466-.631-.932-1.26c-.04-.057-.08-.1-.157-.087" transform="translate(222.381 131.745)" fill="#fff"/>
          <path id="Trazado_1274146" data-name="Trazado 1274146" d="M95.549,55.793a.672.672,0,0,0-.07.595,6.493,6.493,0,0,0,1.116,1.584.141.141,0,0,0,.177,0,.475.475,0,0,0,.17-.224.558.558,0,0,0-.02-.551c-.1-.11-.207-.224-.3-.341-.05-.057-.094-.117-.14-.177l-.023-.03-.027-.037-.067-.094a6.575,6.575,0,0,1-.474-.8c-.084-.17-.267-.053-.341.07" transform="translate(223.439 130.262)" fill="#fff"/>
          <path id="Trazado_1274147" data-name="Trazado 1274147" d="M106.055,54.75,97.542,89.162a1.16,1.16,0,0,1-2.252-.555L103.8,54.192a1.16,1.16,0,0,1,2.252.558" transform="translate(223.019 124.819)" fill="#fff"/>
          <path id="Trazado_1274148" data-name="Trazado 1274148" d="M234.272,79.162c-.234,1.263-.615,2.6-.755,3.562-.344,2.356-.862,4.678-1.37,7-.381,1.744-.755,3.572-1.163,5.379-.371,1.664-.768,3.308-1.223,4.855-.7,2.392-1.737,1.821-4.253,1.8-2.178-.023-4.36-.037-6.536-.057q-6.265-.05-12.53-.1c-9.546-.08-19.1-.157-28.641-.3-18.35-.274-36.7-.772-55.021-1.938-17.164-1.1-34.168-1.684-51.379-2.64-3.137-.174-6.285-.351-9.406-.672l-1.012-.11a64.815,64.815,0,0,1-8.129-1.417C44.087,92.34,35.14,87.411,32.423,78.671,30.352,72,29.687,64.193,33.983,58.59a19.712,19.712,0,0,1,7.2-5.506,36.412,36.412,0,0,1,12.837-3.391c.127-.013.251-.023.378-.03,4.6-.354,10.107-.441,14.471,1.246s7.792,5.009,12.052,6.9A40.1,40.1,0,0,0,91.44,60.628c2.426.368,4.895.628,7.394.949q5.152.657,10.3,1.33,1.674.211,3.345.438,3.208.421,6.415.849l.127.017c4.972.668,9.94,1.39,14.912,2.115,12.75,1.864,25.5,3.769,38.324,4.895,10.5.919,21.02,1.6,31.511,2.566,5.246.484,10.485,1.036,15.7,1.727,4.892.642,10.1.087,14.9,1.129a6.727,6.727,0,0,1-.107,2.519" transform="translate(72.118 115.781)" fill="#dd475d"/>
          <path id="Trazado_1274149" data-name="Trazado 1274149" d="M223.007,81.324c-13.115.15-26.229-.05-39.333-.525-13.191-.474-26.369-1.223-39.531-2.155-13.091-.926-26.169-2.031-39.24-3.228q-19.576-1.794-39.143-3.776c-5.941-.591-11.892-1.37-17.254-4.126A31.184,31.184,0,0,1,35.051,54.239c-.157-.294-1.129-.194-.956.13a31.934,31.934,0,0,0,9.934,11.217,35.373,35.373,0,0,0,14.812,5.72c6.429,1.042,13,1.443,19.483,2.082q9.984.977,19.971,1.918c13.315,1.25,26.64,2.416,39.975,3.411,13.251.986,26.513,1.8,39.788,2.359s26.59.849,39.891.785q2.526-.01,5.059-.04c.595-.007.6-.5,0-.5" transform="translate(79.778 126.58)" fill="#993741"/>
          <path id="Trazado_1274150" data-name="Trazado 1274150" d="M56.046,74.932l-1.012-.11c-.027-.284-.043-.571-.06-.859a1.818,1.818,0,0,0-.164-.832c-.254-.441-1.012-.615-1.45-.8-.538-.234-1.086-.461-1.627-.688-1.106-.468-2.212-.929-3.315-1.41a57.332,57.332,0,0,1-6.238-3.1,24.049,24.049,0,0,1-8.814-8.36c-.174-.311.775-.421.942-.134a20.157,20.157,0,0,0,4.507,5.283c3.425,2.894,7.525,4.791,11.614,6.529,1.106.468,2.215.929,3.318,1.4a11,11,0,0,1,1.54.692,1.379,1.379,0,0,1,.645,1.153c.037.414.07.825.114,1.24" transform="translate(78.069 136.894)" fill="#993741"/>
          <path id="Trazado_1274151" data-name="Trazado 1274151" d="M49.761,55.595q-1.6-3.117-3.2-6.231c-.154-.294-1.113-.194-.942.134q1.6,3.112,3.194,6.231c.157.294,1.113.194.946-.134" transform="translate(106.764 115.164)" fill="#993741"/>
          <path id="Trazado_1274152" data-name="Trazado 1274152" d="M41.881,64.907a15.58,15.58,0,0,0,1.206-1.564,34.748,34.748,0,0,0,4.521-11.11c.8-3.7.378-7.635,2.189-11.056a24.136,24.136,0,0,1,4.551-6.008c.982-.962,1.694-2.148,2.643-3.121A17.807,17.807,0,0,0,59.3,29.456a14.452,14.452,0,0,0,2.339-6.843,6.453,6.453,0,0,0-5.941-7.207,12.228,12.228,0,0,0-5.63,1.052A29.49,29.49,0,0,0,43.107,20.4,18.04,18.04,0,0,0,37.363,27.6c-1.273,3.271-1.911,6.592-4,9.523-2.045,2.877-4.978,4.975-7.558,7.384s-4.932,5.42-5.206,8.941c-.164,2.1.334,3.832-.591,5.917-.742,1.677-1.975,3.091-2.827,4.711a16.692,16.692,0,0,0-1.527,8.761,8.247,8.247,0,0,0,1.086,4.1c1.554,2.346,5.379,2.289,7.825,1.818a13.831,13.831,0,0,0,7.809-4.484c1.577-1.834,2.406-4.29,3.966-6.181a4.988,4.988,0,0,1,2.917-2.031c.508-.047,1.032.291,1.547.087.548-.217.722-.809,1.073-1.236" transform="translate(36.552 35.985)" fill="#231c20"/>
          <path id="Trazado_1274153" data-name="Trazado 1274153" d="M49.769,26.024q1.3.1,2.593.251a23.346,23.346,0,0,1,8.266,2.168,21.42,21.42,0,0,1,3.615,2.5c3.211,2.653,6.118,5.871,7.508,9.8.585,1.651.892,3.381,1.47,5.029a13.4,13.4,0,0,0,2.8,4.374c6.225,7.364,5.005,17.181,8.32,25.845A39.736,39.736,0,0,0,90.579,86.11c2.075,2.636,5.854,5.633,7.08,8.7,1.4,3.488.284,8.607-.819,12.009a58.425,58.425,0,0,1-16.212,25.093c-3.508,3.218-10.522,10.2-15.654,9.646-5.209-.565-8.273-6.856-11.16-10.518q-6.53-8.275-12.232-17.164A192.856,192.856,0,0,1,26.928,86.4c-3.114-7.217-5.961-13.682-7.234-21.6-1.3-8.093-1.216-16.476,1.23-24.351a22.7,22.7,0,0,1,4.056-7.872,12.889,12.889,0,0,1,3.274-2.863c1.49-.885,2.84-2.055,4.41-2.8,1.761-.839,4.223-.765,6.145-.909a72.286,72.286,0,0,1,10.959.02" transform="translate(44.161 60.418)" fill="#fff"/>
          <path id="Trazado_1274154" data-name="Trazado 1274154" d="M49.769,26.024q1.3.1,2.593.251a23.346,23.346,0,0,1,8.266,2.168,21.42,21.42,0,0,1,3.615,2.5c3.211,2.653,6.118,5.871,7.508,9.8.585,1.651.892,3.381,1.47,5.029a13.4,13.4,0,0,0,2.8,4.374c6.225,7.364,5.005,17.181,8.32,25.845A39.736,39.736,0,0,0,90.579,86.11c2.075,2.636,5.854,5.633,7.08,8.7,1.4,3.488.284,8.607-.819,12.009a58.425,58.425,0,0,1-16.212,25.093c-3.508,3.218-10.522,10.2-15.654,9.646-5.209-.565-8.273-6.856-11.16-10.518q-6.53-8.275-12.232-17.164A192.856,192.856,0,0,1,26.928,86.4c-3.114-7.217-5.961-13.682-7.234-21.6-1.3-8.093-1.216-16.476,1.23-24.351a22.7,22.7,0,0,1,4.056-7.872,12.889,12.889,0,0,1,3.274-2.863c1.49-.885,2.84-2.055,4.41-2.8,1.761-.839,4.223-.765,6.145-.909a72.286,72.286,0,0,1,10.959.02" transform="translate(44.161 60.418)" fill="#ffd540"/>
          <path id="Trazado_1274155" data-name="Trazado 1274155" d="M38.9,29.772a18.943,18.943,0,0,1,1.463,2.1,26.722,26.722,0,0,1,3.548,9.666,6.091,6.091,0,0,1-.007,2.623C42.48,49.191,35.424,44,33.3,42.4a58.472,58.472,0,0,1-8.811-8.654c-1.58-1.828-3.191-5.005-1.206-7.154,1.463-1.584,3.953-1.484,6.1-1.263a17.307,17.307,0,0,1,5.57,1.2A11.2,11.2,0,0,1,38.9,29.772" transform="translate(52.345 59.002)" fill="#fff"/>
          <path id="Trazado_1274156" data-name="Trazado 1274156" d="M55.754,53.384c-1.6-.144-3.208-.284-4.808-.434a34.626,34.626,0,0,1-4.618-.668.743.743,0,0,0-.665.09c-.15.15.01.3.174.337a70.392,70.392,0,0,0,9.656,1.156c.167.013.521.02.6-.174s-.2-.294-.341-.307" transform="translate(106.769 122.32)" fill="#993741"/>
          <path id="Trazado_1274157" data-name="Trazado 1274157" d="M73.226,38.393c2.486,2.559,2.426,6.312,1.53,9.452q-1.7,5.974-3.739,11.848c-1.724,4.972-3.7,9.85-5.774,14.685-2.021,4.715-3.635,9.389-5.359,14.217a212.507,212.507,0,0,1-8.266,20.729c-3.572,7.458-7.03,14.972-10.077,22.66-1.6,4.026-3.294,6.546-7.608,7.859-3.378,1.029-7,.969-10.492.865-1.851-.053-4.1.2-5.854-.495a1.2,1.2,0,0,1-.742-.752,1.187,1.187,0,0,1,.2-.946,3.42,3.42,0,0,1,.688-.718,60.9,60.9,0,0,1-16.536.247,4.2,4.2,0,0,1-1.149-.371c-.16-.284.134-.6.4-.8a29.091,29.091,0,0,1,6.2-3.231,58.114,58.114,0,0,1,11.441-3.355c0-.327,7.839-.939,8.487-1a5.668,5.668,0,0,0,1.848-.371c1.313-.595,1.958-2.062,2.473-3.4a168.5,168.5,0,0,0,6.221-20.014c.708-2.91.752-5.867,1.54-8.7.9-3.244,1.858-6.472,2.927-9.666,2.336-6.99,5.2-13.87,6.285-21.16.511-3.465.608-6.977,1.066-10.448.361-2.737,1.654-4.831,2.97-7.244A30.016,30.016,0,0,1,63.1,36.315c3.017-1.717,6.82-.595,9.392,1.42a7.484,7.484,0,0,1,.735.658" transform="translate(0.001 83.048)" fill="#ffa87d"/>
          <path id="Trazado_1274158" data-name="Trazado 1274158" d="M45.162,31.26c.1.11.2.217.3.321,5.463,6.038,7.307,14.7,5.66,22.564a94.691,94.691,0,0,1-3.736,13.094c-1.363,3.739-2.546,7.511-4.11,11.146-.668,1.554-1.34,4.778-3.181,5.389a3.818,3.818,0,0,1-1.594.063c-7.812-.779-15.714-1.58-23.115-4.2-.772-.274-1.644-.685-1.814-1.487a2.5,2.5,0,0,1,.087-1.063q3.313-14.3,7.932-28.27c1.928-5.834,4.581-11.608,8.794-16.162,1.577-1.707,4.344-4.768,6.606-5.46,2.757-.845,6.325,2.118,8.173,4.066" transform="translate(31.704 63.321)" fill="#ffd540"/>
          <path id="Trazado_1274159" data-name="Trazado 1274159" d="M38.572,46.771A89.656,89.656,0,0,1,25.137,44.9a73.84,73.84,0,0,1-11.08-3.375c-.134.558-.271,1.113-.4,1.674a2.385,2.385,0,0,0-.087,1.059c.167.8,1.042,1.216,1.814,1.487,7.4,2.626,15.3,3.425,23.112,4.207a3.871,3.871,0,0,0,1.594-.063c1.086-.361,1.764-1.631,2.275-2.93q-1.9-.06-3.8-.184" transform="translate(31.705 97.214)" fill="#fff"/>
          <path id="Trazado_1274160" data-name="Trazado 1274160" d="M15.241,48.134q-1.007,7.618-2.406,15.179c-.057.307.909.358.976,0q1.393-7.558,2.406-15.179c.043-.321-.929-.358-.976,0" transform="translate(30.046 112.099)" fill="#e06f63"/>
          <path id="Trazado_1274161" data-name="Trazado 1274161" d="M15.617,65.014a3.02,3.02,0,0,1-1.881,1.714,10.648,10.648,0,0,1-1.627.261c-.551.07-1.106.137-1.661.207-1.8.227-3.8.431-5.189,1.734-.321.3.611.468.842.251,1.45-1.357,3.679-1.387,5.536-1.621a10.917,10.917,0,0,0,3.114-.595,3.616,3.616,0,0,0,1.808-1.818c.15-.344-.809-.438-.942-.134" transform="translate(12.158 151.784)" fill="#e06f63"/>
          <path id="Trazado_1274162" data-name="Trazado 1274162" d="M13.043,64.711A18.208,18.208,0,0,0,2.01,69.2c-.167.147.033.294.177.341a.756.756,0,0,0,.665-.09,16.943,16.943,0,0,1,10.191-4.24c.144-.01.488-.04.488-.251s-.351-.254-.488-.247" transform="translate(4.559 151.505)" fill="#e06f63"/>
          <path id="Trazado_1274163" data-name="Trazado 1274163" d="M11.736,64.613a.75.75,0,0,0-.668-.09c-3.762,1-7.718,2.1-10.642,4.825-.324.3.611.464.842.251,2.83-2.633,6.652-3.675,10.294-4.644.164-.043.317-.187.174-.341" transform="translate(0.838 150.979)" fill="#e06f63"/>
          <path id="Trazado_1274164" data-name="Trazado 1274164" d="M32.067,35.277q-3.518,11.818-7.892,23.362-1.238,3.253-2.536,6.482c-.144.351.819.434.939.13q4.611-11.437,8.377-23.192,1.063-3.313,2.055-6.649c.11-.378-.852-.438-.942-.134" transform="translate(50.629 82.138)" fill="#b2752b"/>
          <path id="Trazado_1274165" data-name="Trazado 1274165" d="M52.51,46.043a.76.76,0,0,0-.668-.09,48.941,48.941,0,0,1-18,1.891,49.513,49.513,0,0,1-5.149-.7c-.16-.03-.525-.01-.6.174-.08.2.2.281.341.307a50.691,50.691,0,0,0,18.738.017,50.845,50.845,0,0,0,5.169-1.253c.16-.05.321-.184.174-.341" transform="translate(65.731 107.504)" fill="#b2752b"/>
          <path id="Trazado_1274166" data-name="Trazado 1274166" d="M56.051,45.96a.751.751,0,0,0-.668.09A119.6,119.6,0,0,1,38.566,58q-2.506,1.474-5.085,2.823c-.184.094-.167.254,0,.351a.79.79,0,0,0,.688,0A120.523,120.523,0,0,0,51.65,50q2.336-1.794,4.571-3.7c.174-.147-.03-.294-.17-.341" transform="translate(78.078 107.514)" fill="#b2752b"/>
          <path id="Trazado_1274167" data-name="Trazado 1274167" d="M40.957,37.394a38.158,38.158,0,0,1-7.915-8.019.63.63,0,0,0-.6-.174c-.1.013-.471.13-.341.307a38.616,38.616,0,0,0,8.012,8.136.773.773,0,0,0,.668.09c.127-.04.361-.2.174-.341" transform="translate(75.096 68.343)" fill="#b2752b"/>
          <path id="Trazado_1274168" data-name="Trazado 1274168" d="M37.633,44.958a5.254,5.254,0,0,1-2.108-1.133Q29.41,39.189,23.6,34.166a1.288,1.288,0,0,1-.468-.611,1.268,1.268,0,0,1,.214-.869c.932-1.731,2.436-2.917,3.288-4.648a7.531,7.531,0,0,1,2.045-2.75,4.424,4.424,0,0,1,3.258-.992,20.153,20.153,0,0,1,3.863.15,15.344,15.344,0,0,1,6.058,3.071C43.082,28.522,45,30.3,45.247,32.074a2.623,2.623,0,0,1-.013.792c-.431,2.432-2.419,4.781-3.689,6.85a19.869,19.869,0,0,0-1.834,3.749c-.324.905-.638,1.654-1.881,1.524-.067-.007-.13-.017-.2-.03" transform="translate(54.119 56.837)" fill="#ffa87d"/>
          <path id="Trazado_1274169" data-name="Trazado 1274169" d="M32.495,35.425c-.6.986-1.2,1.985-1.758,3a11.32,11.32,0,0,1-3.445-4.778c-1.24-3.732,1.333-8.671,5.724-7.307a17.124,17.124,0,0,1,3.178,1.44,2.54,2.54,0,0,1-.01.8c-.431,2.432-2.419,4.781-3.689,6.85" transform="translate(63.169 61.127)" fill="#e06f63"/>
          <path id="Trazado_1274170" data-name="Trazado 1274170" d="M24.77,31.431a16.779,16.779,0,0,1,1.921-6.151,18.653,18.653,0,0,1,7-7.144c1.744-1.016,3.973-1.925,6.031-1.53a44.907,44.907,0,0,1,6.813,1.721c3.6,1.3,7.114,3.361,9.1,6.632A11.191,11.191,0,0,1,56.91,33.6c-.755,2.546-2.753,4.487-3.475,6.993a6.86,6.86,0,0,0,.227,4.043c.789,2.352,3.555,5.373.094,6.679a5.373,5.373,0,0,0-3.268,2.726c-1.23,2.366-2.426,6.368-5.45,6.92a5.79,5.79,0,0,1-3.094-.388,21.143,21.143,0,0,1-9.205-7.7,40.016,40.016,0,0,1-2.205-4.19c-2.2-4.437-5.115-8.7-5.737-13.616a15.535,15.535,0,0,1-.027-3.632" transform="translate(57.776 38.658)" fill="#ffa87d"/>
          <path id="Trazado_1274171" data-name="Trazado 1274171" d="M33.633,24.076a5.9,5.9,0,0,1-2.088-.3.552.552,0,0,1-.287-.2c-.244-.4,1.089-.461,1.31-.5l1.831-.321c.855-.15,1.711-.3,2.576-.374.364-.033,1.871-.324,1.547.495a.972.972,0,0,1-.368.4,6.247,6.247,0,0,1-3.782.8c-.244-.007-.491-.007-.738-.01" transform="translate(73.113 52.238)" fill="#231c20"/>
          <path id="Trazado_1274172" data-name="Trazado 1274172" d="M34.161,24.662a1.1,1.1,0,0,0-1-1.3c-.936-.05-1.407,1.39-1.44,2.132a.953.953,0,0,0,1.25,1.216,2.334,2.334,0,0,0,1.189-2.052" transform="translate(74.109 54.702)" fill="#231c20"/>
          <path id="Trazado_1274173" data-name="Trazado 1274173" d="M61.96,18.981c-3.829-2.255-7.822-3.826-12.336-3.592-3.024.154-7.15.632-9.683,2.379-4.694,3.231-6.148,9.7-7.488,14.879a78.949,78.949,0,0,1-4.664,13.739c-.488,1.046-.989,2.088-1.544,3.1a11.929,11.929,0,0,1-2.018,2.4q-1.288,1.353-2.576,2.7c-.652.688-1.6,2.182-2.452,2.573,2.322-1.032,4.975-.805,7.511-.932,8.2-.4,14.875-4.945,20.893-10.141,3.037-2.623,5.961-5.376,9.118-7.859,3.472-2.726,7.2-4.855,10.485-7.832a7.769,7.769,0,0,0,1.8-2.108c.849-1.651.1-3.037-.966-4.327a22.791,22.791,0,0,0-6.084-4.972" transform="translate(44.948 35.976)" fill="#231c20"/>
          <path id="Trazado_1274174" data-name="Trazado 1274174" d="M33.716,29.209c-.13-.063-.257-.134-.384-.207a3.358,3.358,0,0,1-.3-.2,5.1,5.1,0,0,1-.645-.551,4.952,4.952,0,0,1-.949-1.36c-.144-.3-1.1-.2-.942.134a5.5,5.5,0,0,0,2.533,2.536.8.8,0,0,0,.688,0c.174-.09.184-.261,0-.351" transform="translate(71.354 62.538)" fill="#e06f63"/>
          <path id="Trazado_1274175" data-name="Trazado 1274175" d="M39.65,15.685c-.074-.18-.448-.2-.6-.174a22.028,22.028,0,0,0-14.715,10.7,20.487,20.487,0,0,0-1.985,4.912c-.077.287.879.358.976,0A21.357,21.357,0,0,1,34.568,17.6a19.5,19.5,0,0,1,4.741-1.6c.14-.03.424-.107.341-.307" transform="translate(52.315 36.291)" fill="#395795"/>
          <path id="Trazado_1274176" data-name="Trazado 1274176" d="M28.19,18.038a.774.774,0,0,0-.668.09,12.916,12.916,0,0,0-3.953,5.3c-.14.354.819.438.942.134a12.538,12.538,0,0,1,3.852-5.179c.177-.14-.037-.3-.174-.341" transform="translate(55.148 42.147)" fill="#395795"/>
          <path id="Trazado_1274177" data-name="Trazado 1274177" d="M58.545,18.741A169.683,169.683,0,0,1,45.009,30.208,63.233,63.233,0,0,1,31.33,38.785a29.94,29.94,0,0,1-8.641,2.309c-.144.017-.421.114-.341.307s.444.19.6.174a36.271,36.271,0,0,0,15.089-5.6A124.771,124.771,0,0,0,51.612,25.845c2.666-2.2,5.283-4.457,7.775-6.853.321-.307-.615-.471-.842-.251" transform="translate(52.292 43.64)" fill="#395795"/>
          <path id="Trazado_1274178" data-name="Trazado 1274178" d="M30.722,23.464a14.08,14.08,0,0,1-6.749,2.252c-.144.01-.488.04-.488.251s.351.257.488.247a15.422,15.422,0,0,0,7.438-2.4c.468-.3-.418-.525-.688-.351" transform="translate(54.985 54.795)" fill="#395795"/>
          <path id="Trazado_1274179" data-name="Trazado 1274179" d="M22.923,24.142a.79.79,0,0,0-.688,0A8.314,8.314,0,0,0,18.2,31.53c.013.351.989.341.976,0a7.926,7.926,0,0,1,3.746-7.037c.17-.1.174-.247,0-.351" transform="translate(42.599 56.338)" fill="#395795"/>
          <path id="Trazado_1274180" data-name="Trazado 1274180" d="M142.431,30.2a9.7,9.7,0,0,0-3.675-2.91c-3.766-1.794-8.313-.845-12.019,1.073-4.026,2.085-4.253,9.112-5.3,12.887q-1.829,6.621-4.04,13.131A336.266,336.266,0,0,1,99.442,96.57a27.569,27.569,0,0,1-4.681,7.264c-.792.805-2.613,1.1-3.682,1.661a15.41,15.41,0,0,0-3.893,2.546c-1.768,1.768-2.593,4.277-4.183,6.2-1.146,1.39-2.77,2.663-2.85,4.464a1.112,1.112,0,0,0,.257.852,1.225,1.225,0,0,0,.555.254,6.4,6.4,0,0,0,2.63.1,10,10,0,0,0-3.756,1.737,2.463,2.463,0,0,0-.825.905,1.008,1.008,0,0,0,.167,1.146,1.334,1.334,0,0,0,.622.267,6.75,6.75,0,0,0,3.552-.157,1.078,1.078,0,0,0,.124,1.5,2.683,2.683,0,0,0,1.554.578,3.824,3.824,0,0,0,3-.628,1.794,1.794,0,0,0,1.534,1.641,4.7,4.7,0,0,0,2.389-.354,2.381,2.381,0,0,0,2.132,1.066,7.1,7.1,0,0,0,3.445-.7,12.44,12.44,0,0,0,3.953-3.452,51.051,51.051,0,0,0,7.341-11.761c.825-1.838,1.263-4.32,2.536-5.834a64.806,64.806,0,0,0,4.414-6.322c10.665-16.269,21.641-32.28,26.563-51.425,1.44-5.6,3.692-13.118.09-17.916" transform="translate(184.75 61.662)" fill="#ffa87d"/>
          <path id="Trazado_1274181" data-name="Trazado 1274181" d="M125.237,36.679A69.332,69.332,0,0,0,123.3,23.268c-.682-2.757-1.574-5.567-3.462-7.685-4.641-5.209-10.906-1.243-14.7,2.887-5.734,6.252-6.947,14.11-8.57,22.1q-1.4,6.9-2.78,13.806c-.872,4.37-2.563,8.931-2.349,13.415.047.969,20.449,2.192,22.42,2.312,1.353.084,4.437.842,5.65.307.735-.327,1.514-2.269,1.824-3.114,1.026-2.807,1.33-5.854,1.951-8.761a85.808,85.808,0,0,0,1.948-21.855" transform="translate(214.049 30.664)" fill="#395795"/>
          <path id="Trazado_1274182" data-name="Trazado 1274182" d="M107.309,26.734c-.989,4.354-3.983,7.384-6.686,6.773s-4.09-4.644-3.1-9,3.983-7.384,6.686-6.773,4.09,4.644,3.1,9" transform="translate(227.579 41.341)" fill="#65bfd7"/>
          <path id="Trazado_1274183" data-name="Trazado 1274183" d="M121.2,30.892c-.05.261-.107.518-.16.779-.341-.067-.685-.13-1.026-.2l-.05-.007c-5.964-1.106-11.988-1.911-18.019-2.556q-4.591-.5-9.192-.889c-.364-.033-.735-.07-1.1-.1.047-.254.087-.5.13-.758.368.033.735.067,1.1.1.545.047,1.086.094,1.631.144,6.094.551,12.186,1.189,18.243,2.075q3.694.541,7.377,1.213c.354.063.712.13,1.069.2" transform="translate(214.582 63.596)" fill="#65bfd7"/>
          <path id="Trazado_1274184" data-name="Trazado 1274184" d="M100.734,18.129q-1.589,7.423-3.02,14.882c-.227,1.189-.448,2.379-.672,3.568a1.546,1.546,0,0,0-.327,0,25.286,25.286,0,0,1-5.389-.167c-.194-.03-.588-.02-.685.2a.176.176,0,0,0-.02.077c-.167.047-.287.134-.267.257q.431,2.8.862,5.6c.03.187.251.241.411.271l3.929.772a1.3,1.3,0,0,0,.207.01q-.386,2.18-.758,4.357c-.06.344-.117.685-.174,1.029l-.13.762q-.556,3.323-1.086,6.652c-.057.361,1.049.411,1.113,0,.351-2.189.705-4.374,1.076-6.556.04-.254.084-.508.127-.762q.647-3.829,1.336-7.652,1.343-7.473,2.843-14.915.842-4.195,1.737-8.38c.074-.344-1.026-.411-1.113,0M95.862,43.035l-.01,0q-1.774-.346-3.552-.695-.411-2.661-.822-5.326a27.868,27.868,0,0,0,5.46.12q-.546,2.947-1.076,5.9" transform="translate(211.534 41.78)" fill="#231c20"/>
          <path id="Trazado_1274185" data-name="Trazado 1274185" d="M107.585,20.011q-.967,6.881-2.382,13.686t-3.264,13.482q-1.047,3.789-2.239,7.535c-.14.434.962.511,1.073.157q2.1-6.621,3.772-13.368,1.684-6.806,2.917-13.719.692-3.874,1.24-7.772c.05-.371-1.056-.418-1.116,0" transform="translate(233.395 46.159)" fill="#231c20"/>
          <path id="Trazado_1274186" data-name="Trazado 1274186" d="M86.448,52.2c-1.026,1.447-2.031,2.91-3.084,4.337a9.114,9.114,0,0,1-3.254,3.007c-.187.09-.16.257,0,.354a.813.813,0,0,0,.688,0,9.465,9.465,0,0,0,3.371-3.051c1.113-1.477,2.152-3.007,3.221-4.514.194-.277-.745-.411-.942-.134" transform="translate(187.252 121.849)" fill="#e06f63"/>
          <path id="Trazado_1274187" data-name="Trazado 1274187" d="M87.05,54.133A13.973,13.973,0,0,1,80.645,58.5c-.16.05-.324.18-.177.341a.75.75,0,0,0,.668.09,14.685,14.685,0,0,0,6.756-4.547c.294-.351-.642-.495-.842-.251" transform="translate(188.263 126.455)" fill="#e06f63"/>
          <path id="Trazado_1274188" data-name="Trazado 1274188" d="M88.15,54.842c-1.443,2.189-3.963,3.191-6.315,4.083-.157.06-.331.177-.177.341a.741.741,0,0,0,.668.09c2.529-.959,5.216-2.028,6.766-4.38.187-.291-.755-.418-.942-.134" transform="translate(191.043 128.026)" fill="#e06f63"/>
          <path id="Trazado_1274189" data-name="Trazado 1274189" d="M89.168,55a10.061,10.061,0,0,1-6.054,4.444c-.167.043-.321.187-.177.341a.76.76,0,0,0,.668.09,10.83,10.83,0,0,0,6.505-4.741c.184-.3-.765-.421-.942-.134" transform="translate(194.044 128.398)" fill="#e06f63"/>
          <path id="Trazado_1274190" data-name="Trazado 1274190" d="M74.854,57.716a72.982,72.982,0,0,0,1.884,18.12,5.046,5.046,0,0,0,1.884,3.355,1.293,1.293,0,0,0,.835.217c1.57-.231.875-2.556.732-3.518-.314-2.095-.2-4.193-.688-6.282a60.762,60.762,0,0,0,3.024,9.379c.531,1.283,2.2,2.9,3.2,1.006a3.381,3.381,0,0,0,.324-1.45,13.523,13.523,0,0,0-.982-4.718q.667,1.689,1.34,3.381a6.923,6.923,0,0,0,.982,1.874c.608.735,2.386,1.654,2.82.264a2.778,2.778,0,0,0-.04-1.383,54.6,54.6,0,0,0-1.921-7l1.995,4.531a2.622,2.622,0,0,0,.969,1.33c2.723,1.534,1.48-5.76,1.293-6.642q-.857-4.1-1.721-8.213c-.13-.618-1.079-4.915-.037-5,.257-.02.438.244.558.474l2.646,5.092c.732,1.407,1.624,2.95,3.151,3.371a2.059,2.059,0,0,0,1.611-.164,2.007,2.007,0,0,0,.869-1.517c.17-1.684-1.046-3.368-1.664-4.855a67.558,67.558,0,0,1-2.469-6.946,9.779,9.779,0,0,0-1.042-2.62,9.792,9.792,0,0,0-1.871-1.694,33.742,33.742,0,0,1-4.15-4.611,8.151,8.151,0,0,0-5.373-2.683,4.381,4.381,0,0,0-2.987,1.323,12.373,12.373,0,0,0-1.971,2.7c-2.473,4.157-3.117,8.106-3.2,12.877" transform="translate(175.226 95.568)" fill="#ffa87d"/>
          <path id="Trazado_1274191" data-name="Trazado 1274191" d="M81.159,55.251A76.624,76.624,0,0,1,79.111,47.5c-.077-.358-1.042-.3-.979,0a78.16,78.16,0,0,0,2.085,7.882c.1.3,1.063.241.942-.134" transform="translate(182.921 110.633)" fill="#e06f63"/>
          <path id="Trazado_1274192" data-name="Trazado 1274192" d="M80.61,56.843a64.148,64.148,0,0,1-2.777-8.751c-.087-.358-1.049-.3-.976,0a65.137,65.137,0,0,0,2.81,8.884c.12.3,1.083.224.942-.134" transform="translate(179.935 112.021)" fill="#e06f63"/>
          <path id="Trazado_1274193" data-name="Trazado 1274193" d="M76.81,48.437c-.04-.2-.311-.251-.488-.251-.107,0-.528.053-.488.251l.728,3.625c.04.207.311.251.488.251.107,0,.525-.053.488-.251Z" transform="translate(177.541 112.816)" fill="#e06f63"/>
          <path id="Trazado_1274194" data-name="Trazado 1274194" d="M77.792,42.012a.647.647,0,0,0-.6.174,11.411,11.411,0,0,0-2.1,4.507c-.067.3.9.358.976,0a11.117,11.117,0,0,1,2.065-4.374c.134-.174-.241-.294-.341-.307" transform="translate(175.803 98.337)" fill="#e06f63"/>
        </g>
      </g>
    </g>
  </g>
</svg>
