<svg xmlns="http://www.w3.org/2000/svg" xmlns:xlink="http://www.w3.org/1999/xlink" width="96" height="96" viewBox="0 0 96 96">
  <defs>
    <clipPath id="clip-path">
      <rect id="Rectángulo_455595" data-name="Rectángulo 455595" width="96" height="96" fill="none"/>
    </clipPath>
    <clipPath id="clip-path-2">
      <rect id="Rectángulo_460753" data-name="Rectángulo 460753" width="45.689" height="54.622" fill="#fff"/>
    </clipPath>
  </defs>
  <g id="Grupo_1210264" data-name="Grupo 1210264" transform="translate(-735.746 -9118)">
    <g id="Grupo_1180407" data-name="Grupo 1180407" transform="translate(735.746 9117.971)">
      <g id="Grupo_1179172" data-name="Grupo 1179172" transform="translate(0 0.03)" clip-path="url(#clip-path)">
        <path id="Trazado_998483" data-name="Trazado 998483" d="M92.261,52.319A39.942,39.942,0,1,1,52.319,12.377,39.942,39.942,0,0,1,92.261,52.319" transform="translate(-4.304 -4.333)" fill="#8d1939"/>
        <path id="Trazado_998485" data-name="Trazado 998485" d="M90.566,46.284A44.283,44.283,0,1,1,46.284,2,44.283,44.283,0,0,1,90.566,46.284Z" transform="translate(1.731 1.702)" fill="none" stroke="#8d1939" stroke-miterlimit="10" stroke-width="4"/>
      </g>
    </g>
    <g id="Grupo_1180408" data-name="Grupo 1180408" transform="translate(755.746 9137)">
      <g id="Grupo_1099618" data-name="Grupo 1099618" transform="translate(-0.289 0.057)">
        <rect id="Rectángulo_401104" data-name="Rectángulo 401104" width="56.349" height="57.028" transform="translate(0)" fill="none"/>
      </g>
      <g id="Grupo_1211305" data-name="Grupo 1211305" transform="translate(5.041 0.057)">
        <g id="Grupo_1211304" data-name="Grupo 1211304" clip-path="url(#clip-path-2)">
          <path id="Trazado_1274068" data-name="Trazado 1274068" d="M11.176,1.919V3.748c3.7-.623,3.514,2.349,0,1.827l.073,1.674c.225.318,1.624-.147,1.721.929.057.633-.73,1.049-1.3.889L12,9.982l1,.083c-.273-1.4,1.243-2.821,2.574-2.828,1.034-.005,3.048,1.116,4.239,1.416a13.243,13.243,0,0,0,5.2.279.884.884,0,0,1,.355,1.615c-1.147.714-4.526.231-5.855-.1-.993-.245-3.148-1.34-3.781-1.381a.878.878,0,0,0-.918.563,31.731,31.731,0,0,0-.157,5.841,8.232,8.232,0,0,0,16.46.157,33.813,33.813,0,0,0-.037-5.611c-.424-2.385-3.245,1.013-3.617-1.043-.174-.962.889-1.266,1.661-1.488,1.956-.563,3.719.441,3.656,2.578l1.829.165V7.82A9.913,9.913,0,0,0,32.946,4.5C29.245.038,22.37,2.686,17.419,1.908A.913.913,0,0,1,17.4.082C21.924.546,27.917-1.012,31.939,1.35a9.25,9.25,0,0,1,4.5,8.963,7.925,7.925,0,0,0-.009,1.837,4.484,4.484,0,0,1-3.794,5.082c.15,1.168-.926,2.341-1.151,3.268-.122.5.285.794.311,1.282.029.549-.3,1.249-.341,1.831a14.372,14.372,0,0,0,.33,4.568h5.07c3.367,0,7.3,3.789,8.23,6.9.79,2.627.728,9.577.5,12.475-.563,7.23-7.728,7.407-13.394,6.9-1.367-.123-1.5-1.072-.456-1.8,3.676-.459,8.23,1.235,10.848-2.117a6.161,6.161,0,0,0,1.166-4.4,31.341,31.341,0,0,0-14.462.411c-1,.277-4.465,1.437-5.055,2.093a5.49,5.49,0,0,0-.428.736v3.241h4.737c.719,0,1.105,1.612,0,1.825l-14.631.011a2.111,2.111,0,0,1-1.894-1.768c-.013-.4.267-.72.258-.984s-.3-.482-.264-.976c.051-.644.287-2.113.264-2.68-.01-.261-.311-.488-.266-.98a1.936,1.936,0,0,1,2.16-1.6c-.139-1.118-.753-1.988.078-3a3.214,3.214,0,0,1,.836-.66h3.324c.1,0,.342.267.582.165L10.267,30a8.211,8.211,0,0,0-8.231,7.578c-.071.85.185,3.175-.085,3.738a.931.931,0,0,1-1.735-.427c-.908-5.74,2.125-11.027,7.8-12.461.557-.141,1.434-.109,1.878-.245.114-.035.5-.715.782-.919a5.222,5.222,0,0,1,3.661-.576c-.037-1.018.059-2.054,0-3.072-.034-.581-.37-1.279-.341-1.831.026-.489.431-.777.31-1.282-.074-.31-.493-.827-.633-1.21-.161-.437-.426-1.672-.585-1.908s-1.38-.588-1.8-.864a4.491,4.491,0,0,1-1.9-4.5c.114-.557.765-1.037.8-1.374S9.421,8.4,9.349,7.652c-.218-2.246.136-4.836.026-7.119A.559.559,0,0,1,9.719.213,18.355,18.355,0,0,1,14.176.165c1.029.338.251,1.754-.092,1.754ZM13,11.892c-2.956-.674-2.052,3.109,0,3.324Zm19.78,3.324c1.423-.051,2.446-2.17,1.5-3.242l-1.5-.082ZM29.79,22.7A10,10,0,0,1,16,22.7a15.73,15.73,0,0,1-.156,5.711c.205.627,5.246,1.531,6.138,1.437a3.218,3.218,0,0,1,1.106-2.966c1.088-.733,2.6-.463,3.884-.77a11.984,11.984,0,0,0,2.619-1.12Zm0,4.322a29.244,29.244,0,0,1-2.819.919c-1.378.281-3.6-.209-3.164,1.906a18.6,18.6,0,0,0,5.985-1.249Zm-9.64,20.028c-.267,1.606.2,3.884,0,5.568H21.98V49.207c0-2,3.211-3.2,4.734-3.743A32.077,32.077,0,0,1,43.754,44.3V37.24c0-2.3-2.335-5.282-4.343-6.295s-6-1.261-8.2-.925c-.814.124-2.151.8-3.114,1.041a21.88,21.88,0,0,1-9.943.113l6.356,8.353.13.532a1.053,1.053,0,0,1-1.385.725l-9.623-12.4-1.794.3,10.3,14.376a38.941,38.941,0,0,1,12.306-2.743c-.232-.831-1.359-2.888.143-3.072,1.216-.148,1.257,2.071,1.708,2.884,1.462.067,3.087-.007,4.533.2,1.223.178,1.87,1.234.509,1.81a39.958,39.958,0,0,0-16.692,1.924c-1.4.489-4.225,1.354-4.5,2.984m-1.828,5.568V46.88a7.244,7.244,0,0,1,1.152-2.3,3.339,3.339,0,0,0-1.235-.938H15.663c-.135,2.359,3.4,1.043,2.509,3.258l-1.331.495c.485,1.537.7,3.238,1.2,4.76.057.176.041.5.283.463m-1.995,0c-.655-1.271-.713-4.114-1.358-5.208a.456.456,0,0,0-.55-.287l-.415.257c.728.64,0,1.2,0,1.663,0,.285.3.542.325.843.03.408-.325.674-.325.985,0,.487.7,1.013-.009,1.745Z" transform="translate(-0.047 0)" fill="#fff"/>
          <path id="Trazado_1274069" data-name="Trazado 1274069" d="M8.3,230.373a.98.98,0,0,1,1.211-.713c.665.1.587.657.625,1.205.317,4.626-.239,9.626-.023,14.292-.182,1.3-1.813.7-1.813.009v-8.228H1.987v8.394c0,.622-1.589,1.058-1.819-.342a63.657,63.657,0,0,1-.018-8.975c.036-.27.381-.905.59-.905H8.3c.2-1.359-.266-3.481,0-4.737" transform="translate(0 -191.472)" fill="#fff"/>
          <path id="Trazado_1274070" data-name="Trazado 1274070" d="M120.078,92.332c.979.026,3.069.533,3.008,1.745-.084,1.66-2.544-.094-3.59-.094-1.336,0-2.175,1.159-3.34.692-1.035-1.6,1.559-2.3,2.758-2.343.253-.219-.978-1.106-1.075-1.331-.331-.768.722-3.171,1.529-3.295,2.045.35.464,1.728.4,2.414-.027.3.6.61.638,1.145.029.456-.34.652-.331,1.067" transform="translate(-96.649 -73.128)" fill="#fff"/>
          <path id="Trazado_1274071" data-name="Trazado 1274071" d="M99.639,22.575c.662-.194,2.7.684,3.64.779,2.742.274,3.785-.332,6.169-.771.973-.179,1.795.25,1.29,1.291-.313.645-3.693,1.28-4.481,1.336-1.549.109-5.531-.147-6.8-1.024a.9.9,0,0,1,.184-1.61" transform="translate(-82.573 -18.796)" fill="#fff"/>
          <path id="Trazado_1274072" data-name="Trazado 1274072" d="M99.822,71.484c1.1,1.1-1.483,2.329-2.388,2.434-1.218.142-4.627-.71-3.568-2.364.561-.877,1.606.255,2.053.425,1.707.65,3.058-1.336,3.9-.5" transform="translate(-78.097 -59.386)" fill="#fff"/>
          <path id="Trazado_1274073" data-name="Trazado 1274073" d="M149.079,71.509c1.083,1.083-1.306,2.314-2.218,2.438a4.649,4.649,0,0,1-3.48-.978c-.61-.569-.57-1.607.352-1.66,1.075-.062,1.543,1.256,3.233.749.55-.165,1.363-1.3,2.113-.549" transform="translate(-119.209 -59.411)" fill="#fff"/>
        </g>
      </g>
    </g>
  </g>
</svg>
