<svg xmlns="http://www.w3.org/2000/svg" xmlns:xlink="http://www.w3.org/1999/xlink" width="96" height="96" viewBox="0 0 96 96">
  <defs>
    <clipPath id="clip-path">
      <rect id="Rectángulo_455595" data-name="Rectángulo 455595" width="96" height="96" fill="none"/>
    </clipPath>
    <clipPath id="clip-path-2">
      <rect id="Rectángulo_460784" data-name="Rectángulo 460784" width="49.348" height="53.996" fill="#fff"/>
    </clipPath>
  </defs>
  <g id="Grupo_1210442" data-name="Grupo 1210442" transform="translate(-735.746 -9118)">
    <g id="Grupo_1180407" data-name="Grupo 1180407" transform="translate(735.746 9117.971)">
      <g id="Grupo_1179172" data-name="Grupo 1179172" transform="translate(0 0.03)" clip-path="url(#clip-path)">
        <path id="Trazado_998483" data-name="Trazado 998483" d="M92.261,52.319A39.942,39.942,0,1,1,52.319,12.377,39.942,39.942,0,0,1,92.261,52.319" transform="translate(-4.304 -4.333)" fill="#8d1939"/>
        <path id="Trazado_998485" data-name="Trazado 998485" d="M90.566,46.284A44.283,44.283,0,1,1,46.284,2,44.283,44.283,0,0,1,90.566,46.284Z" transform="translate(1.731 1.702)" fill="none" stroke="#8d1939" stroke-miterlimit="10" stroke-width="4"/>
      </g>
    </g>
    <g id="Grupo_1180408" data-name="Grupo 1180408" transform="translate(755.746 9137)">
      <g id="Grupo_1099618" data-name="Grupo 1099618" transform="translate(-0.289 0.127)">
        <rect id="Rectángulo_401104" data-name="Rectángulo 401104" width="56.349" height="57.028" transform="translate(0)" fill="none"/>
      </g>
      <g id="Grupo_1211367" data-name="Grupo 1211367" transform="translate(3.711 2.127)">
        <g id="Grupo_1211366" data-name="Grupo 1211366" clip-path="url(#clip-path-2)">
          <path id="Trazado_1274402" data-name="Trazado 1274402" d="M27.762,30.6h6.173c.9-1,2.506-1.757,3.206-2.885.986-1.588-.2-4.748,2.6-5.146,3.5-.5,3.721,3.8,3.167,6.22H46.94a7.356,7.356,0,0,1,.961.356,2.751,2.751,0,0,1,1.072,3.817c-.177.3-.718.644-.761.868-.063.322.359,1.042.257,1.748-.149,1.025-1.253,1.736-1.264,1.85a3.044,3.044,0,0,1,.3.67,2.977,2.977,0,0,1-.414,2.2c-.167.252-.655.557-.7.774s.259.665.291.985a2.893,2.893,0,0,1-2.877,3.024c-1.984.2-7.6.2-9.39-.319-.663-.193-2.789-1.49-2.955-1.49H17.72c-.044.121.165.2.165.247v2.963c0,3.081-3.872,6.6-6.744,7.249C1.5,55.92-4.026,43.849,3.529,37.726c.312-1.359-.378-5.753.215-6.7A1.621,1.621,0,0,1,4.3,30.6H8.995V16.524c0-.1-1-1.2-1.221-1.577C5,10.3,5.9,1.48,12.042.146c4.636.338,9.926-.46,14.483,0,2.724.275,4.566,2.992,5.268,5.432,1.261,4.38.247,9.964-4.032,12.263ZM16.4,16.277H26.527a3.59,3.59,0,0,0,1.4-.739c3.295-2.542,3.385-9.792.41-12.594a8.122,8.122,0,0,0-1.646-.988H16.4a11.685,11.685,0,0,1,0,14.322M11.628,2.12c-1.894.441-3.637,4.1-3.474,5.844.035.374.937.484.815,1.279-.314.807-.855.447-.781,1.495.138,1.964,1.522,4.616,3.441,5.373-.446-1.22,1.185-2.289,1.73-1.152.169.352-.094,1.317.326,1.151a12.462,12.462,0,0,0,1.236-.9c1.335-1.295,1.836-3.4,2.142-5.179-1.293-.194-1.278-1.634,0-1.82-.4-2.307-1.141-5.249-3.621-6.085.338,2.157-2.092,2.17-1.813,0M25.951,18.088H11.876c-.2,0-.756-.387-1.07-.329V30.6H25.951ZM35.5,34.219a9.85,9.85,0,0,0,2.723-.156c2.307-.808,3.433-6.694,3.033-8.811-.122-.645-1.264-1.247-1.655-.634-.282.442-.107,1.705-.226,2.366-.413,2.3-2.587,3.47-4.182,4.877Zm7.16-1.81a33.531,33.531,0,0,0,4.28,0c.56,0,.945-1.3.04-1.686a13.582,13.582,0,0,0-4.195,0c-.764.321-.681,1.53-.125,1.686m-33.665,0H5.373v4.28a13.174,13.174,0,0,1,3.622-.658Zm6.914,0h-5.1V36.2a16.153,16.153,0,0,1,3.785,1.646Zm6.256,9.054L19.946,32.57,17.82,32.4l-1.755,6.849,1.243,2.215Zm3.786-9.054H21.835l2.157,9.037,1.959.017Zm1.811,0v9.054h2.469l-1.316-9.055Zm5.6,0H30.725l1.519,9.345c.28.1,3.446,1.826,3.422,1.271Zm8.678,1.846a.961.961,0,0,0-.764.871,1.124,1.124,0,0,0,.6.873,25.5,25.5,0,0,0,3.909.021.888.888,0,0,0,.14-1.765,21.277,21.277,0,0,0-3.88,0m-3.085,5.879c.089-.118-.815-1.49.032-2.841.353-.563,1.153-.777.544-1.59-.173-.231-.193-.148-.409-.1a6.849,6.849,0,0,1-3.126.424l1.561,7.08.247.163a2.884,2.884,0,0,1,.659-2.887,1.146,1.146,0,0,1,.491-.253M13.876,50.3c6.908-6.354-2.946-17.135-9.906-10.482C-2.8,46.281,6.934,56.678,13.876,50.3M40.642,38.046a1.006,1.006,0,0,0,.541,1.6,25.229,25.229,0,0,0,3.778,0,.906.906,0,0,0-.007-1.8c-.582-.089-4.028-.092-4.312.193M40.06,41.5a.9.9,0,0,0,.165,1.741,20.952,20.952,0,0,0,3.741.025.906.906,0,0,0,.171-1.8,28.307,28.307,0,0,0-4.077.031" transform="translate(0 0.001)" fill="#fff"/>
          <path id="Trazado_1274403" data-name="Trazado 1274403" d="M76.64,121.156c2.338-2.044,2.2,3.709,1.2,4.008a1.213,1.213,0,0,1-1.2-.386Z" transform="translate(-64.024 -100.845)" fill="#fff"/>
          <path id="Trazado_1274404" data-name="Trazado 1274404" d="M76.926,158.952c1.793-.31,1.472,3.391-.289,2.525-.474-.233-.67-2.359.289-2.525" transform="translate(-63.692 -132.77)" fill="#fff"/>
          <path id="Trazado_1274405" data-name="Trazado 1274405" d="M131.9,69.241a1.028,1.028,0,0,1-1.572-.407c-.251-.872-.127-3.8,1.345-2.829.6.391.6,2.868.227,3.235" transform="translate(-108.789 -54.978)" fill="#fff"/>
          <path id="Trazado_1274406" data-name="Trazado 1274406" d="M131.018,27.991c1.508-.228,1.386,3.486.286,3.6-1.495.153-1.452-3.422-.286-3.6" transform="translate(-108.733 -23.375)" fill="#fff"/>
          <path id="Trazado_1274407" data-name="Trazado 1274407" d="M152.72,44.762a1.708,1.708,0,0,1,1.046.053c.486.286.539,2.853-.074,3.221-1.94,1.162-1.639-3.045-.971-3.274" transform="translate(-127.155 -37.346)" fill="#fff"/>
          <path id="Trazado_1274408" data-name="Trazado 1274408" d="M34.548,247.5c.534-.057,1.591-.022,1.78.607a24.854,24.854,0,0,1-.054,4.327c-.35.794-1.625.4-1.725.5.048.84.125,1.687-.9,1.82a21.905,21.905,0,0,1-3.887-.081c-.677-.223-.665-1.15-.648-1.74-.414.012-1.333.069-1.567-.326a32.374,32.374,0,0,1-.053-4.666c.174-.516,1.181-.457,1.62-.437a1.742,1.742,0,0,1,.564-1.658,14.675,14.675,0,0,1,4.217-.079c.838.255.658,1.037.65,1.737m-1.809,0H30.927l-.16,1.569-1.651.242v1.812l1.608.2.2,1.608h1.812c-.179-1.423.388-1.99,1.811-1.811V249.3c-1.478.224-1.957-.37-1.811-1.811" transform="translate(-22.92 -205.207)" fill="#fff"/>
          <path id="Trazado_1274409" data-name="Trazado 1274409" d="M60.983,37.87c-1.784-1.647-1.63-6.787,1.006-7.523,2.9-.809,3.549,3.731,2.973,5.773-.523,1.854-2.275,3.323-3.979,1.75M62.489,32a3.555,3.555,0,0,0,0,4.768,3.469,3.469,0,0,0,0-4.768" transform="translate(-49.955 -25.271)" fill="#fff"/>
        </g>
      </g>
    </g>
  </g>
</svg>
