<svg xmlns="http://www.w3.org/2000/svg" xmlns:xlink="http://www.w3.org/1999/xlink" width="96" height="96" viewBox="0 0 96 96">
  <defs>
    <clipPath id="clip-path">
      <rect id="Rectángulo_455595" data-name="Rectángulo 455595" width="96" height="96" fill="none"/>
    </clipPath>
    <clipPath id="clip-path-2">
      <rect id="Rectángulo_460777" data-name="Rectángulo 460777" width="50.822" height="57.028" fill="#fff" stroke="#fff" stroke-width="0.5"/>
    </clipPath>
  </defs>
  <g id="Grupo_1210382" data-name="Grupo 1210382" transform="translate(-735.746 -9118)">
    <g id="Grupo_1180407" data-name="Grupo 1180407" transform="translate(735.746 9117.971)">
      <g id="Grupo_1179172" data-name="Grupo 1179172" transform="translate(0 0.03)" clip-path="url(#clip-path)">
        <path id="Trazado_998483" data-name="Trazado 998483" d="M92.562,52.469A40.092,40.092,0,1,1,52.469,12.377,40.093,40.093,0,0,1,92.562,52.469" transform="translate(-4.455 -4.484)" fill="#8d1939"/>
        <path id="Trazado_998485" data-name="Trazado 998485" d="M90.9,46.451A44.45,44.45,0,1,1,46.451,2,44.45,44.45,0,0,1,90.9,46.451Z" transform="translate(1.564 1.535)" fill="none" stroke="#8d1939" stroke-miterlimit="10" stroke-width="4"/>
      </g>
    </g>
    <g id="Grupo_1180408" data-name="Grupo 1180408" transform="translate(755.746 9137)">
      <g id="Grupo_1099618" data-name="Grupo 1099618" transform="translate(-0.035 -0.465)">
        <rect id="Rectángulo_401104" data-name="Rectángulo 401104" width="56.349" height="57.028" transform="translate(0)" fill="none"/>
      </g>
      <g id="Grupo_1211352" data-name="Grupo 1211352" transform="translate(2.965 -0.464)">
        <g id="Grupo_1211351" data-name="Grupo 1211351" clip-path="url(#clip-path-2)">
          <path id="Trazado_1274332" data-name="Trazado 1274332" d="M50.772,25.139A6.392,6.392,0,0,1,49.428,28.6c-1.568,1.435-3.757.519-5.541.434-9.013-.432-15.356,4.993-23.473,7.7-1.64.547-4.8,1.927-5.587-.368L10.64,14.191c-.068-1.055,1.128-4.912,1.577-6.047.257-.649,1.937-2.677.791-2.967-.721-.183-1.82,1.771-2.45,2.3-1.486,1.257-1.922.554-3.449.863-.922.187-2.1,1.912-2.444.127-.058-.066-.808.856-1.411-.327-.967-1.9.093-4.749-.732-6.731l-.5-.071a14.312,14.312,0,0,0-.481,1.926,16.339,16.339,0,0,0,.264,6c.892,2.412,4.976,4.153,5.344,6.6.393,2.613-.055,6.785,0,9.615.1,4.621.062,16.862,2.588,20.465.386.551,1.433,1.425,2.137,1.347.119-.013.111-.452.33-.682.376-.4,1.636-.805,1.4.068-.1.378-.605.292-.641.6,7.18-.014,14.1-2.582,21.06-4.063a11.371,11.371,0,0,1,2.986-.414l-.646-.6-.012-.557,1.637.176.017.815h.5c.311-.691-1.012-2.337-.053-2.637,1.39-.435,1.458,2.4,1.379,3.215-.142,1.464-1.067,2.527-1.409,3.9-.856,3.425.779,6.2,2.374,9.079.079.5-.283.958-.8.805-.584-.172-1.9-2.95-2.179-3.635a10.23,10.23,0,0,1,.36-9.4c-7.5.837-14.792,3.933-22.306,4.642-2.379.224-5.275.543-6.95-1.506C6.117,43.685,5.926,32.921,5.821,28.463c-.392-3.714.566-8.676-.033-12.24-.335-2-4.306-3.927-5.23-6.379A16.482,16.482,0,0,1,.431,1.831C.725.743,1.321-.153,2.58.021,4.092.231,3.83,1.7,4.158,1.932c.371.257,1.125-.205,1.745.577C6.886,3.748,5.94,5.2,7.266,6.287c2.638,2.156,3.112-2,4.981-2.423a2.006,2.006,0,0,1,2.547,1.708c.085,1.216-1,2.275-1.413,3.4-.542,1.467-.949,3.326-1.353,4.857l3.993,21.512c.155,1.345.942.973,1.915.742,8.012-1.9,16.385-8.944,24.791-8.541,1.763.084,5.337,1.407,6.2-.6a14.008,14.008,0,0,0,.514-2.14V21.325c0-.559,1.327-.381,1.327,0,0,1.2.112,2.658,0,3.814M5,3.329c-.443-.017-.737-.076-.829.416a11.777,11.777,0,0,0,.5,4.561l1.491-1C4.974,6.261,5.2,4.759,5,3.329" transform="translate(0 0)" fill="#fff" stroke="#fff" stroke-width="0.5"/>
          <path id="Trazado_1274333" data-name="Trazado 1274333" d="M201.855,248.692a3.223,3.223,0,0,1-1.616-.157l.056-.66c.662-.664,2.39.289,1.561.817" transform="translate(-167.03 -206.577)" fill="#fff" stroke="#fff" stroke-width="0.5"/>
          <path id="Trazado_1274334" data-name="Trazado 1274334" d="M182.432,247.9l-.008.791c-2.241.644-2.3-1.18.008-.791" transform="translate(-150.75 -206.744)" fill="#fff" stroke="#fff" stroke-width="0.5"/>
          <path id="Trazado_1274335" data-name="Trazado 1274335" d="M162.211,250.212l.007-.549,1.377-.406.394.555c-.031.43-1.428.639-1.777.4" transform="translate(-135.309 -207.92)" fill="#fff" stroke="#fff" stroke-width="0.5"/>
          <path id="Trazado_1274336" data-name="Trazado 1274336" d="M143.732,253.153c1.372-.226,1.469.756.077.916-1.221.14-1.164-.737-.077-.916" transform="translate(-119.205 -211.14)" fill="#fff" stroke="#fff" stroke-width="0.5"/>
          <path id="Trazado_1274337" data-name="Trazado 1274337" d="M126.161,258.106c-.411.113-1.66.645-1.766-.068-.087-.584,2.212-1.278,1.766.068" transform="translate(-103.762 -214.654)" fill="#fff" stroke="#fff" stroke-width="0.5"/>
          <path id="Trazado_1274338" data-name="Trazado 1274338" d="M106.412,263.555c.256-.234,1.616-.68,1.624.047-.2,1.019-2.486.739-1.624-.047" transform="translate(-88.602 -219.552)" fill="#fff" stroke="#fff" stroke-width="0.5"/>
          <path id="Trazado_1274339" data-name="Trazado 1274339" d="M90.064,270.1c.189-.026.368-.082.542.045.6.426-.422.989-.791,1.055-1.087.192-.871-.946.249-1.1" transform="translate(-74.325 -225.274)" fill="#fff" stroke="#fff" stroke-width="0.5"/>
        </g>
      </g>
    </g>
  </g>
</svg>
