<svg xmlns="http://www.w3.org/2000/svg" xmlns:xlink="http://www.w3.org/1999/xlink" width="85" height="85" viewBox="0 0 85 85">
  <defs>
    <clipPath id="clip-path">
      <rect id="Rectángulo_460779" data-name="Rectángulo 460779" width="32.136" height="75.619" fill="#8d1939"/>
    </clipPath>
  </defs>
  <g id="Grupo_1210393" data-name="Grupo 1210393" transform="translate(0 0.309)">
    <path id="Sustracción_110" data-name="Sustracción 110" d="M0,0H85V85H0Z" transform="translate(0 -0.309)" fill="#ffe19a"/>
    <g id="Grupo_1211356" data-name="Grupo 1211356" transform="translate(26 4.692)">
      <g id="Grupo_1211355" data-name="Grupo 1211355" clip-path="url(#clip-path)">
        <path id="Trazado_1274352" data-name="Trazado 1274352" d="M26.194,59.752a3.579,3.579,0,0,0-1.788-.166c-3.074.429-7.578,2.636-10.821,3.47a5.84,5.84,0,0,1-1.762.367c-2.481-.173-2.251-4.091-2.984-5.8l-1.911-.25a9.917,9.917,0,0,0,.224,2.047,127.024,127.024,0,0,1-.009,14.95c-.176,1.648-2.009,1.754-2.174-.211-.394-4.708.4-9.972-.019-14.7C4.439,53.617.645,49.158.217,42.972c-.684-9.9.513-20.549-.01-30.53A4.143,4.143,0,0,1,6.058,8.661C5.845,5.141,8.718,2.59,12.121,3.9a4.038,4.038,0,0,1,7.5-1.965c3.176-1.95,6.245.08,6.574,3.591a99.216,99.216,0,0,1,0,14.067c-.233,2.234-2.23,2.1-2.38,0l-.1-15.057c-.632-1.864-3.583-1.061-3.583.552V27.062a12.18,12.18,0,0,0,3.837-.817c.641-.371,1.443-1.961,2.338-2.641,1.869-1.421,5.139-1.924,5.712.988-.376,7.495.905,15.687-.776,23-.548,2.384-1.589,4.806-2.127,7.181-1.378,6.074-.079,13.32-.554,19.579a1.2,1.2,0,0,1-2.368.23ZM14.287,28.578l3.585-.853L17.955,3.8c-.341-1.3-1.556-2.116-2.794-1.3a3.453,3.453,0,0,0-.874,1.073ZM2.38,12.233V31.609l3.65-.9c-.705-3.924,2.711-5.085,2.413-.62l3.472-.747.217-.649c-.485-6.619.609-14.068,0-20.586C11.9,5.66,9.609,4.767,8.487,7.083c-.525,5.124.544,11.186-.041,16.2-.211,1.81-1.972,1.975-2.374.2l-.057-11.85a1.934,1.934,0,0,0-3.636.6M29.873,24.681c-5.264.264-3.4,6.3-3.671,9.859-.364,4.865-4.471,7-5.853,11.356l9.3-1.958ZM23.813,35.83c.347-2.092-.257-5.059,0-7.252L2.366,34.307,2.4,36.783l18.283,3.279c.356.048.516-.113.754-.328a17.678,17.678,0,0,0,2.373-3.9M19.7,42,2.379,39.185,2.6,44.6c.317.313,7.547-1.536,8.774-1.52a1.108,1.108,0,0,1,.588,2.114L3.245,46.764l.991,2.784,13.693-3.039A11.1,11.1,0,0,1,19.7,42m9.525,4.329-24.03,5.2c-.139.143,1.027,3.517,1.442,3.645L26.4,57.359ZM19.048,58.889l-7.791-.867.649,3.03Z" transform="translate(0 0)" fill="#8d1939"/>
      </g>
    </g>
  </g>
</svg>
