<svg xmlns="http://www.w3.org/2000/svg" xmlns:xlink="http://www.w3.org/1999/xlink" width="96" height="96" viewBox="0 0 96 96">
  <defs>
    <clipPath id="clip-path">
      <rect id="Rectángulo_455595" data-name="Rectángulo 455595" width="96" height="96" fill="none"/>
    </clipPath>
    <clipPath id="clip-path-2">
      <rect id="Rectángulo_460776" data-name="Rectángulo 460776" width="51.333" height="51.441" fill="#fff"/>
    </clipPath>
  </defs>
  <g id="Grupo_1210385" data-name="Grupo 1210385" transform="translate(-735.746 -9118)">
    <g id="Grupo_1180407" data-name="Grupo 1180407" transform="translate(735.746 9117.971)">
      <g id="Grupo_1179172" data-name="Grupo 1179172" transform="translate(0 0.03)" clip-path="url(#clip-path)">
        <path id="Trazado_998483" data-name="Trazado 998483" d="M92.562,52.469A40.092,40.092,0,1,1,52.469,12.377,40.093,40.093,0,0,1,92.562,52.469" transform="translate(-4.455 -4.484)" fill="#8d1939"/>
        <path id="Trazado_998485" data-name="Trazado 998485" d="M90.9,46.451A44.45,44.45,0,1,1,46.451,2,44.45,44.45,0,0,1,90.9,46.451Z" transform="translate(1.564 1.535)" fill="none" stroke="#8d1939" stroke-miterlimit="10" stroke-width="4"/>
      </g>
    </g>
    <g id="Grupo_1180408" data-name="Grupo 1180408" transform="translate(755.746 9137)">
      <g id="Grupo_1099618" data-name="Grupo 1099618" transform="translate(-0.035 -0.465)">
        <rect id="Rectángulo_401104" data-name="Rectángulo 401104" width="56.349" height="57.028" transform="translate(0)" fill="none"/>
      </g>
      <g id="Grupo_1211350" data-name="Grupo 1211350" transform="translate(2.965 2.535)">
        <g id="Grupo_1211349" data-name="Grupo 1211349" clip-path="url(#clip-path-2)">
          <path id="Trazado_1274331" data-name="Trazado 1274331" d="M42.98,30.311l.747,2.183c2.737-.062,6.619-.475,5.707,3.53a2.5,2.5,0,0,1,0,4.846,2.853,2.853,0,0,1-.229,2.483c-.155.233-.577.484-.627.7-.07.3.234,1.04.155,1.6-.37,2.623-2.993,2.272-5.005,2.269a3.583,3.583,0,0,1-3.309,3.364c-7.692-.377-15.835.487-23.474-.007a18.127,18.127,0,0,1-16.8-16.8C-.313,27.336.48,19.7.16,12.5a2.952,2.952,0,0,1,1.753-2.091C1.839,7.724,1.69,5.354,3.4,3.123,5.853-.08,9.536-.16,13.282.084a7.84,7.84,0,0,1,7.4,7.563,20.326,20.326,0,0,0,.026,2.761c.1.3,1.4.761,1.58,1.941l.006,15.1a1.927,1.927,0,0,0,1.687,1.687c3.639.438,8.146-.328,11.878-.01.92-.172,4.389-3.286,5.6-3.93a2.564,2.564,0,0,1,3.763,3.03c-.241.92-1.422,1.7-2.246,2.083M18.923,10.359v-3.3c0-1.579-1.725-3.81-3.1-4.531-1.771-.931-6.754-.992-8.591-.263C5.5,2.953,3.521,5.275,3.521,7.205v3.154ZM1.907,22.827a38.477,38.477,0,0,0,16.267-7.276c1.171-.914,4.314-3,1.121-3.584-5.19.375-11.036-.479-16.147,0-.272.026-1.241.2-1.241.519Zm0,9.535a42.006,42.006,0,0,0,18.776-6.381V15.786a40.457,40.457,0,0,1-18.776,8.8Zm37.112-3.229,2.643.088a14.4,14.4,0,0,0,1.748-1.2.858.858,0,0,0-.944-1.394c-.969.343-2.5,1.916-3.447,2.5M18.043,49.525a44.571,44.571,0,0,1,4.548-18.857c-.007-.322-.8-.632-1.092-.956a4.81,4.81,0,0,1-.818-1.6,48.641,48.641,0,0,1-8.176,3.7,50.572,50.572,0,0,0-3.367,9.174,26.991,26.991,0,0,0-.925,5.091c.064.328,1.292,1.055,1.664,1.272a15.562,15.562,0,0,0,8.167,2.176M30.8,30.748H24.5A41.547,41.547,0,0,0,19.8,49.525l1.914-.068A72.479,72.479,0,0,1,30.8,30.748m6.454,0H33.078a59.16,59.16,0,0,0-9.461,18.776H34.325a64.994,64.994,0,0,1,2.934-18.776m-1.32,18.776h4.914c.366,0,1.164-1.1,1.1-1.537-.417-4.919.546-10.74,0-15.552-.162-1.415-1.421-1.83-2.7-1.668l-.21.229a71.055,71.055,0,0,0-2.159,8.7,60.492,60.492,0,0,0-.8,6.239,22.856,22.856,0,0,1-.148,3.592M6.6,44.683a56.1,56.1,0,0,1,3.667-12.175,39.31,39.31,0,0,1-8.36,1.613A15.449,15.449,0,0,0,6.6,44.683m37.113-8.8h3.741c.576,0,.576-1.614,0-1.614H43.713Zm0,3.52h5.061c1.16,0,.855-1.76.293-1.76H43.713Zm3.594,1.614c-1.039-.175-2.5.129-3.594,0v1.76h3.594c.709,0,.838-1.619,0-1.76m-3.594,5.134h2.86c.176,0,.545-.692.518-.948a1.483,1.483,0,0,0-.518-.665h-2.86Z" transform="translate(0 0.001)" fill="#fff"/>
        </g>
      </g>
    </g>
  </g>
</svg>
