<svg xmlns="http://www.w3.org/2000/svg" xmlns:xlink="http://www.w3.org/1999/xlink" width="96" height="96" viewBox="0 0 96 96">
  <defs>
    <clipPath id="clip-path">
      <rect id="Rectángulo_455595" data-name="Rectángulo 455595" width="96" height="96" fill="none"/>
    </clipPath>
    <clipPath id="clip-path-2">
      <rect id="Rectángulo_460778" data-name="Rectángulo 460778" width="46.65" height="57.028" fill="#fff"/>
    </clipPath>
  </defs>
  <g id="Grupo_1210383" data-name="Grupo 1210383" transform="translate(-735.746 -9118)">
    <g id="Grupo_1180407" data-name="Grupo 1180407" transform="translate(735.746 9117.971)">
      <g id="Grupo_1179172" data-name="Grupo 1179172" transform="translate(0 0.03)" clip-path="url(#clip-path)">
        <path id="Trazado_998483" data-name="Trazado 998483" d="M92.562,52.469A40.092,40.092,0,1,1,52.469,12.377,40.093,40.093,0,0,1,92.562,52.469" transform="translate(-4.455 -4.484)" fill="#8d1939"/>
        <path id="Trazado_998485" data-name="Trazado 998485" d="M90.9,46.451A44.45,44.45,0,1,1,46.451,2,44.45,44.45,0,0,1,90.9,46.451Z" transform="translate(1.564 1.535)" fill="none" stroke="#8d1939" stroke-miterlimit="10" stroke-width="4"/>
      </g>
    </g>
    <g id="Grupo_1180408" data-name="Grupo 1180408" transform="translate(755.746 9137)">
      <g id="Grupo_1099618" data-name="Grupo 1099618" transform="translate(-0.035 -0.465)">
        <rect id="Rectángulo_401104" data-name="Rectángulo 401104" width="56.349" height="57.028" transform="translate(0)" fill="none"/>
      </g>
      <g id="Grupo_1211354" data-name="Grupo 1211354" transform="translate(4.965 -0.465)">
        <g id="Grupo_1211353" data-name="Grupo 1211353" clip-path="url(#clip-path-2)">
          <path id="Trazado_1274340" data-name="Trazado 1274340" d="M33.057,18.454c-1.461-1.3-2.9-3.207-4.42-4.591C22.427,8.206,13.784,3.218,5.323,2.148,4.406,2.032.461,2.035.167,1.582-.778-.418,2.9.016,4.14.091c8.853.533,18.725,6.017,25.2,11.851,1.718,1.547,3.618,4.075,5.363,5.368,1.791,1.327,4.307,1.527,5.4,3.91a57.45,57.45,0,0,1,2.543,8.6,4.138,4.138,0,0,1,.034.931c-.113,1.4-3.145,6.983-4,8.566C35.6,45.046,31.963,50.5,28.9,56.255c-.426.821-1.46,1.14-1.957.193l.077-.857c3.171-5.679,6.752-11.164,9.846-16.884.724-1.339,3.633-6.645,3.8-7.742a5.594,5.594,0,0,0-.035-1.56,54.47,54.47,0,0,0-2.375-7.546c-.929-1.629-3.737-2.11-5.2-3.406" transform="translate(-0.011 0)" fill="#fff"/>
          <path id="Trazado_1274341" data-name="Trazado 1274341" d="M15.881,149.716c-3.514,3.848-2.37,5.135-2.977,9.881a27.081,27.081,0,0,1-1.19,5.239,1.009,1.009,0,0,1-1.8-.555,44.483,44.483,0,0,0,1.4-7.486c.093-.894-.093-1.9.013-2.822.556-4.831,7.379-9.306,10.912-12.067-6.2-.074-12.9-.73-18.682-3.087C2.875,138.539.152,137.311,0,136.7c.159-2.25,2.863-.2,4.022.243a46.551,46.551,0,0,0,13.859,2.947c1.534.077,10.011-.256,10.556.175a1.014,1.014,0,0,1,0,1.456c-.485.383-1.535.077-2.2.225-1.9.422-8.838,6.314-10.352,7.972" transform="translate(0 -108.193)" fill="#fff"/>
          <path id="Trazado_1274342" data-name="Trazado 1274342" d="M69.818,99.5a.88.88,0,0,1,.652.076c.765.276,3.349,2.46,4.4,3.1a29.928,29.928,0,0,0,9.163,3.8c.8.146,3.215.178,3.657.393a.935.935,0,0,1-.5,1.731c-4.411.579-14.571-4.1-17.624-7.3-.6-.627-.689-1.542.247-1.793" transform="translate(-55.122 -79.322)" fill="#fff"/>
          <path id="Trazado_1274343" data-name="Trazado 1274343" d="M93.133,189.426a21.142,21.142,0,0,1-3.1,2.884.946.946,0,0,1-1.169-1.379c.287-.619,3.13-3.036,3.848-3.848a60.546,60.546,0,0,0,4.557-6.174c.469-.7,1.914-3.465,2.538-3.555,2.086-.3.62,2.042.174,2.825a54.171,54.171,0,0,1-6.851,9.246" transform="translate(-70.773 -141.422)" fill="#fff"/>
          <path id="Trazado_1274344" data-name="Trazado 1274344" d="M205.2,216.567c3.672-.535,4.431,5.107.945,5.614-3.979.579-4.524-5.092-.945-5.614m1.032,2.011c-1.067-.668-2.415,1.066-.975,1.7,1.21.531,1.508-1.364.975-1.7" transform="translate(-161.745 -172.687)" fill="#fff"/>
          <path id="Trazado_1274345" data-name="Trazado 1274345" d="M19.307,67.464a1.482,1.482,0,0,1,1.014.125,47.034,47.034,0,0,1,6.724,3.6c1.123.893.659,2.2-.643,1.868l-7.233-3.913a.957.957,0,0,1,.138-1.681" transform="translate(-14.94 -53.765)" fill="#fff"/>
          <path id="Trazado_1274346" data-name="Trazado 1274346" d="M21.038,193.6c.676.668-.225,1.64-.756,2.076,2.1,1.642.317,3.534-1.319,1.32-.467.572-1.462,1.581-2.145.724-.789-.991.633-1.533.633-2.044s-.951-.661-.823-1.607c.184-1.354,1.871-.491,2.334.288.187,0,1.11-1.71,2.076-.756" transform="translate(-13.222 -154.168)" fill="#fff"/>
          <path id="Trazado_1274347" data-name="Trazado 1274347" d="M145.4,12.362c1.1-.331,1.633.358,1.168,1.373a40.58,40.58,0,0,1-2.944,2.929c-.771.5-1.248.208-1.564-.63-.042-.468,2.92-3.546,3.34-3.673" transform="translate(-113.295 -9.792)" fill="#fff"/>
          <path id="Trazado_1274348" data-name="Trazado 1274348" d="M175.262,109.624c1.381-.2,1.3,2.486,1.033,3.273a.956.956,0,0,1-1.8-.36c-.1-.834-.267-2.765.768-2.913" transform="translate(-139.102 -87.419)" fill="#fff"/>
          <path id="Trazado_1274349" data-name="Trazado 1274349" d="M133.128,7.478c1.966-.581,1.815,4.492-.145,3.511-.608-.3-.7-3.262.145-3.511" transform="translate(-105.679 -5.927)" fill="#fff"/>
          <path id="Trazado_1274350" data-name="Trazado 1274350" d="M152.3,35.239c.613-.181,2.842-.237,3.063.508.521,1.758-2.509,1.457-3.426.99a1.05,1.05,0,0,1,0-1.255.763.763,0,0,1,.363-.243" transform="translate(-121.007 -28.012)" fill="#fff"/>
          <path id="Trazado_1274351" data-name="Trazado 1274351" d="M212.718,67.537c1.172-.272,1.672,1.777.281,1.9a.966.966,0,0,1-.281-1.9" transform="translate(-169.07 -53.842)" fill="#fff"/>
        </g>
      </g>
    </g>
  </g>
</svg>
