<svg xmlns="http://www.w3.org/2000/svg" xmlns:xlink="http://www.w3.org/1999/xlink" width="96" height="96" viewBox="0 0 96 96">
  <defs>
    <clipPath id="clip-path">
      <rect id="Rectángulo_455595" data-name="Rectángulo 455595" width="96" height="96" fill="none"/>
    </clipPath>
    <clipPath id="clip-path-2">
      <rect id="Rectángulo_460774" data-name="Rectángulo 460774" width="49.757" height="57.028" fill="#fff"/>
    </clipPath>
  </defs>
  <g id="Grupo_1210388" data-name="Grupo 1210388" transform="translate(-735.746 -9118)">
    <g id="Grupo_1180407" data-name="Grupo 1180407" transform="translate(735.746 9117.971)">
      <g id="Grupo_1179172" data-name="Grupo 1179172" transform="translate(0 0.03)" clip-path="url(#clip-path)">
        <path id="Trazado_998483" data-name="Trazado 998483" d="M92.562,52.469A40.092,40.092,0,1,1,52.469,12.377,40.093,40.093,0,0,1,92.562,52.469" transform="translate(-4.455 -4.484)" fill="#8d1939"/>
        <path id="Trazado_998485" data-name="Trazado 998485" d="M90.9,46.451A44.45,44.45,0,1,1,46.451,2,44.45,44.45,0,0,1,90.9,46.451Z" transform="translate(1.564 1.535)" fill="none" stroke="#8d1939" stroke-miterlimit="10" stroke-width="4"/>
      </g>
    </g>
    <g id="Grupo_1180408" data-name="Grupo 1180408" transform="translate(755.746 9137)">
      <g id="Grupo_1099618" data-name="Grupo 1099618" transform="translate(-0.035 -0.465)">
        <rect id="Rectángulo_401104" data-name="Rectángulo 401104" width="56.349" height="57.028" transform="translate(0)" fill="none"/>
      </g>
      <g id="Grupo_1211346" data-name="Grupo 1211346" transform="translate(3.965 -0.465)">
        <g id="Grupo_1211345" data-name="Grupo 1211345" clip-path="url(#clip-path-2)">
          <path id="Trazado_1274318" data-name="Trazado 1274318" d="M45.971,24.075c3.939-.82,3.923,3.167,3.714,5.989-.158,2.135-1.526,3.5-3.714,2.942v3.286a15.009,15.009,0,0,1-7.494,11.378l-1.931,9.359H13.1l-1.931-9.359C8.486,45.876,5.891,43.6,4.825,40.451a5.52,5.52,0,0,1-2.819-9.706c.555-.449,1.6-.7,1.681-1.353A8.676,8.676,0,0,0,3.6,27.271C3.549,27.2,2.4,26.629,2.1,26.4a5.512,5.512,0,0,1,2.72-9.775c1.067-3.152,3.662-5.425,6.346-7.219L12.976.264,13.219,0,36.546.052l1.931,9.359a15.494,15.494,0,0,1,6.654,7.837,15.421,15.421,0,0,1,.84,3.541ZM36.534,9.246l-1.5-7.34L14.735,1.855,13.11,9.16l1.84.07c.2-.17.73-4.408,1.027-5.123.067-.161.053-.346.276-.4l17.26.053L34.7,9.229Zm-19.714,0H32.827l-.676-3.706L17.589,5.533Zm-4.6,1.892a12.22,12.22,0,0,0-6.692,9.99A115.522,115.522,0,0,0,5.552,36.1a12.292,12.292,0,0,0,6.429,9.748l25.321.139c3.926-1.675,6.535-5.994,6.823-10.2A118.2,118.2,0,0,0,44.1,20.979c-.341-4.052-3-8.28-6.795-9.887ZM4.013,18.852a3.62,3.62,0,0,0-.42,6.4c.185-2.137-.06-4.293.42-6.4m42.754,6.935a1.435,1.435,0,0,0-.64.382,19.615,19.615,0,0,0-.164,4.233c.077.572.372.794.934.906,1.294,0,1.019-3.364.935-4.292-.055-.613-.275-1.35-1.065-1.229M4.013,38.228c-.48-2.108-.234-4.265-.42-6.4a3.62,3.62,0,0,0,.42,6.4m10.937,9.623-1.84.07,1.508,7.254,20.294.051,1.626-7.305-1.84-.07c-.2.17-.73,4.408-1.027,5.123-.067.161-.053.346-.276.4l-17.26-.053Zm17.878-.017H16.82l.676,3.706,14.563.008Z" transform="translate(0 -0.001)" fill="#fff"/>
          <path id="Trazado_1274319" data-name="Trazado 1274319" d="M68.412,75.92c6.336.391,13.614-.663,19.841-.038a4.575,4.575,0,0,1,3.969,3.951c.661,7.4-.514,15.765,0,23.267a4.54,4.54,0,0,1-4.129,3.959c-6.135.528-13.008-.412-19.222,0a4.566,4.566,0,0,1-4.128-3.96c-.665-7.448.512-15.877.006-23.429a4.659,4.659,0,0,1,3.664-3.75M66.6,79.671V90.539H90.362V79.671a3.1,3.1,0,0,0-2.271-1.941c-6.1.459-13.061-.6-19.053,0A2.928,2.928,0,0,0,66.6,79.671M90.362,92.392H66.6v10.868a3.1,3.1,0,0,0,2.271,1.941c6.1-.459,13.061.6,19.053,0a3.081,3.081,0,0,0,1.632-.679,8.212,8.212,0,0,0,.8-1.267Z" transform="translate(-53.659 -62.926)" fill="#fff"/>
          <path id="Trazado_1274320" data-name="Trazado 1274320" d="M43.811,132.588c-.815-.815.533-2.288,1.385-1.3.884,1.025-.678,2.007-1.385,1.3" transform="translate(-36.219 -108.891)" fill="#fff"/>
          <path id="Trazado_1274321" data-name="Trazado 1274321" d="M241.44,132.588c-.707.707-2.269-.276-1.385-1.3.852-.988,2.2.485,1.385,1.3" transform="translate(-199.385 -108.891)" fill="#fff"/>
          <path id="Trazado_1274322" data-name="Trazado 1274322" d="M43.873,154.494c-.707-.707.276-2.269,1.3-1.385.988.852-.485,2.2-1.3,1.385" transform="translate(-36.281 -127.09)" fill="#fff"/>
          <path id="Trazado_1274323" data-name="Trazado 1274323" d="M241.534,154.494c-.815.815-2.288-.533-1.3-1.385,1.025-.884,2.007.678,1.3,1.385" transform="translate(-199.48 -127.09)" fill="#fff"/>
          <path id="Trazado_1274324" data-name="Trazado 1274324" d="M43.873,174.866c.815-.815,2.288.533,1.3,1.385-1.025.884-2.007-.678-1.3-1.385" transform="translate(-36.281 -145.191)" fill="#fff"/>
          <path id="Trazado_1274325" data-name="Trazado 1274325" d="M241.534,174.866c.707.707-.276,2.269-1.3,1.385-.988-.852.485-2.2,1.3-1.385" transform="translate(-199.48 -145.191)" fill="#fff"/>
          <path id="Trazado_1274326" data-name="Trazado 1274326" d="M43.811,196.928c.707-.707,2.269.276,1.385,1.3-.852.988-2.2-.485-1.385-1.3" transform="translate(-36.219 -163.546)" fill="#fff"/>
          <path id="Trazado_1274327" data-name="Trazado 1274327" d="M241.44,196.928c.815.815-.533,2.288-1.385,1.3-.884-1.025.678-2.007,1.385-1.3" transform="translate(-199.385 -163.546)" fill="#fff"/>
          <path id="Trazado_1274328" data-name="Trazado 1274328" d="M93.714,189.474l2.193-4.717c.382-.071.268.021.373.214.966,1.767,1.611,4.166,2.491,6.019.4.094.271-.073.373-.219.692-1,1.156-2.18,1.9-3.15h6.824v1.854h-5.9l-3.286,5.557-2.614-5.894c-.393-.086-.269.053-.375.216a12.7,12.7,0,0,1-1.055,1.974H87.816v-1.854Z" transform="translate(-73.019 -153.605)" fill="#fff"/>
          <path id="Trazado_1274329" data-name="Trazado 1274329" d="M111.749,98.584a3.963,3.963,0,0,1,4.006,1.307c3.633-3.82,9.153.945,4.882,4.885-1.716,1.583-3.988,3.669-6.428,2.561a27.7,27.7,0,0,1-4.188-3.395c-1.364-1.853-.541-4.892,1.728-5.358m.333,1.851a1.594,1.594,0,0,0-.6,2.383,24.219,24.219,0,0,0,3.8,2.939,2.129,2.129,0,0,0,.939,0,28.969,28.969,0,0,0,3.661-2.743,1.635,1.635,0,0,0-2.022-2.527c-.5.224-1.622,1.941-2.109,1.941-1.368-.753-1.742-2.555-3.672-1.993" transform="translate(-90.931 -81.886)" fill="#fff"/>
        </g>
      </g>
    </g>
  </g>
</svg>
