<svg xmlns="http://www.w3.org/2000/svg" xmlns:xlink="http://www.w3.org/1999/xlink" width="187.711" height="119.699" viewBox="0 0 187.711 119.699">
  <defs>
    <clipPath id="clip-path">
      <rect id="Rectángulo_460780" data-name="Rectángulo 460780" width="95.448" height="94.116" fill="none"/>
    </clipPath>
  </defs>
  <g id="Grupo_1212907" data-name="Grupo 1212907" transform="translate(-289.711 -11457)">
    <g id="Grupo_1211359" data-name="Grupo 1211359" transform="translate(0 25)">
      <g id="Grupo_1210450" data-name="Grupo 1210450" transform="translate(0.434 2563.961)">
        <g id="Grupo_1204518" data-name="Grupo 1204518" transform="translate(289.277 8868.039)">
          <rect id="Rectángulo_455283" data-name="Rectángulo 455283" width="187.711" height="119.699" rx="19" fill="#e9c3ff"/>
        </g>
      </g>
      <g id="Grupo_1211358" data-name="Grupo 1211358" transform="translate(335.711 11445)">
        <g id="Grupo_1211357" data-name="Grupo 1211357" clip-path="url(#clip-path)">
          <path id="Trazado_1274353" data-name="Trazado 1274353" d="M19.3,93.794c-1.454-.417.619-1.441.675-1.538.375-.643-.008-12.837.052-14.87.153-5.178.035-10.182,2.62-14.809,4.385-7.849,12.79-9.148,20.1-12.986.718-2.471-1.853-3.26-3.2-4.99a17.267,17.267,0,0,1-2.128-3.78c-.38-.986-1.019-4.683-1.185-4.871A14.549,14.549,0,0,1,34.076,35c-1.978-1.46-2.244-3.7-1.9-6.028.123-.822.937-1.819.819-2.315s-1.353-2.276-1.689-3.07c-2.105-4.98-4-10.538,1.459-14.113,2.862-1.875,2.543-2,4.806-4.2C42.774.2,49.874-.359,56.815.152c4.962.365,11.319,2.113,12.95,7.433.242.788.069,1.665.352,2.306.2.456,1.337,1.211,1.749,1.8,1.92,2.723,1.162,8.7-.076,11.7-.3.723-1.749,2.93-1.778,3.244-.037.408.978,1.463,1.114,2.335.361,2.31.054,4.59-1.9,6.034a16.112,16.112,0,0,1-2.144.957c-.2.195-.628,3.232-.873,4a17.2,17.2,0,0,1-3.029,5.242c-.7.8-3.574,2.88-3.7,3.1a2.264,2.264,0,0,0-.168,1.282c5.237,2.9,12.088,4.206,16.563,8.312a19.921,19.921,0,0,1,6.2,12.854c.84-1,2.815-1.518,2.969-2.788.426-3.515-.363-7.875-.006-11.49-.08-.332-2.609-.8-2.946-3.022-.983-6.481,8.433-5.568,7.3-.05-.414,2.011-2.887,2.808-2.887,3.023V67.8c15.889-5.811,26.327,15.71,11.819,24.228.246.58,2.382.177,2.655.591.166.251-.141,1.178-.442,1.178ZM54.457,1.624c-1.166-.314-3.544.23-4.874,0,.225.739,1.028,2.965,1.618,2.978a14.988,14.988,0,0,0,3.858-1.788c.293-.446-.348-1.122-.6-1.191m-6.388.33c-.59-.375-3.587.909-4.372,1.172A20.044,20.044,0,0,0,45.189,7.2c.664.414,3.707-1.335,4.388-1.9-.374-.453-1.35-3.24-1.508-3.341M65.534,4.871c.126-.611-.3-.684-.68-.941-.9-.611-4.031-1.822-5-1.663L30.682,16.119l1.18,4.708ZM42.193,3.988c-.3-.23-3.69,2.329-3.788,2.849-.114.6,1.32,2.146,1.15,3.043,1.643.185,2.8-1.424,4.416-1.463.42-.469-1.788-3.6-1.778-4.428M58,19.054c1.055.328,3.616-.24,4.874,0L58.564,9.873a28.676,28.676,0,0,0-3.983,1.684c-.108.512,3.026,7.374,3.421,7.5m-6.795,0c1.055.328,3.616-.24,4.874,0l-3.131-6.522a11.346,11.346,0,0,0-3.935,1.989c-.129.44,1.885,4.438,2.191,4.533m-2.217-.3c.257-.264-1.207-3.385-1.669-3.52a5.7,5.7,0,0,0-2.759,1.309c-.2.433,1.5,1.213,1.861,1.384a5.94,5.94,0,0,0,2.567.827m16.1,1.774H48.844c-.883,0-4.819-2.292-5.157-2.057a5.952,5.952,0,0,1-2.23,3.237c-.861.629-3.45,1.3-3.561,1.461-.53.753-.048,13.63.354,15.338,2.489,10.551,16.192,13.932,23.595,5.953,4.931-5.316,3.565-12.116,3.506-18.712-.008-.887.681-4.928-.259-5.219m-28.8,6.2c-3.607.574-3.795,7.127,0,7.385ZM67.012,34.12c3.806-.313,3.619-6.773,0-7.385Zm-9.16,15.067a17.1,17.1,0,0,1-9.813.8c-1.313-.293-2.446-1.126-3.773-1.1-1.167,11.711,14.61,11.934,13.586.3m29.22,1.5c-1.192-.733-3.242-.1-3.512,1.31-.719,3.762,4.091,1.3,3.512-1.31M70.557,56.276A85.209,85.209,0,0,0,60.23,51.684a1.917,1.917,0,0,0-.9-.136c-.537,9.072-13.191,10.7-16.105,2.073-.216-.639.071-2.119-.829-2.028C36.006,54.7,28.438,56.111,24.415,62.57c-.709,1.138-2.6,5.4-2.6,6.556v6.351h9.749c.217,0-.806-4.061,1.476-3.251V92.318c4.427.006,8.868-.013,13.3,0,7.578.02,15.169-.015,22.747,0V72.672a.807.807,0,0,1,1.337-.155c.4.589-.035,2.79.139,2.963.3.3,7.869.131,8.371.01a14.375,14.375,0,0,0,1.7-3.414c.44-6.6-4.511-12.95-10.065-15.8m14.475,14.18a11.7,11.7,0,0,0-5.281,8.456C78.525,91.32,94.057,97.476,101.28,87.295c7.8-10.99-4.974-24.032-16.248-16.839M80.6,92.317V88.033c0-.129-1.08-1.567-1.323-2.222a15.162,15.162,0,0,1-1.054-6.653c.013-.466.611-2.2-.134-2.2H71a2.965,2.965,0,0,0-.443.443V92.317ZM31.562,77.251H21.813V92.317h9.749Zm53.47,15.063-2.951-2.36,0,2.365Z" transform="translate(-13.236 0)" fill="#0b0b0b"/>
          <path id="Trazado_1274354" data-name="Trazado 1274354" d="M4.737,121.015v5.908c.489.123.139-.51.484-.6.542-.137,1.882-.122,1.882.745s-1.336.884-1.882.745c-.346-.088,0-.721-.484-.6V135.2H11.68a2.992,2.992,0,0,1,.714.78c.092.3-.638.993-.714.993H4.885c-3.325,0-1.308-8.576-1.918-9.159-.118-.113-1.835.292-2.067-.444-.329-1.529,1.884-.855,2.067-1.03a32.408,32.408,0,0,0,.01-5.122c-.057-.238-1.638-.779-2.087-1.307-2.745-3.23,1.412-8.036,5.008-5.517a3.692,3.692,0,0,1-1.16,6.626m.186-5.5c-2.81-1.491-4.542,2.845-2.25,3.87a2.238,2.238,0,0,0,2.25-3.87" transform="translate(0 -80.101)" fill="#0b0b0b"/>
          <path id="Trazado_1274355" data-name="Trazado 1274355" d="M220.046,44.336c.259-.172.345-2.424,2.577-2.885,5.865-1.212,6.343,7.3,1.118,7.342-2.834.02-3.6-2.921-3.892-2.993-1.489-.363-9.179.524-9.719-.264-.227-.332-.111-.822-.129-1.2,1.4-.276,9.495.365,10.044,0m2.068,2.068c1.96,2.438,5.456-.939,2.954-2.954a2.089,2.089,0,0,0-2.954,2.954" transform="translate(-147.954 -29.123)" fill="#0b0b0b"/>
          <path id="Trazado_1274356" data-name="Trazado 1274356" d="M269.491,190.261a36.3,36.3,0,0,1,1.755,5.964,1.956,1.956,0,0,1-.7.8c-.793.179-2.459-5.1-2.5-5.789a.97.97,0,0,1,1.444-.97" transform="translate(-188.86 -133.954)" fill="#0b0b0b"/>
          <path id="Trazado_1274357" data-name="Trazado 1274357" d="M306.307,217.9a51.648,51.648,0,0,1-5.125,1.541c-1.243.1-1.9-.751-.795-1.41a37.256,37.256,0,0,1,5-1.524c1.241-.108,1.724.738.923,1.393" transform="translate(-211.251 -152.544)" fill="#0b0b0b"/>
          <path id="Trazado_1274358" data-name="Trazado 1274358" d="M288.368,204.642c-.313.19-1.019-.008-1.43.047-.406-.4,2.368-6.423,3.393-6.2,1.245.27-1.672,5.978-1.962,6.154" transform="translate(-202.144 -139.847)" fill="#0b0b0b"/>
          <path id="Trazado_1274359" data-name="Trazado 1274359" d="M298.678,313.753c-1.108-1.685,2.942-1.921,3.217-1,.479,1.609-2.858,1.543-3.217,1" transform="translate(-210.309 -219.986)" fill="#0b0b0b"/>
          <path id="Trazado_1274360" data-name="Trazado 1274360" d="M302.239,183.447c1.779-.556.864,3.045-.614,2.632-.974-.4.136-2.483.614-2.632" transform="translate(-212.248 -129.213)" fill="#0b0b0b"/>
          <path id="Trazado_1274361" data-name="Trazado 1274361" d="M.977,312.433c2.306-.679,1.781,2.167,0,1.675a.844.844,0,0,1,0-1.675" transform="translate(-0.166 -220.061)" fill="#0b0b0b"/>
          <path id="Trazado_1274362" data-name="Trazado 1274362" d="M11.8,313.736c-.407.583-2.936.3-1.91-1.172.653-.935,2.658.1,1.91,1.172" transform="translate(-6.798 -219.971)" fill="#0b0b0b"/>
          <path id="Trazado_1274363" data-name="Trazado 1274363" d="M314.52,313.761c-.364.514-2.59.232-1.619-1.175.686-.993,2.247.288,1.619,1.175" transform="translate(-220.294 -219.989)" fill="#0b0b0b"/>
          <path id="Trazado_1274364" data-name="Trazado 1274364" d="M53.554,215.228c-4.427-.012-8.868.007-13.3,0V195.139c-2.282-.811-1.258,3.251-1.476,3.251H29.035v-6.351c0-1.156,1.893-5.419,2.6-6.556,4.023-6.459,11.591-7.871,17.984-10.977.9-.091.613,1.389.829,2.028,2.915,8.63,15.568,7,16.106-2.073a1.917,1.917,0,0,1,.9.136,85.211,85.211,0,0,1,10.327,4.592c-.225,6.228-1.089,12.389-3.587,18.126-3.838,8.815-10.68,14.262-19.7,17.246-.488.161-1.123-.22-.941.668" transform="translate(-20.458 -122.911)" fill="#9fc0f8"/>
          <path id="Trazado_1274365" data-name="Trazado 1274365" d="M110.113,64.553c.94.291.251,4.333.259,5.22.059,6.6,1.426,13.4-3.506,18.712-7.4,7.979-21.106,4.6-23.595-5.953-.4-1.708-.884-14.585-.354-15.338.111-.157,2.7-.832,3.561-1.461a5.954,5.954,0,0,0,2.23-3.237c.338-.235,4.274,2.057,5.157,2.057Zm-17.282,6.5c.014-.552.134-1.234-.485-1.435-.652-.212-6.089-.074-6.309.257-.167.251.141,1.178.442,1.178Zm7.681,0h6.351c.3,0,.609-.927.442-1.178-.219-.331-5.657-.469-6.309-.257-.619.2-.5.884-.485,1.435m-9.82,4.065c1.37-1.369-.808-4.142-2.427-2.281-1.553,1.784,1.183,3.525,2.427,2.281m11.959,0c1.245,1.244,3.98-.5,2.427-2.281-1.62-1.861-3.8.912-2.427,2.281m-7.383,3.839c-.223-.245-.65-3.232-1.7-1.708-1.317,1.9,2.175,4.948,4.984,3.212,1.562-.965,1.946-3.982.342-3.5-.447.135-.414,2.14-1.914,2.54a2.719,2.719,0,0,1-1.707-.547m7.017,3.913H91.5c-1.023,0-.121,2.854.309,3.531,2.969,4.674,11.354,2.3,10.473-3.531" transform="translate(-58.258 -44.022)" fill="#fab199"/>
          <path id="Trazado_1274366" data-name="Trazado 1274366" d="M136.183,190.5c5.554,2.849,10.506,9.2,10.065,15.8a14.354,14.354,0,0,1-1.7,3.414c-.5.12-8.074.285-8.371-.01-.174-.173.265-2.374-.139-2.963a.807.807,0,0,0-1.337.155V226.54c-7.578-.015-15.169.02-22.747,0-.182-.888.453-.507.941-.668,9.016-2.984,15.858-8.432,19.7-17.246,2.5-5.737,3.362-11.9,3.587-18.126" transform="translate(-78.862 -134.223)" fill="#d4e4ff"/>
          <path id="Trazado_1274367" data-name="Trazado 1274367" d="M257.257,250.41c-1.142.105-2.235.528-3.386.6-1.282.08-2.442-.313-3.409-.3v-3.546c.8-.131,3.305.311,3.713-.275a20.831,20.831,0,0,0,0-5.355c-.409-.585-2.9-.144-3.713-.275-.131-.8.311-3.3-.275-3.713a18.582,18.582,0,0,0-5.06,0c-.586.408-.144,2.908-.275,3.713-.3.3-3.451-.607-3.842.589-.01-.035-.461-.15-.522-.5a13.445,13.445,0,0,1,.522-7.771c11.273-7.193,24.045,5.848,16.248,16.839" transform="translate(-169.213 -163.115)" fill="#ffcce2"/>
          <path id="Trazado_1274368" data-name="Trazado 1274368" d="M93.908,10.244,60.236,26.2l-1.18-4.707L88.225,7.64c.972-.159,4.1,1.052,5,1.663.38.257.806.331.68.941" transform="translate(-41.61 -5.373)" fill="#f5f5f5"/>
          <path id="Trazado_1274369" data-name="Trazado 1274369" d="M230.275,246.771c.358,1.206-.371,3.672.129,5.041.305.439,2.96.385,3.71.276-.4,4.768.359,3.827,4.306,3.853a6.8,6.8,0,0,0,1.308-.308c.966-.008,2.127.385,3.409.3,1.151-.072,2.244-.495,3.386-.6-7.223,10.181-22.756,4.026-21.529-8.383a11.7,11.7,0,0,1,5.281-8.456,13.445,13.445,0,0,0-.522,7.771c.061.35.512.466.522.5" transform="translate(-158.479 -168.043)" fill="#ff9ebf"/>
          <path id="Trazado_1274370" data-name="Trazado 1274370" d="M38.784,276.565H29.035V261.5h9.749Zm-7.53-13c-.727.23-.791,3.088.586,2.653.727-.23.791-3.088-.586-2.653m-.446,4.576a34.071,34.071,0,0,0,0,4.727c0,.556,1.477.556,1.477,0v-4.727c0-.442-1.277-.7-1.477,0" transform="translate(-20.458 -184.248)" fill="#fab199"/>
          <path id="Trazado_1274371" data-name="Trazado 1274371" d="M204.079,275.861H194.035V260.942a2.964,2.964,0,0,1,.443-.443h7.09c.744,0,.147,1.737.134,2.2a15.162,15.162,0,0,0,1.054,6.653c.243.654,1.323,2.092,1.323,2.222Z" transform="translate(-136.714 -183.544)" fill="#fab199"/>
          <path id="Trazado_1274372" data-name="Trazado 1274372" d="M118.479,165.792c1.024,11.637-14.753,11.413-13.586-.3,1.327-.026,2.461.808,3.773,1.1a17.1,17.1,0,0,0,9.813-.8" transform="translate(-73.862 -116.605)" fill="#fab199"/>
          <path id="Trazado_1274373" data-name="Trazado 1274373" d="M143.37,42.6c-.4-.123-3.528-6.985-3.421-7.5a28.672,28.672,0,0,1,3.982-1.684l4.312,9.181c-1.259-.24-3.819.328-4.874,0" transform="translate(-98.604 -23.548)" fill="#f5f5f5"/>
          <path id="Trazado_1274374" data-name="Trazado 1274374" d="M123.294,48.937c-.306-.1-2.32-4.093-2.192-4.533a11.349,11.349,0,0,1,3.935-1.989l3.131,6.522c-1.258-.24-3.82.328-4.874,0" transform="translate(-85.322 -29.883)" fill="#f5f5f5"/>
          <path id="Trazado_1274375" data-name="Trazado 1274375" d="M107.462,6.453c.158.1,1.134,2.889,1.508,3.341-.68.568-3.723,2.317-4.388,1.9a20.041,20.041,0,0,1-1.493-4.072c.785-.263,3.783-1.548,4.372-1.173" transform="translate(-72.63 -4.499)" fill="#f5f5f5"/>
          <path id="Trazado_1274376" data-name="Trazado 1274376" d="M88.97,13.466c-.01.827,2.2,3.959,1.777,4.428-1.613.039-2.772,1.648-4.416,1.463.17-.9-1.264-2.44-1.15-3.043.1-.519,3.484-3.079,3.788-2.849" transform="translate(-60.013 -9.478)" fill="#f5f5f5"/>
          <path id="Trazado_1274377" data-name="Trazado 1274377" d="M182.035,97.884V90.5c3.619.613,3.806,7.072,0,7.385" transform="translate(-128.259 -63.764)" fill="#fab199"/>
          <path id="Trazado_1274378" data-name="Trazado 1274378" d="M71.414,90.5v7.385c-3.795-.258-3.607-6.812,0-7.385" transform="translate(-48.361 -63.764)" fill="#fab199"/>
          <path id="Trazado_1274379" data-name="Trazado 1274379" d="M127.909,5.259c.254.069.895.744.6,1.191a15,15,0,0,1-3.858,1.788c-.59-.014-1.393-2.24-1.618-2.979,1.331.23,3.708-.314,4.874,0" transform="translate(-86.689 -3.635)" fill="#f5f5f5"/>
          <path id="Trazado_1274380" data-name="Trazado 1274380" d="M241.39,170.862c.579,2.612-4.231,5.071-3.512,1.31.27-1.413,2.32-2.043,3.512-1.31" transform="translate(-167.554 -120.17)" fill="#ffe19a"/>
          <path id="Trazado_1274381" data-name="Trazado 1274381" d="M110.431,55.077a5.94,5.94,0,0,1-2.567-.827c-.358-.171-2.058-.951-1.861-1.384a5.7,5.7,0,0,1,2.759-1.309c.461.135,1.926,3.256,1.669,3.52" transform="translate(-74.677 -36.32)" fill="#f5f5f5"/>
          <path id="Trazado_1274382" data-name="Trazado 1274382" d="M8.77,119.14a2.238,2.238,0,0,1-2.25,3.87c-2.292-1.025-.56-5.361,2.25-3.87" transform="translate(-3.846 -83.727)" fill="#ffe19a"/>
          <path id="Trazado_1274383" data-name="Trazado 1274383" d="M252.6,47.1a2.967,2.967,0,0,1-2.954,2.954A2.089,2.089,0,0,1,252.6,47.1" transform="translate(-175.482 -32.769)" fill="#eabb5d"/>
          <path id="Trazado_1274384" data-name="Trazado 1274384" d="M251.035,51.453a2.967,2.967,0,0,0,2.954-2.954c2.5,2.015-.994,5.393-2.954,2.954" transform="translate(-176.875 -34.172)" fill="#d36464"/>
          <path id="Trazado_1274385" data-name="Trazado 1274385" d="M122.2,131.5c.881,5.83-7.5,8.205-10.473,3.531-.43-.677-1.332-3.531-.309-3.531Zm-1.477,1.477h-7.976c.56,4.2,6.968,3.939,7.976,0" transform="translate(-78.17 -92.652)" fill="#0b0b0b"/>
          <path id="Trazado_1274386" data-name="Trazado 1274386" d="M120.534,113.152a2.72,2.72,0,0,0,1.708.547c1.5-.4,1.467-2.405,1.914-2.54,1.6-.484,1.22,2.532-.342,3.5-2.809,1.736-6.3-1.308-4.984-3.212,1.054-1.524,1.481,1.463,1.7,1.708" transform="translate(-83.524 -78.218)" fill="#0b0b0b"/>
          <path id="Trazado_1274387" data-name="Trazado 1274387" d="M100.72,87.835H94.369c-.3,0-.609-.927-.442-1.178.219-.331,5.657-.469,6.309-.257.619.2.5.884.485,1.435" transform="translate(-66.146 -60.804)" fill="#0b0b0b"/>
          <path id="Trazado_1274388" data-name="Trazado 1274388" d="M142.991,87.835c-.014-.552-.134-1.234.485-1.435.652-.212,6.089-.074,6.309.257.167.251-.141,1.178-.442,1.178Z" transform="translate(-100.736 -60.804)" fill="#0b0b0b"/>
          <path id="Trazado_1274389" data-name="Trazado 1274389" d="M149.243,98.332c-1.37-1.369.808-4.142,2.427-2.281,1.553,1.784-1.183,3.525-2.427,2.281" transform="translate(-104.85 -67.237)" fill="#0b0b0b"/>
          <path id="Trazado_1274390" data-name="Trazado 1274390" d="M102.9,98.332c-1.245,1.244-3.98-.5-2.427-2.281,1.62-1.861,3.8.912,2.427,2.281" transform="translate(-70.462 -67.237)" fill="#0b0b0b"/>
          <path id="Trazado_1274391" data-name="Trazado 1274391" d="M242.909,255.825c.391-1.2,3.539-.286,3.842-.589.131-.8-.311-3.3.275-3.713a18.579,18.579,0,0,1,5.06,0c.586.409.144,2.908.275,3.713.817.131,3.3-.31,3.713.275a20.8,20.8,0,0,1,0,5.355c-.408.586-2.908.144-3.713.275v3.546a6.8,6.8,0,0,1-1.308.308c-3.947-.026-4.7.914-4.306-3.853-.75.109-3.4.162-3.71-.276-.5-1.369.23-3.835-.129-5.041m7.978-2.956h-2.662c.266,4.015.179,4.108-3.84,3.84v2.957c.694.137,3.263-.273,3.58.17.536.75.1,3.513.261,3.67h2.662c.034-.7-.164-3.488.336-3.8.45-.282,2.762.117,3.5-.04v-2.957c-.694-.137-3.263.273-3.58-.17-.536-.75-.1-3.513-.261-3.67" transform="translate(-171.113 -177.097)" fill="#0b0b0b"/>
          <path id="Trazado_1274392" data-name="Trazado 1274392" d="M34.8,282.967c.2-.7,1.477-.442,1.477,0v4.727c0,.556-1.477.556-1.477,0a34.07,34.07,0,0,1,0-4.727" transform="translate(-24.454 -199.069)" fill="#f5f5f5"/>
          <path id="Trazado_1274393" data-name="Trazado 1274393" d="M35.331,268.4c1.377-.434,1.313,2.424.585,2.653-1.377.434-1.313-2.424-.585-2.653" transform="translate(-24.535 -189.08)" fill="#f5f5f5"/>
          <path id="Trazado_1274394" data-name="Trazado 1274394" d="M125.011,136.5c-1.008,3.939-7.416,4.2-7.976,0Z" transform="translate(-82.461 -96.175)" fill="#f5f5f5"/>
          <path id="Trazado_1274395" data-name="Trazado 1274395" d="M254.532,256.494c.157.157-.275,2.92.261,3.67.316.443,2.886.033,3.58.17v2.957c-.743.157-3.054-.242-3.5.04-.5.313-.3,3.1-.336,3.8H251.87c-.158-.157.275-2.92-.261-3.67-.316-.443-2.886-.033-3.58-.17v-2.957c4.019.267,4.107.175,3.84-3.84Z" transform="translate(-174.758 -180.722)" fill="#f5f5f5"/>
        </g>
      </g>
    </g>
  </g>
</svg>
