<svg xmlns="http://www.w3.org/2000/svg" xmlns:xlink="http://www.w3.org/1999/xlink" width="96" height="96" viewBox="0 0 96 96">
  <defs>
    <clipPath id="clip-path">
      <rect id="Rectángulo_455595" data-name="Rectángulo 455595" width="96" height="96" fill="none"/>
    </clipPath>
    <clipPath id="clip-path-2">
      <rect id="Rectángulo_460781" data-name="Rectángulo 460781" width="56.349" height="35.234" fill="#fff"/>
    </clipPath>
  </defs>
  <g id="Grupo_1210445" data-name="Grupo 1210445" transform="translate(-735.746 -9118)">
    <g id="Grupo_1180407" data-name="Grupo 1180407" transform="translate(735.746 9117.971)">
      <g id="Grupo_1179172" data-name="Grupo 1179172" transform="translate(0 0.03)" clip-path="url(#clip-path)">
        <path id="Trazado_998483" data-name="Trazado 998483" d="M92.261,52.319A39.942,39.942,0,1,1,52.319,12.377,39.942,39.942,0,0,1,92.261,52.319" transform="translate(-4.304 -4.333)" fill="#8d1939"/>
        <path id="Trazado_998485" data-name="Trazado 998485" d="M90.566,46.284A44.283,44.283,0,1,1,46.284,2,44.283,44.283,0,0,1,90.566,46.284Z" transform="translate(1.731 1.702)" fill="none" stroke="#8d1939" stroke-miterlimit="10" stroke-width="4"/>
      </g>
    </g>
    <g id="Grupo_1180408" data-name="Grupo 1180408" transform="translate(755.746 9137)">
      <g id="Grupo_1099618" data-name="Grupo 1099618" transform="translate(-0.035 0.057)">
        <rect id="Rectángulo_401104" data-name="Rectángulo 401104" width="56.349" height="57.028" transform="translate(0)" fill="none"/>
      </g>
      <g id="Grupo_1211361" data-name="Grupo 1211361" transform="translate(-0.035 10.17)">
        <g id="Grupo_1211360" data-name="Grupo 1211360" clip-path="url(#clip-path-2)">
          <path id="Trazado_1274396" data-name="Trazado 1274396" d="M7.112,3.518C6.942,2.046,7.251.779,8.724.2c2.607.139,6.138-.452,8.641-.066,1.559.241,2.113,2.006,1.868,3.384l21.585-.007c19.113,1.112,21.137,27.047,2.992,31.451-13.783.545-27.656.075-41.471.24A2.578,2.578,0,0,1,0,32.853L.154,5.369a2.792,2.792,0,0,1,2.19-1.851Zm1.616,0h8.889c-.03-.616.212-1.607-.6-1.738-2.31.1-4.985-.271-7.252-.049-1.155.113-1.09.773-1.041,1.788M2.214,5.327l-.474.5V33.053l.474.5,39.413.039c17.185-1.8,17.451-26.1.322-28.3Z" transform="translate(0 -0.001)" fill="#fff"/>
          <path id="Trazado_1274397" data-name="Trazado 1274397" d="M67.6,54.29h5.819a22.848,22.848,0,0,1,1.539-3.228c.532-.533,1.231-.158,1.451.48l1.857,6.465,2.916-11.388a.846.846,0,0,1,1.408.521l2.63,11.836,2.1-8.8a1.068,1.068,0,0,1,.719-.249c.941.095,1.618,3.632,2.269,4.367h5.576V45c0-.742-2.549-.478-2.958-.6a.824.824,0,0,1,.3-1.573c2.04-.313,4.066.248,4.42,2.508-.374,6.21.545,13.095.019,19.225a2.893,2.893,0,0,1-2.99,2.99c-8.3.714-17.618-.545-26.025-.008a2.721,2.721,0,0,1-2.672-2.176l.08-20.777a2.809,2.809,0,0,1,2.585-1.779c6.612-.563,14.006.439,20.7,0,1.729.159,1.117,1.624.8,1.624H68.489c-.232,0-.889.476-.889.727Zm6.223,1.778H67.6V65.2a.8.8,0,0,0,.36.459l27.652-.043a1.09,1.09,0,0,0,.272-.416V56.068H89.662a1.806,1.806,0,0,1-.7-.589l-.829-1.835-2.267,10.1-.564.232a.918.918,0,0,1-.846-.756l-2.63-12.16L79.036,61.6c-.54.794-1.215.846-1.6-.087-.906-2.169-1.18-4.982-1.992-7.228l-.241-.161c-.124.6-.751,1.8-1.376,1.939" transform="translate(-55.316 -35.742)" fill="#fff"/>
          <path id="Trazado_1274398" data-name="Trazado 1274398" d="M279.051,94.515c-.372.367-1.678.116-2.267.237a2.765,2.765,0,0,0-1.662,3.852,2.711,2.711,0,0,0,5.091-.916c.089-.9-.635-1.92.889-2.008,1.172.166.726,2.7.4,3.463a4.377,4.377,0,1,1-3.941-6.17c.8.007,2.365.684,1.495,1.543" transform="translate(-228.986 -77.946)" fill="#fff"/>
          <path id="Trazado_1274399" data-name="Trazado 1274399" d="M45.835,87.044c-.29.29-1.131.306-1.336-.123l.066-15.128c.694-.527,1.467-.246,1.473.659-.286,4.452.371,9.35,0,13.748-.021.251-.028.665-.207.843" transform="translate(-37.307 -59.968)" fill="#fff"/>
        </g>
      </g>
    </g>
  </g>
</svg>
