<svg xmlns="http://www.w3.org/2000/svg" xmlns:xlink="http://www.w3.org/1999/xlink" width="96" height="96" viewBox="0 0 96 96">
  <defs>
    <clipPath id="clip-path">
      <rect id="Rectángulo_455595" data-name="Rectángulo 455595" width="96" height="96" fill="none"/>
    </clipPath>
    <clipPath id="clip-path-2">
      <rect id="Rectángulo_460782" data-name="Rectángulo 460782" width="40.696" height="57.028" fill="#fff"/>
    </clipPath>
  </defs>
  <g id="Grupo_1210444" data-name="Grupo 1210444" transform="translate(-735.746 -9118)">
    <g id="Grupo_1180407" data-name="Grupo 1180407" transform="translate(735.746 9117.971)">
      <g id="Grupo_1179172" data-name="Grupo 1179172" transform="translate(0 0.03)" clip-path="url(#clip-path)">
        <path id="Trazado_998483" data-name="Trazado 998483" d="M92.261,52.319A39.942,39.942,0,1,1,52.319,12.377,39.942,39.942,0,0,1,92.261,52.319" transform="translate(-4.304 -4.333)" fill="#8d1939"/>
        <path id="Trazado_998485" data-name="Trazado 998485" d="M90.566,46.284A44.283,44.283,0,1,1,46.284,2,44.283,44.283,0,0,1,90.566,46.284Z" transform="translate(1.731 1.702)" fill="none" stroke="#8d1939" stroke-miterlimit="10" stroke-width="4"/>
      </g>
    </g>
    <g id="Grupo_1180408" data-name="Grupo 1180408" transform="translate(755.746 9137)">
      <g id="Grupo_1099618" data-name="Grupo 1099618" transform="translate(-2.289 -0.089)">
        <rect id="Rectángulo_401104" data-name="Rectángulo 401104" width="56.349" height="57.028" transform="translate(0)" fill="none"/>
      </g>
      <g id="Grupo_1211363" data-name="Grupo 1211363" transform="translate(5.711 -0.089)">
        <g id="Grupo_1211362" data-name="Grupo 1211362" clip-path="url(#clip-path-2)">
          <path id="Trazado_1274400" data-name="Trazado 1274400" d="M25.136,21.518h1.631V5.946A5.663,5.663,0,0,1,27.51,4.57a3.131,3.131,0,0,1,4.8.233A5.625,5.625,0,0,1,32.962,6.6v14.92h1.631V11.653a9.522,9.522,0,0,1,.581-1.049,3.114,3.114,0,0,1,5.415,1.086l.033,15.286c-.225,1.2-1.627.52-1.627.167v-3.75a4.709,4.709,0,0,0-3.143-.045L22.69,29.834h17.2c.2,0,.857.568.742.889-.367,3.958.924,8.837-1.182,12.368-1.107,1.857-3.038,2.636-3.235,4.918-.147,1.709.381,6.763-.252,7.9a2.1,2.1,0,0,1-1.617.992c-3.455-.293-7.552.393-10.928,0a.876.876,0,0,1-.486-1.634H34.348l.245-.245V48.259H17.309v6.767c.616.651,2.772-.293,2.907.852a.869.869,0,0,1-.86,1.031c-1.445.19-3.468.094-3.681-1.717-.273-2.317.6-7.223-.575-9.046L.591,31.794A2.5,2.5,0,0,1,2.059,27.71a8.8,8.8,0,0,1,6.686,1.638c.815.65,1.494,1.721,2.531,2.116V5.783a3.34,3.34,0,0,1,1.152-1.62,3.05,3.05,0,0,1,4.464.9,6.615,6.615,0,0,1,.418.887V21.518h1.631v-19a9.207,9.207,0,0,1,.515-1.115,3.073,3.073,0,0,1,5.227.1,7.029,7.029,0,0,1,.454,1.176Zm-4.4-4.892H23.26l.253-.562c-.392-4.017.5-8.972-.023-12.876-.308-2.287-2.758-1.5-2.758-.666Zm-5.055,0V6.272c0-.39-.923-1.07-1.386-1.069-.4,0-1.386.5-1.386.906V16.626Zm15.491,0V6.109c0-.838-2.365-1.463-2.738.2.207,3.062-.393,6.774-.043,9.757.028.237.02.419.253.562Zm7.827,0V12.142c0-.391-.923-1.069-1.386-1.069s-1.386.678-1.386,1.069v4.484ZM15.678,18.257H12.906v3.261h2.772Zm7.827,0H20.733v3.261H23.5Zm7.664,0H28.4v3.261h2.772Zm7.827,0H36.224v3.261H39Zm-7.012,4.892H12.906v6.685h5.789l13.079-6.32ZM3.028,31.885c1.02,1.008,2.145,1.932,3.111,3L8.99,31.872A6.989,6.989,0,0,0,2.7,29.334c-2.247.219-.393,1.844.323,2.551m28.956-.258H12.906V38.15h5.789Zm7.012,0H35.979L22.69,38.15H39ZM11.276,39.78V34.155c0-.253-.939-1.085-1.2-1.042l-2.7,2.858a28.818,28.818,0,0,0,3.411,3.566c.164.126.206.315.49.244m20.708.163H12.906c.054.5-.125,1.166.084,1.627.251.553,2.433,2.3,3.01,3.023.922,1.158.693,2.407,2.488,1.991Zm6.848,0H35.979L22.527,46.629H34.674c.935-2.553,3.944-3.758,4.158-6.685" transform="translate(0 0)" fill="#fff"/>
        </g>
      </g>
    </g>
  </g>
</svg>
