<svg xmlns="http://www.w3.org/2000/svg" xmlns:xlink="http://www.w3.org/1999/xlink" width="69" height="69" viewBox="0 0 69 69">
  <defs>
    <clipPath id="clip-path">
      <rect id="Rectángulo_461201" data-name="Rectángulo 461201" width="42.021" height="45" fill="#fff"/>
    </clipPath>
  </defs>
  <g id="Grupo_1209912" data-name="Grupo 1209912" transform="translate(-304.77 -11338.319)">
    <circle id="Elipse_13679" data-name="Elipse 13679" cx="34.5" cy="34.5" r="34.5" transform="translate(304.77 11338.319)" fill="#6a2874"/>
    <g id="Grupo_1212529" data-name="Grupo 1212529" transform="translate(318.77 11350.319)">
      <g id="Grupo_1212528" data-name="Grupo 1212528" clip-path="url(#clip-path)">
        <path id="Trazado_1278988" data-name="Trazado 1278988" d="M25.514,0V2.249a7.069,7.069,0,0,0,1.23,2.723C28.45,7.114,31.061,6.929,33.416,7.7c4.1,1.349,6.1,4.518,6.774,8.626a16.365,16.365,0,0,1,.312,3.225c-.086.439-1.3,1.259-1.7,1.7-1.529,1.715-2.759,5.124-1.486,7.214.557.915,1.053,1.093,1.022,2.4s-1.085,1.168-1.406,2.15a3.533,3.533,0,0,0,1.76,4.028,8.069,8.069,0,0,0,1.2.433h2.113a34.664,34.664,0,0,1-.666,7.417l-3.292.016c-.6-1.673-1.224-3.392-1.7-5.117a49.329,49.329,0,0,1-1.573-15.066c.061-1.53.373-3.1.42-4.621.029-.947-.018-1.627-1.172-1.172-1.692,1.689-2.937,4.132-5.4,4.82-2.106.588-3.9-.2-5.968-.448.046.363-.475,1.214-.145,1.431,3.31.888,6.665,1.3,9.407-1.162-.323,1.181-.918,2.26-1.261,3.439A24.869,24.869,0,0,0,30,34.469a3.154,3.154,0,0,0-2.777,2.062,10.224,10.224,0,0,1-.334,1.437c-.261.377-1.013.306-1.449.459a2.413,2.413,0,0,0-.7,3.912c1.17,1.1,5.091.941,6.689,1.531l.079,1.106H10.522V42.318a12.526,12.526,0,0,1,.274-1.5c.051-.133.056-.253.2-.338,1.6,1.338,4.319.393,6.022-.388a2.472,2.472,0,0,0,1.667-2.943c-.232-1.7-2.246-1.63-2.177-3.144.038-.829.813-1.033,1.235-1.5a3.839,3.839,0,0,0,.789-3.787c-1-2.742-5.14-1.818-7.377-2.4l-1.043-2.737c2.751,2.475,6.088,2.051,9.407,1.162.325-.213-.179-1.067-.15-1.425-1.632.12-3.154.789-4.812.654-3.267-.267-4.535-2.922-6.552-5.032-1.231-.488-1.208.355-1.171,1.308.123,3.221.553,6.235.419,9.54A45.241,45.241,0,0,1,5.274,41.16c-.158.519-1.062,3.488-1.224,3.682-.254.306-2.761.064-3.322.116a32.607,32.607,0,0,1-.706-7.415c.143-2.982,1.1-5.881,1.367-8.855.4-4.373-.226-8.81.547-13.151.184-.193,1.323.856,1.63,1.027,2.92,1.617,6.258.074,5.282-3.51a8.68,8.68,0,0,1-.494-1.276c-.232-1.761.765-1.051,1.927-1.593A3.3,3.3,0,0,0,12.027,6.82,5.206,5.206,0,0,0,16.134,3.5a7.966,7.966,0,0,0,.385-1.251V0ZM18.265,8.885l.637,1.187,1.239-.664a5.3,5.3,0,0,0-.9-1.7,18.334,18.334,0,0,0-4.081-.885c.046.363-.475,1.214-.145,1.431Zm8.6-2.06-3.933.75L21.848,9.339l1.283.733.637-1.187,3.247-.638.13-.262Zm.791,5.2c-1.565.269-1.673,1.458-2.681,1.952-.814.4-1.832.311-2.826.717-1.977.808-3.528,2.706-2.2,4.84.974,1.568,4.129,2.188,5.215.626.44-.632.146-1.358.973-1.481a11.012,11.012,0,0,0,3.093-.587c3.923-1.616,2.35-6.742-1.57-6.068m9.847,2.216a2.247,2.247,0,1,0-2.247,2.247,2.247,2.247,0,0,0,2.247-2.247M17.262,16.491a2.243,2.243,0,1,0-2.243,2.243,2.243,2.243,0,0,0,2.243-2.243m9.749,12.744a2.247,2.247,0,1,0-2.247,2.247,2.247,2.247,0,0,0,2.247-2.247m-20.989,4.5a2.247,2.247,0,1,0-2.247,2.247,2.247,2.247,0,0,0,2.247-2.247M21.7,38.3H20.332v1.368H21.7Z" transform="translate(0)" fill="#fff"/>
        <path id="Trazado_1278989" data-name="Trazado 1278989" d="M84.316,205.006c.777.057,1.612.063,2.384.136,1.218.115,3.043.1,3.249,1.656.219,1.658-1.311,1.907-1.878,2.985a2.906,2.906,0,0,0,.083,2.9c.419.676,1.352,1.006,1.644,1.491a1.085,1.085,0,0,1-.341,1.492,24.223,24.223,0,0,1-3.177,1.047,1.777,1.777,0,0,1-2.1-1.017,27.846,27.846,0,0,0,.14-10.691" transform="translate(-72.704 -177.065)" fill="#fff"/>
        <path id="Trazado_1278990" data-name="Trazado 1278990" d="M25.948,54.331c-.783.783-2.684.195-3.163,1.812-.537,1.813,1.1,3.346.452,4.677-.545,1.118-2.273.672-3.123.188-.193-.11-1.629-1.22-1.69-1.316-.253-.4.888-2.2,1.19-2.632a10.578,10.578,0,0,1,6.724-4.043c.218.378-.117,1.041-.389,1.314" transform="translate(-15.881 -45.791)" fill="#fff"/>
        <path id="Trazado_1278991" data-name="Trazado 1278991" d="M284.148,174.178c-1.259.055-2.863.117-3.435-1.265-.676-1.635.629-1.272,1.1-2.368a8.4,8.4,0,0,0,.127-2.946c-.2-.97-1.367-1.628-1.42-2.641a6.68,6.68,0,0,1,2.2-4.954,62.2,62.2,0,0,0,1.43,14.173" transform="translate(-242.28 -138.198)" fill="#fff"/>
        <path id="Trazado_1278992" data-name="Trazado 1278992" d="M191.906,264l1.228,6.27a29.561,29.561,0,0,1-5.527-.948.873.873,0,0,1-.128-1.232c.361-.471,1.028-.337,1.529-.515,1.912-.677.547-3.51,2.9-3.576" transform="translate(-161.758 -228.018)" fill="#fff"/>
        <path id="Trazado_1278993" data-name="Trazado 1278993" d="M160.9,98.832c1.9-.437,2.977,1.6,1.665,2.755-1.726,1.519-5.4-.059-5.5,3.083l-.16.112c-1.441.271-3.173-.262-2.711-2.031.184-.706,1.453-1.353,2.117-1.562,1.342-.423,2.088-.037,3.338-1.16.384-.345.634-1.054,1.255-1.2" transform="translate(-133.113 -85.31)" fill="#fff"/>
        <path id="Trazado_1278994" data-name="Trazado 1278994" d="M106.341,116.417a.723.723,0,1,1-.723-.723.723.723,0,0,1,.723.723" transform="translate(-90.599 -99.926)" fill="#fff"/>
        <path id="Trazado_1278995" data-name="Trazado 1278995" d="M254.664,99.705a.756.756,0,1,1-.756-.756.756.756,0,0,1,.756.756" transform="translate(-218.649 -85.463)" fill="#fff"/>
        <path id="Trazado_1278996" data-name="Trazado 1278996" d="M177.664,209.705a.756.756,0,1,1-.756-.756.756.756,0,0,1,.756.756" transform="translate(-152.143 -180.471)" fill="#fff"/>
        <path id="Trazado_1278997" data-name="Trazado 1278997" d="M23.664,242.705a.756.756,0,1,1-.756-.756.756.756,0,0,1,.756.756" transform="translate(-19.132 -208.973)" fill="#fff"/>
      </g>
    </g>
  </g>
</svg>
