<svg xmlns="http://www.w3.org/2000/svg" xmlns:xlink="http://www.w3.org/1999/xlink" width="69" height="69" viewBox="0 0 69 69">
  <defs>
    <clipPath id="clip-path">
      <rect id="Rectángulo_461202" data-name="Rectángulo 461202" width="45" height="43.867" fill="#fff"/>
    </clipPath>
  </defs>
  <g id="Grupo_1209913" data-name="Grupo 1209913" transform="translate(-304.77 -11338.319)">
    <circle id="Elipse_13679" data-name="Elipse 13679" cx="34.5" cy="34.5" r="34.5" transform="translate(304.77 11338.319)" fill="#6a2874"/>
    <g id="Grupo_1212531" data-name="Grupo 1212531" transform="translate(316.769 11350.319)">
      <g id="Grupo_1212530" data-name="Grupo 1212530" clip-path="url(#clip-path)">
        <path id="Trazado_1278998" data-name="Trazado 1278998" d="M7.61,20.752c-2.343-.038-8-1.046-7.588-4.3.28-2.223,4.646-3.312,6.493-3.447,2.389-.175,3.166.348,5.41-1.021,1.3-.793,3.762-2.463,4.94-3.39,2.075-1.633,1.889-3.392,2.763-5.567,1.935-4.816,5.453-3.419,6.793.884.556,1.785.2,4.285,2.635,4.674,1.988.317,2.072-1.373,2.952-1.654,1.673-.533,2.283,1.107,2.571,2.413.234,1.062.054,2.447.353,3.3.228.649,1.48,2.064,1.932,2.891a22.952,22.952,0,0,1,1.221,2.725c.445.6,2.057.5,2.854.654,1.674.329,4.814,1.35,3.9,3.623-.9,2.239-4.863,1.319-6.324,4.2-1.265,2.493.242,3.433.315,5.658.08,2.432-1.478,5.323-4.125,5.585-2.128.211-3.449-1.677-6.007-.161-2.415,1.431-1.784,4.617-3.645,5.708-2.5,1.465-3.345-2.222-4.439-3.556a7.58,7.58,0,0,0-3.866-2.419c-1.482-.183-2.7.39-4.089.448-4.052.168-8.172-2.868-7.664-7.224.194-1.665,1.526-2.968,1.989-4.587a28.445,28.445,0,0,0,.626-5.44" transform="translate(-0.001 0)" fill="#fff"/>
        <path id="Trazado_1278999" data-name="Trazado 1278999" d="M11.68,254.819c1.771-.276,4.985.186,5.286,2.389.485,3.554-6.015,4.338-7.8,1.658-1.283-1.931.6-3.75,2.51-4.047" transform="translate(-7.471 -217.517)" fill="#fff"/>
        <path id="Trazado_1279000" data-name="Trazado 1279000" d="M246.883,29.174c1.744-.157,4.238.847,3.734,3-.692,2.952-6.779,2.76-6.635-.629.062-1.461,1.6-2.253,2.9-2.37" transform="translate(-208.323 -24.897)" fill="#fff"/>
        <path id="Trazado_1279001" data-name="Trazado 1279001" d="M47.1,20.17c3.006-.277,3.211,6.533.408,6.841-3.315.364-3.416-6.564-.408-6.841" transform="translate(-38.365 -17.215)" fill="#fff"/>
        <path id="Trazado_1279002" data-name="Trazado 1279002" d="M272.882,247.852c-2.386,2.388-5.977-2.668-3.3-4.4,2.466-1.6,5.141,2.563,3.3,4.4" transform="translate(-229.372 -207.567)" fill="#fff"/>
      </g>
    </g>
  </g>
</svg>
