<svg xmlns="http://www.w3.org/2000/svg" xmlns:xlink="http://www.w3.org/1999/xlink" width="162.25" height="162.25" viewBox="0 0 162.25 162.25">
  <defs>
    <clipPath id="clip-path">
      <rect id="Rectángulo_461219" data-name="Rectángulo 461219" width="81.567" height="80.731" fill="#6a2874"/>
    </clipPath>
  </defs>
  <g id="Grupo_1212930" data-name="Grupo 1212930" transform="translate(-873.211 -4862.223)">
    <g id="Grupo_1212902" data-name="Grupo 1212902" transform="translate(0 -35)">
      <g id="Grupo_1209923" data-name="Grupo 1209923" transform="translate(568.064 -5115.236)">
        <g id="Grupo_1177470" data-name="Grupo 1177470" transform="translate(305.146 10012.421)">
          <circle id="Elipse_13609" data-name="Elipse 13609" cx="81.125" cy="81.125" r="81.125" transform="translate(0 0.038)" fill="#f6e1fe"/>
          <g id="Grupo_1207827" data-name="Grupo 1207827" transform="translate(35.635 35.96)">
            <g id="Grupo_1099618" data-name="Grupo 1099618" transform="translate(0.865 -0.145)">
              <rect id="Rectángulo_401104" data-name="Rectángulo 401104" width="90" height="90" transform="translate(0)" fill="none"/>
            </g>
            <g id="Grupo_1212543" data-name="Grupo 1212543" transform="translate(4.865 4.856)">
              <g id="Grupo_1212542" data-name="Grupo 1212542" clip-path="url(#clip-path)">
                <path id="Trazado_1279051" data-name="Trazado 1279051" d="M11.864,52.128c-.925-2.628-.667-5.564-1.052-8.217C9.3,33.517,5.065,22.372,3.275,11.9c-.64-5.273,8.5-7.889,10.507-2.842l3.764,11.186L15.108,8.72C14.261,3.629,23.132,1.085,25.4,5.347l3.762,11.188c-.221-3.558-1.814-7.3-2.2-10.776a3.474,3.474,0,0,1,.837-3.313c2.083-2.576,7.255-3.635,9.23-.576.886,1.372,2.339,6.608,2.892,8.478a3.238,3.238,0,0,1,.117,1,26.147,26.147,0,0,1,19.4-6.424c2.2.146,7.581,1.014,9.146,2.471,2.924,2.719,2.723,8.293-.114,11.006-3.375,3.228-9.089-2.087-11.621,2.217l5.081,2.843c4.765-.913,11.121-1.136,15.733.562,4.306,1.585,4.974,7.943,2.3,11.307-1.645,2.069-6.9,3.4-9.523,3.453a38.645,38.645,0,0,1-.74,13.349H81.567v2.966H69.085c-3.206,8.362-8.34,15.925-15.763,21.066-8.864,6.14-16.4,6.083-25.222-.1-7.352-5.153-12.428-12.645-15.618-20.964H0V52.128ZM35.058,18.472,38,13.5,34.82,3.59c-.934-1.738-4.885-.549-5.158.968l2.985,14.184Zm-7.869,1.517L22.964,6.548c-1.081-1.453-5.608-.262-5.151,1.921l2.95,14ZM61.3,7.886C49.784,5.952,38.741,12.552,35.84,23.948a23.742,23.742,0,0,1,10.628-.242l-.5,2.718C32.43,23.156,19.84,35.7,21.743,49.148l-2.709.757c-1.344-8.9,3.175-18.231,10.546-23.192a28.972,28.972,0,0,0,3.159-1.785c.506-.679.531-2.621,1.124-3.447-8.129.656-15.9,4.478-18.722,12.542A32.518,32.518,0,0,0,14.608,52.1l10.2-.008c1.2-.41,1.937-8.941,4.866-6.036l1.962,11.011,5.011-22.55a1.422,1.422,0,0,1,2.781-.193l3.205,15.085c.325.421.366.119.586-.164,1.044-1.343,2-5.341,4.192-3.131l3.015,15.154,6.6-22.691c.482-1.6,2.178-1.844,2.788-.164l2.5,13.686h4.647c2.649-10.675.613-24.974-11.337-28.641a7.424,7.424,0,0,0-.016,3.936l-2.324.743c-.373-.078-.564-1.494-.6-1.873-.462-4.624,2.548-10.7,7.877-10.229a7.732,7.732,0,0,1-.2-6.249c.264-.691.892-1.16.936-1.9m3.141,1.04c-2.371.707-2.649,7.141.249,7.8,4.426,1.012,4.264-9.15-.249-7.8M11.862,35.566c.621-3.542,2.677-6.476,4.587-9.409L11.178,9.93c-.964-1.742-5.15-.505-5.212,1.279Zm60.313-9.883a33.745,33.745,0,0,0-7.662,0,26.94,26.94,0,0,1,4.637,7.843c.892,2.373.133,2.913,3.52,2.286a8.288,8.288,0,0,1-.494-10.129m3.65.785c-3.3.394-3.172,8.234.407,8.095s3.451-8.555-.407-8.095M25.829,55.094c-2.927.5-7.181-.371-10.258,0,3.167,8.665,10.29,17.8,18.944,21.469,4.7,1.989,7.84,2.006,12.535,0C55.743,72.85,62.789,63.8,65.995,55.094h-4.82a3.973,3.973,0,0,1-.985-.5L58.33,44.96l-.371.244L51.286,68.192a1.513,1.513,0,0,1-1.837.118c-1.007-.787-3.088-15.177-3.723-17.418-.569-.138-.405.108-.565.312-1.05,1.349-1.851,4.857-4,3.393L37.82,41.253,32.248,65.466l-.6.4a1.4,1.4,0,0,1-1.618-.883L28.058,52.618l-.372-.242c-.26,1.049-.608,2.506-1.857,2.718" transform="translate(0 0)" fill="#6a2874"/>
              </g>
            </g>
          </g>
        </g>
        <ellipse id="Elipse_13678" data-name="Elipse 13678" cx="19.243" cy="19.243" rx="19.243" ry="19.243" transform="translate(305.965 10136.186)" fill="#da9dfe"/>
        <g id="Grupo_1207826" data-name="Grupo 1207826" transform="translate(305.146 10138.641)">
          <path id="Trazado_998481" data-name="Trazado 998481" d="M0,13.854q4.835.419,9.664.868l-.27.112,1.389-2.491a.373.373,0,0,1,.426-.131.271.271,0,0,1,.2.185l0,.01,1.186,5.359L11.7,17.7l1.915-4.337,1.934-4.332,1.94-4.33L19.452.377A.822.822,0,0,1,20.394.03.578.578,0,0,1,20.9.6V.609l-.77,7.01-.812,7.007-.823,7.006-.854,7L16.044,28.4c1.235-2.953,2.506-5.9,3.765-8.845l1.893-4.42,1.917-4.414,0-.011a.7.7,0,0,1,.8-.305.505.505,0,0,1,.439.47l-.29,5.628-.314,5.627-.826-.118,2.776-5.324,0-.009a.291.291,0,0,1,.3-.125l5.25.671,5.247.689-5.291-.467-5.287-.485.3-.133-2.494,5.4a.472.472,0,0,1-.54.2.338.338,0,0,1-.286-.3v-.012l.079-5.631.1-5.631L24.836,11,23.051,15.45l-1.809,4.44c-1.209,2.959-2.407,5.921-3.64,8.874a.892.892,0,0,1-1.022.4c-.373-.087-.6-.356-.57-.635v0l.812-7.007.842-7,.854-7,.9-7,1.444.232-2.048,4.3-2.069,4.3-2.074,4.3-2.093,4.29-.005.011a.513.513,0,0,1-.588.2.382.382,0,0,1-.3-.278l-.924-5.388.624.063L9.86,14.986l0,.007a.273.273,0,0,1-.265.1q-4.8-.609-9.59-1.244" transform="translate(0 4.51) rotate(-7)" fill="#fff"/>
        </g>
      </g>
      <path id="Trazado_1271670" data-name="Trazado 1271670" d="M79.8,53.239V66.476a.9.9,0,0,1-.9.895H68.265a.9.9,0,0,0-.9.9V78.909a.9.9,0,0,1-.9.9H53.239a.9.9,0,0,1-.9-.9V68.266a.9.9,0,0,0-.895-.9H40.767a.9.9,0,0,1-.9-.895V53.239a.9.9,0,0,1,.9-.9H51.449a.9.9,0,0,0,.895-.895V40.768a.9.9,0,0,1,.9-.9H66.475a.9.9,0,0,1,.9.9V51.449a.9.9,0,0,0,.9.895H78.908a.9.9,0,0,1,.9.9" transform="translate(951.255 4862.017)" fill="#8d1939"/>
    </g>
  </g>
</svg>
