<svg xmlns="http://www.w3.org/2000/svg" xmlns:xlink="http://www.w3.org/1999/xlink" width="187.711" height="131.081" viewBox="0 0 187.711 131.081">
  <defs>
    <clipPath id="clip-path">
      <rect id="Rectángulo_461216" data-name="Rectángulo 461216" width="116" height="116" transform="translate(0 0)" fill="none"/>
    </clipPath>
  </defs>
  <g id="Grupo_1212927" data-name="Grupo 1212927" transform="translate(-1122.711 -3796)">
    <g id="Grupo_1209918" data-name="Grupo 1209918" transform="translate(-207.566 133)">
      <g id="Grupo_1208475" data-name="Grupo 1208475" transform="translate(1330.277 3663)">
        <g id="Grupo_1204518" data-name="Grupo 1204518" transform="translate(0 0)">
          <rect id="Rectángulo_455283" data-name="Rectángulo 455283" width="187.711" height="131.081" rx="19" fill="#e9c3ff"/>
        </g>
      </g>
      <g id="Grupo_1212537" data-name="Grupo 1212537" transform="translate(1365.277 3671.429)">
        <g id="Grupo_1212536" data-name="Grupo 1212536" transform="translate(0 -0.428)" clip-path="url(#clip-path)">
          <path id="Trazado_1279014" data-name="Trazado 1279014" d="M61.507,0V7.275H76.222a3.318,3.318,0,0,1,.5.5V17.2c6.276-2.892,13.9-3.569,19.482,1.186.844.72,1.38,1.8,2.017,2.282,1.254.943,3.138,1.329,4.59,2.685a12.99,12.99,0,0,1,3.67,7.574c.315,3.149.407,12.456-.147,15.388a8.536,8.536,0,0,1-3.376,4.891c-.708.435-2.384.757-2.6,1.04-.684.911-1.3,4.537-2.668,5.6l-4.1,3.826c.293.631,10.149,2.165,11.829,2.723,8.1,2.689,9.069,10.782,10.985,17.949H102.511A10.863,10.863,0,0,1,99.7,87.965c-3.877,4.685-9.5,8.936-13.607,13.53l-9.379-8.9v23.148H0V7.275H14.881V0ZM54.232,16.865c-.011-.66,0-1.327,0-1.986l3.639,0V3.637H19.014a3.318,3.318,0,0,0-.5.5V14.881l32.078,0c-.006.659.009,1.326,0,1.986-.009.551.011,1.106,0,1.655l-39.354,0,0,83.995,0,1.986,54.043,0c.36-.055.175-1.536.19-1.99.233-6.847-.191-13.688-.331-20.5h-9.59c1.372-4.517,2.126-10.963,5.609-14.4.713-.7,4.141-2.659,4.26-3.015l.05-8.713c.55-.009,1.1.011,1.655,0,.66-.011,1.327,0,1.986,0V63.82c.189.218,4.877-1.169,5.619-1.322.912-.187,2.388-.186,3.42-.335.366-.053.293-.609.225-.823s-3.022-2.138-3.645-2.81c-1.842-1.988-2.287-4.9-3.281-6.143-.437-.549-3.2-1.318-3.994-2.124a27.528,27.528,0,0,1-1.482-2.651c-.853-2.216-.726-10.985-.5-13.712.206-2.456,1.429-4.6,1.648-6.784,1.233-1.51,2.1-3.238,3.317-4.785.359-.456,2.3-2.161,2.3-2.325V11.243H61.507v3.637h7.606l0,7.607c-.659-.006-1.326.009-1.986,0-.551-.009-1.106.011-1.655,0-.136-.86.336-3.377-.308-3.826-.927-.645-9.179.186-10.935-.143-.009-.55.011-1.1,0-1.655M14.881,11.243H3.637V112.1H72.75V88.457c0-.176-1.871-2.093-2.258-2.7-.513-.81-.554-1.946-1.38-2.423v24.636a3.318,3.318,0,0,1-.5.5H7.606V14.881h7.275Zm87.961,27.116V31.58c0-2.112-2.067-5.267-3.856-6.395-.96-.6-2.391-.749-3.066-1.233-.79-.565-1.87-2.449-3.019-3.264-5.765-4.091-14.973-1.2-19.328,3.778a18.983,18.983,0,0,0-4.457,13.893c3.178-1.574,6.453-.838,9.694-2.7,1.374-.79,4.37-4.354,5.333-4.259.338.033,3.83,2.776,4.711,3.26a21.5,21.5,0,0,0,6.307,2.291c2.582.477,5.3.154,7.682,1.412m-7.606,2.315a26.732,26.732,0,0,1-3.955-.84c-2.541-.848-4.695-2.382-7.107-3.475a23.016,23.016,0,0,1-9.455,4.865c-.068,6.4-.906,13.266,5.535,16.913a10.8,10.8,0,0,0,11.013.064c6.851-3.569,5.988-10.249,5.972-16.992-.1-.357-1.6-.458-2-.534m-24.14.992c-2.7.626-2.7,5.657,0,6.283Zm29.761,6.283a3.581,3.581,0,0,0,0-6.283Zm-9.92,17.526c-1.725-.355-1.36-.62-1.323-2.316a24.65,24.65,0,0,1-7.606,0c.041,1.755.4,1.917-1.322,2.316-3.784.876-7.8,1.141-11.577,2.146-5.96,1.586-7.546,4.912-8.594,10.751h8.928A9.722,9.722,0,0,1,82.333,71.6c1.045.363,3.114,2.06,3.537,2.1.363.031,2.2-1.576,2.955-1.9a10.008,10.008,0,0,1,13.1,5.016,11.331,11.331,0,0,1,.254,1.56h9.259c-1.119-4.743-2.448-8.877-7.536-10.486-4.1-1.3-8.785-1.549-12.966-2.411M74.518,76.5a6.422,6.422,0,0,0-.845,7.395L85.857,96.2c.4.077.543-.271.791-.461,1.8-1.38,10.621-10.284,11.511-11.969a6.052,6.052,0,0,0-5.72-9.045c-2.995.174-4.29,2.528-6.342,4.28-2.074-1.285-3.353-3.746-5.985-4.194A6.319,6.319,0,0,0,74.518,76.5" transform="translate(0 0.395)" fill="#050504"/>
          <path id="Trazado_1279015" data-name="Trazado 1279015" d="M242.633,76.3c-2.378-1.258-5.1-.936-7.682-1.412a21.509,21.509,0,0,1-6.307-2.291c-.881-.484-4.373-3.226-4.711-3.26-.963-.095-3.959,3.469-5.333,4.259-3.241,1.865-6.516,1.129-9.694,2.7A18.984,18.984,0,0,1,213.363,62.4c4.355-4.978,13.563-7.869,19.328-3.778,1.149.815,2.229,2.7,3.019,3.264.675.483,2.106.628,3.066,1.233,1.789,1.128,3.856,4.282,3.856,6.395Z" transform="translate(-139.791 -37.543)" fill="#633c0b"/>
          <path id="Trazado_1279016" data-name="Trazado 1279016" d="M246.329,114.265c-.192,4.749.785,9.773-1.6,14.109-.724,1.316-1.845,2.09-2.369,3.418a10.8,10.8,0,0,1-11.013-.064c-6.441-3.647-5.6-10.516-5.535-16.912a23.017,23.017,0,0,0,9.455-4.865c2.412,1.093,4.566,2.627,7.107,3.475a26.734,26.734,0,0,0,3.955.84" transform="translate(-151.093 -73.197)" fill="#f6dea4"/>
          <path id="Trazado_1279017" data-name="Trazado 1279017" d="M222.017,227.734a6.319,6.319,0,0,1,5.594-1.687c2.632.448,3.911,2.909,5.985,4.194,2.052-1.752,3.347-4.106,6.342-4.28a6.052,6.052,0,0,1,5.72,9.045c-.891,1.685-9.714,10.589-11.511,11.969-.247.19-.39.539-.791.461l-12.184-12.308a6.422,6.422,0,0,1,.845-7.395" transform="translate(-147.499 -150.838)" fill="#8d1939"/>
          <path id="Trazado_1279018" data-name="Trazado 1279018" d="M203.172,198c1.084.673,4.069,3.259,5.154,3.314s4.193-2.491,5.1-3.314c4.181.862,8.867,1.115,12.966,2.411,5.088,1.608,6.417,5.743,7.536,10.486h-9.259a11.331,11.331,0,0,0-.254-1.56,10.007,10.007,0,0,0-13.1-5.016c-.751.325-2.593,1.932-2.955,1.9-.423-.036-2.492-1.733-3.537-2.1a9.722,9.722,0,0,0-12.89,6.772H183c1.048-5.839,2.635-9.165,8.594-10.751,3.776-1.005,7.793-1.27,11.577-2.146" transform="translate(-122.485 -132.13)" fill="#8cd7b8"/>
          <path id="Trazado_1279019" data-name="Trazado 1279019" d="M244,193.312c1.725-.4,1.362-.562,1.322-2.316a24.66,24.66,0,0,0,7.606,0c-.036,1.7-.4,1.96,1.323,2.316-.9.823-4.022,3.369-5.1,3.314s-4.07-2.641-5.154-3.314" transform="translate(-163.314 -127.442)" fill="#f6dea4"/>
          <path id="Trazado_1279020" data-name="Trazado 1279020" d="M279.968,123c.4.076,1.905.177,2,.534.016,6.743.878,13.423-5.972,16.992.524-1.327,1.646-2.1,2.369-3.418,2.384-4.336,1.407-9.36,1.6-14.109" transform="translate(-184.732 -81.931)" fill="#d09e6a"/>
          <path id="Trazado_1279021" data-name="Trazado 1279021" d="M210.9,126v6.283c-2.7-.626-2.7-5.657,0-6.283" transform="translate(-139.806 -83.939)" fill="#d09e6a"/>
          <path id="Trazado_1279022" data-name="Trazado 1279022" d="M226,177c.623.673,3.576,2.591,3.645,2.81s.142.77-.225.823c-1.032.149-2.508.148-3.42.335Z" transform="translate(-151.266 -118.075)" fill="#e9e9e9"/>
          <path id="Trazado_1279023" data-name="Trazado 1279023" d="M305,132.283V126a3.581,3.581,0,0,1,0,6.283" transform="translate(-204.142 -83.939)" fill="#f6dea4"/>
          <path id="Trazado_1279024" data-name="Trazado 1279024" d="M22.243,34v3.637H14.968V131.22H75.979a3.318,3.318,0,0,0,.5-.5V106.088c.826.477.867,1.613,1.38,2.423.386.609,2.258,2.527,2.258,2.7v23.644H11V34Z" transform="translate(-7.363 -22.362)" fill="#ff9ebf"/>
          <path id="Trazado_1279025" data-name="Trazado 1279025" d="M191.622,45.243c.66.011,1.327,0,1.986,0l0-7.607H186V34h11.243v8.763c0,.164-1.946,1.869-2.3,2.325-1.22,1.547-2.083,3.275-3.317,4.785.148-1.47-.1-3.132,0-4.63" transform="translate(-124.493 -22.362)" fill="#ff9ebf"/>
          <path id="Trazado_1279026" data-name="Trazado 1279026" d="M210.5,160.267v3.968c-.743.152-5.43,1.54-5.619,1.321V157.62c-.659.006-1.326-.009-1.986,0,.189-1.794-.418-4.014.331-5.622.792.805,3.556,1.574,3.994,2.124.994,1.247,1.439,4.155,3.281,6.143" transform="translate(-135.761 -101.342)" fill="#ff9ebf"/>
          <path id="Trazado_1279027" data-name="Trazado 1279027" d="M88.076,24.227c.011-.66,0-1.327,0-1.986L56,22.243V11.5a3.318,3.318,0,0,1,.5-.5H95.351V22.243l-3.639,0c.006.659-.009,1.326,0,1.986ZM63.6,18.607c2.94-.066,4.454.878,3.984-2.83-.251-1.988-2.426-.88-3.984-1.142Zm24.478-3.975H84.1v3.98h3.98Z" transform="translate(-37.482 -6.968)" fill="#d09e6a"/>
          <rect id="Rectángulo_461205" data-name="Rectángulo 461205" width="3.98" height="3.98" transform="translate(46.62 7.664)" fill="#050504"/>
          <path id="Trazado_1279028" data-name="Trazado 1279028" d="M79,25.812V21.84c1.559.262,3.733-.846,3.985,1.142.469,3.708-1.045,2.764-3.985,2.83" transform="translate(-52.873 -14.172)" fill="#050504"/>
          <path id="Trazado_1279029" data-name="Trazado 1279029" d="M76.985,51c.009.551-.011,1.106,0,1.655,1.756.328,10.009-.5,10.935.142.644.448.172,2.966.308,3.826.55.009,1.1-.011,1.655,0-.1,1.5.148,3.16,0,4.63-.22,2.184-1.442,4.328-1.648,6.784-.229,2.728-.356,11.5.5,13.712A27.566,27.566,0,0,0,90.212,84.4c-.748,1.608-.141,3.827-.331,5.622-.551.009-1.106-.011-1.655,0l-.05,8.713c-.118.356-3.547,2.313-4.26,3.015-3.483,3.433-4.237,9.88-5.609,14.4H87.9c.14,6.814.564,13.655.331,20.5H34l0-83.995,39.354,0c.009-.55-.011-1.1,0-1.655Zm-20.5,5.622H45.24v5.126a3.318,3.318,0,0,1-.5.5H39.618V73.486H45.24v5.622H55.987a3.318,3.318,0,0,0,.5-.5V73.486h5.126a3.318,3.318,0,0,0,.5-.5V62.243H56.483Zm11.243,9.259H82.607V62.243H67.726Zm14.881,3.637H67.4c.065.706-.29,3.968.5,3.968H82.607ZM56.483,88.367H41.272V92H56.483Zm18.518,0H63.758V92H75ZM56.483,95.642H41.272V99.61H56.483Zm18.518,0H63.758V99.61H75ZM41.272,106.885H75v-3.637H41.272Zm0,7.606H75v-3.968H41.272Zm0,7.275H56.483v-3.637H41.272ZM75,118.128H63.758v3.637H75ZM41.272,129.371H75v-3.637H41.272Z" transform="translate(-22.753 -33.74)" fill="#e9e9e9"/>
          <path id="Trazado_1279030" data-name="Trazado 1279030" d="M88.228,310c-.016.454.17,1.934-.19,1.99l-54.043,0L34,310Z" transform="translate(-22.753 -207.094)" fill="#8cd7b8"/>
          <rect id="Rectángulo_461206" data-name="Rectángulo 461206" width="35" height="4" transform="translate(18 77)" fill="#050504"/>
          <rect id="Rectángulo_461207" data-name="Rectángulo 461207" width="35" height="4" transform="translate(18 69)" fill="#050504"/>
          <rect id="Rectángulo_461208" data-name="Rectángulo 461208" width="35" height="4" transform="translate(18 92)" fill="#050504"/>
          <rect id="Rectángulo_461209" data-name="Rectángulo 461209" width="16" height="3" transform="translate(18 62)" fill="#050504"/>
          <path id="Trazado_1279031" data-name="Trazado 1279031" d="M150.161,107v3.968H135.445c-.786,0-.431-3.262-.5-3.968Z" transform="translate(-90.307 -71.222)" fill="#050504"/>
          <rect id="Rectángulo_461210" data-name="Rectángulo 461210" width="16" height="4" transform="translate(18 54)" fill="#050504"/>
          <rect id="Rectángulo_461211" data-name="Rectángulo 461211" width="16" height="3" transform="translate(18 85)" fill="#050504"/>
          <rect id="Rectángulo_461212" data-name="Rectángulo 461212" width="15" height="3" transform="translate(45 29)" fill="#050504"/>
          <rect id="Rectángulo_461213" data-name="Rectángulo 461213" width="12" height="3" transform="translate(41 62)" fill="#050504"/>
          <rect id="Rectángulo_461214" data-name="Rectángulo 461214" width="12" height="4" transform="translate(41 54)" fill="#050504"/>
          <rect id="Rectángulo_461215" data-name="Rectángulo 461215" width="12" height="3" transform="translate(41 85)" fill="#050504"/>
          <path id="Trazado_1279032" data-name="Trazado 1279032" d="M67.865,68v5.622h5.622V84.369a3.318,3.318,0,0,1-.5.5H67.865V89.99a3.317,3.317,0,0,1-.5.5H56.622V84.865H51V73.622h5.126a3.318,3.318,0,0,0,.5-.5V68ZM63.9,71.637H60.259v5.622H54.637V80.9h5.622v5.622H63.9V80.9h5.622V77.259H63.9Z" transform="translate(-34.135 -45.119)" fill="#050504"/>
          <path id="Trazado_1279033" data-name="Trazado 1279033" d="M71.259,79v5.622h5.622v3.637H71.259v5.622H67.622V88.259H62V84.622h5.622V79Z" transform="translate(-41.498 -52.481)" fill="#8d1939"/>
        </g>
      </g>
    </g>
  </g>
</svg>
