<svg xmlns="http://www.w3.org/2000/svg" xmlns:xlink="http://www.w3.org/1999/xlink" width="150" height="150.001" viewBox="0 0 150 150.001">
  <defs>
    <clipPath id="clip-path">
      <rect id="Rectángulo_461224" data-name="Rectángulo 461224" width="77.8" height="77.804" fill="#f3f9ff"/>
    </clipPath>
  </defs>
  <g id="Grupo_1209929" data-name="Grupo 1209929" transform="translate(-308.711 -5910)">
    <g id="Grupo_1207900" data-name="Grupo 1207900" transform="translate(-167.789 -38.844)">
      <path id="Trazado_1267157" data-name="Trazado 1267157" d="M143.529,77.953A65.576,65.576,0,1,1,77.953,12.377a65.577,65.577,0,0,1,65.576,65.576" transform="translate(473.548 5945.891)" fill="#8d1939"/>
      <path id="Trazado_1267158" data-name="Trazado 1267158" d="M75.5,150.5A75.02,75.02,0,0,1,46.306,6.4a75.019,75.019,0,0,1,58.388,138.211A74.532,74.532,0,0,1,75.5,150.5Zm0-145.086A70.086,70.086,0,1,0,145.586,75.5,70.166,70.166,0,0,0,75.5,5.414Z" transform="translate(476 5948.344)" fill="#8d1939"/>
    </g>
    <g id="Grupo_1207901" data-name="Grupo 1207901" transform="translate(339.711 5941)">
      <g id="Grupo_1099618" data-name="Grupo 1099618" transform="translate(0 -1.09)">
        <rect id="Rectángulo_401104" data-name="Rectángulo 401104" width="87.065" height="88.114" transform="translate(0)" fill="none"/>
      </g>
      <g id="Grupo_1212549" data-name="Grupo 1212549" transform="translate(5 3.91)">
        <g id="Grupo_1212548" data-name="Grupo 1212548" clip-path="url(#clip-path)">
          <path id="Trazado_1279077" data-name="Trazado 1279077" d="M48.32,125.68a18.58,18.58,0,0,1,0-27.4,34.03,34.03,0,0,0-9.224,4.607l-.5-.068-1.081-1.558c14.051-10.068,31.874-9.76,46.02-.069,2.239,1.534,8.966,7.158,9.6,9.627.618,2.4-1.322,4.468-2.814,6.141-13.452,15.079-36.046,17.206-52.638,5.991-2.307-1.559-9.211-7.272-9.864-9.807-.611-2.371,1.25-4.369,2.707-6.028.632-.719,4.27-4.288,4.907-4.389l1.379,1.6c-1.571,1.569-3.394,2.989-4.852,4.667-2.311,2.658-2.447,3.144-.108,5.866A38.782,38.782,0,0,0,48.32,125.68m28.1-13.7a15.941,15.941,0,1,0-15.941,15.941,15.941,15.941,0,0,0,15.941-15.941m-3.784,13.7A38.783,38.783,0,0,0,89.1,114.855c2.257-2.627,2.255-3.128,0-5.753A39.562,39.562,0,0,0,72.745,98.273l2.589,3.158a18.433,18.433,0,0,1-2.7,24.249" transform="translate(-21.577 -73.079)" fill="#f3f9ff"/>
          <path id="Trazado_1279078" data-name="Trazado 1279078" d="M20.555,0V7.957H7.957v12.6H0V0ZM18.124,2.21H2.21V18.124H5.747V5.747H18.124Z" fill="#f3f9ff"/>
          <path id="Trazado_1279079" data-name="Trazado 1279079" d="M279.555,0V20.555H271.6V7.957H259V0Zm-2.21,2.21H261.431V5.747h12.377V18.124h3.536Z" transform="translate(-201.755)" fill="#f3f9ff"/>
          <path id="Trazado_1279080" data-name="Trazado 1279080" d="M7.957,259v12.6h12.6v7.957H0V259Zm-2.21,2.431H2.21v15.914H18.124v-3.536H5.747Z" transform="translate(0 -201.754)" fill="#f3f9ff"/>
          <path id="Trazado_1279081" data-name="Trazado 1279081" d="M279.555,259v20.555h-5.747v-2.21h3.536V261.431h-3.536v12.377H261.431v3.536h5.526v2.21H259V271.6h12.6V259Z" transform="translate(-201.755 -201.755)" fill="#f3f9ff"/>
          <rect id="Rectángulo_461222" data-name="Rectángulo 461222" width="2.218" height="2.218" transform="translate(67.629 75.586)" fill="#f3f9ff"/>
          <path id="Trazado_1279082" data-name="Trazado 1279082" d="M128.993,133.412c.711-.118,1.092.578,1.712.807a2.68,2.68,0,0,0,3.514-3.514c-.229-.62-.925-1-.807-1.712a10.8,10.8,0,0,1,15.678,10.7,10.967,10.967,0,0,1-9.394,9.394,10.8,10.8,0,0,1-10.7-15.678m1.316,3.083c-1.994,8.486,8.963,14.14,14.581,7.4,5.2-6.244-.592-15.347-8.395-13.586a4.986,4.986,0,0,1-6.186,6.186" transform="translate(-99.585 -99.585)" fill="#f3f9ff"/>
          <path id="Trazado_1279083" data-name="Trazado 1279083" d="M191.218,174.141l1.973.176-.11,2.128-2.128-.11c-.127-.528-.326-2,.265-2.193" transform="translate(-148.641 -135.652)" fill="#f3f9ff"/>
          <rect id="Rectángulo_461223" data-name="Rectángulo 461223" width="2.218" height="2.218" transform="translate(40.001 34.034)" fill="#f3f9ff"/>
        </g>
      </g>
    </g>
  </g>
</svg>
