<svg xmlns="http://www.w3.org/2000/svg" xmlns:xlink="http://www.w3.org/1999/xlink" width="150" height="150.001" viewBox="0 0 150 150.001">
  <defs>
    <clipPath id="clip-path">
      <rect id="Rectángulo_461227" data-name="Rectángulo 461227" width="87.065" height="70.348" fill="#fff"/>
    </clipPath>
  </defs>
  <g id="Grupo_1209930" data-name="Grupo 1209930" transform="translate(-308.711 -5910)">
    <g id="Grupo_1207900" data-name="Grupo 1207900" transform="translate(-167.789 -38.844)">
      <path id="Trazado_1267157" data-name="Trazado 1267157" d="M143.529,77.953A65.576,65.576,0,1,1,77.953,12.377a65.577,65.577,0,0,1,65.576,65.576" transform="translate(473.548 5945.891)" fill="#633c0b"/>
      <path id="Trazado_1267158" data-name="Trazado 1267158" d="M75.5,150.5A75.02,75.02,0,0,1,46.306,6.4a75.019,75.019,0,0,1,58.388,138.211A74.532,74.532,0,0,1,75.5,150.5Zm0-145.086A70.086,70.086,0,1,0,145.586,75.5,70.166,70.166,0,0,0,75.5,5.414Z" transform="translate(476 5948.344)" fill="#633c0b"/>
    </g>
    <g id="Grupo_1207901" data-name="Grupo 1207901" transform="translate(339.711 5941)">
      <g id="Grupo_1099618" data-name="Grupo 1099618" transform="translate(0 -0.09)">
        <rect id="Rectángulo_401104" data-name="Rectángulo 401104" width="87.065" height="88.114" transform="translate(0)" fill="none"/>
      </g>
      <g id="Grupo_1212552" data-name="Grupo 1212552" transform="translate(0 8.91)">
        <path id="Trazado_1279084" data-name="Trazado 1279084" d="M348.26,75.425v0Z" transform="translate(-304.354 -5.932)" fill="#fff"/>
        <g id="Grupo_1212551" data-name="Grupo 1212551">
          <g id="Grupo_1212550" data-name="Grupo 1212550" clip-path="url(#clip-path)">
            <path id="Trazado_1279085" data-name="Trazado 1279085" d="M343.263,2.14a.8.8,0,0,1-.721-.856V.856a.732.732,0,1,1,1.442,0v.428a.8.8,0,0,1-.721.856" transform="translate(-299.357)" fill="#fff"/>
            <path id="Trazado_1279086" data-name="Trazado 1279086" d="M343.263,93.245a.8.8,0,0,1-.721-.856v-.858a.732.732,0,1,1,1.442,0v.858a.8.8,0,0,1-.721.856m0-4.29a.8.8,0,0,1-.721-.856v-.858a.731.731,0,1,1,1.442,0V88.1a.8.8,0,0,1-.721.856m0-4.29a.8.8,0,0,1-.721-.856v-.858a.731.731,0,1,1,1.442,0v.858a.8.8,0,0,1-.721.856m0-4.29a.8.8,0,0,1-.721-.856v-.858a.731.731,0,1,1,1.442,0v.858a.8.8,0,0,1-.721.856m0-4.29a.8.8,0,0,1-.721-.856v-.858a.731.731,0,1,1,1.442,0v.858a.8.8,0,0,1-.721.856m0-4.29a.8.8,0,0,1-.721-.856v-.858a.731.731,0,1,1,1.442,0v.858a.8.8,0,0,1-.721.856m0-4.29a.8.8,0,0,1-.721-.856v-.858a.731.731,0,1,1,1.442,0v.858a.8.8,0,0,1-.721.856m0-4.29a.8.8,0,0,1-.721-.856V61.5a.732.732,0,1,1,1.442,0v.858a.8.8,0,0,1-.721.856m0-4.29a.8.8,0,0,1-.721-.856v-.858a.732.732,0,1,1,1.442,0v.858a.8.8,0,0,1-.721.856m0-4.29a.8.8,0,0,1-.721-.856v-.858a.732.732,0,1,1,1.442,0v.858a.8.8,0,0,1-.721.856m0-4.29a.8.8,0,0,1-.721-.856v-.858a.731.731,0,1,1,1.442,0v.858a.8.8,0,0,1-.721.856m0-4.29a.8.8,0,0,1-.721-.856v-.858a.731.731,0,1,1,1.442,0V45.2a.8.8,0,0,1-.721.856m0-4.29a.8.8,0,0,1-.721-.856v-.858a.731.731,0,1,1,1.442,0v.858a.8.8,0,0,1-.721.856m0-4.29a.8.8,0,0,1-.721-.856v-.858a.731.731,0,1,1,1.442,0v.858a.8.8,0,0,1-.721.856m0-4.29a.8.8,0,0,1-.721-.856v-.858a.731.731,0,1,1,1.442,0v.858a.8.8,0,0,1-.721.856" transform="translate(-299.357 -26.756)" fill="#fff"/>
            <path id="Trazado_1279087" data-name="Trazado 1279087" d="M343.263,543.169a.8.8,0,0,1-.721-.856v-.428a.732.732,0,1,1,1.442,0v.428a.8.8,0,0,1-.721.856" transform="translate(-299.357 -472.82)" fill="#fff"/>
            <path id="Trazado_1279088" data-name="Trazado 1279088" d="M11.762,218.96a10.6,10.6,0,0,1,0-15.63A19.411,19.411,0,0,0,6.5,205.958l-.287-.039L5.6,205.03a22.492,22.492,0,0,1,26.25-.039c1.277.875,5.114,4.083,5.477,5.491.353,1.369-.754,2.549-1.605,3.5A22.984,22.984,0,0,1,5.694,217.4c-1.316-.889-5.254-4.148-5.626-5.594-.349-1.353.713-2.492,1.544-3.438a17.766,17.766,0,0,1,2.8-2.5l.787.912c-.9.9-1.936,1.7-2.768,2.662-1.318,1.516-1.4,1.793-.062,3.346a22.121,22.121,0,0,0,9.394,6.174m16.027-7.815a9.093,9.093,0,1,0-9.092,9.093,9.093,9.093,0,0,0,9.092-9.093M25.63,218.96a22.122,22.122,0,0,0,9.394-6.174c1.288-1.5,1.286-1.784,0-3.281a22.566,22.566,0,0,0-9.33-6.177l1.477,1.8A10.514,10.514,0,0,1,25.63,218.96" transform="translate(0 -175.471)" fill="#fff"/>
            <path id="Trazado_1279089" data-name="Trazado 1279089" d="M100.8,237.989c.405-.067.623.33.977.46a1.529,1.529,0,0,0,2-2c-.13-.354-.527-.571-.46-.977a6.16,6.16,0,0,1,8.943,6.106,6.255,6.255,0,0,1-5.358,5.358,6.16,6.16,0,0,1-6.106-8.943m.751,1.758c-1.137,4.841,5.112,8.066,8.317,4.221a4.809,4.809,0,0,0-4.788-7.75,2.844,2.844,0,0,1-3.529,3.529" transform="translate(-87.517 -205.208)" fill="#fff"/>
            <path id="Trazado_1279090" data-name="Trazado 1279090" d="M163.346,281.112l1.125.1-.063,1.214-1.214-.063c-.073-.3-.186-1.141.151-1.251" transform="translate(-142.552 -245.672)" fill="#fff"/>
            <rect id="Rectángulo_461225" data-name="Rectángulo 461225" width="1.265" height="1.265" transform="translate(19.325 32.899)" fill="#fff"/>
            <path id="Trazado_1279091" data-name="Trazado 1279091" d="M405.762,218.96a10.6,10.6,0,0,1,0-15.63,19.411,19.411,0,0,0-5.261,2.628l-.287-.039-.616-.889a22.492,22.492,0,0,1,26.25-.039c1.277.875,5.115,4.083,5.477,5.491.353,1.369-.754,2.549-1.605,3.5a22.984,22.984,0,0,1-30.025,3.417c-1.316-.889-5.254-4.148-5.626-5.594-.349-1.353.713-2.492,1.544-3.438a17.766,17.766,0,0,1,2.8-2.5l.787.912c-.9.9-1.936,1.7-2.768,2.662-1.318,1.516-1.4,1.793-.062,3.346a22.121,22.121,0,0,0,9.394,6.174m16.027-7.815a9.092,9.092,0,1,0-9.092,9.093,9.092,9.092,0,0,0,9.092-9.093m-2.158,7.815a22.122,22.122,0,0,0,9.394-6.174c1.288-1.5,1.286-1.784,0-3.281a22.566,22.566,0,0,0-9.33-6.177l1.477,1.8a10.514,10.514,0,0,1-1.541,13.832" transform="translate(-344.327 -175.471)" fill="#fff"/>
            <path id="Trazado_1279092" data-name="Trazado 1279092" d="M494.8,237.989c.405-.067.623.33.977.46a1.529,1.529,0,0,0,2-2c-.13-.354-.527-.571-.46-.977a6.16,6.16,0,0,1,8.943,6.106,6.255,6.255,0,0,1-5.358,5.358,6.16,6.16,0,0,1-6.106-8.943m.751,1.758c-1.137,4.841,5.112,8.066,8.317,4.221a4.809,4.809,0,0,0-4.788-7.75,2.844,2.844,0,0,1-3.529,3.529" transform="translate(-431.845 -205.208)" fill="#fff"/>
            <path id="Trazado_1279093" data-name="Trazado 1279093" d="M557.346,281.112l1.125.1-.063,1.214-1.214-.063c-.073-.3-.186-1.141.151-1.251" transform="translate(-486.88 -245.672)" fill="#fff"/>
            <rect id="Rectángulo_461226" data-name="Rectángulo 461226" width="1.265" height="1.265" transform="translate(68.997 32.899)" fill="#fff"/>
          </g>
        </g>
      </g>
    </g>
  </g>
</svg>
