<svg xmlns="http://www.w3.org/2000/svg" xmlns:xlink="http://www.w3.org/1999/xlink" width="150" height="150.001" viewBox="0 0 150 150.001">
  <defs>
    <clipPath id="clip-path">
      <rect id="Rectángulo_461228" data-name="Rectángulo 461228" width="87.065" height="64.973" fill="#fff"/>
    </clipPath>
  </defs>
  <g id="Grupo_1209931" data-name="Grupo 1209931" transform="translate(-308.711 -5910)">
    <g id="Grupo_1207900" data-name="Grupo 1207900" transform="translate(-167.789 -38.844)">
      <path id="Trazado_1267157" data-name="Trazado 1267157" d="M143.529,77.953A65.576,65.576,0,1,1,77.953,12.377a65.577,65.577,0,0,1,65.576,65.576" transform="translate(473.548 5945.891)" fill="#6a2874"/>
      <path id="Trazado_1267158" data-name="Trazado 1267158" d="M75.5,150.5A75.02,75.02,0,0,1,46.306,6.4a75.019,75.019,0,0,1,58.388,138.211A74.532,74.532,0,0,1,75.5,150.5Zm0-145.086A70.086,70.086,0,1,0,145.586,75.5,70.166,70.166,0,0,0,75.5,5.414Z" transform="translate(476 5948.344)" fill="#6a2874"/>
    </g>
    <g id="Grupo_1207901" data-name="Grupo 1207901" transform="translate(339.711 5941)">
      <g id="Grupo_1099618" data-name="Grupo 1099618" transform="translate(0 -0.09)">
        <rect id="Rectángulo_401104" data-name="Rectángulo 401104" width="87.065" height="88.114" transform="translate(0)" fill="none"/>
      </g>
      <g id="Grupo_1212554" data-name="Grupo 1212554" transform="translate(0 11.91)">
        <g id="Grupo_1212553" data-name="Grupo 1212553" clip-path="url(#clip-path)">
          <path id="Trazado_1279094" data-name="Trazado 1279094" d="M87.056,32.243H79.789c-1.2,1.155.134,4.205-.776,5.361-.652.827-2.6.331-3.586.452l-.156,26.17c-.527.891-6.875.818-8.06.623a2.493,2.493,0,0,1-1.634-.95l-.159-25.843c-.717.036-3.878.222-3.878-.806V32.243H55.724l-4.189,20.2c-9.762,8.464-20.44,15.016-33.85,10.9C10.965,61.274,5.513,56.773.144,52.456L0,50.651,54.192.509,55.548.25C65.173.9,75.791-.555,85.3.25a2.992,2.992,0,0,1,1.769.492ZM85.118,2.526H56.047V29.982H85.118ZM53.785,4.466,14.7,40.639c10.249-4.329,19.58-2.256,28.593,3.55,1.9,1.221,3.536,2.717,5.355,4.012.29.206,1.341,1.09,1.581.838.515-6.183,3.065-12.814,3.55-18.9.658-8.259-.478-17.329,0-25.673M77.043,32.243H64.284c-.612.41-.5,1.114-.5,1.777a5.642,5.642,0,0,0,.072,1.242l.433.535H77.043Zm-9.367,30.04h5.491V38.058H67.676ZM22.7,40.731c-7.325.826-14.524,6.079-19.947,10.731a47.6,47.6,0,0,0,12.923,8.711c12.776,5.357,23.767-.042,33.25-8.711C41.633,44.97,32.924,39.579,22.7,40.731" transform="translate(0 0)" fill="#fff"/>
          <path id="Trazado_1279095" data-name="Trazado 1279095" d="M69.224,138.123a10.131,10.131,0,1,1-10.132-10.131,10.131,10.131,0,0,1,10.132,10.131m-2.294.02a7.836,7.836,0,1,0-7.836,7.836,7.836,7.836,0,0,0,7.836-7.836" transform="translate(-33.146 -86.649)" fill="#fff"/>
          <path id="Trazado_1279096" data-name="Trazado 1279096" d="M177.514,11.819A2.606,2.606,0,0,1,179.6,11a167.436,167.436,0,0,1,22.317,0,3.136,3.136,0,0,1,1.686.413,3.133,3.133,0,0,1,.413,1.686c.574,6.829-.467,14.433,0,21.349a1.784,1.784,0,0,1-.824,1.437H178l-.485-.485Zm2.261,21.8H201.74V13.6H179.775Z" transform="translate(-120.175 -7.193)" fill="#fff"/>
          <path id="Trazado_1279097" data-name="Trazado 1279097" d="M75.891,151.317a3.831,3.831,0,1,1-3.831-3.831,3.831,3.831,0,0,1,3.831,3.831m-2.343-.008a1.513,1.513,0,1,0-1.513,1.513,1.513,1.513,0,0,0,1.513-1.513" transform="translate(-46.189 -99.846)" fill="#fff"/>
          <path id="Trazado_1279098" data-name="Trazado 1279098" d="M192.8,42.551c-1.051-.32-.7-2.086,1.273-2.28a90.385,90.385,0,0,1,13.564.04c2.06.316,1.595,2.24.99,2.24Z" transform="translate(-130.13 -27.104)" fill="#fff"/>
          <path id="Trazado_1279099" data-name="Trazado 1279099" d="M192.8,54.551c-1.051-.32-.7-2.086,1.273-2.28a90.385,90.385,0,0,1,13.564.04c2.06.316,1.595,2.24.99,2.24Z" transform="translate(-130.13 -35.228)" fill="#fff"/>
        </g>
      </g>
    </g>
  </g>
</svg>
