<svg xmlns="http://www.w3.org/2000/svg" xmlns:xlink="http://www.w3.org/1999/xlink" width="113.341" height="113.341" viewBox="0 0 113.341 113.341">
  <defs>
    <clipPath id="clip-path">
      <rect id="Rectángulo_461035" data-name="Rectángulo 461035" width="71.22" height="42.668" fill="#6a2874"/>
    </clipPath>
  </defs>
  <g id="Grupo_1212913" data-name="Grupo 1212913" transform="translate(-743.678 -9125.896)">
    <path id="Trazado_998483" data-name="Trazado 998483" d="M125.718,69.047a56.67,56.67,0,1,1-56.67-56.67,56.671,56.671,0,0,1,56.67,56.67" transform="translate(731.301 9113.519)" fill="#fff"/>
    <g id="Grupo_1180408" data-name="Grupo 1180408" transform="translate(762.061 9143.96)">
      <g id="Grupo_1099618" data-name="Grupo 1099618" transform="translate(-0.604 0.122)">
        <rect id="Rectángulo_401104" data-name="Rectángulo 401104" width="76.991" height="77.919" transform="translate(0)" fill="none"/>
      </g>
      <g id="Grupo_1212100" data-name="Grupo 1212100" transform="translate(2.396 17.122)">
        <g id="Grupo_1212099" data-name="Grupo 1212099" clip-path="url(#clip-path)">
          <path id="Trazado_1277672" data-name="Trazado 1277672" d="M38.269,20.116,40.684,9.9c1.244-.889,1.861-.241,2.183,1.071.888,3.624,1.277,8.08,1.9,11.841.056.337.072,1.215.37,1.346L48.97.4C50.832-.726,51,.732,51.2,2.232c1.2,8.69,1.671,18.45,2.426,27.285.049.568-.028,1.148,0,1.715.312-.046.322-.863.369-1.144,1.052-6.164,1.505-13.377,2.914-19.319.247-1.041,1.232-1.821,2.079-.969.911.917,2.046,9.966,2.545,10.289,2.649.28,5.775-.284,8.365.022,1.746.207,1.7,2.177.186,2.417L60.241,22.5l-.851-.968-1.109-4.244L54.626,41.627c-.5,1.384-1.871,1.391-2.405.011L49.586,11.628c-.287.124-.326,1.02-.374,1.341-.948,6.319-1.857,12.642-2.879,18.949-.272,1.507-2.007,1.8-2.382.2L41.5,17.085l-1.2,4.559c-.748,1.713-4.051.542-5.638.932-2.018,5.718-6.621,10.211-11.822,13.138-1.138.641-4.293,2.361-5.442,2.145-1.278-.241-4.57-2.14-5.793-2.9C4.012,30.215-1.407,22.345.323,12.993,2.011,3.874,11.76,2.193,17.782,8.379a12.231,12.231,0,0,1,7.454-3.621c8.815-.64,11.606,8.117,10,15.358Zm-5.457,0c1.125-4.087.393-11.492-4.561-12.721a9.131,9.131,0,0,0-8.077,2c-.879.821-1.3,2.512-2.42,2.451-.908-.049-1.517-1.814-2.323-2.549C11.439,5.66,4.989,6.433,3.093,11.923-.136,21.274,7.227,30.132,15.022,34.167a19.6,19.6,0,0,0,2.628,1.222c.937.207,5.541-2.684,6.534-3.386,3.27-2.313,6.468-5.631,7.82-9.461H22.3A4.658,4.658,0,0,1,13.2,20.61c.484-5.019,8.161-5.37,9.106-.494Zm-12.936,0a2.363,2.363,0,1,0,0,2.429c-4.365.682-4.349-3.116,0-2.429" transform="translate(0 0)" fill="#6a2874"/>
          <path id="Trazado_1277673" data-name="Trazado 1277673" d="M24.685,75.442c1.842-.542,1.509,2.4,1.726,3.449.993,4.814,4.8,8.154,8.779,10.624.862.535,3.024,1.074,2.9,2.355-.049.492-.739.965-1.191,1.02-1.173.141-6.444-3.674-7.508-4.647a17.519,17.519,0,0,1-5.2-8.346c-.233-1.063-.893-4.049.493-4.456" transform="translate(-19.013 -60.141)" fill="#6a2874"/>
        </g>
      </g>
    </g>
  </g>
</svg>
