<svg id="Grupo_1209800" data-name="Grupo 1209800" xmlns="http://www.w3.org/2000/svg" xmlns:xlink="http://www.w3.org/1999/xlink" width="85" height="85" viewBox="0 0 85 85">
  <defs>
    <clipPath id="clip-path">
      <rect id="Rectángulo_460806" data-name="Rectángulo 460806" width="69.671" height="72.059" fill="#8d1939"/>
    </clipPath>
  </defs>
  <path id="Sustracción_110" data-name="Sustracción 110" d="M0,0H85V85H0Z" fill="#ffe19a"/>
  <g id="Grupo_1211415" data-name="Grupo 1211415" transform="translate(8 6)">
    <g id="Grupo_1211414" data-name="Grupo 1211414" clip-path="url(#clip-path)">
      <path id="Trazado_1274707" data-name="Trazado 1274707" d="M107.8,65.652c-2.352-3.229,4.23-1.645,4.643-2.062-.2-1.079.269-2.85,1.433-3.21.728-.226,1.546.173,2.07-.4-.7-1.346-3.168-2.757-3.456-4.174-.222-1.089.05-2.513-.051-3.663-.1-1.194-1.774-4.836.107-4.834,1.431,0,1.874,3.748,1.968,4.823a20.893,20.893,0,0,0,.036,3.059c.509,1.768,4.142,2.871,3.367,5.521-.568,1.943-3.066,1.473-3.322,1.835-.13,2.862.221,5.322-1.969,7.522-2.724,2.736-6.487,1.812-9.956,2.011-.59.193-.3,1.773-.3,2.3l15.93,6.144,4.575-6.81c.742-.7,1.441-.521,1.914.341l-.057.682-4.837,7.151a21.656,21.656,0,0,1,2.42,3.7,15.169,15.169,0,0,1,1.061,3.478v7.221c0,.673-2.063.673-2.063,0V89.483a14.755,14.755,0,0,0-1.061-3.272,6.167,6.167,0,0,0-1.533-2.189l-3.173,4.384a2.357,2.357,0,0,1-.732.354h-3.2a27.459,27.459,0,0,1,3.863,8.826c.591,2.843,1.17,6.586-2.37,7.626-1.579.464-9.238.463-10.781-.045-4.224-1.39-2.225-8.587-2.676-11.927l-4.025-2.82L91.5,93.3c-.446,2.782.232,6.045-.1,8.771a3.981,3.981,0,0,1-2.684,3.093c-1.037.326-3.572.567-3.061-1.2.344-1.187,1.882-.535,2.64-.875a4.281,4.281,0,0,0,1.036-1.234V94.95c-1.017.339-1.7,1.384-2.74,1.7a2.879,2.879,0,0,1-3.148-4.592c.818-.985,5.666-3.87,5.849-4.467.475-1.554-.454-3.53-2.288-3.119-1.449.325-4.768,4.171-5.682,5.466-1.934,2.743-4.515,8.556-3.946,11.917.5,2.964,6.09-.41,5.163,3.126-2.841,1.387-7.329.1-7.424-3.549C74.957,95.4,80,86.178,85.134,83.017A3.959,3.959,0,0,1,91.4,86.078l.8-.512c-1.249-1.46.235-2.714.422-3.727a10.331,10.331,0,0,0,.019-2.063c-.138-.991-.926-1.224-.85-2.678.075-1.429,1.146-1.821.85-3.924-.15-1.065-1.008-1.277-.841-2.882a3.041,3.041,0,0,1,1.81-2.319,16.054,16.054,0,0,1,3.982.044,2.883,2.883,0,0,1,1.539,3.827c-.2.456-.635.7-.718,1.138a9.309,9.309,0,0,0-.015,1.864c.111.813,1.085,1.4,1.029,2.655-.06,1.321-1.229,1.73-1.029,3.744.1.992.9,1.609,1.005,2.516.107.935-.8,1.7.143,2.317.584-2.334,1.971-3.933,4.549-3.723,2,.163,4.252,2.7,5.594,4.1,1.1-.107,4.078.395,4.823-.268.175-.156,2.331-3.4,2.388-3.608-.219-.681-1.468-1.131-2.135-1.406-4.223-1.739-8.927-2.86-13.2-4.546-1.976-1.081-2.023-6.215.674-6.631,3.86-.595,9.318,1.543,10.2-4.346ZM97.142,71.2c.083-.384.132-1.036-.31-1.182-.595.042-2.749-.306-2.948.3-.489,1.5,2.461,1.24,3.258.878m-.8,2.3H94.9v1.034h1.447Zm.8,3.329c-.644-.322-2.807-.438-3.175.175-.592,1.625,1.871.917,2.865,1.008.443-.146.392-.8.31-1.182M94.9,81.334c.872.068,1.765.1,1.357-1.048L94.9,80.094Zm2.242,3.273c.082-.384.132-1.036-.31-1.182-.594.042-2.747-.3-2.947.3l.082.705c.368.612,2.531.5,3.175.175m4.567,10.343v6.5a2.026,2.026,0,0,0,1.559,1.742,57.953,57.953,0,0,0,8.664.021c3.156-.291,1.585-4.945.973-6.976-1.014-3.37-5.026-10.032-8.251-11.556-2.069-.978-3.5,1.21-2.911,2.912.208.6,5.21,3.461,6.06,4.668a2.865,2.865,0,0,1-3.762,4.175c-.318-.152-2.136-1.713-2.332-1.485M85.061,93.362c-.431.4-.144,1.372.444,1.385l9.118-6.366c1.4-.611,1.746-.065,2.819.625,2.594,1.667,5.049,3.861,7.627,5.585a.782.782,0,0,0,.875-1.3l-8.492-6.156a7.394,7.394,0,0,0-3.573-.123Z" transform="translate(-59.613 -37.545)" fill="#8d1939"/>
      <path id="Trazado_1274708" data-name="Trazado 1274708" d="M10.322,69.784,11.447,70l49.523-.016a.8.8,0,0,0,.542-.284c.648-.823-.259-5.726.324-7.091a1.069,1.069,0,0,1,1.836.141,39.459,39.459,0,0,1,0,7.254,2.781,2.781,0,0,1-2.3,2.031l-50.743.023A3.016,3.016,0,0,1,8.044,69.07a128.022,128.022,0,0,1,.011-16.306,12.555,12.555,0,0,1,6.626-10.5c3.3-1.711,7.495-2.435,10.915-3.952l-4.682-8.565-4.462.051c-.865.257-3.485,3.885-4.607,4.47a1.715,1.715,0,0,1-1.925-.086L1.772,26.03.31,25.636c-.7-.743.04-1.335.05-1.924.009-.536-.368-1.238-.359-1.89A5.757,5.757,0,0,1,5.829,16.4c2.5.083,3.5,1.6,5.217,2.987.225-.031,1.55-1.582,1.975-1.891,5.112-3.713,11.788,2.616,7.406,8.231-.212.272-1.917,1.723-1.645,1.964,1.156.214,2.42-.574,3.409.2l5.362,9.5c.377.413.939-.146,1.422-.19l.08-8.337c-2.979-2.834-5.2-5.834-5.884-10C20.8,4.483,37-5.447,48.681,3.261c.82.611,4.6,3.657,2.086,4.335-.818.221-2.31-1.828-3-2.388C34.591-5.47,17.129,12.747,28.786,25.632c.855.945,2.182,1.529,2.493,2.872a47.377,47.377,0,0,1,.1,7.966,3.01,3.01,0,0,1-1.515,2.612c-2.746,1.6-8.671,2.857-11.956,4.138-2.55.995-4.6,2.008-6.1,4.42a14.043,14.043,0,0,0-1.481,3.677ZM4.751,25.838l6.265,6.173,8.062-8.045c2.292-3.347-1.64-7.028-5.024-4.612-1,.713-2.15,2.782-3.412,2.563-.791-.137-2.368-2.562-3.572-3.043a3.4,3.4,0,0,0-4.384,4.8l5.025.11c1.332-3.884,2.831-1.8,3.439,1.021.382-.012.155-.563.491-.846.429-.36,3.617-.608,3.616.745,0,1.4-1.806.931-2.153,1.336-.677.791-.278,3.627-2.222,3.067-.679-.2-1.205-2.358-1.387-3.063-.66-.078-.475.984-.932,1.438-1.172,1.165-2.035-.568-2.188-1.617Z" transform="translate(0 0.001)" fill="#8d1939"/>
      <path id="Trazado_1274709" data-name="Trazado 1274709" d="M287.731,48.022h6.4c-.414-1.55.747-3,2.021-1.507-.27,3.029.883,8.011-.9,10.571-.448.643-2.364,1.935-2.363,2.383a6.243,6.243,0,0,1,3.251,4.389,50.963,50.963,0,0,1,.049,7.989c-.346,1.774-2.8.554-2.058-1.338h-6.4c.367,1.6-.778,3.153-2.022,1.509.2-4.672-1.469-10.053,3.467-12.754a6.665,6.665,0,0,1-3.489-4.556,55.821,55.821,0,0,1,.075-8.143.833.833,0,0,1,.457-.576c1.617-.323,1.614.76,1.512,2.032m6.4,2.062h-6.4c.093.737-.278,1.726.31,2.27h6.087Zm0,4.333h-6.19c-.044,1.763,1.787,2.584,2.992,3.516,1.434-.909,2.8-1.737,3.2-3.516m-.206,9.7c.067-1.653-1.846-2.551-2.992-3.446-1.218.887-2.884,1.76-2.992,3.446Zm.206,2.063h-6.4v2.27h6.4Z" transform="translate(-226.653 -36.421)" fill="#8d1939"/>
      <path id="Trazado_1274710" data-name="Trazado 1274710" d="M157.2,24.457c2.8-.177,6.4,1.015,7.846,3.584.831,1.478,1.34,3.587-.883,3.791a93.008,93.008,0,0,1-12.6,0c-1.554-.141-1.683-.878-1.445-2.291.509-3.028,4.289-4.907,7.087-5.084m6.231,5.3c-1.656-4.256-9.49-4.2-11.142,0Z" transform="translate(-119.069 -19.397)" fill="#8d1939"/>
      <path id="Trazado_1274711" data-name="Trazado 1274711" d="M8.919,171.55c4.991.343,10.973-.61,15.848-.049,1.837.211,1.837,2.068,0,2.279-4.852.558-10.732-.435-15.7.006a1.122,1.122,0,0,1-.151-2.236" transform="translate(-6.291 -135.972)" fill="#8d1939"/>
      <path id="Trazado_1274712" data-name="Trazado 1274712" d="M152.543,73.684c-.6.6-2.422-.317-3.338,1.3a2.249,2.249,0,0,0,1.518,3.4c.878.205,2.033-.24,2.088,1.014.078,1.8-2.833,1.154-3.873.565a4.393,4.393,0,0,1,3.133-8.084,1.1,1.1,0,0,1,.472,1.8" transform="translate(-116.48 -56.975)" fill="#8d1939"/>
      <path id="Trazado_1274713" data-name="Trazado 1274713" d="M8.537,189.221H20.091a2.125,2.125,0,0,1,.733.939,1.638,1.638,0,0,1-.733,1.124H8.537c-.567,0-.8-1.783,0-2.063" transform="translate(-6.365 -150.179)" fill="#8d1939"/>
      <path id="Trazado_1274714" data-name="Trazado 1274714" d="M73.214,156.042c.358-.359,5.129-1,4.449,1.25-.235.777-3.485.712-4.147.516-.7-.207-.712-1.355-.3-1.766" transform="translate(-57.891 -123.553)" fill="#8d1939"/>
      <path id="Trazado_1274715" data-name="Trazado 1274715" d="M12.09,155.966c1.037.171.819,2.063,0,2.063H8.583c-.673,0-.673-2.063,0-2.063a27.468,27.468,0,0,1,3.508,0" transform="translate(-6.411 -123.733)" fill="#8d1939"/>
      <path id="Trazado_1274716" data-name="Trazado 1274716" d="M226.883,67.3c1.573-.3,1.7,2.831.75,3.454-1.879,1.231-2.447-3.128-.75-3.454" transform="translate(-179.268 -53.397)" fill="#8d1939"/>
    </g>
  </g>
</svg>
