<svg xmlns="http://www.w3.org/2000/svg" xmlns:xlink="http://www.w3.org/1999/xlink" width="113.341" height="113.341" viewBox="0 0 113.341 113.341">
  <defs>
    <clipPath id="clip-path">
      <rect id="Rectángulo_461036" data-name="Rectángulo 461036" width="53.988" height="77.919" fill="#6a2874"/>
    </clipPath>
  </defs>
  <g id="Grupo_1212915" data-name="Grupo 1212915" transform="translate(-1211.432 -2136.813)">
    <path id="Trazado_998483" data-name="Trazado 998483" d="M125.718,69.047a56.67,56.67,0,1,1-56.67-56.67,56.671,56.671,0,0,1,56.67,56.67" transform="translate(1199.055 2124.437)" fill="#fff"/>
    <g id="Grupo_1212101" data-name="Grupo 1212101" transform="translate(1241.211 2155)" clip-path="url(#clip-path)">
      <path id="Trazado_1277674" data-name="Trazado 1277674" d="M27.9,75.69c.893.276.511,2.356-.653,2.223L9.3,77.7l-.489-.838c.033-9.049-1.307-17.559,4.2-25.353,2.865-4.057,6.519-6.467,11.016-8.448-2.322-2.119-4.433-4.677-5.1-7.831C12.858,36.4,9.173,30.018,13.376,25.4A27.529,27.529,0,0,1,9.649,14.517,19.919,19.919,0,0,1,9.688,10.8c.387-1.267,2.434-.356,3.386-.355A7.04,7.04,0,0,0,16.931,9.2c1.1-.726,3.045-3.452,4.279-2.713,1.773,1.062-1.464,3.472-2.387,4.162a9.125,9.125,0,0,1-6.965,1.994,24.9,24.9,0,0,0,3.529,11.622l2.889-.115c-.312-2.3,1.409-3.718,3.538-3.986-1.67-2.784-.114-6.12,2.084-8.084,2.172-1.94,3.029-1.212,4.78.891a14.714,14.714,0,0,1,2.1,3.872c1.472-1.034,3.043-1.927,4.419-3.1,1.447-1.234,3.342-4.473,5.425-2.537,1.174,1.091,2.987,4.237,4.211,5.745,1.785,2.2,4.713,4.02,4.417,7.2a9.495,9.495,0,0,1,3.846.459c2.482-5.48,2.61-15.077-2.8-18.873-3.135-2.2-6.638-1.255-9.994-.162-1.056-.739-1.445-1.722-2.778-2.33a12.144,12.144,0,0,0-10.686.6c-.907.5-2.766,2.423-3.7,1.4-1.268-1.394,2.387-3.424,3.395-3.915a14.985,14.985,0,0,1,12.1-.081c.581.285,2.093,1.569,2.359,1.631.535.126,1.762-.515,2.405-.61C55.589.453,58.523,13.105,56.215,22.6c-.226.928-1.185,3.017-1.221,3.669-.03.542.765,1.489.874,2.207.695,4.595-2.887,7.533-7.266,6.755a15.424,15.424,0,0,1-5.1,7.832c2.329,1.227,4.692,2.162,6.737,3.877.209.175,1.193.964,1.234,1.033.579.958-.128,2.249-1.124,1.971-.444-.123-3.313-2.513-4.269-3.047-.63-.352-3.729-1.87-4.216-1.718l-.249.2c-1.067,7.52-11.683,9.155-14.971,2.366-1.139-2.352.158-3.228-3.137-1.889-5.522,2.244-12.31,9.817-12.31,16.008v6.747h8.628V62.748c0-.673,2.212-.876,2.212.221V75.69ZM24.324,40.216c7.891,7.89,21.575,3.032,22.682-8.024a54.8,54.8,0,0,0-.023-8.993c-.324-1.6-2.459-3.031-3.484-4.259a42.353,42.353,0,0,1-4.213-5.856,46.3,46.3,0,0,1-4.351,3.72c-1.274.915-3.784,2.022-4.7,2.822-.85.743-.735,1.494-2.219,2.205-2.106,1.01-2.938.149-4.93.381-.639.074-2.216.448-2.485,1.053-.258.581-.209,7.426-.123,8.521a14.329,14.329,0,0,0,3.846,8.432m1.392-26.674c-1.571,1.4-3.529,4.077-1.475,5.852a2.2,2.2,0,0,0,2.96.292c2.344-1.425.5-5.2-1.484-6.144M18.274,32.993V26.688c-1.3-.941-3.416.062-4.069,1.462-1.351,2.9,1.134,5.348,4.069,4.843m30.972,0c5.929.822,5.86-7.683,0-6.416ZM39.288,45.382a16.119,16.119,0,0,1-11.061.113,5.7,5.7,0,0,0,11.061-.113M11.194,75.69h8.628V71.044H11.194Z" transform="translate(-6.766 0)" fill="#6a2874"/>
      <path id="Trazado_1277675" data-name="Trazado 1277675" d="M133.689,241.865a24.259,24.259,0,0,0-2.055-6.352c-.464-.983-3.285-4.532-.51-4.372.978.056,2.4,2.895,2.824,3.827,2.494,5.457,2.729,15.3,2.185,21.287a1.83,1.83,0,0,1-.674,1.538l-26.764-.006c-.893-.569-.846-1.4-.116-2.1h14.269V242.971c0-1.1,2.212-.894,2.212-.221v5.863h8.628c-.167-2.159.225-4.628,0-6.747m0,9.181h-8.628v4.646h8.628Z" transform="translate(-84.13 -180.002)" fill="#6a2874"/>
      <path id="Trazado_1277676" data-name="Trazado 1277676" d="M1.934,199.093a1.269,1.269,0,0,1-1.819-.156c-.543-1.1.981-2.757,1.668-3.642.948-1.221,5.279-5.85,6.566-6.059a1.233,1.233,0,0,1,1.281,1.738c-.146.291-3.712,2.99-4.431,3.755a35.313,35.313,0,0,0-3.266,4.363" transform="translate(0 -147.361)" fill="#6a2874"/>
      <path id="Trazado_1277677" data-name="Trazado 1277677" d="M207.763,199.093a35.379,35.379,0,0,0-3.266-4.363c-.707-.756-4.3-3.5-4.431-3.755a1.233,1.233,0,0,1,1.281-1.738c1.287.209,5.618,4.837,6.566,6.059.687.885,2.212,2.542,1.668,3.642a1.269,1.269,0,0,1-1.819.156" transform="translate(-155.708 -147.361)" fill="#6a2874"/>
      <path id="Trazado_1277678" data-name="Trazado 1277678" d="M100.687,144.174a5.805,5.805,0,0,1,5.479,2.148c.843,1.087,2.27,4.39.226,4.662a64.352,64.352,0,0,1-9.315,0c-.821-.08-1.1-.1-1.216-1-.336-2.637,2.272-5.449,4.825-5.812m4.257,4.587a3.526,3.526,0,0,0-6.637,0Z" transform="translate(-74.631 -112.229)" fill="#6a2874"/>
      <path id="Trazado_1277679" data-name="Trazado 1277679" d="M83.357,110.35c1.032,1.028-.628,1.761-.786,2.314s.063,2.04-.479,2.4a1.3,1.3,0,0,1-2.008-1c-1.409.762-2.745-1.052-1.4-1.966.337-.23.871-.265,1.263-.506.864-.531,2.453-2.192,3.413-1.236" transform="translate(-60.842 -85.711)" fill="#6a2874"/>
      <path id="Trazado_1277680" data-name="Trazado 1277680" d="M144.354,114.057c-.112,1-.691,1.3-1.669,1.11-1.011-.2-.616-1.8-.817-2.5-.159-.554-1.817-1.286-.786-2.314.96-.956,2.549.705,3.413,1.236.464.285,1.134.3,1.5.709.956,1.065-.424,2.438-1.643,1.763" transform="translate(-109.609 -85.71)" fill="#6a2874"/>
      <path id="Trazado_1277681" data-name="Trazado 1277681" d="M139.033,75.16c1.543-1.562,3.09,2.628,1.058,3.175-1.534.412-1.69-2.535-1.058-3.175" transform="translate(-108.003 -58.262)" fill="#6a2874"/>
      <path id="Trazado_1277682" data-name="Trazado 1277682" d="M123.787,89.892a1.389,1.389,0,0,1-1.735-.094c-.336-.527-.408-2.522.237-2.839,2.043-1,2.183,2.245,1.5,2.933" transform="translate(-94.855 -67.573)" fill="#6a2874"/>
      <path id="Trazado_1277683" data-name="Trazado 1277683" d="M154.609,89.138c1.723-.468,2.016,3.312.358,3.461-1.552.139-1.641-3.112-.358-3.461" transform="translate(-119.711 -69.387)" fill="#6a2874"/>
    </g>
  </g>
</svg>
