<svg xmlns="http://www.w3.org/2000/svg" xmlns:xlink="http://www.w3.org/1999/xlink" width="96" height="96" viewBox="0 0 96 96">
  <defs>
    <clipPath id="clip-path">
      <rect id="Rectángulo_455595" data-name="Rectángulo 455595" width="96" height="96" fill="none"/>
    </clipPath>
    <clipPath id="clip-path-2">
      <rect id="Rectángulo_461031" data-name="Rectángulo 461031" width="48.609" height="58.374" fill="#fff"/>
    </clipPath>
  </defs>
  <g id="Grupo_1207823" data-name="Grupo 1207823" transform="translate(-735.746 -9118)">
    <g id="Grupo_1180407" data-name="Grupo 1180407" transform="translate(735.746 9117.971)">
      <g id="Grupo_1179172" data-name="Grupo 1179172" transform="translate(0 0.03)" clip-path="url(#clip-path)">
        <path id="Trazado_998483" data-name="Trazado 998483" d="M92.562,52.469A40.092,40.092,0,1,1,52.469,12.377,40.093,40.093,0,0,1,92.562,52.469" transform="translate(-4.455 -4.484)" fill="#8d1939"/>
        <path id="Trazado_998485" data-name="Trazado 998485" d="M90.9,46.451A44.45,44.45,0,1,1,46.451,2,44.45,44.45,0,0,1,90.9,46.451Z" transform="translate(1.564 1.535)" fill="none" stroke="#8d1939" stroke-miterlimit="10" stroke-width="4"/>
      </g>
    </g>
    <g id="Grupo_1180408" data-name="Grupo 1180408" transform="translate(755.746 9137)">
      <g id="Grupo_1099618" data-name="Grupo 1099618" transform="translate(-0.035 -0.65)">
        <rect id="Rectángulo_401104" data-name="Rectángulo 401104" width="56.349" height="57.028" transform="translate(0)" fill="none"/>
      </g>
      <g id="Grupo_1212053" data-name="Grupo 1212053" transform="translate(3.965 -1.65)">
        <g id="Grupo_1212052" data-name="Grupo 1212052" clip-path="url(#clip-path-2)">
          <path id="Trazado_1277628" data-name="Trazado 1277628" d="M24.705,31.183c-.17-.722-1.576-1.131-2.18-1.52a8,8,0,0,1-3.473-5.577c-2.7.32-4.588-1.3-4.375-4.293.06-.848.5-1.477.488-2.336a37.023,37.023,0,0,0-.678-4.98c-.172-.606-.97-1.253-1.339-1.916-1.308-2.349-.656-4.771,1.828-5.6.05-3.9,2.937-5.545,6.316-4.784.328.074.707.4,1.012.411s.805-.38,1.239-.445c2.606-.39,4.28.686,6.1,2.492,4.077.347,8.81-.987,12.432,1.44.776.52,2.691,2.083,2.06,3.139-.66,1.1-1.825-.823-2.285-1.224-3.087-2.689-8.272-1.051-12.036-1.529-2.054-.261-2.535-3.006-5.655-2.659a8.753,8.753,0,0,0-1.288.462c-1.167.246-2.053-.666-3.251-.643A3.148,3.148,0,0,0,16.6,4.273c-.1.555.078,1.069-.211,1.615-.466.882-1.894.562-2.228,1.977-.417,1.761,1.355,2.474,1.824,4.017a34.069,34.069,0,0,1,.6,4.547l.206.235,2.27-.3c.332-1.626.593-6.185,1.626-7.3,1.219-1.315,4.226.193,5.837.425a26.94,26.94,0,0,0,7.318,0c1.4-.2,4.092-1.3,5.277-.906,1.708.565,1.953,6.129,2.356,7.775l2.176.186c.1-1.71.487-3.4.6-5.106.029-.455-.4-1.651.455-1.9,1.248-.37,1.173,1.628,1.139,2.4-.067,1.536-.886,4.419-.778,5.687.026.31.431.71.549,1.09.97,3.135-1.049,5.849-4.132,5.382a8.546,8.546,0,0,1-4.085,5.928c-.3.194-1.729.7-1.729,1.165V35.87l.235.251h8.142c1.866,0,4.14,2.177,4.425,4.141a46.784,46.784,0,0,1,.03,6.815c-.082.475-.932,1.431-1.323,1.431H31.2l-.235.251v4.185c0,.294-.874,1.14-1.207,1.22-.532.128-2.914-.08-3.021.034.344,2.724-2.006,2.125-3.736,2.2a2.23,2.23,0,0,1-1.676,1.975L1.4,58.27a1.77,1.77,0,0,1-1.289-1.8c-.363-4.006.28-8.646.017-12.721-.046-.413.917-1.432,1.165-1.432H4.741c.581,0,.485,1.674-.313,1.674H1.688v3.85H13.823c.4,0,1.174,1.029,1.174,1.423V56.71h6.028l.235-.251V43.989H7.873c-.541,0-.859-1.408-.125-1.64.632-.2,3.973.123,4.119-.033-.206-2.539,1.128-5.171,3.472-5.913.167-.053,1.065-.281,1.146-.281h8.221c-.209-1.34.281-3.741,0-4.938M38.622,10.2c-1.5.2-2.953.721-4.469.955a25.006,25.006,0,0,1-9.762-.389c-.547-.119-2.149-.774-2.51-.513-.33.238-1.134,5.123-1.226,5.888-.491,4.085-.991,9.657,2.8,12.115-.023-3.013,1.572-6.6,4.067-8.124,5.033-3.073,9.43,2.914,9.557,7.956,1.832-.752,2.824-3.489,2.98-5.433A39.233,39.233,0,0,0,38.622,10.2m-19.71,8.014c-3.528-.769-3.616,4.694-.156,4.185Zm24.842,3.624a3.423,3.423,0,0,0,.191-2.85c-.455-.944-1.494-.794-2.33-.775l.157,4.186a2.517,2.517,0,0,0,1.982-.561m-11.063,8.93c1.084-.205,2.459-.774,2.652-2.1.488-3.363-2.368-8.322-5.949-7.532-2.96.653-6.253,7.535-2.968,9.219.308.158,1.206.525,1.412.165V27.668a3.593,3.593,0,0,1,1.1-1.5,2.332,2.332,0,0,1,3.281.662,7.842,7.842,0,0,1,.47.836Zm-1.566,3.683V28.17c0-.879-1.722-.8-1.722-.167v6.445ZM29.4,36.288c-2.118-.213-1.417-2.086-1.635-3.692l-1.34-.492v3.934c0,.3-.465.937-.47,1.176-.013.7,2.723,2.082,3.445,1.921Zm1.566,2.846a5.624,5.624,0,0,0,3.459-1.584c.347-.479-.328-.935-.328-1.178V32.1l-1.409.336c-.018,1.623.423,3.825-1.723,3.849ZM29.4,40.975a8.052,8.052,0,0,1-5.114-2.986c-2.519.171-5.5-.324-7.961-.028-2.064.248-3.047,2.294-2.74,4.353h8.064c.382,0,1.331,1.349,1.331,1.758v2.762H29.4Zm11.744,5.859V42.9c0-.83,1.566-.677,1.566-.167v3.85l.235.251H46.7l.235-.251V40.724A3.54,3.54,0,0,0,44.475,38a49.425,49.425,0,0,0-7.956-.049c-.661.094-1.045.911-1.561,1.344a8.22,8.22,0,0,1-3.989,1.678v5.608l.235.251ZM29.4,48.508h-6.42v1.841h2.74c.632,0,1.311,1.512,1.018,2.176H29.4Zm-16.128,1H1.688v6.947l.235.251H13.275Zm11.9,2.511H22.983V54.7h2.192Z" transform="translate(0 0)" fill="#fff"/>
          <path id="Trazado_1277629" data-name="Trazado 1277629" d="M198.431,79.009c-.175.186-.572.192-.816.214a22.708,22.708,0,0,1-3.76-.012c-.648-.131-.725-1.069-.358-1.462.25-.268,3.894-.309,4.421-.2a.926.926,0,0,1,.514,1.462" transform="translate(-160.924 -64.521)" fill="#fff"/>
          <path id="Trazado_1277630" data-name="Trazado 1277630" d="M141.543,78.9a1.171,1.171,0,0,1-.664.207,23.635,23.635,0,0,1-3.917,0c-.76-.148-.721-1.494.161-1.67a25.2,25.2,0,0,1,3.907,0,.926.926,0,0,1,.514,1.462" transform="translate(-113.588 -64.412)" fill="#fff"/>
          <path id="Trazado_1277631" data-name="Trazado 1277631" d="M147.991,98.8c1.214-.33,1.563,2.672-.158,2.12-.7-.224-.564-1.924.158-2.12" transform="translate(-122.704 -82.244)" fill="#fff"/>
          <path id="Trazado_1277632" data-name="Trazado 1277632" d="M204.512,98.86c.83-.9,2.022.991,1.061,1.885-1.221.7-1.649-1.247-1.061-1.885" transform="translate(-170.061 -82.115)" fill="#fff"/>
          <path id="Trazado_1277633" data-name="Trazado 1277633" d="M60.773,302.113c.787.845-.767,2.638-1.6,1.625-.788-.96.965-2.306,1.6-1.625" transform="translate(-49.102 -251.388)" fill="#fff"/>
          <path id="Trazado_1277634" data-name="Trazado 1277634" d="M18.633,322.1c-.782-.836.84-2.568,1.6-1.625.789.98-.908,2.364-1.6,1.625" transform="translate(-15.341 -266.604)" fill="#fff"/>
          <path id="Trazado_1277635" data-name="Trazado 1277635" d="M19.571,301.9a.914.914,0,0,1,.958,1.024c-.1.7-1.494,1.57-1.934.624-.3-.65.388-1.549.976-1.648" transform="translate(-15.422 -251.36)" fill="#fff"/>
          <path id="Trazado_1277636" data-name="Trazado 1277636" d="M39.908,320c2.249.592-.282,3.034-.965,1.809-.415-.745.324-1.567.965-1.809" transform="translate(-32.324 -266.433)" fill="#fff"/>
          <path id="Trazado_1277637" data-name="Trazado 1277637" d="M60.252,320c2.153.519-.439,3.3-1.085,1.588-.252-.669.551-1.345,1.085-1.588" transform="translate(-49.223 -266.431)" fill="#fff"/>
          <path id="Trazado_1277638" data-name="Trazado 1277638" d="M40.344,301.867c.985-.166,1.209.966.361,1.735-1.473,1.335-2-1.458-.361-1.735" transform="translate(-32.749 -251.324)" fill="#fff"/>
        </g>
      </g>
    </g>
  </g>
</svg>
