<svg xmlns="http://www.w3.org/2000/svg" xmlns:xlink="http://www.w3.org/1999/xlink" width="96" height="96" viewBox="0 0 96 96">
  <defs>
    <clipPath id="clip-path">
      <rect id="Rectángulo_455595" data-name="Rectángulo 455595" width="96" height="96" fill="none"/>
    </clipPath>
    <clipPath id="clip-path-2">
      <rect id="Rectángulo_461034" data-name="Rectángulo 461034" width="55.06" height="48.353" fill="#fff"/>
    </clipPath>
  </defs>
  <g id="Grupo_1209865" data-name="Grupo 1209865" transform="translate(-735.746 -9118)">
    <g id="Grupo_1180407" data-name="Grupo 1180407" transform="translate(735.746 9117.971)">
      <g id="Grupo_1179172" data-name="Grupo 1179172" transform="translate(0 0.03)" clip-path="url(#clip-path)">
        <path id="Trazado_998483" data-name="Trazado 998483" d="M92.562,52.469A40.092,40.092,0,1,1,52.469,12.377,40.093,40.093,0,0,1,92.562,52.469" transform="translate(-4.455 -4.484)" fill="#8d1939"/>
        <path id="Trazado_998485" data-name="Trazado 998485" d="M90.9,46.451A44.45,44.45,0,1,1,46.451,2,44.45,44.45,0,0,1,90.9,46.451Z" transform="translate(1.564 1.535)" fill="none" stroke="#8d1939" stroke-miterlimit="10" stroke-width="4"/>
      </g>
    </g>
    <g id="Grupo_1180408" data-name="Grupo 1180408" transform="translate(755.746 9137)">
      <g id="Grupo_1099618" data-name="Grupo 1099618" transform="translate(-0.035 -0.648)">
        <rect id="Rectángulo_401104" data-name="Rectángulo 401104" width="56.349" height="57.028" transform="translate(0)" fill="none"/>
      </g>
      <g id="Grupo_1212059" data-name="Grupo 1212059" transform="translate(0.965 4.351)">
        <g id="Grupo_1212058" data-name="Grupo 1212058" clip-path="url(#clip-path-2)">
          <path id="Trazado_1277656" data-name="Trazado 1277656" d="M7.875,42.761C7.019,45.08,4.732,46.5,2.3,45.454c-3.985-1.718-2.451-8.076,2.339-7.422,1.63.223,2.6,1.676,3.257,3.012h7.666l2.4-8.958L6.81,29.4c-.8.249-1.259.847-2.17.973a3.906,3.906,0,1,1,2.3-6.336c.276.31.535,1.079.921,1.089l22.292-2.2.01-2.026c-1.7-.161-3.7,1.2-5.092-.246-.4-.412-.458-.965-.962-1.241L6.944,14.017c-.466-.04-1.312.727-2,.905a3.9,3.9,0,1,1,2.768-4.688l15.206-.045a5.886,5.886,0,0,0,2.1-2.64c.518-1.767.1-2.85,1.408-4.524,3.828-4.91,13.013-3.563,15.589,2.028,1.164,2.526.8,6.3-.094,8.892-.514,1.49-1.533,2.856-1.867,4.4a19.3,19.3,0,0,0-.082,4.644c3.549,1.24,9.068,3,11.051,6.438,2.7,4.683,2.639,12.767,4.027,18.014l-.411.91H14.823l-.381-.217c-.452-.561.72-4.462.805-5.376Zm45.333,3.9c-1.045-4.79-1.27-10.31-2.973-14.906-1.266-3.419-4.853-5.1-8.124-6.281-.808-.291-3.581-.785-3.78-1.473a36.13,36.13,0,0,1,.008-5.682c.218-1.612,1.268-2.975,1.824-4.446.941-2.486,1.472-6.08.169-8.481C38.311,1.664,32.157.5,28.819,3.035,26.5,4.793,27.3,5.946,26.563,8.236a6.083,6.083,0,0,1-1.656,2.412,10.3,10.3,0,0,1,4.638.614c2.865,1.131,6.038,4.649,6.038,7.859V32.763H36.94c-.074-2.828,2.157-6.225,5.006-3.567,1.773,1.654,5.7,9.9,5.99,12.312s-.478,4.946-3.416,4.431c-2.115-.37-2.041-2.695-3.3-2.974-1.313-.293-4.3,1.975-4.628-.794a57.766,57.766,0,0,1,0-6.62c.009-.431.343-.822-.076-1.094H32.7v8.05c0,.492-.8,1.045-1.288,1.1-1.219.132-2.213-.987-3.466-.6-1.182.367-.91,2.373-2.9,2.858-2.264.551-3.714-.879-3.7-3.1l-4.3-.006-.79,3.905ZM3.684,8.9a2.263,2.263,0,0,0,.42,4.5c2.934-.188,2.5-4.9-.42-4.5m17.664,3.017H7.875l-.254.421,16.691,5.345c.28.016.281.032.246-.246a3.457,3.457,0,0,0-.92-2.3c-1.186-1.019-2.752-.951-2.29-3.217M33.888,32.763V19.12A8.521,8.521,0,0,0,32.359,15.4a7.9,7.9,0,0,0-8.978-2.629c-.1.392.079.279.215.386a8.611,8.611,0,0,1,1.646,1.226,6.082,6.082,0,0,1,.851,1.691v3.22c0,.1.384.4.58.408,1.271.077,4.25-1.445,4.967.146a11.137,11.137,0,0,1,.092,4.237c-.248.521-2.769.961-3.523,1.222-2.2.763-5.514,2.379-7.034,4.151a2.63,2.63,0,0,0-.844,1.613l4.925,1.1c.971-1.371,2.3-4.047,4.269-3.94s2.778,2.72,2.913,4.375ZM5.53,28.13c1.985-1.985-.924-5.181-3.081-3.336-2.311,1.977.946,5.471,3.081,3.336m18.359-2.822L7.872,26.828l-.232.924,10.985,2.8A7.169,7.169,0,0,1,20.75,27.5Zm7.117,16.606c-.121-2.953.24-6.128-.188-9.047-.172-1.172-.677-3.907-2.271-2.479C27,31.772,23.3,39.77,23.061,41.847c-.113.983-.211,2.452,1.081,2.456s1.138-.913,1.707-1.7c1.3-1.8,3.376-1.559,5.156-.689m13.268,2.154c1.054.862,2.148-.212,2.156-1.388.015-2.164-3.934-10.512-5.505-12.123-.751-.77-1.338-.946-1.869.17a16.774,16.774,0,0,0-.768,4.995c-.095,2.054.083,4.138.009,6.193,1.763-.83,3.761-1.145,5.082.593a16.425,16.425,0,0,0,.9,1.56m-26.993-3h4.237L24.4,33.611l-4.817-1.029ZM3.337,39.75c-2.585.536-1.949,4.956,1.11,4.327a2.234,2.234,0,0,0-1.11-4.327" transform="translate(0 0)" fill="#fff"/>
        </g>
      </g>
    </g>
  </g>
</svg>
