<svg xmlns="http://www.w3.org/2000/svg" xmlns:xlink="http://www.w3.org/1999/xlink" width="162.25" height="162.25" viewBox="0 0 162.25 162.25">
  <defs>
    <clipPath id="clip-path">
      <rect id="Rectángulo_461022" data-name="Rectángulo 461022" width="79.341" height="90.643" fill="#6a2874"/>
    </clipPath>
  </defs>
  <g id="Grupo_1212047" data-name="Grupo 1212047" transform="translate(-561.711 -5857)">
    <g id="Grupo_1209874" data-name="Grupo 1209874" transform="translate(256.564 -4155.94)">
      <g id="Grupo_1177470" data-name="Grupo 1177470" transform="translate(305.146 10012.421)">
        <circle id="Elipse_13609" data-name="Elipse 13609" cx="81.125" cy="81.125" r="81.125" transform="translate(0 0.52)" fill="#f6e1fe"/>
        <g id="Grupo_1207827" data-name="Grupo 1207827" transform="translate(35.635 35.96)">
          <g id="Grupo_1099618" data-name="Grupo 1099618" transform="translate(0.365 0.078)">
            <rect id="Rectángulo_401104" data-name="Rectángulo 401104" width="90" height="90" transform="translate(0)" fill="none"/>
          </g>
          <g id="Grupo_1212040" data-name="Grupo 1212040" transform="translate(5.365 -0.441)">
            <g id="Grupo_1212039" data-name="Grupo 1212039" clip-path="url(#clip-path)">
              <path id="Trazado_1277586" data-name="Trazado 1277586" d="M6.084,6.224A7.731,7.731,0,0,1,12.247.2C18.115-.652,23.2,1.135,23.723,7.65a14.323,14.323,0,0,1,7.041-4.238c3.473-.8,14.109-.8,17.6-.051a14.281,14.281,0,0,1,7.25,4.288C56.139,1.133,61.229-.651,67.094.2c2.557.37,6.162,3.349,6.162,6.027V11.8c3.44-.159,5.634-.223,5.974,3.751.165,1.924.3,8.512-.822,9.83a5.194,5.194,0,0,1-1.392.942H73.257v8.818c3.442-.159,5.633-.221,5.974,3.751.161,1.869.243,8.131-.613,9.52a5.939,5.939,0,0,1-1.341,1.252h-4.02V64.319c0,.345,2.853,4.137,2.853,6.224v20.1H3.231v-20.1c0-2.088,2.853-5.88,2.853-6.224V49.666H2.064A5.943,5.943,0,0,1,.723,48.413c-.857-1.389-.774-7.651-.613-9.52.341-3.973,2.532-3.911,5.974-3.751V26.324H2.324a5.193,5.193,0,0,1-1.392-.942c-1.123-1.318-.987-7.906-.822-9.83.341-3.974,2.535-3.91,5.974-3.751.175-1.74-.238-3.894,0-5.576m14.524,8.429V6.224A14.5,14.5,0,0,0,19.416,4.3c-1.784-1.865-7.014-1.81-8.93-.163A5.848,5.848,0,0,0,8.937,7v10.5H14.9c.264-3.152,3.267-2.945,5.706-2.853m49.8,2.853V7a5.847,5.847,0,0,0-1.548-2.86c-1.916-1.647-7.146-1.7-8.93.163a14.5,14.5,0,0,0-1.193,1.92v8.429c2.439-.092,5.442-.3,5.706,2.853ZM55.621,14.653c-.584-4.193-4.392-8.177-8.677-8.57a108.515,108.515,0,0,0-14.286,0,10.224,10.224,0,0,0-8.937,8.57Zm-49.535,0H3.23v2.855H6.086Zm70.025,0H73.256v2.855h2.855ZM61.586,17.765H17.755v2.853H61.586Zm-55.5,2.852H3.23v2.855H6.086Zm8.816,0H8.937v20.1l.389.389h5.187c1.038-3.147,3.059-3.334,6.095-3.112V23.471c-2.417.095-5.622.373-5.706-2.853m55.5,0H64.439c-.083,3.226-3.288,2.948-5.706,2.853V37.995c3.036-.222,5.057-.035,6.095,3.112h5.187l.389-.389Zm5.707,0H73.256v2.855h2.855Zm-20.49,2.854H23.72V37.995h31.9ZM6.086,37.994H3.23v3.115H6.086Zm70.025,0H73.256v3.115h2.855ZM61.586,41.107H17.755V43.96H61.586Zm-55.5,2.852H3.23v2.855H6.086Zm8.816,0H8.937V53.3c1.282-.369,2.058-1.986,3.13-2.706a8.737,8.737,0,0,1,2.187-.925h6.354V46.813H16.847c-.6,0-2.346-2-1.945-2.853m55.5,0H64.439c.4.856-1.341,2.853-1.945,2.853H58.733v2.853h6.354a8.729,8.729,0,0,1,2.187.925c1.072.72,1.848,2.337,3.13,2.706Zm5.707,0H73.256v2.855h2.855Zm-23.6,2.854H26.832a8.842,8.842,0,0,0,5.345,2.825c.732.092,2.783-.186,3.1.271l.166,6.577,4.226,4.328L43.9,56.486l.166-6.577c.318-.457,2.369-.179,3.1-.271a8.842,8.842,0,0,0,5.345-2.825M23.72,48.11v9.337l8.574-1.715-.017-3.212c-3.376-.169-6.222-2.162-8.558-4.41m31.9,9.337V48.11c-2.336,2.249-5.181,4.241-8.558,4.41l-.017,3.211ZM20.608,52.778H13.995c-.85,1.309-4.4,3.787-4.923,4.932-.408.9.015,2.6-.133,3.625,3.645-1.856,7.711-2.258,11.669-3.111Zm44.738,0H58.733v5.446c3.964.812,8.023,1.281,11.67,3.111-.148-1.021.275-2.726-.133-3.625-.52-1.146-4.073-3.623-4.923-4.932M36.169,61.593l-2.782-2.808-3.183.48,1.3,3.885Zm12.968-2.328-3.183-.48-2.782,2.808,4.664,1.557ZM6.084,71.322V87.791H17.755V73.4c.684-.738,1.926-.272,2.853-.389V87.4l.389.389H58.344l.389-.389V73.008c.927.117,2.169-.349,2.853.389V87.791H73.257V71.322c0-1.566-1.64-4.67-2.717-5.841C66.516,61.106,57.4,61.686,52,59.782l-2.867,8.556c-1.657-1.186-3-3.124-5.184-3.371V79.88c0,.374-1.347,1.69-1.8,1.829-.995.306-4.566.268-5.448-.286a5.216,5.216,0,0,1-1.309-1.544V64.968a7.193,7.193,0,0,0-3.8,2.166c-.413.378-.607,1.306-1.384,1.205L27.34,59.782C19.9,62.081,7.184,60.916,6.084,71.322M41.1,64.449H38.244V78.973H41.1Z" transform="translate(0 0)" fill="#6a2874"/>
              <rect id="Rectángulo_461021" data-name="Rectángulo 461021" width="2.853" height="8.818" transform="translate(38.244 26.324)" fill="#6a2874"/>
            </g>
          </g>
        </g>
      </g>
      <ellipse id="Elipse_13678" data-name="Elipse 13678" cx="19.243" cy="19.243" rx="19.243" ry="19.243" transform="translate(305.965 10136.186)" fill="#da9dfe"/>
      <g id="Grupo_1207826" data-name="Grupo 1207826" transform="translate(305.146 10138.641)">
        <path id="Trazado_998481" data-name="Trazado 998481" d="M0,13.854q4.835.419,9.664.868l-.27.112,1.389-2.491a.373.373,0,0,1,.426-.131.271.271,0,0,1,.2.185l0,.01,1.186,5.359L11.7,17.7l1.915-4.337,1.934-4.332,1.94-4.33L19.452.377A.822.822,0,0,1,20.394.03.578.578,0,0,1,20.9.6V.609l-.77,7.01-.812,7.007-.823,7.006-.854,7L16.044,28.4c1.235-2.953,2.506-5.9,3.765-8.845l1.893-4.42,1.917-4.414,0-.011a.7.7,0,0,1,.8-.305.505.505,0,0,1,.439.47l-.29,5.628-.314,5.627-.826-.118,2.776-5.324,0-.009a.291.291,0,0,1,.3-.125l5.25.671,5.247.689-5.291-.467-5.287-.485.3-.133-2.494,5.4a.472.472,0,0,1-.54.2.338.338,0,0,1-.286-.3v-.012l.079-5.631.1-5.631L24.836,11,23.051,15.45l-1.809,4.44c-1.209,2.959-2.407,5.921-3.64,8.874a.892.892,0,0,1-1.022.4c-.373-.087-.6-.356-.57-.635v0l.812-7.007.842-7,.854-7,.9-7,1.444.232-2.048,4.3-2.069,4.3-2.074,4.3-2.093,4.29-.005.011a.513.513,0,0,1-.588.2.382.382,0,0,1-.3-.278l-.924-5.388.624.063L9.86,14.986l0,.007a.273.273,0,0,1-.265.1q-4.8-.609-9.59-1.244" transform="translate(0 4.51) rotate(-7)" fill="#fff"/>
      </g>
    </g>
    <path id="Trazado_1271663" data-name="Trazado 1271663" d="M79.8,53.239V66.476a.9.9,0,0,1-.9.895H68.265a.9.9,0,0,0-.9.9V78.909a.9.9,0,0,1-.9.9H53.239a.9.9,0,0,1-.9-.9V68.266a.9.9,0,0,0-.895-.9H40.767a.9.9,0,0,1-.9-.895V53.239a.9.9,0,0,1,.9-.9H51.449a.9.9,0,0,0,.895-.895V40.768a.9.9,0,0,1,.9-.9H66.475a.9.9,0,0,1,.9.9V51.449a.9.9,0,0,0,.9.895H78.908a.9.9,0,0,1,.9.9" transform="translate(639.755 5821.313)" fill="#8d1939"/>
  </g>
</svg>
