<svg xmlns="http://www.w3.org/2000/svg" xmlns:xlink="http://www.w3.org/1999/xlink" width="162.25" height="162.25" viewBox="0 0 162.25 162.25">
  <defs>
    <clipPath id="clip-path">
      <rect id="Rectángulo_461023" data-name="Rectángulo 461023" width="78.031" height="81.519" fill="#6a2874"/>
    </clipPath>
  </defs>
  <g id="Grupo_1212046" data-name="Grupo 1212046" transform="translate(-893.711 -5856.519)">
    <g id="Grupo_1209873" data-name="Grupo 1209873" transform="translate(588.854 -4155.94)">
      <g id="Grupo_1177470" data-name="Grupo 1177470" transform="translate(305.146 10012.421)">
        <circle id="Elipse_13609" data-name="Elipse 13609" cx="81.125" cy="81.125" r="81.125" transform="translate(-0.289 0.038)" fill="#f6e1fe"/>
        <g id="Grupo_1207827" data-name="Grupo 1207827" transform="translate(24.635 35.96)">
          <g id="Grupo_1099618" data-name="Grupo 1099618" transform="translate(11.076 -2.44)">
            <rect id="Rectángulo_401104" data-name="Rectángulo 401104" width="90" height="90" transform="translate(0)" fill="none"/>
          </g>
          <g id="Grupo_1212045" data-name="Grupo 1212045" transform="translate(16.076 1.561)">
            <g id="Grupo_1212042" data-name="Grupo 1212042" transform="translate(0 0)">
              <g id="Grupo_1212041" data-name="Grupo 1212041" clip-path="url(#clip-path)">
                <path id="Trazado_1277587" data-name="Trazado 1277587" d="M2.75,146.389c.3.3,3.677,1.325,4.5,1.723,3.188,1.535,6.774,4.222,3.036,7.531a19.7,19.7,0,0,1-6.476,3.248c-.123.022-.294.033-.256-.086.41-1.165,2.358-3.882,2.4-4.953a1.2,1.2,0,0,0-1.982-.939l-3.971,7.81a1.407,1.407,0,0,0,.764,1.208,57.652,57.652,0,0,0,6.96,3.616c.993.313,1.891.076,1.814-1.115-.072-1.1-3.144-2.192-4.113-2.725-.25-.137-.754-.338-.849-.6,7.671-1.953,14.759-8.843,5-14.469-1.071-.618-4.965-2.4-6.047-2.328a1.208,1.208,0,0,0-.781,2.077" transform="translate(57.698 -99.783)" fill="#6a2874"/>
              </g>
            </g>
            <g id="Grupo_1212044" data-name="Grupo 1212044" transform="translate(0 0)">
              <g id="Grupo_1212043" data-name="Grupo 1212043" clip-path="url(#clip-path)">
                <path id="Trazado_1277588" data-name="Trazado 1277588" d="M96.817,84.468l3.98,11.617c-.022,1.327-5.913,8.264-6.356,11.5-.412,3.008.141,6.319.254,9.31.1,2.738-.1,10.142,1.2,12.146,2.634,4.057,9.479,2.817,10-1.989.418-3.861-.441-7.887-.546-11.737-.117-4.28.346-6.314,2.628-9.941.148-.235.255-.592.583-.615.677,2.587.9,5.71,1.825,8.189,1.956,5.241,6.928,11.061,9.392,16.237,4.988,4.784,12.228-.24,9.125-6.722-1.493-3.119-7.481-10.859-8-13.36-.674-3.267.1-8.918-.362-12.719-.4-3.311-2.442-7.319-2.641-10.176-.012-.167-.071-.441.138-.4,3.1,2.829,5.209,8.828,10.423,6.683,3.568-1.468,3.527-4.9,2.038-7.931-3.5-7.137-12.035-17.517-20.934-16.3-2.429.331-13.829,3.722-15.553,5-1.01.751-3.655,4.128-4.581,4.216-.514.049-2.251-1.493-2.765-1.943-1.814-1.589-6.149-6.592-8.2-7.017a4.71,4.71,0,0,0-4.612,7.547C75.982,79.068,81.3,85.2,84.146,87.4c2.448,1.883,4.322,3.115,7.517,1.925,2.312-.861,3.4-3.28,5.153-4.854m1.071,37.376a97.063,97.063,0,0,1-.47-13.952c.6-3.579,6.349-8.839,6.342-11.811a9.256,9.256,0,0,0-.523-2.144c-1.3-4.388-3.306-8.619-4.6-13.02a1.646,1.646,0,0,0-2.078-.585c-1.75.811-4.112,6-6.612,6.484-2.391.459-6-3.434-7.536-5.158-.411-.463-2.706-3.089-2.82-3.335a.694.694,0,0,1-.1-.609L82,75.135c2.777,1.848,4.618,6,8.509,5.033,2.361-.587,3.052-2.722,4.7-4.113,1.814-1.529,10.847-4.024,13.562-4.592,7.614-1.593,12.552,4.808,16.582,10.2L121.267,85l-5.944-7.217a1.586,1.586,0,0,0-2.5,1.205c1.819,7.329,4.767,14.274,5.1,21.891.141,3.2-.6,7.386.687,10.259.675,1.5,5.331,8.119,5.2,8.937-.758.353-3.984,3.227-4.548,2.83-1.317-3.612-4.609-7.206-6.02-10.667-1.482-3.635-1.59-8.8-2.87-12.615-.8-1.34-2.018-.875-2.823.245-.5.7-4.946,9.349-5.057,9.893-.323,1.57.117,3.65-.072,5.29l.545,6.8ZM77.937,71.433c.819.173,1.461,1.166,2.059,1.688l-2.531,2.53c-2.077-1.041-2.225-4.789.473-4.218m48.917,12.773c.95,1.583,2.735,3.565.946,5.211-1.963,1.806-3.269-.631-4.545-1.879Zm-1.362,38.459c3.772,4.044-2.081,8.244-4.356,3.083Zm-27.6,2.115h5.072c.995,5.1-5.542,5.128-5.072,0" transform="translate(-66.884 -49.959)" fill="#6a2874"/>
                <path id="Trazado_1277589" data-name="Trazado 1277589" d="M165.645.139c-13.421-1.947-15.016,17.22-3.105,18.59,12.533,1.441,14.308-16.964,3.105-18.59M157.306,10.48c-.635-6.5,7.043-10.295,11.477-5.2Zm1.6,2.675,11.209-5.076c.992,3.624-2,7.5-5.726,7.753-2.1.142-4.714-.553-5.483-2.677" transform="translate(-130.306 0)" fill="#6a2874"/>
                <path id="Trazado_1277590" data-name="Trazado 1277590" d="M148.592,104.184a2.053,2.053,0,0,0,1.613.3,1.833,1.833,0,0,0,.963-1.422c.015-1.34-3.477-8.27-2.9-8.94,1.776-.652,6.177-1.209,7.567-2.177a1.439,1.439,0,0,0-1-2.621,8.438,8.438,0,0,0-1.289.33,53.385,53.385,0,0,0-7.832,2.311c-1.157.548-1.013.985-.8,2.161Z" transform="translate(-112.114 -65.473)" fill="#6a2874"/>
              </g>
            </g>
          </g>
        </g>
      </g>
      <ellipse id="Elipse_13678" data-name="Elipse 13678" cx="19.243" cy="19.243" rx="19.243" ry="19.243" transform="translate(305.965 10136.186)" fill="#da9dfe"/>
      <g id="Grupo_1207826" data-name="Grupo 1207826" transform="translate(305.146 10138.641)">
        <path id="Trazado_998481" data-name="Trazado 998481" d="M0,13.854q4.835.419,9.664.868l-.27.112,1.389-2.491a.373.373,0,0,1,.426-.131.271.271,0,0,1,.2.185l0,.01,1.186,5.359L11.7,17.7l1.915-4.337,1.934-4.332,1.94-4.33L19.452.377A.822.822,0,0,1,20.394.03.578.578,0,0,1,20.9.6V.609l-.77,7.01-.812,7.007-.823,7.006-.854,7L16.044,28.4c1.235-2.953,2.506-5.9,3.765-8.845l1.893-4.42,1.917-4.414,0-.011a.7.7,0,0,1,.8-.305.505.505,0,0,1,.439.47l-.29,5.628-.314,5.627-.826-.118,2.776-5.324,0-.009a.291.291,0,0,1,.3-.125l5.25.671,5.247.689-5.291-.467-5.287-.485.3-.133-2.494,5.4a.472.472,0,0,1-.54.2.338.338,0,0,1-.286-.3v-.012l.079-5.631.1-5.631L24.836,11,23.051,15.45l-1.809,4.44c-1.209,2.959-2.407,5.921-3.64,8.874a.892.892,0,0,1-1.022.4c-.373-.087-.6-.356-.57-.635v0l.812-7.007.842-7,.854-7,.9-7,1.444.232-2.048,4.3-2.069,4.3-2.074,4.3-2.093,4.29-.005.011a.513.513,0,0,1-.588.2.382.382,0,0,1-.3-.278l-.924-5.388.624.063L9.86,14.986l0,.007a.273.273,0,0,1-.265.1q-4.8-.609-9.59-1.244" transform="translate(0 4.51) rotate(-7)" fill="#fff"/>
      </g>
    </g>
    <path id="Trazado_1277591" data-name="Trazado 1277591" d="M79.8,53.239V66.476a.9.9,0,0,1-.9.895H68.265a.9.9,0,0,0-.9.9V78.909a.9.9,0,0,1-.9.9H53.239a.9.9,0,0,1-.9-.9V68.266a.9.9,0,0,0-.895-.9H40.767a.9.9,0,0,1-.9-.895V53.239a.9.9,0,0,1,.9-.9H51.449a.9.9,0,0,0,.895-.895V40.768a.9.9,0,0,1,.9-.9H66.475a.9.9,0,0,1,.9.9V51.449a.9.9,0,0,0,.9.895H78.908a.9.9,0,0,1,.9.9" transform="translate(970.755 5821.313)" fill="#8d1939"/>
  </g>
</svg>
