<svg xmlns="http://www.w3.org/2000/svg" xmlns:xlink="http://www.w3.org/1999/xlink" width="162.25" height="162.25" viewBox="0 0 162.25 162.25">
  <defs>
    <clipPath id="clip-path">
      <rect id="Rectángulo_461020" data-name="Rectángulo 461020" width="77.882" height="78.103" fill="#6a2874"/>
    </clipPath>
  </defs>
  <g id="Grupo_1212037" data-name="Grupo 1212037" transform="translate(-1185.711 -5856.519)">
    <g id="Grupo_1209876" data-name="Grupo 1209876" transform="translate(880.564 -4155.94)">
      <g id="Grupo_1177470" data-name="Grupo 1177470" transform="translate(305.146 10012.421)">
        <circle id="Elipse_13609" data-name="Elipse 13609" cx="81.125" cy="81.125" r="81.125" transform="translate(0 0.038)" fill="#f6e1fe"/>
        <g id="Grupo_1207827" data-name="Grupo 1207827" transform="translate(35.635 35.96)">
          <g id="Grupo_1099618" data-name="Grupo 1099618" transform="translate(0.365 0.56)">
            <rect id="Rectángulo_401104" data-name="Rectángulo 401104" width="90" height="90" transform="translate(0)" fill="none"/>
          </g>
          <g id="Grupo_1212036" data-name="Grupo 1212036" transform="translate(6.366 5.56)">
            <g id="Grupo_1212035" data-name="Grupo 1212035" clip-path="url(#clip-path)">
              <path id="Trazado_1277584" data-name="Trazado 1277584" d="M54.87,7.341c.214-1.508-1.531-1.719-2.221-3.06a4.51,4.51,0,0,1-.489-2.356c.934.152,2.53-.238,3.344.042.579.2.308,1.076,1.332.995,1.5-.118-.062-2.433,2.76-2.673A117.324,117.324,0,0,1,76.133.3c.879.1,1.469.369,1.7,1.282l.051,51.659c-.669,1.893-2.684,1.493-4.327,1.495.217,2.85-.09,6.055-3,7.422a13.985,13.985,0,0,1-2.275.7h-4.2l.043,3.884c1.451,1.093,3.351,2.2,3.684,4.17,1.336,7.915-8.718,9.708-10.895,3.312-1.124-3.305.768-5.978,3.648-7.439V62.857H18.311V67.19c5.163,1.217,4.989,9.343-.049,10.648-7.3,1.892-10.613-7.993-3.786-10.691l.044-4.29H10.593a18.578,18.578,0,0,1-2.306-.672c-1-.431-2.975-2.465-2.975-3.525V54.733c-1.841-.145-4.365.706-5.088-1.547C.491,47.906-.328,41.908.157,36.713a3.277,3.277,0,0,1,.67-2.038,30.149,30.149,0,0,1,3.311-2.647,5.554,5.554,0,0,1,6.058.624L20.4,44.718l4.955,0a4.233,4.233,0,0,1,3.912-4.89c8.759-.867,18.97.656,27.883.037,2.511.481,3.551,2.444,3.679,4.851H74.1V3.821H60.828a5.231,5.231,0,0,1-.54,1.22c-.724.851-1.894,1.013-1.628,2.3,2.191.216,4.617-.946,4.888,2.02.242,2.65.388,7.8-1.225,9.9-.819,1.069-3.372,2.439-3.59,2.774-.253.388-.4,2.14-.744,2.911-.932,2.118-3.33,3.161-5.557,3.245V24.4a2.158,2.158,0,0,0,2.441-1.773c-1.751-2.071-4.346-2.505-4.973-5.579a39.217,39.217,0,0,1-.158-8.2c.086-.535.671-1.506,1.2-1.506Zm-1.354,3.52v5.552c0,.595,2.817,2.61,3.337,2.519.877-.563,3.162-1.923,3.162-3.061v-4.6c0-.258-.633-.463-.951-.425-.655.076-.548.759-.863.838a18.462,18.462,0,0,1-2.935.016c-.6-.074-.629-1.232-1.75-.835M25.082,48.5H19.259c-1.1,0-9.924-11.635-11.629-13.012-1.3-.75-2.03-.01-2.853.961L17.364,50.941h7.718Zm-13,2.437L3.959,41.192v9.749Zm23.831-7.583H29.821a4.049,4.049,0,0,0-.676.407c-.749.883.427,5.7,0,7.176h6.77Zm10.561,7.583V43.765l-.406-.406H39.705v7.583Zm10.561,0V44.036a4.52,4.52,0,0,0-.677-.677H50.4L50,43.765v6.77l.406.406ZM74.1,48.5H60.828v2.437H74.1Zm-4.333,6.229H8.833c.058,1.5-.445,3.288,1.151,4.129l58.025.209c2.375-.159,1.674-2.624,1.755-4.338M15.8,70.491c-2.151.647-1.407,4.335.968,3.962,2.6-.409,2.053-4.871-.968-3.962m47.934,3.392a2.01,2.01,0,0,0-2.774-2.909c-2.023,1.8.956,4.72,2.774,2.909" transform="translate(0 0)" fill="#6a2874"/>
              <path id="Trazado_1277585" data-name="Trazado 1277585" d="M54.583,10.441h8.53c.53,0,1.116.972,1.2,1.506a54.85,54.85,0,0,1,.031,8.391c-.084.641-.955,1.747-1.5,1.747h-8.26v8.26c0,.565-1.169,1.378-1.776,1.473a48.624,48.624,0,0,1-7.58.029c-.775-.07-2.289-.61-2.289-1.5v-8.26h-8.26c-.548,0-1.418-1.106-1.5-1.747a54.85,54.85,0,0,1,.031-8.391c.086-.535.671-1.506,1.2-1.506h8.53V1.91c0-.834,1.343-1.169,2.019-1.231a52.311,52.311,0,0,1,8.12.03c.535.086,1.506.671,1.506,1.2ZM50.792,4.212H46.73v8.26c0,.76-1.385,1.76-2.031,1.76H36.981v4.062h8.26a3.371,3.371,0,0,1,1.489,1.489v8.26h4.062v-8.26c0-2.762,9.2-.742,9.9-1.743l-.135-3.691c-.537-.374-6.117.011-7.433-.149-.739-.09-2.333-.563-2.333-1.458Z" transform="translate(-24.086 -0.391)" fill="#6a2874"/>
            </g>
          </g>
        </g>
      </g>
      <ellipse id="Elipse_13678" data-name="Elipse 13678" cx="19.243" cy="19.243" rx="19.243" ry="19.243" transform="translate(305.965 10136.186)" fill="#da9dfe"/>
      <g id="Grupo_1207826" data-name="Grupo 1207826" transform="translate(305.146 10138.641)">
        <path id="Trazado_998481" data-name="Trazado 998481" d="M0,13.854q4.835.419,9.664.868l-.27.112,1.389-2.491a.373.373,0,0,1,.426-.131.271.271,0,0,1,.2.185l0,.01,1.186,5.359L11.7,17.7l1.915-4.337,1.934-4.332,1.94-4.33L19.452.377A.822.822,0,0,1,20.394.03.578.578,0,0,1,20.9.6V.609l-.77,7.01-.812,7.007-.823,7.006-.854,7L16.044,28.4c1.235-2.953,2.506-5.9,3.765-8.845l1.893-4.42,1.917-4.414,0-.011a.7.7,0,0,1,.8-.305.505.505,0,0,1,.439.47l-.29,5.628-.314,5.627-.826-.118,2.776-5.324,0-.009a.291.291,0,0,1,.3-.125l5.25.671,5.247.689-5.291-.467-5.287-.485.3-.133-2.494,5.4a.472.472,0,0,1-.54.2.338.338,0,0,1-.286-.3v-.012l.079-5.631.1-5.631L24.836,11,23.051,15.45l-1.809,4.44c-1.209,2.959-2.407,5.921-3.64,8.874a.892.892,0,0,1-1.022.4c-.373-.087-.6-.356-.57-.635v0l.812-7.007.842-7,.854-7,.9-7,1.444.232-2.048,4.3-2.069,4.3-2.074,4.3-2.093,4.29-.005.011a.513.513,0,0,1-.588.2.382.382,0,0,1-.3-.278l-.924-5.388.624.063L9.86,14.986l0,.007a.273.273,0,0,1-.265.1q-4.8-.609-9.59-1.244" transform="translate(0 4.51) rotate(-7)" fill="#fff"/>
      </g>
    </g>
    <path id="Trazado_1271665" data-name="Trazado 1271665" d="M79.8,53.239V66.476a.9.9,0,0,1-.9.895H68.265a.9.9,0,0,0-.9.9V78.909a.9.9,0,0,1-.9.9H53.239a.9.9,0,0,1-.9-.9V68.266a.9.9,0,0,0-.895-.9H40.767a.9.9,0,0,1-.9-.895V53.239a.9.9,0,0,1,.9-.9H51.449a.9.9,0,0,0,.895-.895V40.768a.9.9,0,0,1,.9-.9H66.475a.9.9,0,0,1,.9.9V51.449a.9.9,0,0,0,.9.895H78.908a.9.9,0,0,1,.9.9" transform="translate(1263.756 5821.313)" fill="#8d1939"/>
  </g>
</svg>
