<svg xmlns="http://www.w3.org/2000/svg" xmlns:xlink="http://www.w3.org/1999/xlink" width="113.341" height="113.341" viewBox="0 0 113.341 113.341">
  <defs>
    <clipPath id="clip-path">
      <rect id="Rectángulo_461193" data-name="Rectángulo 461193" width="72.238" height="77.919" fill="#6a2874"/>
    </clipPath>
  </defs>
  <g id="Grupo_1212923" data-name="Grupo 1212923" transform="translate(-901.932 -650.788)">
    <path id="Trazado_998483" data-name="Trazado 998483" d="M125.718,69.047a56.67,56.67,0,1,1-56.67-56.67,56.671,56.671,0,0,1,56.67,56.67" transform="translate(889.555 638.411)" fill="#fff"/>
    <g id="Grupo_1212515" data-name="Grupo 1212515" transform="translate(923.009 668.601)">
      <g id="Grupo_1212512" data-name="Grupo 1212512">
        <g id="Grupo_1212511" data-name="Grupo 1212511" clip-path="url(#clip-path)">
          <path id="Trazado_1278768" data-name="Trazado 1278768" d="M35.536,9.74,56.6,30.923c1.39,5.751,3.9,11.571,5.267,17.277.633,2.65.273,5.273-2.685,6.192-3.25,1.01-4.961-.893-5.971-3.665-1.65-4.528-2.65-9.541-4.252-14.115L46.917,34.8V45.635a9.445,9.445,0,0,1-.61,1.579,4.675,4.675,0,0,1-7.754,0,9.444,9.444,0,0,1-.61-1.579V40.492h2.189V45.2a7.393,7.393,0,0,0,.724,1.355,2.332,2.332,0,0,0,3.725-1.066c.433-1.662.36-10.113.161-12.122a1.606,1.606,0,0,0-.22-.874c-.13-.225-3.324-3.179-3.731-3.491-.221-.169-.276-.422-.658-.327v9.412H37.943V28.016H28.422l-2.513,2.517,8.312,8.318a4.491,4.491,0,0,1-6.912,5.7c-4.5-5.672-16.287-13.2-16.287-21.025V6.785c.568.1,2.164-.294,2.377.359.383,5.473-.4,11.415.023,16.83a11.394,11.394,0,0,0,2.848,6.345A129.907,129.907,0,0,0,28.854,42.905c2.145,1.716,4.328.449,3.887-2.136-2.927-3.695-6.659-6.783-9.9-10.236l4.747-4.661H40.634l10.317,9.6c1.83,4.8,2.686,10.618,4.617,15.3,1.084,2.629,4.18,1.8,4.47-.744L54.545,32.1l-21.2-21.263V0h2.189Z" transform="translate(-8.61)" fill="#6a2874"/>
          <rect id="Rectángulo_461190" data-name="Rectángulo 461190" width="2.408" height="4.815" transform="translate(44.436 19.917)" fill="#6a2874"/>
          <rect id="Rectángulo_461191" data-name="Rectángulo 461191" width="2.408" height="4.596" transform="translate(2.412)" fill="#6a2874"/>
          <rect id="Rectángulo_461192" data-name="Rectángulo 461192" width="5.034" height="2.189" transform="translate(50.565 28.672)" fill="#6a2874"/>
          <path id="Trazado_1278769" data-name="Trazado 1278769" d="M226.067,102.479l-3.419,3.377-1.608-1.407,3.419-3.377Z" transform="translate(-172.66 -78.95)" fill="#6a2874"/>
        </g>
      </g>
      <g id="Grupo_1212514" data-name="Grupo 1212514">
        <g id="Grupo_1212513" data-name="Grupo 1212513" clip-path="url(#clip-path)">
          <path id="Trazado_1278770" data-name="Trazado 1278770" d="M31.6,271.132A8.01,8.01,0,0,1,37.08,269.8c3.687.324,5.1,4.177,9.312,1.993,2.213-1.146,2.508-2.288,6.035-2.012,3.643.285,4.326,3.276,8.213,2.513,1.2-.235,2-1.273,3.076-1.771,2.849-1.317,7.338-.926,8.522,1.6l-.119,16.092-.547.4H.666l-.547-.4L0,272.123c1.115-2.437,5.392-2.884,8.249-1.721,2.28.928,2.576,2.57,5.922,1.841,1.4-.3,1.982-1.286,3.052-1.789a8.932,8.932,0,0,1,4.508-.634c3.335.39,3.975,3.225,7.83,2.473,1.027-.2,1.445-.832,2.039-1.162m38.226,1.075c-4.356-2.255-5.674,1.6-9.326,1.923a9.658,9.658,0,0,1-3.667-.327c-2.309-.7-2.765-2.673-6.061-2.17-2.4.365-2.8,2.339-6.216,2.52-3.815.2-3.727-.877-6.174-2.081-3.564-1.753-4.756.734-7.146,1.62a9.073,9.073,0,0,1-5.334.162c-2.34-.649-2.823-2.639-6.036-2.255-2.394.286-2.991,2.32-6.182,2.547-3.789.269-3.822-.751-6.249-2.009-1.77-.918-3.245-.665-5.02.071v14.717H69.825Z" transform="translate(0 -210.701)" fill="#6a2874"/>
        </g>
      </g>
    </g>
  </g>
</svg>
