<svg xmlns="http://www.w3.org/2000/svg" xmlns:xlink="http://www.w3.org/1999/xlink" width="96" height="96" viewBox="0 0 96 96">
  <defs>
    <clipPath id="clip-path">
      <rect id="Rectángulo_455595" data-name="Rectángulo 455595" width="96" height="96" fill="none"/>
    </clipPath>
    <clipPath id="clip-path-2">
      <rect id="Rectángulo_460491" data-name="Rectángulo 460491" width="56.003" height="26.138" fill="#fff"/>
    </clipPath>
  </defs>
  <g id="Grupo_1210874" data-name="Grupo 1210874" transform="translate(-735.746 -9118)">
    <g id="Grupo_1180407" data-name="Grupo 1180407" transform="translate(735.746 9117.971)">
      <g id="Grupo_1179172" data-name="Grupo 1179172" transform="translate(0 0.03)" clip-path="url(#clip-path)">
        <path id="Trazado_998483" data-name="Trazado 998483" d="M92.261,52.319A39.942,39.942,0,1,1,52.319,12.377,39.942,39.942,0,0,1,92.261,52.319" transform="translate(-4.304 -4.333)" fill="#8d1939"/>
        <path id="Trazado_998485" data-name="Trazado 998485" d="M90.566,46.284A44.283,44.283,0,1,1,46.284,2,44.283,44.283,0,0,1,90.566,46.284Z" transform="translate(1.731 1.702)" fill="none" stroke="#8d1939" stroke-miterlimit="10" stroke-width="4"/>
      </g>
    </g>
    <g id="Grupo_1180408" data-name="Grupo 1180408" transform="translate(755.746 9137)">
      <g id="Grupo_1099618" data-name="Grupo 1099618" transform="translate(0.338 -0.09)">
        <rect id="Rectángulo_401104" data-name="Rectángulo 401104" width="56.349" height="57.028" transform="translate(0)" fill="none"/>
      </g>
      <g id="Grupo_1210893" data-name="Grupo 1210893" transform="translate(0.338 15.91)">
        <g id="Grupo_1210892" data-name="Grupo 1210892" clip-path="url(#clip-path-2)">
          <path id="Trazado_1272155" data-name="Trazado 1272155" d="M35.774,15.18c-1.42-3.591-3.752-6.893-4.787-10.613,0-2.017,2.358-3.378,3.954-4.12,1.632-.758,3.222-.615,4.327.938,1.623,2.281-.024,2.887-1.8,3.9-.093.6,1.306,2.194,1.484,2.821a.906.906,0,0,1-1.464.945,23.922,23.922,0,0,1-2.028-3.662c-.209-1.545,2.068-1.84,2.463-2.454.367-.57-.915-1.261-1.507-1.182a14.942,14.942,0,0,0-3.361,1.974c-.458.74-.087,1.5.177,2.2,1.419,3.745,4.556,7.941,5.749,11.629.218.673.341,1.267-.508,1.489-1.159.3-1.176-1.948-2.106-2.13l-12.011-.13c-.313-.147-.438-.491-.623-.752-1.289-1.815-3.6-7.3-5.24-8.172a3.3,3.3,0,0,0-1.765-.434c-1.548.138-5.648,3.135-7.344,3.992-.747.377-1.571,1-2.433.5-1.2-.7-1.238-3.736-3.662-2.591l.024.389c1.522,1.915,1.932,5.82,5.048,4.813,2.129-.688,4.861-2.584,6.89-3.052,1.1-.254,1.385-.129,2.024.723,2.206,2.944,3.807,7.824,6.116,10.568a4.565,4.565,0,0,0,2.891,1.569c4.055.444,8.863-.336,13,0a2.823,2.823,0,0,0,2.294-2.172c.2-1.277.123-5.4-.353-6.525-.345-.814-1.836-2.778-1.87-3.469a.841.841,0,0,1,1.084-.929c.739.2,2.763,4.336,2.86,5.237a37.59,37.59,0,0,1-.042,6.173,4.454,4.454,0,0,1-3.635,3.407A281.869,281.869,0,0,1,3.215,24.484,3.842,3.842,0,0,1,.037,19.922c.091-.823.462-1.053,1.272-1.13,2.677-.255,5.8.183,8.524.049A.94.94,0,0,1,9.7,20.7H1.746a2.122,2.122,0,0,0,1.664,2.031l18.854,1.593-2.078-3.6c-1.244-.249-6.455.393-7.108-.42-.4-.493.03-1.507.552-1.507h5.386L15.822,13.27c-.734-.155-6.345,3.01-7.875,3.248a4.129,4.129,0,0,1-3.233-1.055,44.125,44.125,0,0,1-3.229-5.455c-.336-1.257.178-1.859,1.279-2.344A3.458,3.458,0,0,1,6.6,8.293c.353.365.992,1.893,1.352,1.861l7.078-4.085a4.85,4.85,0,0,1,4.919.659c2.261,2.4,3.61,5.582,5.219,8.452Z" transform="translate(0.001 0)" fill="#fff"/>
          <path id="Trazado_1272156" data-name="Trazado 1272156" d="M265.521,96.538a22.411,22.411,0,0,1,4.532,0,4.814,4.814,0,0,1,2.434,8.407c-2.288,1.924-6.153,1.157-7.943-1.121-1.578-2.01-2.43-6.7.977-7.289m.789,6.628c2.207,2.086,6.4,1.191,6.1-2.267a3.056,3.056,0,0,0-2.007-2.464,28.789,28.789,0,0,0-5,.051c-1.292.575.069,3.884.912,4.681" transform="translate(-218.164 -79.937)" fill="#fff"/>
          <path id="Trazado_1272157" data-name="Trazado 1272157" d="M245.534,25.99c.807.734.132,2.273.223,2.361,1.636-.028,2.186,1.356,1.539,2.76,1.124.131,1.962.509,1.871,1.79-.06.84-.542,3.145-1.763,2.336-.885-.587-.02-1.579-.112-2.392-1.64-.124-2.037-1.3-1.533-2.764-.825-.122-1.895-.677-1.888-1.638,0-.35.325-.813.1-1.134s-1.6-.305-1.785-.978c-.388-1.811,2.723-.9,3.344-.34" transform="translate(-200.75 -20.939)" fill="#fff"/>
          <path id="Trazado_1272158" data-name="Trazado 1272158" d="M50.247,6.221C49.933,8,48.986,8.332,47.34,7.95,47.289,9.629,46.032,9.956,44.6,9.5c-.174.885-.267,2.118-1.451,1.9-1.026-.186-.311-2.339-.008-2.943.51-1.015,1.574-.963,2.481-.513a2.934,2.934,0,0,1,.7-1.63c.778-.627,1.746.05,2.048-.168.4-.29.147-1.57,1.525-1.752.55-.073,2.642.462,2.749,1.05.361,1.988-2.253.666-2.4.772" transform="translate(-35.33 -3.641)" fill="#fff"/>
        </g>
      </g>
    </g>
  </g>
</svg>
