<svg xmlns="http://www.w3.org/2000/svg" xmlns:xlink="http://www.w3.org/1999/xlink" width="96" height="96" viewBox="0 0 96 96">
  <defs>
    <clipPath id="clip-path">
      <rect id="Rectángulo_455595" data-name="Rectángulo 455595" width="96" height="96" fill="none"/>
    </clipPath>
    <clipPath id="clip-path-2">
      <rect id="Rectángulo_460488" data-name="Rectángulo 460488" width="37.003" height="52.154" fill="#fff"/>
    </clipPath>
  </defs>
  <g id="Grupo_1210872" data-name="Grupo 1210872" transform="translate(-735.746 -9118)">
    <g id="Grupo_1180407" data-name="Grupo 1180407" transform="translate(735.746 9117.971)">
      <g id="Grupo_1179172" data-name="Grupo 1179172" transform="translate(0 0.03)" clip-path="url(#clip-path)">
        <path id="Trazado_998483" data-name="Trazado 998483" d="M92.261,52.319A39.942,39.942,0,1,1,52.319,12.377,39.942,39.942,0,0,1,92.261,52.319" transform="translate(-4.304 -4.333)" fill="#8d1939"/>
        <path id="Trazado_998485" data-name="Trazado 998485" d="M90.566,46.284A44.283,44.283,0,1,1,46.284,2,44.283,44.283,0,0,1,90.566,46.284Z" transform="translate(1.731 1.702)" fill="none" stroke="#8d1939" stroke-miterlimit="10" stroke-width="4"/>
      </g>
    </g>
    <g id="Grupo_1180408" data-name="Grupo 1180408" transform="translate(755.746 9137)">
      <g id="Grupo_1099618" data-name="Grupo 1099618" transform="translate(0.338 0.626)">
        <rect id="Rectángulo_401104" data-name="Rectángulo 401104" width="56.349" height="57.028" transform="translate(0)" fill="none"/>
      </g>
      <g id="Grupo_1210887" data-name="Grupo 1210887" transform="translate(9.338 2.626)">
        <g id="Grupo_1210886" data-name="Grupo 1210886" clip-path="url(#clip-path-2)">
          <path id="Trazado_1272135" data-name="Trazado 1272135" d="M65.931,22.837c-.083.5-.732.6-1.158.425-.7-.286-.1-3.739-.407-4.529A6.9,6.9,0,0,1,62.125,17.1c-.369-.444-1.015-1.957-1.111-2.022-.251-.17-.905-.023-1.265-.077a2.83,2.83,0,0,1-2.028-2.6,59.148,59.148,0,0,1,.007-8.208,2.712,2.712,0,0,1,1.753-2.424c.4-.135,1.42-.159,1.5-.211a3.586,3.586,0,0,1,.546-.87A2.5,2.5,0,0,1,62.737.1c2.98.176,6.3-.278,9.242-.019a2.24,2.24,0,0,1,1.779.909c.132.155.2.531.251.566a14.6,14.6,0,0,1,1.51.207,2.576,2.576,0,0,1,1.756,2.272c.146,1.548.207,8.009-.148,9.262-.406,1.437-1.76,1.831-3.12,1.728a5.239,5.239,0,0,1-3.3,3.56v3.133c1.819-1.091,3.644-.084,4.565,1.623A3.146,3.146,0,0,1,79.811,25a3.278,3.278,0,0,1,4.9,2.178,42.56,42.56,0,0,1,.01,6.1.761.761,0,0,1-1.46.123c-.276-1.81.285-4.334-.063-6.053a1.719,1.719,0,0,0-1.545-1.293c-2.579-.1-1.153,4.875-1.621,6.413-.3.973-1.445.765-1.577-.377-.218-1.885.356-4.826-.028-6.536a1.618,1.618,0,0,0-3.03.039c-.483,1.841.3,5.015-.1,6.907a.7.7,0,0,1-.365.532c-.628.111-1.014.03-1.1-.641-.318-2.467.372-5.775,0-8.2a1.585,1.585,0,0,0-3.115-.15l-.076,8.427c-.323,1.059-1.573.419-1.573.067v-13.5H65.931c-.135,1.157.182,2.7,0,3.8M74.285,3.072V5.682a1.157,1.157,0,0,1-.679.677c-1.772.261-.491-3.935-1.107-4.559a.96.96,0,0,0-.295-.153l-9.4.01a3.861,3.861,0,0,0-.45.445V10.68H72.644c-.02-.762-.244-2.921,1.089-2.512a1.478,1.478,0,0,1,.552.647v4.7a1.219,1.219,0,0,0,1.483-.978c-.175-2.633.262-5.617.019-8.205-.091-.975-.6-1.168-1.5-1.259M60.859,13.514V3.3c0-.463-1.406-.176-1.606.93a59.938,59.938,0,0,0,.036,8.4c.205.79.813.979,1.57.891m11.785-1.343H62.351v2.163a7.557,7.557,0,0,0,1.121,2.012c1.568,1.6,5.935,1.633,7.671.365a5.317,5.317,0,0,0,1.5-2.228Z" transform="translate(-48.992 0)" fill="#fff"/>
          <path id="Trazado_1272136" data-name="Trazado 1272136" d="M38.021,177.735v-8.727c0-.487,1.492-.487,1.492,0v9.1c0,.77-1.531,1.456-2.244,1.05-2.264-1.142-4.581-3.485-6.777-4.56-1.535-.751-2.907.3-2.223,1.925.873,2.078,2.864,4.292,3.77,6.373,1.286,2.954,1.271,5.147,3.325,8.161.246.362,1.613,1.84,1.613,1.967v2.238l-.815.377c-.971-.28-.525-1.336-.708-1.987-.081-.288-1.364-1.732-1.671-2.207-1.872-2.893-1.969-5.158-3.191-8-.8-1.86-3.866-5.6-4.039-7.3a3.03,3.03,0,0,1,4.686-2.9Z" transform="translate(-22.575 -143.487)" fill="#fff"/>
          <path id="Trazado_1272137" data-name="Trazado 1272137" d="M5.711,15.774c-.168.176-1.2.486-1.589.721a5.542,5.542,0,0,0-.6,8.925c.42.333,2.2,1.137,2.277,1.316a1.018,1.018,0,0,1-.041.909c-.483.744-2.379-.459-2.894-.82A7.035,7.035,0,0,1,3.66,14.989c.479-.252,1.314-.678,1.841-.5.421.144.51.969.21,1.283" transform="translate(0 -12.293)" fill="#fff"/>
          <path id="Trazado_1272138" data-name="Trazado 1272138" d="M212.43,26.288c-.624.607-4.1,2.94-3.8.757.068-.5,1.616-1.01,2.17-1.416a5.528,5.528,0,0,0-.06-8.81c-.773-.565-2.288-.731-2.113-1.7.274-1.519,3.105.442,3.706,1.006a7.17,7.17,0,0,1,.1,10.167" transform="translate(-177.494 -12.379)" fill="#fff"/>
          <path id="Trazado_1272139" data-name="Trazado 1272139" d="M211.668,254.721l-.815.377c-.446-.045-.635-.584-.68-.971-.368-3.145.982-3.333,1.97-5.794,1.219-3.037.783-6.051.9-9.244.545-.95,1.369-.621,1.47.407.357,3.661.05,7.733-1.722,10.976-.195.357-1.122,1.467-1.122,1.564Z" transform="translate(-178.768 -202.944)" fill="#fff"/>
          <path id="Trazado_1272140" data-name="Trazado 1272140" d="M25.874,39.328c.53-.472,1.91-1.1,2.165-.094.228.9-1.489.955-1.624,2.2-.171,1.584.72,1.645,1.624,2.57-.137,1.236-1.014,1.1-1.843.49a3.377,3.377,0,0,1-.323-5.169" transform="translate(-21.117 -32.923)" fill="#fff"/>
          <path id="Trazado_1272141" data-name="Trazado 1272141" d="M203.737,39.328a3.377,3.377,0,0,1-.323,5.169c-.829.608-1.707.747-1.843-.49.905-.925,1.8-.986,1.624-2.57-.135-1.248-1.852-1.3-1.624-2.2.255-1.008,1.636-.378,2.165.094" transform="translate(-171.484 -32.923)" fill="#fff"/>
          <path id="Trazado_1272142" data-name="Trazado 1272142" d="M100.344,20.646c1.133-.183,1.349.486,1.929.535.169.014.716-.427,1.085-.5a2.291,2.291,0,0,1,2.52,3.267c-.354.825-2.938,3.4-3.895,3.205a14.97,14.97,0,0,1-3.47-3.55,2.3,2.3,0,0,1,1.83-2.953m.285,1.488a1.2,1.2,0,0,0-.625.417c-.43.868,1.774,2.313,2.243,2.98.359-.537,2.147-1.875,2.286-2.342a.9.9,0,0,0,0-.533c-.873-1.212-1.429.384-2.282.353-.762-.027-1.113-.922-1.622-.875" transform="translate(-83.742 -17.539)" fill="#fff"/>
          <path id="Trazado_1272143" data-name="Trazado 1272143" d="M119.684,92.632c1.84-.326,1.121,2.99-.168,2.052-.4-.291-.407-1.882.168-2.052" transform="translate(-101.446 -78.794)" fill="#fff"/>
        </g>
      </g>
    </g>
  </g>
</svg>
