<svg xmlns="http://www.w3.org/2000/svg" xmlns:xlink="http://www.w3.org/1999/xlink" width="96" height="96" viewBox="0 0 96 96">
  <defs>
    <clipPath id="clip-path">
      <rect id="Rectángulo_455595" data-name="Rectángulo 455595" width="96" height="96" fill="none"/>
    </clipPath>
    <clipPath id="clip-path-2">
      <rect id="Rectángulo_460489" data-name="Rectángulo 460489" width="54.764" height="56.276" fill="#fff"/>
    </clipPath>
  </defs>
  <g id="Grupo_1210444" data-name="Grupo 1210444" transform="translate(-735.746 -9118)">
    <g id="Grupo_1180407" data-name="Grupo 1180407" transform="translate(735.746 9117.971)">
      <g id="Grupo_1179172" data-name="Grupo 1179172" transform="translate(0 0.03)" clip-path="url(#clip-path)">
        <path id="Trazado_998483" data-name="Trazado 998483" d="M92.261,52.319A39.942,39.942,0,1,1,52.319,12.377,39.942,39.942,0,0,1,92.261,52.319" transform="translate(-4.304 -4.333)" fill="#8d1939"/>
        <path id="Trazado_998485" data-name="Trazado 998485" d="M90.566,46.284A44.283,44.283,0,1,1,46.284,2,44.283,44.283,0,0,1,90.566,46.284Z" transform="translate(1.731 1.702)" fill="none" stroke="#8d1939" stroke-miterlimit="10" stroke-width="4"/>
      </g>
    </g>
    <g id="Grupo_1180408" data-name="Grupo 1180408" transform="translate(755.746 9137)">
      <g id="Grupo_1099618" data-name="Grupo 1099618" transform="translate(0.084 -0.09)">
        <rect id="Rectángulo_401104" data-name="Rectángulo 401104" width="56.349" height="57.028" transform="translate(0)" fill="none"/>
      </g>
      <g id="Grupo_1210889" data-name="Grupo 1210889" transform="translate(1.084 -0.09)">
        <g id="Grupo_1210888" data-name="Grupo 1210888" clip-path="url(#clip-path-2)">
          <path id="Trazado_1272144" data-name="Trazado 1272144" d="M41.232,50.54c-8.607,7.815-20.733,7.831-28.512-1.107-2.862-.242-6.261.334-9.055.008a1.559,1.559,0,0,1-1.182-.6l-.1-10.175c-2.367-2.59-3.251-6.1-1.344-9.258.263-.436,1.223-1.372,1.308-1.656.312-1.038-.059-3.771.043-5.1C3.022,14.4,8.7,6.386,16.014,2.685,31-4.9,49.548,4.327,52.133,20.935c.3,1.921-.088,5.531.3,6.819.1.323.677.69.914,1.063,2.246,3.527,1.758,6.781-.95,9.852l-.009,9.873-.889.889-9.082.01c-.606.085-.807.761-1.18,1.1m8.98-24.03C51.119,10.689,36.821-1.714,21.2,2.54,10.71,5.4,3.879,15.753,4.561,26.51a7.477,7.477,0,0,1,3.359-.394c.222-.223-.283-5.243.149-6.274a1.28,1.28,0,0,1,.442-.546c.722-.344,4.839-.026,6.037-.09a25.2,25.2,0,0,0,14.916-5.639c.739-.634,3.308-3.672,4.016-3.613a3.489,3.489,0,0,1,.873.4c.29.316,1.2,2.757,1.7,3.533a11.493,11.493,0,0,0,5.556,4.524c1.086.389,4.358.689,4.763.969.952.658.271,5.477.478,6.736,1.134.033,2.327-.194,3.359.394m-5.731-5.137a13.248,13.248,0,0,1-11.266-8.1,28.082,28.082,0,0,1-13.788,7.653,46.018,46.018,0,0,1-9.137.448c.649,8.962-2.235,19.049,4.05,26.487,10.1,11.955,29.164,5.367,30.151-10.173.337-5.305-.267-10.97-.01-16.312M7.919,37.973V28.585c-.842-.725-2.707.022-3.545.606C.145,32.135,2.953,38.6,7.919,37.973m38.935,0a4.92,4.92,0,0,0,5.1-6.98c-.8-1.628-3.4-3.367-5.1-2.408ZM4.559,39.95v7.115h6.325c-.581-1.235-1.262-2.412-1.729-3.707a17.85,17.85,0,0,1-.842-3.211c-1.3.428-2.451-.113-3.754-.2m45.655,0c-1.292.111-2.464.527-3.754.2a16.675,16.675,0,0,1-2.57,6.919h6.325Z" transform="translate(0 0)" fill="#fff"/>
          <path id="Trazado_1272145" data-name="Trazado 1272145" d="M192.335,111.929a2.28,2.28,0,0,1,.826-.376c1.226-.024,3.3,3.86,3.443,4.974.729,5.717-7.925,5.525-6.606-.514a14.643,14.643,0,0,1,2.337-4.084m.828,2.9c-.845.689-1.671,3.585,0,3.575,1.8-.012,1.026-2.83,0-3.575" transform="translate(-152.337 -89.505)" fill="#fff"/>
          <path id="Trazado_1272146" data-name="Trazado 1272146" d="M158.833,84.365c1.631-1.31,3.608,2.607,3.692,3.817.246,3.553-4.968,4.4-5.514.953a6.53,6.53,0,0,1,1.822-4.769m.539,4.682c1.2.142.813-1.2.293-1.777a1.68,1.68,0,0,0-.293,1.777" transform="translate(-125.954 -67.478)" fill="#fff"/>
          <path id="Trazado_1272147" data-name="Trazado 1272147" d="M119.075,215a5.643,5.643,0,0,1,4.07.777c.818.545,2.514,2.628.982,3.089-1.616.486-1.934-1.7-3.913-1.7-1.873,0-2.583,2.508-3.926,1.718-1.954-1.149,1.415-3.649,2.787-3.882" transform="translate(-92.827 -172.438)" fill="#fff"/>
          <path id="Trazado_1272148" data-name="Trazado 1272148" d="M81.6,123.169a1.185,1.185,0,0,1,1.4,1.6c-.325,1.076-3.582,2.181-4.626,2.294-1.13.122-5.151-.082-4.008-2.029.687-1.171,1.372-.382,2.249-.321a6.624,6.624,0,0,0,3.137-.423c.64-.262,1.392-1.028,1.85-1.125" transform="translate(-59.502 -98.799)" fill="#fff"/>
          <path id="Trazado_1272149" data-name="Trazado 1272149" d="M170.394,160.126a2.157,2.157,0,0,1-1.588.208c-1.526-.45-1.38-5.59,1.24-4.4,1.076.488,1.047,3.537.347,4.193" transform="translate(-134.658 -124.971)" fill="#fff"/>
          <path id="Trazado_1272150" data-name="Trazado 1272150" d="M92.067,156.252c.625-.5,2.033-.36,2.273.477.224.782.273,3.489-.692,3.771-2.711.792-2.367-3.615-1.581-4.247" transform="translate(-73.418 -125.137)" fill="#fff"/>
        </g>
      </g>
    </g>
  </g>
</svg>
