<svg xmlns="http://www.w3.org/2000/svg" xmlns:xlink="http://www.w3.org/1999/xlink" width="69" height="69" viewBox="0 0 69 69">
  <defs>
    <clipPath id="clip-path">
      <rect id="Rectángulo_460499" data-name="Rectángulo 460499" width="37.786" height="42" fill="#fff"/>
    </clipPath>
  </defs>
  <g id="Grupo_1210878" data-name="Grupo 1210878" transform="translate(-616.422 -749.492)">
    <circle id="Elipse_13676" data-name="Elipse 13676" cx="34.5" cy="34.5" r="34.5" transform="translate(616.422 749.492)" fill="#6a2874"/>
    <g id="Grupo_1210906" data-name="Grupo 1210906" transform="translate(632.42 762.492)">
      <g id="Grupo_1210905" data-name="Grupo 1210905" clip-path="url(#clip-path)">
        <path id="Trazado_1272313" data-name="Trazado 1272313" d="M19.926,88.006a1.425,1.425,0,0,1-.886-1.279l.067-28.769c.412-1.355,3.189-.622,4.27-.805-.183,1.437.565,2.182,1.956,2.307,4.252.381,9.078-.286,13.39-.017a1.981,1.981,0,0,0,1.7-2.289c.931.156,3.436-.375,3.991.409a4.89,4.89,0,0,1,.34.878V78.4c-.557-.072-.871-.589-1.369-.864a4.7,4.7,0,0,0-6.164,1.519l-8.48.146c-.379.239-.06.958.112.958h7.781l-.135,2.03h-7.51a.557.557,0,0,0,0,1.083l7.783.066c.93,1.883,2.743,3.079,4.058,4.67Zm.338-27.335a4.311,4.311,0,0,0-.142.738,38.391,38.391,0,0,0,0,5.157c.049.5.062.671.611.743a37.409,37.409,0,0,0,5.426,0c.179-.024.6-.173.6-.345V60.874l-.2-.2Zm8.728,2.3H43.336c.311,0,.456-1.083,0-1.083H28.857c-.247,0-.542.968.135,1.083M28.857,65c-.436.172-.286,1.083,0,1.083H43.336c.1,0,.416-.429.345-.6A.833.833,0,0,0,43.336,65Zm-8.224,4.225a.775.775,0,0,0-.438.239,50,50,0,0,0-.072,5.894c.072.549.238.561.743.611a36.442,36.442,0,0,0,5.292,0c.442-.058.55-.161.609-.609a50.324,50.324,0,0,0-.072-5.894c-.111-.187-.467-.248-.676-.271a35.529,35.529,0,0,0-5.385.033m8.524,1.217c-.914.275-.768,1.035.1,1.2H42.937c1.046-.232.93-1.1-.139-1.228ZM43.5,74.577a.539.539,0,0,0-.433-.921l-14.361.13c-.476.36.069.959.545.966,4.384-.292,9.215.364,13.545,0a1.241,1.241,0,0,0,.7-.174M20.494,77.884c-.3.1-.335.3-.372.576a47.637,47.637,0,0,0,.069,5.9,1.587,1.587,0,0,0,.817.265,34.6,34.6,0,0,0,4.606.006,1.849,1.849,0,0,0,1.082-.271c-.025-.919.291-5.866-.06-6.311a.618.618,0,0,0-.48-.2c-1.708-.216-3.9.15-5.662.033" transform="translate(-16.454 -49.387)" fill="#fff"/>
        <path id="Trazado_1272314" data-name="Trazado 1272314" d="M74.036,3.468a1.313,1.313,0,0,1,.173.706,27.065,27.065,0,0,1,0,3.932c-.09.762-.448.824-1.147.883-4.028.339-8.517-.268-12.6,0-.351-.01-1-.125-1.119-.5l.04-4.915c.356-.6,3.7-.014,4.448-.392.3-.58.168-1.225.513-1.818a2.776,2.776,0,0,1,4.744-.049c.4.675.228,1.111.4,1.629.261.783,3.815.038,4.546.529" transform="translate(-51.314 0)" fill="#fff"/>
        <path id="Trazado_1272315" data-name="Trazado 1272315" d="M6.922,38.393,6.8,39.823c-2.006.272-4.768-.722-5.274,2.033L1.5,70.672A2.255,2.255,0,0,0,3.471,72.9l21.919,0,1.559,1.486H3.065c-1.385,0-3.251-2.283-3.051-3.715L.022,41.845a4.08,4.08,0,0,1,1.712-2.889,11.06,11.06,0,0,1,1.331-.563Z" transform="translate(0 -33.198)" fill="#fff"/>
        <path id="Trazado_1272316" data-name="Trazado 1272316" d="M171.578,212.863a4.057,4.057,0,0,1,1.141,2.591c.011.789-.52,2.527-1.425,2.645-1.044.136-2.806-.233-3.736.053-.591.182-1.811,2.1-1.955,2.1-.521-.529-2.074-4.451-2.458-4.58-1.076-.362-1.528,2.287-2.542,2.425a22.134,22.134,0,0,1-3.456-.076A3.834,3.834,0,0,1,156.1,216.1a3.577,3.577,0,0,1,5.474-3.58c.694.437,2.26,2.476,2.815,2.476s2.035-1.943,2.647-2.374a3.738,3.738,0,0,1,4.544.242" transform="translate(-134.934 -183.262)" fill="#fff"/>
        <path id="Trazado_1272317" data-name="Trazado 1272317" d="M182.566,63.563V41.979c0-.71-1.1-2.1-1.827-2.1h-3.586V38.393h3.857c.055,0,.814.331.952.4a3.953,3.953,0,0,1,2.091,3.457l.009,19.626c-.077.58-1.059,1.27-1.5,1.684" transform="translate(-153.181 -33.198)" fill="#fff"/>
        <path id="Trazado_1272318" data-name="Trazado 1272318" d="M185.926,253.427l-5.886,5.952-5.886-5.952h2.639c.639,0,1.236-1.578,1.623-2.029.341.168,1.678,3.5,2.118,4.106.458.63.71.52,1.2.026a20.773,20.773,0,0,1,1.821-2.1Z" transform="translate(-150.587 -217.379)" fill="#fff"/>
        <path id="Trazado_1272319" data-name="Trazado 1272319" d="M39.62,222.859H35.154v-4.466H39.62Zm-1.119-3.5c-.53.108-1.149,1.143-1.4,1.187-.289.051-.5-.741-1.177-.514-1,.338.592,1.848,1.081,1.984a6.6,6.6,0,0,0,2.158-2,.525.525,0,0,0-.659-.66" transform="translate(-30.397 -188.84)" fill="#fff"/>
        <path id="Trazado_1272320" data-name="Trazado 1272320" d="M39.619,158.994H35.153v-4.4l.2-.2h4.06l.2.2Zm-3.292-3.64c-.613.2-.21,1.024.169,1.291.046.255-.884.763-.331,1.268.612.54,1.122-.405,1.221-.405s.532.852,1.152.474c.695-.424-.3-1.135-.262-1.336,1.116-1.009.048-1.894-.89-.769-.254-.267-.655-.652-1.059-.521" transform="translate(-30.396 -133.501)" fill="#fff"/>
        <path id="Trazado_1272321" data-name="Trazado 1272321" d="M39.619,95.859H35.153V91.393h4.466Zm-1.257-3.494c-.34.1-1.023,1.141-1.265,1.184-.225.039-1.2-1.336-1.516.058.481.431,1.033,1.47,1.743,1.248a7.322,7.322,0,0,0,1.86-1.93c.069-.463-.429-.679-.822-.561" transform="translate(-30.396 -79.026)" fill="#fff"/>
      </g>
    </g>
  </g>
</svg>
