<svg xmlns="http://www.w3.org/2000/svg" xmlns:xlink="http://www.w3.org/1999/xlink" width="69" height="69" viewBox="0 0 69 69">
  <defs>
    <clipPath id="clip-path">
      <rect id="Rectángulo_460498" data-name="Rectángulo 460498" width="34.966" height="45" fill="#fff"/>
    </clipPath>
  </defs>
  <g id="Grupo_1210877" data-name="Grupo 1210877" transform="translate(-616.422 -749.492)">
    <circle id="Elipse_13676" data-name="Elipse 13676" cx="34.5" cy="34.5" r="34.5" transform="translate(616.422 749.492)" fill="#6a2874"/>
    <g id="Grupo_1210904" data-name="Grupo 1210904" transform="translate(633.42 761.492)">
      <g id="Grupo_1210903" data-name="Grupo 1210903" clip-path="url(#clip-path)">
        <path id="Trazado_1272308" data-name="Trazado 1272308" d="M14.361,139.735l5.941,1.341a1.186,1.186,0,0,1,0,2.266c-1.406.321-4.821-1.182-6.417-1.262L12.4,143.243c-.173.252.6.684.728.816a7.013,7.013,0,0,1,1.984,4.011c.172,1.957-1.061,7.257-1.717,9.25-.5,1.525-1.338,1.627-2.785,1.118-.177-.25.871-3.721.874-4.447a4.11,4.11,0,0,0-5.745-3.812c-2.575,1.1-2.545,3.977-3.138,6.338-1.487-.089-2.344-.48-2.175-2.112A54.143,54.143,0,0,1,2,147.6,6.739,6.739,0,0,1,7.5,142.272l-.669-1.845c-1.305-.334-2.643-.559-3.951-.883a11.5,11.5,0,0,1-2.411-.683,1.238,1.238,0,0,1,.887-2.189l6.058,1.421a3.77,3.77,0,0,1,6.943,1.641m-4.186-1.363c-2.079.373-1.621,3.677.6,3.442a1.749,1.749,0,1,0-.6-3.442" transform="translate(0 -118.743)" fill="#fff"/>
        <path id="Trazado_1272309" data-name="Trazado 1272309" d="M92.029,10.02l10.655,5.911c1.905.335,4.024-.256,5.878-.077a1.611,1.611,0,0,1,.111,3.218c-1.89.257-4.36-.022-6.308.143l-4.616-2.2-1.963,3.364-4.564-1.1c-.694-1.154-1.381-2.416-2.707-2.9l1.648-3.13c-.953-1.943-2.29-3.7-3.266-5.628C86.3,6.441,85.966,6,87.022,4.9c1.523-1.591,3.6-3.034,5.163-4.635a1.613,1.613,0,0,1,1.931,2.576c-.864.939-2.206,1.867-3.159,2.771a6.448,6.448,0,0,0-.884.931c-.087.334,1.734,2.923,1.955,3.479" transform="translate(-75.208 0)" fill="#fff"/>
        <path id="Trazado_1272310" data-name="Trazado 1272310" d="M30.818,256.193a2.133,2.133,0,0,1,2.2,2.6,55.807,55.807,0,0,1-1.9,8.03,2.094,2.094,0,0,1-4-1.169c.846-2.369.954-6.15,1.981-8.332a2.365,2.365,0,0,1,1.715-1.132" transform="translate(-23.602 -223.16)" fill="#fff"/>
        <path id="Trazado_1272311" data-name="Trazado 1272311" d="M125.455,209.806c.237-1.742.889-3.411.8-5.2l1.262-1.056c-1.1-.721-2.1-1.057-2.317-2.513,1.95.222,3.889,1.418,5.713.148,1.444.74,2.6,1.88,1.505,3.525Z" transform="translate(-109.058 -175.124)" fill="#fff"/>
        <path id="Trazado_1272312" data-name="Trazado 1272312" d="M153.745,37.83c4.745-.813,5.3,6.187.984,6.534-4.164.334-4.829-5.874-.984-6.534" transform="translate(-131.71 -32.896)" fill="#fff"/>
      </g>
    </g>
  </g>
</svg>
