<svg xmlns="http://www.w3.org/2000/svg" xmlns:xlink="http://www.w3.org/1999/xlink" width="69" height="69" viewBox="0 0 69 69">
  <defs>
    <clipPath id="clip-path">
      <rect id="Rectángulo_460501" data-name="Rectángulo 460501" width="42" height="39.091" fill="#fff"/>
    </clipPath>
  </defs>
  <g id="Grupo_1210880" data-name="Grupo 1210880" transform="translate(-617.133 -749.492)">
    <circle id="Elipse_13676" data-name="Elipse 13676" cx="34.5" cy="34.5" r="34.5" transform="translate(617.133 749.492)" fill="#6a2874"/>
    <g id="Grupo_1210910" data-name="Grupo 1210910" transform="translate(631.135 764.493)">
      <g id="Grupo_1210909" data-name="Grupo 1210909" clip-path="url(#clip-path)">
        <path id="Trazado_1272323" data-name="Trazado 1272323" d="M88.5,171.316c.152.038.207-.058.307-.112,2.915-1.586,5.807-4.38,8.725-5.954a4.306,4.306,0,0,1,4.682.953,4.031,4.031,0,0,1-.247,4.565L87.934,180.2a5.206,5.206,0,0,1-2.285.7c-3.65-.668-7.212-1.818-10.816-2.713l-5.7-9.333c1.694-.821,4.116-3,5.954-3.186a15.591,15.591,0,0,1,4.9.635,41.151,41.151,0,0,1,6.4,2.025,4.284,4.284,0,0,1,2.121,2.994" transform="translate(-60.812 -145.079)" fill="#fff"/>
        <path id="Trazado_1272324" data-name="Trazado 1272324" d="M121.515,102.313v-6.2c0-.528-1.444-.547-1.444.12v6.557h-1.985c-.038,0-.415-.435-.552-.531a19.236,19.236,0,0,0-5.284-2.055,27.4,27.4,0,0,0-3.243-.788c-.14-.145.17-2.871-.065-3.364-.29-.608-1.384-.249-1.384.061v2.948a8.742,8.742,0,0,0-4.451.36,10.583,10.583,0,0,1,5.574-8.562,8.089,8.089,0,0,1,1.614-.679c.445-.041,1.407.979,1.956,1.241a5.365,5.365,0,0,0,4.972-.322c.474-.293.989-1.015,1.554-.92a9.95,9.95,0,0,1,2.658,1.443,11.588,11.588,0,0,1,4.5,7.606Z" transform="translate(-90.701 -79.324)" fill="#fff"/>
        <path id="Trazado_1272325" data-name="Trazado 1272325" d="M5.633,185.994c.543-.125.737.071,1.048.466l7.267,12.232c.05.327-.225.62-.468.806l-5.255,3.175-.509-.163L.011,189.87a.636.636,0,0,1,.062-.407c.3-.663,4.734-2.795,5.56-3.468m3.01,10.712a1.357,1.357,0,1,0,.881,2.565c1.4-.433.848-2.917-.881-2.565" transform="translate(0 -163.583)" fill="#fff"/>
        <path id="Trazado_1272326" data-name="Trazado 1272326" d="M154.644.042c6.885-.757,9.238,9,2.857,11.4-8.442,3.168-11.326-10.468-2.857-11.4m1.471,5.14V3.438c0-.7-1.444-.578-1.444-.12V5.182h-1.745c-.474,0-.79,1.006-.373,1.335l2,.161c.437.3-.547,2.727,1.113,2.21a1.161,1.161,0,0,0,.444-.518V6.626h1.865c.458,0,.581-1.444-.12-1.444Z" transform="translate(-131.558 0)" fill="#fff"/>
      </g>
    </g>
  </g>
</svg>
