<svg xmlns="http://www.w3.org/2000/svg" xmlns:xlink="http://www.w3.org/1999/xlink" width="69" height="69" viewBox="0 0 69 69">
  <defs>
    <clipPath id="clip-path">
      <rect id="Rectángulo_460497" data-name="Rectángulo 460497" width="45" height="42.017" fill="#fff"/>
    </clipPath>
  </defs>
  <g id="Grupo_1210881" data-name="Grupo 1210881" transform="translate(-273.711 -2838.88)">
    <circle id="Elipse_13683" data-name="Elipse 13683" cx="34.5" cy="34.5" r="34.5" transform="translate(273.711 2838.88)" fill="#6a2874"/>
    <g id="Grupo_1210902" data-name="Grupo 1210902" transform="translate(285.711 2851.88)">
      <g id="Grupo_1210901" data-name="Grupo 1210901" clip-path="url(#clip-path)">
        <path id="Trazado_1272304" data-name="Trazado 1272304" d="M42.428,109.751a4.143,4.143,0,0,1-3.531,3.79l-34.94,0a3.967,3.967,0,0,1-3.789-3.917c-.534-7.739.41-16.09.008-23.892A3.943,3.943,0,0,1,3.7,82.069l20.491,0A11.724,11.724,0,0,0,40.184,91.71a17.741,17.741,0,0,1,2.245-1.03Zm-30.979-19.8a5.385,5.385,0,0,0-4.4,3.432,5.52,5.52,0,0,0,1.217,5.58,6.8,6.8,0,0,0-2.83,4.879,18.647,18.647,0,0,0,.066,3.54,1.264,1.264,0,0,0,1.156.9l10.987-.064a1.255,1.255,0,0,0,.887-1.039,16.94,16.94,0,0,0-.158-4.32,6.73,6.73,0,0,0-2.659-3.895c.229-.408.553-.72.793-1.131a5.253,5.253,0,0,0-5.057-7.882M25.058,95.2a1.307,1.307,0,1,0,.707,2.508,1.307,1.307,0,0,0-.707-2.508m6.409,2.24a1.317,1.317,0,0,0-1.762-1.955c-1.424,1.219.569,3.135,1.762,1.955m5.266,0a1.316,1.316,0,0,0-1.76-1.953c-1.486,1.171.558,3.142,1.76,1.953m-11.809,3.025A1.312,1.312,0,0,0,25.033,103H36.064a1.3,1.3,0,0,0,0-2.554Zm0,5.266a1.312,1.312,0,0,0,.109,2.534H36.064a1.3,1.3,0,0,0,0-2.554Z" transform="translate(0 -71.529)" fill="#fff"/>
        <path id="Trazado_1272305" data-name="Trazado 1272305" d="M215.423.053a9.2,9.2,0,1,1-7.129,13.218A9.235,9.235,0,0,1,215.423.053m4.744,5.257a2.041,2.041,0,0,0-.739.418c-.665.511-3.9,4.116-4.189,4.167-1.06-.562-1.995-2.762-3.434-1.772a1.464,1.464,0,0,0-.4,1.648,26.607,26.607,0,0,0,2.892,3.015,1.483,1.483,0,0,0,1.5.232l5.843-5.843c.4-1.09-.279-2.112-1.478-1.865" transform="translate(-180.727 -0.001)" fill="#fff"/>
        <path id="Trazado_1272306" data-name="Trazado 1272306" d="M70.058,230.462H62.1c-.71-7,8.667-7.01,7.963,0" transform="translate(-54.087 -196.285)" fill="#fff"/>
        <path id="Trazado_1272307" data-name="Trazado 1272307" d="M75.19,163.979a2.6,2.6,0,0,1,3.244,2.988,2.623,2.623,0,0,1-4.679,1.083c-1.012-1.408-.308-3.774,1.435-4.071" transform="translate(-63.875 -142.871)" fill="#fff"/>
      </g>
    </g>
  </g>
</svg>
