<svg xmlns="http://www.w3.org/2000/svg" xmlns:xlink="http://www.w3.org/1999/xlink" width="150" height="150.037" viewBox="0 0 150 150.037">
  <defs>
    <clipPath id="clip-path">
      <rect id="Rectángulo_460603" data-name="Rectángulo 460603" width="71.96" height="78.532" fill="#6a2874"/>
    </clipPath>
  </defs>
  <g id="Grupo_1210454" data-name="Grupo 1210454" transform="translate(-561.451 -8567.012)">
    <g id="Grupo_1207828" data-name="Grupo 1207828" transform="translate(561.711 8567.084)">
      <g id="Grupo_1177470" data-name="Grupo 1177470" transform="translate(0 0)">
        <circle id="Elipse_13609" data-name="Elipse 13609" cx="75" cy="75" r="75" transform="translate(-0.26 -0.072)" fill="#f6e1fe"/>
        <g id="Grupo_1207827" data-name="Grupo 1207827" transform="translate(32.621 32.621)">
          <g id="Grupo_1099618" data-name="Grupo 1099618" transform="translate(0.12 -0.692)">
            <rect id="Rectángulo_401104" data-name="Rectángulo 401104" width="84.532" height="84.532" transform="translate(0)" fill="none"/>
          </g>
          <g id="Grupo_1211063" data-name="Grupo 1211063" transform="translate(4.12 -0.692)">
            <g id="Grupo_1211062" data-name="Grupo 1211062" transform="translate(2 4)" clip-path="url(#clip-path)">
              <path id="Trazado_1273358" data-name="Trazado 1273358" d="M19.205,162.02,1.052,145.112c-3.133-4.048,1.579-8.837,5.771-5.771l18.33,17.078,40.58.15a4.087,4.087,0,0,1,1.894,6.727c2.73,3.029.077,7.055-3.757,6.826l-.006,3.538a6.1,6.1,0,1,1-7.758.848c.2-.235,1.051-.7,1.051-.8V170.12H11.568v3.7c0,.031.377.032.575.224,5.391,5.239-.5,13.218-6.665,10.148a6.1,6.1,0,0,1-.617-10.535l.009-3.405c-2.949-.265-5.717-2.3-4.629-5.561.257-.77,1.9-2.673,2.648-2.673ZM3.4,141.006a1.511,1.511,0,0,0-.28,2.5l20.01,18.406,42.072-.073a1.519,1.519,0,0,0,.292-2.717l-41.207-.218-19.3-17.729a1.976,1.976,0,0,0-1.589-.174m0,23.6c-1.638,1.039-.664,3.025,1.1,2.975h59.73c2.011.2,2.774-2.756.695-3.031Zm5.626,5.508H7.4v2.548H9.024Zm52.3,0H59.7v2.548h1.622ZM7.339,175.265a4.508,4.508,0,0,0-2.124,1.577c-2.418,3.718,2.942,7.508,5.662,4.273a3.6,3.6,0,0,0-3.537-5.85m52.536,0c-5.283.858-2.5,9.464,2.538,6.472a3.531,3.531,0,0,0-2.538-6.472" transform="translate(0 -106.345)" fill="#6a2874"/>
              <path id="Trazado_1273359" data-name="Trazado 1273359" d="M70.938,16.8a4.632,4.632,0,0,1-.367,2.526c-.622,1.034-1.6.608-1.716.714a16.573,16.573,0,0,0,.213,4.242c.595.94,2.859-.971,3.825-1.244a4.015,4.015,0,0,1,4.186,6.5c-1.2,1.416-3.729,2.015-4.976,3.124-.647.576.682,1.239,1.2,1.227l7.521-3.843c1.23-.668,2.96.624,3.651.626.619,0,1.525-1.132,2.6-1.316,2.907-.5,4.04,1.233,5.852,3.062,2.1,2.118,4.048,4.459,6.114,6.614,1.7.381,3.091.07,4.442,1.459,2.838,2.918.421,7.434-3.5,7.331-10.615-.537-21.881.685-32.419,0a9.247,9.247,0,0,1-5.662-1.975C57.747,42.551,53.83,38.1,49.758,34.62a3.09,3.09,0,0,1-.215-3.928c.582-.876,4.922-3.24,6.117-3.835,3.433-1.71,5.95-1.947,8.949.779l2.61-1.491c-1.179-1.952-.905-3.916-.919-6.1-2.123.086-1.9-1.636-1.843-3.248A2.742,2.742,0,0,1,61.5,15.011c.257-3.9-.511-8.652-.054-12.454A2.635,2.635,0,0,1,64.111.132a45.581,45.581,0,0,1,6.944,0c1.529.171,2.527.841,2.672,2.42.364,3.962-.289,8.478-.016,12.5A2.732,2.732,0,0,1,70.938,16.8M64,6.15l7.189-1.027c.357-.249.4-2.129-.131-2.445H64ZM71.4,7.77C68.857,7.492,66.522,8.846,64,8.7V14.25H71.4Zm3.631,20.292a1.551,1.551,0,0,0-1.38-2.664c-.6.129-1.084.89-1.789.889l1.535,2.53a4.419,4.419,0,0,0,1.634-.756M71.157,30.43l-1.38-2.757-2.768,1.735,2.422,1.9Zm-.681,4.652c-3.018-1.609-5.7-4.672-8.584-6.346a4.115,4.115,0,0,0-4.075-.183,63.114,63.114,0,0,0-6.275,3.557c-.263.451.142,1.081.527,1.358,3.77,2.954,7.092,6.824,10.767,9.829a6.882,6.882,0,0,0,4.507,1.973c10.564.831,22.2-.644,32.876,0,2.173-.088,2.757-2.94.444-3.464l-21.056,0c-.822,0-1.265-.96-2.073-.958-.884,0-5.937,3.2-7.458,3.673a3.907,3.907,0,0,1-3.977-.546c-1.486-.884-9.614-6.911-10.308-7.975a4.075,4.075,0,0,1,3.9-6.219c2.528.306,6.7,4.934,9.158,6.137Zm20.713,4.162H95.7l-6.33-6.861a1.884,1.884,0,0,0-2.015-.442c-1.878.627-1.161,1.626-1.427,2.97a5.406,5.406,0,0,1-1.211,2.029l-4.059,2.3a18.792,18.792,0,0,0,2.614-.044c.934-.28,3.248-3.089,4.444-3.091,1.452,0,2.769,2.939,3.471,3.137m-32.344-6.9a1.49,1.49,0,0,0-.736,2.492c2.925,1.94,5.666,4.567,8.592,6.45.819.527,1.554,1.342,2.6.836,3.873-2.517,9.123-4.07,12.9-6.534,2.051-1.335,1.539-3.36-.915-3-3.567,1.561-7.442,4.286-10.994,5.668a2.764,2.764,0,0,1-2.906-.212c-2.27-1.259-5.246-4.561-7.429-5.531a1.415,1.415,0,0,0-1.121-.173" transform="translate(-37.616 0)" fill="#6a2874"/>
              <path id="Trazado_1273360" data-name="Trazado 1273360" d="M216.5,14.665a12.192,12.192,0,1,1-8.279,19.714A12.238,12.238,0,0,1,216.5,14.665M210.848,20c-8.281,8.443,3.447,21.894,12.988,14.261C234.3,25.892,220.245,10.421,210.848,20" transform="translate(-158.005 -11.224)" fill="#6a2874"/>
              <path id="Trazado_1273361" data-name="Trazado 1273361" d="M21.036,75.627c7.826-1.05,10.182,11.291,2.252,11.97-7.807.668-9.776-10.96-2.252-11.97m.231,2.535c-4.516.655-2.325,8.029,2.377,6.783,3.874-1.026,1.818-7.392-2.377-6.783" transform="translate(-12.532 -58.076)" fill="#6a2874"/>
              <path id="Trazado_1273362" data-name="Trazado 1273362" d="M29.724,307.433a1.578,1.578,0,1,1,0,2.909,1.63,1.63,0,0,1,0-2.909" transform="translate(-22.157 -236.203)" fill="#6a2874"/>
              <path id="Trazado_1273363" data-name="Trazado 1273363" d="M257.49,306.219a1.63,1.63,0,0,1-2.242,2.358c-1.564-1.343.656-3.931,2.242-2.358" transform="translate(-195.768 -234.975)" fill="#6a2874"/>
              <path id="Trazado_1273364" data-name="Trazado 1273364" d="M252.867,42.29a2,2,0,0,1-.308-1.2,42.763,42.763,0,0,1,.015-6.484,1.31,1.31,0,0,1,1.244-1.05c2.27.11.843,5.656,1.408,7.179,1,.8,6.178,2.58,4.048,4.273a1.252,1.252,0,0,1-.981.314,54.984,54.984,0,0,1-5.426-3.034" transform="translate(-194.02 -25.79)" fill="#6a2874"/>
            </g>
          </g>
        </g>
      </g>
      <ellipse id="Elipse_13678" data-name="Elipse 13678" cx="18.074" cy="18.074" rx="18.074" ry="18.074" transform="translate(0.769 113.817)" fill="#da9dfe"/>
      <g id="Grupo_1207826" data-name="Grupo 1207826" transform="translate(0 116.123)">
        <path id="Trazado_998481" data-name="Trazado 998481" d="M0,13.012q4.541.393,9.077.815l-.253.1,1.3-2.34a.35.35,0,0,1,.4-.123.254.254,0,0,1,.184.174l0,.009,1.114,5.034-.836-.059,1.8-4.073,1.816-4.068,1.822-4.067L18.27.354a.772.772,0,0,1,.885-.326.543.543,0,0,1,.472.536V.572L18.9,7.156l-.762,6.581-.773,6.58-.8,6.579-1.5-.222c1.16-2.774,2.354-5.539,3.536-8.307l1.778-4.152,1.8-4.146,0-.01a.657.657,0,0,1,.753-.287.475.475,0,0,1,.413.442L23.082,15.5l-.295,5.285-.776-.111,2.607-5,0-.008a.274.274,0,0,1,.277-.117l4.931.63,4.928.647-4.969-.438-4.966-.456.281-.125L22.763,20.88a.443.443,0,0,1-.508.185.318.318,0,0,1-.269-.285v-.011l.074-5.289.1-5.289,1.17.145-1.676,4.175-1.7,4.17c-1.136,2.779-2.26,5.561-3.418,8.335a.838.838,0,0,1-.96.376c-.35-.082-.566-.334-.536-.6v0l.762-6.581.791-6.579.8-6.579L18.234.48,19.59.7,17.666,4.738,15.723,8.774l-1.948,4.035-1.966,4.029-.005.01a.482.482,0,0,1-.552.192.359.359,0,0,1-.279-.261L10.1,11.718l.586.059-1.431,2.3,0,.007a.257.257,0,0,1-.249.1Q4.5,13.609,0,13.012" transform="translate(0 4.236) rotate(-7)" fill="#fff"/>
      </g>
    </g>
    <path id="Trazado_1267128" data-name="Trazado 1267128" d="M77.377,52.427V64.859a.84.84,0,0,1-.841.84h-10a.841.841,0,0,0-.841.841v10a.841.841,0,0,1-.841.841H52.427a.841.841,0,0,1-.841-.841v-10a.841.841,0,0,0-.84-.841H40.713a.841.841,0,0,1-.841-.84V52.427a.841.841,0,0,1,.841-.841H50.745a.84.84,0,0,0,.84-.84V40.714a.841.841,0,0,1,.841-.841H64.858a.841.841,0,0,1,.841.841V50.746a.841.841,0,0,0,.841.84h10a.841.841,0,0,1,.841.841" transform="translate(630.197 8531.593)" fill="#8d1939"/>
  </g>
</svg>
