<svg xmlns="http://www.w3.org/2000/svg" xmlns:xlink="http://www.w3.org/1999/xlink" width="150" height="150" viewBox="0 0 150 150">
  <defs>
    <clipPath id="clip-path">
      <rect id="Rectángulo_460599" data-name="Rectángulo 460599" width="73.014" height="81.532" fill="#6a2874"/>
    </clipPath>
  </defs>
  <g id="Grupo_1212908" data-name="Grupo 1212908" transform="translate(-305.97 -734.072)">
    <g id="Grupo_1210452" data-name="Grupo 1210452" transform="translate(-255.74 -7833.012)">
      <g id="Grupo_1207828" data-name="Grupo 1207828" transform="translate(561.711 8567.084)">
        <g id="Grupo_1177470" data-name="Grupo 1177470" transform="translate(0 0)">
          <circle id="Elipse_13609" data-name="Elipse 13609" cx="75" cy="75" r="75" fill="#f6e1fe"/>
          <g id="Grupo_1207827" data-name="Grupo 1207827" transform="translate(32.621 32.621)">
            <g id="Grupo_1099618" data-name="Grupo 1099618" transform="translate(1.12 5.307)">
              <rect id="Rectángulo_401104" data-name="Rectángulo 401104" width="84.532" height="84.532" transform="translate(0)" fill="none"/>
            </g>
            <g id="Grupo_1211059" data-name="Grupo 1211059" transform="translate(7.12 7.307)">
              <g id="Grupo_1211058" data-name="Grupo 1211058" clip-path="url(#clip-path)">
                <path id="Trazado_1273347" data-name="Trazado 1273347" d="M41.237,27.352h7.24c.228-2.931,1.8-5.324,3.51-7.584.968-1.278,2.205-2.009,2.839-3.7.945-2.524-.154-6.542,2.939-7.571,2.262-.753,4.9.961,6.6,2.387,8.113,6.839,13.455,20.324,2.323,27.134l0,21.435c-.38,2.327-3.256,1.125-3.256.014V39.5l-3.026.71c.027.991.075,2.739-1.107,2.97l-13.919.007a1.463,1.463,0,0,1-.861-1.008,48.325,48.325,0,0,1-.018-7.012,1.923,1.923,0,0,1,1.53-1.506h4.087l-1.168-3.036H41.237V60.167c0,2.607.918,4.17,2.612,6.03.208.229.206.5.658.393V60.167a6.044,6.044,0,0,1,.705-.7c4.278.057,9.19-.491,13.435-.131,1.058.09,1.606.348,1.752,1.518a41.484,41.484,0,0,1-.006,6.32c-.063.531-.471,1.514-1.055,1.514h-13.2L47.7,71.971l11.157,0c.5-.06,1.532.9,1.532,1.271v5.021h3.036V73.246c0-1.224,2.731-1.865,3.221-.185a57.89,57.89,0,0,1,.043,7.187A2.032,2.032,0,0,1,65.4,81.532L.653,81.365,0,80.617.017,9.138a2.253,2.253,0,0,1,1.411-.924c1.292-.205,6.49.272,7.063-.062C10.2,5.166,16.667-1.713,20.431.395,23.29,2,21.541,5.9,23.168,8.168L39.251,8.2c.629-.091,1.985.678,1.985,1.284ZM8.072,21.046h3.737c.01-1.011,1.278-1.781,1.574-2.513.593-1.463-.252-3.54,1.292-4.547,3.142-2.049,8.027,4.221,8.61,7.028.623-.025,2.512.326,2.738-.351.25-2.39-.859-4.525-2.205-6.371-1.139-1.561-2.794-2.767-3.643-4.532-1.03-2.141-.814-3.921-1.123-6.123-.11-.785-1.249-.182-1.647,0C12.587,5.807,6.42,15.585,8.072,21.046M6.437,11.47h-3.5v66.8H24.187l-.466-3.037L7.047,74.971a1.783,1.783,0,0,1-.83-1.272,43.635,43.635,0,0,1,.036-6.943,1.418,1.418,0,0,1,1.464-1.105l18.224.006c.708-.135,1.8-2.643,2.451-3.271H7.254c-.457,0-.962-.838-1.036-1.3a41.107,41.107,0,0,1-.02-6.53,1.789,1.789,0,0,1,1.34-1.7L33.4,52.824c1.789.352,1.579,2.023,1.533,3.489l3.035-.7V11.47H25.822l2.1,3.154c1.726.593,6.064-.812,6.831,1.11a36.38,36.38,0,0,1,.128,7.247c-.2.906-1.3,1.327-2.157,1.346-8.2-.585-17.395.737-25.481,0-1.359-.124-1.6-.476-2.039-1.7-1.359-3.763-.267-7.64,1.233-11.159M67.4,33.191c5.147-5,1.272-13.021-2.685-17.52-1.509-1.716-3.691-3.749-5.951-4.2-.352,2.216-.2,4.076-1.135,6.225-.9,2.075-2.722,3.33-3.972,5.136-2.154,3.111-3.01,6.987-.042,9.887-.36-3.39,4.728-10.37,8.234-9.766,2.379.41,1.752,2.8,2.268,4.289.408,1.176,1.992,2.294,2.623,3.683a13.021,13.021,0,0,1,.661,2.261M19.983,21.046c-.438-.76-2.323-3.72-3.151-3.739a6.4,6.4,0,0,1-1.287,3.739Zm11.678-3.27H29.092v3.27h2.569Zm29.194,8.876a8.078,8.078,0,0,0-3.616,4.206c-2.245,5.783,4.351,8.047,6.518,4.182,1.849-3.3-3.459-5.078-2.9-8.388M57.119,40.2c.25-1.411-1.246-1.5-2.258-2.063-.34-.188-1.719-1.207-1.829-1.207H47.543V40.2ZM31.661,56.08H9.473v3.27h21.6c.819,0,.563-2.717.584-3.27m6.3,2.813c-1.068-.906-5.771,3.875-6.522,4.784-3.05,3.692-6.162,9.806-3.748,14.478a4.4,4.4,0,0,0,1.77.124c1.006-.128.7-.58,1.167-1.166a18.5,18.5,0,0,0,1.785-2.185c.726-1.417.014-3.668,1.881-4.425,3.424-1.388,7.876,4.828,8.62,7.724l1.574.015c2.871-6.615-4.807-9.6-5.984-14.871-.331-1.484-.209-3-.543-4.479m19.162,3.493H47.543v3.27h9.576ZM24.654,68.692H9.473v3.27H23.953Zm14.714,9.576a8.31,8.31,0,0,0-3.5-4.438,4.173,4.173,0,0,1-.357,2.1c-.4,1.058-1.18,1.374-1.514,2.34Zm17.75-3.036H48.243l-.467,3.036h9.342Z" transform="translate(0 0)" fill="#6a2874"/>
                <path id="Trazado_1273348" data-name="Trazado 1273348" d="M191.227,198.474c1.846-.406,10.612-.261,12.807-.061,1.2.109,1.832.5,1.979,1.758a39.7,39.7,0,0,1,0,6.083,1.772,1.772,0,0,1-1.752,1.752,87.178,87.178,0,0,1-12.395.006c-.722-.065-1.572-.207-1.736-1.067a51.087,51.087,0,0,1-.017-7.247,1.293,1.293,0,0,1,1.113-1.223m11.511,3.22h-9.576v3.036h9.576Z" transform="translate(-145.619 -151.921)" fill="#6a2874"/>
                <path id="Trazado_1273349" data-name="Trazado 1273349" d="M272.2,277.865c1.41-1.423,3.7.731,2.379,2.262-1.3,1.5-3.991-.636-2.379-2.262" transform="translate(-208.241 -212.611)" fill="#6a2874"/>
                <path id="Trazado_1273350" data-name="Trazado 1273350" d="M27.259,172.319l26.527,0a2.1,2.1,0,0,1,1.086,1.483,41.291,41.291,0,0,1-.037,6.71,1.794,1.794,0,0,1-1.7,1.34l-25.647-.055c-1.011-.316-1.257-.94-1.346-1.924a40.163,40.163,0,0,1,.026-6.3,1.365,1.365,0,0,1,1.086-1.249M51.616,175.3H29.428v3.27H51.616Z" transform="translate(-19.955 -132.071)" fill="#6a2874"/>
                <path id="Trazado_1273351" data-name="Trazado 1273351" d="M43.373,120.052a1.66,1.66,0,0,1,.05-3.22c3.057.123,6.529-.335,9.537-.061,1.03.094,1.785.427,1.96,1.543a39.489,39.489,0,0,1,.019,6.3,1.913,1.913,0,0,1-1.3,1.74l-26.517-.1a1.368,1.368,0,0,1-.906-1.2,43.114,43.114,0,0,1,.035-6.942c.7-3.115,7.9-.565,3.21,2.091l.01,2.881H51.664v-3.036c-2.36-.346-6.112.465-8.291,0" transform="translate(-20.003 -89.43)" fill="#6a2874"/>
                <path id="Trazado_1273352" data-name="Trazado 1273352" d="M65.33,117.153a1.629,1.629,0,1,1,.394,3.231c-1.973.127-2.151-2.9-.394-3.231" transform="translate(-49.144 -89.765)" fill="#6a2874"/>
              </g>
            </g>
          </g>
        </g>
        <ellipse id="Elipse_13678" data-name="Elipse 13678" cx="18.074" cy="18.074" rx="18.074" ry="18.074" transform="translate(0.769 113.817)" fill="#da9dfe"/>
        <g id="Grupo_1207826" data-name="Grupo 1207826" transform="translate(0 116.123)">
          <path id="Trazado_998481" data-name="Trazado 998481" d="M0,13.012q4.541.393,9.077.815l-.253.1,1.3-2.34a.35.35,0,0,1,.4-.123.254.254,0,0,1,.184.174l0,.009,1.114,5.034-.836-.059,1.8-4.073,1.816-4.068,1.822-4.067L18.27.354a.772.772,0,0,1,.885-.326.543.543,0,0,1,.472.536V.572L18.9,7.156l-.762,6.581-.773,6.58-.8,6.579-1.5-.222c1.16-2.774,2.354-5.539,3.536-8.307l1.778-4.152,1.8-4.146,0-.01a.657.657,0,0,1,.753-.287.475.475,0,0,1,.413.442L23.082,15.5l-.295,5.285-.776-.111,2.607-5,0-.008a.274.274,0,0,1,.277-.117l4.931.63,4.928.647-4.969-.438-4.966-.456.281-.125L22.763,20.88a.443.443,0,0,1-.508.185.318.318,0,0,1-.269-.285v-.011l.074-5.289.1-5.289,1.17.145-1.676,4.175-1.7,4.17c-1.136,2.779-2.26,5.561-3.418,8.335a.838.838,0,0,1-.96.376c-.35-.082-.566-.334-.536-.6v0l.762-6.581.791-6.579.8-6.579L18.234.48,19.59.7,17.666,4.738,15.723,8.774l-1.948,4.035-1.966,4.029-.005.01a.482.482,0,0,1-.552.192.359.359,0,0,1-.279-.261L10.1,11.718l.586.059-1.431,2.3,0,.007a.257.257,0,0,1-.249.1Q4.5,13.609,0,13.012" transform="translate(0 4.236) rotate(-7)" fill="#fff"/>
        </g>
      </g>
      <path id="Trazado_1267128" data-name="Trazado 1267128" d="M77.377,52.427V64.859a.84.84,0,0,1-.841.84h-10a.841.841,0,0,0-.841.841v10a.841.841,0,0,1-.841.841H52.427a.841.841,0,0,1-.841-.841v-10a.841.841,0,0,0-.84-.841H40.713a.841.841,0,0,1-.841-.84V52.427a.841.841,0,0,1,.841-.841H50.745a.84.84,0,0,0,.84-.84V40.714a.841.841,0,0,1,.841-.841H64.858a.841.841,0,0,1,.841.841V50.746a.841.841,0,0,0,.841.84h10a.841.841,0,0,1,.841.841" transform="translate(630.197 8531.593)" fill="#8d1939"/>
    </g>
  </g>
</svg>
