<svg xmlns="http://www.w3.org/2000/svg" xmlns:xlink="http://www.w3.org/1999/xlink" width="150" height="150" viewBox="0 0 150 150">
  <defs>
    <clipPath id="clip-path">
      <rect id="Rectángulo_460700" data-name="Rectángulo 460700" width="77.407" height="77.5" fill="#6a2874"/>
    </clipPath>
  </defs>
  <g id="Grupo_1210464" data-name="Grupo 1210464" transform="translate(-561.711 -8567.084)">
    <g id="Grupo_1207828" data-name="Grupo 1207828" transform="translate(561.711 8567.084)">
      <g id="Grupo_1177470" data-name="Grupo 1177470" transform="translate(0 0)">
        <circle id="Elipse_13609" data-name="Elipse 13609" cx="75" cy="75" r="75" fill="#f6e1fe"/>
        <g id="Grupo_1207827" data-name="Grupo 1207827" transform="translate(32.621 32.621)">
          <g id="Grupo_1099618" data-name="Grupo 1099618" transform="translate(-1.792 0.009)">
            <rect id="Rectángulo_401104" data-name="Rectángulo 401104" width="84.532" height="84.532" transform="translate(0)" fill="none"/>
          </g>
          <g id="Grupo_1211228" data-name="Grupo 1211228" transform="translate(2.5 4.509)">
            <g id="Grupo_1211227" data-name="Grupo 1211227" clip-path="url(#clip-path)">
              <path id="Trazado_1273687" data-name="Trazado 1273687" d="M126.345,113.55c-1.393,1.457-3.545,1.69-5.459,1.527l0,21.083a4.869,4.869,0,0,1-4.688,4.226c-2.014.183-7.677.224-9.341-.557a4.77,4.77,0,0,1-2.6-3.669l0-21.083c-3.068.405-5.972-.856-6.726-3.995.449-6.619-.675-14.191-.018-20.7A8.633,8.633,0,0,1,104.4,83.3a108.844,108.844,0,0,1,15.891-.031,8.4,8.4,0,0,1,7.348,7.348c.588,6.422-.46,13.73-.01,20.248a5.559,5.559,0,0,1-1.288,2.688M104.682,86.707a5.059,5.059,0,0,0-3.771,3.939l.03,19.924c1.8,3.063,6.281-1.334,6.7,3.657.565,6.692-.631,14.324-.02,20.98.061.668.1,1.3.791,1.618a44.582,44.582,0,0,0,7.962.126c.812-.186,1.05-.74,1.14-1.51.766-6.527-.577-14.526-.013-21.214.432-5.118,5.262-.384,6.739-3.862L124.2,90.441a5.093,5.093,0,0,0-3.734-3.734,105.966,105.966,0,0,0-15.785,0" transform="translate(-73.865 -62.996)" fill="#6a2874"/>
              <path id="Trazado_1273688" data-name="Trazado 1273688" d="M16.358,184.649c-.431.426-5.193,1.872-6.36,2.434-4.5,2.168-9.566,5.963-4.287,10.635a27.823,27.823,0,0,0,9.146,4.587c.173.031.415.047.361-.121-.579-1.645-3.33-5.482-3.391-7a1.688,1.688,0,0,1,2.8-1.325l5.608,11.03a1.986,1.986,0,0,1-1.079,1.706,81.416,81.416,0,0,1-9.829,5.106c-1.4.442-2.671.107-2.561-1.575.1-1.555,4.439-3.1,5.809-3.849.352-.194,1.065-.477,1.2-.844C2.939,202.68-7.07,192.949,6.714,185c1.513-.872,7.013-3.389,8.54-3.288a1.705,1.705,0,0,1,1.1,2.934" transform="translate(0 -137.934)" fill="#6a2874"/>
              <path id="Trazado_1273689" data-name="Trazado 1273689" d="M133.245.106c11.844-1.622,13.156,16.165,1.858,16.8-10.68.6-11.9-15.426-1.858-16.8m.481,3.374c-6.015.891-5.065,10.314,1.131,10.062,6.653-.27,6.22-11.151-1.131-10.062" transform="translate(-95.918 -0.001)" fill="#6a2874"/>
              <path id="Trazado_1273690" data-name="Trazado 1273690" d="M241.312,184.605a1.736,1.736,0,0,1,1.262-2.957,20.54,20.54,0,0,1,3.972,1.217c12.735,4.886,15.982,14.4,2.02,20.8-1.745.8-8.231,3.214-9.833,2.925a1.736,1.736,0,0,1-.747-2.9c.568-.5,4.112-1.193,5.184-1.561,8.85-3.044,17.416-8.878,4.508-15.09-1.192-.574-5.887-1.99-6.366-2.429" transform="translate(-180.256 -137.885)" fill="#6a2874"/>
            </g>
          </g>
        </g>
      </g>
      <ellipse id="Elipse_13678" data-name="Elipse 13678" cx="18.074" cy="18.074" rx="18.074" ry="18.074" transform="translate(0.769 113.817)" fill="#da9dfe"/>
      <g id="Grupo_1207826" data-name="Grupo 1207826" transform="translate(0 116.123)">
        <path id="Trazado_998481" data-name="Trazado 998481" d="M0,13.012q4.541.393,9.077.815l-.253.1,1.3-2.34a.35.35,0,0,1,.4-.123.254.254,0,0,1,.184.174l0,.009,1.114,5.034-.836-.059,1.8-4.073,1.816-4.068,1.822-4.067L18.27.354a.772.772,0,0,1,.885-.326.543.543,0,0,1,.472.536V.572L18.9,7.156l-.762,6.581-.773,6.58-.8,6.579-1.5-.222c1.16-2.774,2.354-5.539,3.536-8.307l1.778-4.152,1.8-4.146,0-.01a.657.657,0,0,1,.753-.287.475.475,0,0,1,.413.442L23.082,15.5l-.295,5.285-.776-.111,2.607-5,0-.008a.274.274,0,0,1,.277-.117l4.931.63,4.928.647-4.969-.438-4.966-.456.281-.125L22.763,20.88a.443.443,0,0,1-.508.185.318.318,0,0,1-.269-.285v-.011l.074-5.289.1-5.289,1.17.145-1.676,4.175-1.7,4.17c-1.136,2.779-2.26,5.561-3.418,8.335a.838.838,0,0,1-.96.376c-.35-.082-.566-.334-.536-.6v0l.762-6.581.791-6.579.8-6.579L18.234.48,19.59.7,17.666,4.738,15.723,8.774l-1.948,4.035-1.966,4.029-.005.01a.482.482,0,0,1-.552.192.359.359,0,0,1-.279-.261L10.1,11.718l.586.059-1.431,2.3,0,.007a.257.257,0,0,1-.249.1Q4.5,13.609,0,13.012" transform="translate(0 4.236) rotate(-7)" fill="#fff"/>
      </g>
    </g>
    <path id="Trazado_1267128" data-name="Trazado 1267128" d="M77.377,52.427V64.859a.84.84,0,0,1-.841.84h-10a.841.841,0,0,0-.841.841v10a.841.841,0,0,1-.841.841H52.427a.841.841,0,0,1-.841-.841v-10a.841.841,0,0,0-.84-.841H40.713a.841.841,0,0,1-.841-.84V52.427a.841.841,0,0,1,.841-.841H50.745a.84.84,0,0,0,.84-.84V40.714a.841.841,0,0,1,.841-.841H64.858a.841.841,0,0,1,.841.841V50.746a.841.841,0,0,0,.841.84h10a.841.841,0,0,1,.841.841" transform="translate(630.197 8531.593)" fill="#8d1939"/>
  </g>
</svg>
