<svg xmlns="http://www.w3.org/2000/svg" xmlns:xlink="http://www.w3.org/1999/xlink" width="150" height="150" viewBox="0 0 150 150">
  <defs>
    <clipPath id="clip-path">
      <rect id="Rectángulo_460701" data-name="Rectángulo 460701" width="41.06" height="84.532" fill="#6a2874"/>
    </clipPath>
  </defs>
  <g id="Grupo_1210463" data-name="Grupo 1210463" transform="translate(-561.711 -8567.084)">
    <g id="Grupo_1207828" data-name="Grupo 1207828" transform="translate(561.711 8567.084)">
      <g id="Grupo_1177470" data-name="Grupo 1177470" transform="translate(0 0)">
        <circle id="Elipse_13609" data-name="Elipse 13609" cx="75" cy="75" r="75" fill="#f6e1fe"/>
        <g id="Grupo_1207827" data-name="Grupo 1207827" transform="translate(32.621 32.621)">
          <g id="Grupo_1099618" data-name="Grupo 1099618" transform="translate(0.09 0.009)">
            <rect id="Rectángulo_401104" data-name="Rectángulo 401104" width="84.532" height="84.532" transform="translate(0)" fill="none"/>
          </g>
          <g id="Grupo_1211230" data-name="Grupo 1211230" transform="translate(22.091 0.009)">
            <g id="Grupo_1211229" data-name="Grupo 1211229" clip-path="url(#clip-path)">
              <path id="Trazado_1273691" data-name="Trazado 1273691" d="M38.148,28.26a2.92,2.92,0,0,1,2.715,1.789,28.606,28.606,0,0,1,.1,5.785c-.3,1.929-2.527,3.25-4.324,3.522.342,1.132-.7,3.6-.506,4.418.076.324.781.792,1.04,1.284.875,1.663.287,3-.431,4.559-.518,1.126-2.895,3.736-2.4,4.575.095.16.753.171.929.739.371,1.2-.329,3.591.179,4.708.35.77,3.606,2.629,3.922,3.781.393,11.871-9.636,23.16-22.072,20.8C7.559,82.367,1.339,72.723,1.667,63.155l3.942-3.517c.507-1.116-.193-3.508.178-4.708.2-.645.965-.453,1.012-1.076.064-.844-1.946-3.079-2.48-4.238-.718-1.559-1.306-2.9-.431-4.559.259-.492.963-.96,1.04-1.284.193-.816-.848-3.287-.506-4.418C2.626,39.083.4,37.762.1,35.833a28.568,28.568,0,0,1,.1-5.785A2.987,2.987,0,0,1,2.655,28.26C.379,23.015-1.309,15.642,2.906,10.9c.863-.971,2.762-1.89,3.206-2.452.369-.466.668-1.883,1.033-2.568,4.027-7.561,16.055-6.9,22.5-3.184,9.4,5.423,12.391,15.54,8.508,25.569m-1.032-4.115C40.576,11.485,28.91.33,16.45,2.32c-2.943.47-5.768,1.61-7.27,4.3-.525.941-.864,2.676-1.372,3.258-.41.47-1.571.907-2.189,1.412C2.9,13.513,2.148,16.437,2.43,19.87c.1,1.2.413,3.438,1.25,4.277.391-5.22,2.124-11.5,8.592-10.774,1.778.2,4.268,1.579,5.935,1.526,1.195-.039,3.369-1.369,4.711-1.738,6.25-1.719,10.307.628,12.7,6.439ZM35.894,30c-1.073-5.493-2.024-15.711-9.694-15.376-2.874.126-5.654,2.374-8.246,2.336-3.1-.045-6.77-3.109-9.524-.544-1.645,1.531-2.358,4.7-2.658,6.859-.254,1.828,0,4.822-.4,6.293-.34,1.252-2.284.385-3.118.99a23.416,23.416,0,0,0-.1,4.5c.422,2.653,3.779,1.8,4.231,2.714.315.637.051,1.866.16,2.669.28,2.078.257,3.854,2.1,5.1,4.965,3.348,19.019,3.362,23.927-.093,1.208-.851,1.358-1.594,1.645-2.985.226-1.1.182-4.138.454-4.69.452-.914,3.808-.06,4.231-2.714a23.417,23.417,0,0,0-.1-4.5ZM6.25,46.014l-.514.131c-.391,1.463.584,2.868,1.339,4.059.343.541,1.6,1.816,1.7,2.158.26.862-.222,2.518.177,3.167a26.172,26.172,0,0,0,5.927,2.79,6.078,6.078,0,0,1,11.3,0,26.167,26.167,0,0,0,5.927-2.79c.4-.648-.082-2.3.177-3.167.151-.5,2.121-2.658,2.567-3.607.265-.563.823-2.114.472-2.611-.433-.612-.509.218-.706.374-5.574,4.431-17.743,4.438-24.236,2.18-1.416-.493-3.439-1.384-4.13-2.685m12.8,10.857A2.516,2.516,0,0,0,17.12,58.8a55.45,55.45,0,0,0-.772,9.393c.636,3.87,7.929,3.875,8.405-.221A57.171,57.171,0,0,0,23.94,58.8c-.556-2.148-3-2.313-4.894-1.932m-4.34,3.578A29.269,29.269,0,0,1,7.8,57.326c-.6,2.479,1.232,3.224,3.166,4.161s4.447,2.48,3.739-1.039m11.647,0c-.05.549-.26,2.075.381,2.261.66.192,6.049-2.492,6.4-3.07.335-.557.042-1.654.128-2.313a29.268,29.268,0,0,1-6.905,3.123m-11.867,4.6A22.87,22.87,0,0,1,7.031,61.54l-.512.017L3.677,64.413c.421,8.217,5.887,16.363,14.347,17.8C27.5,83.816,35.337,76.289,37,67.37c.159-.852.593-2.879.133-3.5a26.507,26.507,0,0,0-2.931-2.388,25.012,25.012,0,0,1-7.633,3.57c2.885,10.8-14.973,10.8-12.087,0" transform="translate(0 0)" fill="#6a2874"/>
            </g>
          </g>
        </g>
      </g>
      <ellipse id="Elipse_13678" data-name="Elipse 13678" cx="18.074" cy="18.074" rx="18.074" ry="18.074" transform="translate(0.769 113.817)" fill="#da9dfe"/>
      <g id="Grupo_1207826" data-name="Grupo 1207826" transform="translate(0 116.123)">
        <path id="Trazado_998481" data-name="Trazado 998481" d="M0,13.012q4.541.393,9.077.815l-.253.1,1.3-2.34a.35.35,0,0,1,.4-.123.254.254,0,0,1,.184.174l0,.009,1.114,5.034-.836-.059,1.8-4.073,1.816-4.068,1.822-4.067L18.27.354a.772.772,0,0,1,.885-.326.543.543,0,0,1,.472.536V.572L18.9,7.156l-.762,6.581-.773,6.58-.8,6.579-1.5-.222c1.16-2.774,2.354-5.539,3.536-8.307l1.778-4.152,1.8-4.146,0-.01a.657.657,0,0,1,.753-.287.475.475,0,0,1,.413.442L23.082,15.5l-.295,5.285-.776-.111,2.607-5,0-.008a.274.274,0,0,1,.277-.117l4.931.63,4.928.647-4.969-.438-4.966-.456.281-.125L22.763,20.88a.443.443,0,0,1-.508.185.318.318,0,0,1-.269-.285v-.011l.074-5.289.1-5.289,1.17.145-1.676,4.175-1.7,4.17c-1.136,2.779-2.26,5.561-3.418,8.335a.838.838,0,0,1-.96.376c-.35-.082-.566-.334-.536-.6v0l.762-6.581.791-6.579.8-6.579L18.234.48,19.59.7,17.666,4.738,15.723,8.774l-1.948,4.035-1.966,4.029-.005.01a.482.482,0,0,1-.552.192.359.359,0,0,1-.279-.261L10.1,11.718l.586.059-1.431,2.3,0,.007a.257.257,0,0,1-.249.1Q4.5,13.609,0,13.012" transform="translate(0 4.236) rotate(-7)" fill="#fff"/>
      </g>
    </g>
    <path id="Trazado_1267128" data-name="Trazado 1267128" d="M77.377,52.427V64.859a.84.84,0,0,1-.841.84h-10a.841.841,0,0,0-.841.841v10a.841.841,0,0,1-.841.841H52.427a.841.841,0,0,1-.841-.841v-10a.841.841,0,0,0-.84-.841H40.713a.841.841,0,0,1-.841-.84V52.427a.841.841,0,0,1,.841-.841H50.745a.84.84,0,0,0,.84-.84V40.714a.841.841,0,0,1,.841-.841H64.858a.841.841,0,0,1,.841.841V50.746a.841.841,0,0,0,.841.84h10a.841.841,0,0,1,.841.841" transform="translate(630.197 8531.593)" fill="#8d1939"/>
  </g>
</svg>
