<svg xmlns="http://www.w3.org/2000/svg" xmlns:xlink="http://www.w3.org/1999/xlink" width="66.289" height="66" viewBox="0 0 66.289 66">
  <defs>
    <clipPath id="clip-path">
      <rect id="Rectángulo_460666" data-name="Rectángulo 460666" width="66.289" height="37.666" fill="none"/>
    </clipPath>
    <clipPath id="clip-path-3">
      <rect id="Rectángulo_460653" data-name="Rectángulo 460653" width="66.289" height="2.201" fill="none"/>
    </clipPath>
    <clipPath id="clip-path-4">
      <rect id="Rectángulo_460654" data-name="Rectángulo 460654" width="1.366" height="2.082" fill="none"/>
    </clipPath>
    <clipPath id="clip-path-5">
      <rect id="Rectángulo_460655" data-name="Rectángulo 460655" width="38.793" height="1.765" fill="none"/>
    </clipPath>
    <clipPath id="clip-path-6">
      <rect id="Rectángulo_460656" data-name="Rectángulo 460656" width="1.667" height="1.833" fill="none"/>
    </clipPath>
    <clipPath id="clip-path-7">
      <rect id="Rectángulo_460657" data-name="Rectángulo 460657" width="2.413" height="3.47" fill="none"/>
    </clipPath>
    <clipPath id="clip-path-8">
      <rect id="Rectángulo_460658" data-name="Rectángulo 460658" width="3.35" height="9.215" fill="none"/>
    </clipPath>
    <clipPath id="clip-path-9">
      <rect id="Rectángulo_460659" data-name="Rectángulo 460659" width="5.623" height="19.503" fill="none"/>
    </clipPath>
    <clipPath id="clip-path-10">
      <rect id="Rectángulo_460660" data-name="Rectángulo 460660" width="1.81" height="1.647" fill="none"/>
    </clipPath>
    <clipPath id="clip-path-12">
      <rect id="Rectángulo_460662" data-name="Rectángulo 460662" width="3.905" height="12.291" fill="none"/>
    </clipPath>
    <clipPath id="clip-path-13">
      <rect id="Rectángulo_460663" data-name="Rectángulo 460663" width="5.374" height="18.972" fill="none"/>
    </clipPath>
  </defs>
  <g id="Grupo_1211155" data-name="Grupo 1211155" transform="translate(-203.711 -2980)">
    <circle id="Elipse_13728" data-name="Elipse 13728" cx="33" cy="33" r="33" transform="translate(203.711 2980)" fill="#ff9ebf"/>
    <g id="Grupo_1211192" data-name="Grupo 1211192" transform="translate(203.711 2994)">
      <g id="Grupo_1211191" data-name="Grupo 1211191" clip-path="url(#clip-path)">
        <g id="Grupo_1211190" data-name="Grupo 1211190" transform="translate(0 0)">
          <g id="Grupo_1211189" data-name="Grupo 1211189" clip-path="url(#clip-path)">
            <g id="Grupo_1211158" data-name="Grupo 1211158" transform="translate(0 35.465)" opacity="0.1">
              <g id="Grupo_1211157" data-name="Grupo 1211157">
                <g id="Grupo_1211156" data-name="Grupo 1211156" clip-path="url(#clip-path-3)">
                  <path id="Trazado_1273500" data-name="Trazado 1273500" d="M0,87.3a1.1,1.1,0,0,0,1.1,1.1H65.188a1.1,1.1,0,1,0,0-2.2H1.1A1.1,1.1,0,0,0,0,87.3" transform="translate(0.001 -86.202)" fill="#131313"/>
                </g>
              </g>
            </g>
            <path id="Trazado_1273501" data-name="Trazado 1273501" d="M118.126,42.423l.677.085c.189.022.365.039.525.05a5.744,5.744,0,0,0,.831,0c.279-.021.43-.07.45-.114a1.783,1.783,0,0,0,.127-.448,3.255,3.255,0,0,0-.436-2.223c-.021-.03-.041-.061-.061-.093-.421-.681-.6-1.7-.79-1.969-.286-.408-1-.334-1-.334l-.011.149-.234,3.217.326.632-.355.124-.009.175Z" transform="translate(-103.086 -21.999)" fill="#2e2e2d"/>
            <path id="Trazado_1273502" data-name="Trazado 1273502" d="M72.953,42.94a3.848,3.848,0,0,0,4.345.026,9.545,9.545,0,0,0,.008-3.828,28.658,28.658,0,0,0-5.145.551Z" transform="translate(-40.894 -23.03)" fill="#006080"/>
            <path id="Trazado_1273503" data-name="Trazado 1273503" d="M118.975,41.011l.385.6-.342.157.042.921.683.018c.283.007.534,0,.75-.009a4.311,4.311,0,0,0,.784-.1c.161-.041.246-.085.259-.119a1.627,1.627,0,0,0,.074-.363,3.263,3.263,0,0,0-.639-2.267,16.894,16.894,0,0,1-1.046-1.97.7.7,0,0,0-.325-.206,1.612,1.612,0,0,0-.706-.031Z" transform="translate(-104.25 -22.138)" fill="#3c3c3b"/>
            <path id="Trazado_1273504" data-name="Trazado 1273504" d="M40.142,41.586l-.005,2.722,1.139.038h0l.232.009.955.032,0-.185v-.037l.018-.73v-.051l.01-.423.025-1.042-.689-.1-.689-.1-.415-.058Z" transform="translate(7.254 -24.477)" fill="#f0b87d"/>
            <path id="Trazado_1273505" data-name="Trazado 1273505" d="M31.612,38.442a.577.577,0,0,0-.4.413l-.11.48a1.415,1.415,0,0,0,.042.549s0,0,0,0a1.815,1.815,0,0,0,1.3,1.315.2.2,0,0,0-.006.026.011.011,0,0,1,0,.007c-.077.354-.567.815-.235.94.367.137.809.7,1.294.871,2.223.524,2.466-.875,2.685-1.693a1.943,1.943,0,0,0-.579-1.914,2.489,2.489,0,0,0-.637-.415,3.6,3.6,0,0,0-.425-.163,2.928,2.928,0,0,0-.292.038l-.1-.082-.454-.365a.244.244,0,0,0-.361.086l-.115.195c-.148-.036-.959-.312-.959-.312a1.2,1.2,0,0,0-.642.024" transform="translate(17.268 -22.593)" fill="#f0b87d"/>
            <path id="Trazado_1273506" data-name="Trazado 1273506" d="M29.954,43.867c.042.284.3.457.639.564.058.02.12.035.183.05a10.07,10.07,0,0,0,1.811.141l.139,0,.1,0c1.153.026,1.626-.193,1.929-.8a4.6,4.6,0,0,0,.28-.807,2.216,2.216,0,0,0-.268-2.092.591.591,0,0,0-.707-.1h0c-.007.113-.014.218-.023.316-.177,1.807-.938,1.254-2.738.859a4.555,4.555,0,0,0-.144.455.078.078,0,0,0,.012.016c.129.169.525.6.55.623a2.424,2.424,0,0,0-.782-.206H30.9a.742.742,0,0,0-.113,0h0a.826.826,0,0,0-.513.179h0a.692.692,0,0,0-.125.133,1.21,1.21,0,0,0-.192.657" transform="translate(18.808 -23.989)" fill="#3c3c3b"/>
            <path id="Trazado_1273507" data-name="Trazado 1273507" d="M38.032,45.758c-.345-.094-.664-.494-.6-.72s.334-.124.681-.034c.229.06.569.091.574.358,0,.234-.146.534-.652.4" transform="translate(12.209 -26.428)" fill="#f0b87d"/>
            <g id="Grupo_1211161" data-name="Grupo 1211161" transform="translate(48.355 15.849)" opacity="0.1">
              <g id="Grupo_1211160" data-name="Grupo 1211160">
                <g id="Grupo_1211159" data-name="Grupo 1211159" clip-path="url(#clip-path-4)">
                  <path id="Trazado_1273508" data-name="Trazado 1273508" d="M40.794,38.523a.577.577,0,0,0-.4.413l-.11.48a1.415,1.415,0,0,0,.042.549s0,0,0,0a1.573,1.573,0,0,0,.592.416,4.758,4.758,0,0,0,.721.223,1.171,1.171,0,0,1-.52-.408,2.044,2.044,0,0,1-.295-.6,1.956,1.956,0,0,1-.112-.654,1.162,1.162,0,0,1,.085-.422" transform="translate(-40.27 -38.523)" fill="#050504"/>
                </g>
              </g>
            </g>
            <path id="Trazado_1273509" data-name="Trazado 1273509" d="M43.622,40.966c.08.271.171.545.269.819.007.019.014.039.021.06.054.146.109.294.167.44h.132c.515,0,2.047.007,3.833.021l.358,0,1.723.016.625.006c2.248.022,3.4.237,4.585-.395h0q.156-.081.313-.185l.079-.024.5-.153h0c-.037-.146-.07-.294-.1-.443l-.044-.222h0c-.125-.637-.218-1.259-.332-1.751-.022-.091-.044-.179-.068-.26h0c-.008-.029-.016-.054-.024-.081-.075-.156-.5-.385-.5-.385a4.781,4.781,0,0,0-1.569-.92,6.632,6.632,0,0,0-1.777-.4c-.118-.012-.239-.019-.363-.024-.25-.011-.515-.009-.792.005-1.291-.295-5.462-.439-7.343.622-.038.021-.074.042-.11.064,0,.013,0,.026,0,.038a8.109,8.109,0,0,0,.426,3.153" transform="translate(-7.694 -21.704)" fill="#e94e1b"/>
            <path id="Trazado_1273510" data-name="Trazado 1273510" d="M46.66,44.319l.244,1.609.058.384.005.034.2,0h0l1.877-.013,3.124-.023a1.668,1.668,0,0,0,1.464-1.029,1.325,1.325,0,0,0,.063-.6c-.214-1.012-1.425-1.068-2.1-.95-1.2.209-4.384.538-4.874.588h0l-.051,0H46.66" transform="translate(-6.612 -25.71)" fill="#cc4418"/>
            <path id="Trazado_1273511" data-name="Trazado 1273511" d="M78.642,40.393l.212,2.8.078,1.033.228,0c1.657.038,3.054.118,4.621.014a20.943,20.943,0,0,0,2.277-.276c.234-.041.475-.087.723-.138l.011-.077.07-.522.383-2.823c-.783-.084-1.508-.139-2.184-.173a57.479,57.479,0,0,0-6.418.156" transform="translate(-53.31 -23.657)" fill="#006080"/>
            <path id="Trazado_1273512" data-name="Trazado 1273512" d="M98.289,41.65l.247,2.226.058.524.012.107h.035c4.282.04,6.012.076,8.778.018v-.005l-.139-1.031-.379-2.81a66.057,66.057,0,0,1-8.178.949l-.433.021" transform="translate(-81.568 -23.943)" fill="#006080"/>
            <path id="Trazado_1273513" data-name="Trazado 1273513" d="M79.684,46.916c.023-.167.219-.164.33-.128.2.062.539.113.915.18.081.033.158.044.241.074a1.753,1.753,0,0,1,.227.094c.057.072.094.13.158.224a4.64,4.64,0,0,1-1.472-.167c-.115-.046-.418-.127-.4-.276" transform="translate(-48.048 -27.527)" fill="#ffc990"/>
            <path id="Trazado_1273514" data-name="Trazado 1273514" d="M78.382,48.169v0a.128.128,0,0,0,.111.127h1.863l1.707,0v0l-.037-.545L82,47.328c0,.012-.028.016-.078.012-.076-.005-.2-.028-.346-.056-.355-.07-.836-.182-1.043-.206l-.049,0a.434.434,0,0,0-.153.029l-.34.132-.144.056-.464.179a.42.42,0,0,0-.088.046l-.542.346-.309.2a.127.127,0,0,0-.059.107" transform="translate(-48.023 -27.708)" fill="#ffc990"/>
            <path id="Trazado_1273515" data-name="Trazado 1273515" d="M72.743,42.269c.05.281.1.535.146.738.027.119.053.221.077.3.037.123.069.192.093.192l.958,0-.007-.022c-.051-.142-.1-.287-.142-.434-.017-.051-.033-.1-.046-.155-.073-.248-.137-.5-.2-.761-.225-.99-.365-2.053-.5-3.126l-.012-.1-.727.052c-.016,0-.026.035-.032.093a22.332,22.332,0,0,0,.392,3.218" transform="translate(-37.494 -22.899)" fill="#cc4418"/>
            <path id="Trazado_1273516" data-name="Trazado 1273516" d="M61.92,46.2l.005.047.043.41.059.546v.009l5.472.011a5.9,5.9,0,0,0,1.077.026h0l.114-.013a.075.075,0,0,0,.04-.016c.07-.047.1-.2.106-.393.009-.589-.263-1.606-.7-1.609h0l-.051,0h-.011l-3.538.56-.377.06-.206.032-.678.107Z" transform="translate(-28.027 -26.615)" fill="#cc4418"/>
            <g id="Grupo_1211164" data-name="Grupo 1211164" transform="translate(14.769 18.916)" opacity="0.1">
              <g id="Grupo_1211163" data-name="Grupo 1211163">
                <g id="Grupo_1211162" data-name="Grupo 1211162" clip-path="url(#clip-path-5)">
                  <path id="Trazado_1273517" data-name="Trazado 1273517" d="M30.935,46.691l.041.92.683.019c.283.007.534,0,.75-.009a5.871,5.871,0,0,0,.831.005c4.283.039,6.012.075,8.778.017v-.005c1.657.038,3.054.118,4.621.014h.021l1.843,0,1.666,0v.006l5.471.011a5.907,5.907,0,0,0,1.078.026h0l1.876-.014.625.006c2.248.022,3.4.238,4.585-.395h0a3.6,3.6,0,0,0,.313-.185l.079-.024.5-.153h0l.232.008c.042.284.3.457.639.564.058.02.12.035.183.05a10.1,10.1,0,0,0,1.811.141l.14,0,.1,0c1.153.027,1.626-.193,1.929-.8-.206.063-.41.117-.613.158h0a4.477,4.477,0,0,1-2.382-.086,3.475,3.475,0,0,1-.843-.223,2.9,2.9,0,0,1-.335-.16h0a1.372,1.372,0,0,1-1.057-.611c-.006.234-1.19.675-1.31.654a28.364,28.364,0,0,1-6.205.644c-.173,0-.346,0-.521,0-1.251.007-2.564-.022-3.918-.072l-.156,0-.112,0c-.237-.009-.473-.017-.712-.028q-.689-.029-1.389-.063l-.063,0c-.153.022-.306.04-.461.056-.334.036-.676.06-1.028.073h0c-.549.02-1.12.014-1.724-.015a44.468,44.468,0,0,1-5.016-.611l-.113-.019-.054.012a24.229,24.229,0,0,1-7.893.463c-.1-.008-.194-.016-.291-.027-.13-.012-.261-.026-.392-.041-.61-.068-1.238-.153-1.891-.254l-.309-.049" transform="translate(-30.935 -45.977)" fill="#1d1d1b"/>
                </g>
              </g>
            </g>
            <path id="Trazado_1273518" data-name="Trazado 1273518" d="M68.182,47.318c-4.655,3.412-41.425,4-42.345-.03Z" transform="translate(-12.522 -27.833)" fill="#a69983"/>
            <path id="Trazado_1273519" data-name="Trazado 1273519" d="M130.473,43.767a.287.287,0,0,1-.041-.4h0a.244.244,0,0,1,.346-.033l.73.846a.271.271,0,0,1,.038.381l-.005.007a.256.256,0,0,1-.36.036Z" transform="translate(-118.954 -25.469)" fill="#fac48e"/>
            <path id="Trazado_1273520" data-name="Trazado 1273520" d="M143.159,51a2.414,2.414,0,0,0,.119.359.577.577,0,0,0,.383.464,2.469,2.469,0,0,0,1.417.1,1.43,1.43,0,0,0,1.217-.854v0l.026-.673.059-1.453.052-1.289.193-4.731c.033-.3-3.059-1.244-3.1-1.2a20.956,20.956,0,0,0-.332,3.933A14.767,14.767,0,0,0,143.159,51" transform="translate(-139.143 -24.562)" fill="#4c4e4e"/>
            <path id="Trazado_1273521" data-name="Trazado 1273521" d="M144.906,85.987l1.277.223.839.147,1.013.179,1.735-.028s.167-.678-.207-1.008c-.39-.34-.751-.088-1.224-.323a1.609,1.609,0,0,1-.525-.406,1.65,1.65,0,0,0-.7-.506,2.14,2.14,0,0,0-.689-.138,4.8,4.8,0,0,0-.87.06c-.1.016-.4.3-.59,1.455Z" transform="translate(-143.134 -49.513)" fill="#262625"/>
            <path id="Trazado_1273522" data-name="Trazado 1273522" d="M149.37,82.243l.939.131.6.086.516.074.119-.461.211-.825.178-.7-.444-.143-.994-.321-.459-.148-.235.813-.283.97Z" transform="translate(-147.099 -47.051)" fill="#262625"/>
            <path id="Trazado_1273523" data-name="Trazado 1273523" d="M145.718,60.089c.016-.028.028-.055.045-.081a6.1,6.1,0,0,1,.78-2.2c.269-.411.6-.682.977-.632l.036.007a.747.747,0,0,1,.143.033c.694.223,1.119,1.348,1.182,2.273a2.819,2.819,0,0,1-.012.62l-.014.052v0l-2.315,8.9-2.889-.457a37.431,37.431,0,0,1,2.069-8.52" transform="translate(-141.702 -33.648)" fill="#4c4e4e"/>
            <path id="Trazado_1273524" data-name="Trazado 1273524" d="M133.764,43.706a23.139,23.139,0,0,0,1.317,2.619,29.068,29.068,0,0,1,1.351,2.693,9.144,9.144,0,0,0,1.032,2.3.744.744,0,0,0,.662.382,1.521,1.521,0,0,0,.165.009,2.36,2.36,0,0,0,.437-.032c.834-.128,1.76-.632,1.724-1.3,0-.005,0-.011,0-.019a.048.048,0,0,0,0-.017,24.186,24.186,0,0,0-1.073-4.9s0,0,0,0c-.219-.727-.459-1.469-.7-2.217l-.2-.71c0-.021-.024-.043-.06-.067a10.4,10.4,0,0,0-1.454-.476,2.51,2.51,0,0,0-2.395.468c0,.015-.5.793-.712,1.122-.053.084-.086.141-.086.144" transform="translate(-129.195 -24.632)" fill="#565858"/>
            <path id="Trazado_1273525" data-name="Trazado 1273525" d="M128.763,86.478v.351H133.7s.236-.748-.193-1.006c-.622-.379-1.469-.158-2.091-.7a1.378,1.378,0,0,0-.272-.189,1.761,1.761,0,0,0-.857-.225,2.637,2.637,0,0,0-.489.045,3.967,3.967,0,0,0-.4.094c-.111.03-.214.064-.307.1-.064.019-.187.169-.264.592a5.1,5.1,0,0,0-.064.94" transform="translate(-120.451 -49.859)" fill="#30302f"/>
            <path id="Trazado_1273526" data-name="Trazado 1273526" d="M134.843,83.168l.785-.026.274-.009,1.015-.031.038-.478.043-.561.076-1-1.906-.266-.055-.007-.012,0v0l0,.016-.133,1.244-.064.587Z" transform="translate(-126.26 -47.548)" fill="#30302f"/>
            <path id="Trazado_1273527" data-name="Trazado 1273527" d="M133.819,69.374l.293-.047.41-.065.253-.039,1.636-.26.29-.047.086-.013.261-9.18a2.464,2.464,0,0,0-.058-.343.049.049,0,0,0,0-.017c-.23-.993-1.042-2.271-1.89-2.189l-.036,0c-.513.046-.8.66-.95,1.372v0l-.028.146c-.015.088-.03.18-.042.27A6.853,6.853,0,0,0,134,60.341a35.835,35.835,0,0,0-.186,9.033" transform="translate(-125.735 -33.649)" fill="#565858"/>
            <path id="Trazado_1273528" data-name="Trazado 1273528" d="M135.077,12.433c-.948.528-1.375-1.089-1.757-1.754l.557-1.792,2.344,1.023Z" transform="translate(-124.782 -5.231)" fill="#ffc990"/>
            <path id="Trazado_1273529" data-name="Trazado 1273529" d="M133.021,6.4a.582.582,0,0,1-.545.2l-.488-.093a1.419,1.419,0,0,1-.49-.261s0,0,0,0a6.158,6.158,0,0,1-.982-1.748c-.358-.072-.72.2-.7-.155.021-.394-.315-1.029-.28-1.547.416-2.264,1.806-1.922,2.65-1.793a1.958,1.958,0,0,1,1.532,1.31,2.5,2.5,0,0,1,.125.756,3.627,3.627,0,0,1-.022.458,2.867,2.867,0,0,1-.153.254l.035.128.153.567a.246.246,0,0,1-.225.3l-.226.027c-.026.151-.1,1.012-.1,1.012a1.206,1.206,0,0,1-.283.583" transform="translate(-120.863 -0.537)" fill="#ffc990"/>
            <path id="Trazado_1273530" data-name="Trazado 1273530" d="M130.2,4.633c1.486.567.909-1.258.909-1.258s.74.1.968.118c-.551-1.864.889-2.227,2.076-1.36.253-.762-.933-1.4-1.732-1.506-1.143-.15-2.214.21-2.485,1.33-.158.652-.29,2.552.263,2.675" transform="translate(-121.296 -0.351)" fill="#131313"/>
            <path id="Trazado_1273531" data-name="Trazado 1273531" d="M136.07,6.922c-.053.357.187.813.42.848s.25-.259.307-.615c.037-.235.146-.562-.1-.675-.214-.1-.552-.081-.629.442" transform="translate(-126.544 -3.786)" fill="#ffc990"/>
            <g id="Grupo_1211167" data-name="Grupo 1211167" transform="translate(10.491 4.245)" opacity="0.1">
              <g id="Grupo_1211166" data-name="Grupo 1211166">
                <g id="Grupo_1211165" data-name="Grupo 1211165" clip-path="url(#clip-path-6)">
                  <path id="Trazado_1273532" data-name="Trazado 1273532" d="M133.24,11.938a.582.582,0,0,1-.545.2l-.488-.093a1.419,1.419,0,0,1-.49-.261s0,0,0,0a1.579,1.579,0,0,1-.144-.714,4.777,4.777,0,0,1,.086-.755,1.18,1.18,0,0,0,.167.645,2.06,2.06,0,0,0,.432.514,1.971,1.971,0,0,0,.558.369,1.186,1.186,0,0,0,.424.093" transform="translate(-131.573 -10.318)" fill="#050504"/>
                </g>
              </g>
            </g>
            <path id="Trazado_1273533" data-name="Trazado 1273533" d="M133.991,22.9c.251.144.5.1.749.216a6.056,6.056,0,0,0,2.8.432,4.813,4.813,0,0,0,1.188-.161v0c.013-.025.024-.049.037-.075.026-.052.053-.11.081-.172l.043-.1c.045-.1.088-.214.135-.335.015-.041.03-.082.047-.125.063-.169.129-.352.195-.543.146-.422.3-.886.441-1.343.021-.066.039-.131.06-.2l.1-.309c.03-.1.062-.2.092-.3s.058-.2.086-.289v0c.043-.141.083-.276.12-.4,0,0,0,0,0,0,.013-.043.026-.084.037-.123.073-.242.133-.452.176-.611v0c.058-.21.092-.334.092-.337a9.439,9.439,0,0,0-.348-4.9l-.178-.1,0-.182a.27.27,0,0,0,0-.054.912.912,0,0,0-.386-.7l-1.28-.828-.279.549c-.077.015-.152.032-.227.051a2.622,2.622,0,0,0-.564.216,3.174,3.174,0,0,0-.914.729,6.251,6.251,0,0,0-1.128,2.012,22.016,22.016,0,0,0-1.019,5.509q-.042.514-.069.954c-.03.444-.058,1.241-.083,1.528" transform="translate(-129.49 -6.682)" fill="#dadada"/>
            <path id="Trazado_1273534" data-name="Trazado 1273534" d="M140.44,44.893a3.144,3.144,0,0,0,.324.1l.409-.046,2.512-.289.084-3.646L143.8,39.9l-1.015-.193-3.725-.293-.116.954c-.034.1-.066.2-.092.3-.439,1.557-.171,3.564,1.593,4.227" transform="translate(-134.554 -23.2)" fill="#565858"/>
            <g id="Grupo_1211170" data-name="Grupo 1211170" transform="translate(7.761 17.339)" opacity="0.15">
              <g id="Grupo_1211169" data-name="Grupo 1211169">
                <g id="Grupo_1211168" data-name="Grupo 1211168" clip-path="url(#clip-path-7)">
                  <path id="Trazado_1273535" data-name="Trazado 1273535" d="M136.394,42.145c1.383.585,2.054,2.653,2.413,3.47-.219-.727-.459-1.469-.7-2.217l-.2-.71c-.028-.156-1.067-.45-1.514-.543" transform="translate(-136.394 -42.145)" fill="#1d1d1b"/>
                </g>
              </g>
            </g>
            <g id="Grupo_1211173" data-name="Grupo 1211173" transform="translate(7.365 7.65)" opacity="0.15">
              <g id="Grupo_1211172" data-name="Grupo 1211172">
                <g id="Grupo_1211171" data-name="Grupo 1211171" clip-path="url(#clip-path-8)">
                  <path id="Trazado_1273536" data-name="Trazado 1273536" d="M137.5,26.293c.146-.422.3-.886.44-1.344.021-.065.039-.131.06-.195l.1-.309c.03-.1.062-.2.092-.3s.058-.2.086-.289v0c.041-.141.081-.274.12-.4,0,0,0,0,0,0,.011-.043.024-.084.035-.125l.006-1.385-2.783-3.349c-1.761,3.976,1.229,6.733.294,8.859a3.713,3.713,0,0,1-.172.356,4.813,4.813,0,0,0,1.188-.161v0c.013-.024.024-.049.037-.075.026-.052.052-.11.081-.172l.043-.1c.043-.1.088-.216.135-.335.015-.041.03-.082.046-.125.062-.169.128-.352.2-.543" transform="translate(-135.082 -18.593)" fill="#1d1d1b"/>
                </g>
              </g>
            </g>
            <path id="Trazado_1273537" data-name="Trazado 1273537" d="M133.807,17.291l.772,5.114,2.54.121-.605-5.432c-.042-.7-.543-1.881-1.445-1.793,0,0-1.477.158-1.263,1.988" transform="translate(-125.872 -9.004)" fill="#dadada"/>
            <path id="Trazado_1273538" data-name="Trazado 1273538" d="M138.612,40.336a9.2,9.2,0,0,1,4.876.686l-.02-1.153a26.957,26.957,0,0,0-3.132-.47,10.127,10.127,0,0,0-1.609-.016l-.059.485Z" transform="translate(-134.226 -23.165)" fill="#3c3c3b"/>
            <g id="Grupo_1211176" data-name="Grupo 1211176" transform="translate(4.108 17.466)" opacity="0.2">
              <g id="Grupo_1211175" data-name="Grupo 1211175">
                <g id="Grupo_1211174" data-name="Grupo 1211174" clip-path="url(#clip-path-9)">
                  <path id="Trazado_1273539" data-name="Trazado 1273539" d="M139.251,46.681a28.965,28.965,0,0,1,1.351,2.693,9.166,9.166,0,0,0,1.032,2.3,35.835,35.835,0,0,0-.186,9.033l.293-.047a5.107,5.107,0,0,0-.064.941v.35H143.1l-.676-1.364-.015-.032c-.032-.195-.064-.39-.092-.583q-.1-.633-.163-1.254a18.907,18.907,0,0,1,.311-6.654q.076-.3.167-.6a8.033,8.033,0,0,1-.957-1.164,13.94,13.94,0,0,1-1.686-3.567c-.077-.231-.15-.465-.221-.7a4.1,4.1,0,0,1-1.742-2.118,6.33,6.33,0,0,1-.362-1.463c-.439,1.557-.171,3.564,1.593,4.227" transform="translate(-137.473 -42.454)" fill="#1d1d1b"/>
                </g>
              </g>
            </g>
            <path id="Trazado_1273540" data-name="Trazado 1273540" d="M14.052,42.513a3.088,3.088,0,0,0,.748,1.836,2.578,2.578,0,0,0,1.012.675,3.214,3.214,0,0,0,.324.1l.409-.047,1.488-.171,1.025-.118.084-3.646.026-1.113-.577-.111-.439-.082L16.388,39.7l-1.962-.154-.114.945,0,.009c-.033.1-.065.2-.092.3-.013.043-.024.088-.033.133a4.743,4.743,0,0,0-.133,1.584" transform="translate(41.348 -23.277)" fill="#565858"/>
            <path id="Trazado_1273541" data-name="Trazado 1273541" d="M9.136,43.837a23.141,23.141,0,0,0,1.317,2.619A29.175,29.175,0,0,1,11.8,49.149a9.144,9.144,0,0,0,1.032,2.3.744.744,0,0,0,.662.382,1.521,1.521,0,0,0,.165.009,2.359,2.359,0,0,0,.437-.032c.834-.128,1.76-.632,1.724-1.3,0-.005,0-.011,0-.019a.048.048,0,0,0,0-.017,24.187,24.187,0,0,0-1.073-4.9s0,0,0,0c-.219-.727-.459-1.469-.7-2.217l-.2-.71c0-.021-.024-.043-.06-.067a10.42,10.42,0,0,0-1.454-.476,2.51,2.51,0,0,0-2.395.468c0,.015-.5.793-.712,1.122-.052.084-.086.141-.086.144" transform="translate(46.706 -24.709)" fill="#4c4e4e"/>
            <path id="Trazado_1273542" data-name="Trazado 1273542" d="M4.135,86.609v.351H9.072s.236-.748-.193-1.006c-.622-.378-1.469-.158-2.091-.7a1.378,1.378,0,0,0-.272-.189,1.756,1.756,0,0,0-.857-.225,2.637,2.637,0,0,0-.489.045,3.968,3.968,0,0,0-.4.094c-.111.03-.214.064-.307.1-.064.019-.187.169-.264.592a5.1,5.1,0,0,0-.064.941" transform="translate(55.451 -49.936)" fill="#30302f"/>
            <path id="Trazado_1273543" data-name="Trazado 1273543" d="M10.214,83.3,11,83.272l.274-.009,1.015-.031.038-.478.043-.561.076-1-1.906-.266-.055-.007-.012,0v0l0,.016-.133,1.243-.064.588Z" transform="translate(49.643 -47.625)" fill="#30302f"/>
            <path id="Trazado_1273544" data-name="Trazado 1273544" d="M9.191,69.5l.292-.047.411-.065.253-.039,1.636-.26.29-.047.086-.013.26-9.18a2.4,2.4,0,0,0-.058-.343.05.05,0,0,0,0-.017c-.23-.993-1.042-2.271-1.89-2.189l-.036,0c-.513.046-.8.66-.95,1.371v0l-.028.146c-.015.088-.03.18-.042.27a6.792,6.792,0,0,0-.035,1.374A35.835,35.835,0,0,0,9.191,69.5" transform="translate(50.167 -33.726)" fill="#4c4e4e"/>
            <path id="Trazado_1273545" data-name="Trazado 1273545" d="M14.271,49.581q.014.191.039.376a1.242,1.242,0,0,0,.12.36.455.455,0,0,0,.051.174.672.672,0,0,0,.332.288,2.458,2.458,0,0,0,1.416.1,1.73,1.73,0,0,0,1.085-.575.811.811,0,0,0,.133-.277v0l.015-.053.624-2.119.847-2.873.659-2.241a4.63,4.63,0,0,0,.39-1.557A1.321,1.321,0,0,0,19.492,40a2.971,2.971,0,0,0-2.2-.221,5.072,5.072,0,0,0-2.07.791.038.038,0,0,0-.008.009,1.164,1.164,0,0,0-.125.429,13.9,13.9,0,0,0-.133,1.584c-.023.562-.026,1.025-.019,1.045a23.987,23.987,0,0,0-.663,5.946" transform="translate(40.447 -23.354)" fill="#565858"/>
            <path id="Trazado_1273546" data-name="Trazado 1273546" d="M25.416,84.283l1.226.422.1.034.708.246.972.335,1.718.245s.272-.643-.044-1.029c-.332-.4-.729-.2-1.159-.511a1.774,1.774,0,0,1-.326-.3,1.325,1.325,0,0,1-.129-.183,1.665,1.665,0,0,0-.611-.609,2.094,2.094,0,0,0-.657-.246c-.1-.021-.2-.035-.294-.047-.21-.022-.407-.028-.576-.032-.053,0-.167.064-.316.275a4.209,4.209,0,0,0-.495,1.068Z" transform="translate(25.588 -48.62)" fill="#262625"/>
            <path id="Trazado_1273547" data-name="Trazado 1273547" d="M28.659,80.695l.907.277.581.179.5.154.19-.437.339-.781.286-.66-.417-.211-.931-.474-.43-.218-.36.766-.432.913Z" transform="translate(23.039 -46.218)" fill="#262625"/>
            <path id="Trazado_1273548" data-name="Trazado 1273548" d="M20.066,67.8l.2.064.163.052.6.2v0l1.368.444.453.148,3.566-8.146.124-.281,0,0,.023-.049a2.892,2.892,0,0,0,.109-.611c.084-.924-.159-2.1-.809-2.432a.874.874,0,0,0-.135-.055l-.034-.013a1.086,1.086,0,0,0-1.064.47,4.14,4.14,0,0,0-.485.669,6.646,6.646,0,0,0-.632,1.383c-.021.023-.037.047-.058.073s-.054.077-.082.118a39.047,39.047,0,0,0-3.3,7.969" transform="translate(31.349 -33.6)" fill="#565858"/>
            <path id="Trazado_1273549" data-name="Trazado 1273549" d="M15.059,12.4c-.858.665-1.523-.869-2-1.468l.281-1.856,2.472.657Z" transform="translate(45.108 -5.341)" fill="#ffc990"/>
            <path id="Trazado_1273550" data-name="Trazado 1273550" d="M13.275,5.811a.582.582,0,0,1-.508.285l-.5-.018a1.428,1.428,0,0,1-.524-.184s0,0,0,0a6.165,6.165,0,0,1-1.235-1.579c-.365-.017-.682.308-.716-.047-.039-.393-.467-.969-.51-1.487C9.355.478,10.78.607,11.634.607A1.957,1.957,0,0,1,13.346,1.67a2.2,2.2,0,0,1,.287.676,5.014,5.014,0,0,1,.1.545.5.5,0,0,1-.219.238l.053.121.315.6c.164.281-.107.436-.255.47l-.12.033c0,.153-.045.837-.045.837a1.2,1.2,0,0,1-.191.619" transform="translate(48.532 -0.356)" fill="#ffc990"/>
            <path id="Trazado_1273551" data-name="Trazado 1273551" d="M10.895,4.038C12.45,4.375,11.58,3,11.58,3a5.682,5.682,0,0,1,.864-.248C12.667.942,13.677,1.567,14.4,1.314,15.285-.1,12.357-.164,11.489.165c-.713.27-1.05.613-1.148,1.761a2.782,2.782,0,0,0,.554,2.113" transform="translate(47.476 0)" fill="#131313"/>
            <path id="Trazado_1273552" data-name="Trazado 1273552" d="M15.953,6.4c0,.361.308.776.543.775s.209-.293.211-.654c0-.239.06-.578-.2-.652-.227-.065-.558,0-.555.532" transform="translate(43.012 -3.443)" fill="#ffc990"/>
            <g id="Grupo_1211179" data-name="Grupo 1211179" transform="translate(59.997 4.092)" opacity="0.1">
              <g id="Grupo_1211178" data-name="Grupo 1211178">
                <g id="Grupo_1211177" data-name="Grupo 1211177" clip-path="url(#clip-path-10)">
                  <path id="Trazado_1273553" data-name="Trazado 1273553" d="M12.7,11.309a.582.582,0,0,1-.508.285l-.5-.018a1.428,1.428,0,0,1-.524-.184s0,0,0,0a1.582,1.582,0,0,1-.25-.684,4.824,4.824,0,0,1-.029-.759,1.183,1.183,0,0,0,.262.612,2.077,2.077,0,0,0,.5.442,1.971,1.971,0,0,0,.608.28,1.173,1.173,0,0,0,.433.028" transform="translate(-10.895 -9.947)" fill="#050504"/>
                </g>
              </g>
            </g>
            <path id="Trazado_1273554" data-name="Trazado 1273554" d="M11.964,23.687c.27.1.5.021.773.1a6.051,6.051,0,0,0,2.837,0A4.1,4.1,0,0,0,16.68,23.6a46.837,46.837,0,0,0,.966-5.617,9.44,9.44,0,0,0-1.083-4.788l-.192-.075-.026-.18a.267.267,0,0,0-.012-.053.911.911,0,0,0-.487-.634l-1.39-.626-.193.585c-.074.026-.145.054-.216.084a2.626,2.626,0,0,0-.525.3,3.175,3.175,0,0,0-.794.859,6.26,6.26,0,0,0-.811,2.16,22.02,22.02,0,0,0-.176,5.6c.024.343.05.662.076.953.037.444.13,1.236.149,1.523" transform="translate(43.835 -6.842)" fill="#dadada"/>
            <g id="Grupo_1211182" data-name="Grupo 1211182" transform="translate(59.035 17.393)" opacity="0.15">
              <g id="Grupo_1211181" data-name="Grupo 1211181">
                <g id="Grupo_1211180" data-name="Grupo 1211180" clip-path="url(#clip-path-7)">
                  <path id="Trazado_1273555" data-name="Trazado 1273555" d="M11.766,42.275c1.383.585,2.054,2.653,2.413,3.47-.219-.727-.459-1.469-.7-2.217l-.2-.71c-.028-.156-1.067-.45-1.514-.543" transform="translate(-11.766 -42.275)" fill="#1d1d1b"/>
                </g>
              </g>
            </g>
            <path id="Trazado_1273556" data-name="Trazado 1273556" d="M13.984,40.467a9.2,9.2,0,0,1,4.876.686L18.841,40a27.041,27.041,0,0,0-3.132-.471,10.172,10.172,0,0,0-1.609-.015L14.04,40Z" transform="translate(41.675 -23.242)" fill="#3c3c3b"/>
            <g id="Grupo_1211185" data-name="Grupo 1211185" transform="translate(55.906 7.683)" opacity="0.1">
              <g id="Grupo_1211184" data-name="Grupo 1211184">
                <g id="Grupo_1211183" data-name="Grupo 1211183" clip-path="url(#clip-path-12)">
                  <path id="Trazado_1273557" data-name="Trazado 1273557" d="M19.186,29.9l-.161-1,.161-5.476.464-4.31-2.676-.442-1.228,5.385a23.522,23.522,0,0,0,.851,4.876c-.468.818-.115,1.4.1,2.03Z" transform="translate(-15.745 -18.674)" fill="#1d1d1b"/>
                </g>
              </g>
            </g>
            <g id="Grupo_1211188" data-name="Grupo 1211188" transform="translate(51.004 17.145)" opacity="0.2">
              <g id="Grupo_1211187" data-name="Grupo 1211187">
                <g id="Grupo_1211186" data-name="Grupo 1211186" clip-path="url(#clip-path-13)">
                  <path id="Trazado_1273558" data-name="Trazado 1273558" d="M24.09,60.191l1.226.422.1.034a1.82,1.82,0,0,1-.047-1.463.715.715,0,0,1,.1-.144v0c.045-.167.088-.33.13-.491.152-.568.294-1.1.431-1.6a18.29,18.29,0,0,1,1.994-5.275,4.567,4.567,0,0,1,.73-.838,5.875,5.875,0,0,1-.168-1.647,14.847,14.847,0,0,1,.657-3.581q.11-.391.23-.791l0-.005a11.608,11.608,0,0,1-.36-1.434,2.5,2.5,0,0,1,.336-1.7l-.686.07h-.006l0,.009a1.166,1.166,0,0,0-.125.429,4.732,4.732,0,0,0-.133,1.584c-.023.562-.026,1.025-.019,1.045a23.985,23.985,0,0,0-.663,5.946,39.071,39.071,0,0,0-3.3,7.969l.2.064a4.209,4.209,0,0,0-.495,1.068Z" transform="translate(-24.09 -41.674)" fill="#1d1d1b"/>
                </g>
              </g>
            </g>
            <path id="Trazado_1273559" data-name="Trazado 1273559" d="M16.473,16.823l-.729,5.266,2.167.76L19.1,17.515c.186-.673.1-1.955-.786-2.164,0,0-1.449-.329-1.839,1.472" transform="translate(40.633 -9.022)" fill="#dadada"/>
            <path id="Trazado_1273560" data-name="Trazado 1273560" d="M16.942,44.124a.287.287,0,0,1,.031-.4h0a.246.246,0,0,1,.347.028l.612.725a.271.271,0,0,1-.029.382l-.006.006a.256.256,0,0,1-.361-.028Z" transform="translate(41.349 -25.698)" fill="#fac48e"/>
            <rect id="Rectángulo_460664" data-name="Rectángulo 460664" width="52.557" height="0.75" transform="translate(7.482 19.017)" fill="#cbbba0"/>
            <path id="Trazado_1273561" data-name="Trazado 1273561" d="M18.017,47.26a.287.287,0,0,1,.285-.289h0a.245.245,0,0,1,.246.244l0,.453a.271.271,0,0,1-.269.273h-.008a.255.255,0,0,1-.258-.254Z" transform="translate(40.322 -27.646)" fill="#fac48e"/>
            <path id="Trazado_1273562" data-name="Trazado 1273562" d="M19.291,47.059a.245.245,0,0,1,.243-.251h0a.287.287,0,0,1,.289.281l.013.583a.229.229,0,0,1-.227.234h-.051a.256.256,0,0,1-.258-.25Z" transform="translate(38.513 -27.55)" fill="#fac48e"/>
            <path id="Trazado_1273563" data-name="Trazado 1273563" d="M20.577,47.231a.287.287,0,0,1,.285-.289h0a.242.242,0,0,1,.174.07.246.246,0,0,1,.073.173l0,.453a.271.271,0,0,1-.269.273H20.8a.213.213,0,0,1-.215-.212Z" transform="translate(36.709 -27.629)" fill="#fac48e"/>
            <path id="Trazado_1273564" data-name="Trazado 1273564" d="M21.847,47.326a.2.2,0,0,1,.2-.189h.037a.2.2,0,0,1,.2.187l0,.38a.183.183,0,0,1-.188.177h-.077a.17.17,0,0,1-.177-.163Z" transform="translate(35.009 -27.743)" fill="#fac48e"/>
            <path id="Trazado_1273565" data-name="Trazado 1273565" d="M19.981,43.307a.479.479,0,0,1,0,.049c0,.035,0,.072.006.108,0,.009,0,.016,0,.025a.122.122,0,0,1,0,.023.073.073,0,0,1,0,.027.066.066,0,0,1,0,.025.094.094,0,0,1,0,.032.911.911,0,0,1-.006.094v.005a.436.436,0,0,0,0,.046c0,.039-.007.078-.009.119a.029.029,0,0,0,0,.012,1.615,1.615,0,0,0-.006.162v0a.108.108,0,0,0,0,.023l0,.08c0,.009,0,.018,0,.025a.179.179,0,0,1-.007.034v0a.076.076,0,0,0,0,.009.256.256,0,0,1-.24.188H19.7a.253.253,0,0,1-.26-.226v-.018a.035.035,0,0,1,0,.018.192.192,0,0,1-.016.079s0,0,0,0a.06.06,0,0,1,0,.012s0,0,0,0a.262.262,0,0,1-.224.142h-.005a.255.255,0,0,1-.262-.228v-.093a.153.153,0,0,1,0,.039.282.282,0,0,1-.014.056.042.042,0,0,1-.006.013s0,0,0,0a.14.14,0,0,1-.011.022.258.258,0,0,1-.214.125h0a.257.257,0,0,1-.218-.109.246.246,0,0,1-.045-.135v-.083a.264.264,0,0,1-.008.064.22.22,0,0,1-.018.046.18.18,0,0,1-.013.019v0a.228.228,0,0,1-.186.1.224.224,0,0,1-.243-.2l0-.05v-.138s0-.057,0-.151a.053.053,0,0,1,0-.016c0-.037,0-.08.009-.128a.11.11,0,0,1,0-.034c0-.046.007-.094.014-.146v0c.006-.041.012-.084.019-.129,0-.016,0-.032.007-.048.008-.041.017-.084.026-.129a2.4,2.4,0,0,1,.234-.653c.009-.017.041-.854.041-.854a.043.043,0,0,1,.043-.042l.744.008.2.027.071.009c.052.108.107.216.163.325a6.454,6.454,0,0,1,.311.684c.016.047.031.092.045.137a2.689,2.689,0,0,1,.11.587" transform="translate(38.921 -24.444)" fill="#ffcf9f"/>
            <path id="Trazado_1273566" data-name="Trazado 1273566" d="M20.548,29.3l-.108,5.329-1.581-.064-.728-4.373a1.58,1.58,0,0,1,.35-1.424,1.185,1.185,0,0,1,.924-.42l.025,0c.684.05,1.167.266,1.117.95" transform="translate(38.296 -16.682)" fill="#dadada"/>
            <path id="Trazado_1273567" data-name="Trazado 1273567" d="M131.039,46.808a.288.288,0,0,1,.23-.335h0a.245.245,0,0,1,.286.2l.083.446a.271.271,0,0,1-.217.316l-.008,0a.256.256,0,0,1-.3-.2Z" transform="translate(-119.265 -27.351)" fill="#fac48e"/>
            <path id="Trazado_1273568" data-name="Trazado 1273568" d="M132.25,46.849a.245.245,0,0,1,.2-.289h0a.287.287,0,0,1,.334.225l.115.572a.228.228,0,0,1-.182.27l-.05.009a.256.256,0,0,1-.3-.2Z" transform="translate(-121.021 -27.401)" fill="#fac48e"/>
            <path id="Trazado_1273569" data-name="Trazado 1273569" d="M133.564,47.231a.287.287,0,0,1,.23-.334h0a.247.247,0,0,1,.183.039.243.243,0,0,1,.1.157l.083.446a.271.271,0,0,1-.217.316l-.05.009a.213.213,0,0,1-.249-.171Z" transform="translate(-122.828 -27.599)" fill="#fac48e"/>
            <path id="Trazado_1273570" data-name="Trazado 1273570" d="M134.838,47.521A.2.2,0,0,1,135,47.3l.037-.007a.2.2,0,0,1,.234.148l.069.374a.182.182,0,0,1-.153.207l-.075.014a.171.171,0,0,1-.2-.129Z" transform="translate(-124.529 -27.833)" fill="#fac48e"/>
            <path id="Trazado_1273571" data-name="Trazado 1273571" d="M133.134,42.975a.477.477,0,0,1,.01.049c.01.034.018.07.025.1,0,.009,0,.016,0,.025a.094.094,0,0,1,0,.023.07.07,0,0,1,0,.026.068.068,0,0,1,0,.025.1.1,0,0,1,0,.032.883.883,0,0,1,.011.094v0a.413.413,0,0,0,0,.046c0,.039.007.079.012.119a.027.027,0,0,0,0,.012c0,.053.012.106.022.16V43.7a.108.108,0,0,0,0,.023l.016.078c0,.009,0,.018,0,.024a.2.2,0,0,1,0,.035v.011a.256.256,0,0,1-.2.228h-.005a.253.253,0,0,1-.3-.177l0-.017a.033.033,0,0,1,0,.018.194.194,0,0,1,0,.08s0,0,0,0a.091.091,0,0,1,0,.013s0,0,0,0a.262.262,0,0,1-.2.179h-.005a.255.255,0,0,1-.3-.178l0-.017-.007-.037-.008-.038a.142.142,0,0,1,0,.039.268.268,0,0,1,0,.058.045.045,0,0,1,0,.014s0,0,0,0a.114.114,0,0,1-.007.023.258.258,0,0,1-.189.16h0a.257.257,0,0,1-.234-.068.251.251,0,0,1-.068-.125l0-.017-.013-.064a.232.232,0,0,1,0,.065.192.192,0,0,1-.01.048.12.12,0,0,1-.009.021v0a.227.227,0,0,1-.165.131.223.223,0,0,1-.274-.157l-.007-.049,0-.007-.007-.035-.014-.082,0-.012s-.012-.055-.023-.149a.052.052,0,0,1,0-.016c-.006-.037-.011-.079-.014-.128a.123.123,0,0,1,0-.034c-.006-.046-.009-.094-.011-.146v0c0-.042,0-.085,0-.13v-.049c0-.042,0-.086,0-.132a2.409,2.409,0,0,1,.115-.684c.007-.018-.109-.848-.109-.848a.043.043,0,0,1,.035-.049l.734-.123.2-.008.072,0c.07.1.143.193.217.291a6.441,6.441,0,0,1,.427.619c.023.043.046.085.068.127a2.675,2.675,0,0,1,.211.558" transform="translate(-120.938 -24.356)" fill="#ffcf9f"/>
            <path id="Trazado_1273572" data-name="Trazado 1273572" d="M134.724,29.633l.735,4.9-1.567.215-1.486-4.177a1.581,1.581,0,0,1,.094-1.463,1.185,1.185,0,0,1,.836-.577l.025,0a1.242,1.242,0,0,1,1.363,1.107" transform="translate(-123.588 -16.786)" fill="#dadada"/>
          </g>
        </g>
      </g>
    </g>
  </g>
</svg>
