<svg xmlns="http://www.w3.org/2000/svg" xmlns:xlink="http://www.w3.org/1999/xlink" width="69" height="69" viewBox="0 0 69 69">
  <defs>
    <clipPath id="clip-path">
      <rect id="Rectángulo_460790" data-name="Rectángulo 460790" width="32.384" height="42" fill="#fff"/>
    </clipPath>
  </defs>
  <g id="Grupo_1209936" data-name="Grupo 1209936" transform="translate(-616.566 -749.862)">
    <circle id="Elipse_13676" data-name="Elipse 13676" cx="34.5" cy="34.5" r="34.5" transform="translate(616.566 749.862)" fill="#6a2874"/>
    <g id="Grupo_1211378" data-name="Grupo 1211378" transform="translate(634.566 762.862)">
      <g id="Grupo_1211377" data-name="Grupo 1211377" clip-path="url(#clip-path)">
        <path id="Trazado_1274435" data-name="Trazado 1274435" d="M2.15,48.282v2.211a13.926,13.926,0,0,0,.695,1.814,6.289,6.289,0,0,0,5.094,3.15c5.688.371,11.946-.165,17.657-.158,1.851-.232,4.633-2.974,4.633-4.806V48.282c.3.023.6.385.778.6a6.114,6.114,0,0,1,1.377,3.4V78.815a6.2,6.2,0,0,1-5.562,5.55c-6.884-.336-14.2.453-21.034.008A6.177,6.177,0,0,1,0,78.929V52.047a6.322,6.322,0,0,1,1.372-3.169c.182-.211.481-.573.778-.6M7.887,62.5c-.247-1.92-2.963-2.081-2.622.053A27.366,27.366,0,0,0,6.759,65.6a1.245,1.245,0,0,0,1.647.23l3.643-4.362A1.231,1.231,0,0,0,10.4,59.815c-.562.255-1.678,2.072-2.209,2.57Zm10.072,1.277a1.574,1.574,0,0,0,.737.279c2.33.261,5.14-.2,7.524-.01a1.227,1.227,0,0,0,0-2.376c-2.333.235-5.388-.342-7.633,0a1.221,1.221,0,0,0-.628,2.106m-11.9,5.081a1.228,1.228,0,0,0-.8,1.462c.1.633,1.23,1.574,1.193,2.03-.066.791-1.758,1.517-1.064,2.861.685,1.328,2.225.173,2.673-.759.562.789,1.114,1.767,2.255,1.177,1.491-.771-.317-2.522-.742-3.368.612-.712,2.241-2.858.585-3.373-1.17-.364-1.507.495-2.1,1.258-.227.008-.66-1.59-2.006-1.287M18.37,71.253a1.226,1.226,0,0,0,.216,2.353c2.331-.212,5.251.313,7.51,0a1.207,1.207,0,0,0,.124-2.372Z" transform="translate(0 -42.513)" fill="#fff"/>
        <path id="Trazado_1274436" data-name="Trazado 1274436" d="M40.324.184c5.423.295,11.469-.5,16.821-.035a3.752,3.752,0,0,1,3.406,3.525c.244,3.087.19,6.52-3.651,6.873-5.159-.3-10.791.41-15.894.006-3.95-.313-4.056-3.8-3.758-6.992A3.785,3.785,0,0,1,40.324.184" transform="translate(-32.707 0)" fill="#fff"/>
      </g>
    </g>
  </g>
</svg>
