<svg xmlns="http://www.w3.org/2000/svg" xmlns:xlink="http://www.w3.org/1999/xlink" width="69" height="69" viewBox="0 0 69 69">
  <defs>
    <clipPath id="clip-path">
      <rect id="Rectángulo_460789" data-name="Rectángulo 460789" width="42" height="35.948" fill="#fff"/>
    </clipPath>
  </defs>
  <g id="Grupo_1211376" data-name="Grupo 1211376" transform="translate(-273.711 -1370)">
    <circle id="Elipse_13700" data-name="Elipse 13700" cx="34.5" cy="34.5" r="34.5" transform="translate(273.711 1370)" fill="#6a2874"/>
    <g id="Grupo_1211375" data-name="Grupo 1211375" transform="translate(287.711 1386)">
      <g id="Grupo_1211374" data-name="Grupo 1211374" clip-path="url(#clip-path)">
        <path id="Trazado_1274433" data-name="Trazado 1274433" d="M164.273,25.461V33h1.987a2.19,2.19,0,0,1,.68.554,1.443,1.443,0,0,1-1.084,2.331c-2.088.192-4.539-.106-6.661-.067a1.467,1.467,0,0,1-.678-2.2A2.709,2.709,0,0,1,159.27,33h1.987V25.461a10.409,10.409,0,0,1-3.563-.687,12.738,12.738,0,0,0,.553-5.553c-.159-2.025-.935-2.325-2.149-3.538-.242-.242-.444-.668-.7-.911a5.82,5.82,0,0,0-3.122-1.361c-.124-3.243-.339-6.532,1.5-9.346,2.639-4.041,6.96-4.29,11.4-3.962a9.072,9.072,0,0,1,8.009,7.888,70.311,70.311,0,0,1,.007,9.322,9.047,9.047,0,0,1-8.913,8.149m0-12.608V10.317c0-.6-.832-1.282-1.441-1.311s-1.574.558-1.574,1.173v2.672c-.92-1.345-3.1-.986-3.024.752.051,1.1,2.352,2.672,3.024,3.565v3.769h3.015V17.033c.654-.87,3-2.484,3-3.563,0-1.572-2.211-1.93-3-.617" transform="translate(-131.336 0)" fill="#fff"/>
        <path id="Trazado_1274434" data-name="Trazado 1274434" d="M3.061,127.906a1.541,1.541,0,0,1-1.479-1.057,23.8,23.8,0,0,1,0-3.917c.207-.92,1.24-.823,1.413-1.054.1-.136.069-.459.172-.65a1.529,1.529,0,0,1,2.85.655h13.41a1.538,1.538,0,0,1,2.8-.745c.131.239.121.608.22.739.191.256,1.266.11,1.434,1.17a21.522,21.522,0,0,1-.025,3.8,1.419,1.419,0,0,1-1.475,1.059v3.015h1.987a2.723,2.723,0,0,1,.873.771c.607,1.188-.257,2.05-1.361,2.327-.2,1.3.324,3.836-.066,4.98a1.55,1.55,0,0,1-2.593.277,4.725,4.725,0,0,1-.347-.887v-4.454H4.568v4.591a4.115,4.115,0,0,1-.408.826A1.552,1.552,0,0,1,1.628,139c-.39-1.145.129-3.679-.067-4.98-1.1-.277-1.969-1.14-1.361-2.327a2.723,2.723,0,0,1,.873-.771H3.061Zm16.445,0H5.938v3.015H19.506Z" transform="translate(0 -103.952)" fill="#fff"/>
      </g>
    </g>
  </g>
</svg>
