<svg xmlns="http://www.w3.org/2000/svg" xmlns:xlink="http://www.w3.org/1999/xlink" width="69" height="69" viewBox="0 0 69 69">
  <defs>
    <clipPath id="clip-path">
      <rect id="Rectángulo_460792" data-name="Rectángulo 460792" width="34.147" height="42" fill="#fff"/>
    </clipPath>
  </defs>
  <g id="Grupo_1209938" data-name="Grupo 1209938" transform="translate(-616.566 -749.862)">
    <circle id="Elipse_13676" data-name="Elipse 13676" cx="34.5" cy="34.5" r="34.5" transform="translate(616.566 749.862)" fill="#6a2874"/>
    <g id="Grupo_1211382" data-name="Grupo 1211382" transform="translate(633.566 763.862)">
      <g id="Grupo_1211381" data-name="Grupo 1211381" clip-path="url(#clip-path)">
        <path id="Trazado_1274444" data-name="Trazado 1274444" d="M50.66,80.56l-2.369-1.241c-.105-.146,1.283-2.733,1.315-3.241a.736.736,0,0,0-1.252-.612L42.764,88.718a1.925,1.925,0,0,1-2.846-.308l-5.4-12.941c-.548-.465-1.147-.181-1.33.478l1.255,3.291-2.164,1.319c-1.147-2.4-3.08-4.744-1.651-7.5,1.038-2,3.743-2.445,5.474-3.61a6.683,6.683,0,0,0,9.743.926c.245-.224.665-.955.866-.9,1.934,1.222,4.906,1.707,5.721,4.214.882,2.71-.96,4.517-1.777,6.877" transform="translate(-26.157 -59.889)" fill="#fff"/>
        <path id="Trazado_1274445" data-name="Trazado 1274445" d="M19.1,248.1a4.07,4.07,0,0,0-3.223-6.335,27.05,27.05,0,0,0-4.456.034c-1.024.239-.718,1.63-.753,2.448H0v-4.61c0-.344.561-.528.851-.487,5.926.4,12.471-.52,18.323,0,3.253.289,6.408,3.814,4.647,7.2a3.89,3.89,0,0,1-2.28,1.747Z" transform="translate(0 -206.096)" fill="#fff"/>
        <path id="Trazado_1274446" data-name="Trazado 1274446" d="M81.321.063a5.03,5.03,0,0,1,5.921,4.2c1.039,5.4-5.525,8.687-8.917,4.5-2.461-3.039-.831-8.153,3-8.7" transform="translate(-66.992 0.001)" fill="#fff"/>
        <path id="Trazado_1274447" data-name="Trazado 1274447" d="M200.923,243.155c1.852-.264,4.658.513,4.906,2.785.564,5.174-8.645,5.093-8.039,0,.173-1.457,1.833-2.6,3.133-2.782" transform="translate(-171.707 -209.651)" fill="#fff"/>
        <path id="Trazado_1274448" data-name="Trazado 1274448" d="M59.807,161.94h-4.15l-4.528-9.43,2.22-1.3,3.71,8.994c.453.877,1.908.734,2.534,1.206.227.171.247.237.213.534" transform="translate(-44.393 -130.398)" fill="#fff"/>
        <path id="Trazado_1274449" data-name="Trazado 1274449" d="M97.414,270.707c1.543.324,2.168,3.018.943,4.218a5.429,5.429,0,0,1-.679.461H93v-4.679c1.279.186,3.222-.25,4.414,0" transform="translate(-80.747 -233.386)" fill="#fff"/>
        <path id="Trazado_1274450" data-name="Trazado 1274450" d="M134.984,152.319l-4.271,9.486-2.42.117-.129-1.061.93-.61,3.661-9.044Z" transform="translate(-111.279 -130.4)" fill="#fff"/>
        <path id="Trazado_1274451" data-name="Trazado 1274451" d="M10.672,288.207v2.339H.461a1.239,1.239,0,0,1-.295-.175L0,288.207Z" transform="translate(0 -248.546)" fill="#fff"/>
        <path id="Trazado_1274452" data-name="Trazado 1274452" d="M162.822,203.329A5.9,5.9,0,0,0,159,200.3l2.11-5.09,3.807,5.849Z" transform="translate(-138.051 -168.347)" fill="#fff"/>
        <path id="Trazado_1274453" data-name="Trazado 1274453" d="M39.006,199.888H34l2.768-4.678Z" transform="translate(-29.521 -168.347)" fill="#fff"/>
      </g>
    </g>
  </g>
</svg>
