<svg xmlns="http://www.w3.org/2000/svg" xmlns:xlink="http://www.w3.org/1999/xlink" width="69" height="69" viewBox="0 0 69 69">
  <defs>
    <clipPath id="clip-path">
      <rect id="Rectángulo_460793" data-name="Rectángulo 460793" width="42" height="38.296" fill="#fff"/>
    </clipPath>
  </defs>
  <g id="Grupo_1209939" data-name="Grupo 1209939" transform="translate(-616.277 -749.862)">
    <circle id="Elipse_13676" data-name="Elipse 13676" cx="34.5" cy="34.5" r="34.5" transform="translate(616.277 749.862)" fill="#6a2874"/>
    <g id="Grupo_1211384" data-name="Grupo 1211384" transform="translate(630.277 764.862)">
      <g id="Grupo_1211383" data-name="Grupo 1211383" clip-path="url(#clip-path)">
        <path id="Trazado_1274454" data-name="Trazado 1274454" d="M20.055,53.527a17.731,17.731,0,0,0,1.5,5.891H4.951a2.372,2.372,0,0,0-.448.3L4.381,75.28l.256.5,23.008.068c.247.088.683-.418.683-.57V66.939c1.287.734,2.651,2.7,4.262,1.755v16.42H0V53.527ZM4.543,81.324c.139.139.46.144.654.16a25.291,25.291,0,0,0,3.763-.008.72.72,0,0,0,.54-.667.967.967,0,0,0-.8-.7,20.891,20.891,0,0,0-3.491,0c-.667.092-1.2.685-.671,1.212m9.4,0c.139.139.46.144.654.16a25.291,25.291,0,0,0,3.763-.008.72.72,0,0,0,.54-.667.967.967,0,0,0-.8-.7,20.891,20.891,0,0,0-3.491,0c-.667.092-1.2.685-.671,1.212m9.4,0c.139.139.46.144.654.16a25.291,25.291,0,0,0,3.763-.008.72.72,0,0,0,.54-.667.967.967,0,0,0-.8-.7,20.891,20.891,0,0,0-3.491,0c-.667.092-1.2.685-.671,1.212" transform="translate(0 -46.818)" fill="#fff"/>
        <path id="Trazado_1274455" data-name="Trazado 1274455" d="M180.443,3.575,181.38,2.2C185-2.021,190.707.2,190.851,5.763c.167,6.469-5.216,11.877-10.347,14.978a29.407,29.407,0,0,1-6.645-5.506c-2.385-2.739-4.283-7.361-3.489-11.013,1.194-5.488,8.04-5.463,10.073-.647m1.377,2.633h-2.632V8.9L179,9.091h-2.695v2.632H179l.188.188v2.695h2.632V11.912l.188-.188H184.7V9.091h-2.695l-.188-.188Z" transform="translate(-148.855 0)" fill="#fff"/>
        <path id="Trazado_1274456" data-name="Trazado 1274456" d="M46,125.315V111.527H62.608a27.929,27.929,0,0,0,4.575,5.076v8.523l-.188.188Zm12.786-4.763-1.759-6.7a.639.639,0,0,0-.819-.076c-.72.627-1.869,5.3-2.306,5.592a2.421,2.421,0,0,1-.952.064c-.947-.131-1.784-2.614-2.856-2.863-.443.041-2.845,3.126-2.836,3.55,0,.2.35.525.534.594.752.279,1.785-1.827,2.283-2.287.2-.007,1.419,1.988,1.909,2.225a6.208,6.208,0,0,0,2.547.1c.927-.29,1.209-3.291,2-3.955.24.841,1.354,6.271,1.681,6.53a.78.78,0,0,0,1.13-.274c.742-1.176,1.161-3.013,1.89-4.252.449-.395,2.236.293,2.425-.718.244-1.306-2.459-.668-3.24-.723a26.384,26.384,0,0,0-1.366,3.019c-.067.13.067.237-.261.179" transform="translate(-40.234 -97.548)" fill="#fff"/>
      </g>
    </g>
  </g>
</svg>
