<svg xmlns="http://www.w3.org/2000/svg" xmlns:xlink="http://www.w3.org/1999/xlink" width="396" height="502" viewBox="0 0 396 502">
  <defs>
    <linearGradient id="linear-gradient" x1="0.5" x2="0.5" y2="1" gradientUnits="objectBoundingBox">
      <stop offset="0" stop-color="#fee7ec"/>
      <stop offset="1" stop-color="#ffcce2"/>
    </linearGradient>
    <clipPath id="clip-path">
      <path id="Trazado_1271710" data-name="Trazado 1271710" d="M11.1,0H384.9C388.3,0,396,2.784,396,12.385V489.615c0,9.6-7.7,12.385-11.1,12.385H11.1C7.7,502,0,499.216,0,489.615V12.385C0,2.784,7.7,0,11.1,0Z" transform="translate(0 0)" fill="url(#linear-gradient)"/>
    </clipPath>
    <clipPath id="clip-path-2">
      <path id="Trazado_1271750" data-name="Trazado 1271750" d="M31,0H401V495H31Z" transform="translate(-31)" fill="#fff" stroke="#707070" stroke-width="1"/>
    </clipPath>
    <clipPath id="clip-path-3">
      <rect id="Rectángulo_460019" data-name="Rectángulo 460019" width="356.15" height="795.475" fill="none"/>
    </clipPath>
  </defs>
  <g id="Grupo_1212936" data-name="Grupo 1212936" transform="translate(-128.289 7245.321)">
    <g id="Grupo_1209993" data-name="Grupo 1209993" transform="translate(-2234.711 310.679)">
      <g id="Enmascarar_grupo_1180282" data-name="Enmascarar grupo 1180282" transform="translate(2363 -7556)" clip-path="url(#clip-path)">
        <path id="Trazado_1271709" data-name="Trazado 1271709" d="M0,0H403.689V525.9H0Z" transform="translate(-3.46 -13.039)" fill="url(#linear-gradient)"/>
      </g>
      <g id="Grupo_1209978" data-name="Grupo 1209978" transform="translate(2376 -7549)">
        <g id="Enmascarar_grupo_1180283" data-name="Enmascarar grupo 1180283" clip-path="url(#clip-path-2)">
          <g id="Grupo_1209977" data-name="Grupo 1209977" transform="translate(5.936 8)">
            <g id="Grupo_1209976" data-name="Grupo 1209976" transform="translate(0)" clip-path="url(#clip-path-3)">
              <g id="Grupo_1209975" data-name="Grupo 1209975">
                <g id="Grupo_1209974" data-name="Grupo 1209974" clip-path="url(#clip-path-3)">
                  <path id="Trazado_1271711" data-name="Trazado 1271711" d="M83.518,31.465h-.7s-.983-3.867-5.056-1.733S79.444,57.462,88.294,52.4Z" transform="translate(60.939 20.532)" fill="#6a2874"/>
                  <path id="Trazado_1271712" data-name="Trazado 1271712" d="M119.9,31.465h.7s.981-3.867,5.054-1.733-1.684,27.73-10.534,22.664Z" transform="translate(91.794 20.532)" fill="#6a2874"/>
                  <path id="Trazado_1271713" data-name="Trazado 1271713" d="M55.782,106.214s1.016,20.518,3.562,35.7c0,0-1.244-27.3-3.562-35.7" transform="translate(44.479 74.969)" fill="#007593"/>
                  <path id="Trazado_1271714" data-name="Trazado 1271714" d="M143.917,106.214s-1.014,20.518-3.562,35.7c0,0,1.246-27.3,3.562-35.7" transform="translate(111.914 74.969)" fill="#007593"/>
                  <path id="Trazado_1271715" data-name="Trazado 1271715" d="M298.655,303.97c-3.162-30.8-13.486-43-13.486-43a118.714,118.714,0,0,0-.525-18.757c-.464-4.572-1.12-8.995-1.839-13.13q-.181-1.034-.365-2.044c-.491-2.69-1-5.242-1.492-7.615q-.367-1.778-.717-3.418c-1.271-6-2.252-10.5-2.157-12.63.282-6.2,0-25.531,0-25.531-1.544-31.728-19.244-37.863-38.489-43.727s-42.7-17.065-46.216-20-3.512-7.733-3.652-15.6,3.512-16.265,6.321-25.864,10.394-37.329,0-55.327C186.294.461,167.906-.007,165.646,0c-.151,0-.23,0-.23,0h-1.779c-.016,0-.4-.01-1.064.014-4.292.154-20.582,1.781-29.554,17.318-10.394,18-2.809,45.728,0,55.327s6.462,18,6.321,25.864-.14,12.666-3.652,15.6-26.971,14.133-46.216,20-36.945,12-38.491,43.727c0,0-.28,19.332,0,25.531s-8.568,32.4-7.092,57.594c0,0-10.326,12.2-13.486,43s-8.92,71.86-13.416,78.258l25,1.866s4.213-19.731,12.923-36.8,21.633-46.927,21.071-61.592c-.467-12.178,10.3-54.508,14.291-68.82.377,3.567.929,7.347,1.724,11.226,3.933,19.2,9.833,42.395,8.99,56.794s-2.529,36.263-4.215,44.8-11.8,41.595-11.519,82.392,6.181,88.923,8.99,99.056,3.62,20.175,2.777,27.107-2.495,22.353-.811,32.752c0,0-6.742,27.2-1.4,64.26s14.981,88,14.521,89.991c-.557,2.405-1.99,4.6-2.06,7.064-.068,2.438.075,4.869.12,7.306.031,1.708-3.041,9.988-4.635,12.275a109.459,109.459,0,0,1-7.107,8.9c-2.515,2.9-5.081,5.762-7.479,8.751-1.192,1.487-2.342,3-3.42,4.565a15.273,15.273,0,0,0-2.8,5.288,3.791,3.791,0,0,0,1.968,4.461,3.7,3.7,0,0,0,1.123.326,4.578,4.578,0,0,0,.155,1.692,5.593,5.593,0,0,0,5.18,3.712,3.131,3.131,0,0,0,2.311,2.112,6.1,6.1,0,0,0,4.438-.75,3.418,3.418,0,0,0,.341.947,4.747,4.747,0,0,0,4.425,2.149,7.781,7.781,0,0,0,5.175-2.588c.712-.715,1.355-1.479,2-2.242a4.878,4.878,0,0,0,.108,3.1c.75,1.865,2.885,2.8,4.846,3.071a9.673,9.673,0,0,0,5.421-.9,11.3,11.3,0,0,0,1.912-1.15,11.956,11.956,0,0,0,3.084-2.153,19.173,19.173,0,0,0,4.38-6.636c2.283-5.409,3.018-11.286,4.208-16.965.225-1.068.458-2.146.715-3.221.147.1.6-1.626.8-1.82,2.556-2.46,3.322-4.729,3.627-8.062a42.624,42.624,0,0,0-1.078-12.166c-.548-2.755-1.082-5.5-1.542-8.268a40.945,40.945,0,0,0,1.533-5.445,11.188,11.188,0,0,0-.762-5.692,68.871,68.871,0,0,1-2.213-6.539c-.1-.368-.178-.742-.266-1.114.075-4.928.823-19.924,1.42-24.806,2.811-22.931,12.643-61.06,10.116-80.792s.552-70.125,3.23-84.524S164.2,429.69,161.394,406.493l3.135-.27,3.135.27c-2.809,23.2,10.1,104.255,12.785,118.654.049.264.1.546.147.834.014.087.031.177.045.264.036.217.072.438.108.669.016.094.031.189.047.287.041.271.084.549.126.836.007.053.016.1.023.159q.075.519.151,1.071c.011.08.022.164.034.246.04.293.079.592.119.9l.043.334c.04.316.079.636.12.964.009.084.02.164.029.247.052.421.1.851.153,1.293.005.039.009.082.014.121.045.394.09.8.135,1.2l.038.353c.04.362.077.728.117,1.1.011.107.023.213.034.321q.148,1.448.295,2.994c.009.085.016.172.025.258.041.44.081.885.122,1.336l.027.3q.07.786.14,1.592v0c.05.58.1,1.169.149,1.762l0,.039c.047.551.09,1.107.135,1.67.007.078.013.159.018.239q.067.847.131,1.709l0,.029q.138,1.845.268,3.755c0,.039.005.077.009.116q.062.916.122,1.846l0,.056c.126,1.95.246,3.937.358,5.948l0,.034c.111,2.018.214,4.06.307,6.109l0,.009c.217,4.793.383,9.633.478,14.325.234,11.584.036,22.273-.85,29.192-2.529,19.731,7.3,57.86,10.114,80.792.6,4.882,1.346,19.878,1.422,24.806-.088.372-.171.745-.268,1.114a68.374,68.374,0,0,1-2.213,6.539,11.207,11.207,0,0,0-.76,5.692,41.2,41.2,0,0,0,1.531,5.445c-.458,2.763-.994,5.513-1.54,8.268a42.5,42.5,0,0,0-1.078,12.166c.306,3.333,1.071,5.6,3.627,8.062.2.195.654,1.917.8,1.82.259,1.075.492,2.153.715,3.221,1.192,5.679,1.927,11.555,4.209,16.965a19.148,19.148,0,0,0,4.38,6.636,11.956,11.956,0,0,0,3.084,2.153,11.226,11.226,0,0,0,1.912,1.15,9.669,9.669,0,0,0,5.419.9c1.963-.266,4.1-1.206,4.847-3.071a4.9,4.9,0,0,0,.108-3.1c.643.762,1.287,1.527,2,2.242a7.79,7.79,0,0,0,5.176,2.588,4.751,4.751,0,0,0,4.425-2.149,3.419,3.419,0,0,0,.342-.947,6.1,6.1,0,0,0,4.438.75,3.131,3.131,0,0,0,2.311-2.112,5.6,5.6,0,0,0,5.18-3.712,4.575,4.575,0,0,0,.153-1.692,3.715,3.715,0,0,0,1.125-.326A3.8,3.8,0,0,0,247.1,779.4a15.273,15.273,0,0,0-2.8-5.288c-1.078-1.561-2.229-3.077-3.42-4.565-2.4-2.989-4.964-5.851-7.479-8.751a109.456,109.456,0,0,1-7.107-8.9c-1.6-2.288-4.666-10.568-4.635-12.275.045-2.438.189-4.868.12-7.306-.07-2.465-1.5-4.659-2.06-7.064-.46-1.991,9.183-52.928,14.521-89.991s-1.406-64.26-1.406-64.26c1.686-10.4.034-25.819-.809-32.752s-.034-16.975,2.777-27.107,8.708-58.261,8.989-99.056-9.832-73.859-11.518-82.392-3.372-30.4-4.215-44.8,5.058-37.6,8.99-56.794c.794-3.879,1.346-7.659,1.724-11.226,3.988,14.314,14.756,56.642,14.291,68.82-.563,14.665,12.361,44.527,21.071,61.592a150.1,150.1,0,0,1,8.874,22.053c.453,1.418.866,2.772,1.244,4.045.625,2.12,1.147,4.017,1.562,5.6.832,3.169,1.244,5.1,1.244,5.1l25-1.866c-4.5-6.4-10.256-47.461-13.416-78.258" transform="translate(13.546 0)" fill="#6a2874"/>
                  <path id="Trazado_1271717" data-name="Trazado 1271717" d="M75.026,457.268a5.682,5.682,0,0,1-1.386,2.7,22.046,22.046,0,0,1-2.222,2.269c-1.477,1.389-2.949,2.885-3.419,4.863-.061.261.354.183.417,0,.672-2.018,2.479-3.424,3.979-4.885a14.184,14.184,0,0,0,2-2.284,5.514,5.514,0,0,0,.818-2.688c.011-.128-.178-.073-.191.026" transform="translate(54.216 322.682)" fill="#1e746d"/>
                  <path id="Trazado_1271718" data-name="Trazado 1271718" d="M70.286,456.714c-.976,1.1-2.1,2.1-3.091,3.188s-1.984,2.2-2.971,3.3c-1.463,1.639-3.516,3.746-2.549,6.056.092.217.449-.024.413-.2-.487-2.462,1.8-4.553,3.313-6.266q1.216-1.382,2.414-2.774c.9-1.041,1.673-2.177,2.581-3.2.083-.094-.025-.2-.11-.106" transform="translate(48.978 322.336)" fill="#1e746d"/>
                  <path id="Trazado_1271719" data-name="Trazado 1271719" d="M64.665,455.76c.032-.135-.182-.094-.214,0-.836,2.427-2.919,4.183-4.54,6.139-1.5,1.81-2.919,4.323-2.1,6.678.117.333.685-.036.633-.307-1-5.155,5.122-7.895,6.222-12.512" transform="translate(45.905 321.628)" fill="#1e746d"/>
                  <path id="Trazado_1271720" data-name="Trazado 1271720" d="M62.3,453.721a37.739,37.739,0,0,0-4.945,5.06c-1.262,1.656-2.6,3.819-2.572,5.931,0,.232.356.082.4-.053a29.626,29.626,0,0,1,1.057-2.953,16.936,16.936,0,0,1,1.738-2.837,47.422,47.422,0,0,1,4.466-5.007c.119-.119-.02-.256-.147-.142" transform="translate(43.684 320.219)" fill="#1e746d"/>
                  <path id="Trazado_1271721" data-name="Trazado 1271721" d="M75.026,457.268a5.682,5.682,0,0,1-1.386,2.7,22.046,22.046,0,0,1-2.222,2.269c-1.477,1.389-2.949,2.885-3.419,4.863-.061.261.354.183.417,0,.672-2.018,2.479-3.424,3.979-4.885a14.184,14.184,0,0,0,2-2.284,5.514,5.514,0,0,0,.818-2.688c.011-.128-.178-.073-.191.026" transform="translate(54.216 322.682)" fill="#1e746d"/>
                  <path id="Trazado_1271722" data-name="Trazado 1271722" d="M70.286,456.714c-.976,1.1-2.1,2.1-3.091,3.188s-1.984,2.2-2.971,3.3c-1.463,1.639-3.516,3.746-2.549,6.056.092.217.449-.024.413-.2-.487-2.462,1.8-4.553,3.313-6.266q1.216-1.382,2.414-2.774c.9-1.041,1.673-2.177,2.581-3.2.083-.094-.025-.2-.11-.106" transform="translate(48.978 322.336)" fill="#1e746d"/>
                  <path id="Trazado_1271723" data-name="Trazado 1271723" d="M64.665,455.76c.032-.135-.182-.094-.214,0-.836,2.427-2.919,4.183-4.54,6.139-1.5,1.81-2.919,4.323-2.1,6.678.117.333.685-.036.633-.307-1-5.155,5.122-7.895,6.222-12.512" transform="translate(45.905 321.628)" fill="#1e746d"/>
                  <path id="Trazado_1271724" data-name="Trazado 1271724" d="M62.3,453.721a37.739,37.739,0,0,0-4.945,5.06c-1.262,1.656-2.6,3.819-2.572,5.931,0,.232.356.082.4-.053a29.626,29.626,0,0,1,1.057-2.953,16.936,16.936,0,0,1,1.738-2.837,47.422,47.422,0,0,1,4.466-5.007c.119-.119-.02-.256-.147-.142" transform="translate(43.684 320.219)" fill="#1e746d"/>
                  <path id="Trazado_1271725" data-name="Trazado 1271725" d="M126.331,457.268a5.7,5.7,0,0,0,1.386,2.7,22.045,22.045,0,0,0,2.222,2.269c1.477,1.389,2.949,2.885,3.417,4.863.063.261-.352.183-.415,0-.672-2.018-2.479-3.424-3.979-4.885a14.182,14.182,0,0,1-2-2.284,5.514,5.514,0,0,1-.818-2.688c-.011-.128.178-.073.191.026" transform="translate(100.579 322.682)" fill="#1e746d"/>
                  <path id="Trazado_1271726" data-name="Trazado 1271726" d="M131.858,456.714c.976,1.1,2.094,2.1,3.091,3.188s1.984,2.2,2.971,3.3c1.463,1.639,3.516,3.746,2.547,6.056-.09.217-.448-.024-.412-.2.487-2.462-1.8-4.553-3.313-6.266q-1.216-1.382-2.414-2.774c-.9-1.041-1.673-2.177-2.581-3.2-.083-.094.025-.2.11-.106" transform="translate(105.028 322.336)" fill="#1e746d"/>
                  <path id="Trazado_1271727" data-name="Trazado 1271727" d="M136.635,455.76c-.032-.135.182-.094.214,0,.836,2.427,2.919,4.183,4.54,6.139,1.5,1.81,2.919,4.323,2.1,6.678-.115.333-.685-.036-.633-.307,1-5.155-5.121-7.895-6.222-12.512" transform="translate(108.946 321.628)" fill="#1e746d"/>
                  <path id="Trazado_1271728" data-name="Trazado 1271728" d="M139.269,453.721a37.737,37.737,0,0,1,4.945,5.06c1.262,1.656,2.6,3.819,2.572,5.931,0,.232-.356.082-.4-.053a30.079,30.079,0,0,0-1.057-2.953,16.936,16.936,0,0,0-1.738-2.837,47.425,47.425,0,0,0-4.466-5.007c-.119-.119.02-.256.147-.142" transform="translate(110.895 320.219)" fill="#1e746d"/>
                  <path id="Trazado_1271729" data-name="Trazado 1271729" d="M126.331,457.268a5.7,5.7,0,0,0,1.386,2.7,22.045,22.045,0,0,0,2.222,2.269c1.477,1.389,2.949,2.885,3.417,4.863.063.261-.352.183-.415,0-.672-2.018-2.479-3.424-3.979-4.885a14.182,14.182,0,0,1-2-2.284,5.514,5.514,0,0,1-.818-2.688c-.011-.128.178-.073.191.026" transform="translate(100.579 322.682)" fill="#1e746d"/>
                  <path id="Trazado_1271730" data-name="Trazado 1271730" d="M131.858,456.714c.976,1.1,2.094,2.1,3.091,3.188s1.984,2.2,2.971,3.3c1.463,1.639,3.516,3.746,2.547,6.056-.09.217-.448-.024-.412-.2.487-2.462-1.8-4.553-3.313-6.266q-1.216-1.382-2.414-2.774c-.9-1.041-1.673-2.177-2.581-3.2-.083-.094.025-.2.11-.106" transform="translate(105.028 322.336)" fill="#1e746d"/>
                  <path id="Trazado_1271731" data-name="Trazado 1271731" d="M136.635,455.76c-.032-.135.182-.094.214,0,.836,2.427,2.919,4.183,4.54,6.139,1.5,1.81,2.919,4.323,2.1,6.678-.115.333-.685-.036-.633-.307,1-5.155-5.121-7.895-6.222-12.512" transform="translate(108.946 321.628)" fill="#1e746d"/>
                  <path id="Trazado_1271732" data-name="Trazado 1271732" d="M139.269,453.721a37.737,37.737,0,0,1,4.945,5.06c1.262,1.656,2.6,3.819,2.572,5.931,0,.232-.356.082-.4-.053a30.079,30.079,0,0,0-1.057-2.953,16.936,16.936,0,0,0-1.738-2.837,47.425,47.425,0,0,0-4.466-5.007c-.119-.119.02-.256.147-.142" transform="translate(110.895 320.219)" fill="#1e746d"/>
                  <path id="Trazado_1271733" data-name="Trazado 1271733" d="M126.34,457.268a5.682,5.682,0,0,0,1.386,2.7,22.235,22.235,0,0,0,2.222,2.269c1.477,1.389,2.949,2.885,3.419,4.863.061.261-.354.183-.417,0-.672-2.018-2.479-3.424-3.979-4.885a14.183,14.183,0,0,1-2-2.284,5.514,5.514,0,0,1-.818-2.688c-.011-.128.178-.073.191.026" transform="translate(100.587 322.682)" fill="#1e746d"/>
                  <path id="Trazado_1271734" data-name="Trazado 1271734" d="M131.868,456.714c.976,1.1,2.094,2.1,3.091,3.188s1.984,2.2,2.971,3.3c1.463,1.639,3.516,3.746,2.547,6.056-.09.217-.448-.024-.412-.2.487-2.462-1.8-4.553-3.313-6.266q-1.216-1.382-2.414-2.774c-.9-1.041-1.673-2.177-2.581-3.2-.083-.094.025-.2.11-.106" transform="translate(105.036 322.336)" fill="#1e746d"/>
                  <path id="Trazado_1271735" data-name="Trazado 1271735" d="M136.644,455.76c-.032-.135.182-.094.214,0,.836,2.427,2.919,4.183,4.54,6.139,1.5,1.81,2.919,4.323,2.1,6.678-.117.333-.685-.036-.633-.307,1-5.155-5.122-7.895-6.222-12.512" transform="translate(108.953 321.628)" fill="#1e746d"/>
                  <path id="Trazado_1271736" data-name="Trazado 1271736" d="M139.278,453.721a37.739,37.739,0,0,1,4.945,5.06c1.262,1.656,2.6,3.819,2.572,5.931,0,.232-.356.082-.4-.053a29.623,29.623,0,0,0-1.057-2.953,16.937,16.937,0,0,0-1.738-2.837,47.415,47.415,0,0,0-4.466-5.007c-.119-.119.02-.256.147-.142" transform="translate(110.902 320.219)" fill="#1e746d"/>
                  <path id="Trazado_1271737" data-name="Trazado 1271737" d="M39.1,222.362s-6.181-.867-12.22,4.6-13.908,17.166-16.015,20.632S4.04,261.526,1.7,264.257c-2.739,3.2-2.362,7.92,2.529,5.7,4.846-2.2,9.727-7.565,11.694-10.765s3.372-4,3.372-4-2.613,20.965-3.341,27.332c-.807,7.066-3.611,16.729.252,17.729,4.244,1.1,5.338-4.266,6.039-8.4s5.063-24,6.447-25.2c1.727-1.493.967.822.577,5.6-.131,1.617-.7,9.733-1.544,14.933s-3.654,16.8,2.247,16.132,7.3-32,8.288-34.263,1.826-1.334,1.265,4.266c-.178,1.771-3.232,22.8-2.108,27.063s5.478,3.6,6.884-1.866,2.809-27.6,3.792-29.2,1.264,1.334.983,5.332c-.207,2.927-1.966,18.931,1.406,19.6s4.74-1.3,5.676-13c.82-10.243.926-15.932,1.488-22.464s1.264-25.731-2.108-31.6S39.1,222.362,39.1,222.362" transform="translate(0 156.9)" fill="#6a2874"/>
                  <path id="Trazado_1271738" data-name="Trazado 1271738" d="M39.532,235.157a17.355,17.355,0,0,1-9.539,6.24c-4.042,1.184-8.221,1.15-12.368,1.731a17.339,17.339,0,0,0-6.688,2.2c-.178.107-.093.36.117.246,4.014-2.177,8.929-1.834,13.351-2.434a28.054,28.054,0,0,0,11-3.557,14.673,14.673,0,0,0,4.531-4.244c.2-.307-.221-.44-.406-.181" transform="translate(8.644 165.884)" fill="#fee7ec"/>
                  <path id="Trazado_1271739" data-name="Trazado 1271739" d="M40.03,247.138a70.143,70.143,0,0,1-25.993.474c-.108-.019-.214.165-.081.2a54.719,54.719,0,0,0,26.062-.048c.316-.082.448-.71.013-.623" transform="translate(11.078 174.432)" fill="#fee7ec"/>
                  <path id="Trazado_1271740" data-name="Trazado 1271740" d="M184.831,222.362s6.181-.867,12.22,4.6,13.908,17.166,16.015,20.632,6.828,13.933,9.167,16.664c2.739,3.2,2.364,7.92-2.529,5.7-4.846-2.2-9.727-7.565-11.694-10.765s-3.372-4-3.372-4,2.613,20.965,3.341,27.332c.807,7.066,3.613,16.729-.252,17.729-4.244,1.1-5.338-4.266-6.039-8.4s-5.063-24-6.447-25.2c-1.727-1.493-.967.822-.577,5.6.131,1.617.7,9.733,1.546,14.933s3.652,16.8-2.249,16.132-7.3-32-8.288-34.263-1.826-1.334-1.264,4.266c.176,1.771,3.23,22.8,2.107,27.063s-5.478,3.6-6.884-1.866-2.809-27.6-3.792-29.2-1.264,1.334-.983,5.332c.207,2.927,1.966,18.931-1.406,19.6s-4.74-1.3-5.676-13c-.82-10.243-.926-15.932-1.486-22.464s-1.265-25.731,2.107-31.6,16.435-4.833,16.435-4.833" transform="translate(132.217 156.9)" fill="#6a2874"/>
                  <path id="Trazado_1271741" data-name="Trazado 1271741" d="M171.456,234.652a17.344,17.344,0,0,0,9.54,6.24c4.04,1.184,8.219,1.15,12.366,1.731a17.339,17.339,0,0,1,6.688,2.2c.178.107.093.36-.117.246-4.013-2.177-8.929-1.834-13.351-2.433a28.082,28.082,0,0,1-11-3.558,14.646,14.646,0,0,1-4.529-4.244c-.2-.307.219-.44.4-.181" transform="translate(136.347 165.527)" fill="#c69797"/>
                  <path id="Trazado_1271742" data-name="Trazado 1271742" d="M169.743,246.633a70.18,70.18,0,0,0,25.994.476c.108-.02.214.164.081.194a54.718,54.718,0,0,1-26.062-.048c-.316-.082-.448-.71-.013-.623" transform="translate(135.126 174.075)" fill="#c69797"/>
                  <path id="Trazado_1271743" data-name="Trazado 1271743" d="M83.029,46.347s7.826,13.3,14.287,17.662,16.529,3.482,16.529,3.482-13.345.073-20.017-7.611c-5.043-5.808-10.8-13.532-10.8-13.532" transform="translate(66.204 32.713)" fill="#fee7ec"/>
                  <path id="Trazado_1271744" data-name="Trazado 1271744" d="M128.793,46.347s-7.826,13.3-14.287,17.662-16.529,3.482-16.529,3.482,13.345.073,20.017-7.611c5.042-5.808,10.8-13.532,10.8-13.532" transform="translate(78.123 32.713)" fill="#fee7ec"/>
                  <path id="Trazado_1271745" data-name="Trazado 1271745" d="M68.6,75.7c10.675,0,21.813.786,32.459,1.7,3.246.379,6.591.409,9.742,1.319a31.246,31.246,0,0,1,5.949,2.668,6.161,6.161,0,0,0,3.014.909,4.51,4.51,0,0,1-1.643-.012,45.9,45.9,0,0,1-4.59-1.614,22.178,22.178,0,0,0-6.143-1.3c-3.751-.165-9.163-.546-12.963-.819-8.534-.7-17.386-1.515-25.825-2.85" transform="translate(54.702 53.43)" fill="#fee7ec"/>
                  <path id="Trazado_1271746" data-name="Trazado 1271746" d="M151.113,75.692C143.1,77,134.685,77.786,126.577,78.464c-3.631.263-8.735.624-12.319.78a20.847,20.847,0,0,0-5.827,1.244,42.817,42.817,0,0,1-4.362,1.539,4.228,4.228,0,0,1-1.564.005,5.789,5.789,0,0,0,2.856-.88A29.541,29.541,0,0,1,111,78.576c2.993-.879,6.176-.913,9.264-1.279,10.121-.884,20.695-1.641,30.848-1.605" transform="translate(81.734 53.424)" fill="#fee7ec"/>
                </g>
              </g>
            </g>
            <path id="Trazado_1271772" data-name="Trazado 1271772" d="M12.862-.012l15.83-.015A12.9,12.9,0,0,1,41.542,12.96l-.026,28A12.96,12.96,0,0,1,28.642,53.969l-15.83.015A12.9,12.9,0,0,1-.038,41l.026-28A12.96,12.96,0,0,1,12.862-.012Z" transform="matrix(0.996, -0.087, 0.087, 0.996, 103.607, 149.933)" fill="#fff"/>
            <path id="Sustracción_119" data-name="Sustracción 119" d="M13.486,54.252A13,13,0,0,1,.492,41.479L0,13.491A13,13,0,0,1,12.775.266l15-.261q-.106.431-.217.889C24.6,13.07,19.791,36.178,20.85,54.125l-7.133.125Z" transform="translate(221.364 235.877)" fill="#fff"/>
            <g id="Grupo_1209983" data-name="Grupo 1209983" transform="matrix(0.995, -0.105, 0.105, 0.995, 112.7, 160.367)">
              <g id="Trazado_1271773" data-name="Trazado 1271773" transform="translate(0 0)" fill="#fff">
                <path d="M 1.973839640617371 3.497312307357788 L 1.972169637680054 3.497312307357788 C 1.581609606742859 3.497312307357788 1.213689565658569 3.344302415847778 0.936159610748291 3.066472291946411 C 0.6530196070671082 2.783012390136719 0.4973295927047729 2.404372453689575 0.4977796077728271 2.000322341918945 C 0.498689591884613 1.172732353210449 1.163349628448486 0.4986923933029175 1.979399561882019 0.4977723956108093 C 2.37162971496582 0.4977723956108093 2.73954963684082 0.6507824063301086 3.017079591751099 0.9286124110221863 C 3.300219535827637 1.212072372436523 3.455909490585327 1.590712428092957 3.455459594726562 1.994762420654297 C 3.454549551010132 2.822352409362793 2.789889574050903 3.496392488479614 1.973839640617371 3.497312307357788 Z" stroke="none"/>
                <path d="M 1.979969620704651 0.9977726936340332 C 1.438999652862549 0.998382568359375 0.9983894824981689 1.448362588882446 0.9977796077728271 2.000872611999512 C 0.9974796772003174 2.271272659301758 1.101229667663574 2.524212598800659 1.289909601211548 2.713112592697144 C 1.472979545593262 2.896382570266724 1.715269565582275 2.997312545776367 1.973269581794739 2.997312545776367 C 2.514239549636841 2.996702671051025 2.954849720001221 2.546722650527954 2.955459594726562 1.994212627410889 C 2.955759525299072 1.723812580108643 2.852009773254395 1.470872640609741 2.663329601287842 1.281972646713257 C 2.480259656906128 1.098702669143677 2.237969636917114 0.9977726936340332 1.981069564819336 0.9977726936340332 L 1.979969620704651 0.9977726936340332 M 1.981073141098022 -0.002228498458862305 C 3.072950124740601 -0.002228498458862305 3.95668888092041 0.8916242122650146 3.955459594726562 1.995322585105896 C 3.9542396068573 3.099762678146362 3.067279577255249 3.996082544326782 1.974399566650391 3.997312545776367 C 0.8815369606018066 3.998532295227051 -0.003450632095336914 3.104202747344971 -0.002220392227172852 1.999762654304504 C -0.001000404357910156 0.8953225612640381 0.8859596252441406 -0.0009973049163818359 1.978839635848999 -0.002227306365966797 C 1.979573369026184 -0.002228260040283203 1.980339527130127 -0.002228498458862305 1.981073141098022 -0.002228498458862305 Z" stroke="none" fill="#707070"/>
              </g>
              <g id="Trazado_1271774" data-name="Trazado 1271774" transform="translate(-0.007 5.999)" fill="#fff">
                <path d="M 1.973839640617371 3.497312307357788 L 1.972169637680054 3.497312307357788 C 1.581609606742859 3.497312307357788 1.213689565658569 3.344302415847778 0.936159610748291 3.066472291946411 C 0.6530196070671082 2.783012390136719 0.4973295927047729 2.404372453689575 0.4977796077728271 2.000322341918945 C 0.498689591884613 1.172732353210449 1.163349628448486 0.4986923933029175 1.979399561882019 0.4977723956108093 C 2.37162971496582 0.4977723956108093 2.73954963684082 0.6507824063301086 3.017079591751099 0.9286124110221863 C 3.300219535827637 1.212072372436523 3.455909490585327 1.590712428092957 3.455459594726562 1.994762420654297 C 3.454549551010132 2.822352409362793 2.789889574050903 3.496392488479614 1.973839640617371 3.497312307357788 Z" stroke="none"/>
                <path d="M 1.979969620704651 0.9977726936340332 C 1.438999652862549 0.998382568359375 0.9983894824981689 1.448362588882446 0.9977796077728271 2.000872611999512 C 0.9974796772003174 2.271272659301758 1.101229667663574 2.524212598800659 1.289909601211548 2.713112592697144 C 1.472979545593262 2.896382570266724 1.715269565582275 2.997312545776367 1.973269581794739 2.997312545776367 C 2.514239549636841 2.996702671051025 2.954849720001221 2.546722650527954 2.955459594726562 1.994212627410889 C 2.955759525299072 1.723812580108643 2.852009773254395 1.470872640609741 2.663329601287842 1.281972646713257 C 2.480259656906128 1.098702669143677 2.237969636917114 0.9977726936340332 1.981069564819336 0.9977726936340332 L 1.979969620704651 0.9977726936340332 M 1.981073141098022 -0.002228498458862305 C 3.072950124740601 -0.002228498458862305 3.95668888092041 0.8916242122650146 3.955459594726562 1.995322585105896 C 3.9542396068573 3.099762678146362 3.067279577255249 3.996082544326782 1.974399566650391 3.997312545776367 C 0.8815369606018066 3.998532295227051 -0.003450632095336914 3.104202747344971 -0.002220392227172852 1.999762654304504 C -0.001000404357910156 0.8953225612640381 0.8859596252441406 -0.0009973049163818359 1.978839635848999 -0.002227306365966797 C 1.979573369026184 -0.002228260040283203 1.980339527130127 -0.002228498458862305 1.981073141098022 -0.002228498458862305 Z" stroke="none" fill="#707070"/>
              </g>
              <g id="Trazado_1271775" data-name="Trazado 1271775" transform="translate(-0.013 11.999)" fill="#fff">
                <path d="M 1.973839640617371 3.497312307357788 L 1.972169637680054 3.497312307357788 C 1.581609606742859 3.497312307357788 1.213689565658569 3.344302415847778 0.936159610748291 3.066472291946411 C 0.6530196070671082 2.783012390136719 0.4973295927047729 2.404372453689575 0.4977796077728271 2.000322341918945 C 0.498689591884613 1.172732353210449 1.163349628448486 0.4986923933029175 1.979399561882019 0.4977723956108093 C 2.37162971496582 0.4977723956108093 2.73954963684082 0.6507824063301086 3.017079591751099 0.9286124110221863 C 3.300219535827637 1.212072372436523 3.455909490585327 1.590712428092957 3.455459594726562 1.994762420654297 C 3.454549551010132 2.822352409362793 2.789889574050903 3.496392488479614 1.973839640617371 3.497312307357788 Z" stroke="none"/>
                <path d="M 1.979969620704651 0.9977726936340332 C 1.438999652862549 0.998382568359375 0.9983894824981689 1.448362588882446 0.9977796077728271 2.000872611999512 C 0.9974796772003174 2.271272659301758 1.101229667663574 2.524212598800659 1.289909601211548 2.713112592697144 C 1.472979545593262 2.896382570266724 1.715269565582275 2.997312545776367 1.973269581794739 2.997312545776367 C 2.514239549636841 2.996702671051025 2.954849720001221 2.546722650527954 2.955459594726562 1.994212627410889 C 2.955759525299072 1.723812580108643 2.852009773254395 1.470872640609741 2.663329601287842 1.281972646713257 C 2.480259656906128 1.098702669143677 2.237969636917114 0.9977726936340332 1.981069564819336 0.9977726936340332 L 1.979969620704651 0.9977726936340332 M 1.981073141098022 -0.002228498458862305 C 3.072950124740601 -0.002228498458862305 3.95668888092041 0.8916242122650146 3.955459594726562 1.995322585105896 C 3.9542396068573 3.099762678146362 3.067279577255249 3.996082544326782 1.974399566650391 3.997312545776367 C 0.8815369606018066 3.998532295227051 -0.003450632095336914 3.104202747344971 -0.002220392227172852 1.999762654304504 C -0.001000404357910156 0.8953225612640381 0.8859596252441406 -0.0009973049163818359 1.978839635848999 -0.002227306365966797 C 1.979573369026184 -0.002228260040283203 1.980339527130127 -0.002228498458862305 1.981073141098022 -0.002228498458862305 Z" stroke="none" fill="#707070"/>
              </g>
              <g id="Trazado_1271776" data-name="Trazado 1271776" transform="translate(-0.02 17.998)" fill="#fff">
                <path d="M 1.973839640617371 3.497312307357788 L 1.972169637680054 3.497312307357788 C 1.581609606742859 3.497312307357788 1.213689565658569 3.344302415847778 0.936159610748291 3.066472291946411 C 0.6530196070671082 2.783012390136719 0.4973295927047729 2.404372453689575 0.4977796077728271 2.000322341918945 C 0.498689591884613 1.172732353210449 1.163349628448486 0.4986923933029175 1.979399561882019 0.4977723956108093 C 2.37162971496582 0.4977723956108093 2.73954963684082 0.6507824063301086 3.017079591751099 0.9286124110221863 C 3.300219535827637 1.212072372436523 3.455909490585327 1.590712428092957 3.455459594726562 1.994762420654297 C 3.454549551010132 2.822352409362793 2.789889574050903 3.496392488479614 1.973839640617371 3.497312307357788 Z" stroke="none"/>
                <path d="M 1.979969620704651 0.9977726936340332 C 1.438999652862549 0.998382568359375 0.9983894824981689 1.448362588882446 0.9977796077728271 2.000872611999512 C 0.9974796772003174 2.271272659301758 1.101229667663574 2.524212598800659 1.289909601211548 2.713112592697144 C 1.472979545593262 2.896382570266724 1.715269565582275 2.997312545776367 1.973269581794739 2.997312545776367 C 2.514239549636841 2.996702671051025 2.954849720001221 2.546722650527954 2.955459594726562 1.994212627410889 C 2.955759525299072 1.723812580108643 2.852009773254395 1.470872640609741 2.663329601287842 1.281972646713257 C 2.480259656906128 1.098702669143677 2.237969636917114 0.9977726936340332 1.981069564819336 0.9977726936340332 L 1.979969620704651 0.9977726936340332 M 1.981073141098022 -0.002228498458862305 C 3.072950124740601 -0.002228498458862305 3.95668888092041 0.8916242122650146 3.955459594726562 1.995322585105896 C 3.9542396068573 3.099762678146362 3.067279577255249 3.996082544326782 1.974399566650391 3.997312545776367 C 0.8815369606018066 3.998532295227051 -0.003450632095336914 3.104202747344971 -0.002220392227172852 1.999762654304504 C -0.001000404357910156 0.8953225612640381 0.8859596252441406 -0.0009973049163818359 1.978839635848999 -0.002227306365966797 C 1.979573369026184 -0.002228260040283203 1.980339527130127 -0.002228498458862305 1.981073141098022 -0.002228498458862305 Z" stroke="none" fill="#707070"/>
              </g>
              <g id="Trazado_1271777" data-name="Trazado 1271777" transform="translate(6.926 -0.008)" fill="#fff">
                <path d="M 1.973839640617371 3.497312307357788 L 1.972169637680054 3.497312307357788 C 1.581609606742859 3.497312307357788 1.213689565658569 3.344302415847778 0.936159610748291 3.066472291946411 C 0.6530196070671082 2.783012390136719 0.4973295927047729 2.404372453689575 0.4977796077728271 2.000322341918945 C 0.498689591884613 1.172732353210449 1.163349628448486 0.4986923933029175 1.979399561882019 0.4977723956108093 C 2.37162971496582 0.4977723956108093 2.73954963684082 0.6507824063301086 3.017079591751099 0.9286124110221863 C 3.300219535827637 1.212072372436523 3.455909490585327 1.590712428092957 3.455459594726562 1.994762420654297 C 3.454549551010132 2.822352409362793 2.789889574050903 3.496392488479614 1.973839640617371 3.497312307357788 Z" stroke="none"/>
                <path d="M 1.979969620704651 0.9977726936340332 C 1.438999652862549 0.998382568359375 0.9983894824981689 1.448362588882446 0.9977796077728271 2.000872611999512 C 0.9974796772003174 2.271272659301758 1.101229667663574 2.524212598800659 1.289909601211548 2.713112592697144 C 1.472979545593262 2.896382570266724 1.715269565582275 2.997312545776367 1.973269581794739 2.997312545776367 C 2.514239549636841 2.996702671051025 2.954849720001221 2.546722650527954 2.955459594726562 1.994212627410889 C 2.955759525299072 1.723812580108643 2.852009773254395 1.470872640609741 2.663329601287842 1.281972646713257 C 2.480259656906128 1.098702669143677 2.237969636917114 0.9977726936340332 1.981069564819336 0.9977726936340332 L 1.979969620704651 0.9977726936340332 M 1.981073141098022 -0.002228498458862305 C 3.072950124740601 -0.002228498458862305 3.95668888092041 0.8916242122650146 3.955459594726562 1.995322585105896 C 3.9542396068573 3.099762678146362 3.067279577255249 3.996082544326782 1.974399566650391 3.997312545776367 C 0.8815369606018066 3.998532295227051 -0.003450632095336914 3.104202747344971 -0.002220392227172852 1.999762654304504 C -0.001000404357910156 0.8953225612640381 0.8859596252441406 -0.0009973049163818359 1.978839635848999 -0.002227306365966797 C 1.979573369026184 -0.002228260040283203 1.980339527130127 -0.002228498458862305 1.981073141098022 -0.002228498458862305 Z" stroke="none" fill="#707070"/>
              </g>
              <g id="Trazado_1271778" data-name="Trazado 1271778" transform="translate(6.919 5.992)" fill="#fff">
                <path d="M 1.973839640617371 3.497312307357788 L 1.972169637680054 3.497312307357788 C 1.581609606742859 3.497312307357788 1.213689565658569 3.344302415847778 0.936159610748291 3.066472291946411 C 0.6530196070671082 2.783012390136719 0.4973295927047729 2.404372453689575 0.4977796077728271 2.000322341918945 C 0.498689591884613 1.172732353210449 1.163349628448486 0.4986923933029175 1.979399561882019 0.4977723956108093 C 2.37162971496582 0.4977723956108093 2.73954963684082 0.6507824063301086 3.017079591751099 0.9286124110221863 C 3.300219535827637 1.212072372436523 3.455909490585327 1.590712428092957 3.455459594726562 1.994762420654297 C 3.454549551010132 2.822352409362793 2.789889574050903 3.496392488479614 1.973839640617371 3.497312307357788 Z" stroke="none"/>
                <path d="M 1.979969620704651 0.9977726936340332 C 1.438999652862549 0.998382568359375 0.9983894824981689 1.448362588882446 0.9977796077728271 2.000872611999512 C 0.9974796772003174 2.271272659301758 1.101229667663574 2.524212598800659 1.289909601211548 2.713112592697144 C 1.472979545593262 2.896382570266724 1.715269565582275 2.997312545776367 1.973269581794739 2.997312545776367 C 2.514239549636841 2.996702671051025 2.954849720001221 2.546722650527954 2.955459594726562 1.994212627410889 C 2.955759525299072 1.723812580108643 2.852009773254395 1.470872640609741 2.663329601287842 1.281972646713257 C 2.480259656906128 1.098702669143677 2.237969636917114 0.9977726936340332 1.981069564819336 0.9977726936340332 L 1.979969620704651 0.9977726936340332 M 1.981073141098022 -0.002228498458862305 C 3.072950124740601 -0.002228498458862305 3.95668888092041 0.8916242122650146 3.955459594726562 1.995322585105896 C 3.9542396068573 3.099762678146362 3.067279577255249 3.996082544326782 1.974399566650391 3.997312545776367 C 0.8815369606018066 3.998532295227051 -0.003450632095336914 3.104202747344971 -0.002220392227172852 1.999762654304504 C -0.001000404357910156 0.8953225612640381 0.8859596252441406 -0.0009973049163818359 1.978839635848999 -0.002227306365966797 C 1.979573369026184 -0.002228260040283203 1.980339527130127 -0.002228498458862305 1.981073141098022 -0.002228498458862305 Z" stroke="none" fill="#707070"/>
              </g>
              <g id="Trazado_1271779" data-name="Trazado 1271779" transform="translate(6.913 11.991)" fill="#fff">
                <path d="M 1.973839640617371 3.497312307357788 L 1.972169637680054 3.497312307357788 C 1.581609606742859 3.497312307357788 1.213689565658569 3.344302415847778 0.936159610748291 3.066472291946411 C 0.6530196070671082 2.783012390136719 0.4973295927047729 2.404372453689575 0.4977796077728271 2.000322341918945 C 0.498689591884613 1.172732353210449 1.163349628448486 0.4986923933029175 1.979399561882019 0.4977723956108093 C 2.37162971496582 0.4977723956108093 2.73954963684082 0.6507824063301086 3.017079591751099 0.9286124110221863 C 3.300219535827637 1.212072372436523 3.455909490585327 1.590712428092957 3.455459594726562 1.994762420654297 C 3.454549551010132 2.822352409362793 2.789889574050903 3.496392488479614 1.973839640617371 3.497312307357788 Z" stroke="none"/>
                <path d="M 1.979969620704651 0.9977726936340332 C 1.438999652862549 0.998382568359375 0.9983894824981689 1.448362588882446 0.9977796077728271 2.000872611999512 C 0.9974796772003174 2.271272659301758 1.101229667663574 2.524212598800659 1.289909601211548 2.713112592697144 C 1.472979545593262 2.896382570266724 1.715269565582275 2.997312545776367 1.973269581794739 2.997312545776367 C 2.514239549636841 2.996702671051025 2.954849720001221 2.546722650527954 2.955459594726562 1.994212627410889 C 2.955759525299072 1.723812580108643 2.852009773254395 1.470872640609741 2.663329601287842 1.281972646713257 C 2.480259656906128 1.098702669143677 2.237969636917114 0.9977726936340332 1.981069564819336 0.9977726936340332 L 1.979969620704651 0.9977726936340332 M 1.981073141098022 -0.002228498458862305 C 3.072950124740601 -0.002228498458862305 3.95668888092041 0.8916242122650146 3.955459594726562 1.995322585105896 C 3.9542396068573 3.099762678146362 3.067279577255249 3.996082544326782 1.974399566650391 3.997312545776367 C 0.8815369606018066 3.998532295227051 -0.003450632095336914 3.104202747344971 -0.002220392227172852 1.999762654304504 C -0.001000404357910156 0.8953225612640381 0.8859596252441406 -0.0009973049163818359 1.978839635848999 -0.002227306365966797 C 1.979573369026184 -0.002228260040283203 1.980339527130127 -0.002228498458862305 1.981073141098022 -0.002228498458862305 Z" stroke="none" fill="#707070"/>
              </g>
              <g id="Trazado_1271780" data-name="Trazado 1271780" transform="translate(6.906 17.99)" fill="#fff">
                <path d="M 1.973839640617371 3.497312307357788 L 1.972169637680054 3.497312307357788 C 1.581609606742859 3.497312307357788 1.213689565658569 3.344302415847778 0.936159610748291 3.066472291946411 C 0.6530196070671082 2.783012390136719 0.4973295927047729 2.404372453689575 0.4977796077728271 2.000322341918945 C 0.498689591884613 1.172732353210449 1.163349628448486 0.4986923933029175 1.979399561882019 0.4977723956108093 C 2.37162971496582 0.4977723956108093 2.73954963684082 0.6507824063301086 3.017079591751099 0.9286124110221863 C 3.300219535827637 1.212072372436523 3.455909490585327 1.590712428092957 3.455459594726562 1.994762420654297 C 3.454549551010132 2.822352409362793 2.789889574050903 3.496392488479614 1.973839640617371 3.497312307357788 Z" stroke="none"/>
                <path d="M 1.979969620704651 0.9977726936340332 C 1.438999652862549 0.998382568359375 0.9983894824981689 1.448362588882446 0.9977796077728271 2.000872611999512 C 0.9974796772003174 2.271272659301758 1.101229667663574 2.524212598800659 1.289909601211548 2.713112592697144 C 1.472979545593262 2.896382570266724 1.715269565582275 2.997312545776367 1.973269581794739 2.997312545776367 C 2.514239549636841 2.996702671051025 2.954849720001221 2.546722650527954 2.955459594726562 1.994212627410889 C 2.955759525299072 1.723812580108643 2.852009773254395 1.470872640609741 2.663329601287842 1.281972646713257 C 2.480259656906128 1.098702669143677 2.237969636917114 0.9977726936340332 1.981069564819336 0.9977726936340332 L 1.979969620704651 0.9977726936340332 M 1.981073141098022 -0.002228498458862305 C 3.072950124740601 -0.002228498458862305 3.95668888092041 0.8916242122650146 3.955459594726562 1.995322585105896 C 3.9542396068573 3.099762678146362 3.067279577255249 3.996082544326782 1.974399566650391 3.997312545776367 C 0.8815369606018066 3.998532295227051 -0.003450632095336914 3.104202747344971 -0.002220392227172852 1.999762654304504 C -0.001000404357910156 0.8953225612640381 0.8859596252441406 -0.0009973049163818359 1.978839635848999 -0.002227306365966797 C 1.979573369026184 -0.002228260040283203 1.980339527130127 -0.002228498458862305 1.981073141098022 -0.002228498458862305 Z" stroke="none" fill="#707070"/>
              </g>
              <g id="Trazado_1271781" data-name="Trazado 1271781" transform="translate(13.852 -0.016)" fill="#fff">
                <path d="M 1.973839640617371 3.497312307357788 L 1.972169637680054 3.497312307357788 C 1.581609606742859 3.497312307357788 1.213689565658569 3.344302415847778 0.936159610748291 3.066472291946411 C 0.6530196070671082 2.783012390136719 0.4973295927047729 2.404372453689575 0.4977796077728271 2.000322341918945 C 0.498689591884613 1.172732353210449 1.163349628448486 0.4986923933029175 1.979399561882019 0.4977723956108093 C 2.37162971496582 0.4977723956108093 2.73954963684082 0.6507824063301086 3.017079591751099 0.9286124110221863 C 3.300219535827637 1.212072372436523 3.455909490585327 1.590712428092957 3.455459594726562 1.994762420654297 C 3.454549551010132 2.822352409362793 2.789889574050903 3.496392488479614 1.973839640617371 3.497312307357788 Z" stroke="none"/>
                <path d="M 1.979969620704651 0.9977726936340332 C 1.438999652862549 0.998382568359375 0.9983894824981689 1.448362588882446 0.9977796077728271 2.000872611999512 C 0.9974796772003174 2.271272659301758 1.101229667663574 2.524212598800659 1.289909601211548 2.713112592697144 C 1.472979545593262 2.896382570266724 1.715269565582275 2.997312545776367 1.973269581794739 2.997312545776367 C 2.514239549636841 2.996702671051025 2.954849720001221 2.546722650527954 2.955459594726562 1.994212627410889 C 2.955759525299072 1.723812580108643 2.852009773254395 1.470872640609741 2.663329601287842 1.281972646713257 C 2.480259656906128 1.098702669143677 2.237969636917114 0.9977726936340332 1.981069564819336 0.9977726936340332 L 1.979969620704651 0.9977726936340332 M 1.981073141098022 -0.002228498458862305 C 3.072950124740601 -0.002228498458862305 3.95668888092041 0.8916242122650146 3.955459594726562 1.995322585105896 C 3.9542396068573 3.099762678146362 3.067279577255249 3.996082544326782 1.974399566650391 3.997312545776367 C 0.8815369606018066 3.998532295227051 -0.003450632095336914 3.104202747344971 -0.002220392227172852 1.999762654304504 C -0.001000404357910156 0.8953225612640381 0.8859596252441406 -0.0009973049163818359 1.978839635848999 -0.002227306365966797 C 1.979573369026184 -0.002228260040283203 1.980339527130127 -0.002228498458862305 1.981073141098022 -0.002228498458862305 Z" stroke="none" fill="#707070"/>
              </g>
              <g id="Trazado_1271782" data-name="Trazado 1271782" transform="translate(13.845 5.984)" fill="#fff">
                <path d="M 1.973839640617371 3.497312307357788 L 1.972169637680054 3.497312307357788 C 1.581609606742859 3.497312307357788 1.213689565658569 3.344302415847778 0.936159610748291 3.066472291946411 C 0.6530196070671082 2.783012390136719 0.4973295927047729 2.404372453689575 0.4977796077728271 2.000322341918945 C 0.498689591884613 1.172732353210449 1.163349628448486 0.4986923933029175 1.979399561882019 0.4977723956108093 C 2.37162971496582 0.4977723956108093 2.73954963684082 0.6507824063301086 3.017079591751099 0.9286124110221863 C 3.300219535827637 1.212072372436523 3.455909490585327 1.590712428092957 3.455459594726562 1.994762420654297 C 3.454549551010132 2.822352409362793 2.789889574050903 3.496392488479614 1.973839640617371 3.497312307357788 Z" stroke="none"/>
                <path d="M 1.979969620704651 0.9977726936340332 C 1.438999652862549 0.998382568359375 0.9983894824981689 1.448362588882446 0.9977796077728271 2.000872611999512 C 0.9974796772003174 2.271272659301758 1.101229667663574 2.524212598800659 1.289909601211548 2.713112592697144 C 1.472979545593262 2.896382570266724 1.715269565582275 2.997312545776367 1.973269581794739 2.997312545776367 C 2.514239549636841 2.996702671051025 2.954849720001221 2.546722650527954 2.955459594726562 1.994212627410889 C 2.955759525299072 1.723812580108643 2.852009773254395 1.470872640609741 2.663329601287842 1.281972646713257 C 2.480259656906128 1.098702669143677 2.237969636917114 0.9977726936340332 1.981069564819336 0.9977726936340332 L 1.979969620704651 0.9977726936340332 M 1.981073141098022 -0.002228498458862305 C 3.072950124740601 -0.002228498458862305 3.95668888092041 0.8916242122650146 3.955459594726562 1.995322585105896 C 3.9542396068573 3.099762678146362 3.067279577255249 3.996082544326782 1.974399566650391 3.997312545776367 C 0.8815369606018066 3.998532295227051 -0.003450632095336914 3.104202747344971 -0.002220392227172852 1.999762654304504 C -0.001000404357910156 0.8953225612640381 0.8859596252441406 -0.0009973049163818359 1.978839635848999 -0.002227306365966797 C 1.979573369026184 -0.002228260040283203 1.980339527130127 -0.002228498458862305 1.981073141098022 -0.002228498458862305 Z" stroke="none" fill="#707070"/>
              </g>
              <g id="Trazado_1271783" data-name="Trazado 1271783" transform="translate(13.839 11.983)" fill="#fff">
                <path d="M 1.973839640617371 3.497312307357788 L 1.972169637680054 3.497312307357788 C 1.581609606742859 3.497312307357788 1.213689565658569 3.344302415847778 0.936159610748291 3.066472291946411 C 0.6530196070671082 2.783012390136719 0.4973295927047729 2.404372453689575 0.4977796077728271 2.000322341918945 C 0.498689591884613 1.172732353210449 1.163349628448486 0.4986923933029175 1.979399561882019 0.4977723956108093 C 2.37162971496582 0.4977723956108093 2.73954963684082 0.6507824063301086 3.017079591751099 0.9286124110221863 C 3.300219535827637 1.212072372436523 3.455909490585327 1.590712428092957 3.455459594726562 1.994762420654297 C 3.454549551010132 2.822352409362793 2.789889574050903 3.496392488479614 1.973839640617371 3.497312307357788 Z" stroke="none"/>
                <path d="M 1.979969620704651 0.9977726936340332 C 1.438999652862549 0.998382568359375 0.9983894824981689 1.448362588882446 0.9977796077728271 2.000872611999512 C 0.9974796772003174 2.271272659301758 1.101229667663574 2.524212598800659 1.289909601211548 2.713112592697144 C 1.472979545593262 2.896382570266724 1.715269565582275 2.997312545776367 1.973269581794739 2.997312545776367 C 2.514239549636841 2.996702671051025 2.954849720001221 2.546722650527954 2.955459594726562 1.994212627410889 C 2.955759525299072 1.723812580108643 2.852009773254395 1.470872640609741 2.663329601287842 1.281972646713257 C 2.480259656906128 1.098702669143677 2.237969636917114 0.9977726936340332 1.981069564819336 0.9977726936340332 L 1.979969620704651 0.9977726936340332 M 1.981073141098022 -0.002228498458862305 C 3.072950124740601 -0.002228498458862305 3.95668888092041 0.8916242122650146 3.955459594726562 1.995322585105896 C 3.9542396068573 3.099762678146362 3.067279577255249 3.996082544326782 1.974399566650391 3.997312545776367 C 0.8815369606018066 3.998532295227051 -0.003450632095336914 3.104202747344971 -0.002220392227172852 1.999762654304504 C -0.001000404357910156 0.8953225612640381 0.8859596252441406 -0.0009973049163818359 1.978839635848999 -0.002227306365966797 C 1.979573369026184 -0.002228260040283203 1.980339527130127 -0.002228498458862305 1.981073141098022 -0.002228498458862305 Z" stroke="none" fill="#707070"/>
              </g>
              <g id="Trazado_1271784" data-name="Trazado 1271784" transform="translate(13.832 17.982)" fill="#fff">
                <path d="M 1.973839640617371 3.497312307357788 L 1.972169637680054 3.497312307357788 C 1.581609606742859 3.497312307357788 1.213689565658569 3.344302415847778 0.936159610748291 3.066472291946411 C 0.6530196070671082 2.783012390136719 0.4973295927047729 2.404372453689575 0.4977796077728271 2.000322341918945 C 0.498689591884613 1.172732353210449 1.163349628448486 0.4986923933029175 1.979399561882019 0.4977723956108093 C 2.37162971496582 0.4977723956108093 2.73954963684082 0.6507824063301086 3.017079591751099 0.9286124110221863 C 3.300219535827637 1.212072372436523 3.455909490585327 1.590712428092957 3.455459594726562 1.994762420654297 C 3.454549551010132 2.822352409362793 2.789889574050903 3.496392488479614 1.973839640617371 3.497312307357788 Z" stroke="none"/>
                <path d="M 1.979969620704651 0.9977726936340332 C 1.438999652862549 0.998382568359375 0.9983894824981689 1.448362588882446 0.9977796077728271 2.000872611999512 C 0.9974796772003174 2.271272659301758 1.101229667663574 2.524212598800659 1.289909601211548 2.713112592697144 C 1.472979545593262 2.896382570266724 1.715269565582275 2.997312545776367 1.973269581794739 2.997312545776367 C 2.514239549636841 2.996702671051025 2.954849720001221 2.546722650527954 2.955459594726562 1.994212627410889 C 2.955759525299072 1.723812580108643 2.852009773254395 1.470872640609741 2.663329601287842 1.281972646713257 C 2.480259656906128 1.098702669143677 2.237969636917114 0.9977726936340332 1.981069564819336 0.9977726936340332 L 1.979969620704651 0.9977726936340332 M 1.981073141098022 -0.002228498458862305 C 3.072950124740601 -0.002228498458862305 3.95668888092041 0.8916242122650146 3.955459594726562 1.995322585105896 C 3.9542396068573 3.099762678146362 3.067279577255249 3.996082544326782 1.974399566650391 3.997312545776367 C 0.8815369606018066 3.998532295227051 -0.003450632095336914 3.104202747344971 -0.002220392227172852 1.999762654304504 C -0.001000404357910156 0.8953225612640381 0.8859596252441406 -0.0009973049163818359 1.978839635848999 -0.002227306365966797 C 1.979573369026184 -0.002228260040283203 1.980339527130127 -0.002228498458862305 1.981073141098022 -0.002228498458862305 Z" stroke="none" fill="#707070"/>
              </g>
              <g id="Trazado_1271785" data-name="Trazado 1271785" transform="translate(20.778 -0.023)" fill="#fff">
                <path d="M 1.973839640617371 3.497312307357788 L 1.972169637680054 3.497312307357788 C 1.581609606742859 3.497312307357788 1.213689565658569 3.344302415847778 0.936159610748291 3.066472291946411 C 0.6530196070671082 2.783012390136719 0.4973295927047729 2.404372453689575 0.4977796077728271 2.000322341918945 C 0.498689591884613 1.172732353210449 1.163349628448486 0.4986923933029175 1.979399561882019 0.4977723956108093 C 2.37162971496582 0.4977723956108093 2.73954963684082 0.6507824063301086 3.017079591751099 0.9286124110221863 C 3.300219535827637 1.212072372436523 3.455909490585327 1.590712428092957 3.455459594726562 1.994762420654297 C 3.454549551010132 2.822352409362793 2.789889574050903 3.496392488479614 1.973839640617371 3.497312307357788 Z" stroke="none"/>
                <path d="M 1.979969620704651 0.9977726936340332 C 1.438999652862549 0.998382568359375 0.9983894824981689 1.448362588882446 0.9977796077728271 2.000872611999512 C 0.9974796772003174 2.271272659301758 1.101229667663574 2.524212598800659 1.289909601211548 2.713112592697144 C 1.472979545593262 2.896382570266724 1.715269565582275 2.997312545776367 1.973269581794739 2.997312545776367 C 2.514239549636841 2.996702671051025 2.954849720001221 2.546722650527954 2.955459594726562 1.994212627410889 C 2.955759525299072 1.723812580108643 2.852009773254395 1.470872640609741 2.663329601287842 1.281972646713257 C 2.480259656906128 1.098702669143677 2.237969636917114 0.9977726936340332 1.981069564819336 0.9977726936340332 L 1.979969620704651 0.9977726936340332 M 1.981073141098022 -0.002228498458862305 C 3.072950124740601 -0.002228498458862305 3.95668888092041 0.8916242122650146 3.955459594726562 1.995322585105896 C 3.9542396068573 3.099762678146362 3.067279577255249 3.996082544326782 1.974399566650391 3.997312545776367 C 0.8815369606018066 3.998532295227051 -0.003450632095336914 3.104202747344971 -0.002220392227172852 1.999762654304504 C -0.001000404357910156 0.8953225612640381 0.8859596252441406 -0.0009973049163818359 1.978839635848999 -0.002227306365966797 C 1.979573369026184 -0.002228260040283203 1.980339527130127 -0.002228498458862305 1.981073141098022 -0.002228498458862305 Z" stroke="none" fill="#707070"/>
              </g>
              <g id="Trazado_1271786" data-name="Trazado 1271786" transform="translate(20.771 5.976)" fill="#fff">
                <path d="M 1.973839640617371 3.497312307357788 L 1.972169637680054 3.497312307357788 C 1.581609606742859 3.497312307357788 1.213689565658569 3.344302415847778 0.936159610748291 3.066472291946411 C 0.6530196070671082 2.783012390136719 0.4973295927047729 2.404372453689575 0.4977796077728271 2.000322341918945 C 0.498689591884613 1.172732353210449 1.163349628448486 0.4986923933029175 1.979399561882019 0.4977723956108093 C 2.37162971496582 0.4977723956108093 2.73954963684082 0.6507824063301086 3.017079591751099 0.9286124110221863 C 3.300219535827637 1.212072372436523 3.455909490585327 1.590712428092957 3.455459594726562 1.994762420654297 C 3.454549551010132 2.822352409362793 2.789889574050903 3.496392488479614 1.973839640617371 3.497312307357788 Z" stroke="none"/>
                <path d="M 1.979969620704651 0.9977726936340332 C 1.438999652862549 0.998382568359375 0.9983894824981689 1.448362588882446 0.9977796077728271 2.000872611999512 C 0.9974796772003174 2.271272659301758 1.101229667663574 2.524212598800659 1.289909601211548 2.713112592697144 C 1.472979545593262 2.896382570266724 1.715269565582275 2.997312545776367 1.973269581794739 2.997312545776367 C 2.514239549636841 2.996702671051025 2.954849720001221 2.546722650527954 2.955459594726562 1.994212627410889 C 2.955759525299072 1.723812580108643 2.852009773254395 1.470872640609741 2.663329601287842 1.281972646713257 C 2.480259656906128 1.098702669143677 2.237969636917114 0.9977726936340332 1.981069564819336 0.9977726936340332 L 1.979969620704651 0.9977726936340332 M 1.981073141098022 -0.002228498458862305 C 3.072950124740601 -0.002228498458862305 3.95668888092041 0.8916242122650146 3.955459594726562 1.995322585105896 C 3.9542396068573 3.099762678146362 3.067279577255249 3.996082544326782 1.974399566650391 3.997312545776367 C 0.8815369606018066 3.998532295227051 -0.003450632095336914 3.104202747344971 -0.002220392227172852 1.999762654304504 C -0.001000404357910156 0.8953225612640381 0.8859596252441406 -0.0009973049163818359 1.978839635848999 -0.002227306365966797 C 1.979573369026184 -0.002228260040283203 1.980339527130127 -0.002228498458862305 1.981073141098022 -0.002228498458862305 Z" stroke="none" fill="#707070"/>
              </g>
              <g id="Trazado_1271787" data-name="Trazado 1271787" transform="translate(20.765 11.975)" fill="#fff">
                <path d="M 1.973839640617371 3.497312307357788 L 1.972169637680054 3.497312307357788 C 1.581609606742859 3.497312307357788 1.213689565658569 3.344302415847778 0.936159610748291 3.066472291946411 C 0.6530196070671082 2.783012390136719 0.4973295927047729 2.404372453689575 0.4977796077728271 2.000322341918945 C 0.498689591884613 1.172732353210449 1.163349628448486 0.4986923933029175 1.979399561882019 0.4977723956108093 C 2.37162971496582 0.4977723956108093 2.73954963684082 0.6507824063301086 3.017079591751099 0.9286124110221863 C 3.300219535827637 1.212072372436523 3.455909490585327 1.590712428092957 3.455459594726562 1.994762420654297 C 3.454549551010132 2.822352409362793 2.789889574050903 3.496392488479614 1.973839640617371 3.497312307357788 Z" stroke="none"/>
                <path d="M 1.979969620704651 0.9977726936340332 C 1.438999652862549 0.998382568359375 0.9983894824981689 1.448362588882446 0.9977796077728271 2.000872611999512 C 0.9974796772003174 2.271272659301758 1.101229667663574 2.524212598800659 1.289909601211548 2.713112592697144 C 1.472979545593262 2.896382570266724 1.715269565582275 2.997312545776367 1.973269581794739 2.997312545776367 C 2.514239549636841 2.996702671051025 2.954849720001221 2.546722650527954 2.955459594726562 1.994212627410889 C 2.955759525299072 1.723812580108643 2.852009773254395 1.470872640609741 2.663329601287842 1.281972646713257 C 2.480259656906128 1.098702669143677 2.237969636917114 0.9977726936340332 1.981069564819336 0.9977726936340332 L 1.979969620704651 0.9977726936340332 M 1.981073141098022 -0.002228498458862305 C 3.072950124740601 -0.002228498458862305 3.95668888092041 0.8916242122650146 3.955459594726562 1.995322585105896 C 3.9542396068573 3.099762678146362 3.067279577255249 3.996082544326782 1.974399566650391 3.997312545776367 C 0.8815369606018066 3.998532295227051 -0.003450632095336914 3.104202747344971 -0.002220392227172852 1.999762654304504 C -0.001000404357910156 0.8953225612640381 0.8859596252441406 -0.0009973049163818359 1.978839635848999 -0.002227306365966797 C 1.979573369026184 -0.002228260040283203 1.980339527130127 -0.002228498458862305 1.981073141098022 -0.002228498458862305 Z" stroke="none" fill="#707070"/>
              </g>
              <g id="Trazado_1271788" data-name="Trazado 1271788" transform="translate(20.758 17.975)" fill="#fff">
                <path d="M 1.973839640617371 3.497312307357788 L 1.972169637680054 3.497312307357788 C 1.581609606742859 3.497312307357788 1.213689565658569 3.344302415847778 0.936159610748291 3.066472291946411 C 0.6530196070671082 2.783012390136719 0.4973295927047729 2.404372453689575 0.4977796077728271 2.000322341918945 C 0.498689591884613 1.172732353210449 1.163349628448486 0.4986923933029175 1.979399561882019 0.4977723956108093 C 2.37162971496582 0.4977723956108093 2.73954963684082 0.6507824063301086 3.017079591751099 0.9286124110221863 C 3.300219535827637 1.212072372436523 3.455909490585327 1.590712428092957 3.455459594726562 1.994762420654297 C 3.454549551010132 2.822352409362793 2.789889574050903 3.496392488479614 1.973839640617371 3.497312307357788 Z" stroke="none"/>
                <path d="M 1.979969620704651 0.9977726936340332 C 1.438999652862549 0.998382568359375 0.9983894824981689 1.448362588882446 0.9977796077728271 2.000872611999512 C 0.9974796772003174 2.271272659301758 1.101229667663574 2.524212598800659 1.289909601211548 2.713112592697144 C 1.472979545593262 2.896382570266724 1.715269565582275 2.997312545776367 1.973269581794739 2.997312545776367 C 2.514239549636841 2.996702671051025 2.954849720001221 2.546722650527954 2.955459594726562 1.994212627410889 C 2.955759525299072 1.723812580108643 2.852009773254395 1.470872640609741 2.663329601287842 1.281972646713257 C 2.480259656906128 1.098702669143677 2.237969636917114 0.9977726936340332 1.981069564819336 0.9977726936340332 L 1.979969620704651 0.9977726936340332 M 1.981073141098022 -0.002228498458862305 C 3.072950124740601 -0.002228498458862305 3.95668888092041 0.8916242122650146 3.955459594726562 1.995322585105896 C 3.9542396068573 3.099762678146362 3.067279577255249 3.996082544326782 1.974399566650391 3.997312545776367 C 0.8815369606018066 3.998532295227051 -0.003450632095336914 3.104202747344971 -0.002220392227172852 1.999762654304504 C -0.001000404357910156 0.8953225612640381 0.8859596252441406 -0.0009973049163818359 1.978839635848999 -0.002227306365966797 C 1.979573369026184 -0.002228260040283203 1.980339527130127 -0.002228498458862305 1.981073141098022 -0.002228498458862305 Z" stroke="none" fill="#707070"/>
              </g>
            </g>
            <g id="Grupo_1209984" data-name="Grupo 1209984" transform="translate(232.678 248.784) rotate(1)">
              <g id="Elipse_13703" data-name="Elipse 13703" fill="#fff" stroke="#707070" stroke-width="1">
                <ellipse cx="1.412" cy="2" rx="1.412" ry="2" stroke="none"/>
                <ellipse cx="1.412" cy="2" rx="0.912" ry="1.5" fill="none"/>
              </g>
              <g id="Elipse_13710" data-name="Elipse 13710" transform="translate(0.001 6)" fill="#fff" stroke="#707070" stroke-width="1">
                <ellipse cx="1.412" cy="2" rx="1.412" ry="2" stroke="none"/>
                <ellipse cx="1.412" cy="2" rx="0.912" ry="1.5" fill="none"/>
              </g>
              <g id="Elipse_13714" data-name="Elipse 13714" transform="translate(0.002 12)" fill="#fff" stroke="#707070" stroke-width="1">
                <ellipse cx="1.412" cy="2" rx="1.412" ry="2" stroke="none"/>
                <ellipse cx="1.412" cy="2" rx="0.912" ry="1.5" fill="none"/>
              </g>
              <g id="Elipse_13718" data-name="Elipse 13718" transform="translate(0.003 18)" fill="#fff" stroke="#707070" stroke-width="1">
                <ellipse cx="1.412" cy="2" rx="1.412" ry="2" stroke="none"/>
                <ellipse cx="1.412" cy="2" rx="0.912" ry="1.5" fill="none"/>
              </g>
              <g id="Elipse_13704" data-name="Elipse 13704" transform="translate(4.939 0.001)" fill="#fff" stroke="#707070" stroke-width="1">
                <ellipse cx="1.412" cy="2" rx="1.412" ry="2" stroke="none"/>
                <ellipse cx="1.412" cy="2" rx="0.912" ry="1.5" fill="none"/>
              </g>
              <g id="Elipse_13709" data-name="Elipse 13709" transform="translate(4.94 6.001)" fill="#fff" stroke="#707070" stroke-width="1">
                <ellipse cx="1.412" cy="2" rx="1.412" ry="2" stroke="none"/>
                <ellipse cx="1.412" cy="2" rx="0.912" ry="1.5" fill="none"/>
              </g>
              <g id="Elipse_13713" data-name="Elipse 13713" transform="translate(3.952 12.018)" fill="#fff" stroke="#707070" stroke-width="1">
                <ellipse cx="1.412" cy="2" rx="1.412" ry="2" stroke="none"/>
                <ellipse cx="1.412" cy="2" rx="0.912" ry="1.5" fill="none"/>
              </g>
              <g id="Elipse_13717" data-name="Elipse 13717" transform="translate(4.057 18.016)" fill="#fff" stroke="#707070" stroke-width="1">
                <ellipse cx="1.412" cy="2" rx="1.412" ry="2" stroke="none"/>
                <ellipse cx="1.412" cy="2" rx="0.912" ry="1.5" fill="none"/>
              </g>
              <g id="Elipse_13705" data-name="Elipse 13705" transform="translate(9.878 0.002)" fill="#fff" stroke="#707070" stroke-width="1">
                <ellipse cx="1.412" cy="2" rx="1.412" ry="2" stroke="none"/>
                <ellipse cx="1.412" cy="2" rx="0.912" ry="1.5" fill="none"/>
              </g>
              <g id="Elipse_13708" data-name="Elipse 13708" transform="translate(8.89 6.019)" fill="#fff" stroke="#707070" stroke-width="1">
                <ellipse cx="1.412" cy="2" rx="1.412" ry="2" stroke="none"/>
                <ellipse cx="1.412" cy="2" rx="0.912" ry="1.5" fill="none"/>
              </g>
              <g id="Elipse_13719" data-name="Elipse 13719" transform="translate(7.901 11.949)" fill="#fff" stroke="#707070" stroke-width="1">
                <ellipse cx="1.412" cy="2" rx="1.412" ry="2" stroke="none"/>
                <ellipse cx="1.412" cy="2" rx="0.912" ry="1.5" fill="none"/>
              </g>
              <g id="Elipse_13720" data-name="Elipse 13720" transform="translate(7.299 17.873)" fill="#fff" stroke="#707070" stroke-width="1">
                <ellipse cx="1.412" cy="2" rx="1.412" ry="2" stroke="none"/>
                <ellipse cx="1.412" cy="2" rx="0.912" ry="1.5" fill="none"/>
              </g>
            </g>
          </g>
        </g>
        <circle id="Elipse_13701" data-name="Elipse 13701" cx="6" cy="6" r="6" transform="translate(127.575 195)" fill="#d4e4ff"/>
        <path id="Trazado_1271747" data-name="Trazado 1271747" d="M2529-7335s-10,65,30.5,75.5,57,67,92,93" transform="translate(-2396.139 7542)" fill="none" stroke="#da9dfe" stroke-width="2"/>
        <path id="Trazado_1271748" data-name="Trazado 1271748" d="M2644.75-7249s6.25,23.25-3.75,35.5,10.75,47,10.75,47" transform="translate(-2396.71 7542)" fill="none" stroke="#da9dfe" stroke-width="2"/>
        <ellipse id="Elipse_13702" data-name="Elipse 13702" cx="4" cy="6" rx="4" ry="6" transform="matrix(0.996, 0.087, -0.087, 0.996, 243.848, 282.674)" fill="#d4e4ff"/>
      </g>
    </g>
  </g>
</svg>
