<svg xmlns="http://www.w3.org/2000/svg" xmlns:xlink="http://www.w3.org/1999/xlink" width="150" height="150" viewBox="0 0 150 150">
  <defs>
    <clipPath id="clip-path">
      <rect id="Rectángulo_461288" data-name="Rectángulo 461288" width="63.522" height="78.441" fill="#6a2874"/>
    </clipPath>
  </defs>
  <g id="Grupo_1209961" data-name="Grupo 1209961" transform="translate(-561.711 -8567.084)">
    <g id="Grupo_1207828" data-name="Grupo 1207828" transform="translate(561.711 8567.084)">
      <g id="Grupo_1177470" data-name="Grupo 1177470" transform="translate(0 0)">
        <circle id="Elipse_13609" data-name="Elipse 13609" cx="75" cy="75" r="75" fill="#f6e1fe"/>
        <g id="Grupo_1207827" data-name="Grupo 1207827" transform="translate(32.621 32.621)">
          <g id="Grupo_1099618" data-name="Grupo 1099618" transform="translate(-1.792 0.009)">
            <rect id="Rectángulo_401104" data-name="Rectángulo 401104" width="84.532" height="84.532" transform="translate(0)" fill="none"/>
          </g>
          <g id="Grupo_1212588" data-name="Grupo 1212588" transform="translate(9.208 3.009)">
            <g id="Grupo_1212587" data-name="Grupo 1212587" clip-path="url(#clip-path)">
              <path id="Trazado_1279146" data-name="Trazado 1279146" d="M59.739,26.263H53.186V55.629c6.03,2.688,10.206,7.952,10.336,14.747H60.746c.325-7.666-6.895-13.654-14.366-12.855a3.513,3.513,0,0,1,0,2.517,11.111,11.111,0,0,1,10.537,5.218,13.815,13.815,0,0,1,1.309,3.48v9.7H55.706v-9.2a13.12,13.12,0,0,0-1.052-2.729,9,9,0,0,0-2.6-2.686c-1.3,2.092-3.02,4.457-5.419,5.289V78.44H43.859V70.374h-8.7l-.378.378V78.44H32.264V70.374a24.932,24.932,0,0,1-11.348-3.146,16.452,16.452,0,0,0-2.768-1.643V78.44H15.376V30.926c0-2.734,3.6-7.184,6.428-7.184H34.785V14.668h2.774c-.319,3.567,2.557,7.27,5.8,8.44.288.1,2.026.635,2.137.635H56.967c.053-8.578-6.583-16.858-14.554-19.6-5.234-1.8-17.17-1.775-22.886-1.33-6.181.482-8.532,4.747-8.182,10.6-2.95-.169-5.815-.107-7.673,2.536a15.906,15.906,0,0,0-1.15,2.378V36.6H0V17.819a13.512,13.512,0,0,1,1.3-2.98A9.612,9.612,0,0,1,8.788,10.6,10.6,10.6,0,0,1,18.769.29c6.8-.516,19.878-.6,26.016,1.983,7.071,2.981,14.954,12.1,14.954,20.083Zm-9.326,0H44.741a16.032,16.032,0,0,1-3.88-1.414,20.387,20.387,0,0,1-3.3-2.619v4.033h-15c-1.592,0-4.175,2.289-4.351,3.968L18.2,48.518a15.154,15.154,0,0,0,11.785,7.734c1.143-5.537,6.523-8.554,9.961-12.6.734-4.23-1.416-10.531,2.668-13.464A13.386,13.386,0,0,1,46,28.784h4.411Zm0,5.293H45.5a6.108,6.108,0,0,0-2.448,2.089c-.584,1.2-1.026,4.6,1.095,4.335,1.216-.15.847-1.161,1.384-1.351a17.2,17.2,0,0,1,2.225-.034c.432,2.659-2.719,4.8-5.153,3.785.12.923-.2,2.247.05,3.1.337,1.134,6.654,6.357,7.762,7.74ZM44.994,55c1.235.272,3.317-.2,4.663,0-1.546-3.051-4.409-5.087-6.683-7.56-.757-.317-.191,2.085-.373,2.268l-2.377,0-.27-2.272c-3.4,3.743-8.168,6.4-7.657,12.194.8,9.051,13.361,11.426,17.107,3.182a22.807,22.807,0,0,0-3.913-.259c-1.082.133-1.671.959-2.8,1.236-5.835,1.441-8.906-6.278-4.117-9.411A6.677,6.677,0,0,1,42.92,53.8c.772.159,1.617,1.1,2.074,1.2M18.149,53.234v8.7c4.254,3.609,10.116,5.477,15.628,5.921-2.324-2.429-4.305-5.562-4.032-9.073-4.571-.175-8.291-2.67-11.6-5.544M43.943,58.78a2.57,2.57,0,1,0-2.57,2.57,2.57,2.57,0,0,0,2.57-2.57" transform="translate(0 0)" fill="#6a2874"/>
              <rect id="Rectángulo_461284" data-name="Rectángulo 461284" width="2.521" height="39.07" transform="translate(0 39.37)" fill="#6a2874"/>
              <rect id="Rectángulo_461285" data-name="Rectángulo 461285" width="2.773" height="5.293" transform="translate(60.748 73.147)" fill="#6a2874"/>
              <rect id="Rectángulo_461286" data-name="Rectángulo 461286" width="2.529" height="2.529" transform="translate(16.632 5.589)" fill="#6a2874"/>
              <rect id="Rectángulo_461287" data-name="Rectángulo 461287" width="2.529" height="2.529" transform="translate(21.925 5.589)" fill="#6a2874"/>
              <path id="Trazado_1279147" data-name="Trazado 1279147" d="M88.08,116.208c2.617,3.019,6.744,2.862,9.625.28l1.826,1.574a8.992,8.992,0,0,1-9.559,2.552c-.791-.25-3.313-1.694-3.669-2.394-.374-.734,1.464-1.362,1.777-2.011" transform="translate(-64.512 -86.916)" fill="#6a2874"/>
              <path id="Trazado_1279148" data-name="Trazado 1279148" d="M102.357,145.092l2.484-.039a3.9,3.9,0,0,1-6.178,3.278c-.686-.485-2.411-2.857-1.22-3.239a5.444,5.444,0,0,1,1.937,0c.708.244,1.739,3.186,2.977,0" transform="translate(-72.576 -108.456)" fill="#6a2874"/>
            </g>
          </g>
        </g>
      </g>
      <ellipse id="Elipse_13678" data-name="Elipse 13678" cx="18.074" cy="18.074" rx="18.074" ry="18.074" transform="translate(0.769 113.817)" fill="#da9dfe"/>
      <g id="Grupo_1207826" data-name="Grupo 1207826" transform="translate(0 116.123)">
        <path id="Trazado_998481" data-name="Trazado 998481" d="M0,13.012q4.541.393,9.077.815l-.253.1,1.3-2.34a.35.35,0,0,1,.4-.123.254.254,0,0,1,.184.174l0,.009,1.114,5.034-.836-.059,1.8-4.073,1.816-4.068,1.822-4.067L18.27.354a.772.772,0,0,1,.885-.326.543.543,0,0,1,.472.536V.572L18.9,7.156l-.762,6.581-.773,6.58-.8,6.579-1.5-.222c1.16-2.774,2.354-5.539,3.536-8.307l1.778-4.152,1.8-4.146,0-.01a.657.657,0,0,1,.753-.287.475.475,0,0,1,.413.442L23.082,15.5l-.295,5.285-.776-.111,2.607-5,0-.008a.274.274,0,0,1,.277-.117l4.931.63,4.928.647-4.969-.438-4.966-.456.281-.125L22.763,20.88a.443.443,0,0,1-.508.185.318.318,0,0,1-.269-.285v-.011l.074-5.289.1-5.289,1.17.145-1.676,4.175-1.7,4.17c-1.136,2.779-2.26,5.561-3.418,8.335a.838.838,0,0,1-.96.376c-.35-.082-.566-.334-.536-.6v0l.762-6.581.791-6.579.8-6.579L18.234.48,19.59.7,17.666,4.738,15.723,8.774l-1.948,4.035-1.966,4.029-.005.01a.482.482,0,0,1-.552.192.359.359,0,0,1-.279-.261L10.1,11.718l.586.059-1.431,2.3,0,.007a.257.257,0,0,1-.249.1Q4.5,13.609,0,13.012" transform="translate(0 4.236) rotate(-7)" fill="#fff"/>
      </g>
    </g>
    <path id="Trazado_1267128" data-name="Trazado 1267128" d="M77.377,52.427V64.859a.84.84,0,0,1-.841.84h-10a.841.841,0,0,0-.841.841v10a.841.841,0,0,1-.841.841H52.427a.841.841,0,0,1-.841-.841v-10a.841.841,0,0,0-.84-.841H40.713a.841.841,0,0,1-.841-.84V52.427a.841.841,0,0,1,.841-.841H50.745a.84.84,0,0,0,.84-.84V40.714a.841.841,0,0,1,.841-.841H64.858a.841.841,0,0,1,.841.841V50.746a.841.841,0,0,0,.841.84h10a.841.841,0,0,1,.841.841" transform="translate(630.197 8531.593)" fill="#8d1939"/>
  </g>
</svg>
