<svg xmlns="http://www.w3.org/2000/svg" xmlns:xlink="http://www.w3.org/1999/xlink" width="85" height="85" viewBox="0 0 85 85">
  <defs>
    <clipPath id="clip-path">
      <rect id="Rectángulo_461231" data-name="Rectángulo 461231" width="69.892" height="73" fill="#6a2874"/>
    </clipPath>
  </defs>
  <g id="Grupo_1209953" data-name="Grupo 1209953" transform="translate(0.434 -0.465)">
    <path id="Sustracción_110" data-name="Sustracción 110" d="M0,0H85V85H0Z" transform="translate(-0.434 0.465)" fill="#ffcce2"/>
    <g id="Grupo_1212556" data-name="Grupo 1212556" transform="translate(7.566 6.465)">
      <g id="Grupo_1212555" data-name="Grupo 1212555" clip-path="url(#clip-path)">
        <path id="Trazado_1279100" data-name="Trazado 1279100" d="M29.595,13.141l3.978-2.687c1.606-.843,6.17-3.218,7.707-1.938.443.369,1.859,5.147,2.13,6.119,1.816,6.5.343,3.961-4.352,6.425-.291.153-2.547,1.548-2.365,1.78,4.38,1.455,7.55,4.529,10.391,7.963l4.554-9.092a1.911,1.911,0,0,1,2.188-.13l16.037,31.3a1.486,1.486,0,0,1-1.368,1.787l-16.845.014c-.424,6.286-1.918,14.887-8.7,17.463-6.575,2.5-15.74-.942-21.451-4.422C9.069,60.146,2.864,46.286,8.5,32.454A31.061,31.061,0,0,1,1.84,23.333C1.317,22.206-.234,18.6.03,17.6a.948.948,0,0,1,.34-.492,83.2,83.2,0,0,1,7.818-3.717,1.811,1.811,0,0,1,1.381.614c.983,1.032,1.332,3.134,2.527,4.108a24.436,24.436,0,0,0-.434-9.894c-.669-2.3-3.026-4.063.127-5.21a34.131,34.131,0,0,1,6.5-1.549c1.6.127,1.412,2.614,2.05,3.718C21.36,4.217,23.163.2,24.451,0A37.67,37.67,0,0,1,30.2,2.228c2.105,1.15.963,1.793.535,3.449a27.662,27.662,0,0,0-1.137,7.465m-8.37,13.683c.891-4.153,3.356-7.692,5.835-11.074a27.287,27.287,0,0,1-.252-6.211c.1-1.175,1.1-3.954,1.017-4.731-.074-.65-2.392-1.651-2.917-1.117L20.9,9.836c-2.479,2.02-3.317-3.744-3.733-5.152l-3.3.749A27.491,27.491,0,0,1,15.393,16c-.055,1.141-.868,4.91-.656,5.607.293.963,5.944,5.7,6.487,5.217m27.384,27.86H36.819c-.682,0-1.494-1.471-.9-2.122L45.27,33.726c-2.075-3.234-5.2-6.544-8.914-7.94-2.164-.815-2.342-.28-3.03,1.839-2.023,6.225.768,11.512.292,17.451-.112,1.393-.958,6.226-2,6.989a1.4,1.4,0,0,1-2.3-.984c-.078-1.31,1.173-4.4,1.3-6.213.236-3.385-.786-6.034-1.02-9.217-.485-6.589,1.091-13.046,7.116-16.644,1.366-.816,2.883-1.266,4.268-2.03l-1.757-5.826A23.414,23.414,0,0,0,25.573,23.5c-.815,1.694-1.519,4.853-2.351,6.151-1.109,1.728-2.989.262-4.257-.484-4.767-2.8-8.463-7.513-11.17-12.19l-4.558,2C5.592,25.31,9.508,31.023,16.212,33.362c1.376.48,3.868.211,3.495,2.281-.4,2.209-4.1.546-5.458.143L11.078,34.4c-4.163,10.248-.272,21.033,8,27.993,5.079,4.273,15.592,9.339,22.29,7.207,5.73-1.824,7-9.84,7.24-14.912M65.848,51.7,52.668,26.078,39.735,51.7Z" transform="translate(0 0)" fill="#6a2874"/>
        <rect id="Rectángulo_461229" data-name="Rectángulo 461229" width="2.789" height="11.94" transform="translate(51.397 32.794)" fill="#6a2874"/>
        <rect id="Rectángulo_461230" data-name="Rectángulo 461230" width="2.798" height="2.745" transform="translate(51.392 46.969)" fill="#6a2874"/>
      </g>
    </g>
  </g>
</svg>
