<svg xmlns="http://www.w3.org/2000/svg" xmlns:xlink="http://www.w3.org/1999/xlink" width="150" height="150" viewBox="0 0 150 150">
  <defs>
    <clipPath id="clip-path">
      <rect id="Rectángulo_461283" data-name="Rectángulo 461283" width="77.048" height="80.148" fill="#6a2874"/>
    </clipPath>
  </defs>
  <g id="Grupo_1212933" data-name="Grupo 1212933" transform="translate(-306.941 -3355.371)">
    <g id="Grupo_1209960" data-name="Grupo 1209960" transform="translate(-254.77 -5211.713)">
      <g id="Grupo_1207828" data-name="Grupo 1207828" transform="translate(561.711 8567.084)">
        <g id="Grupo_1177470" data-name="Grupo 1177470" transform="translate(0 0)">
          <circle id="Elipse_13609" data-name="Elipse 13609" cx="75" cy="75" r="75" fill="#f6e1fe"/>
          <g id="Grupo_1207827" data-name="Grupo 1207827" transform="translate(32.621 32.621)">
            <g id="Grupo_1099618" data-name="Grupo 1099618" transform="translate(0.149 0.009)">
              <rect id="Rectángulo_401104" data-name="Rectángulo 401104" width="84.532" height="84.532" transform="translate(0)" fill="none"/>
            </g>
            <g id="Grupo_1212586" data-name="Grupo 1212586" transform="translate(4.149 2.008)">
              <g id="Grupo_1212585" data-name="Grupo 1212585" clip-path="url(#clip-path)">
                <path id="Trazado_1279135" data-name="Trazado 1279135" d="M31.566,95.734c5.8-3.1,11.451-7.056,17.27-10.06,1.581-.816,3.592-1.671,2.818,1.113L42.41,92.2c.579.72,1.566,3.385,2.364,3.537a8.857,8.857,0,0,0,2.628-.108c1.24-.327,3.327-2.841,4.452-1.506,1.482,1.758-2.816,3.052-3.942,3.839L10.173,98c-1.223-.19-1.217-.923-.865-1.975L19.609,78.2,1.083,88.626.014,87.636l.124-.781,16.367-9.6a.556.556,0,0,0,.379-.536c0-.342-2.442-4.452-2.813-4.42L1.62,79.472A1.249,1.249,0,0,1,.134,77.74,13.72,13.72,0,0,1,2.6,76.108c6.6-4,14.136-8.568,20.953-12.071a11.676,11.676,0,0,1,3.515-1.5c4.753-.692,8.473,3.3,12.51,5.151.49.043,1.144-1.436.953-1.761-1.431-.623-5.082-3.806-2.134-4.611.845,0,2,1.722,2.738,2.3C42.559,64.723,51.39,68,53.305,68.3,63.967,69.963,64.09,55.437,67.737,48.776a3.455,3.455,0,0,0-.512-3.046c-.657-.677-1.384-.108-2.169-.091A29.6,29.6,0,0,1,49.235,41.4c-1.481-.883-2.869-2.262-4.412-2.8-1.233.752-1.489,2.245-1.988,3.495-1.47,3.684-3.429,8.616-4.487,12.367-.409,1.45-.145,4.589-2.19,3.885-.952-.684-.634-2.124-.384-3.138-6.754-1.487-6.258-9.745-1.056-12.819A27.073,27.073,0,0,1,36.7,34.364l-2.29-.686c-1.4-3.39,3.32-1.379,3.649-1.714-.193-4.041,3.048-6.779,6.656-7.808,7.819-2.231,17.042,1.6,23.193,6.344,1.406-.434,5.3-1.67,5.792-3.1.46-1.328-2.212-1.9-2.348-2.886-.417-3.031,4.238-.555,4.688,1.924.642,3.536-3.834,4.905-6.319,6.1a14.258,14.258,0,0,1,3.225,4.742c.326.846.8,3.814.912,3.984a10.319,10.319,0,0,1,.985.5c3.042,2.568,2.446,5.744,1.133,9.109-.508,1.3-2.845,4.79-2.965,5.453-.055.3.609,1.987.584,2.851a10.821,10.821,0,0,1-2.309,5.454c-2.2,2.13-4.631,1.828-7.337,1.074a10.787,10.787,0,0,1-12.666,4.536L49.7,73.615c2.974,1.874,6.661,3.428,9.52,5.4,3.709,2.555,2.959,8.173.468,11.364-.683.874-4.577,4.585-5,2.044-.238-1.418,1.668-1.838,2.623-2.831,1.613-1.676,2.762-5.481,1.674-7.606-.688-1.344-6.053-3.493-7.429-4.659a22.279,22.279,0,0,1-4.718,1.335A10.744,10.744,0,0,1,35.514,67.986c-3.077-1.372-5.888-4.474-9.5-2.632l-9.574,5.693,2.607,4.65a30.552,30.552,0,0,0,3.01-1.66c.986-.986,2.59-6.9,4.338-3.051L12.321,95.734ZM64.7,31.278c-4.99-4.3-16.809-7.7-22.394-3.374a5.2,5.2,0,0,0-1.989,4.158c.113.626,11.467.645,12.663.595,1.834-.077,4.075-.265,5.91-.467,1.938-.212,3.88-.644,5.809-.912M37.145,41.983l2.97.592c.891-2.1,1.932-6.517,4.889-6.516,1.326,0,4.359,2.714,5.8,3.539,5.024,2.868,8.573,3.448,14.23,3.515,2.07.025,3.264-.262,4.41,1.759,1.7,3,.038,5.24-.626,8.127l2.417,1.257c.473.042,1.805-2.565,2.055-3.114.818-1.794,2.124-5.1.86-6.877-.587-.823-2.071-.985-2.564-1.991-.442-.9-.166-1.737-.334-2.627-.432-2.284-2.48-4.978-4.187-6.494a87.764,87.764,0,0,1-27.726,1.3,20,20,0,0,0-2.2,7.534M36.46,52.918,39.2,45.276c-1.016-1.492-3.657-1.117-4.789.236a9.756,9.756,0,0,0-1.37,3.658,3.747,3.747,0,0,0,3.42,3.748M64.932,63.39c5.74,2.983,9.137-7.239,2.734-7.969ZM49.217,69.317l-6.046-2.042c-1.1.051-1.193,3.257-3.642,2.965-.566-.068-.969-.64-1.468-.36a8.4,8.4,0,0,0,10.7,6.036c-3.183-1.96-.841-4.272.456-6.6M41.7,95.734l-1.51-2.26-3.729,2.26Z" transform="translate(0 -17.849)" fill="#6a2874"/>
                <path id="Trazado_1279136" data-name="Trazado 1279136" d="M119.11,5.789c2.819-.133,6.012-.2,8.825-.077a39.441,39.441,0,0,1,5.634.515,1.158,1.158,0,0,1,.232,2.181c-4.017.029-8.011-.5-12.034-.419-4.334.09-19.635,1.431-22.3,4.8-.54.684-.479,2.384-1.952,1.946-1.454-.432-.492-2.592.226-3.444,3.391-4.025,16.233-5.265,21.368-5.507" transform="translate(-74.723 -4.361)" fill="#6a2874"/>
                <path id="Trazado_1279137" data-name="Trazado 1279137" d="M14.862,158.942c1.787-.14,10.662-.279,11.667.722,1.253,3.206-3.386,1.563-5.121,1.478a42.811,42.811,0,0,0-13.155,1.441c-1.21.331-5.031,2-5.763,2a1.255,1.255,0,0,1-1.143-1.605c.425-.955,5.894-2.589,7.135-2.9a39.4,39.4,0,0,1,6.379-1.137" transform="translate(-0.992 -122.667)" fill="#6a2874"/>
                <path id="Trazado_1279138" data-name="Trazado 1279138" d="M196.053,174.123c1.365-.221,4.732.949,5.993,1.641a3.606,3.606,0,0,1-2.384,6.711c-.979-.121-4.984-1.673-5.6-2.369a3.661,3.661,0,0,1,1.993-5.983m.451,2.262a1.258,1.258,0,0,0-.379,2.34c.214.142,3.777,1.426,4.031,1.449a1.228,1.228,0,0,0,.718-2.327,20.58,20.58,0,0,0-4.37-1.462" transform="translate(-149.173 -134.445)" fill="#6a2874"/>
                <path id="Trazado_1279139" data-name="Trazado 1279139" d="M24.155,127.932a34.835,34.835,0,0,1,3.586-.076,27.319,27.319,0,0,1,2.9.284,1.214,1.214,0,0,1,.238,2.193c-4.491.008-8.648-.117-13.061.833-1.153.248-4.385,1.469-5.126,1.458a1.261,1.261,0,0,1-.791-2.137c.561-.533,5.5-1.68,6.555-1.871a46.366,46.366,0,0,1,5.694-.683" transform="translate(-8.92 -98.719)" fill="#6a2874"/>
                <path id="Trazado_1279140" data-name="Trazado 1279140" d="M276.7,1.816c2.03-1.367,3.267,1.087,1.137,2.165,2.131,1.034,1.032,3.114-1.138,2.161-.056,2.193-2.555,2.13-2.509,0-2.1.929-3.266-.947-1.366-2.164V3.642c-2.055-.768-.45-3.284,1.366-1.826-.241-2.441,2.619-2.4,2.51,0" transform="translate(-209.948 0)" fill="#6a2874"/>
                <path id="Trazado_1279141" data-name="Trazado 1279141" d="M114.7,42.691c1.96-1.417,3.288,1.072,1.137,2.165,2.131,1.031,1.032,3.116-1.137,2.161-.183,2.327-2.841,2.122-2.511-.226-1.9,1.475-3.336-.785-1.365-1.938v-.336c-2.055-.768-.45-3.285,1.366-1.826-.169-2.419,2.511-2.521,2.51,0" transform="translate(-84.844 -31.538)" fill="#6a2874"/>
                <path id="Trazado_1279142" data-name="Trazado 1279142" d="M246.46,158.416c.224.168,2.295-.9,2.492.594.2,1.541-1.321,1.414-1.351,1.806,1.135,1.138-.116,3.037-1.38,2.048-.345-.27-.544-.912-.838-1-.481-.139-2.161.849-2.364-.607-.174-1.253,1.258-1.407,1.358-1.83-1.17-1.515.624-3.272,1.816-1.77.162.2.2.7.267.755" transform="translate(-187.66 -121.31)" fill="#6a2874"/>
                <path id="Trazado_1279143" data-name="Trazado 1279143" d="M192.465,140.419c-.208.281,1.087,2.192-.593,2.487-1.569.276-1.362-1.313-1.81-1.346-2.219,1.585-3.274-1.617-.8-2.075-.649-.822-.724-2.472.59-2.5,1.047-.021,1.179,1.24,1.6,1.336.433.1,1.387-.864,2.124.163.992,1.384-.97,1.749-1.107,1.933" transform="translate(-145.056 -105.788)" fill="#6a2874"/>
                <path id="Trazado_1279144" data-name="Trazado 1279144" d="M250.153,130.988c1.34-.393,2.009,1.718,3.022,2.581.771.656,3.69,1.826,1.955,3.089-1.11.808-3.591-1.177-4.346-2.064-.489-.576-1.663-2.284-1.371-2.954.2-.228.448-.566.741-.652" transform="translate(-192.572 -101.118)" fill="#6a2874"/>
                <path id="Trazado_1279145" data-name="Trazado 1279145" d="M203.047,121.909c-1.055,1.11-6.714,1.433-7.186-.1-.8-2.586,2.423-1.228,3.463-1.234,1.007-.006,2.374-.792,3.2-.659.941.152,1.058,1.432.523,1.994" transform="translate(-151.156 -92.593)" fill="#6a2874"/>
              </g>
            </g>
          </g>
        </g>
        <ellipse id="Elipse_13678" data-name="Elipse 13678" cx="18.074" cy="18.074" rx="18.074" ry="18.074" transform="translate(0.769 113.817)" fill="#da9dfe"/>
        <g id="Grupo_1207826" data-name="Grupo 1207826" transform="translate(0 116.123)">
          <path id="Trazado_998481" data-name="Trazado 998481" d="M0,13.012q4.541.393,9.077.815l-.253.1,1.3-2.34a.35.35,0,0,1,.4-.123.254.254,0,0,1,.184.174l0,.009,1.114,5.034-.836-.059,1.8-4.073,1.816-4.068,1.822-4.067L18.27.354a.772.772,0,0,1,.885-.326.543.543,0,0,1,.472.536V.572L18.9,7.156l-.762,6.581-.773,6.58-.8,6.579-1.5-.222c1.16-2.774,2.354-5.539,3.536-8.307l1.778-4.152,1.8-4.146,0-.01a.657.657,0,0,1,.753-.287.475.475,0,0,1,.413.442L23.082,15.5l-.295,5.285-.776-.111,2.607-5,0-.008a.274.274,0,0,1,.277-.117l4.931.63,4.928.647-4.969-.438-4.966-.456.281-.125L22.763,20.88a.443.443,0,0,1-.508.185.318.318,0,0,1-.269-.285v-.011l.074-5.289.1-5.289,1.17.145-1.676,4.175-1.7,4.17c-1.136,2.779-2.26,5.561-3.418,8.335a.838.838,0,0,1-.96.376c-.35-.082-.566-.334-.536-.6v0l.762-6.581.791-6.579.8-6.579L18.234.48,19.59.7,17.666,4.738,15.723,8.774l-1.948,4.035-1.966,4.029-.005.01a.482.482,0,0,1-.552.192.359.359,0,0,1-.279-.261L10.1,11.718l.586.059-1.431,2.3,0,.007a.257.257,0,0,1-.249.1Q4.5,13.609,0,13.012" transform="translate(0 4.236) rotate(-7)" fill="#fff"/>
        </g>
      </g>
      <path id="Trazado_1267128" data-name="Trazado 1267128" d="M77.377,52.427V64.859a.84.84,0,0,1-.841.84h-10a.841.841,0,0,0-.841.841v10a.841.841,0,0,1-.841.841H52.427a.841.841,0,0,1-.841-.841v-10a.841.841,0,0,0-.84-.841H40.713a.841.841,0,0,1-.841-.84V52.427a.841.841,0,0,1,.841-.841H50.745a.84.84,0,0,0,.84-.84V40.714a.841.841,0,0,1,.841-.841H64.858a.841.841,0,0,1,.841.841V50.746a.841.841,0,0,0,.841.84h10a.841.841,0,0,1,.841.841" transform="translate(630.197 8531.593)" fill="#8d1939"/>
    </g>
  </g>
</svg>
