<svg xmlns="http://www.w3.org/2000/svg" xmlns:xlink="http://www.w3.org/1999/xlink" width="187.711" height="121.729" viewBox="0 0 187.711 121.729">
  <defs>
    <clipPath id="clip-path">
      <rect id="Rectángulo_460804" data-name="Rectángulo 460804" width="101.287" height="100.533" fill="none"/>
    </clipPath>
  </defs>
  <g id="Grupo_1212938" data-name="Grupo 1212938" transform="translate(-289.711 -5267)">
    <g id="Grupo_1211411" data-name="Grupo 1211411">
      <g id="Grupo_1208384" data-name="Grupo 1208384" transform="translate(0.434 -3601.039)">
        <g id="Grupo_1204518" data-name="Grupo 1204518" transform="translate(289.277 8868.039)">
          <rect id="Rectángulo_455283" data-name="Rectángulo 455283" width="187.711" height="121.729" rx="19" fill="#fff5d4"/>
        </g>
      </g>
      <g id="Grupo_1211410" data-name="Grupo 1211410" transform="translate(332.711 5278)">
        <g id="Grupo_1211409" data-name="Grupo 1211409" clip-path="url(#clip-path)">
          <path id="Trazado_1274626" data-name="Trazado 1274626" d="M83.41,72a1.885,1.885,0,0,1,1.4.764c.565.617,5.706,9.228,5.8,9.789.232,1.392.142,5.526-.415,6.771-.424.947-2.47,2.885-3.467,2.885H78.791v4.186c0,.366.9.685,1.285.736a86.2,86.2,0,0,0,12.441,0c1.026-.134,1.342-.534,1.3-1.584l-.014-64.975c-.121-.876-1.26-.737-2.043-1.133-3.255-1.647-1.324-5.06-2.05-7.188-.172-.5-2.484-1.664-2.986-2.211a4.494,4.494,0,0,1-3.489,4.013,24.7,24.7,0,0,1-5.11-.034c-2.1-.47-2.938-2.786-3.1-4.693a102.529,102.529,0,0,1,.042-14.99A4.573,4.573,0,0,1,79.21.1c3.442-.333,6.6-.024,7.552,3.786,6.008-.734,13.529.74,14.255,7.924a98.5,98.5,0,0,1,.01,14.438,5.125,5.125,0,0,1-2.39,3.384c-.76.321-1.861-.033-1.949.938L96.7,96.116a4.408,4.408,0,0,1-3.637,4.157,88.057,88.057,0,0,1-13.263.018c-1.824-.2-4.185-1.976-4.185-3.9V92.207H25.672v4.186c0,1.857-2.4,3.706-4.185,3.9a88.057,88.057,0,0,1-13.263-.018,4.59,4.59,0,0,1-3.432-2.919C4.342,75.133,4.723,52.824,4.6,30.57c-.088-.971-1.189-.617-1.949-.938a5.125,5.125,0,0,1-2.39-3.384,98.5,98.5,0,0,1,.01-14.438C1,4.627,8.518,3.152,14.526,3.887,15.483.077,18.636-.232,22.078.1a4.573,4.573,0,0,1,4.14,4.232,102.53,102.53,0,0,1,.042,14.99c-.164,1.907-1,4.222-3.1,4.693a24.7,24.7,0,0,1-5.11.034,4.494,4.494,0,0,1-3.489-4.013c-.5.547-2.814,1.707-2.986,2.211-.821,2.409,1.4,5.346-2.259,7.268-.721.379-1.744.175-1.834,1.053L7.468,95.544c-.039,1.051.276,1.45,1.3,1.584a86.2,86.2,0,0,0,12.441,0c.381-.051,1.285-.37,1.285-.736V92.207H14.558c-1,0-3.042-1.938-3.467-2.885-.558-1.246-.648-5.379-.415-6.771.369-2.21,4.865-6.937,5.451-9.561l.094-31.662c.145-2.171,2.526-4.55,4.688-4.55h8.228V32.593c0-.887,1.845-2.973,2.681-3.381,1.148-.56,6.062-1.053,6.508.253,1.1,3.212-3,2.161-4.7,2.425-2.408.376-1.417,3.421-1.607,5.18,10.677-.052,21.369.065,32.046,0,1.728-.011,3.469.007,5.2,0,.358-5.909-.5-5.372-5.487-5.487-6.773-.156-13.574.116-20.353,0-1.778-.731-1.032-3,.849-2.905,7.411.639,16.116-.808,23.37.05,1.689.2,4.507,2.107,4.507,3.865v4.186h8.228c.1,0,1.575.423,1.794.516a5.4,5.4,0,0,1,2.966,4.54c.783,7.721-.581,16.684.008,24.54-.152,1.284-.54,1.528-1.737,1.872a1.863,1.863,0,0,1-1.426-1.605l-.012-24.815a1.77,1.77,0,0,0-1.143-1.744l-59.356-.141c-.706-.2-2.152.661-2.152,1.312V72H29.858a2.819,2.819,0,0,1,1.3,1.3v8.228H70.13V73.3c0-.565,1.036-1.19,1.606-1.281A78.033,78.033,0,0,1,83.41,72M22.785,3.291H18.311a2.577,2.577,0,0,0-.573.582l-.079,16.251c.137,1.385,2.724,1.2,3.844,1.083,1.062-.107,1.429-.117,1.584-1.3a106.541,106.541,0,0,0,0-15.039,9.2,9.2,0,0,0-.3-1.574m60.192,0C81.93,3,79.714,3.5,78.5,3.291a9.2,9.2,0,0,0-.3,1.574,106.541,106.541,0,0,0,0,15.039c.155,1.185.522,1.2,1.584,1.3,1.12.113,3.707.3,3.844-1.083L83.55,3.873a2.267,2.267,0,0,0-.573-.582M14.7,7.044H7.629A18.091,18.091,0,0,0,5.771,8.072a6.191,6.191,0,0,0-2.541,4.387A81.1,81.1,0,0,0,3.143,25.1c.116,1.38.15,1.708,1.595,1.864,6.611.715,2.648-3.266,4.05-6.348.471-1.034,4.939-3.388,5.915-4.478Zm78.957,0c-1.916-.39-5.012.288-7.073,0v9.094c.975,1.09,5.444,3.444,5.915,4.478,1.408,3.093-2.572,6.911,3.769,6.359,1.608-.14,1.74-.261,1.876-1.876a81.135,81.135,0,0,0-.087-12.64,6.191,6.191,0,0,0-2.541-4.387,19.769,19.769,0,0,0-1.859-1.028M27.982,75.175H18.6l-3.9,6.351h13.28Zm49.943,0c-1.536.005-3.083,0-4.619,0v6.351c2.69-.014,5.393.019,8.083,0a34.983,34.983,0,0,0,5.194-.143l-3.747-6.069c-.519-.319-3.971-.143-4.912-.14m9.815,9.238H13.547c-.008,1.995-.442,3.541,1.449,4.758l70.586.156c2.734-.32,2.133-2.834,2.159-4.914" transform="translate(0 0)" fill="#060607"/>
          <path id="Trazado_1274627" data-name="Trazado 1274627" d="M131.015,166.584c.195.3-.14,3.074,0,3.753a78.037,78.037,0,0,0-11.674.018c-.57.091-1.606.715-1.606,1.281v8.228H78.762v-8.228a2.819,2.819,0,0,0-1.3-1.3H66.926V139.592c0-.652,1.446-1.514,2.152-1.312l59.356.141a1.77,1.77,0,0,1,1.143,1.744l.012,24.815a1.863,1.863,0,0,0,1.426,1.605M73.2,140.67a4.237,4.237,0,0,0-2.855,2.917,40.147,40.147,0,0,0-.216,8.972c.624,4.41,6.944,5.082,8.332.876.493-1.494.508-7.223.279-8.909A4.426,4.426,0,0,0,73.2,140.67m40.7,27.846a4.662,4.662,0,0,0,.955-2.364c.785-6.893-.6-15.194.011-22.241a3.4,3.4,0,0,0-2.016-3.18c-9.76-.156-19.651-.332-29.388.09a3.424,3.424,0,0,0-1.817,3.09c-.679,7.264.37,15.846.206,23.2.484,1.491,1.275,1.946,2.822,2.088,8.749-.631,18.545.785,27.166,0a3.759,3.759,0,0,0,2.062-.682m4.908-27.858a1.494,1.494,0,0,0,0,2.776,24.648,24.648,0,0,0,4.555.047,1.444,1.444,0,0,0,.167-2.749,18.222,18.222,0,0,0-4.722-.074m5.216,8.248a1.8,1.8,0,0,0-.713-2.757,17.3,17.3,0,0,0-4.208,0,1.6,1.6,0,0,0-.3,3.058c.708.213,4.747.168,5.216-.3m0,3.313c-.582-.583-6.422-1.058-6.221,1.185.16,1.785,4.264,1.581,5.56,1.336a1.538,1.538,0,0,0,.661-2.521M120.551,158c-.7-.8-3.027-.536-2.768,1.161.438,2.87,4.342.646,2.768-1.161M83.01,173c-2.063.676-1.565,3.015.51,3.119,9.287-.81,20.386,1.063,29.457,0,2.521-.3,2.393-2.965,0-3.186Z" transform="translate(-47.605 -98.338)" fill="#da9dfe"/>
          <path id="Trazado_1274628" data-name="Trazado 1274628" d="M157.143,15.2a5.98,5.98,0,0,1,.837,6.845c-.7,1.359-7.361,9.746-8.426,10.339-2.4,1.334-4.34.367-6.028-1.4-1.544-1.618-7.266-8.787-7.577-10.609a5.826,5.826,0,0,1,6.582-6.876c1.48.258,3.637,1.909,4.752,1.909,1.409,0,3.674-2.085,5.76-2.048a7.369,7.369,0,0,1,4.1,1.841M148.5,29.452c1.114-2.156,7.317-8.164,7.317-10.16a3.093,3.093,0,0,0-1.954-2.68c-2.863-.653-4.591,2.263-6.579,2.262-1.36,0-3.337-1.971-4.684-2.259-2.953-.63-4.693,1.816-3.213,4.366l6.68,8.47a2.107,2.107,0,0,0,2.432,0" transform="translate(-96.64 -9.505)" fill="#060607"/>
          <path id="Trazado_1274629" data-name="Trazado 1274629" d="M220.926,109.4c4.983.115,5.845-.422,5.487,5.487-1.728.005-3.469-.012-5.2,0Z" transform="translate(-157.147 -77.817)" fill="#8593db"/>
          <path id="Trazado_1274630" data-name="Trazado 1274630" d="M121,292.4c-.026,2.08.575,4.594-2.159,4.914l-70.586-.156c-1.891-1.217-1.457-2.764-1.449-4.758Z" transform="translate(-33.259 -207.987)" fill="#d7ebfd"/>
          <path id="Trazado_1274631" data-name="Trazado 1274631" d="M307,24.092a19.775,19.775,0,0,1,1.859,1.028,6.19,6.19,0,0,1,2.541,4.387,81.134,81.134,0,0,1,.087,12.64c-.136,1.614-.268,1.736-1.876,1.876-6.341.552-2.361-3.266-3.769-6.359-.471-1.034-4.939-3.388-5.915-4.478V24.092c2.061.288,5.157-.39,7.073,0" transform="translate(-213.341 -17.048)" fill="#da9dfe"/>
          <path id="Trazado_1274632" data-name="Trazado 1274632" d="M21.944,24.4v9.094c-.975,1.09-5.444,3.445-5.915,4.478-1.4,3.082,2.561,7.063-4.05,6.348-1.444-.156-1.478-.484-1.595-1.864a81.1,81.1,0,0,1,.087-12.64,6.191,6.191,0,0,1,2.541-4.387A18.091,18.091,0,0,1,14.871,24.4Z" transform="translate(-7.242 -17.355)" fill="#da9dfe"/>
          <path id="Trazado_1274633" data-name="Trazado 1274633" d="M66.3,11.4a9.2,9.2,0,0,1,.3,1.574,106.542,106.542,0,0,1,0,15.039c-.155,1.185-.522,1.2-1.584,1.3-1.12.113-3.707.3-3.844-1.083l.079-16.251a2.583,2.583,0,0,1,.573-.582Z" transform="translate(-43.51 -8.108)" fill="#ff9ebf"/>
          <path id="Trazado_1274634" data-name="Trazado 1274634" d="M274.993,11.167a2.267,2.267,0,0,1,.573.582L275.645,28c-.137,1.385-2.724,1.2-3.844,1.083-1.062-.107-1.429-.117-1.584-1.3a106.537,106.537,0,0,1,0-15.039,9.193,9.193,0,0,1,.3-1.574c1.212.213,3.427-.294,4.475,0" transform="translate(-192.016 -7.876)" fill="#ff9ebf"/>
          <path id="Trazado_1274635" data-name="Trazado 1274635" d="M64.206,260.4v6.351H50.926l3.9-6.351Z" transform="translate(-36.224 -185.224)" fill="#f5f5f5"/>
          <path id="Trazado_1274636" data-name="Trazado 1274636" d="M258.545,260.4l3.464,6.351c-2.69.019-5.393-.014-8.083,0V260.4c1.536,0,3.083.005,4.619,0" transform="translate(-180.62 -185.222)" fill="#f5f5f5"/>
          <path id="Trazado_1274637" data-name="Trazado 1274637" d="M269.926,260.273c.941,0,4.393-.179,4.912.14l3.747,6.069a34.986,34.986,0,0,1-5.194.143Z" transform="translate(-192.001 -185.098)" fill="#d7ebfd"/>
          <path id="Trazado_1274638" data-name="Trazado 1274638" d="M149.573,174.2a3.757,3.757,0,0,1-2.062.682c-8.621.785-18.417-.631-27.166,0-1.547-.141-2.338-.6-2.822-2.088.164-7.353-.885-15.935-.206-23.2a3.425,3.425,0,0,1,1.817-3.09c9.737-.422,19.628-.246,29.388-.09a3.4,3.4,0,0,1,2.016,3.18c-.607,7.047.775,15.348-.011,22.241a4.66,4.66,0,0,1-.955,2.364m-2.221-25.026H120.5v22.806h26.848Z" transform="translate(-83.285 -104.025)" fill="#060607"/>
          <path id="Trazado_1274639" data-name="Trazado 1274639" d="M119.389,258.447l29.967-.067c2.393.221,2.521,2.891,0,3.186-9.071,1.063-20.17-.81-29.457,0-2.075-.1-2.574-2.443-.51-3.119" transform="translate(-83.984 -183.788)" fill="#060607"/>
          <path id="Trazado_1274640" data-name="Trazado 1274640" d="M80.713,146.346a4.426,4.426,0,0,1,5.539,3.855c.23,1.685.214,7.415-.279,8.909-1.388,4.206-7.707,3.534-8.332-.876a40.148,40.148,0,0,1,.216-8.972,4.236,4.236,0,0,1,2.855-2.916M83.1,158.259c.348-1.234,0-6.618,0-8.372,0-.682-1.942-1.294-2.468.419a34.544,34.544,0,0,0,0,7.534c.419,1.37,2.165,1.491,2.468.419" transform="translate(-55.121 -104.014)" fill="#060607"/>
          <path id="Trazado_1274641" data-name="Trazado 1274641" d="M249.374,168.051c-.469.47-4.508.515-5.216.3a1.6,1.6,0,0,1,.295-3.058,17.3,17.3,0,0,1,4.208,0,1.8,1.8,0,0,1,.713,2.757" transform="translate(-172.963 -117.484)" fill="#060607"/>
          <path id="Trazado_1274642" data-name="Trazado 1274642" d="M244.3,146.294a18.2,18.2,0,0,1,4.722.074,1.444,1.444,0,0,1-.167,2.749,24.648,24.648,0,0,1-4.555-.047,1.494,1.494,0,0,1,0-2.776" transform="translate(-173.104 -103.975)" fill="#060607"/>
          <path id="Trazado_1274643" data-name="Trazado 1274643" d="M249.344,185.442a1.538,1.538,0,0,1-.661,2.521c-1.3.245-5.4.449-5.56-1.336-.2-2.243,5.639-1.768,6.221-1.185" transform="translate(-172.933 -131.562)" fill="#060607"/>
          <path id="Trazado_1274644" data-name="Trazado 1274644" d="M245.808,205.582c1.574,1.807-2.33,4.032-2.768,1.162-.259-1.7,2.071-1.962,2.768-1.162" transform="translate(-172.863 -145.924)" fill="#060607"/>
          <path id="Trazado_1274645" data-name="Trazado 1274645" d="M155.861,37.219a2.107,2.107,0,0,1-2.432,0l-6.68-8.47c-1.48-2.55.26-5,3.213-4.366,1.346.287,3.324,2.259,4.684,2.259,1.988,0,3.715-2.915,6.579-2.262a3.093,3.093,0,0,1,1.954,2.68c0,2-6.2,8-7.317,10.16" transform="translate(-104.001 -17.273)" fill="#ff9ebf"/>
          <rect id="Rectángulo_460803" data-name="Rectángulo 460803" width="26.848" height="22.806" transform="translate(37.22 45.151)" fill="#89c8fd"/>
          <path id="Trazado_1274646" data-name="Trazado 1274646" d="M90.337,165.571c-.3,1.072-2.049.952-2.468-.419a34.545,34.545,0,0,1,0-7.534c.526-1.713,2.468-1.1,2.468-.419,0,1.754.348,7.138,0,8.372" transform="translate(-62.356 -111.326)" fill="#89c8fd"/>
        </g>
      </g>
    </g>
  </g>
</svg>
