<svg xmlns="http://www.w3.org/2000/svg" xmlns:xlink="http://www.w3.org/1999/xlink" width="187.711" height="136" viewBox="0 0 187.711 136">
  <defs>
    <clipPath id="clip-path">
      <rect id="Rectángulo_460802" data-name="Rectángulo 460802" width="116.305" height="115.457" fill="none"/>
    </clipPath>
  </defs>
  <g id="Grupo_1212942" data-name="Grupo 1212942" transform="translate(-290.711 -7326)">
    <g id="Grupo_1209231" data-name="Grupo 1209231" transform="translate(0.578 3663.442)">
      <g id="Grupo_1208475" data-name="Grupo 1208475" transform="translate(290.133 3662.558)">
        <g id="Grupo_1204518" data-name="Grupo 1204518">
          <rect id="Rectángulo_455283" data-name="Rectángulo 455283" width="187.711" height="136" rx="19" fill="#e9c3ff"/>
        </g>
      </g>
      <g id="Grupo_1211408" data-name="Grupo 1211408" transform="translate(325.76 3673.224)">
        <g id="Grupo_1211407" data-name="Grupo 1211407" clip-path="url(#clip-path)">
          <path id="Trazado_1274612" data-name="Trazado 1274612" d="M77.893,21.119c8.313.625,17.338-.594,25.569.057a13.659,13.659,0,0,1,12.4,12.4c-1.092,18.154,1.412,37.936,0,55.9-.474,6.036-5.326,11.638-11.454,12.351-8.845,1.029-19.465-.817-28.41.023a4.12,4.12,0,0,0-2.48.826c-3.9,2.753-7.868,8.822-12.052,11.753a5.82,5.82,0,0,1-6.618,0c-4.184-2.931-8.148-9-12.052-11.753a4.12,4.12,0,0,0-2.48-.826c-8.888-.834-19.244.893-28.112.009C5.919,101.23.936,95.661.449,89.473-.973,71.417,1.533,51.51.467,33.261A13.724,13.724,0,0,1,12.239,21.229l26.177-.11L49.727,3.5a11.935,11.935,0,0,1,16.706-.181Zm7.538,40.4a7.728,7.728,0,0,0,6.669-10.8L64.407,7a7.4,7.4,0,0,0-5.757-3c-4.739-.237-5.923,2.038-8.273,5.448C41.249,22.7,33.381,36.9,24.418,50.269a7.744,7.744,0,0,0,6.3,11.251c17.735-1.068,37.182,1.441,54.714,0m18.184-36.369-22.811,0c-.124.507.2.719.4,1.087,3.686,7.063,9.6,13.9,13.423,20.961,4.638,8.57.464,16.838-9.016,18.3-17.793-.993-36.946,1.279-54.579,0-9.486-.687-13.89-9.814-9.465-18.09,3.816-7.138,9.828-14.04,13.544-21.171.192-.37.518-.58.4-1.089H11.867c-2.915,0-7.508,5.026-7.441,8.1L4.411,89.809c.8,4.993,4.6,7.911,9.483,8.371,9.365.882,19.757-.7,29.227.2,5.159,2.819,8.916,9.177,13.546,12.408.979.683,1.436,1.148,2.829.348l11.057-10.928c1.133-.9,1.914-1.805,3.464-1.991,9.149-1.1,20.437,1.214,29.6-.323,4.484-.752,7.206-3.333,8.237-7.8L111.9,33.9a9.426,9.426,0,0,0-8.28-8.747" transform="translate(0 0)" fill="#060501"/>
          <path id="Trazado_1274613" data-name="Trazado 1274613" d="M65.6,161.713c-4.63-3.231-8.387-9.59-13.546-12.408-9.47-.9-19.862.684-29.227-.2-4.883-.46-8.683-3.377-9.483-8.371l.015-56.556c-.067-3.072,4.526-8.1,7.441-8.1h23.64c.119.509-.206.719-.4,1.089C40.322,84.3,34.31,91.2,30.494,98.343c-4.424,8.275-.021,17.4,9.465,18.089,17.633,1.277,36.785-.995,54.579,0,9.479-1.46,13.654-9.727,9.016-18.3-3.82-7.058-9.737-13.9-13.423-20.961-.192-.368-.521-.581-.4-1.087l22.811,0c2.46,2.585,4.292,5.072,4.623,8.767-.927,17.812,1.25,36.9.02,54.562a13.3,13.3,0,0,1-4.644,9.408c-9.162,1.537-20.45-.776-29.6.323-1.55.186-2.331,1.1-3.464,1.991-1.049.084-2.252-.286-3.159.313ZM40.043,120.124c-2.554.809-2.549,3.576.255,3.9H93.871c3.077-.36,2.711-3.624-.329-3.981Zm-.667,9.913c-1.793,1.039-1.47,3.222.618,3.553,5.712.9,13.555-.644,19.5.038,2.072.059,2.458-3.325.644-3.654Zm26.771-.009a1.948,1.948,0,0,0,.92,3.6c8.461-.76,18.54.957,26.8-.011,2.833-.332,2.651-3.349.341-3.659Zm-26.771,9.6a1.865,1.865,0,0,0,.581,3.59H94.212a1.838,1.838,0,0,0,0-3.669Z" transform="translate(-8.93 -50.928)" fill="#ffe19a"/>
          <path id="Trazado_1274614" data-name="Trazado 1274614" d="M106.357,12.047C116.608,27.1,126.221,42.631,135.84,58.112a10.494,10.494,0,0,1-2.7,11.463c-17.532,1.437-36.98-1.072-54.714,0a7.744,7.744,0,0,1-6.3-11.251C81.088,44.948,88.956,30.748,98.085,17.5c2.35-3.411,3.534-5.686,8.273-5.449m-2.071,7.684c-3.764.645-6.28,4.317-6.218,8.026.075,4.459,2.345,17.363,4.984,20.824,1.838,2.411,3.78,2.411,5.618,0,2.6-3.413,5.119-17.148,4.982-21.491a7.853,7.853,0,0,0-9.366-7.358m0,34.713c-4.992.925-5.807,8.764-.75,10.846,9.384,3.863,11.569-12.85.75-10.846" transform="translate(-47.707 -8.052)" fill="#8d1939"/>
          <path id="Trazado_1274615" data-name="Trazado 1274615" d="M313.394,148.819a13.294,13.294,0,0,0,4.644-9.408c1.23-17.664-.947-36.75-.02-54.562-.331-3.7-2.164-6.181-4.623-8.767a9.426,9.426,0,0,1,8.28,8.747l-.042,56.192c-1.032,4.465-3.753,7.046-8.238,7.8" transform="translate(-209.779 -50.928)" fill="#eabb5d"/>
          <path id="Trazado_1274616" data-name="Trazado 1274616" d="M204.174,69.61a10.494,10.494,0,0,0,2.7-11.463c-9.618-15.481-19.232-31.01-29.482-46.065a7.4,7.4,0,0,1,5.757,3l27.693,43.722a7.727,7.727,0,0,1-6.669,10.8" transform="translate(-118.744 -8.087)" fill="#6a1029"/>
          <path id="Trazado_1274617" data-name="Trazado 1274617" d="M185.28,303.006l-11.057,10.928c-1.393.8-1.85.335-2.829-.348l10.727-10.267c.908-.6,2.11-.229,3.159-.313" transform="translate(-114.727 -202.8)" fill="#fcbf08"/>
          <path id="Trazado_1274618" data-name="Trazado 1274618" d="M90.292,209.136l53.5-.077c3.04.357,3.407,3.622.329,3.981H90.547c-2.8-.328-2.809-3.095-.255-3.9" transform="translate(-59.179 -139.939)" fill="#060501"/>
          <path id="Trazado_1274619" data-name="Trazado 1274619" d="M89.75,268.113l54.836-.08a1.838,1.838,0,0,1,0,3.669H90.331a1.865,1.865,0,0,1-.581-3.59" transform="translate(-59.304 -179.415)" fill="#060501"/>
          <path id="Trazado_1274620" data-name="Trazado 1274620" d="M171.22,239.1l28.065-.071c2.31.31,2.493,3.327-.341,3.659-8.263.968-18.342-.75-26.8.011a1.948,1.948,0,0,1-.92-3.6" transform="translate(-114.003 -160.003)" fill="#060501"/>
          <path id="Trazado_1274621" data-name="Trazado 1274621" d="M89.722,239.145l20.766-.064c1.813.329,1.427,3.714-.644,3.654-5.948-.682-13.792.866-19.5-.038-2.089-.33-2.412-2.513-.618-3.553" transform="translate(-59.276 -160.035)" fill="#060501"/>
          <path id="Trazado_1274622" data-name="Trazado 1274622" d="M158.54,35.073a7.853,7.853,0,0,1,9.366,7.358c.137,4.343-2.38,18.078-4.982,21.491-1.838,2.411-3.78,2.411-5.618,0-2.639-3.461-4.909-16.365-4.984-20.823-.062-3.709,2.454-7.38,6.218-8.026m.321,3.959c-2.512.579-2.651,3.3-2.543,5.382.087,1.686,2.607,16.683,3.8,16.692a49.6,49.6,0,0,0,3.424-13.762c.451-3.713,1.238-9.675-4.678-8.313" transform="translate(-101.96 -23.395)" fill="#060501"/>
          <path id="Trazado_1274623" data-name="Trazado 1274623" d="M162.689,139.975c10.82-2,8.634,14.709-.75,10.846-5.057-2.082-4.243-9.921.75-10.846m.991,3.61c-2.01.537-1.514,4.226.841,3.865,2.685-.412,1.685-4.54-.841-3.865" transform="translate(-106.111 -93.584)" fill="#060501"/>
          <path id="Trazado_1274624" data-name="Trazado 1274624" d="M166.9,46.894c5.916-1.363,5.129,4.6,4.678,8.313a49.6,49.6,0,0,1-3.424,13.762c-1.191-.009-3.711-15.006-3.8-16.692-.107-2.082.031-4.8,2.543-5.382" transform="translate(-110.001 -31.257)" fill="#eabb5d"/>
          <path id="Trazado_1274625" data-name="Trazado 1274625" d="M171.582,151.081c2.527-.675,3.526,3.453.841,3.865-2.355.361-2.852-3.328-.841-3.865" transform="translate(-114.014 -101.081)" fill="#eabb5d"/>
        </g>
      </g>
    </g>
  </g>
</svg>
