<svg xmlns="http://www.w3.org/2000/svg" xmlns:xlink="http://www.w3.org/1999/xlink" width="162.25" height="162.25" viewBox="0 0 162.25 162.25">
  <defs>
    <clipPath id="clip-path">
      <rect id="Rectángulo_460505" data-name="Rectángulo 460505" width="60.87" height="83.334" fill="#6a2874"/>
    </clipPath>
  </defs>
  <g id="Grupo_1210804" data-name="Grupo 1210804" transform="translate(-1185.533 -1022)">
    <g id="Grupo_1210800" data-name="Grupo 1210800" transform="translate(880.564 -8990.459)">
      <g id="Grupo_1177470" data-name="Grupo 1177470" transform="translate(305.146 10012.421)">
        <circle id="Elipse_13609" data-name="Elipse 13609" cx="81.125" cy="81.125" r="81.125" transform="translate(-0.178 0.038)" fill="#f6e1fe"/>
        <g id="Grupo_1207827" data-name="Grupo 1207827" transform="translate(35.635 21.96)">
          <g id="Grupo_1099618" data-name="Grupo 1099618" transform="translate(0.188 14.078)">
            <rect id="Rectángulo_401104" data-name="Rectángulo 401104" width="90" height="90" transform="translate(0)" fill="none"/>
          </g>
          <g id="Grupo_1210918" data-name="Grupo 1210918" transform="translate(14.621 17.411)">
            <g id="Grupo_1210917" data-name="Grupo 1210917" clip-path="url(#clip-path)">
              <path id="Trazado_1272335" data-name="Trazado 1272335" d="M12.3,137.242c1.763-.445,2.2,1.719,3.577,2.566,2.19,1.349,5.5.89,7.77-.05,2.3-.953,2.606-2.567,5.632-1.94,3.207.665,6.11,8.69,6.642,11.614.648,3.557.934,10.258-.943,13.353-.446.736-2.59,2.829-2.619,3.334L35.172,179.3c-.035,1.427-.851,1.715-2.105,1.831-8.779.807-18.78-.634-27.691-.008-1.42-.008-2.219-1.741-2.853-2.853-4.614-8.082-2.811-16.225,4.694-21.572-3.182-5.085-3.1-10.136.353-15.043.73-1.037,3.611-4.127,4.732-4.41m17.915,26.068c.86-.927,2.384-2.581,2.631-3.8.664-3.268-.03-10.011-1.223-13.2-.353-.943-3.759-7.854-4.419-4.426-.981,6.627,2.96,15.973-2.876,20.8-1.634,1.352-9.447,5.015-9.753,5.657a1.7,1.7,0,0,0,1.376,2.486,18.944,18.944,0,0,0,3.824-1,27.509,27.509,0,0,0,10.44-6.525M6.237,177.691H31.485l-2-9.414c-3.738,2.811-14.735,9.2-17.844,3.155-1.482-2.883-.247-5.55,2.43-7.019,3.159-1.732,9.613-3.467,10.008-7.68.409-4.357-.336-9.181-.3-13.562-3.771,1.509-8.433,1.142-11.266-1.992-3.24,3.005-5.447,6.69-3.788,11.2.539,1.464,2.991,3.951,2.676,5.061-.28.985-3.073,2.523-4.03,3.41-5.2,4.813-5.289,11.317-1.134,16.839" transform="translate(0 -98.046)" fill="#6a2874"/>
              <path id="Trazado_1272336" data-name="Trazado 1272336" d="M44.81,27.117a9.389,9.389,0,0,1,1.743,3.536c.421,1.7-.4.908.924,2.2,6.219,6.071,4.671,17.254-1.863,22.4-11.194,8.819-22.49-10.671-15.492-20.342.578-.8,2.419-2.223,2.657-2.763.3-.67.03-1.394.213-2.069A7.039,7.039,0,0,1,44.81,27.117m-1.9,3.324a3.317,3.317,0,0,0-4.95-1.666c-.518.306-2.238,1.759-.645,1.64a17.455,17.455,0,0,1,5.595.026m4.847,9.417c-.246-2.991-3.322-5.78-6.205-6.2-6.019-.88-10.287,2.716-10.337,8.768a19.71,19.71,0,0,0,9.388-3.3c.822-.624,2.24-2.551,3.034-2.688,2.212-.382,2.446,2.679,4.12,3.426M31.784,45.852a13.313,13.313,0,0,0,2.848,5.566c6.091,6.684,12.422-.519,13.384-7.1l-4.392-3.334c-3.415,2.806-7.528,4.128-11.84,4.864" transform="translate(-19.985 -17.839)" fill="#6a2874"/>
              <path id="Trazado_1272337" data-name="Trazado 1272337" d="M134.086.125c16.041-2.03,20.421,21.419,5.331,25.586-18.1,5-23.409-23.3-5.331-25.586m8.527,6.019c-9.233-9.075-23.009,5.325-13.458,14.171,9.288,8.6,22.455-5.328,13.458-14.171" transform="translate(-87.837 0)" fill="#6a2874"/>
              <path id="Trazado_1272338" data-name="Trazado 1272338" d="M165.271,26.486c1.772.14,4.484-.763,4.3,1.857-.166,2.423-6.745,1.877-7.3.711-.383-.8-.331-7.4.425-7.848.564-.432,2.572-.061,2.572.572Z" transform="translate(-115.814 -15.023)" fill="#6a2874"/>
            </g>
          </g>
        </g>
      </g>
      <ellipse id="Elipse_13678" data-name="Elipse 13678" cx="19.243" cy="19.243" rx="19.243" ry="19.243" transform="translate(305.965 10136.186)" fill="#da9dfe"/>
      <g id="Grupo_1207826" data-name="Grupo 1207826" transform="translate(305.146 10138.641)">
        <path id="Trazado_998481" data-name="Trazado 998481" d="M0,13.854q4.835.419,9.664.868l-.27.112,1.389-2.491a.373.373,0,0,1,.426-.131.271.271,0,0,1,.2.185l0,.01,1.186,5.359L11.7,17.7l1.915-4.337,1.934-4.332,1.94-4.33L19.452.377A.822.822,0,0,1,20.394.03.578.578,0,0,1,20.9.6V.609l-.77,7.01-.812,7.007-.823,7.006-.854,7L16.044,28.4c1.235-2.953,2.506-5.9,3.765-8.845l1.893-4.42,1.917-4.414,0-.011a.7.7,0,0,1,.8-.305.505.505,0,0,1,.439.47l-.29,5.628-.314,5.627-.826-.118,2.776-5.324,0-.009a.291.291,0,0,1,.3-.125l5.25.671,5.247.689-5.291-.467-5.287-.485.3-.133-2.494,5.4a.472.472,0,0,1-.54.2.338.338,0,0,1-.286-.3v-.012l.079-5.631.1-5.631L24.836,11,23.051,15.45l-1.809,4.44c-1.209,2.959-2.407,5.921-3.64,8.874a.892.892,0,0,1-1.022.4c-.373-.087-.6-.356-.57-.635v0l.812-7.007.842-7,.854-7,.9-7,1.444.232-2.048,4.3-2.069,4.3-2.074,4.3-2.093,4.29-.005.011a.513.513,0,0,1-.588.2.382.382,0,0,1-.3-.278l-.924-5.388.624.063L9.86,14.986l0,.007a.273.273,0,0,1-.265.1q-4.8-.609-9.59-1.244" transform="translate(0 4.51) rotate(-7)" fill="#fff"/>
      </g>
    </g>
    <path id="Trazado_1272082" data-name="Trazado 1272082" d="M79.8,53.239V66.476a.9.9,0,0,1-.9.895H68.265a.9.9,0,0,0-.9.9V78.909a.9.9,0,0,1-.9.9H53.239a.9.9,0,0,1-.9-.9V68.266a.9.9,0,0,0-.895-.9H40.767a.9.9,0,0,1-.9-.895V53.239a.9.9,0,0,1,.9-.9H51.449a.9.9,0,0,0,.895-.895V40.768a.9.9,0,0,1,.9-.9H66.475a.9.9,0,0,1,.9.9V51.449a.9.9,0,0,0,.9.895H78.908a.9.9,0,0,1,.9.9" transform="translate(1263.756 986.793)" fill="#8d1939"/>
  </g>
</svg>
