<svg xmlns="http://www.w3.org/2000/svg" xmlns:xlink="http://www.w3.org/1999/xlink" width="162.25" height="162.25" viewBox="0 0 162.25 162.25">
  <defs>
    <clipPath id="clip-path">
      <rect id="Rectángulo_460503" data-name="Rectángulo 460503" width="85.178" height="79.618" fill="#6a2874"/>
    </clipPath>
  </defs>
  <g id="Grupo_1210802" data-name="Grupo 1210802" transform="translate(-561.711 -1022)">
    <g id="Grupo_1210798" data-name="Grupo 1210798" transform="translate(256.564 -8990.459)">
      <g id="Grupo_1177470" data-name="Grupo 1177470" transform="translate(305.146 10012.421)">
        <circle id="Elipse_13609" data-name="Elipse 13609" cx="81.125" cy="81.125" r="81.125" transform="translate(0 0.038)" fill="#f6e1fe"/>
        <g id="Grupo_1207827" data-name="Grupo 1207827" transform="translate(35.635 35.96)">
          <g id="Grupo_1099618" data-name="Grupo 1099618" transform="translate(0.365 0.078)">
            <rect id="Rectángulo_401104" data-name="Rectángulo 401104" width="90" height="90" transform="translate(0)" fill="none"/>
          </g>
          <g id="Grupo_1210914" data-name="Grupo 1210914" transform="translate(2.365 5.078)">
            <g id="Grupo_1210913" data-name="Grupo 1210913" clip-path="url(#clip-path)">
              <path id="Trazado_1272329" data-name="Trazado 1272329" d="M41.993,11.749a5.537,5.537,0,0,1,8.319,4.4c.375,4.207-.325,8.938.019,13.2,2.557.667,4.558,2.74,6.521,4.431,9.356,8.056,18.111,16.853,27.579,24.792,1.06,1.095.874,1.533.174,2.718-3.4,5.761-8.435,11.237-11.922,17.03a1.493,1.493,0,0,1-.969.559c-.769.119-6.413-3.235-7.824-3.794-2.22-.88-4.512-1.142-6.707-2.106a17.571,17.571,0,0,1-9.4-10.114c-.252-.189-1.429,1.785-1.5,2.151-.659,3.553.445,9.037-.006,12.836A2.344,2.344,0,0,1,45.262,79.6l-30.978.016a1.324,1.324,0,0,1-1.008-1.259c-.661-4.915,1.327-12.971-1.185-17.2-1.58-2.657-4.5-5.367-6.309-8.043C1.38,46.627,2.2,36.623,0,29.172c.2-6.082,7.752-5.322,10.217-1.133,1.65,2.805,1.179,6.357,2.189,9.39.557-.6,1.995-.849,2.143-1.634l0-25.181a5.6,5.6,0,0,1,8.308-4.405C22.3-.3,31.155-2.564,33.436,3.692a5.622,5.622,0,0,1,7.18.747,12.545,12.545,0,0,1,1.377,2.4ZM31.166,27.611V5.328A3.354,3.354,0,0,0,28.49,2.693c-1.03-.066-2.863,1.058-2.863,2.132v23.29c1.9-.281,3.6-1.129,5.539-.5m8.028,4,.015-24a2.688,2.688,0,0,0-5.259,0L33.926,28.45a13.95,13.95,0,0,1,2.9,1.933c.376.346.727,1.224,1.14,1.392a2.647,2.647,0,0,0,1.224-.164M19.579,35.917a8.26,8.26,0,0,1,1.773-4.4c.561-.751,1.379-.971,1.518-2.007.756-5.66-.579-13.035-.029-18.881a2.77,2.77,0,0,0-5.4-.4L17.3,35.523Zm27.953.507V15.651a5.07,5.07,0,0,0-1.271-1.5c-2.2-1.382-4.077.472-4.279,2.748-.42,4.74.349,10.069-.008,14.876-.049.539.625.432,1.013.753a7.228,7.228,0,0,1,2.335,3.335ZM16.059,64.247c.421,3.985-.313,8.656,0,12.715H43.5V63.995c0-.377,2.618-3.523,2.454-4.491l-4.088-4.38A7.817,7.817,0,0,1,34.6,55.6,10.346,10.346,0,0,1,16.769,50.82c-3.055-.091-6.529-2.946-6.989-5.977-.23-1.516.263-2.936.245-4.252a72.147,72.147,0,0,0-1.757-10.35c-.778-2.115-4.612-4.4-5.48-1.3L6.163,47.956c1.893,5.841,9.239,10.086,9.9,16.291m32.981-18a5.7,5.7,0,0,0-3.025-7.42c-.823-.3-2.54-.315-3.012-.765-.756-.722-.149-2.774-1.83-3.457-1.87-.759-3.035.711-3.973.459-.671-.181-2.185-2.681-3.332-3.478a7.5,7.5,0,0,0-11.457,3.766c-.406,1.272.019,3.477-1.071,3.968-1.053.475-2.564-.832-3.909-.886a4.858,4.858,0,0,0-3.649,8.2c1.879,1.973,3.774.877,4.936,1.61.732.462.728,2.239,1.07,3.21A7.552,7.552,0,0,0,30.381,55.4c1.16-.592,3.075-3.006,3.718-3.066.465-.043,2.2,1.1,3.269,1.185a16.508,16.508,0,0,0,2.356-.232c.114-.436-.181-.5-.375-.756-1.684-2.193-6.159-5.064-6.614-7.738-.47-2.762.591-5.385,3.293-6.407,5.4-2.045,8.651,4.686,12.256,7.476.252.2.321.487.755.375M50.3,32.4v6.421a8.254,8.254,0,0,1,.713.8c1.766,3.469,3.759,4.339,5.691,7.15a4.106,4.106,0,0,1-6.026,5.523L39.292,41.015c-3.035-1.257-5.172,2.28-2.982,4.624,3.295,3.4,7.394,6.714,10.459,10.306,3.93,4.606,3.842,9.607,9.346,13.315,2.738,1.845,5.34,1.962,8.282,3.049,2.31.853,4.474,2.287,6.683,3.363l10.9-15.456L51.2,32.63Zm1.512,13.6-.967,2.393a16.642,16.642,0,0,0,1.976,2.009,1.345,1.345,0,0,0,1.82-1.82c-.186-.424-2.536-2.847-2.83-2.583" transform="translate(0 0)" fill="#6a2874"/>
              <path id="Trazado_1272330" data-name="Trazado 1272330" d="M235.34,65.845c-5.805,6.737-16.644-2.662-10.06-9.439,6.084-6.262,16.015,2.528,10.06,9.439m-6-8.649c-4.345.73-4.086,7.341-.044,7.979,6.77,1.069,6.589-9.079.044-7.979" transform="translate(-167.02 -40.601)" fill="#6a2874"/>
              <path id="Trazado_1272331" data-name="Trazado 1272331" d="M272.467,119.725c5.529-.792,8.513,6.817,3.924,9.97-7.733,5.313-12.874-8.689-3.924-9.97m-1.36,7.407c2.434,2.559,6.244-.958,4.2-3.568-2.456-3.133-6.588,1.056-4.2,3.568" transform="translate(-200.323 -89.536)" fill="#6a2874"/>
            </g>
          </g>
        </g>
      </g>
      <ellipse id="Elipse_13678" data-name="Elipse 13678" cx="19.243" cy="19.243" rx="19.243" ry="19.243" transform="translate(305.965 10136.186)" fill="#da9dfe"/>
      <g id="Grupo_1207826" data-name="Grupo 1207826" transform="translate(305.146 10138.641)">
        <path id="Trazado_998481" data-name="Trazado 998481" d="M0,13.854q4.835.419,9.664.868l-.27.112,1.389-2.491a.373.373,0,0,1,.426-.131.271.271,0,0,1,.2.185l0,.01,1.186,5.359L11.7,17.7l1.915-4.337,1.934-4.332,1.94-4.33L19.452.377A.822.822,0,0,1,20.394.03.578.578,0,0,1,20.9.6V.609l-.77,7.01-.812,7.007-.823,7.006-.854,7L16.044,28.4c1.235-2.953,2.506-5.9,3.765-8.845l1.893-4.42,1.917-4.414,0-.011a.7.7,0,0,1,.8-.305.505.505,0,0,1,.439.47l-.29,5.628-.314,5.627-.826-.118,2.776-5.324,0-.009a.291.291,0,0,1,.3-.125l5.25.671,5.247.689-5.291-.467-5.287-.485.3-.133-2.494,5.4a.472.472,0,0,1-.54.2.338.338,0,0,1-.286-.3v-.012l.079-5.631.1-5.631L24.836,11,23.051,15.45l-1.809,4.44c-1.209,2.959-2.407,5.921-3.64,8.874a.892.892,0,0,1-1.022.4c-.373-.087-.6-.356-.57-.635v0l.812-7.007.842-7,.854-7,.9-7,1.444.232-2.048,4.3-2.069,4.3-2.074,4.3-2.093,4.29-.005.011a.513.513,0,0,1-.588.2.382.382,0,0,1-.3-.278l-.924-5.388.624.063L9.86,14.986l0,.007a.273.273,0,0,1-.265.1q-4.8-.609-9.59-1.244" transform="translate(0 4.51) rotate(-7)" fill="#fff"/>
      </g>
    </g>
    <path id="Trazado_1272080" data-name="Trazado 1272080" d="M79.8,53.239V66.476a.9.9,0,0,1-.9.895H68.265a.9.9,0,0,0-.9.9V78.909a.9.9,0,0,1-.9.9H53.239a.9.9,0,0,1-.9-.9V68.266a.9.9,0,0,0-.895-.9H40.767a.9.9,0,0,1-.9-.895V53.239a.9.9,0,0,1,.9-.9H51.449a.9.9,0,0,0,.895-.895V40.768a.9.9,0,0,1,.9-.9H66.475a.9.9,0,0,1,.9.9V51.449a.9.9,0,0,0,.9.895H78.908a.9.9,0,0,1,.9.9" transform="translate(639.754 986.793)" fill="#8d1939"/>
  </g>
</svg>
