<svg xmlns="http://www.w3.org/2000/svg" xmlns:xlink="http://www.w3.org/1999/xlink" width="85" height="85" viewBox="0 0 85 85">
  <defs>
    <clipPath id="clip-path">
      <rect id="Rectángulo_460521" data-name="Rectángulo 460521" width="66.318" height="50.309" fill="#8d1939"/>
    </clipPath>
  </defs>
  <g id="Grupo_1210806" data-name="Grupo 1210806" transform="translate(1.289)">
    <path id="Sustracción_110" data-name="Sustracción 110" d="M0,0H85V85H0Z" transform="translate(-1.289)" fill="#ffe19a"/>
    <g id="Grupo_1210942" data-name="Grupo 1210942" transform="translate(7.711 17)">
      <g id="Grupo_1210941" data-name="Grupo 1210941" clip-path="url(#clip-path)">
        <path id="Trazado_1272866" data-name="Trazado 1272866" d="M57.93,53.593,65.786,55.8c.985.577.485,1.734-.542,1.856a192.818,192.818,0,0,0-19.565-4.365l-16.508,2.3c-5.229-1.206-10.248-3.277-15.325-5.011-3.432-2.622-1.679-7.15,2.758-6.745,3.321.3,6.892,1.634,10.274,1.889A36.142,36.142,0,0,0,31.669,43.1c.185-.119.339.021.244-.423-1.385-.58-3.191-1.243-4.178-2.376-.273-.313-.345-.75-.659-1.05-.516-.491-1.653-.765-2.1-1.513-.382,1.095-2.045,5.451-3.7,4.463-1.113-.663.382-1.908.728-2.5,4.1-7.053-3.648-11.737-9.773-12.568-1.126-.152-5.006-.1-5.491-.4-1.049-.628.273-2.285.539-3.282.225-.842.648-2.839-.749-2.958C4.594,20.33,2,27.094,1.921,28.745,1.856,30.155,4.616,31.6,5.77,32.261A34.779,34.779,0,0,0,9.7,34.216c1.306.534,2.714.813,3.889,1.427.656,3.485-4.476-.109-5.478.051-.833.133-2.63,2.251-3.009,3.051-1.72,3.629-.021,7.451,3.385,9.218.6.313,1.648.317,1.777,1.08.357,2.111-2.406.829-3.355.308A8.834,8.834,0,0,1,4.382,36.316a19.228,19.228,0,0,0,1.7-1.806c-1.851-.731-5.8-2.944-6.059-5.051C-.295,26.83,2.362,20.748,4.58,19.233c2.685-1.834,5.2.454,4.9,3.386a21.05,21.05,0,0,0-.549,2.393A21.2,21.2,0,0,1,20.011,27.7c.824.512,1.567,1.349,2.31,1.868.161.113.189.263.476.187.521-2.244,2.272-4.464,3.794-6.176a36.771,36.771,0,0,1,4.955-4.73,2.757,2.757,0,0,1,3.789.554c1.309,1.3.367,2.763.4,4.391.052,2.99,3.055,3.635,2.07,6.525,2.177.706,4.313,2.075,4.576,4.545C48.359,35.1,54.318,31,53.938,24.54,53.511,17.3,46.9,14.054,40.466,16.759c-1.17.492-2.973,2.258-3.428.2.053-1.037,2.782-2.092,3.7-2.394a14.811,14.811,0,0,1,5.414-.758c-.559-1.137-.636-3.576.387-4.454a.982.982,0,0,1,1.673.605c.079.523-.507,1.023-.552,1.669-.149,2.126,2.9,3.489,4.279,4.656,5.764,4.886,4.955,13.845-.976,18.192l-1.96,1.169c1.353.115,3.2,2.262,4.28,2.462,3.323.618,8.828-.674,12.062.091a1.011,1.011,0,0,1,.083,2.006h-7.5ZM40.459,35.076c-.326-1.658-2.063-2.505-3.509-3.041-.982-.364-5.074-1.012-5.323-1.512-.452-.908,1.009-5.065,1.424-6.177.3-.812.83-1.257.931-2.3.119-1.22-.324-2.313-1.593-1.4-1.939,1.393-6.845,6.733-7.591,8.929-.831,2.449-.036,6,2.3,7.378l1.41-1.578c2.118-1.491,4.492.133,6.721.278,1.682.109,3.541-.5,5.23-.577m-6.837-5.887c.782,0,3.213,1.26,2.285-.479a23.294,23.294,0,0,0-1.432-1.987c-.347-.174-.284.27-.333.419-.215.664-.337,1.374-.52,2.047M56.031,40.2H53.087c-.567,0-3.481-2.208-4.395-2.631-4.913-2.276-8.595.231-13.266.162-1.492-.022-5.985-2.278-6.353.109a1.492,1.492,0,0,0,.607,1.651,43.556,43.556,0,0,0,7.213,3.421c2.478.7,5.294.733,7.786,1.329,1.973.472,1.483,2.057.066,2.045-3.541-.8-7.259-.851-10.633-2.285L27.4,47.767,15.68,45.7c-1.974.216-2.262,2.469-.521,3.379,4.568.943,10.773,4.7,15.327,4.418,4.7-.3,9.943-1.89,14.616-2.094,3.2-.139,7.256,1.456,10.495,1.874l.433-.253Z" transform="translate(0 -7.348)" fill="#8d1939"/>
        <path id="Trazado_1272867" data-name="Trazado 1272867" d="M135.844,17.229c.414-.038,2.649,2.072,2.816,2.432.383.823-.4,1.811-1.228,1.422a32.745,32.745,0,0,1-2.375-2.378,1.022,1.022,0,0,1,0-.947,1.49,1.49,0,0,1,.791-.529" transform="translate(-109.313 -13.957)" fill="#8d1939"/>
        <path id="Trazado_1272868" data-name="Trazado 1272868" d="M213.885,64.9c-.2-.2-.265-.795-.531-1.082-.426-.459-1.463-.473-1.149-1.53.487-1.639,3.444.2,3.361,2a1.016,1.016,0,0,1-1.681.613" transform="translate(-171.86 -49.948)" fill="#8d1939"/>
        <path id="Trazado_1272869" data-name="Trazado 1272869" d="M118.261,49.022c.67-.671,4.979-.2,3.295,1.682-.5.389-3.271.258-3.5-.533a1.5,1.5,0,0,1,.206-1.15" transform="translate(-95.607 -39.478)" fill="#8d1939"/>
        <path id="Trazado_1272870" data-name="Trazado 1272870" d="M167.441.03c1.455-.366,1.391,2.651,1.155,3.448-.261.884-1.68.6-1.856-.347-.133-.712-.2-2.874.7-3.1" transform="translate(-135.012 0.001)" fill="#8d1939"/>
      </g>
    </g>
  </g>
</svg>
