<svg xmlns="http://www.w3.org/2000/svg" xmlns:xlink="http://www.w3.org/1999/xlink" width="162.25" height="162.25" viewBox="0 0 162.25 162.25">
  <defs>
    <clipPath id="clip-path">
      <rect id="Rectángulo_460504" data-name="Rectángulo 460504" width="84" height="63.031" fill="#6a2874"/>
    </clipPath>
  </defs>
  <g id="Grupo_1210803" data-name="Grupo 1210803" transform="translate(-873.711 -1022)">
    <g id="Grupo_1210799" data-name="Grupo 1210799" transform="translate(568.564 -8990.459)">
      <g id="Grupo_1177470" data-name="Grupo 1177470" transform="translate(305.146 10012.421)">
        <circle id="Elipse_13609" data-name="Elipse 13609" cx="81.125" cy="81.125" r="81.125" transform="translate(0 0.038)" fill="#f6e1fe"/>
        <g id="Grupo_1207827" data-name="Grupo 1207827" transform="translate(35.635 35.96)">
          <g id="Grupo_1099618" data-name="Grupo 1099618" transform="translate(0.365 0.078)">
            <rect id="Rectángulo_401104" data-name="Rectángulo 401104" width="90" height="90" transform="translate(0)" fill="none"/>
          </g>
          <g id="Grupo_1210916" data-name="Grupo 1210916" transform="translate(3.365 13.079)">
            <g id="Grupo_1210915" data-name="Grupo 1210915" clip-path="url(#clip-path)">
              <path id="Trazado_1272332" data-name="Trazado 1272332" d="M78.229,47.575l.155.477a7.7,7.7,0,0,1-.335,14.912L17.74,63.03C3.894,60.509-1.921,50.16.556,36.655,1.883,29.417,3.6,21.119,5.432,14.008,7.407,6.332,11.723,1.589,19.705.034L65.077,0c7.5,1.11,12.652,5.983,14.527,13.237,1.526,5.905,3.228,14.016,4.11,20.033.837,5.711-.526,11.059-5.486,14.3m.962-21.733c-.8-3.795-1.3-7.9-2.236-11.643C75.306,7.644,70.522,3.163,63.629,2.655c-13.564-1-28.336.775-42.027,0-6.785.693-11.341,4.42-13.18,10.964-1.355,4.822-2.1,10.191-3.105,15.12a20.7,20.7,0,0,1,12.9-6.287l53.362.014a13.974,13.974,0,0,1,7.607,3.376M19.51,25.188C-3.3,26.864-2.516,58.746,19.67,60.376H76.183c6.434-.551,6.691-8.579.653-9.844l-57.613-.089a7.746,7.746,0,0,1,.246-15.4L69.9,35.012c2.209.221,1.809,2.757-.24,2.907l-50.443.016c-5.193,1.414-5.4,8.366-.027,9.642L72.2,47.462c13.057-3.317,11.551-21.409-2.3-22.354-16.478.841-34.047-1.12-50.4.081" transform="translate(0)" fill="#6a2874"/>
              <path id="Trazado_1272333" data-name="Trazado 1272333" d="M69.53,22.726c.516.518.5,2.286-.553,2.35-6.1.566-15.875-2.133-19.28,4.622-.536,1.064-.785,3.556-2.387,3.313-1.568-.238-1.077-2.057-.768-3.088a11.727,11.727,0,0,1,7.588-7.139c2.719-.7,11.11-.622,14.139-.367.374.032.994.042,1.26.309" transform="translate(-35.06 -16.866)" fill="#6a2874"/>
              <path id="Trazado_1272334" data-name="Trazado 1272334" d="M156.919,22.956c2.434-.694,2.582,3.331,0,2.564a1.365,1.365,0,0,1,0-2.564" transform="translate(-118.353 -17.353)" fill="#6a2874"/>
            </g>
          </g>
        </g>
      </g>
      <ellipse id="Elipse_13678" data-name="Elipse 13678" cx="19.243" cy="19.243" rx="19.243" ry="19.243" transform="translate(305.965 10136.186)" fill="#da9dfe"/>
      <g id="Grupo_1207826" data-name="Grupo 1207826" transform="translate(305.146 10138.641)">
        <path id="Trazado_998481" data-name="Trazado 998481" d="M0,13.854q4.835.419,9.664.868l-.27.112,1.389-2.491a.373.373,0,0,1,.426-.131.271.271,0,0,1,.2.185l0,.01,1.186,5.359L11.7,17.7l1.915-4.337,1.934-4.332,1.94-4.33L19.452.377A.822.822,0,0,1,20.394.03.578.578,0,0,1,20.9.6V.609l-.77,7.01-.812,7.007-.823,7.006-.854,7L16.044,28.4c1.235-2.953,2.506-5.9,3.765-8.845l1.893-4.42,1.917-4.414,0-.011a.7.7,0,0,1,.8-.305.505.505,0,0,1,.439.47l-.29,5.628-.314,5.627-.826-.118,2.776-5.324,0-.009a.291.291,0,0,1,.3-.125l5.25.671,5.247.689-5.291-.467-5.287-.485.3-.133-2.494,5.4a.472.472,0,0,1-.54.2.338.338,0,0,1-.286-.3v-.012l.079-5.631.1-5.631L24.836,11,23.051,15.45l-1.809,4.44c-1.209,2.959-2.407,5.921-3.64,8.874a.892.892,0,0,1-1.022.4c-.373-.087-.6-.356-.57-.635v0l.812-7.007.842-7,.854-7,.9-7,1.444.232-2.048,4.3-2.069,4.3-2.074,4.3-2.093,4.29-.005.011a.513.513,0,0,1-.588.2.382.382,0,0,1-.3-.278l-.924-5.388.624.063L9.86,14.986l0,.007a.273.273,0,0,1-.265.1q-4.8-.609-9.59-1.244" transform="translate(0 4.51) rotate(-7)" fill="#fff"/>
      </g>
    </g>
    <path id="Trazado_1272081" data-name="Trazado 1272081" d="M79.8,53.239V66.476a.9.9,0,0,1-.9.895H68.265a.9.9,0,0,0-.9.9V78.909a.9.9,0,0,1-.9.9H53.239a.9.9,0,0,1-.9-.9V68.266a.9.9,0,0,0-.895-.9H40.767a.9.9,0,0,1-.9-.895V53.239a.9.9,0,0,1,.9-.9H51.449a.9.9,0,0,0,.895-.895V40.768a.9.9,0,0,1,.9-.9H66.475a.9.9,0,0,1,.9.9V51.449a.9.9,0,0,0,.9.895H78.908a.9.9,0,0,1,.9.9" transform="translate(951.754 986.793)" fill="#8d1939"/>
  </g>
</svg>
