<svg id="Grupo_1210821" data-name="Grupo 1210821" xmlns="http://www.w3.org/2000/svg" xmlns:xlink="http://www.w3.org/1999/xlink" width="85" height="85" viewBox="0 0 85 85">
  <defs>
    <clipPath id="clip-path">
      <rect id="Rectángulo_460529" data-name="Rectángulo 460529" width="68" height="68" fill="#8d1939"/>
    </clipPath>
  </defs>
  <path id="Sustracción_110" data-name="Sustracción 110" d="M0,0H85V85H0Z" fill="#ffe19a"/>
  <g id="Grupo_1210952" data-name="Grupo 1210952" transform="translate(8.999 9)">
    <g id="Grupo_1210951" data-name="Grupo 1210951" clip-path="url(#clip-path)">
      <path id="Trazado_1272988" data-name="Trazado 1272988" d="M31.5.085c27.754-1.913,46.2,28.756,31.052,52.337a34.007,34.007,0,0,1-57.161,0C-8.515,30.778,6,1.843,31.5.085m-.777,2.339C8.906,4.257-4.129,28.585,5.565,48.159,16.48,70.2,47.636,71.83,60.728,50.981c14.2-22.608-3.627-50.773-30-48.557" transform="translate(0.001 0.001)" fill="#8d1939"/>
      <path id="Trazado_1272989" data-name="Trazado 1272989" d="M51.528,23.246a29.615,29.615,0,0,1,28.787,18.4C90.808,67.6,62.307,92.3,38.086,78.094,13.12,63.449,22.434,24.92,51.528,23.246M76.079,38.58c.224-.223-1.685-2.684-1.95-3.014-4.42-5.51-12.04-9.674-19.158-10.037A3.909,3.909,0,0,0,51.566,26.6a8.541,8.541,0,0,0-2.3,10.106c1.117,2.209,3.422,2.74,4.4,5.332,1.554,4.107-.609,6.953-3.652,9.4.575-.028,1.025-.509,1.558-.678a11.592,11.592,0,0,1,4.861-.1,13.1,13.1,0,0,1,16.688-13.3c1.053.309,1.931.889,2.96,1.223M49.039,25.918c-10.78,1.3-19.812,9.78-22.371,20.26,3.292-.939,5.978.739,6.511,4.1l.392.192,13.416-.011c2.784-1.362,5.748-3.773,4.723-7.246-.573-1.942-2.9-3-4.039-4.723-2.471-3.731-1.636-9.358,1.366-12.57M70.9,63.6c2.8-2.284,6.907-3.088,8.351-7.134,1.642-4.6,1.106-11.172-2.676-14.575-7.6-6.841-19.02-.208-17.813,9.616,1.015.787,4.322,1.553,4.1,3.139-.3,2.12-3.737-.477-4.738-.9-1.759-.742-6.018-1.961-7.038.227-1.341,2.877,2.012,7.811,3.8,10.03,1.125,1.4,4.436,4.182,5.026,5.291a1.2,1.2,0,0,1-1.192,1.8c-.941-.186-5.03-5-5.861-6.032a3.168,3.168,0,0,1-.706-1.147l-.385.125c-.64,1.973-2.592,3.528-4.3,4.63-1.012.654-5.881,3.665-5.83,1,.023-1.223,1.446-1.21,2.414-1.691,2.8-1.388,5.644-3.231,6.336-6.506-1.359-2.564-2.525-5.362-1.542-8.272-.657-.064-1.157-.34-1.84-.4-4.347-.377-9.279.385-13.633.015-3.737-.318-1.422-4.368-4.686-4.674-2.3-.215-2.987,2.759-2.8,4.571.671,6.418,9.323,3.928,13.533,5.334,1.072-.362,2.687-2.222,3.834-1.893a1.2,1.2,0,0,1,.326,2c-4.491,2.975-10.223,5.987-11.471,11.695,6.575,8.573,18.424,12.023,28.748,8.921,3-.9,3.972-1.857,5.768-4.354,1.641-2.281,3.842-6.911,1.917-9.485a5.861,5.861,0,0,0-1.832-1.282c-2.778-1.582-6-2.765-8.776-4.4-.884-1.217-.014-2.375,1.4-1.846,2.75,1.6,5.971,2.766,8.7,4.337.91.523,2.048,1.146,2.4,2.175l.382,0c0-.1,0-.254.072-.309M36.588,59.819c-3.4-.387-7.115.177-10.113-1.754a23.331,23.331,0,0,0,3.987,9.546,13.75,13.75,0,0,1,3.984-5.749c.238-.223,2.452-1.766,2.142-2.042M69.66,74.039c.134.137,1.65-1.192,1.843-1.367a26.6,26.6,0,0,0,7.3-11.685c-.685.586-1.344,1.184-2.077,1.717-.857.623-4.087,2.31-4.434,2.768-.6.787-.875,3.793-1.218,5.015a20.639,20.639,0,0,1-1.413,3.551" transform="translate(-19.052 -18.679)" fill="#8d1939"/>
      <path id="Trazado_1272990" data-name="Trazado 1272990" d="M266.2,166.216c1.435-.259,2.1,2.022,2,3.183a3.412,3.412,0,0,1-4.67,2.728c-2.191-.885-1.442-3.1.2-2.544.561.189,1.122.985,1.933.2.983-.946-1.607-3.184.536-3.571" transform="translate(-211.169 -133.815)" fill="#8d1939"/>
    </g>
  </g>
</svg>
