<svg id="Grupo_1209792" data-name="Grupo 1209792" xmlns="http://www.w3.org/2000/svg" xmlns:xlink="http://www.w3.org/1999/xlink" width="130" height="130" viewBox="0 0 130 130">
  <defs>
    <clipPath id="clip-path">
      <rect id="Rectángulo_455595" data-name="Rectángulo 455595" width="130" height="130" fill="none" stroke="#da9dfe" stroke-width="1"/>
    </clipPath>
    <clipPath id="clip-path-2">
      <rect id="Rectángulo_459850" data-name="Rectángulo 459850" width="71.384" height="84.631" fill="#fff"/>
    </clipPath>
  </defs>
  <g id="Grupo_1179172" data-name="Grupo 1179172" clip-path="url(#clip-path)">
    <path id="Trazado_998483" data-name="Trazado 998483" d="M120.312,66.345A53.968,53.968,0,1,1,66.345,12.377a53.968,53.968,0,0,1,53.968,53.968" transform="translate(-1.828 -1.563)" fill="#8d1939"/>
    <path id="Trazado_998485" data-name="Trazado 998485" d="M128.434,65.218A63.217,63.217,0,1,1,65.218,2,63.217,63.217,0,0,1,128.434,65.218Z" transform="translate(-0.217 -0.217)" fill="none" stroke="#ff9ebf" stroke-miterlimit="10" stroke-width="4"/>
    <g id="Grupo_1209791" data-name="Grupo 1209791" transform="translate(29.166 22.617)">
      <g id="Grupo_1209790" data-name="Grupo 1209790" clip-path="url(#clip-path-2)">
        <path id="Trazado_1271486" data-name="Trazado 1271486" d="M152.652,187.277A19.319,19.319,0,1,0,171.972,206.6a19.319,19.319,0,0,0-19.319-19.319m10.587,23.9h-6v6h-9.169v-6h-6v-9.168h6v-6h9.169v6h6Z" transform="translate(-100.588 -141.284)" fill="#fff"/>
        <path id="Trazado_1271487" data-name="Trazado 1271487" d="M51.627,59.606a22.255,22.255,0,0,1,4.475.452V26.97a4.693,4.693,0,0,0-4.693-4.693H39.949a4.707,4.707,0,0,1-4.707,4.707H20.861a4.707,4.707,0,0,1-4.707-4.707H4.693A4.693,4.693,0,0,0,0,26.97V84.383a4.693,4.693,0,0,0,4.693,4.693H30.707a22.169,22.169,0,0,1,20.92-29.47M8.3,37.445c1.052-.913,6.549-.829,8.112-.684,2.287.211,1.987.765,2.984,2.328.167.262-.026.473.592.341,1-1.96,2.153-8.747,5.574-6.5.957.629,3.164,7.663,3.994,9.3.127.251.167.631.539.654L34,32.058c4.1-3.455,4.685,3.793,6.189,6.186.671.453,7.4-.075,8.93.111a2.486,2.486,0,0,1,1.367.627c1.357,1.486.2,3.43-1.637,3.645a71.8,71.8,0,0,1-10.588-.062c-1.449-.325-1.476-1.582-1.988-2.53-.168-.31.01-.447-.59-.338L32.014,49.988c-.949,1.749-2.656,1.822-3.839.274l-4.061-9.768c-.858,1.253-1.971,5.817-3.306,6.263-3.29,1.1-3.542-3.475-5.066-5.337-2-.572-6.1.653-7.567-.942A2.081,2.081,0,0,1,8.3,37.445M22.812,78.707a1.855,1.855,0,0,1-1.855,1.855H6.658A1.855,1.855,0,0,1,4.8,78.707v-.873a1.855,1.855,0,0,1,1.856-1.855h14.3a1.855,1.855,0,0,1,1.855,1.855Zm0-9.169a1.855,1.855,0,0,1-1.855,1.856H6.658A1.856,1.856,0,0,1,4.8,69.538v-.873A1.856,1.856,0,0,1,6.658,66.81h14.3a1.855,1.855,0,0,1,1.855,1.856Zm4.8-7.968H6.658A1.856,1.856,0,0,1,4.8,59.715v-.873a1.856,1.856,0,0,1,1.856-1.856H27.615a1.856,1.856,0,0,1,1.856,1.856v.873a1.856,1.856,0,0,1-1.856,1.856" transform="translate(0 -16.806)" fill="#fff"/>
        <path id="Trazado_1271488" data-name="Trazado 1271488" d="M76.373,8.377H89.035a3.929,3.929,0,0,0,3.929-3.929V3.929A3.93,3.93,0,0,0,89.035,0H76.373a3.929,3.929,0,0,0-3.929,3.929v.518a3.929,3.929,0,0,0,3.929,3.929" transform="translate(-54.653)" fill="#fff"/>
      </g>
    </g>
  </g>
</svg>
