<svg xmlns="http://www.w3.org/2000/svg" xmlns:xlink="http://www.w3.org/1999/xlink" width="85" height="85" viewBox="0 0 85 85">
  <defs>
    <clipPath id="clip-path">
      <rect id="Rectángulo_460562" data-name="Rectángulo 460562" width="51.032" height="68" fill="#8d1939"/>
    </clipPath>
  </defs>
  <g id="Grupo_1212911" data-name="Grupo 1212911" transform="translate(-185.711 -2417)">
    <g id="Grupo_1210725" data-name="Grupo 1210725" transform="translate(185.289 2416.564)">
      <path id="Sustracción_110" data-name="Sustracción 110" d="M0,0H85V85H0Z" transform="translate(0.422 0.436)" fill="#ffe19a"/>
      <g id="Grupo_1211016" data-name="Grupo 1211016" transform="translate(17.422 8.436)">
        <g id="Grupo_1211015" data-name="Grupo 1211015" clip-path="url(#clip-path)">
          <path id="Trazado_1273104" data-name="Trazado 1273104" d="M44.875,32.357a3.025,3.025,0,0,1-1.859.939c-.191.208.686,1.893.8,2.319A10.357,10.357,0,0,1,38.93,47.376c3.365,1.587,6.3,4.121,7.536,7.731.782,2.287,1.386,8.385.4,10.52-.715,1.546-2.155,1.939-3.731,2.074-12.3-.734-25.685.951-37.854,0-2.094-.164-3.929-1.048-4.185-3.34-.474-4.233.171-9.616,2.921-12.99,1.535-1.882,3.481-2.815,5.464-4.1-3.8-1.932-5.582-6-5.157-10.213.133-1.321.835-2.472,1.068-3.757-1.729-.277-3.215-2.507-3.218-4.2,0-.563.424-1.359.316-1.857-.1-.465-1.257-2.136-1.556-2.926C-.857,19.6-.339,11.6,4.883,9.242c.964-.435,2.877-.522,3.307-.778.154-.092,1.546-2.526,1.938-3.007C14.859-.364,20.837-.705,27.8.678c5.472,1.087,13.768,4.84,19.087,2.836,1.955-.737,3.7-3.21,4.06.676C51.456,9.7,49.675,18.2,47.219,23.2c-.318.647-1.715,2.551-1.807,2.946-.077.33.686,1.541.777,2.148a4.992,4.992,0,0,1-1.314,4.064M48.6,5.345c-11.763,5.043-26.642-10.2-36.552,1.608-.594.708-2.187,3.593-2.451,3.784-.55.4-1.457.11-2.143.222-6.032.985-6.052,10.17-3.567,14.381a6.542,6.542,0,0,1,3.868-.859c-.708-4.223,2.2-6.183,5.806-7.2,7.435-2.1,12.994,3.214,19.883,2.9,2.2-.1,4.061-1.458,6.117.124,1.222.94,1.328,2.758,1.3,4.181l2.8.333C47.6,19.224,48.784,12.091,48.6,5.345M16.314,18.953c-1.575.16-5.537,1.323-6.048,2.982-.734,2.383.29,6.87-.189,9.486-.719,1.14-1.789,1.809-2.492,3.1a8.061,8.061,0,0,0,6.293,11.9c6.722.579,14.265-.447,21.075-.01,6.74-1.121,9.456-8.266,5.053-13.649-.424-.518-1.073-.589-1.243-1.337-.312-2.655.26-5.746-.041-8.344a1.765,1.765,0,0,0-.526-1.192c-.7-.5-4.038.463-5.176.463-5.627,0-11.29-3.945-16.706-3.395M7.758,30.607a26.424,26.424,0,0,0,0-3.655c0-.714-1.937-.075-2.356.224-1.967,1.4-.3,4.656,1.555,4.152a2.926,2.926,0,0,0,.8-.721m33.109-3.977v4.192c0,.955,2.159.464,2.766-.458,1.285-1.954-.666-4.022-2.766-3.734m3.819,38.433c.4-.4.342-5.392.263-6.288a10.661,10.661,0,0,0-4.316-7.724,22.053,22.053,0,0,0-4.846-2.422,33.664,33.664,0,0,0-3.958.244c-1.817,5.057-7.4,7.616-12.059,4.337-1.707-1.2-2.323-2.671-3.333-4.407-.194-.068-3.79-.168-4.113-.1a19.874,19.874,0,0,0-3.341,1.623,10.586,10.586,0,0,0-5.5,8.476,33.753,33.753,0,0,0-.021,5.559,1.326,1.326,0,0,0,1.19.96l38.911.021ZM29.472,48.774H19.153c2.152,4.77,8.112,4.716,10.32,0" transform="translate(0 0)" fill="#8d1939"/>
          <path id="Trazado_1273105" data-name="Trazado 1273105" d="M91.2,168.5c.135-.952,1.139-3.114,2.324-2.615,1.97.828-.307,2.386-.353,3.626-.044,1.166,2.24,3.156.482,3.7-1.851.577-1.949-1.618-2.535-2.327-.414-.5-6.19-.087-7.283-.185-.57.2-.887,3.254-3,2.515-1.468-.512.613-2.469.643-3.545.043-1.5-1.839-2.419-.884-3.5,1.595-1.811,2.669,2.121,3.25,2.321Z" transform="translate(-63.044 -130.072)" fill="#8d1939"/>
          <path id="Trazado_1273106" data-name="Trazado 1273106" d="M73.953,122.541c.431-.613-2.541-1.419-1.822-3,.491-1.082,1.331-.57,2.019-.093.888.616,2.791,2.078,2.6,3.194a13.272,13.272,0,0,1-3.581,3.084,1.193,1.193,0,0,1-1.156-1.341,4.026,4.026,0,0,1,1.941-1.844" transform="translate(-56.521 -93.336)" fill="#8d1939"/>
          <path id="Trazado_1273107" data-name="Trazado 1273107" d="M134.438,119.854a1.045,1.045,0,0,1,1.371.934c.06,1.188-1.278,1.637-1.954,2.366,1.148.4,3.331,3.33.962,3.316-.57,0-3.713-2.585-3.767-3.109-.083-.808,2.762-3.336,3.388-3.507" transform="translate(-102.873 -94.052)" fill="#8d1939"/>
        </g>
      </g>
    </g>
  </g>
</svg>
