<svg xmlns="http://www.w3.org/2000/svg" xmlns:xlink="http://www.w3.org/1999/xlink" width="69" height="69" viewBox="0 0 69 69">
  <defs>
    <clipPath id="clip-path">
      <rect id="Rectángulo_460532" data-name="Rectángulo 460532" width="42" height="42" fill="#fff"/>
    </clipPath>
  </defs>
  <g id="Grupo_1210719" data-name="Grupo 1210719" transform="translate(-304.77 -11337.717)">
    <g id="Elipse_13679" data-name="Elipse 13679" transform="translate(304.77 11337.717)" fill="#6a2874" stroke="#707070" stroke-width="1">
      <circle cx="34.5" cy="34.5" r="34.5" stroke="none"/>
      <circle cx="34.5" cy="34.5" r="34" fill="none"/>
    </g>
    <g id="Grupo_1210958" data-name="Grupo 1210958" transform="translate(318.77 11350.717)">
      <g id="Grupo_1210957" data-name="Grupo 1210957" clip-path="url(#clip-path)">
        <path id="Trazado_1273002" data-name="Trazado 1273002" d="M177.061,185.28a3.3,3.3,0,0,1,2.813,1.131l7.315,12.376a3.145,3.145,0,0,1-2.49,4.638c-4.628.407-9.865-.313-14.558-.007a3.123,3.123,0,0,1-2.43-4.693c1.839-3.949,5.02-7.871,6.934-11.855a3.459,3.459,0,0,1,2.416-1.59m1.167,4.737c-.358-.331-1.725-.275-1.783.418l.135,6a.843.843,0,0,0,1.674,0c.29-1.745-.077-3.874.272-5.627a1.808,1.808,0,0,0-.3-.795m-1.617,10.807c.686.8,2.4.023,1.764-1.162a1.061,1.061,0,1,0-1.764,1.162" transform="translate(-145.577 -161.554)" fill="#fff"/>
        <path id="Trazado_1273003" data-name="Trazado 1273003" d="M46.326,106.392c8.34-.25,13.254,9.285,8.078,15.768a10.014,10.014,0,0,1-15.775-.329,9.767,9.767,0,0,1,7.7-15.439m-3.485,9.692a3.307,3.307,0,0,1,.495-1.88c.371-.647.925-.91,1.306-1.49l-1.735-2.9a7.287,7.287,0,0,0-3.7,6.266Zm11.176,0a7.1,7.1,0,0,0-3.574-6.257l-1.877,3a4.1,4.1,0,0,1,1.943,3.261Zm-7.963-2.274a2.676,2.676,0,0,0-1.575,1.264,2.4,2.4,0,1,0,1.575-1.264m4.186,8.79c.191-.257-1.442-2.8-1.742-3.174a3.881,3.881,0,0,1-3.834-.015l-1.679,3.01a7.439,7.439,0,0,0,7.255.179" transform="translate(-31.989 -92.773)" fill="#fff"/>
        <path id="Trazado_1273004" data-name="Trazado 1273004" d="M12.889.058C17.279-.165,24.663.181,28.5,2.4c3.207,1.853.338,3.438-1.814,4.207C20.693,8.749,8.577,8.879,2.821,6.059c-4.473-2.192-.166-4.064,2.428-4.822A33.8,33.8,0,0,1,12.889.058m5.919,3.206c-.746.761-.206,1.648.6,2.074,1.316.7,4.333.7,5.34-.513,1.323-1.6-1.587-2.463-2.805-2.5a5.5,5.5,0,0,0-3.133.942" transform="translate(-0.765 0)" fill="#fff"/>
        <path id="Trazado_1273005" data-name="Trazado 1273005" d="M29.612,51.158v5.183c0,.539-1.766,1.532-2.252,1.75a19.876,19.876,0,0,1-4.718,1.376A18.28,18.28,0,0,1,20.11,58.02a11.791,11.791,0,0,0-12.4,1.456A23.75,23.75,0,0,1,2.4,57.925c-.576-.288-1.9-1.138-1.9-1.84V51.158c.841.384,1.6.874,2.471,1.214,6.227,2.434,18.29,2.49,24.463-.092.758-.317,1.449-.749,2.175-1.122" transform="translate(-0.438 -44.611)" fill="#fff"/>
        <path id="Trazado_1273006" data-name="Trazado 1273006" d="M.5,222.158c.885.343,1.678.9,2.565,1.249,1,.39,2.784.613,3.534,1a19.278,19.278,0,0,1,1.449,1.388,11.621,11.621,0,0,0,13.362.511c1.24-.807,1.98-2.137,3.52-2.227l-3.761,6.469a2.908,2.908,0,0,1-1.244.311,41.123,41.123,0,0,1-14.646-.931c-1.081-.3-4.78-1.5-4.78-2.843Z" transform="translate(-0.438 -193.728)" fill="#fff"/>
        <path id="Trazado_1273007" data-name="Trazado 1273007" d="M.5,136.158l2.251,1.174,1.649.552a.24.24,0,0,1,.127.249c.008.389-.561,1.886-.647,2.57a15.906,15.906,0,0,0,0,2.877C3.087,143.323.5,142.11.5,141.213Z" transform="translate(-0.438 -118.734)" fill="#fff"/>
        <path id="Trazado_1273008" data-name="Trazado 1273008" d="M194.28,140.957a14.929,14.929,0,0,0-.78-3.006,12.863,12.863,0,0,0,4.029-1.793v5.311a5.786,5.786,0,0,1-.515.645,11.07,11.07,0,0,1-2.67,1.464c-.322-.2-.064-.268-.064-.317,0-.733.064-1.592,0-2.3" transform="translate(-168.354 -118.734)" fill="#fff"/>
        <path id="Trazado_1273009" data-name="Trazado 1273009" d="M6.094,110.338l-1.19,1.9c-2.039-.545-5.323-1.368-4.787-4.078.88.364,1.671.9,2.564,1.249a20.994,20.994,0,0,0,3.412.927" transform="translate(-0.051 -94.32)" fill="#fff"/>
        <path id="Trazado_1273010" data-name="Trazado 1273010" d="M184.484,108.163c.611,2.756-2.569,3.43-4.592,4.082l-1.385-1.843a22.91,22.91,0,0,0,4.334-1.361c.573-.265,1.065-.636,1.642-.877" transform="translate(-155.31 -94.321)" fill="#fff"/>
        <path id="Trazado_1273011" data-name="Trazado 1273011" d="M3.8,194.856l.939,2.4C2.678,196.718-.5,195.9.066,193.163l2.25,1.174Z" transform="translate(0 -168.444)" fill="#fff"/>
        <path id="Trazado_1273012" data-name="Trazado 1273012" d="M191.11,202.168c-.746,1.118-1.091,2.82-2.6,3.07l.979-2.426Z" transform="translate(-164.014 -176.296)" fill="#fff"/>
      </g>
    </g>
  </g>
</svg>
