<svg xmlns="http://www.w3.org/2000/svg" xmlns:xlink="http://www.w3.org/1999/xlink" width="396.054" height="196.46" viewBox="0 0 396.054 196.46">
  <defs>
    <clipPath id="clip-path">
      <rect id="Rectángulo_460561" data-name="Rectángulo 460561" width="396" height="196" transform="translate(914.422 1356.09)" fill="#fff" stroke="#707070" stroke-width="1"/>
    </clipPath>
    <clipPath id="clip-path-2">
      <rect id="Rectángulo_460560" data-name="Rectángulo 460560" width="279.161" height="270.793" fill="none"/>
    </clipPath>
    <clipPath id="clip-path-4">
      <rect id="Rectángulo_460542" data-name="Rectángulo 460542" width="220.69" height="121.262" fill="#da9dfe"/>
    </clipPath>
    <clipPath id="clip-path-5">
      <rect id="Rectángulo_460546" data-name="Rectángulo 460546" width="240.809" height="240.809" fill="none"/>
    </clipPath>
    <clipPath id="clip-path-6">
      <rect id="Rectángulo_460543" data-name="Rectángulo 460543" width="82.324" height="82.325" fill="none"/>
    </clipPath>
    <clipPath id="clip-path-7">
      <rect id="Rectángulo_460544" data-name="Rectángulo 460544" width="153.757" height="153.757" fill="none"/>
    </clipPath>
    <clipPath id="clip-path-10">
      <rect id="Rectángulo_460548" data-name="Rectángulo 460548" width="27.234" height="20.987" fill="none"/>
    </clipPath>
    <clipPath id="clip-path-11">
      <rect id="Rectángulo_460549" data-name="Rectángulo 460549" width="55.819" height="112.406" fill="none"/>
    </clipPath>
    <clipPath id="clip-path-12">
      <rect id="Rectángulo_460550" data-name="Rectángulo 460550" width="9.233" height="8.786" fill="none"/>
    </clipPath>
    <clipPath id="clip-path-13">
      <rect id="Rectángulo_460551" data-name="Rectángulo 460551" width="6.21" height="6.299" fill="none"/>
    </clipPath>
    <clipPath id="clip-path-14">
      <rect id="Rectángulo_460552" data-name="Rectángulo 460552" width="8.282" height="5.539" fill="none"/>
    </clipPath>
    <clipPath id="clip-path-15">
      <rect id="Rectángulo_460553" data-name="Rectángulo 460553" width="8.812" height="2.996" fill="none"/>
    </clipPath>
    <clipPath id="clip-path-16">
      <rect id="Rectángulo_460554" data-name="Rectángulo 460554" width="76.25" height="48.092" fill="none"/>
    </clipPath>
    <clipPath id="clip-path-17">
      <rect id="Rectángulo_460555" data-name="Rectángulo 460555" width="54.755" height="22.931" fill="none"/>
    </clipPath>
    <clipPath id="clip-path-18">
      <rect id="Rectángulo_460556" data-name="Rectángulo 460556" width="14.707" height="22.331" fill="none"/>
    </clipPath>
    <clipPath id="clip-path-19">
      <rect id="Rectángulo_460557" data-name="Rectángulo 460557" width="13.916" height="9.246" fill="none"/>
    </clipPath>
    <clipPath id="clip-path-20">
      <rect id="Rectángulo_460558" data-name="Rectángulo 460558" width="8.616" height="42.235" fill="none"/>
    </clipPath>
  </defs>
  <g id="Grupo_1210723" data-name="Grupo 1210723" transform="translate(-914.422 -1356.09)">
    <g id="Grupo_1208498" data-name="Grupo 1208498" transform="translate(914.711 1356.09)">
      <g id="Grupo_1206741" data-name="Grupo 1206741" transform="translate(0 0)">
        <g id="Grupo_1204235" data-name="Grupo 1204235">
          <rect id="Rectángulo_402012" data-name="Rectángulo 402012" width="395.765" height="196.46" fill="#fbf1ff"/>
        </g>
      </g>
    </g>
    <g id="Enmascarar_grupo_1180319" data-name="Enmascarar grupo 1180319" clip-path="url(#clip-path)">
      <g id="Grupo_1211014" data-name="Grupo 1211014" transform="translate(973.013 1281.757)">
        <g id="Grupo_1211013" data-name="Grupo 1211013" clip-path="url(#clip-path-2)">
          <g id="Grupo_1210977" data-name="Grupo 1210977">
            <g id="Grupo_1210976" data-name="Grupo 1210976" clip-path="url(#clip-path-2)">
              <g id="Grupo_1210963" data-name="Grupo 1210963" transform="translate(0 149.53)" opacity="0.75" style="mix-blend-mode: multiply;isolation: isolate">
                <g id="Grupo_1210962" data-name="Grupo 1210962">
                  <g id="Grupo_1210961" data-name="Grupo 1210961" clip-path="url(#clip-path-4)">
                    <path id="Trazado_1273038" data-name="Trazado 1273038" d="M216.433,268.02l-22.678-4.843.981-2.721-30.251-8.376L112.1,236.153,89.3,222.087l-5.574-9.024,26.762-1.327,19.119-4.512-6.235-11.138-21.533,6.162S81.5,200.971,75.5,199.486c-12.076-3.874-37.391,2.5-37.391,2.5l-3.151-.3a43.411,43.411,0,0,0-5.773-6.469A34.839,34.839,0,0,0,18.433,189.6c-3.96-1.119-6.514-2.546-10.451-1.354s-7.533,3.9-7.94,6.918,2.131,4.386,4.324,6.507,6.908,5.024,11.147,6.879,11.678,1.592,11.678,1.592-5.972,14.929-5.839,20.436c.06,2.49,3.1,7.312,5.783,11.1l-4.291,2.477,9.18,5.3,5.784,16.426,9.529,10.4,3.476.6,2.124-1.971c1.775-1.253,2.487-2.707,1.327-4.512l-4.777-4.511,2.124-.531,4.512.8c1.975-.3,2.295-1.015.153-2.339l-8.911-2.174s.016-1.362,0-3.322l17.758,10.253,22.09-12.753,26.268,27.3,42.98,17.822V290.512l32.123,18.547,5.286-3.053-74.9-43.246-10.786-11.744,19.752,1.064,56.038,19.174,9.78-.381,4.921,4.361h5.582l11.778.848c5.773-.3,6.481-6.355.4-8.062" transform="translate(0 -187.797)" fill="#da9dfe"/>
                  </g>
                </g>
              </g>
              <g id="Grupo_1210975" data-name="Grupo 1210975" transform="translate(38.352)" opacity="0.8">
                <g id="Grupo_1210974" data-name="Grupo 1210974">
                  <g id="Grupo_1210973" data-name="Grupo 1210973" clip-path="url(#clip-path-5)">
                    <g id="Grupo_1210966" data-name="Grupo 1210966" transform="translate(79.242 79.242)" opacity="0.5" style="mix-blend-mode: overlay;isolation: isolate">
                      <g id="Grupo_1210965" data-name="Grupo 1210965">
                        <g id="Grupo_1210964" data-name="Grupo 1210964" clip-path="url(#clip-path-6)">
                          <path id="Trazado_1273039" data-name="Trazado 1273039" d="M230.013,140.684a41.162,41.162,0,1,1-41.162-41.162,41.162,41.162,0,0,1,41.162,41.162" transform="translate(-147.689 -99.521)" fill="#fff"/>
                        </g>
                      </g>
                    </g>
                    <g id="Grupo_1210969" data-name="Grupo 1210969" transform="translate(43.526 43.526)" opacity="0.5" style="mix-blend-mode: overlay;isolation: isolate">
                      <g id="Grupo_1210968" data-name="Grupo 1210968">
                        <g id="Grupo_1210967" data-name="Grupo 1210967" clip-path="url(#clip-path-7)">
                          <path id="Trazado_1273040" data-name="Trazado 1273040" d="M256.589,131.544a76.879,76.879,0,1,1-76.879-76.879,76.878,76.878,0,0,1,76.879,76.879" transform="translate(-102.832 -54.665)" fill="#fff"/>
                        </g>
                      </g>
                    </g>
                    <g id="Grupo_1210972" data-name="Grupo 1210972" opacity="0.5" style="mix-blend-mode: overlay;isolation: isolate">
                      <g id="Grupo_1210971" data-name="Grupo 1210971">
                        <g id="Grupo_1210970" data-name="Grupo 1210970" clip-path="url(#clip-path-5)">
                          <path id="Trazado_1273041" data-name="Trazado 1273041" d="M288.976,120.4A120.4,120.4,0,1,1,168.572,0a120.405,120.405,0,0,1,120.4,120.4" transform="translate(-48.167)" fill="#fff"/>
                        </g>
                      </g>
                    </g>
                  </g>
                </g>
              </g>
            </g>
          </g>
          <g id="Grupo_1211012" data-name="Grupo 1211012">
            <g id="Grupo_1211011" data-name="Grupo 1211011" clip-path="url(#clip-path-2)">
              <path id="Trazado_1273042" data-name="Trazado 1273042" d="M206.2,316.621l-10.033-14.386c-.458-.925-3.049-4.419-3.409-5.377-.167-.436-3.06-3.56-2.034-.726l-4.6,2.325c-2.384-4.757-1.592,1.273-.78,3.124a38.851,38.851,0,0,0,1.467,7.47c1.044,3.05,3.752,6.928,5.086,10.173a14.768,14.768,0,0,0,4.214,4.4,12.5,12.5,0,0,0,10.806-2.787c.874-.826.275-2.81-.721-4.214" transform="translate(-37.604 -60.102)" fill="#1d1d1b"/>
              <path id="Trazado_1273043" data-name="Trazado 1273043" d="M287.36,265.868c-1-2.529-2.92-3.153-8.563-3.8-3.691-.915-7.368-1.706-11.392-4.444q-.93-1.2-1.851-2.392l-6.367,5.165a14.474,14.474,0,0,1,.955,1.4c.334,9.351,2.4,9.3,6.285,8.082a2.111,2.111,0,0,1,.559-.237c7.011-.783,9.945,1.932,16.661-.09,1.9-.447,4.213-1.8,3.713-3.676" transform="translate(-52.814 -52.007)" fill="#1d1d1b"/>
              <path id="Trazado_1273044" data-name="Trazado 1273044" d="M246.447,243.859c0,.1-4.97,3.226-4.97,3.226a6.467,6.467,0,0,0-.628.662c-.75.8-2.128,2.145-3.191,1.848-4.917-1.342-23-13.549-28.65-30.516-11.283,1.9-25.565-2.772-41.66-6.8-.733-.174-1.448-.366-2.18-.541-.157-.035-.3-.088-.453-.123-.506-.122-1.011-.261-1.517-.383l-1.831-.471.209-.523.907-2.2,5.476-13.428a54.814,54.814,0,0,1,5.772-.366c16.828-.3,31.179,6.4,45.339,15.834,20.751,20.438,26.715,30.97,27.378,33.778" transform="translate(-32.881 -39.579)" fill="#26749e"/>
              <path id="Trazado_1273045" data-name="Trazado 1273045" d="M219.27,126.467l-.924,5.458-.035.157a3.716,3.716,0,0,0-.418.087c-.384.105-.768.244-1.168.384-.419.157-.785.315-1.151.471a41.1,41.1,0,0,0-3.871,2.127c-.889.541-1.814,1.1-2.737,1.692-9.138,5.668-36.115,12.538-42.183,10.254-1.326,2.859-.506,1.8-1.6,6.452-.018,0-.558-1.483-.785-2.092-.069-.157-.1-.262-.1-.262L158.08,134.4c.349-.174.68-.349,1.011-.523,6.592-3.226,11.945-3.261,16.48-1.169,5.022-.819,10.951-.732,17.071-.453,4.866-1.064,9.993-2.163,15.294-3.313.994-.227,2-.436,3.016-.662,2.738-.593,5.511-1.2,8.318-1.814" transform="translate(-32.212 -25.77)" fill="#26749e"/>
              <path id="Trazado_1273046" data-name="Trazado 1273046" d="M234.261,130.942c2.823,1.213,6.165.421,9.785-1.446l-5.212-2.219Z" transform="translate(-47.735 -25.935)" fill="#d18450"/>
              <path id="Trazado_1273047" data-name="Trazado 1273047" d="M176.6,282.1a3.618,3.618,0,0,1-3.017-1.726c-5.964-11.788-11.387-19.27-13.671-34.58-9.382-12.555-19.915-18.728-23.175-35.521a36.958,36.958,0,0,1-.646-7.1,16.961,16.961,0,0,1,7.045-1.936,14.064,14.064,0,0,1,2.093.1,13.737,13.737,0,0,1,1.378.279c3.452.872,7.01,3.278,10.724,7.847q1.124,1.387,2.249,3.034c.139.209.279.436.436.662.314.488.628.976.942,1.448,6.853,10.533,12.764,19.723,13.323,26.767a39.769,39.769,0,0,1,5.109,13.637c1.134,7.637,2.79,13.9,4.167,19.844,1.186,5.18-3.523,7.586-6.957,7.237" transform="translate(-27.731 -41.005)" fill="#26749e"/>
              <path id="Trazado_1273048" data-name="Trazado 1273048" d="M168.445,193.121a8.592,8.592,0,0,0-5.353,7.586c-.384,4.028.872,8.283-1.046,10.463a3.568,3.568,0,0,1-1.238.907.517.517,0,0,0-.07-.053c-.942-.68-1.9-1.307-2.843-1.9q-.811-.549-1.622-.994a35.006,35.006,0,0,0-3.923-2.023,21.392,21.392,0,0,0-5.807-1.674,14.261,14.261,0,0,0-9.958,2.3c-.645-.907-.907-4.011-1.1-7.533-.053-.994-.088-2.023-.14-3.052l7.673-2.319,5.615-1.691,14.421-4.342c1.36,2.162,2.319,3.8,5.388,4.324" transform="translate(-27.579 -38.471)" fill="#26749e"/>
              <path id="Trazado_1273049" data-name="Trazado 1273049" d="M159.29,177.493c-.907,2.337-8.824,6.888-16.27,8.824-.61.174-1.221.314-1.813.436a9.492,9.492,0,0,0-1.988.646c-2.947,1.2-5.284,3.278-7.045,1.936-.139-.14-.3-.279-.453-.436-6.278-6.156-14.753-17.647-14.858-29.488a25.42,25.42,0,0,1,.14-2.825,19.552,19.552,0,0,1,1.935-6.522c2.145-5.493,5.127-10.2,9.8-13.252.3-.193.575-.367.889-.541a19.978,19.978,0,0,1,4.011-1.8c.593-.209,1.2-.384,1.848-.558a21.477,21.477,0,0,1,7.708-.419c.279.035.557.07.837.123,1.151.191,2.336.453,3.627.8.959.261,1.953.541,3.034.854a3.5,3.5,0,0,0,.4.123,23,23,0,0,1,3.122,5.754.576.576,0,0,1,.069.157,37.309,37.309,0,0,1,2.494,13.636c-.122,5.458-.192,10.6,2.511,22.548" transform="translate(-23.813 -27.166)" fill="#26749e"/>
              <g id="Grupo_1210980" data-name="Grupo 1210980" transform="translate(92.959 131.181)" opacity="0.2">
                <g id="Grupo_1210979" data-name="Grupo 1210979">
                  <g id="Grupo_1210978" data-name="Grupo 1210978" clip-path="url(#clip-path-10)">
                    <path id="Trazado_1273050" data-name="Trazado 1273050" d="M143.983,185.175a39.707,39.707,0,0,1-4.293.517,26.811,26.811,0,0,1-2.781.022,19.933,19.933,0,0,1-8.748-2.346c-6.569-6.338-12.734-12.665-11.163-18.615,4.132,6.8,8.8,12.471,15.15,14.58,3.056,2.991,6.989,3.567,11.5,2.577a4.483,4.483,0,0,0,.339,3.265" transform="translate(-116.749 -164.752)" fill="#1d1d1b"/>
                  </g>
                </g>
              </g>
              <g id="Grupo_1210983" data-name="Grupo 1210983" transform="translate(93.05 128.685)" opacity="0.5" style="mix-blend-mode: multiply;isolation: isolate">
                <g id="Grupo_1210982" data-name="Grupo 1210982">
                  <g id="Grupo_1210981" data-name="Grupo 1210981" clip-path="url(#clip-path-11)">
                    <path id="Trazado_1273051" data-name="Trazado 1273051" d="M172.682,274.024a3.618,3.618,0,0,1-3.017-1.726c-5.964-11.788-11.387-19.27-13.671-34.58-9.382-12.555-19.915-18.728-23.175-35.522-.646-.906-.907-4.011-1.1-7.533-6.278-6.156-14.753-17.647-14.858-29.488.105-.68.158-1.064.158-1.064.644.872,10.863-2.494,10.863-2.494,4.377,5.633,18.8,15.59,23.506,17.7-1.709,1.151-4.516,4.551-6.522,8.283a22.53,22.53,0,0,0-1.848,4.481,11.5,11.5,0,0,0-.331,1.465,6.677,6.677,0,0,0,.349,3.854,14.671,14.671,0,0,0-.262,2.494c-.366,9.992,7.1,21.693,15.851,33.708a164.806,164.806,0,0,0,14.055,40.422" transform="translate(-116.863 -161.618)" fill="#26749e"/>
                  </g>
                </g>
              </g>
              <path id="Trazado_1273052" data-name="Trazado 1273052" d="M147.55,178.014l-3.228,5.784c-.113.022-.226.043-.339.059a39.707,39.707,0,0,1-4.293.517,26.807,26.807,0,0,1-2.781.021,19.935,19.935,0,0,1-8.748-2.346c-6.569-6.338-12.734-12.665-11.163-18.615a8.648,8.648,0,0,1,1.635-3.175c4.535-3.868,8.673-2.114,12.374,5.784a11.442,11.442,0,0,1,5.783,8.07,15.572,15.572,0,0,1,4.111.7,22.539,22.539,0,0,1,3.136,1.233,34.37,34.37,0,0,1,3.513,1.964" transform="translate(-23.79 -32.253)" fill="#26749e"/>
              <path id="Trazado_1273053" data-name="Trazado 1273053" d="M158.087,183.32a41.627,41.627,0,0,0,9.505,1.2c2.232.088,1.733,1.792,0,1.674l-8.634.353Z" transform="translate(-32.213 -37.355)" fill="#e38f56"/>
              <path id="Trazado_1273054" data-name="Trazado 1273054" d="M171.181,189.7c.1.578-.7.952-2.079.494l-6.281-1.846,5.139,4.257c.423.423.542.8.451,1.065-.183.571-1.283.69-2.361-.071l-5.519-3.757,3.7,4.638c.416.789.282,1.339-.106,1.557s-1.05.092-1.656-.5l-4.5-4.61,1.91,4.554c.437.838.232,1.36-.183,1.452a1.074,1.074,0,0,1-.994-.451l-3.172-4.173a11.535,11.535,0,0,1-4.99-3.96c-.029-.064-.057-.12-.078-.184a3.856,3.856,0,0,1,3.687-5.1,13.185,13.185,0,0,1,2.333.212.4.4,0,0,1,.092.014c.373.092.754.169,1.127.253a37.638,37.638,0,0,1,6.407,2.679,42.952,42.952,0,0,0,5.871,2.389c.768.346,1.135.754,1.2,1.092" transform="translate(-30.612 -37.303)" fill="#fcaf75"/>
              <g id="Grupo_1210986" data-name="Grupo 1210986" transform="translate(119.854 150.864)" opacity="0.15">
                <g id="Grupo_1210985" data-name="Grupo 1210985">
                  <g id="Grupo_1210984" data-name="Grupo 1210984" clip-path="url(#clip-path-12)">
                    <path id="Trazado_1273055" data-name="Trazado 1273055" d="M159.759,198.241a1.074,1.074,0,0,1-.994-.451l-3.172-4.173a11.531,11.531,0,0,1-4.99-3.961c-.028-.064-.057-.119-.077-.183,2.156,1.522,4.349,3.08,5.632,3.087a24.255,24.255,0,0,0,3.6,5.681" transform="translate(-150.526 -189.473)" fill="#1d1d1b"/>
                  </g>
                </g>
              </g>
              <g id="Grupo_1210989" data-name="Grupo 1210989" transform="translate(127.304 152.542)" opacity="0.15">
                <g id="Grupo_1210988" data-name="Grupo 1210988">
                  <g id="Grupo_1210987" data-name="Grupo 1210987" clip-path="url(#clip-path-13)">
                    <path id="Trazado_1273056" data-name="Trazado 1273056" d="M166.093,197.775c-.395.225-1.05.092-1.656-.5l-4.5-4.61-.057-1.085a37.139,37.139,0,0,0,6.21,6.2" transform="translate(-159.883 -191.58)" fill="#1d1d1b"/>
                  </g>
                </g>
              </g>
              <g id="Grupo_1210992" data-name="Grupo 1210992" transform="translate(129.517 151.294)" opacity="0.15">
                <g id="Grupo_1210991" data-name="Grupo 1210991">
                  <g id="Grupo_1210990" data-name="Grupo 1210990" clip-path="url(#clip-path-14)">
                    <path id="Trazado_1273057" data-name="Trazado 1273057" d="M170.945,195.088c-.183.571-1.283.691-2.362-.071l-5.519-3.757-.4-1.248c2.917,2.376,5.871,4.8,8.282,5.075" transform="translate(-162.662 -190.013)" fill="#1d1d1b"/>
                  </g>
                </g>
              </g>
              <g id="Grupo_1210995" data-name="Grupo 1210995" transform="translate(131.765 150.103)" opacity="0.15">
                <g id="Grupo_1210994" data-name="Grupo 1210994">
                  <g id="Grupo_1210993" data-name="Grupo 1210993" clip-path="url(#clip-path-15)">
                    <path id="Trazado_1273058" data-name="Trazado 1273058" d="M174.29,190.815c.1.578-.7.952-2.079.494l-6.281-1.846-.443-.945c2.7,1.3,7.083,2.721,8.8,2.3" transform="translate(-165.486 -188.517)" fill="#1d1d1b"/>
                  </g>
                </g>
              </g>
              <g id="Grupo_1210998" data-name="Grupo 1210998" transform="translate(131.717 161.966)" opacity="0.5" style="mix-blend-mode: multiply;isolation: isolate">
                <g id="Grupo_1210997" data-name="Grupo 1210997">
                  <g id="Grupo_1210996" data-name="Grupo 1210996" clip-path="url(#clip-path-16)">
                    <path id="Trazado_1273059" data-name="Trazado 1273059" d="M241.675,249.618c-.75.8-2.128,2.145-3.191,1.848-4.918-1.342-23-13.549-28.651-30.516-11.283,1.9-25.565-2.772-41.66-6.8a3.559,3.559,0,0,1-1.238.906.586.586,0,0,0-.07-.052,8.744,8.744,0,0,1-1.325-1.518c-.139-.261-.174-.471.018-.54,3.156-1.221,3.54-7.751,2.964-9.53.088.139.541.565.662.7,9.7,11.474,26.541,13.22,41.957,12.8,7.986,14.125,17.7,25.686,30.534,32.7" transform="translate(-165.425 -203.416)" fill="#26749e"/>
                  </g>
                </g>
              </g>
              <g id="Grupo_1211001" data-name="Grupo 1211001" transform="translate(131.379 104.848)" opacity="0.5" style="mix-blend-mode: multiply;isolation: isolate">
                <g id="Grupo_1211000" data-name="Grupo 1211000">
                  <g id="Grupo_1210999" data-name="Grupo 1210999" clip-path="url(#clip-path-17)">
                    <path id="Trazado_1273060" data-name="Trazado 1273060" d="M219.757,132.987l-.036.157a3.5,3.5,0,0,0-.417.088c-.385.1-.768.244-1.17.383-.418.158-.784.314-1.151.471a40.838,40.838,0,0,0-3.871,2.128c-.889.541-1.814,1.1-2.738,1.691-9.138,5.668-36.114,12.538-42.183,10.254-1.325,2.859-.506,1.8-1.6,6.452-.018,0-.557-1.482-.784-2.092l-.8-8.528c8.911,2.843,18.135,1.674,27.552-2.441,7.794-1.464,16.479-5.179,25.546-9.87.593.419,1.134.855,1.658,1.308" transform="translate(-165.001 -131.68)" fill="#26749e"/>
                  </g>
                </g>
              </g>
              <path id="Trazado_1273061" data-name="Trazado 1273061" d="M234.2,126.339c-2.154.423-3.564,2.761-2.578,4.147.763.478,1.379,1.831,1.973,3.318.605,1.323,1.771.964,1.793-.605l-.247-2.219a3.6,3.6,0,0,1,3.093-2.7c1.17-.227,3.564,1.095,5.65,2.029,1.323.538,2.108-.2,1.479-1.143l2.063.947c1.8.933,2.354.129,1.749-.835,1.592.448,2.645-.538,1.3-1.188a35.582,35.582,0,0,0-8.541-2.219c-3.429.052-6.238-.361-7.734.471" transform="translate(-47.131 -25.636)" fill="#fcaf75"/>
              <path id="Trazado_1273062" data-name="Trazado 1273062" d="M129.56,136.838a54.751,54.751,0,0,0,2.12-9.482l12.352,5.292-1.787,8.055c-2.107,7.926-14.447,2.293-12.686-3.864" transform="translate(-26.365 -25.951)" fill="#fcaf75"/>
              <g id="Grupo_1211004" data-name="Grupo 1211004" transform="translate(105.269 102.412)" opacity="0.1">
                <g id="Grupo_1211003" data-name="Grupo 1211003">
                  <g id="Grupo_1211002" data-name="Grupo 1211002" clip-path="url(#clip-path-18)">
                    <path id="Trazado_1273063" data-name="Trazado 1273063" d="M146.083,134.4c-.528,3.03,3.02,14.2-1.475,16.274-5.828,2.619-13.639-13.955-12.231-17.269l4.065-4.783Z" transform="translate(-132.209 -128.621)"/>
                  </g>
                </g>
              </g>
              <path id="Trazado_1273064" data-name="Trazado 1273064" d="M137.655,109.675c-5.707.059-8.966,2.835-9.185,8.988.163,6.468,2.148,12.175,7.183,15.694,2.45,2.069,6.631,3.265,9.792,2.145,3.276-1.161,3.159-7.926,3.653-14.148.844-6.285-5.02-10.961-11.443-12.678" transform="translate(-26.178 -22.348)" fill="#fcaf75"/>
              <path id="Trazado_1273065" data-name="Trazado 1273065" d="M148.375,118.849c-1.29,3.142-7.329,6.614-12.854,4.126l-.643,5.133-2.469-1.287c-.613,1.552-1.233,3.069-2.272,2.518l-.848-1.232c-3.4-5.083-3.749-14.511,3.476-18.035,8.494-3.359,16.625,4.289,15.611,8.775" transform="translate(-25.869 -22.261)"/>
              <path id="Trazado_1273066" data-name="Trazado 1273066" d="M132.381,132.9A5.1,5.1,0,0,1,131,131.227a2.4,2.4,0,0,1-.029-2.109,1.585,1.585,0,0,1,1.842-.794,1.763,1.763,0,0,1,.986,1.087,5.225,5.225,0,0,1,.234,1.491q.042.687.082,1.374a1.207,1.207,0,0,1-.188.9.8.8,0,0,1-.808.175,2.087,2.087,0,0,1-.736-.455" transform="translate(-26.64 -26.133)" fill="#fcaf75"/>
              <g id="Grupo_1211007" data-name="Grupo 1211007" transform="translate(109.052 97.866)" opacity="0.1">
                <g id="Grupo_1211006" data-name="Grupo 1211006">
                  <g id="Grupo_1211005" data-name="Grupo 1211005" clip-path="url(#clip-path-19)">
                    <path id="Trazado_1273067" data-name="Trazado 1273067" d="M136.96,126.214l.163,1.908c4.758,4.948,11.552,4.872,13.377,2.316l.376-7.525Z" transform="translate(-136.96 -122.912)"/>
                  </g>
                </g>
              </g>
              <path id="Trazado_1273068" data-name="Trazado 1273068" d="M126.958,119.855c1.826,2.748,4.8,4.328,9.574,4.07l12.159-5.893c-.528-5.289-5.72-9.988-12.476-9.443-6.452.522-9.326,5.062-9.257,11.265" transform="translate(-25.87 -22.118)" fill="#26749e"/>
              <path id="Trazado_1273069" data-name="Trazado 1273069" d="M138.271,126.192a31.4,31.4,0,0,0,8.138,2.367,5.165,5.165,0,0,0,3.2-.543,63.334,63.334,0,0,1,6.987-3.949c.561-.239.657-.784.036-1.227-1.031-.736-3.151-1.823-5.732-3.275-3.961.639-8.189,3.218-12.624,6.626" transform="translate(-28.175 -24.364)" fill="#11587f"/>
              <path id="Trazado_1273070" data-name="Trazado 1273070" d="M181.756,179.341c17.236-38.12,14.5-37.842-28.75-17.319,45.369-21.531,45.58-22.743,6.859-39.193,38.722,16.45,39.332,15.554,19.7-28.974,19.63,44.528,20.843,44.544,39.213.527-15.7,37.624-17.331,43.96,10.724,41.08.014.128.008.257.031.384-25.833,4.441-23.029,8.8,5.953,30.817-34.42-25.741-34.743-23.549-24.022,14.93-10.755-38.6-12.181-40.274-29.685-2.253Z" transform="translate(-31.178 -19.125)" fill="#f39200"/>
              <path id="Trazado_1273071" data-name="Trazado 1273071" d="M204.1,158.853a6.571,6.571,0,0,1,4.082-1.479,5.879,5.879,0,0,1,3.8,1.348,6.424,6.424,0,0,1,.719-1.21,5.739,5.739,0,0,1,4.7-2.228,7.918,7.918,0,0,1,.863.049,7.057,7.057,0,0,1,2.09-8.053,10.032,10.032,0,0,1-5.136-3.824,10.476,10.476,0,0,1-1.661-5.309,7.487,7.487,0,0,1-4.54,1.55,7.409,7.409,0,0,1-4.1-1.243,7.492,7.492,0,0,1-1.161,3.559,6.477,6.477,0,0,1-4.295,2.8,7.457,7.457,0,0,1,1.233,3.955,8.017,8.017,0,0,1-1.936,5.243,6.293,6.293,0,0,1,4.449,2.8,6.874,6.874,0,0,1,.886,2.045" transform="translate(-40.501 -28.15)" fill="#fcea10"/>
              <path id="Trazado_1273072" data-name="Trazado 1273072" d="M208.037,155.16a3.421,3.421,0,0,1,2.125-.77,3.067,3.067,0,0,1,1.981.7,3.375,3.375,0,0,1,.375-.63,2.987,2.987,0,0,1,2.445-1.16,4.2,4.2,0,0,1,.45.025,3.675,3.675,0,0,1,1.088-4.193,5.212,5.212,0,0,1-2.673-1.991,5.443,5.443,0,0,1-.866-2.764,3.9,3.9,0,0,1-2.364.807,3.857,3.857,0,0,1-2.132-.647,3.9,3.9,0,0,1-.6,1.854,3.371,3.371,0,0,1-2.237,1.458,3.879,3.879,0,0,1,.642,2.059,4.167,4.167,0,0,1-1.008,2.729,3.277,3.277,0,0,1,2.316,1.456,3.57,3.57,0,0,1,.462,1.065" transform="translate(-41.825 -29.42)" fill="#fff"/>
              <path id="Trazado_1273073" data-name="Trazado 1273073" d="M236.457,204.433v107.51l-4.308-2.487V201.946Z" transform="translate(-47.305 -41.15)" fill="#878787"/>
              <path id="Trazado_1273074" data-name="Trazado 1273074" d="M240.765,201.31l-4.308,2.487-4.308-2.487,4.308-2.487Z" transform="translate(-47.305 -40.514)" fill="#706f6f"/>
              <path id="Trazado_1273075" data-name="Trazado 1273075" d="M236.457,204.433v107.51l-4.308-2.487V201.946Z" transform="translate(-47.305 -41.15)" fill="#878787"/>
              <path id="Trazado_1273076" data-name="Trazado 1273076" d="M232.149,309.456V201.946l4.308,2.487v107.51Z" transform="translate(-47.305 -41.15)" fill="#878787"/>
              <path id="Trazado_1273077" data-name="Trazado 1273077" d="M232.15,201.946v107.51l4.308,2.487V204.433Z" transform="translate(-47.305 -41.15)" fill="#706f6f"/>
              <path id="Trazado_1273078" data-name="Trazado 1273078" d="M241.867,309.456V201.946l-4.308,2.487v107.51Z" transform="translate(-48.407 -41.15)" fill="#dadada"/>
              <g id="Grupo_1211010" data-name="Grupo 1211010" transform="translate(184.844 134.412)" style="mix-blend-mode: multiply;isolation: isolate">
                <g id="Grupo_1211009" data-name="Grupo 1211009">
                  <g id="Grupo_1211008" data-name="Grupo 1211008" clip-path="url(#clip-path-20)">
                    <path id="Trazado_1273079" data-name="Trazado 1273079" d="M240.765,168.81v39.748l-4.308,2.487-4.308-2.487V168.81Z" transform="translate(-232.149 -168.81)" fill="#dadada"/>
                  </g>
                </g>
              </g>
              <path id="Trazado_1273080" data-name="Trazado 1273080" d="M242.427,182.627V133.9l4.363-10.41v59.14Z" transform="translate(-49.399 -25.163)" fill="#b2b2b2"/>
              <path id="Trazado_1273081" data-name="Trazado 1273081" d="M224.018,163.819l-14.726-8.483v40.218l14.726,8.483Z" transform="translate(-42.647 -31.653)" fill="#706f6f"/>
              <path id="Trazado_1273082" data-name="Trazado 1273082" d="M253.994,146.983l-26.207,15.134v40.218L253.994,187.2Z" transform="translate(-46.416 -29.95)" fill="#dadada"/>
              <path id="Trazado_1273083" data-name="Trazado 1273083" d="M224.018,159.97l-14.726-8.483,26.367-15.042,14.726,8.483Z" transform="translate(-42.647 -27.803)" fill="#fff"/>
              <path id="Trazado_1273084" data-name="Trazado 1273084" d="M213.214,188.058c-.322-.186-.584-.035-.584.337a1.291,1.291,0,0,0,.584,1.012l6.556,3.785c.322.186.584.035.584-.338a1.291,1.291,0,0,0-.584-1.011Z" transform="translate(-43.327 -38.304)" fill="#3c3c3b"/>
              <path id="Trazado_1273085" data-name="Trazado 1273085" d="M213.215,185.271c-.322-.186-.584-.035-.584.338a1.291,1.291,0,0,0,.584,1.011l6.556,3.785c.322.186.584.035.584-.338a1.292,1.292,0,0,0-.584-1.011Z" transform="translate(-43.327 -37.736)" fill="#3c3c3b"/>
              <path id="Trazado_1273086" data-name="Trazado 1273086" d="M213.215,182.483c-.322-.186-.584-.035-.584.337a1.291,1.291,0,0,0,.584,1.012l6.556,3.785c.322.186.584.035.584-.338a1.292,1.292,0,0,0-.584-1.011Z" transform="translate(-43.327 -37.168)" fill="#3c3c3b"/>
              <path id="Trazado_1273087" data-name="Trazado 1273087" d="M213.215,179.7c-.322-.186-.584-.035-.584.337a1.291,1.291,0,0,0,.584,1.012l6.556,3.785c.322.186.584.035.584-.338a1.292,1.292,0,0,0-.584-1.011Z" transform="translate(-43.327 -36.6)" fill="#3c3c3b"/>
              <path id="Trazado_1273088" data-name="Trazado 1273088" d="M213.214,176.909c-.322-.186-.584-.035-.584.337a1.292,1.292,0,0,0,.584,1.012l6.556,3.785c.322.186.584.035.584-.338a1.292,1.292,0,0,0-.584-1.011Z" transform="translate(-43.327 -36.032)" fill="#3c3c3b"/>
              <path id="Trazado_1273089" data-name="Trazado 1273089" d="M213.215,174.121c-.322-.186-.584-.035-.584.338a1.291,1.291,0,0,0,.584,1.011l6.556,3.785c.322.186.584.035.584-.338a1.292,1.292,0,0,0-.584-1.011Z" transform="translate(-43.327 -35.464)" fill="#3c3c3b"/>
              <path id="Trazado_1273090" data-name="Trazado 1273090" d="M213.215,171.334c-.322-.186-.584-.035-.584.337a1.291,1.291,0,0,0,.584,1.012l6.556,3.785c.322.186.584.035.584-.338a1.292,1.292,0,0,0-.584-1.011Z" transform="translate(-43.327 -34.896)" fill="#3c3c3b"/>
              <path id="Trazado_1273091" data-name="Trazado 1273091" d="M187.15,153.363l17.629,1.571v40.218l-17.63-1.571Z" transform="translate(-38.135 -31.251)" fill="#9d9d9c"/>
              <path id="Trazado_1273092" data-name="Trazado 1273092" d="M247.981,184.146a3.932,3.932,0,0,0,1.676-2.866V166.965c0-.918-.657-1.237-1.528-.743l-9.739,5.519c-.05.029-.1.06-.15.092a3.931,3.931,0,0,0-1.675,2.865v14.316c0,.917.657,1.237,1.529.742l9.773-5.539Z" transform="translate(-48.204 -33.823)" fill="#fff"/>
              <path id="Trazado_1273093" data-name="Trazado 1273093" d="M248.261,167.349l-9.74,5.519a2.066,2.066,0,0,0-.963,1.56v14.315c0,.48.35.651.806.392l9.739-5.519a2.061,2.061,0,0,0,.963-1.559V167.741c0-.48-.35-.65-.806-.392" transform="translate(-48.407 -34.076)" fill="#f9b233"/>
              <path id="Trazado_1273094" data-name="Trazado 1273094" d="M243.711,174.247l2.924,4.39-2.962,1.409,2.962,4.989-5.993-5.173,3.508-1.427-2.982-2.815Z" transform="translate(-49.035 -35.506)" fill="#1d1d1b"/>
              <path id="Trazado_1273095" data-name="Trazado 1273095" d="M230.473,84.124l-3.937,10.744a.482.482,0,1,1-.892-.327L229.581,83.8c.191-.326.963.024.892.326" transform="translate(-45.971 -17.049)" fill="#b2b2b2"/>
              <path id="Trazado_1273096" data-name="Trazado 1273096" d="M225.007,96.565a.756.756,0,0,0-.483.252.494.494,0,0,0-.055.088l-.021.061-.581,1.587a.7.7,0,0,1,.525-.316,2.074,2.074,0,0,1,1.762.646.677.677,0,0,1,.187.612s.589-1.6.589-1.6l.033-.092a.305.305,0,0,0,.012-.074.736.736,0,0,0-.2-.52,2.074,2.074,0,0,0-1.763-.646" transform="translate(-45.617 -19.673)" fill="#e05a00"/>
              <path id="Trazado_1273097" data-name="Trazado 1273097" d="M225.855,100.808l-2.338,6.38a2.068,2.068,0,0,1-2.653,1.23l-.04-.014a2.068,2.068,0,0,1-1.23-2.653l2.338-6.38a2.068,2.068,0,0,1,2.653-1.23l.04.014a2.068,2.068,0,0,1,1.23,2.653" transform="translate(-44.72 -19.972)" fill="#e05a00"/>
              <path id="Trazado_1273098" data-name="Trazado 1273098" d="M226.451,98.785c.459.549.26,1.094-.446,1.217a2.48,2.48,0,0,1-2.108-.772c-.459-.549-.26-1.094.446-1.217a2.48,2.48,0,0,1,2.108.772" transform="translate(-45.573 -19.967)" fill="#e05a00"/>
              <path id="Trazado_1273099" data-name="Trazado 1273099" d="M223.772,98.784l-2.343,6.4a.767.767,0,0,1-.533.445l-.041.007c-.218.038-.334-.1-.257-.308l2.343-6.4a.768.768,0,0,1,.533-.446l.041-.007c.218-.038.334.1.257.308" transform="translate(-44.946 -20.065)" fill="#ff8521"/>
              <path id="Trazado_1273100" data-name="Trazado 1273100" d="M226.547,100.294l-2.343,6.4a.212.212,0,0,1-.4.069l-.026-.032a.768.768,0,0,1-.119-.686l2.343-6.4a.212.212,0,0,1,.4-.068l.026.032a.766.766,0,0,1,.119.685" transform="translate(-45.568 -20.268)" fill="#ff8521"/>
              <path id="Trazado_1273101" data-name="Trazado 1273101" d="M225.309,99.2l-2.386,6.625a.312.312,0,0,1-.432.154.375.375,0,0,1-.262-.444l2.386-6.625a.313.313,0,0,1,.432-.154.376.376,0,0,1,.262.445" transform="translate(-45.28 -20.116)" fill="#ff8521"/>
              <path id="Trazado_1273102" data-name="Trazado 1273102" d="M230.821,84.56l-.425-.509.287-1.6.794-1.088.425.509-.381,1.584Z" transform="translate(-46.947 -16.58)" fill="#b2b2b2"/>
              <path id="Trazado_1273103" data-name="Trazado 1273103" d="M231.135,84.548c-.287.463-.552.1-.425-.509l.287-1.6.537-1.077.425.509-.123,1.572Z" transform="translate(-47.005 -16.58)" fill="#565656"/>
            </g>
          </g>
        </g>
      </g>
    </g>
  </g>
</svg>
