<svg xmlns="http://www.w3.org/2000/svg" xmlns:xlink="http://www.w3.org/1999/xlink" width="96" height="96" viewBox="0 0 96 96">
  <defs>
    <clipPath id="clip-path">
      <rect id="Rectángulo_455595" data-name="Rectángulo 455595" width="96" height="96" fill="none"/>
    </clipPath>
    <clipPath id="clip-path-2">
      <rect id="Rectángulo_460576" data-name="Rectángulo 460576" width="43.978" height="57.027" fill="#fff"/>
    </clipPath>
  </defs>
  <g id="Grupo_1210779" data-name="Grupo 1210779" transform="translate(-735.746 -9118)">
    <g id="Grupo_1180407" data-name="Grupo 1180407" transform="translate(735.746 9117.971)">
      <g id="Grupo_1179172" data-name="Grupo 1179172" transform="translate(0 0.03)" clip-path="url(#clip-path)">
        <path id="Trazado_998483" data-name="Trazado 998483" d="M92.627,52.5A40.125,40.125,0,1,1,52.5,12.377,40.125,40.125,0,0,1,92.627,52.5" transform="translate(-4.488 -4.517)" fill="#8d1939"/>
        <path id="Trazado_998485" data-name="Trazado 998485" d="M90.973,46.487A44.486,44.486,0,1,1,46.487,2,44.486,44.486,0,0,1,90.973,46.487Z" transform="translate(1.527 1.499)" fill="none" stroke="#8d1939" stroke-miterlimit="10" stroke-width="4"/>
      </g>
    </g>
    <g id="Grupo_1180408" data-name="Grupo 1180408" transform="translate(755.746 9137)">
      <g id="Grupo_1099618" data-name="Grupo 1099618" transform="translate(0 0.164)">
        <rect id="Rectángulo_401104" data-name="Rectángulo 401104" width="56.349" height="57.028" transform="translate(0)" fill="none"/>
      </g>
      <g id="Grupo_1211034" data-name="Grupo 1211034" transform="translate(6 0.164)">
        <g id="Grupo_1211033" data-name="Grupo 1211033" clip-path="url(#clip-path-2)">
          <path id="Trazado_1273156" data-name="Trazado 1273156" d="M21.376,51.292a11.468,11.468,0,0,1,2.293-5.064c.467-.572,1.185-1.618,2.012-1.079,1,.652-.753,2.121-1.168,2.74C22.572,50.782,23,53.7,23.176,57.013a52.091,52.091,0,0,0,.542,6.163,6.216,6.216,0,0,0,1.908,3.732,3.74,3.74,0,0,1,1.111-2.944,29.284,29.284,0,0,1,5.461-2.5c2.935-.75,3.145,2.871,4.06,4.793a2.992,2.992,0,0,1,3.274-1.211,9.766,9.766,0,0,0,.81-2.961c.29-2.7.8-9.076.215-11.492-1.112-4.56-5.544-7.087-10.087-6.556-.772.09-2.514,1.139-2.853.031-.354-1.158,1.554-1.485,2.389-1.639a10.726,10.726,0,0,1,11.4,5.68,19.92,19.92,0,0,1,1.065,3.186V54.48c2.227-.4,3.64,1.522,3.392,3.638-.3,2.524-1.151,5.01-3.953,5.53a15.375,15.375,0,0,0-.853,2.2c.024.378.657.561.356,1.723a31.9,31.9,0,0,1-1.745,4.141,5.1,5.1,0,0,1-1.12,1.5l1.474.484a.906.906,0,0,1-.282,1.361c-.41.121-1.595-.192-1.522.277L43.123,87.02v-5.8c0-1.167,1.8-1,1.8-.164V90.78h5.232V80.724c0-2.19-2.584-4.785-4.611-5.363-.858-.245-2.116-.128-2.639-.3-.631-.213-.776-1.523.62-1.614a8.124,8.124,0,0,1,8.271,7.44,73.5,73.5,0,0,1,0,10.147,1.337,1.337,0,0,1-1.105,1.347H13.156a1.337,1.337,0,0,1-1.105-1.347,73.684,73.684,0,0,1,0-10.147c.256-3.274,3.487-7.434,6.955-7.434H28.08a27.344,27.344,0,0,0-1.236-3.1c-.254-.372-.864-.576-1.219-.907a10.35,10.35,0,0,1-3.518-5.638c-1.317-.56-2.314-.839-3.088-2.144a10.824,10.824,0,0,1-1.062-4.632,2.944,2.944,0,0,1,3.419-2.549c.082-1.02-.112-2.19,0-3.189m.164,4.823c-.832-.067-1.547-.026-1.84.866a9.254,9.254,0,0,0,.6,3.56,2.471,2.471,0,0,0,1.563,1.3Zm20.439,5.723a2.587,2.587,0,0,0,1.752-1.762c.511-1.585,1.166-4.368-1.426-3.961ZM42.8,90.78c-1.763-4.565-3.878-9.011-5.636-13.577-.568-1.474-1.494-2.784-.551-4.3.247-.4.682-.651.951-1.012a20.608,20.608,0,0,0,2.108-4.721c-2.307-2.293-2.028,3.2-3.8,2.011-.661-.442-2.343-6.061-2.811-6.183-1.492.808-5.713,1.485-5.8,3.5a16.018,16.018,0,0,0,1.242,3.508c1.424,3.6,3.76,7.951,4.826,11.524.5,1.664-.731,2.155-1.455.966-1.021-1.676-1.7-4.495-2.613-6.381-.182-.379-.331-.959-.763-1.036-4.942.423-12.03-1.811-14.337,4.141a9.558,9.558,0,0,0-.462,1.5V90.78h5.232V81.051c0-.835,1.8-1,1.8.164V90.78H35.275c-.21-1.257-1.9-3.75-1.965-4.839a.918.918,0,0,1,1.311-.8c.5.246,2.086,4.824,2.452,5.643Z" transform="translate(-9.933 -35.349)" fill="#fff"/>
          <path id="Trazado_1273157" data-name="Trazado 1273157" d="M130.914,108.586v2.7a5.184,5.184,0,0,1-.76,1.039c-.708.575-2.8.912-2.954-.243-.194-1.406,1.787-.437,2.046-1.32.266-.907-.28-4.073.235-4.588.834-.833,2.126,1.074,3.188,1.394.594.18,2.195.011,1.594,1.342-.467,1.036-2.617.087-3.349-.323" transform="translate(-106.39 -88.637)" fill="#fff"/>
          <path id="Trazado_1273158" data-name="Trazado 1273158" d="M102.781,106.141c1.274,1.267-3.1,3.717-4.37,3.148a.858.858,0,0,1-.067-1.533c.583-.326,1.305-.135,2.138-.642.816-.5,1.17-1.669,2.3-.973" transform="translate(-81.894 -88.605)" fill="#fff"/>
          <path id="Trazado_1273159" data-name="Trazado 1273159" d="M120.229,65.268a14.116,14.116,0,0,1,.2,3.962c-.162.867-1.415,1.046-1.591.136a15.564,15.564,0,0,1,.111-4.028,1.026,1.026,0,0,1,1.282-.069" transform="translate(-99.341 -54.436)" fill="#fff"/>
          <path id="Trazado_1273160" data-name="Trazado 1273160" d="M249.99,42.153a7.5,7.5,0,0,1,2.245,1.125.873.873,0,0,1-.772,1.437c-.943-.145-3.421-1.834-1.473-2.562" transform="translate(-208.505 -35.26)" fill="#fff"/>
          <path id="Trazado_1273161" data-name="Trazado 1273161" d="M203.98,16.115c.852-.128,3.5,1.287,2.422,2.267-.734.669-4.274-1.225-2.422-2.267" transform="translate(-170.183 -13.473)" fill="#fff"/>
          <path id="Trazado_1273162" data-name="Trazado 1273162" d="M48.175,37.052a.9.9,0,0,1,1.111.776c.074.74-2.909,2.73-3.167,1.043-.107-.7,1.531-1.721,2.056-1.819" transform="translate(-38.574 -30.978)" fill="#fff"/>
          <path id="Trazado_1273163" data-name="Trazado 1273163" d="M47.089,63.414c.485.022,2.392,1.156,2.333,1.787-.158,1.706-3.515-.1-3.171-1.2a.873.873,0,0,1,.838-.582" transform="translate(-38.668 -53.045)" fill="#fff"/>
          <path id="Trazado_1273164" data-name="Trazado 1273164" d="M.6,37.071c.508-.142,2.564,1.012,2.62,1.554C3.439,40.676.02,38.7,0,37.953a1.205,1.205,0,0,1,.6-.882" transform="translate(0 -30.999)" fill="#fff"/>
          <path id="Trazado_1273165" data-name="Trazado 1273165" d="M205.557,42.108a.923.923,0,0,1,1,1c-.123.8-3.26,2.509-3.177.687.021-.465,1.786-1.623,2.177-1.688" transform="translate(-170.123 -35.215)" fill="#fff"/>
          <path id="Trazado_1273166" data-name="Trazado 1273166" d="M3.14,64.141C4.062,65.261.364,67.451.1,65.612c-.1-.669,2.378-2.277,3.042-1.471" transform="translate(-0.08 -53.468)" fill="#fff"/>
          <path id="Trazado_1273167" data-name="Trazado 1273167" d="M249.37,18.294c-.848-.974,1.75-2.424,2.457-2.219,2.026.587-1.615,3.185-2.457,2.219" transform="translate(-208.454 -13.43)" fill="#fff"/>
          <path id="Trazado_1273168" data-name="Trazado 1273168" d="M230.932,53.268c.321-.323,1.249-.231,1.406.232.247.728.179,3.75-1.209,2.844-.57-.372-.551-2.721-.2-3.077" transform="translate(-192.961 -44.399)" fill="#fff"/>
          <path id="Trazado_1273169" data-name="Trazado 1273169" d="M232.061.2c.321.321.332,2.818-.07,3.078-1.466.947-1.577-1.815-1.328-2.675a.892.892,0,0,1,1.4-.4" transform="translate(-192.86 -0.001)" fill="#fff"/>
          <path id="Trazado_1273170" data-name="Trazado 1273170" d="M28.011,24.01c-.321-.321-.332-2.818.07-3.078,1.466-.947,1.577,1.815,1.328,2.675a.892.892,0,0,1-1.4.4" transform="translate(-23.233 -17.346)" fill="#fff"/>
          <path id="Trazado_1273171" data-name="Trazado 1273171" d="M28.011,77.01c-.321-.321-.332-2.818.07-3.078,1.466-.947,1.577,1.815,1.328,2.675a.892.892,0,0,1-1.4.4" transform="translate(-23.233 -61.68)" fill="#fff"/>
          <path id="Trazado_1273172" data-name="Trazado 1273172" d="M98.262,80.115c1.645-.238,1.195,3.358-.353,2.248-.439-.315-.523-2.121.353-2.248" transform="translate(-81.63 -67.005)" fill="#fff"/>
        </g>
      </g>
    </g>
  </g>
</svg>
