<svg xmlns="http://www.w3.org/2000/svg" xmlns:xlink="http://www.w3.org/1999/xlink" width="85" height="85" viewBox="0 0 85 85">
  <defs>
    <clipPath id="clip-path">
      <rect id="Rectángulo_460568" data-name="Rectángulo 460568" width="67.729" height="68" fill="#8d1939"/>
    </clipPath>
  </defs>
  <g id="Grupo_1210728" data-name="Grupo 1210728" transform="translate(-0.422 -0.436)">
    <path id="Sustracción_110" data-name="Sustracción 110" d="M0,0H85V85H0Z" transform="translate(0.422 0.436)" fill="#ffe19a"/>
    <g id="Grupo_1211028" data-name="Grupo 1211028" transform="translate(8.422 8.436)">
      <g id="Grupo_1211027" data-name="Grupo 1211027" clip-path="url(#clip-path)">
        <path id="Trazado_1273135" data-name="Trazado 1273135" d="M121.429,110.876c.128-.107-1.068-1.547-1.229-1.815-1.892-3.141-2.358-6.838-3.485-10.259L114,98.069a10.755,10.755,0,0,1-12.756.716c-.319-.2-.8-.826-1.02-.859-.418-.063-6.288.984-7.084,1.183a12.258,12.258,0,0,0-8.956,10.726c-.022.324.166,1.041.49,1.041h7.969c.468,0,.942,1.676-.238,1.9a50.845,50.845,0,0,1-8.083,0c-1.96-.348-2.325-2.019-2.091-3.7A14.144,14.144,0,0,1,92.1,97.318c2.607-.743,5.452-.64,8.023-1.554l1.555-3.046c-1.032-.959-4.381-3.278-4.371-4.7.006-.841.913-1.114,1.611-.775.273.132,1.279,1.664,1.681,2.052a9.271,9.271,0,0,0,13.386-.078c1.144-1.22.2-1.585.251-2.947.023-.622.347-.918.407-1.37a11.655,11.655,0,0,0-1.422-6.758c-1.115-1.926-4.72-4.982-2.484-7.265,2.167-2.213,4.583,1.5,6.306,2.462-.311-1.445-.618-3.452-1.5-4.655-1.7-2.308-3.568-.35-5.656.093a12.861,12.861,0,0,1-5.394,0c-1.83-.385-3.666-1.987-5.282-.308-1.207,1.254-2.121,6.294-2.279,8.082a26.133,26.133,0,0,0,0,4.858c.141,1.175,1.335,3.7.139,4.241-1.727.785-1.95-3.121-2.15-4.126A4.363,4.363,0,0,1,92.7,73.42c-1.418-7.4.436-14.444,8.37-16.94,5.851-1.841,10.88.3,16.1,2.654,2.1.388,3.822-2.239,5.726-1.125A2.215,2.215,0,0,1,124,59.649a27.516,27.516,0,0,1-.754,9.731c-.351,1.418-.9,2.85-1.389,4.226a4.474,4.474,0,0,1,.764,6.444c-.817.881-1.8.646-1.607,2.151.1.8.537.6.919,1.051a45.7,45.7,0,0,1,3.765,5.853c.434,1.26-.382,1.963-1.58,1.348L120.5,84.836l-4.057,1.442-.156.343c.97,4.055,1.62,8.189,2.612,12.239,1.014,4.145,2.818,13.785,9.1,11.914,4.757-1.417,3.724-6.087,2.232-9.558-1.217-2.832-3.141-5.474-4.533-8.23a1.06,1.06,0,0,1,.824-1.176c.648-.1.917.271,1.25.721a54.452,54.452,0,0,1,4.252,7.712c2.3,5.169,2.643,10.729-3.937,12.561l-31.512-.126c-.881-.4-.33-1.8.053-1.8Zm-1.415-37.943c1.318-3.959,2.493-8.311,2.022-12.532-.032-.292-.019-.485-.307-.666-4.2,3.069-6.991.178-10.867-1.066-4.337-1.392-8.556-1.289-12.406,1.292-4.265,2.86-4.5,8.067-3.894,12.675l.294.3.665.014c.533-2.782,1.354-6.873,4.892-7.184,2.241-.2,4.264,1.4,6.77,1.375,3.329-.029,5.822-2.849,8.932-.762,1.865,1.252,2.514,4.519,2.933,6.568Zm-3.365,10.912a4.031,4.031,0,0,0,2.358-.907c-.028-2.155.511-3.995-.959-5.808-.47-.58-5.3-4.969-5.684-4.949-.218.011-.311.428-.3.662.038.585,2.448,3.472,2.948,4.33a11.64,11.64,0,0,1,1.633,6.672M95.131,74.9c-3.074.018-3.42,4.272-.4,4.472Zm25.9,3.693c1.409-1.3.168-3.51-1.595-3.694-.382.415,1.755,2.905,1.595,3.694M115.253,91.04l-2.762,1.842c.934,1.735,1.542,3.434,3.757,3.8Zm-4.586,2.526c-2.386.907-4.742.583-7.147.016l-1.6,3.175a8.832,8.832,0,0,0,10.534.023Z" transform="translate(-65.798 -44.935)" fill="#8d1939"/>
        <path id="Trazado_1273136" data-name="Trazado 1273136" d="M11.364.071c9.41-.938,16.683,7.607,13.879,16.465-.162.51-.8,1.533-.833,1.881-.158,1.475,2.611,5.536.092,6.536-1.7.677-4.073-.949-5.665-.965-.588-.006-3.052,1.188-4.348,1.3C-3.442,26.906-5.013,1.7,11.364.071M23.556,23.155c.178-.173-1.248-3.919-1.207-4.762a22.781,22.781,0,0,1,1.065-2.864C25.99,5.9,15.261-1.645,6.678,3.859c-9.865,6.327-3.336,21.9,8.756,19.243,1.036-.228,2.344-1.093,3.249-1.121.877-.027,4.7,1.348,4.874,1.174" transform="translate(-0.001 0)" fill="#8d1939"/>
        <path id="Trazado_1273137" data-name="Trazado 1273137" d="M33.6,23.123c1.022-.114,5.452-.212,5,1.558-.34,1.32-2.392.376-3.252.326-5.383-.313-9.607,5.061-6.166,9.714,2.155,2.913,6.677,3.58,8.816.277,1.631-2.518.271-6.531-3.051-6.294-2.662.19-3.391,4.058-1.369,4.243,1.184.109,1.265-2.906,2.778-1.728,1.275.992-.6,3.379-2.057,3.668-4.982.989-5.2-7.364-.141-8.111,8.28-1.222,8.987,11.677.384,12.431-9.864.865-12.375-14.808-.94-16.085" transform="translate(-20.842 -18.583)" fill="#8d1939"/>
      </g>
    </g>
  </g>
</svg>
