<svg xmlns="http://www.w3.org/2000/svg" xmlns:xlink="http://www.w3.org/1999/xlink" width="85" height="85" viewBox="0 0 85 85">
  <defs>
    <clipPath id="clip-path">
      <rect id="Rectángulo_460569" data-name="Rectángulo 460569" width="68" height="60" fill="#8d1939"/>
    </clipPath>
  </defs>
  <g id="Grupo_1210732" data-name="Grupo 1210732" transform="translate(-0.422 -0.436)">
    <path id="Sustracción_110" data-name="Sustracción 110" d="M0,0H85V85H0Z" transform="translate(0.422 0.436)" fill="#ffe19a"/>
    <g id="Grupo_1211030" data-name="Grupo 1211030" transform="translate(8.422 12.436)">
      <g id="Grupo_1211029" data-name="Grupo 1211029" clip-path="url(#clip-path)">
        <path id="Trazado_1273138" data-name="Trazado 1273138" d="M32.254,122.2l5.635-.752,7.538-11.214L57.47,105.78c1.127-3.706,4.288-3.937,7.129-2.187l-2.839,8.081-11.5,4.205-3.6,9.265h9.058c.524,0,8.86,3.1,9.943,3.567a3.645,3.645,0,0,1,2.367,2.072,3.3,3.3,0,0,1-3.847,4.574c-2.118-.417-6.14-2.7-7.91-2.791-.639-.034-3.608,1.33-3.765,1.2l-.587-2.1c1.213-.062,3.159-1.356,4.219-1.415,1.533-.085,6.591,2.747,8.592,3.054,1.587.243,2.142-1.49.768-2.317-2.713-1.632-7.456-2.169-10.365-3.743H42.188v-2.1l2.359-.129,4.116-10.971L60.1,110.1l1.955-5.355c-2.473-.467-2.337,1.332-3.318,3.041L46.68,112.009l-7.947,11.612-1.394.283v9a21.03,21.03,0,0,0,12.519-.417l.679,1.811c-.057.617-5.678,1.543-6.489,1.58-4.033.188-7.684-1.482-11.694-1.059-4.342.458-9.094,4.261-13.061.218-2.858-2.912-1.466-6.787-1.943-10.524L12.2,118.926a.846.846,0,0,0-.683-.314c-2.559-.366-6.742.569-9.074-.088-2.907-.819-2.889-5.9.9-6.4,3.466-.455,7.69.253,11.235.021L26.41,122.2v-9.993a4.481,4.481,0,0,1,.985-1.46,2.871,2.871,0,0,1,3.93.09,10.279,10.279,0,0,1,.928,1.581Zm-5.844,3.79,1.877,2.085,1.987-1.807-.112-13.485-.376-.437c-.62-.151-1.3-.06-1.423.709l-.046,11.311ZM2.976,114.458c-.82.26-.743,1.959.2,2.014l9.656.09,3.546,3.74,1.836-2.024c.078-.481-3.6-3.405-4.215-3.818ZM19.882,119.5l-2.029,2.353c.345.629,1.418,1.241,1.54,1.927.619,3.5-1.6,8.979,2.789,10.6l4.614-4.711-2.042-2.006c-.55.061-1.621,1.686-2.05,1.382l-.956-1.669,3.486-3.162Zm15.488,4.59-3.118.209-.183,3.063L25.242,134.3c.127.252.572.048.786.008,1.542-.288,5.175-1.8,6.323-1.8h3.019Z" transform="translate(-0.3 -80.967)" fill="#8d1939"/>
        <path id="Trazado_1273139" data-name="Trazado 1273139" d="M197.095,16.226c-.5.371-1.422-2.052-2.135-1.891l-6.34,7.988-1.365-1.476-.06-.462,4.868-16.013c.274-.32,1.615-2.048,1.916-1.817l1.659,2.309L199.71.037l4.6,5.988Zm-6.617.422,4.771-5.676,1.558,1.884,4.88-6.525c.276-.6-1.592-2.195-1.856-2.846-.379-.226-.828.462-1.078.748a38.731,38.731,0,0,0-2.826,3.788c-.695.168-1.947-2.474-2.333-2.1Z" transform="translate(-150.73 -0.029)" fill="#8d1939"/>
        <path id="Trazado_1273140" data-name="Trazado 1273140" d="M84.354,2.525,86.26,4.143l4.817,16.675L90,22.3l-6.623-7.992c-.709-.163-1.64,2.269-2.135,1.891l-2.912-4.129,1.447-1.546,1.753,2.307,1.558-1.886,4.771,5.676L84.738,5.891c-.386-.372-1.638,2.27-2.332,2.1-.29-.67-3.428-4.7-3.781-4.618l-2.041,2.66,1.7,2.525-1.274,1.3a20.2,20.2,0,0,1-2.963-3.694.541.541,0,0,1,.069-.478L78.61,0l4.084,4.834Z" transform="translate(-59.604)" fill="#8d1939"/>
        <path id="Trazado_1273141" data-name="Trazado 1273141" d="M20.092,209.738c4.282-.665,8.661.988,7.792,6.522-.8,5.069-8.647,5.552-11.025,1.7-1.936-3.139-.219-7.683,3.232-8.22m.386,2.1c-2.764.5-3.347,4.749-.8,6.027,2.575,1.294,7.007.251,6.265-3.612-.5-2.6-3.493-2.772-5.46-2.415" transform="translate(-12.924 -165.506)" fill="#8d1939"/>
        <path id="Trazado_1273142" data-name="Trazado 1273142" d="M230.421,88.013l.36,2.054c-.964.857-1.752,1.748-3.175,1.743-.592,0-1.157-.313-1.706-.2-.746.16-1.449,1.572-2.82,1.808-.9.155-1.83-.32-2.444-.121-.288.093-1.013,1.019-1.516,1.315-1.435.845-2.164.376-3.681.321l-.4-2.095c.2-.212,2.177.227,2.684.077.754-.222,1.276-1.324,2.218-1.62,1.154-.362,1.954.168,2.741.033.931-.159,1.558-1.5,2.479-1.759,1.052-.3,1.985.188,2.739.031,1.021-.212,1.375-1.711,2.517-1.595" transform="translate(-173.154 -69.492)" fill="#8d1939"/>
        <path id="Trazado_1273143" data-name="Trazado 1273143" d="M154.965,270.919l-.008,2.306c-1.323.243-2.068.93-3.552.593-.554-.126-1.07-.716-1.8-.694-1,.029-1.572.985-3.314.746-.729-.1-1.312-.727-1.939-.746-.729-.021-1.246.569-1.8.694-1.407.319-2.31-.261-3.572-.705l.012-2.194c.945-.153,1.731.864,2.628.868.782,0,1.386-.8,2.342-.873,1.37-.106,2.135.908,3.109.863.925-.043,1.557-.968,2.922-.863.914.071,1.531.826,2.146.867.921.061,1.83-1.047,2.824-.862" transform="translate(-111.909 -213.909)" fill="#8d1939"/>
        <path id="Trazado_1273144" data-name="Trazado 1273144" d="M15.98,125.823l-.031,2.071c-1.2.639-2.115,1.143-3.528.827-.575-.129-1.149-.837-1.783-.792-.479.034-1.181.671-1.814.789-1.962.364-2.478-.8-3.46-.8-.679,0-1.21.675-1.8.806A4.313,4.313,0,0,1,0,127.786l.008-1.964c.97-.286,1.784.855,2.63.855.659,0,1.453-.775,2.339-.856,1.506-.138,2.233.856,3.115.856.688,0,1.277-.722,1.959-.84,1.755-.3,2.294.84,3.3.84.778,0,1.718-1.065,2.629-.854" transform="translate(0 -99.317)" fill="#8d1939"/>
        <path id="Trazado_1273145" data-name="Trazado 1273145" d="M292.66,192.393l-.619,1.855c-1.446.282-2.444.509-3.732-.421-.547-.395-.872-1.109-1.536-1.305-.573-.17-1.522.177-2.347.027-1.349-.245-1.655-1.471-2.47-1.747-1.023-.347-1.988.429-2.937-.2l.614-1.966c1.317-.07,2.2-.4,3.424.348.879.54,1.063,1.544,2.3,1.536.986-.007,1.256-.412,2.434.089.956.407,1.388,1.569,2.294,1.746.79.155,1.7-.492,2.579.041" transform="translate(-224.668 -148.844)" fill="#8d1939"/>
        <path id="Trazado_1273146" data-name="Trazado 1273146" d="M161.766,35.922c4.858-.972,4.98,6.779.341,6.267-3.246-.358-3.353-5.665-.341-6.267m.385,2.089a1.12,1.12,0,0,0,.049,1.979c1.709.6,1.747-2.553-.049-1.979" transform="translate(-128.5 -28.298)" fill="#8d1939"/>
        <path id="Trazado_1273147" data-name="Trazado 1273147" d="M106.933,91.994l0,2.106,1.961.091.155,1.878c-.19.628-1.611.25-2.116.344l0,2.106h-1.95l0-2.106-1.95,0V94.1l1.95,0,0-2.106Z" transform="translate(-82.964 -72.641)" fill="#8d1939"/>
        <path id="Trazado_1273148" data-name="Trazado 1273148" d="M176.749,143.024c.377,1.454,1.075,2.167.756,3.821-.123.635-.746,1.209-.746,1.94,0,.868,1.066,1.99.791,3.05l-1.83.013c-.563-1.412-1.112-2.219-.851-3.856.114-.715.767-1.535.731-2.138-.045-.734-1.069-1.867-.778-2.856Z" transform="translate(-140.726 -112.917)" fill="#8d1939"/>
      </g>
    </g>
  </g>
</svg>
