<svg xmlns="http://www.w3.org/2000/svg" xmlns:xlink="http://www.w3.org/1999/xlink" width="85" height="85" viewBox="0 0 85 85">
  <defs>
    <clipPath id="clip-path">
      <rect id="Rectángulo_460564" data-name="Rectángulo 460564" width="61" height="68" fill="#8d1939"/>
    </clipPath>
  </defs>
  <g id="Grupo_1210727" data-name="Grupo 1210727" transform="translate(-0.422 -0.436)">
    <path id="Sustracción_110" data-name="Sustracción 110" d="M0,0H85V85H0Z" transform="translate(0.422 0.436)" fill="#ffe19a"/>
    <g id="Grupo_1211020" data-name="Grupo 1211020" transform="translate(16.422 -70.564)">
      <g id="Grupo_1211019" data-name="Grupo 1211019" transform="translate(-4 79)" clip-path="url(#clip-path)">
        <path id="Trazado_1273112" data-name="Trazado 1273112" d="M40.352,7.819H46.9c6.822,0,13.3,6.8,13.839,13.48.807,9.922-.551,20.956-.052,30.991-.754,4.195-4.628,6.616-8.745,6.2-.291.294.191,7.047-.011,8.29-.12.74-.575,1.3-1.37,1.211L9.813,67.934c-.468-.162-.531-.477-.59-.917-.183-1.381.3-7.99-.084-8.541-.946-.442-2.117-.073-3.182-.253C3,57.722.282,54.281.211,51.275c.526-9.5-.673-19.71,0-29.125.5-7.038,6.757-14.331,14.065-14.331h6.546V1.242c0-.807,1.458-.94,2.03-.98a118.976,118.976,0,0,1,15.89.01c.51.054,1.61.345,1.61.97ZM37.991,2.644H23.183v8.3a14.042,14.042,0,0,0,.984,2.246,7.5,7.5,0,0,0,12.841,0,14.04,14.04,0,0,0,.984-2.246Zm20.6,26.09v-7.87a19.28,19.28,0,0,0-.973-2.9c-2.876-6.824-9.884-8.648-16.743-7.781-.235.03-.482-.019-.643.217-1.636,11.626-17.774,11.462-19.4-.113-5.808-.458-11.353-.356-15.362,4.432-.953,1.138-2.895,4.735-2.895,6.148v7.87h9.336A2.678,2.678,0,0,1,13.1,29.92V45.769H23.183a8.38,8.38,0,0,1,14.808,0H48.078V29.92a2.678,2.678,0,0,1,1.18-1.186ZM10.735,31.106H2.58V52.345a15.45,15.45,0,0,0,.806,1.562A5.182,5.182,0,0,0,7.2,56.116c7.7-.5,16.23.67,23.827.01a6.448,6.448,0,0,0,5.87-6.771,6.335,6.335,0,0,0-10.845-3.942c-.643.648-1.327,2.357-2.12,2.506l-12.546-.107a5.567,5.567,0,0,1-.648-.643Zm47.859,0H50.439V47.17c0,.538-.747.708-1.177.754-1.705.185-9.464-.335-10.209.1l-.149.213a8.433,8.433,0,0,1-2.415,7.88H54.624c1.02,0,2.713-1.473,3.251-2.34a15.075,15.075,0,0,0,.72-1.433ZM49.581,58.49H11.594v7.331H49.581Z" transform="translate(0 0)" fill="#8d1939"/>
        <path id="Trazado_1273113" data-name="Trazado 1273113" d="M181.1,113.9c1.131.356,3.965.769,3.862,2.252a39.66,39.66,0,0,1-4.295,6.048,1.118,1.118,0,0,1-1.579-1.352c.235-.813,2.942-3.931,2.87-4.247-.884-.769-4.081-1-3.829-2.544a62.177,62.177,0,0,1,3.954-5.744c.288-.334.848-1.066,1.281-1.108,3.591.607-2.868,6.006-2.265,6.694" transform="translate(-139.888 -84.09)" fill="#8d1939"/>
        <path id="Trazado_1273114" data-name="Trazado 1273114" d="M131.008,108.649h3.756c.521,0,.554,1.182.517,1.592a62.168,62.168,0,0,1-1.961,7.2c-4.067,1.274-.5-4.751-.595-6.634h-3.541c-.433,0-.927-.961-.912-1.365.76-1.458,1.02-5.359,1.866-6.516a1.179,1.179,0,0,1,1.725-.2c.978.956-1.019,4.559-.855,5.925" transform="translate(-100.742 -80.346)" fill="#8d1939"/>
        <path id="Trazado_1273115" data-name="Trazado 1273115" d="M77.791,119.034c.285.305,3.974-2,4.615-.649l.755,6.584c0,1.534-1.836,1.992-2.27.544-.225-.749-.2-4.732-.533-4.965-1.518.118-3.053,1.79-4.517.714L75,113.745a1.274,1.274,0,0,1,1.351-1.36,1.351,1.351,0,0,1,.582.292c.765.752.53,5.1.864,6.357" transform="translate(-58.9 -88.143)" fill="#8d1939"/>
      </g>
    </g>
  </g>
</svg>
