<svg xmlns="http://www.w3.org/2000/svg" xmlns:xlink="http://www.w3.org/1999/xlink" width="85" height="85" viewBox="0 0 85 85">
  <defs>
    <clipPath id="clip-path">
      <rect id="Rectángulo_460566" data-name="Rectángulo 460566" width="50.754" height="68" fill="#8d1939"/>
    </clipPath>
  </defs>
  <g id="Grupo_1210731" data-name="Grupo 1210731" transform="translate(-0.422 -0.436)">
    <path id="Sustracción_110" data-name="Sustracción 110" d="M0,0H85V85H0Z" transform="translate(0.422 0.436)" fill="#ffe19a"/>
    <g id="Grupo_1211024" data-name="Grupo 1211024" transform="translate(17.422 9.436)">
      <g id="Grupo_1211023" data-name="Grupo 1211023" clip-path="url(#clip-path)">
        <path id="Trazado_1273119" data-name="Trazado 1273119" d="M33.849,27.8c.713-.2,1.24-1.9-.207-2.122-2.687-.412-3.357,1.025-3.285-2.928-.593-.512-1.263-.47-1.943-.969a3.369,3.369,0,0,1-.852-4.343c.514-1.1,2.624-3.106,2.841-3.954a27.986,27.986,0,0,0,.05-4.421c-.128-.667-1.144-.6-1.69-.834-2.7-1.164-5.141-4-4.7-7.113.119-.843.457-.826,1.235-.892,8.3-.7,17.6.521,26,.032a7.583,7.583,0,0,1,6.536,6.472c-.459,5.048.608,11.152-.058,16.072a7.516,7.516,0,0,1-3.5,5.039c-.661.4-3.666,1.468-3.792,1.838l-.038,8.866,14.9,5.725a3.052,3.052,0,0,1,2.012,2.648l-.1,20.689-.478.3L22.191,68a1.277,1.277,0,0,1-1.456-1.456c.364-6.139-.454-12.771,0-18.85a3.547,3.547,0,0,1,2.294-3.531l14.8-5.489V34.206H33.461a3.554,3.554,0,0,1-2.918-2.13c-.164-.628-.314-4.277.394-4.277a20.518,20.518,0,0,0,2.912,0M65.2,65.853V46.729a2.025,2.025,0,0,0-.775-.584c-4.712-2.27-10.582-3.527-15.387-5.776l-.689-.67V28.519c.254-.867,3.538-1.8,4.467-2.328a5.415,5.415,0,0,0,2.872-3.923c.533-4.931-.362-10.842-.047-15.875-.282-1.708-2.6-4.026-4.322-4.026H26.18A5.807,5.807,0,0,0,29.718,6.3c.884.284,2.5.137,2.669,1.019.364,1.936-.25,4.917,0,6.974-.443,1.328-3.149,3.611-3.112,4.856.058,1.972,2.4.843,2.946,1.542l.175,2.835c1.915-.229,3.407.347,4.207,2.143,2.188.285,6.293-.827,7.834,1.057a7.819,7.819,0,0,1,.774,1.556V47.02l.868-1.365c3.649-2.9,9.186,1.293,9.618,5.343a69.071,69.071,0,0,1-.014,10.279,3.383,3.383,0,0,1-2.6,2.443c-3.624.443-7.43-2.76-7.847-6.335-.181-1.548.306-4.531-.061-5.764a4.063,4.063,0,0,0-1.025-1.059,1.885,1.885,0,0,0-1.027,1.054c-.523,2.813.616,5.3-.909,8.225-2,3.839-9.321,6.252-9.82.484-.277-3.2-.379-9.613,1.322-12.282,1.557-2.443,6.782-5.079,8.748-2.06.27.415.276,1,.615,1.23V28.479a1.9,1.9,0,0,0-.878-.675c-1.512-.289-3.822.2-5.433-.005-.562.106-.562.747-.969,1.167a4.284,4.284,0,0,1-3.4.969c-.385,3.474,4.544,1.731,6.7,2.14.608.116.819.705.882,1.253a39.708,39.708,0,0,1-.092,6.324,1.336,1.336,0,0,1-.392.579L23.714,46.2a1.974,1.974,0,0,0-.834.913V65.853ZM38.947,46.878a5.461,5.461,0,0,0-4.059,3.51c-.547,1.646-.581,8.06-.363,9.936.276,2.375,3.526.965,4.649-.019,3.054-2.675,1.3-8.954,1.757-12.6-.3-1-1.083-.952-1.984-.827m8.636.189c-.214.214-.223.713-.248,1.013a65.26,65.26,0,0,0,0,8.753A5.277,5.277,0,0,0,50,60.964c.968.511,3.36,1.3,3.566-.248.2-1.522.174-9.019-.194-10.308A5.6,5.6,0,0,0,50.9,47.443c-.7-.356-2.711-.981-3.317-.377" transform="translate(-16.596 0)" fill="#8d1939"/>
        <path id="Trazado_1273120" data-name="Trazado 1273120" d="M.071,136.546c.369-1.838,3.035-2.6,4.66-2.235-.947-.985-.48-2.518.981-2.049a18.123,18.123,0,0,1,2.524,2.331,1.21,1.21,0,0,1,0,1.381,30.176,30.176,0,0,1-2.243,2.22c-1.3.926-2.41-.712-1.261-1.744l-2.137.094c-1.009.49.531,4.128-1.649,4-.266-.016-.874-.282-.874-.5a25.485,25.485,0,0,1,0-3.495" transform="translate(0 -106.514)" fill="#8d1939"/>
        <path id="Trazado_1273121" data-name="Trazado 1273121" d="M4.342,81.236c-.39,3.406,1.688,2.207,3.947,2.7.61.963.467,1.828-.741,1.957-3.568.381-5.607-.809-5.149-4.659-.775.343-1.487.722-2.1-.13a1.728,1.728,0,0,1,.008-.9c.117-.386,2.682-2.858,3.134-2.815.922.648,3.417,2.527,3.009,3.714-.621.855-1.331.471-2.1.13" transform="translate(-0.193 -62.366)" fill="#8d1939"/>
      </g>
    </g>
  </g>
</svg>
