<svg xmlns="http://www.w3.org/2000/svg" xmlns:xlink="http://www.w3.org/1999/xlink" width="187.711" height="164.008" viewBox="0 0 187.711 164.008">
  <defs>
    <clipPath id="clip-path">
      <rect id="Rectángulo_460586" data-name="Rectángulo 460586" width="147.924" height="147.383" fill="none"/>
    </clipPath>
  </defs>
  <g id="Grupo_1211051" data-name="Grupo 1211051" transform="translate(-289.711 -4102)">
    <g id="Grupo_1210789" data-name="Grupo 1210789" transform="translate(0.434 -4766.039)">
      <g id="Grupo_1204518" data-name="Grupo 1204518" transform="translate(289.277 8868.039)">
        <rect id="Rectángulo_455283" data-name="Rectángulo 455283" width="187.711" height="164.008" rx="19" fill="#e9c3ff"/>
      </g>
    </g>
    <g id="Grupo_1211050" data-name="Grupo 1211050" transform="translate(309.711 4110)">
      <g id="Grupo_1211049" data-name="Grupo 1211049" clip-path="url(#clip-path)">
        <path id="Trazado_1273232" data-name="Trazado 1273232" d="M138.051,52.358c-.55-.522,3.067-3.553,3.534-4.216,4.962-7.043.475-17.332-8.147-18C146.776,18.048,129.684.1,117.3,13.369c-1.2-3.128-2.046-5.6-4.858-7.709-9.23-6.924-16.683,2.1-22.508,8.455-5.341,4.7-18.293,17.961-21.7,21.47-.358.368-.506,1.171-.817,1.268-1.416.445.158-3.427.216-3.98,1.333-12.847-15.341-18-21.723-7.056L32.442,75.56c-.277.512-2.806.181-3.295,1.822a45.481,45.481,0,0,0-.1,7.486c.133.947.792,1.484.854,2.091.037.352-.512,5.376-.63,5.634L2.007,120.661c.044,1.607.033,3.263-.006,4.944l3-2.666,41.58,22.476h-.911l3.642,3.282,18.318-17.735c3.315-1.011,2.439.143,3.566,1.442,2.158,2.488,4.185-1.561,5.347-2.207,1.307-.725,3.863-.912,5.548-1.543,1.263-.473,9.435-3.635,9.832-3.991.578-.517.578-1.363.979-1.758,17.251-16.946,35.009-33.6,51.858-51.044,6.59-6.843,2.78-18.522-6.714-19.5" transform="translate(-1.152 -1.822)" fill="#fed4b4"/>
        <path id="Trazado_1273235" data-name="Trazado 1273235" d="M134.994,212.509c0,9.026-6.177,16.343-13.8,16.343s-13.8-7.317-13.8-16.343,6.177-16.343,13.8-16.343,13.8,7.317,13.8,16.343" transform="translate(-61.81 -112.894)" fill="#8d1939"/>
        <path id="Trazado_1273233" data-name="Trazado 1273233" d="M132.252,142.6a2.972,2.972,0,0,1,.942,2.09c-1.9,4.67-4.324-.221-7.337-.09-1.865.081-3.3,2.173-4.669,2.1-1.967-.1-2.772-3.2-6.437-1.734-1.52.607-2.874,3.059-4.671.913-3.019-3.6,4.967-5.982,8-5.45,1.04.182,2.28,1.139,3.07,1.139s2.032-.956,3.071-1.14c2.5-.444,6.215.323,8.031,2.167" transform="translate(-62.965 -80.75)"/>
        <path id="Trazado_1273234" data-name="Trazado 1273234" d="M137.781,49.818c-.557-.529,3.106-3.6,3.579-4.27,5.025-7.133.481-17.553-8.251-18.231,13.508-12.246-3.8-30.426-16.343-16.984-1.217-3.167-2.072-5.672-4.919-7.807C102.4-4.563,94.786,4.858,88.86,11.3c-1.085,2.2.411,3.924,2.772,3.2,1.429-.435,6.793-7.2,8.819-8.591,7.365-5.048,15.411,4.005,9.958,10.807L79.6,47.461a2.144,2.144,0,1,0,3.427,2.578l38.481-38.35c7-5.37,15.55,2.516,10.749,9.9L92.967,61.26c-.914,2.494,1.261,3.857,3.447,2.589l31.452-31.371c7.4-3.734,14.486,3.928,9.673,10.947L106.77,74.2c-1.351,2.325.383,4.656,2.8,3.229,7.105-6.243,13.579-14.879,20.767-20.831,8.315-6.887,16.8,1.985,11.914,8.943L91.938,115.618a9.571,9.571,0,0,0-.326-3.711c-.174-.436-5.268-7.211-5.646-7.513-1.424-1.141-10.466-2.929-10.614-3.468l-.4-6.106a5.714,5.714,0,0,0,3.8-.658c.9-.566,10.034-9.808,10.311-10.49.763-1.88,1.175-10.045-2.014-10.045-3.753,0-1.636,6.424-2.555,8.448a110,110,0,0,1-8.276,8.277c-3.352,1.5-3.319-1.493-5.028-3.491-.205-.524.073-.8.337-1.188,1.932-2.877,7.584-5.964,8.329-9.51.513-2.44.484-10.362.188-12.97A5.025,5.025,0,0,0,79,60.415c-1.054-1.492-6.525-7.367-8.089-4.229-1.362,2.733,3.17,5.069,4.377,7.093l.078,11.79c-.627,1.288-7.622,8.362-8.217,8.263-1.794-.3-.574-3.846-.683-5.279-.146-1.9-1.614-3.338-1.7-4.263-.152-1.665,1.822-6.5-1.087-6.989s-2.846,2.013-2.741,4.242a9.352,9.352,0,0,0-5.09,0c.793-5.628-5.322-5.977-4.64.176.093.843.822,1.864.716,2.515s-1.346,1.951-1.557,3.5a15.513,15.513,0,0,0,.341,4.992l-1.451,1.017L41,74.644l.078-11.365c.352-1.186,8.084-6.55,3.77-7.759-2.9-.813-3.4,1.975-5.55,3.214l8.6-32.788c3.161-7.752,14.707-5.075,14.337,2.842-.152,3.269-3.012,8.726-2.933,11.5.076,2.678,2.945,3.281,5.051,1.69,3.8-2.868,17.283-16.363,20.162-20.162,2.338-3.085-.194-5.43-3.4-2.977-4.028,3.082-10.233,10.08-14.038,14-.363.373-.513,1.186-.827,1.285-1.434.451.16-3.471.218-4.031,1.35-13.01-15.537-18.232-22-7.146L30.829,73.315c-.28.519-2.841.183-3.337,1.845a46.069,46.069,0,0,0-.106,7.581c.135.96.8,1.5.865,2.117.037.356-.519,5.445-.638,5.706L.006,118.99c.045,1.628.034,3.3-.006,5.007l7.585-6.73,24.39-25.312.106-3.078c3.466,1.319,4.911,6.706,9.339,5.939l-.088,5.689c-.28,1.233-8.766,2.569-10.518,3.872-.384.285-5.547,7-5.722,7.438-.408,1.016-.433,8.191-.25,9.555.323,2.407,3.146,2.921,4.056,1.041.831-1.718-.26-6.367.313-8.6a54.568,54.568,0,0,1,4.107-5.656c.685-.54,8.544-2.981,8.922-2.708a2.959,2.959,0,0,1,.256,2.089c-.655,1.49-6.067,5.191-6.51,6.684l-.078,8.818a1.75,1.75,0,0,0,.392.881c.488.85,7.62,7.609,8.355,7.711,2.173.3,2.722-1.828,1.961-3.593-.811-1.879-5.94-5.276-6.385-6.775-.324-1.089-.245-4.906.314-5.879.285-.5,4.028-4.048,4.422-3.979,3.686,4.388,11.209,8.33,16.939,6.238,2.092-.763,1.013-4.146.1-4.146H55.639c-1.782,0-5.847-3.422-6.994-4.892-7.77-9.96-.109-26.913,13.384-23.147,7.792,2.175,10.646,12.5,8.034,19.539-.666,1.791-4.56,6.131-1.177,7.159,1.677.509,2.265-1.151,3.51-.588.247.112,3.708,3.561,3.855,3.816.559.974.638,4.79.315,5.879a14,14,0,0,1-3.188,3.18c-2.6.812-6.957-.124-9.017,1.171L45.875,144.059H44.23l3.688,3.324,18.551-17.961c3.357-1.024,2.471.145,3.611,1.46,2.186,2.52,4.238-1.581,5.415-2.235,1.324-.735,3.913-.924,5.619-1.563,1.279-.48,9.555-3.682,9.957-4.042.585-.523.585-1.381.992-1.781,17.47-17.162,35.454-34.027,52.518-51.693,6.674-6.93,2.816-18.758-6.8-19.751M40.443,90.483a83.1,83.1,0,0,1-7.3-7.136,3.2,3.2,0,0,1-.123-2.221L36.748,68.5v8.278c.415,1.926,8.979,8.4,8.855,9.69-1.435,2.119-1.973,4.981-5.161,4.017m21.311-9.71-6.772-.142c-2.539-7.436,9.206-7.044,6.772.142M80.9,122.41v-7.853c0-1.4-6.982-6.221-6.823-8.057a1.02,1.02,0,0,1,1.064-1.063,61.35,61.35,0,0,1,8.042,2.592,50.235,50.235,0,0,1,4.316,5.872c1.781,6.019-2.1,6.632-6.6,8.509" transform="translate(0 0)"/>
      </g>
    </g>
  </g>
</svg>
