<svg xmlns="http://www.w3.org/2000/svg" xmlns:xlink="http://www.w3.org/1999/xlink" width="96" height="96" viewBox="0 0 96 96">
  <defs>
    <clipPath id="clip-path">
      <rect id="Rectángulo_455595" data-name="Rectángulo 455595" width="96" height="96" fill="none"/>
    </clipPath>
    <clipPath id="clip-path-2">
      <rect id="Rectángulo_460579" data-name="Rectángulo 460579" width="51.5" height="46.769" fill="#fff"/>
    </clipPath>
  </defs>
  <g id="Grupo_1210783" data-name="Grupo 1210783" transform="translate(-735.746 -9118)">
    <g id="Grupo_1180407" data-name="Grupo 1180407" transform="translate(735.746 9117.971)">
      <g id="Grupo_1179172" data-name="Grupo 1179172" transform="translate(0 0.03)" clip-path="url(#clip-path)">
        <path id="Trazado_998483" data-name="Trazado 998483" d="M92.627,52.5A40.125,40.125,0,1,1,52.5,12.377,40.125,40.125,0,0,1,92.627,52.5" transform="translate(-4.488 -4.517)" fill="#8d1939"/>
        <path id="Trazado_998485" data-name="Trazado 998485" d="M90.973,46.487A44.486,44.486,0,1,1,46.487,2,44.486,44.486,0,0,1,90.973,46.487Z" transform="translate(1.527 1.499)" fill="none" stroke="#8d1939" stroke-miterlimit="10" stroke-width="4"/>
      </g>
    </g>
    <g id="Grupo_1180408" data-name="Grupo 1180408" transform="translate(755.746 9137)">
      <g id="Grupo_1099618" data-name="Grupo 1099618" transform="translate(0 0.164)">
        <rect id="Rectángulo_401104" data-name="Rectángulo 401104" width="56.349" height="57.028" transform="translate(0)" fill="none"/>
      </g>
      <g id="Grupo_1211040" data-name="Grupo 1211040" transform="translate(2 5.164)">
        <g id="Grupo_1211039" data-name="Grupo 1211039" clip-path="url(#clip-path-2)">
          <path id="Trazado_1273203" data-name="Trazado 1273203" d="M28.922,37.332v4.131h4.057a8.179,8.179,0,0,1,1.5.564,4.549,4.549,0,0,1,2.414,3.561L47.87,45.6c.676.075.957.643.378,1.1L3.477,46.77c-.792-.15-.669-1.13.153-1.166l10.975-.016a4.549,4.549,0,0,1,2.414-3.561,8.179,8.179,0,0,1,1.5-.564h4.057V37.332H2.883A3.484,3.484,0,0,1,.008,34.306L0,3.026A3.283,3.283,0,0,1,3.024,0h45.3A3.24,3.24,0,0,1,51.5,3.026l-.005,31.43a3.364,3.364,0,0,1-1.667,2.464,12.02,12.02,0,0,1-1.21.413ZM2.621,1.221a2.032,2.032,0,0,0-1.366,1.29L1.3,34.932a1.971,1.971,0,0,0,1.24,1.121l45.788.105a2.113,2.113,0,0,0,1.918-1.327l.075-31.806A1.94,1.94,0,0,0,48.99,1.257ZM27.889,37.332H23.611v4.131h4.278Zm7.967,8.262a3.934,3.934,0,0,0-2.89-2.938c-4.556.236-9.5-.358-14.009-.019a3.722,3.722,0,0,0-3.313,2.957Z" transform="translate(0 -0.001)" fill="#fff"/>
          <path id="Trazado_1273204" data-name="Trazado 1273204" d="M21.563,20.045l42.9-.04a1.519,1.519,0,0,1,1.431.782l.119,26.155a1.444,1.444,0,0,1-1.549,1.4h-42.5a1.7,1.7,0,0,1-1.431-.782l-.045-26.673a1.387,1.387,0,0,1,1.075-.843M49.78,21.191H21.6V26.8h7.377c.319-.553,1.189-5.014,2.179-3.138.767,1.453,1.134,3.676,1.878,5.2l.22.147c.543-3.047,1.638-2.9,2.288,0a1.017,1.017,0,0,0,.3-.442c.674-1.426,1.014-3.551,1.73-4.908.115-.219.218-.381.49-.409.339-.031.483.141.624.409.806,1.534,1.073,3.724,1.95,5.279l.96-2.141H49.78Zm15.048,0H50.961V47.156H64.607ZM29.5,27.977H21.6v5.606H49.78V27.83H42.256c-.329.62-.866,4.316-2.005,3.406l-1.98-5.471c-.333-.061-.234.017-.328.188-.731,1.335-1.1,3.575-1.769,5.016-.845,1.464-1.6-1.145-1.739-1.809l-.875,2a.565.565,0,0,1-.834.079c-.416-.33-1.6-4.681-1.98-5.471-.377-.06-.229.033-.307.207-.224.5-.371,1.911-.945,2.006m5.68,6.786H21.6V47.156h2.213V45.017A4.884,4.884,0,0,1,25.731,42.2a3.053,3.053,0,0,1,3.578-4.746,3.146,3.146,0,0,1,1,4.827,4.135,4.135,0,0,1,1.918,2.437v2.434h2.951Zm14.605,0H36.208V47.156H49.78ZM27.613,38.335c-1.782.342-1.917,3.208-.3,3.622,3.435.875,3.253-4.189.3-3.622m3.578,8.821a4.79,4.79,0,0,0-.66-3.25,4.46,4.46,0,0,0-1.095-.959c-.225-.05-.643.2-.974.226-1.331.094-1.874-.623-2.877.664A8.967,8.967,0,0,0,25,44.869v2.287Z" transform="translate(-17.465 -17.054)" fill="#fff"/>
          <path id="Trazado_1273205" data-name="Trazado 1273205" d="M246.553,42.043c.51.153.424,2.8.369,3.322-.078.741-.254.756-.953.815a56.986,56.986,0,0,1-7.094,0,1.892,1.892,0,0,1-.855-.142c-.351-.221-.468-3.566.123-3.995Zm-.811,1.18h-6.786v1.77h6.786Z" transform="translate(-202.657 -35.84)" fill="#fff"/>
          <path id="Trazado_1273206" data-name="Trazado 1273206" d="M238.64,123.455a.734.734,0,0,1,.11-.924l10.121.062c.513.631.086.97-.6,1.049a64.462,64.462,0,0,1-8.861,0c-.217-.016-.63-.032-.77-.19" transform="translate(-203.34 -104.454)" fill="#fff"/>
          <path id="Trazado_1273207" data-name="Trazado 1273207" d="M239.548,143.223c-.08-.013-.23-.146-.345-.172v-.836c.106-.022.291-.172.345-.172h9.737a.909.909,0,0,1,.376.524c.078.189-.268.656-.376.656Z" transform="translate(-203.913 -121.087)" fill="#fff"/>
          <path id="Trazado_1273208" data-name="Trazado 1273208" d="M239.548,163.223c-.08-.013-.23-.146-.345-.172v-.836c.106-.022.291-.172.345-.172h9.737a.909.909,0,0,1,.376.524c.078.189-.268.656-.376.656Z" transform="translate(-203.913 -138.137)" fill="#fff"/>
          <path id="Trazado_1273209" data-name="Trazado 1273209" d="M239.548,183.223c-.08-.013-.23-.146-.345-.172v-.836c.106-.022.291-.172.345-.172h9.737a.909.909,0,0,1,.376.524c.078.189-.268.656-.376.656Z" transform="translate(-203.913 -155.186)" fill="#fff"/>
          <path id="Trazado_1273210" data-name="Trazado 1273210" d="M243.654,82.649c-.274.271-3.717.243-4.3.168-.707-.09-.6-.379-.463-1.027.074-.111.187-.116.3-.138a30.673,30.673,0,0,1,4.127,0,.6.6,0,0,1,.5.395.8.8,0,0,1-.163.6" transform="translate(-203.557 -69.549)" fill="#fff"/>
          <path id="Trazado_1273211" data-name="Trazado 1273211" d="M243.654,102.649c-.274.271-3.717.243-4.3.168-.707-.09-.6-.379-.463-1.027.074-.111.187-.116.3-.138a30.674,30.674,0,0,1,4.127,0,.6.6,0,0,1,.5.395.8.8,0,0,1-.163.6" transform="translate(-203.557 -86.598)" fill="#fff"/>
          <path id="Trazado_1273212" data-name="Trazado 1273212" d="M150.392,134.7a2.889,2.889,0,0,1,.48,3.107,39.5,39.5,0,0,1-4.221,4.347c-.282.073-.5-.129-.707-.276a33.822,33.822,0,0,1-3.4-3.388,2.731,2.731,0,0,1,3.861-3.855,2.984,2.984,0,0,1,3.985.067m-6.336.423a1.739,1.739,0,0,0-1.132,1.389c-.08,1.252,2.688,3.194,3.482,4.175l3.5-3.555a1.609,1.609,0,0,0-2.124-1.975c-.561.176-.63.877-1.393.834s-.842-1.212-2.33-.869" transform="translate(-120.932 -114.134)" fill="#fff"/>
        </g>
      </g>
    </g>
  </g>
</svg>
