<svg xmlns="http://www.w3.org/2000/svg" xmlns:xlink="http://www.w3.org/1999/xlink" width="150" height="150" viewBox="0 0 150 150">
  <defs>
    <clipPath id="clip-path">
      <rect id="Rectángulo_460602" data-name="Rectángulo 460602" width="75" height="74.891" fill="#6a2874"/>
    </clipPath>
  </defs>
  <g id="Grupo_1212909" data-name="Grupo 1212909" transform="translate(-721.912 -734.072)">
    <g id="Grupo_1210453" data-name="Grupo 1210453" transform="translate(160.201 -7833.012)">
      <g id="Grupo_1207828" data-name="Grupo 1207828" transform="translate(561.711 8567.084)">
        <g id="Grupo_1177470" data-name="Grupo 1177470" transform="translate(0 0)">
          <circle id="Elipse_13609" data-name="Elipse 13609" cx="75" cy="75" r="75" fill="#f6e1fe"/>
          <g id="Grupo_1207827" data-name="Grupo 1207827" transform="translate(32.621 32.621)">
            <g id="Grupo_1099618" data-name="Grupo 1099618" transform="translate(0.178 -0.692)">
              <rect id="Rectángulo_401104" data-name="Rectángulo 401104" width="84.532" height="84.532" transform="translate(0)" fill="none"/>
            </g>
            <g id="Grupo_1211061" data-name="Grupo 1211061" transform="translate(5.178 4.308)">
              <g id="Grupo_1211060" data-name="Grupo 1211060" clip-path="url(#clip-path)">
                <path id="Trazado_1273353" data-name="Trazado 1273353" d="M6.316,3.936A5.375,5.375,0,0,1,8,1.875c1.247-.728,2.13-.21,3.028-.459.195-.054.115-1.053,1.174-1.289a25.885,25.885,0,0,1,4.974,0,1.875,1.875,0,0,1,.835.488l.094,20.622a1.7,1.7,0,0,1-1.115.648A26.217,26.217,0,0,1,12.2,21.85c-1.06-.236-.98-1.235-1.174-1.289-.9-.249-1.781.269-3.028-.459a5.625,5.625,0,0,1-1.686-2.061V11.1c-.48-.05-2.424-.1-2.424.551V47.021H6.316V38.756c0-.836,1.944-2.326,2.806-2.483,1.262-.23,7.711.232,7.994-.05-.453-4.2,2.124-7,6.27-7.284,9.213-.639,19.156.505,28.447,0a6.263,6.263,0,0,1,6.051,7.282c2.459.347,7.392-.745,9.368.659a5.9,5.9,0,0,1,1.431,1.874v8.264h2.424V11.649c0-.654-1.945-.6-2.424-.551v6.942A5.625,5.625,0,0,1,67,20.1c-1.247.728-2.13.21-3.028.459-.195.054-.115,1.053-1.174,1.289a25.885,25.885,0,0,1-4.974,0,1.876,1.876,0,0,1-.835-.487L56.893.74A1.7,1.7,0,0,1,58.009.092,26.217,26.217,0,0,1,62.8.127c1.059.236.98,1.235,1.174,1.289.9.249,1.781-.269,3.028.459a5.625,5.625,0,0,1,1.686,2.061V8.674c2.311-.35,4.368.589,4.829,2.995l.01,35.206c1.109.483,1.241.822,1.34,2.011a50.693,50.693,0,0,1-.021,7.709c-.051.323-.515,1.225-.759,1.225h-5.4v9.587a6.6,6.6,0,0,1-.872,1.332c-1.375,1.434-3.259,1.23-5.08,1.2.322,2.6-1.036,4.525-3.659,4.826-1.752.2-7.315.231-8.768-.441-1.845-.854-2.068-2.524-1.9-4.384H26.591c.17,1.86-.052,3.53-1.9,4.384-1.452.672-7.016.642-8.768.441-2.623-.3-3.981-2.226-3.659-4.826-1.821.029-3.7.232-5.08-1.2a6.6,6.6,0,0,1-.872-1.332V57.819H.917c-.243,0-.707-.9-.759-1.225a50.693,50.693,0,0,1-.021-7.709c.1-1.189.231-1.528,1.34-2.011l.01-35.206c.461-2.406,2.518-3.344,4.829-2.995.192-1.391-.26-3.443,0-4.738M15.793,2.5l-2.063.031-.362.52.1,16.213,2.328.206ZM59.208,19.473l2.063-.031.362-.52-.1-16.213L59.208,2.5ZM11.165,3.826c-.77,0-2.244-.2-2.424.771.3,3.958-.393,8.467-.013,12.354.044.445-.008.832.452,1.09l1.985.109ZM63.836,18.151c1.367-.056,2.275.453,2.437-1.2.381-3.887-.309-8.4-.013-12.354-.181-.975-1.655-.769-2.424-.771ZM55.461,36.222c.319-2.9-.879-4.636-3.847-4.858-9.3-.7-19.471.524-28.86.028-2.554.489-3.586,2.308-3.215,4.829ZM9.561,38.7l-.713.389L8.856,66.85l.551.551H65.594l.551-.551.007-27.765-.385-.276ZM6.316,49.445H2.57V55.4H6.316Zm66.114,0H68.684V55.4h3.746ZM24.388,69.94h-9.7c-.011.947-.247,1.985.871,2.325a47.5,47.5,0,0,0,7.566.052c1.079-.239,1.316-1.41,1.259-2.377m35.922,0h-9.7c-.051.864.141,2.03,1.091,2.325a46.9,46.9,0,0,0,7.737,0c.988-.321.907-1.493.869-2.327" transform="translate(0 0)" fill="#6a2874"/>
                <path id="Trazado_1273354" data-name="Trazado 1273354" d="M130.25,17.122,119.519,25.9l-.934.077L107.7,17.122c-8.372-8.611,1.23-21.458,11.273-14.25,10.037-7.208,19.647,5.636,11.273,14.25M112.653,3.15c-6.709.528-7.095,8.564-2.717,12.733,2.635,2.509,6.077,4.594,8.715,7.164l.5.08c2.651-2.488,6-4.58,8.632-7.035A8.842,8.842,0,0,0,131,9.376a6.192,6.192,0,0,0-9.2-5.44c-1.222.611-2.05,1.983-3.535,1.412-2.056-.79-2.561-2.438-5.614-2.2" transform="translate(-81.477 -0.591)" fill="#6a2874"/>
                <path id="Trazado_1273355" data-name="Trazado 1273355" d="M51.207,186.562l44.363.065.671,1.533c-.482,6.675.6,14.16,0,20.737-.058.631-.088,1.159-.724,1.48l-43.483.173c-.652,0-1.47-.171-1.435-.99l.122-22.6Zm42.6,2.38H52.815v19.173H93.806Z" transform="translate(-39.447 -145.447)" fill="#6a2874"/>
                <rect id="Rectángulo_460600" data-name="Rectángulo 460600" width="4.628" height="2.424" transform="translate(59.208 43.495)" fill="#6a2874"/>
                <rect id="Rectángulo_460601" data-name="Rectángulo 460601" width="4.628" height="2.424" transform="translate(59.208 52.971)" fill="#6a2874"/>
                <path id="Trazado_1273356" data-name="Trazado 1273356" d="M273.288,219.361v2.2h-3.857c-.112,0-.462.35-.77.219v-2.423Z" transform="translate(-209.452 -171.018)" fill="#6a2874"/>
                <path id="Trazado_1273357" data-name="Trazado 1273357" d="M78.161,214.2l1.983,2.42c.441,0,1.982-4.133,3.505-1.738.168.264,1.159,3.293,1.451,3.064l1.472-3.543,4.9-.229c.356-.944,1.827-5.513,2.448-5.813a1.643,1.643,0,0,1,1.328,0c.621.314,1.7,4.489,1.982,5.4,2.569-4.029,3.368-.833,5.177,1.543h5.4v2.424h-6.5L99.536,215.3c-.9,0-1.292,3.236-3.195,2.316-.634-.306-1.31-3.243-1.655-4.077-.087-.21-.023-.5-.324-.439-.362.744-.845,2.888-1.457,3.283-1.047.676-4.216-.18-4.833.456-.777.8-1.543,5.18-2.532,5.626-2.013.908-2.455-3.049-3.084-4.3-.287-.049-.281-.059-.457.138-.585.655-.895,2.208-2.247,1.806-.869-.258-1.987-2.8-2.693-3.487h-5.4V214.2Z" transform="translate(-55.867 -162.332)" fill="#6a2874"/>
              </g>
            </g>
          </g>
        </g>
        <ellipse id="Elipse_13678" data-name="Elipse 13678" cx="18.074" cy="18.074" rx="18.074" ry="18.074" transform="translate(0.769 113.817)" fill="#da9dfe"/>
        <g id="Grupo_1207826" data-name="Grupo 1207826" transform="translate(0 116.123)">
          <path id="Trazado_998481" data-name="Trazado 998481" d="M0,13.012q4.541.393,9.077.815l-.253.1,1.3-2.34a.35.35,0,0,1,.4-.123.254.254,0,0,1,.184.174l0,.009,1.114,5.034-.836-.059,1.8-4.073,1.816-4.068,1.822-4.067L18.27.354a.772.772,0,0,1,.885-.326.543.543,0,0,1,.472.536V.572L18.9,7.156l-.762,6.581-.773,6.58-.8,6.579-1.5-.222c1.16-2.774,2.354-5.539,3.536-8.307l1.778-4.152,1.8-4.146,0-.01a.657.657,0,0,1,.753-.287.475.475,0,0,1,.413.442L23.082,15.5l-.295,5.285-.776-.111,2.607-5,0-.008a.274.274,0,0,1,.277-.117l4.931.63,4.928.647-4.969-.438-4.966-.456.281-.125L22.763,20.88a.443.443,0,0,1-.508.185.318.318,0,0,1-.269-.285v-.011l.074-5.289.1-5.289,1.17.145-1.676,4.175-1.7,4.17c-1.136,2.779-2.26,5.561-3.418,8.335a.838.838,0,0,1-.96.376c-.35-.082-.566-.334-.536-.6v0l.762-6.581.791-6.579.8-6.579L18.234.48,19.59.7,17.666,4.738,15.723,8.774l-1.948,4.035-1.966,4.029-.005.01a.482.482,0,0,1-.552.192.359.359,0,0,1-.279-.261L10.1,11.718l.586.059-1.431,2.3,0,.007a.257.257,0,0,1-.249.1Q4.5,13.609,0,13.012" transform="translate(0 4.236) rotate(-7)" fill="#fff"/>
        </g>
      </g>
      <path id="Trazado_1267128" data-name="Trazado 1267128" d="M77.377,52.427V64.859a.84.84,0,0,1-.841.84h-10a.841.841,0,0,0-.841.841v10a.841.841,0,0,1-.841.841H52.427a.841.841,0,0,1-.841-.841v-10a.841.841,0,0,0-.84-.841H40.713a.841.841,0,0,1-.841-.84V52.427a.841.841,0,0,1,.841-.841H50.745a.84.84,0,0,0,.84-.84V40.714a.841.841,0,0,1,.841-.841H64.858a.841.841,0,0,1,.841.841V50.746a.841.841,0,0,0,.841.84h10a.841.841,0,0,1,.841.841" transform="translate(630.197 8531.593)" fill="#8d1939"/>
    </g>
  </g>
</svg>
