<svg xmlns="http://www.w3.org/2000/svg" xmlns:xlink="http://www.w3.org/1999/xlink" width="113.341" height="113.341" viewBox="0 0 113.341 113.341">
  <defs>
    <clipPath id="clip-path">
      <rect id="Rectángulo_461196" data-name="Rectángulo 461196" width="69.2" height="69.505" fill="#6a2874" stroke="#6a2874" stroke-width="1"/>
    </clipPath>
  </defs>
  <g id="Grupo_1212921" data-name="Grupo 1212921" transform="translate(-277.932 -650.788)">
    <path id="Trazado_998483" data-name="Trazado 998483" d="M125.718,69.047a56.67,56.67,0,1,1-56.67-56.67,56.671,56.671,0,0,1,56.67,56.67" transform="translate(265.555 638.411)" fill="#fff"/>
    <g id="Grupo_1212519" data-name="Grupo 1212519" transform="translate(299.711 672.601)">
      <g id="Grupo_1212518" data-name="Grupo 1212518" clip-path="url(#clip-path)">
        <path id="Trazado_1278778" data-name="Trazado 1278778" d="M96.355,43.506c.692.193.59,2.142.344,2.708-.137.315-.677.614-.626.908.034.2.62.548.733,1.055.16.716-.225,1.309-.079,1.832.116.416.978,1.143,1.266,1.706,1.186,2.321.222,4.466.631,6.656.244,1.3,2.341.9,3.346.8L124.914,50.4c2.1-1.438.251-5.479,1.7-7.749.751-1.172,3.436-2.5,4.7-3.574a20.846,20.846,0,0,0,6.106-23.247c-.3-.828-2.152-4.274-2.153-4.526a1.208,1.208,0,0,1,.375-.79,2.494,2.494,0,0,1,1.242-.1,19.33,19.33,0,0,1,1.883,3.28,23.123,23.123,0,0,1-4.625,25.569l2.667,11.853a1.1,1.1,0,0,1-1.035,1.406l-.633-.342-2.626-10.966-.315-.268c-1.147,1.42-4,1.8-4.242,3.834-.236,2,.483,4.008-.579,5.92-.825,1.485-2.257,1.8-3.7,2.406-5.13,2.158-10.578,3.718-15.623,6.042l-1.69,9.536a1.036,1.036,0,0,1-2.038-.071l1.377-8.761c-2.145,1.152-6.688,2.467-8.469.3-1.45-1.766-.38-5.05-.827-7.051-.211-.943-1.376-1.578-1.706-2.232-.282-.56-.124-1.173-.263-1.414-.091-.158-.651-.107-.752-.739a13.81,13.81,0,0,1,.245-2.112c.132-.473.549-.655.548-1.127H91.038a8.525,8.525,0,0,1-.985-.591,2.494,2.494,0,0,1-.873-2.647l6.682-12.828c-.006-1.283-.871-2.2-.991-3.523C93.006,5.358,117.164-8.181,132.7,5.59c.48.426,1.862,1.632,1.691,2.272-.578,2.154-2.964-.74-3.794-1.35-10.413-7.654-24.926-4.76-31.089,6.659C97.8,16.332,96.331,22.3,96.9,25.831c.386,2.415,1.855,2.2.453,5.275C95.574,35,93.027,38.627,91.22,42.518c-.325.384.323.987.606.987a34.724,34.724,0,0,1,4.53,0" transform="translate(-71.578 0)" fill="#6a2874" stroke="#6a2874" stroke-width="1"/>
        <path id="Trazado_1278779" data-name="Trazado 1278779" d="M10.065.9A11.594,11.594,0,0,1,21.957,17.127c-.4.923-3.289,5.784-4.468,3.808-.647-1.084.832-1.865,1.363-2.579,6.968-9.37-4.9-20.221-13.28-13.477-7.442,5.99-2.657,17.782,6.6,17.035.86-.07,2.682-.949,3.026.344.338,1.27-1.377,1.513-2.259,1.6C-2.794,25.509-4.687,2.488,10.065.9" transform="translate(0 -0.666)" fill="#6a2874" stroke="#6a2874" stroke-width="1"/>
        <path id="Trazado_1278780" data-name="Trazado 1278780" d="M28.488,34.494c-.249-.376-.646-.544-.867-1.2a3.121,3.121,0,0,1,1.472-3.959c1.9-.963,2.922-.146,4.467.935,3.413-3.776,8.283,1.22,4.465,4.642,3.806,3.623-1.021,8.437-4.634,4.634-3.406,3.8-8.4-1-4.664-4.467.04-.252-.114-.4-.238-.589m2.144-3.528a1.2,1.2,0,0,0-1.182,1.318c.136,1.105,2.041,1.7,1.878,2.817-.129.88-2.652,1.906-1.6,3.374C30.917,40.123,32.331,37,33.389,37c1.106,0,2.2,2.876,3.638,1.654,1.514-1.285-1.556-2.7-1.556-3.735,0-1.146,2.935-2.193,1.572-3.556s-2.664,1.506-3.653,1.508c-.959,0-1.648-1.9-2.757-1.9" transform="translate(-22.004 -23.216)" fill="#6a2874" stroke="#6a2874" stroke-width="1"/>
        <path id="Trazado_1278781" data-name="Trazado 1278781" d="M46.843,291.09c.967-.086.939,1.015,1.242,1.442,1.376,1.941,3.509,2.9,3.567,5.9.129,6.716-10.506,6.118-9.421-.742.4-2.548,2.286-3.442,3.5-5.161.314-.444.207-1.362,1.107-1.442m0,3.321a11.866,11.866,0,0,0-2.064,2.282c-2.594,4.911,5.04,6.361,4.707,1.536a5.82,5.82,0,0,0-2.643-3.818" transform="translate(-33.852 -233.755)" fill="#6a2874" stroke="#6a2874" stroke-width="1"/>
        <path id="Trazado_1278782" data-name="Trazado 1278782" d="M327.253,279.811c1.367-.417,1.488,1.4,1.736,2.329.942,3.548,1.49,7.221,2.449,10.769a1.055,1.055,0,0,1-1.853.846,10.567,10.567,0,0,1-.443-1.527c-1.036-3.681-1.521-7.7-2.564-11.4a1.208,1.208,0,0,1,.676-1.014" transform="translate(-262.258 -224.652)" fill="#6a2874" stroke="#6a2874" stroke-width="1"/>
        <path id="Trazado_1278783" data-name="Trazado 1278783" d="M94.733,264.968a1.083,1.083,0,0,1,1.2,1.406c-.105.351-.925.951-1.158,1.607-.286.8-.08,2.644-1.422,2.44-2.126-.323-.012-5.185,1.382-5.453" transform="translate(-74.24 -212.767)" fill="#6a2874" stroke="#6a2874" stroke-width="1"/>
        <path id="Trazado_1278784" data-name="Trazado 1278784" d="M85.5,247.273c.371-.451,2.023-1.239,2.611-.856,1.6,1.04-1.141,2.893-2.333,2.536-.683-.2-.669-1.205-.278-1.68" transform="translate(-68.445 -197.803)" fill="#6a2874" stroke="#6a2874" stroke-width="1"/>
        <path id="Trazado_1278785" data-name="Trazado 1278785" d="M67.4,265.111a1.521,1.521,0,0,1,1.19-.218c1.543.536-.3,3.3-1.141,3.3a1.169,1.169,0,0,1-1.067-1.067,11.3,11.3,0,0,1,1.018-2.017" transform="translate(-53.31 -212.691)" fill="#6a2874" stroke="#6a2874" stroke-width="1"/>
      </g>
    </g>
  </g>
</svg>
