<svg xmlns="http://www.w3.org/2000/svg" xmlns:xlink="http://www.w3.org/1999/xlink" width="292.289" height="222" viewBox="0 0 292.289 222">
  <defs>
    <clipPath id="clip-path">
      <rect id="Rectángulo_461198" data-name="Rectángulo 461198" width="292" height="178.115" fill="none"/>
    </clipPath>
  </defs>
  <g id="Grupo_1212523" data-name="Grupo 1212523" transform="translate(-289.711 -1125)">
    <rect id="Rectángulo_461197" data-name="Rectángulo 461197" width="292" height="89" rx="28" transform="translate(289.711 1192)" fill="#ff9ebf"/>
    <circle id="Elipse_13735" data-name="Elipse 13735" cx="111" cy="111" r="111" transform="translate(324.711 1125)" fill="#ffe19a"/>
    <g id="Grupo_1212522" data-name="Grupo 1212522" transform="translate(290 1149.922)">
      <g id="Grupo_1212521" data-name="Grupo 1212521" clip-path="url(#clip-path)">
        <path id="Trazado_1278786" data-name="Trazado 1278786" d="M249.56,206.709s3.135-4.8,5.182-6.235c0,0-6.255,3.189-8.167,5.387,0,0,3.361-7.137,5.509-8.812,0,0-7.442,5.193-8.038,6.238,0,0-.21-6.245.638-8.236,0,0-4.732,8.021-4.7,10.586,0,0-2.182-3.615-2.345-5.745a51.927,51.927,0,0,0-1.759,5.7s-.379-8.1-.838-9.749c0,0-1.523,3.573-2.782,7.23a10.42,10.42,0,0,1,1.462-5.375s-3.653,3.678-4.378,6.927c0,0-.218-9.331.853-12.081,0,0-4.121,6.07-4.51,10.326,0,0-1.649-13.9-.647-17.127,0,0-3.907,9.968-3.772,12,0,0-4.663-12.261-5.216-16.142,0,0,.878,15.6,2.737,20.634,0,0-4.806-7.161-6.491-11.343,0,0,1.649,9.287,2.265,11.135,0,0-9.222-17.37-10.676-19.024,0,0,3.039,8.4,5.37,15.758a12.446,12.446,0,0,0-1.454,5.059s-1.895-7.809-1.5-10.02c0,0-2.238,5.346-1.966,8.865,0,0-2.595-9.446-2.269-11.5,0,0-1.547,6.845-1.325,8.2,0,0-3.015-6.249-3.349-7.961,0,0,.848,8.28,2.129,11.565a47.323,47.323,0,0,1-3.608-6.24s.87,5.308,1.223,6.518c0,0-2.762-8.219-3.31-9.384,0,0,1.808,10.066,2.961,15.413h54.462a11.059,11.059,0,0,1,5.124-6.2s-4.933,1.949-6.816,3.633" transform="translate(-33.258 -31.161)" fill="#878430"/>
        <path id="Trazado_1278787" data-name="Trazado 1278787" d="M188.025,205.253s5.275-5.645,7.96-7.328c0,0-7.676,3.748-10.568,6.331,0,0,6.542-8.387,9.436-10.357,0,0-9.756,6.1-10.818,7.332,0,0,2.574-7.34,4.309-9.68,0,0-8.307,9.427-9.421,12.443,0,0-.57-4.25.215-6.752,0,0-3.825,5.593-4.3,6.7,0,0,3.231-9.52,3.508-11.458,0,0-3.116,4.2-6.005,8.5a20.636,20.636,0,0,1,3.858-6.317s-5.293,4.323-7.465,8.142c0,0,3.941-10.967,6.238-14.2,0,0-6.827,7.134-9.113,12.136,0,0,4.548-16.34,6.986-20.13,0,0-8.35,11.715-9.12,14.105,0,0,.8-14.41,1.979-18.972,0,0-6.074,18.332-6.46,24.25,0,0-1.615-8.415-1.435-13.332,0,0-2.49,10.914-2.7,13.086,0,0-1.48-20.415-2.2-22.357,0,0-.706,9.876-1.654,18.519a24.84,24.84,0,0,0-3.709,5.947s1.586-9.178,2.968-11.777c0,0-4.621,6.283-5.917,10.419,0,0,1.616-11.1,2.857-13.517,0,0-4.6,8.045-4.979,9.635,0,0-.229-7.344.2-9.356,0,0-2.842,9.731-3.026,13.593a42.942,42.942,0,0,1-.827-7.335s-1.5,6.239-1.681,7.66c0,0,.9-9.659.871-11.03,0,0-2.679,11.831-3.909,18.117h54.462s3.173-5.034,7.887-7.287c0,0-5.8,2.291-8.436,4.27" transform="translate(-23.012 -30.156)" fill="#878430"/>
        <path id="Trazado_1278788" data-name="Trazado 1278788" d="M250.926,205.253s-5.275-5.645-7.96-7.328c0,0,7.676,3.748,10.568,6.331,0,0-6.542-8.387-9.436-10.357,0,0,9.756,6.1,10.818,7.332,0,0-2.574-7.34-4.309-9.68,0,0,8.307,9.427,9.42,12.443,0,0,.572-4.25-.215-6.752,0,0,3.825,5.593,4.3,6.7,0,0-3.231-9.52-3.508-11.458,0,0,3.116,4.2,6.005,8.5a20.638,20.638,0,0,0-3.859-6.317s5.294,4.323,7.466,8.142c0,0-3.941-10.967-6.238-14.2,0,0,6.827,7.134,9.113,12.136,0,0-4.548-16.34-6.986-20.13,0,0,8.35,11.715,9.12,14.105,0,0-.8-14.41-1.979-18.972,0,0,6.074,18.332,6.46,24.25,0,0,1.615-8.415,1.435-13.332,0,0,2.49,10.914,2.7,13.086,0,0,1.48-20.415,2.2-22.357,0,0,.706,9.876,1.653,18.519a24.817,24.817,0,0,1,3.71,5.947s-1.586-9.178-2.968-11.777c0,0,4.621,6.283,5.917,10.419,0,0-1.616-11.1-2.857-13.517,0,0,4.6,8.045,4.978,9.635,0,0,.23-7.344-.2-9.356,0,0,2.841,9.731,3.026,13.593a42.878,42.878,0,0,0,.826-7.335s1.5,6.239,1.682,7.66c0,0-.9-9.659-.871-11.03,0,0,2.679,11.831,3.909,18.117H250.377s-3.173-5.034-7.887-7.287c0,0,5.8,2.291,8.436,4.27" transform="translate(-41.608 -30.156)" fill="#878430"/>
        <path id="Trazado_1278789" data-name="Trazado 1278789" d="M109.815,177.613c.242,3.764-1.774,22.259-1.774,22.259.4-2.152,4.888-13.017,4.888-13.017-.422,4.862,2.127,13.117,2.127,13.117C115.85,194.114,126.6,175.8,126.6,175.8c-2.106,4.546-3.8,18.8-3.8,18.8,1.365-2.387,15.824-14.244,15.824-14.244-4.231,3.826-12.338,20.12-12.338,20.12,4-5.019,15.766-12.3,15.766-12.3-3.978,3.271-10.928,14.236-10.928,14.236,3.779-3.845,12.873-8.3,12.873-8.3-7.244,4.376-10.818,14.157-10.818,14.157H97.846c1.8-8.746,11.969-30.667,11.969-30.667" transform="translate(-16.789 -30.165)" fill="#878430"/>
        <path id="Trazado_1278790" data-name="Trazado 1278790" d="M91.825,206.709s3.135-4.8,5.182-6.235c0,0-6.255,3.189-8.167,5.387,0,0,3.361-7.137,5.509-8.812,0,0-7.442,5.193-8.038,6.238,0,0-.21-6.245.637-8.236,0,0-4.731,8.021-4.7,10.586,0,0-2.182-3.615-2.345-5.745a51.927,51.927,0,0,0-1.759,5.7s-.379-8.1-.838-9.749c0,0-1.523,3.573-2.782,7.23a10.419,10.419,0,0,1,1.462-5.375s-3.653,3.678-4.378,6.927c0,0-.218-9.331.853-12.081,0,0-4.121,6.07-4.51,10.326,0,0-1.649-13.9-.648-17.127,0,0-3.906,9.968-3.771,12,0,0-4.663-12.261-5.216-16.142,0,0,.878,15.6,2.737,20.634,0,0-4.806-7.161-6.491-11.343,0,0,1.649,9.287,2.265,11.135,0,0-9.222-17.37-10.677-19.024,0,0,3.04,8.4,5.371,15.758a12.446,12.446,0,0,0-1.454,5.059s-1.895-7.809-1.5-10.02c0,0-2.238,5.346-1.967,8.865,0,0-2.594-9.446-2.268-11.5,0,0-1.547,6.845-1.325,8.2,0,0-3.015-6.249-3.349-7.961,0,0,.848,8.28,2.129,11.565a47.4,47.4,0,0,1-3.609-6.24s.871,5.308,1.224,6.518c0,0-2.762-8.219-3.31-9.384,0,0,1.808,10.066,2.961,15.413H93.517a11.059,11.059,0,0,1,5.124-6.2s-4.933,1.949-6.816,3.633" transform="translate(-6.193 -31.161)" fill="#878430"/>
        <path id="Trazado_1278791" data-name="Trazado 1278791" d="M82.3,197.537h-66c-7.606,0-13.647-3.132-13.647-4.922s4.474-2.685,4.474-2.685-6.04-4.474-5.145-6.712,3.58-.671,3.58-.671-5.593-7.383-4.251-10.962,3.58-1.342,3.58-1.342S.417,156.6,2.43,153.24,6.9,152.122,6.9,152.122s-2.013-10.739,1.343-13.2,4.922.895,4.922.895.895-12.752,2.909-13.871,3.132,1.567,3.132,1.567.671-7.383,4.922-8.726,6.488,3.8,6.488,3.8,0-5.369,3.8-5.145,3.356,4.7,3.356,4.7,4.7-8.949,11.857-8.949,6.712,5.145,6.712,5.145,2.909-3.356,6.712-1.789,2.909,6.488,2.909,6.488,4.251-2.909,6.711-1.567-.224,4.027-.224,4.027.9-2.46,4.251-.895,2.909,3.8,2.909,3.8,3.356-2.014,5.593,2.014-1.119,7.383-1.119,7.383.672-1.343,2.909,1.118,0,5.593,0,5.593-.447-.895,2.014,2.014-.895,8.725-.895,8.725,1.789-.895,3.8,2.685-2.909,11.186-2.909,11.186,3.132-4.922,4.027-1.342-3.132,7.606-3.132,7.606,1.566-1.566,2.685,3.356-4.251,8.054-3.58,8.277,6.174-1.824,5.145,2.461c-1.342,5.593-11.857,8.054-11.857,8.054" transform="translate(-0.189 -19.423)" fill="#a8a542"/>
        <path id="Trazado_1278792" data-name="Trazado 1278792" d="M91.587,187.022c-.671-.224,4.7-3.356,3.58-8.277s-2.685-3.356-2.685-3.356,4.027-4.027,3.132-7.606-4.027,1.342-4.027,1.342,4.922-7.606,2.909-11.186-3.8-2.685-3.8-2.685,3.356-5.816.895-8.725a15.576,15.576,0,0,0-1.949-2.11c.348-.539,1.944-3.288-.064-5.5-1.6-1.756-2.392-1.576-2.72-1.328a6.272,6.272,0,0,0,.929-7.174c-2.238-4.027-5.593-2.013-5.593-2.013s.447-2.238-2.909-3.8c-1.812-.846-2.9-.516-3.526-.035.567-.9,1.031-2.262-.5-3.1-2.461-1.342-6.712,1.566-6.712,1.566s.895-4.922-2.909-6.487-6.712,1.789-6.712,1.789.447-5.145-6.712-5.145-11.857,8.949-11.857,8.949.447-4.474-3.356-4.7-3.8,5.145-3.8,5.145-2.237-5.145-6.488-3.8-4.922,8.726-4.922,8.726-1.118-2.685-3.132-1.567c-1.271.706-2.1,6.045-2.532,9.888a2.045,2.045,0,0,1,.331-.065c-.06-.631-.22-3.845,2.668-4.806,2.288-.76,2.928-.21,3.109.169a6.113,6.113,0,0,1,2.559-6.771c3.952-2.444,6.054.978,6.054.978s.654-2.189,4.457-1.917c2.053.147,2.89.973,3.23,1.7-.088-1.075.133-2.5,1.928-2.48,2.88.029,5.374,4.679,5.374,4.679s1.521-4.772,5.732-4.28,5.268,4.875,5.268,4.875,2.035-4.748,8.561-1.228S71.95,140.4,71.95,140.4s1.716-4.158,5.289-2.484,1.023,6.4,1.023,6.4,4.483-3.428,7.72-.157.344,10.1.344,10.1,2.294-1.813,3.6.162-3.935,13.637-3.935,13.637,3.021-2.184,4.912,1.633-5.044,12.277-5.044,12.277,3.305-.759,3.547,3.184c.186,3.038-6.033,9.554-8.9,12.388h4.372s10.515-2.461,11.858-8.055c1.028-4.285-4.475-2.237-5.146-2.46" transform="translate(-2.766 -19.423)" fill="#c1bb44"/>
        <path id="Trazado_1278793" data-name="Trazado 1278793" d="M61.352,198.7c-4.285-1.34-3.848-6.564-3.848-6.564s-2.46,4.152-5.614,1.871-.752-5.495-.752-5.495-7.964,4.321-13.973.414c-5.966-3.879-3.423-7.612-3.423-7.612a6.28,6.28,0,0,1-6.342-2.231c-2.505-3.259.28-6.638.28-6.638s-4.736.008-6.223-2.36a1.71,1.71,0,0,1,.847-2.713c-.715.046-1.753-.282-2.9-1.91-2.141-3.03-.865-4.582-.865-4.582s-3.589-.169-3.821-4.587a5.149,5.149,0,0,1,3.685-5.348c-.374.029-1.114-.245-1.732-2.536a3.98,3.98,0,0,1,2.2-4.6,17.693,17.693,0,0,1-.772-2.8c-.878-3.759,4.407-6.934,4.407-6.934s-1.906-.186-2.121-4.338c-.217-4.18,7.31-8.253,7.31-8.253s-4.845,2.675-4.086-.96c.027-.132.063-.26.1-.386-3.872,1.68-4.5,8.566-4.5,8.566s-1.118-2.685-3.132-1.567-2.909,13.871-2.909,13.871-1.566-3.356-4.922-.895-1.343,13.2-1.343,13.2-2.46-2.238-4.474,1.118,2.461,17,2.461,17-2.238-2.237-3.58,1.343,4.251,10.962,4.251,10.962-2.685-1.567-3.58.671,5.146,6.712,5.146,6.712-4.475.895-4.475,2.684,6.041,4.922,13.647,4.922H61.464c-.037-.011-.075-.018-.112-.03" transform="translate(-0.189 -20.614)" fill="#969132"/>
        <path id="Trazado_1278794" data-name="Trazado 1278794" d="M103.173,202.151c-1.376,2.015-3.075,3.743-4.869,3.763-4.279.049-4-3.542-4-3.542s-7.134,9.62-9.456,9.352-2-3-2-3-2.472,3.223-5.6,4.04H95.365s10.515-2.46,11.857-8.054c.791-3.3-2.283-2.845-4.049-2.563" transform="translate(-13.255 -34.653)" fill="#969132"/>
        <path id="Trazado_1278795" data-name="Trazado 1278795" d="M8.856,150s-.171-3.932,1.353-6.4a5.718,5.718,0,0,0-.876.536c-1.258.923-1.762,3.01-1.9,5.258A1.894,1.894,0,0,1,8.856,150" transform="translate(-1.275 -24.64)" fill="#a8a542"/>
        <path id="Trazado_1278796" data-name="Trazado 1278796" d="M4.529,207.005c-.849.428-1.555,1-1.555,1.707,0,1.79,6.041,4.922,13.647,4.922h.194L4.529,207.005" transform="translate(-0.51 -35.519)" fill="#a8a542"/>
        <path id="Trazado_1278797" data-name="Trazado 1278797" d="M50.111,186.289c-10.189-1.062-9.75-7.319-7.588-7.893,0,0-5.917-2.874-5.987-6.281S38.683,168,38.683,168s-4.39-3.865-1.109-7.206,4.739-.979,4.739-.979c-5.181.48-5.313,6.378-.45,9.47,0,0-3.489-.123-3.609,2.562s7.346,5.7,7.346,5.7-4.578,2.171-1.956,4.84a18.006,18.006,0,0,0,6.467,3.9" transform="translate(-6.238 -27.283)" fill="#969132"/>
        <path id="Trazado_1278798" data-name="Trazado 1278798" d="M57.037,155.694c-7.01-5.817-4.623-10.739-1.342-11.186a5,5,0,0,1,4.772,1.64s-3.132-4.922,1.342-6.563,5.519,1.939,5.519,1.939-.746-3.132,2.536-2.685S72.7,145.1,72.7,145.1s-.895-4.176-2.685-4.176-1.789,2.983-1.789,2.983-2.237-4.624-5.518-2.536-.6,6.712-.6,6.712-5.369-4.624-7.457-.895,2.387,8.5,2.387,8.5" transform="translate(-9.008 -23.816)" fill="#969132"/>
        <path id="Trazado_1278799" data-name="Trazado 1278799" d="M85.918,185.771c8.5-7.457,3.878-10.739,3.878-10.739s4.959-5.854.485-7.867c0,0,2.722-5.705-.559-7.942s-5.593,1.342-5.593,1.342a3.273,3.273,0,0,1,4.7.895c1.938,2.834-1.118,7.942-1.118,7.942s2.833-1.678,2.833.41-3.58,6.414-3.58,6.414,2.685-.895,2.387,1.79-3.43,7.756-3.43,7.756" transform="translate(-14.435 -27.194)" fill="#c1bb44"/>
        <path id="Trazado_1278800" data-name="Trazado 1278800" d="M238.279,172.448s8.9,16.122,25.953,15.518c7.694-2.224,9.33-7.046,8.15-13.073-17.884-15.279-34.1-2.445-34.1-2.445" transform="translate(-40.885 -28.724)" fill="#878430"/>
        <path id="Trazado_1278801" data-name="Trazado 1278801" d="M320.05,113.1s18.775,30.68,3.007,56.608l-28.54-.947C284.91,124.973,320.05,113.1,320.05,113.1" transform="translate(-50.25 -19.407)" fill="#878430"/>
        <path id="Trazado_1278802" data-name="Trazado 1278802" d="M321.2,113.1a43.416,43.416,0,0,0-21.621,18.714c.067.312.116.622.19.936,3.653,15.584,14.255,26.426,23.68,24.216a12.119,12.119,0,0,0,6.692-4.5c2.549-20.591-8.941-39.37-8.941-39.37" transform="translate(-51.405 -19.407)" fill="#aaa433"/>
        <path id="Trazado_1278803" data-name="Trazado 1278803" d="M306.371,169.122l4.009-1.855c.881-12.285,9.4-46.672,9.4-46.672s-11.2,28.793-13.406,48.527" transform="translate(-52.569 -20.692)" fill="#878430"/>
        <path id="Trazado_1278804" data-name="Trazado 1278804" d="M260.9,119.9s-11.316,35.482,12.5,56.726l26.374-7.595c-.7-42.2-38.876-49.132-38.876-49.132" transform="translate(-44.306 -20.573)" fill="#aaa433"/>
        <path id="Trazado_1278805" data-name="Trazado 1278805" d="M260.9,119.9a71.389,71.389,0,0,0-2.222,27.289c.046.045.085.091.131.135,14.043,13.757,31.073,18.894,40.172,12.738C293.489,125.845,260.9,119.9,260.9,119.9" transform="translate(-44.307 -20.573)" fill="#bcb23b"/>
        <path id="Trazado_1278806" data-name="Trazado 1278806" d="M266.831,128.53s14.369,35.49,18.712,44.186l2.081-1.567c-5.92-15.42-20.793-42.619-20.793-42.619" transform="translate(-45.785 -22.054)" fill="#aaa433"/>
        <path id="Trazado_1278807" data-name="Trazado 1278807" d="M238.279,172.45a35.417,35.417,0,0,0,8.06,9.248c3.233,1.188,6.291.975,8.28-.934,2.853-2.737,2.662-8.13-.064-13.337a27.143,27.143,0,0,0-16.277,5.023" transform="translate(-40.885 -28.726)" fill="#aaa433"/>
        <path id="Trazado_1278808" data-name="Trazado 1278808" d="M15.155,211.634H3.233a10.1,10.1,0,0,1,2.383-4.022L8.7,197.43l2.289-.676s-1.046,7.738-.969,8.333c.137,1.061.666,2.409,1.391,2.747s4.124,1.094,3.741,3.8" transform="translate(-0.555 -33.76)" fill="#e2d4bc"/>
        <path id="Trazado_1278809" data-name="Trazado 1278809" d="M64.764,211.787H48.986L49,207.449l-.7-9.159,2.17-.643s1.952,8.677,2.536,9,5.731,2.571,6.617,2.892,4.575-.321,5.148,2.25" transform="translate(-8.286 -33.914)" fill="#e2d4bc"/>
        <path id="Trazado_1278810" data-name="Trazado 1278810" d="M67.2,26.946C78.646,24.875,79.4,14.108,76.482,6.99A9.659,9.659,0,0,0,66.518.82S64.025-.738,58.236.744s-13.516,10.648-12.2,17.8,9.343,8.945,9.343,8.945Z" transform="translate(-7.873 -0.018)" fill="#aa4035"/>
        <path id="Trazado_1278811" data-name="Trazado 1278811" d="M70.905,5.617C72.609,15.131,64.64,20,64.64,20l8.819,1.958c1.122-7.071.77-12.929-2.554-16.345" transform="translate(-11.091 -0.964)" fill="#8c2b26"/>
        <path id="Trazado_1278812" data-name="Trazado 1278812" d="M57.118.75A19.845,19.845,0,0,1,60.79.142a16.852,16.852,0,0,0-2.552,7.839c-.526,7.654,4.268,13.736,10.706,13.585a11.47,11.47,0,0,0,7.254-3C75,22.541,67.943,33.113,62.075,34.175l-9.039-4.05s-12.141,2.18-13.379-4.99C37.2,10.889,51.329,2.233,57.118.75" transform="translate(-6.756 -0.024)" fill="#8c2b26"/>
        <path id="Trazado_1278813" data-name="Trazado 1278813" d="M113.041,83.316c4.765-1.511,5.811-1.86,8.484-1.046s3.952,4.649,3.952,4.649l-3.254,1.4Z" transform="translate(-19.396 -14.043)" fill="#f2b191"/>
        <path id="Trazado_1278814" data-name="Trazado 1278814" d="M76.822,66.85c7.462,5.038,32.49,18.021,32.49,18.021l1.881-3.43L82.682,60.121Z" transform="translate(-13.182 -10.316)" fill="#f2b191"/>
        <path id="Trazado_1278815" data-name="Trazado 1278815" d="M82.681,60.121l5.268,3.939a2.279,2.279,0,0,0-1.48,1.107c-1.408,2.994,6.751,9.794,18.223,15.189,1.961.922,3.889,1.741,5.75,2.454l-1.132,2.061S84.284,71.888,76.821,66.85Z" transform="translate(-13.181 -10.316)" fill="#e08869"/>
        <path id="Trazado_1278816" data-name="Trazado 1278816" d="M59.172,53.881c3.754,3.754,17.9,13.715,17.9,13.715l5.775-10.251S64.369,37.568,63.215,37.134s-4.043,16.746-4.043,16.746" transform="translate(-10.153 -6.37)" fill="#304059"/>
        <path id="Trazado_1278817" data-name="Trazado 1278817" d="M62.531,40.088c.487-1.842.939-3.073,1.259-2.954,1.156.433,19.634,20.212,19.634,20.212l-2.434,4.32C68.916,60.81,63.885,44.4,62.531,40.088" transform="translate(-10.729 -6.37)" fill="#3e4d6b"/>
        <path id="Trazado_1278818" data-name="Trazado 1278818" d="M49.571,180.47c-5.582,2.31-8.229,3.464-8.229,3.464s-7.075-49.71-7.267-50.865S17.521,96.689,17.521,96.689l6.737-20.981,12.03,1.924c-1.636,8.374,12.538,45.168,13.282,47.834.881,3.157,0,55,0,55" transform="translate(-3.006 -12.99)" fill="#3e4d6b"/>
        <path id="Trazado_1278819" data-name="Trazado 1278819" d="M23.52,78.487,40.428,127.1l4.43,55.816c-2.366,1-3.516,1.5-3.516,1.5s-7.074-49.711-7.266-50.865S17.522,97.166,17.522,97.166Z" transform="translate(-3.007 -13.467)" fill="#304059"/>
        <path id="Trazado_1278820" data-name="Trazado 1278820" d="M54.038,188.638c-3.071.755-6.949,1.6-9.892,2.227-.426-2.992-.911-6.4-1.416-9.936l11.434-2.566c-.04,3.739-.085,7.265-.126,10.276" transform="translate(-7.332 -30.604)" fill="#eaac3d"/>
        <path id="Trazado_1278821" data-name="Trazado 1278821" d="M13.216,180.877a26.012,26.012,0,0,1-8.229-.433s6.063-47.641,5.871-48.988S-2.617,100.465.463,89.493,17.788,69.667,17.788,69.667l11.741,7.507V90.263l-8.553,5s5.474,32.151,5.859,35.808-13.618,49.807-13.618,49.807" transform="translate(0 -11.954)" fill="#3e4d6b"/>
        <path id="Trazado_1278822" data-name="Trazado 1278822" d="M10.858,131.456C10.666,130.108-2.616,100.465.463,89.493S17.788,69.667,17.788,69.667L29.53,77.174v4.76C12.315,81.55,7.573,86.263,7.393,94.017c-.192,8.278,7.123,34.455,9.432,35.418a21.028,21.028,0,0,0,6.352.963s-5.005,1.155-6.544,1.347c-1.272.159-5.564,36.561-7.02,49.227a20.2,20.2,0,0,1-4.626-.527s6.063-47.641,5.871-48.988" transform="translate(0 -11.954)" fill="#304059"/>
        <path id="Trazado_1278823" data-name="Trazado 1278823" d="M16.756,192.744c-3.353.029-7.113.084-9.641.124.306-2.421.668-5.3,1.055-8.408l11.207-.589c-.955,3.261-1.856,6.3-2.621,8.872" transform="translate(-1.221 -31.55)" fill="#eaac3d"/>
        <path id="Trazado_1278824" data-name="Trazado 1278824" d="M11,76.563a58.932,58.932,0,0,1,8.676-6.9L28.959,75.6l6.211.994a12.675,12.675,0,0,0-.028,3.468c-2.715,1.777-8.862,3.213-14.986,1.345-3.906-1.192-7.178-2.333-9.157-4.846" transform="translate(-1.887 -11.954)" fill="#263447"/>
        <path id="Trazado_1278825" data-name="Trazado 1278825" d="M35.247,73.342c-6.619,3-13.408-1.616-16.735-5.67a3.3,3.3,0,0,1,.007-4.149c2.166-2.7,6.04-7.582,7.664-9.929a3.294,3.294,0,0,0,.591-1.956c-.355-14.893,4.077-18.182,8.693-18.936,3.235-.529,10.587-1.732,13.666-.963s6.93,4.043,7.7,5.583c.682,1.364-2.224,11.529-3.6,17.946a3.375,3.375,0,0,1-2.626,2.572C44.06,59.254,40.127,64.81,36.934,71.69a3.4,3.4,0,0,1-1.687,1.652" transform="translate(-3.051 -5.403)" fill="#3e4d6b"/>
        <path id="Trazado_1278826" data-name="Trazado 1278826" d="M18.52,63.821c2.165-2.7,6.04-7.583,7.664-9.93a3.29,3.29,0,0,0,.591-1.955c-.328-13.761,3.43-17.613,7.645-18.714-.807,7.761-1.906,21.259.037,22.588,2.743,1.877,13.426,1.3,16.457.289,1.175-.392,2.154-1.762,3.148-4.144-.3,1.272-.589,2.5-.827,3.611a3.376,3.376,0,0,1-2.626,2.572,14.56,14.56,0,0,0-6.944,3.717c-1-.745-16.572-1.618-21.334,9.683a20.637,20.637,0,0,1-3.819-3.569,3.3,3.3,0,0,1,.007-4.149" transform="translate(-3.051 -5.7)" fill="#304059"/>
        <path id="Trazado_1278827" data-name="Trazado 1278827" d="M45.306,41.942c-5.125-2.96-13.5-1.3-15.617-.9,1.48-6.057,4.605-7.819,7.821-8.344,3.236-.529,10.587-1.732,13.667-.963a12.556,12.556,0,0,1,3.73,1.8c.9,1.132,3.051,1.412,3.609,2.415,2.445,4.4-3.636,11.52-13.21,5.991" transform="translate(-5.094 -5.403)" fill="#304059"/>
        <path id="Trazado_1278828" data-name="Trazado 1278828" d="M57.1,57.084c3.032-1.588,3.176-5.775,3.176-5.775l-4.62-.144A6.669,6.669,0,0,0,57.1,57.084" transform="translate(-9.527 -8.779)" fill="#eaac3d"/>
        <path id="Trazado_1278829" data-name="Trazado 1278829" d="M54.368,31.74a15.708,15.708,0,0,1,6.039,3.619C56.96,43.758,51.962,45.7,51.962,45.7s-4.343-8.937-3.592-14.035a20.776,20.776,0,0,1,6,.08" transform="translate(-8.285 -5.403)" fill="#fff8e3"/>
        <path id="Trazado_1278830" data-name="Trazado 1278830" d="M54.368,31.74a15.708,15.708,0,0,1,6.039,3.619,22.851,22.851,0,0,1-5.421,8.23,28.675,28.675,0,0,1-4.128-.414c-1.23-3.028-2.987-8.12-2.488-11.514a20.776,20.776,0,0,1,6,.08" transform="translate(-8.285 -5.403)" fill="#eadab5"/>
        <path id="Trazado_1278831" data-name="Trazado 1278831" d="M55.682,38.744a106.937,106.937,0,0,1,6.063-13.138s-5.919-3.9-6.063-3.464-1.257,5.674-2.6,7.651c-2.743,4.043,2.6,8.951,2.6,8.951" transform="translate(-8.974 -3.794)" fill="#dd6d62"/>
        <path id="Trazado_1278832" data-name="Trazado 1278832" d="M61.238,35.3c10.914-3.809,12.569-18.322,9.027-25.679-3.957,7.824-12.6,8.386-13.594,10C53.162,26.185,61.238,35.3,61.238,35.3" transform="translate(-9.572 -1.651)" fill="#f2b191"/>
        <path id="Trazado_1278833" data-name="Trazado 1278833" d="M56.48,21.41c.476-.765,2.417-1.311,4.818-2.4a17.7,17.7,0,0,1,.256,4.173,19.243,19.243,0,0,1-.234,2.15c-.669,4.027-6.341,3.483-5.883-.565A9.026,9.026,0,0,1,56.48,21.41" transform="translate(-9.508 -3.262)" fill="#e08869"/>
        <path id="Trazado_1278834" data-name="Trazado 1278834" d="M50.229,12.435l4.883-1.1a1.54,1.54,0,0,1,1.84,1.166L59.84,25.37a1.539,1.539,0,0,1-1.166,1.839l-4.883,1.1a1.539,1.539,0,0,1-1.839-1.166L49.064,14.275a1.539,1.539,0,0,1,1.165-1.84" transform="translate(-8.412 -1.939)" fill="#4f363b"/>
        <path id="Trazado_1278835" data-name="Trazado 1278835" d="M50.229,12.535l2.9-.651a1.54,1.54,0,0,1,1.513,1.2L57.53,25.951a1.539,1.539,0,0,1-1.165,1.839l-2.9.651a1.539,1.539,0,0,1-1.514-1.2L49.063,14.375a1.54,1.54,0,0,1,1.166-1.84" transform="translate(-8.412 -2.039)" fill="#3a272b"/>
        <path id="Trazado_1278836" data-name="Trazado 1278836" d="M48.347.019h0a.77.77,0,0,1,.92.582l2.508,11.175a.77.77,0,0,1-1.5.337L47.765.939a.769.769,0,0,1,.582-.92" transform="translate(-8.193 0)" fill="#3a272b"/>
        <path id="Trazado_1278837" data-name="Trazado 1278837" d="M28.51,55.848s-.234,4.6,3.5,4.229l2.31,4.908c-5.486-4.235-6.4-7.212-6.4-7.212a5.187,5.187,0,0,0,.586-1.925" transform="translate(-4.791 -9.583)" fill="#263447"/>
        <path id="Trazado_1278838" data-name="Trazado 1278838" d="M37.2,46.413c2.639.712,4.434,3.175,4.87,6.2a6.708,6.708,0,0,0-4.485-4.566c-3.569-.963-7.415,1.616-8.958,5.845q-.027-1.333,0-2.544c1.733-3.681,5.273-5.83,8.577-4.937" transform="translate(-4.91 -7.929)" fill="#eaac3d"/>
        <path id="Trazado_1278839" data-name="Trazado 1278839" d="M36.456,43.857a6.827,6.827,0,0,1,4.622,5.021,6.6,6.6,0,0,0-4.333-4.154c-2.974-.8-6.135.86-8,3.881.034-.515.077-1.007.125-1.485,1.9-2.624,4.825-4.009,7.588-3.263" transform="translate(-4.932 -7.491)" fill="#eaac3d"/>
        <path id="Trazado_1278840" data-name="Trazado 1278840" d="M31.695,57.922c.053-3.588,2.143-6.5,4.668-6.5s4.528,2.909,4.475,6.5-2.143,6.5-4.668,6.5-4.528-2.909-4.475-6.5" transform="translate(-5.438 -8.824)" fill="#263447"/>
        <path id="Trazado_1278841" data-name="Trazado 1278841" d="M38.978,59.006c8.458-3.854,12.108-33.833,12.108-33.833l-2.249-.893S35.452,48.171,33.885,51.672s-.9,10.067,5.093,7.334" transform="translate(-5.69 -4.166)" fill="#f2b191"/>
        <path id="Trazado_1278842" data-name="Trazado 1278842" d="M33.885,52.5c1.164-2.6,8.848-16.451,12.724-23.4-.748,1.646-1.456,3.419-2.1,5.287-3.324,9.681-3.7,18.447-1.006,20.413-1.321,2.431-2.827,4.262-4.527,5.038-6,2.732-6.66-3.833-5.093-7.334" transform="translate(-5.69 -4.992)" fill="#e08869"/>
        <path id="Trazado_1278843" data-name="Trazado 1278843" d="M25.344,100.461l9.276-5.753s-7.512,1.14-8.23,1.069-9.943-3.6-9.943-3.6Z" transform="translate(-2.822 -15.817)" fill="#304059"/>
        <path id="Trazado_1278844" data-name="Trazado 1278844" d="M73.835,66.636l6.942-11L82.808,57.8,76.669,68.691c-.833-.6-1.8-1.3-2.834-2.054" transform="translate(-12.669 -9.547)" fill="#eaac3d"/>
        <path id="Trazado_1278845" data-name="Trazado 1278845" d="M70.832,64.21l6.711-12.039L78.6,53.286,71.9,65q-.531-.391-1.072-.793" transform="translate(-12.154 -8.952)" fill="#eaac3d"/>
        <path id="Trazado_1278846" data-name="Trazado 1278846" d="M50.6,19.09c.433.144,1.516,1.2,2.021,1.131s2.214-.987,3.08-1.2,2.31-1.227,2.815-1.083.433.794.144,1.516-1.516.722-1.516.722l.145.577a4.7,4.7,0,0,1,1.732-.288c.433.144.433.794.288,1.227s-1.443.649-1.443.649l.144.577a5.885,5.885,0,0,1,1.371-.288c.505,0,.794.794.361,1.371s-1.66.505-2.671.794a6.009,6.009,0,0,0-3.778,2.214L50.309,25.37c.481-1.54-.722-5.125-.722-5.487s.577-.938,1.011-.794" transform="translate(-8.508 -3.075)" fill="#f2b191"/>
        <path id="Trazado_1278847" data-name="Trazado 1278847" d="M66.449,33.647c2.182-1.191.905-2.272-.636-2.555s-1.678,3.818.636,2.555" transform="translate(-11.098 -5.333)" fill="#3a272b"/>
        <path id="Trazado_1278848" data-name="Trazado 1278848" d="M68.849,28.519a8.979,8.979,0,0,0-.562-1.3c.166-.223.285-.369.285-.369a15.4,15.4,0,0,1,.966,2.077c.181.646.113,1.3-2,.683a.34.34,0,0,1-.258-.291c1.69.4,1.738-.2,1.571-.8" transform="translate(-11.544 -4.606)" fill="#dd6d62"/>
        <path id="Trazado_1278849" data-name="Trazado 1278849" d="M63.754,23.03a1.726,1.726,0,0,1,1.813-1.447,1.5,1.5,0,0,1,1.028,1.933,1.727,1.727,0,0,1-1.813,1.448,1.5,1.5,0,0,1-1.028-1.934" transform="translate(-10.93 -3.7)" fill="#3a272b"/>
        <path id="Trazado_1278850" data-name="Trazado 1278850" d="M71.119,25.3c.278-.871.99-1.492,1.592-1.389s.864.891.587,1.762-.99,1.492-1.592,1.389-.864-.891-.587-1.762" transform="translate(-12.184 -4.102)" fill="#3a272b"/>
        <path id="Trazado_1278851" data-name="Trazado 1278851" d="M67.883,22.752c-3.76-.53-4.917-1.3-4.917-1.3l.289-1.061L68.318,21.4Z" transform="translate(-10.804 -3.498)" fill="#aa4035"/>
        <path id="Trazado_1278852" data-name="Trazado 1278852" d="M70.431,23.561c3.144,1.88,4.5,1.987,4.5,1.987l.455-1-4.421-2.3Z" transform="translate(-12.085 -3.818)" fill="#aa4035"/>
        <path id="Trazado_1278853" data-name="Trazado 1278853" d="M66,31.351c.808.149,1.51.6,1.255,1.161l-.058,0a3.815,3.815,0,0,1-1.978-.459c.1-.429.372-.779.781-.7" transform="translate(-11.191 -5.378)" fill="#fff8e3"/>
        <path id="Trazado_1278854" data-name="Trazado 1278854" d="M136.231,95.414l-1.374,1.012.362,1.953a8.552,8.552,0,0,1,3.905,1.446l2.1-2.965Z" transform="translate(-23.14 -16.372)" fill="#e08869"/>
        <path id="Trazado_1278855" data-name="Trazado 1278855" d="M130.822,130.041c3.036,2.459,9.3,3.857,9.3,3.857l3.616-3.038s14.9,7.955,15.765,9.112-4.485,7.376-5.352,8.244-23.574,4.917-23.574,4.917Z" transform="translate(-22.406 -22.313)" fill="#eaac3d"/>
        <path id="Trazado_1278856" data-name="Trazado 1278856" d="M140.743,134.068a36.547,36.547,0,0,1-6.564-2.214c5.542,4.306,9.7,8,9.7,8l-2.025-3.954s5.086,8.509,10.1,8.8c2.412.139,1.107-5.351-.421-9.76-3.693-2.049-7.172-3.908-7.172-3.908Z" transform="translate(-23.023 -22.483)" fill="#e28430"/>
        <path id="Trazado_1278857" data-name="Trazado 1278857" d="M314.945,163.428c-.015-1-1.1-1.769-2.432-1.715l-13.683.553c-1.328.054-2.393.909-2.378,1.91l.118,8.133,4.36-.034-.084-5.711c-.008-.609.64-1.129,1.447-1.161l7.025-.284c.808-.032,1.47.434,1.479,1.043l.088,6.037,4.187-.032Z" transform="translate(-50.867 -27.747)" fill="#c43162"/>
        <path id="Trazado_1278858" data-name="Trazado 1278858" d="M319.972,171.059l-39.4-.119a5.085,5.085,0,0,0-5.123,5.221l.54,25.508a5.391,5.391,0,0,0,5.345,5.252l39.4.119a5.085,5.085,0,0,0,5.123-5.221l-.541-25.509a5.391,5.391,0,0,0-5.344-5.252" transform="translate(-47.263 -29.331)" fill="#ad254c"/>
        <path id="Trazado_1278859" data-name="Trazado 1278859" d="M319.989,171.059l-39.4-.119a5.079,5.079,0,0,0-5.044,4.208l4.178,20.674a5.38,5.38,0,0,0,6.172,4.238l38.624-6.909a5.11,5.11,0,0,0,1.168-.361l-.35-16.479a5.391,5.391,0,0,0-5.344-5.252" transform="translate(-47.279 -29.331)" fill="#c43162"/>
        <path id="Trazado_1278860" data-name="Trazado 1278860" d="M318.333,173.578l-34.823-.105a4.494,4.494,0,0,0-4.527,4.613l.478,22.544a4.764,4.764,0,0,0,4.723,4.642l34.823.105a4.494,4.494,0,0,0,4.527-4.613l-.477-22.544a4.765,4.765,0,0,0-4.724-4.642" transform="translate(-47.869 -29.766)" fill="#e8436a"/>
        <path id="Trazado_1278861" data-name="Trazado 1278861" d="M335.772,203.255l-.467-22.066a3.177,3.177,0,0,0-2.035,3.049l.338,15.957a3.373,3.373,0,0,0,2.165,3.061" transform="translate(-57.184 -31.09)" fill="#891b40"/>
        <path id="Trazado_1278862" data-name="Trazado 1278862" d="M277.915,197.748l-.353-16.64a3.517,3.517,0,0,0-2.1-3.129l.485,22.885a3.315,3.315,0,0,0,1.968-3.116" transform="translate(-47.266 -30.539)" fill="#891b40"/>
        <path id="Trazado_1278863" data-name="Trazado 1278863" d="M324.654,213.125l-15.075-.046a1.94,1.94,0,0,0-1.777,1.136l18.485.056c.063,0,.123-.007.186-.009a2.057,2.057,0,0,0-1.819-1.137" transform="translate(-52.815 -36.561)" fill="#891b40"/>
        <path id="Trazado_1278864" data-name="Trazado 1278864" d="M299.758,213.01l-15.076-.046a1.939,1.939,0,0,0-1.793,1.169l18.712.057a2.059,2.059,0,0,0-1.843-1.18" transform="translate(-48.54 -36.542)" fill="#891b40"/>
        <path id="Trazado_1278865" data-name="Trazado 1278865" d="M310.731,172.2l15.075.046a1.943,1.943,0,0,0,1.636-.871,5.283,5.283,0,0,0-1.732-.3l-16.822-.051a2.058,2.058,0,0,0,1.842,1.179" transform="translate(-53.001 -29.345)" fill="#ad254c"/>
        <path id="Trazado_1278866" data-name="Trazado 1278866" d="M285.843,172.093l15.075.046A1.938,1.938,0,0,0,302.695,171l-18.676-.056a2.057,2.057,0,0,0,1.824,1.146" transform="translate(-48.734 -29.332)" fill="#ad254c"/>
        <path id="Trazado_1278867" data-name="Trazado 1278867" d="M282.342,200.956a4.395,4.395,0,0,1-.216-1.275l-.423-19.995a4.248,4.248,0,0,1,4.275-4.357l30.885.094a4.5,4.5,0,0,1,4.461,4.383l.423,19.994a4.25,4.25,0,0,1-4.275,4.357l-30.886-.094a4.512,4.512,0,0,1-4.244-3.108M320.6,178.678a3.948,3.948,0,0,0-.99-1.591,3.906,3.906,0,0,0-2.737-1.132l-30.885-.094a3.732,3.732,0,0,0-3.755,3.827l.423,19.994a3.958,3.958,0,0,0,3.918,3.85l30.886.094a3.732,3.732,0,0,0,3.755-3.827l-.423-19.994a3.9,3.9,0,0,0-.191-1.127" transform="translate(-48.336 -30.084)" fill="#ad254c"/>
        <path id="Trazado_1278868" data-name="Trazado 1278868" d="M302.348,184.829a6.626,6.626,0,0,0-4.324,8.457,6.947,6.947,0,0,0,8.562,4.531,6.625,6.625,0,0,0,4.324-8.457,6.947,6.947,0,0,0-8.562-4.531" transform="translate(-51.078 -31.664)" fill="#ffe6e6"/>
        <path id="Trazado_1278869" data-name="Trazado 1278869" d="M309.143,193.837l-.118-2.985-8.133.125.118,2.985Z" transform="translate(-51.629 -32.748)" fill="#3e4d6b"/>
        <path id="Trazado_1278870" data-name="Trazado 1278870" d="M304.2,195.975l2.982-.046-.322-8.141-2.982.046Z" transform="translate(-52.141 -32.222)" fill="#3e4d6b"/>
        <path id="Trazado_1278871" data-name="Trazado 1278871" d="M190.772,212.371h16.873l.324-3.905,1.46-8.244-2.272-.579s-2.758,7.81-3.407,8.1-6.327,2.315-7.3,2.6-4.867-.289-5.678,2.025" transform="translate(-32.734 -34.256)" fill="#f4e8c9"/>
        <path id="Trazado_1278872" data-name="Trazado 1278872" d="M212.582,197.942l18.446-33.237,31.259-.591-7.279-22.433s-36.62,6.881-37.254,7.674c-2.355,2.952-9.366,43.814-9.366,43.814Z" transform="translate(-35.757 -24.311)" fill="#3e4d6b"/>
        <path id="Trazado_1278873" data-name="Trazado 1278873" d="M255.249,146.336s-3.627,10.555-4.435,11.667c-1.157,1.591-18.127,2.411-19.574,2.267s-3.037-2.6-3.471-2.459.434,3.615.434,3.615l-2.893-2.893s1.88,4.05,1.157,4.484-5.062-6.22-5.062-6.22,3.038,5.786,3.472,8.1c.384,2.052-9.116,19.555-14.805,30.657l2.8,3.187L231.318,165.5l31.259-.591Z" transform="translate(-36.045 -25.109)" fill="#304059"/>
        <path id="Trazado_1278874" data-name="Trazado 1278874" d="M339.395,209.035c-3.76.145-7.087-3.326-8.967-2.6s-1.88,4.194-1.88,4.194l-2.6.722.29,2.17h21.694c-.723-2.025-4.773-4.628-8.533-4.483" transform="translate(-55.928 -35.404)" fill="#f4e8c9"/>
        <path id="Trazado_1278875" data-name="Trazado 1278875" d="M286.629,131.9c3.182,6.942,5.207,14.077,5.207,19.863s-13.306,32.783-12.149,34.807l36.061,10.413.289,3.761H266.525c-3.76,0-2.459-46.861-2.459-46.861l-2.6-13.161c5.641-1.157,6.508-4.773,7.231-7.665Z" transform="translate(-44.864 -22.633)" fill="#3e4d6b"/>
        <path id="Trazado_1278876" data-name="Trazado 1278876" d="M286.708,147.162s-9.908,35.217-10.341,35.652-6.51,2.6-6.51,2.6l6.221-.723-6.221,5.641,6.8-2.748.289,2.893,2.314-1.591,14.916,11.86h22.88l-.289-3.761-36.061-10.413c-1.157-2.025,12.149-29.023,12.149-34.807s-2.025-12.921-5.207-19.863l-17.934,1.157a31.8,31.8,0,0,1-2.314,5.134c5.133,5.93,19.308,8.967,19.308,8.967" transform="translate(-45.882 -22.633)" fill="#304059"/>
        <path id="Trazado_1278877" data-name="Trazado 1278877" d="M233.118,126.925c-2.634,4.6-16.041,22.948-18.426,24.9l2.258,3.035s15.857-13.2,23.287-22.447Z" transform="translate(-36.838 -21.779)" fill="#f2b191"/>
        <path id="Trazado_1278878" data-name="Trazado 1278878" d="M234.914,126.925c-.405.707-1.066,1.74-1.9,2.987,1.907,3.117-.917,10.843-6.839,18.179-.334.414-.672.816-1.012,1.21,5.256-4.682,12.512-11.464,16.871-16.888Z" transform="translate(-38.635 -21.779)" fill="#e08869"/>
        <path id="Trazado_1278879" data-name="Trazado 1278879" d="M249.1,92.1c-3.471,5.641-14.174,29.36-14.174,29.36l9.257,7.232s8.678-17.5,9.4-20.538S249.1,92.1,249.1,92.1" transform="translate(-40.31 -15.803)" fill="#3e4d6b"/>
        <path id="Trazado_1278880" data-name="Trazado 1278880" d="M250.174,92.1c-.484.786-1.108,1.924-1.824,3.3,1.32,3.989.794,11.07-1.7,18.659a46.54,46.54,0,0,1-5.459,11.455l4.068,3.179s8.678-17.5,9.4-20.538S250.174,92.1,250.174,92.1" transform="translate(-41.385 -15.803)" fill="#304059"/>
        <path id="Trazado_1278881" data-name="Trazado 1278881" d="M267.794,137.584c7.629,5.443,18.648,3.9,23.212,2.931a68.786,68.786,0,0,0-3.291-8.612l-14.988.967-3.015.433a32.324,32.324,0,0,1-1.919,4.281" transform="translate(-45.95 -22.633)" fill="#263447"/>
        <path id="Trazado_1278882" data-name="Trazado 1278882" d="M264.781,129.048c11.474,7.231,21.405-2.314,21.405-2.314-3.616-7.087-4.58-8.968-9.546-19.092-1.108-2.258-2.893-7.52-3.616-8.967s-4.917-8.1-5.5-8.823-9.4-5.207-10.7-4.917-6.22,7.376-6.364,8.389,1.736,16.343,2.459,16.777,8.967,2.17,8.967,2.17c2.694,4.165,3.453,11.389,2.893,16.777" transform="translate(-42.975 -14.572)" fill="#3e4d6b"/>
        <path id="Trazado_1278883" data-name="Trazado 1278883" d="M264.577,106.776c-.327,1.307-4.542,2.953-11.683,2.9a.946.946,0,0,0,.209.427c.723.433,8.968,2.169,8.968,2.169a13.61,13.61,0,0,1,.98,1.837c4.222,2.282,10.128,4.389,12.133,8,1.541,2.774,2.132,7.18,2.622,9.166a20.635,20.635,0,0,0,8.562-4.538c-3.615-7.087-4.579-8.967-9.545-19.091-1.108-2.259-2.893-7.521-3.616-8.968s-4.917-8.1-5.5-8.823-9.4-5.207-10.7-4.917c-.825.184-3.9,4.864-5.5,7.232,2.81,3.329,13.4,13.285,13.065,14.607" transform="translate(-43.156 -14.572)" fill="#304059"/>
        <path id="Trazado_1278884" data-name="Trazado 1278884" d="M252.269,127.548c-1.731,5.718-11.49,28.905-13.512,31.587l2.514,2.3s13.581-17.338,19.084-28.927Z" transform="translate(-40.967 -21.886)" fill="#f2b191"/>
        <path id="Trazado_1278885" data-name="Trazado 1278885" d="M253.447,135.178c2.521,1.622,1.179,8.409-2.887,16.44,4.13-5.832,9.02-13.215,11.821-19.112l-8.086-4.957c-.449,1.482-1.439,4.143-2.692,7.312a2.638,2.638,0,0,1,1.845.318" transform="translate(-42.993 -21.886)" fill="#e08869"/>
        <path id="Trazado_1278886" data-name="Trazado 1278886" d="M253.587,123.92c3.012,2.4,9.18,7.211,9.18,7.211s8.979-21.231,9.958-24.639-5.743-11.344-10.589-7.3c-1.83,1.53-8.549,24.723-8.549,24.723" transform="translate(-43.512 -16.828)" fill="#3e4d6b"/>
        <path id="Trazado_1278887" data-name="Trazado 1278887" d="M265.119,92.565a.382.382,0,0,0-.343.09c2.1,4.358,2.352,12.575.3,21.547a51,51,0,0,1-4.827,13.119c2.01,1.575,3.661,2.862,3.661,2.862s8.978-21.231,9.958-24.639-6.485-12.231-8.75-12.98" transform="translate(-44.655 -15.881)" fill="#304059"/>
        <path id="Trazado_1278888" data-name="Trazado 1278888" d="M254.789,104.751s6.7-9.93,7.747-17.826c-2.381-1.137-4.8-2.13-5.434-1.988-.885.2-3.44,3.535-5.032,5.971a60.747,60.747,0,0,0,2.718,13.843" transform="translate(-43.252 -14.572)" fill="#f4e8c9"/>
        <path id="Trazado_1278889" data-name="Trazado 1278889" d="M262.568,86.86c-2.388-1.141-4.813-2.136-5.449-1.995-.888.2-3.451,3.546-5.048,5.989q.15,1.569.34,2.98a33.291,33.291,0,0,0,5.842,5.005c1.823-3.49,3.787-7.993,4.314-11.98" transform="translate(-43.252 -14.559)" fill="#e5d3aa"/>
        <path id="Trazado_1278890" data-name="Trazado 1278890" d="M243.1,53.33c-6.075-4.049-1.591-12.149,3.182-12.583s12.728.289,15.476,6.075-2.189,18.473,2.314,21.26c3.038,1.881,4.773,1.736,4.773,1.736-7.376,4.194-12.728,2.17-16.633-3.905S243.1,53.33,243.1,53.33" transform="translate(-41.209 -6.974)" fill="#721b15"/>
        <path id="Trazado_1278891" data-name="Trazado 1278891" d="M246.287,40.748c-3.857.35-7.522,5.707-5.582,9.886a17.784,17.784,0,0,0,3.227-.234c5.991-.982,10.369-4.7,9.779-8.3a4.043,4.043,0,0,0-.309-.987,24.946,24.946,0,0,0-7.115-.369" transform="translate(-41.21 -6.974)" fill="#8c291c"/>
        <path id="Trazado_1278892" data-name="Trazado 1278892" d="M254.932,94.1a83.814,83.814,0,0,1-7.087-11.136l1.446-9.546,7.954,10.413c1.293,3.536.885,6.979-2.314,10.269" transform="translate(-42.527 -12.597)" fill="#dd6d62"/>
        <path id="Trazado_1278893" data-name="Trazado 1278893" d="M246.435,54.546c0-1.438-1.586-2.6-3.543-2.6s-3.544,1.166-3.544,2.6,1.586,2.6,3.544,2.6,3.543-1.166,3.543-2.6" transform="translate(-41.069 -8.913)" fill="#e0b155"/>
        <path id="Trazado_1278894" data-name="Trazado 1278894" d="M251.1,77.5c1.157-7.665,2.6-12.149-.145-16.488s-8.533-7.376-11.715-6.653-8.871,3.544-10.173,8.027c-1.064-.515-6.153,3.9-2.555,11.353,3.385,7.014,10.847,9.112,10.847,9.112l10.269-6.364Z" transform="translate(-38.649 -9.31)" fill="#b2402d"/>
        <path id="Trazado_1278895" data-name="Trazado 1278895" d="M251.875,61.017c-2.748-4.338-8.533-7.376-11.715-6.653-.126.029-.261.065-.4.105a18.839,18.839,0,0,1,.272,12.18c-1.681,5.783-5.421,10.12-9.446,11.561a19.919,19.919,0,0,0,7.693,4.646l10.269-6.364L252.02,77.5c1.156-7.665,2.6-12.149-.145-16.488" transform="translate(-39.565 -9.31)" fill="#8c291c"/>
        <path id="Trazado_1278896" data-name="Trazado 1278896" d="M230.259,70.412a19.314,19.314,0,0,0,2.574,11.931l8.431-7.562c-8.823-.362-11-4.369-11-4.369" transform="translate(-39.488 -12.082)" fill="#8c291c"/>
        <path id="Trazado_1278897" data-name="Trazado 1278897" d="M247.681,93.526c2.459-6.942,2.314-14.607,1.446-16.488s-14.511-1.157-17.693-2.748c.434,8.823,2.787,10.629,5.255,13.74,3.327,4.194,10.992,5.5,10.992,5.5" transform="translate(-39.711 -12.747)" fill="#f2b191"/>
        <path id="Trazado_1278898" data-name="Trazado 1278898" d="M251.335,76.553c-2.267-5.04-1.141-9.446.662-8.893s2.774,1.511,2.5,4.711-2.569,5.5-3.162,4.182" transform="translate(-42.908 -11.602)" fill="#f2b191"/>
        <path id="Trazado_1278899" data-name="Trazado 1278899" d="M251.335,76.553c-2.267-5.04-1.141-9.446.662-8.893s2.774,1.511,2.5,4.711-2.569,5.5-3.162,4.182" transform="translate(-42.908 -11.602)" fill="#f2b191"/>
        <path id="Trazado_1278900" data-name="Trazado 1278900" d="M271.124,118.924a21.576,21.576,0,0,0,.771-19.959c1.325,6.989,1.322,13.7-.771,19.959" transform="translate(-46.521 -16.981)" fill="#263447"/>
        <path id="Trazado_1278901" data-name="Trazado 1278901" d="M252.217,70.133c-.773-.237-1.322,1.147-.978,3.073a.948.948,0,0,1,1.068-.29c.433.235.5.957.14,1.612a1.8,1.8,0,0,1-.58.646c.364.65,1.605-.624,1.756-2.389.154-1.8-.392-2.34-1.407-2.652" transform="translate(-43.091 -12.029)" fill="#dd6d62"/>
        <path id="Trazado_1278902" data-name="Trazado 1278902" d="M265.233,129.968,255.2,123.36c-.263.869-.5,1.658-.7,2.339,2.525,1.9,6.637,4.925,9.564,7.069.337-.8.736-1.755,1.172-2.8" transform="translate(-43.668 -21.167)" fill="#eaac3d"/>
        <path id="Trazado_1278903" data-name="Trazado 1278903" d="M255.819,121.552l10.235,6.482.378-.906-10.257-6.742-.356,1.166" transform="translate(-43.895 -20.657)" fill="#eaac3d"/>
        <path id="Trazado_1278904" data-name="Trazado 1278904" d="M247.119,128.321l-9.872-6.282c-.329.717-.628,1.372-.89,1.947l9.3,7.35c.418-.856.919-1.882,1.466-3.015" transform="translate(-40.556 -20.94)" fill="#eaac3d"/>
        <path id="Trazado_1278905" data-name="Trazado 1278905" d="M239.365,117.507l-.737,1.6,9.744,6.649.5-1.055Z" transform="translate(-40.945 -20.163)" fill="#eaac3d"/>
        <path id="Trazado_1278906" data-name="Trazado 1278906" d="M313.413,213.194l.5-6.5-7.78-2.247c.215,2.657.244,6.4.236,8.751Z" transform="translate(-52.528 -35.08)" fill="#eaac3d"/>
        <path id="Trazado_1278907" data-name="Trazado 1278907" d="M216.81,198.394l3.736-6.733-9.3-5.416c-.563,3.02-1.073,5.83-1.49,8.159Z" transform="translate(-35.99 -31.957)" fill="#eaac3d"/>
        <path id="Trazado_1278908" data-name="Trazado 1278908" d="M222.541,154.453a10.106,10.106,0,0,0-4.733-1.778,31.852,31.852,0,0,1-3.116,3.568l2.258,3.035s2.317-1.929,5.591-4.826" transform="translate(-36.838 -26.197)" fill="#e08869"/>
        <path id="Trazado_1278909" data-name="Trazado 1278909" d="M242.227,163.673c.533.626.737,4.985-1.806,6.277-.869.442-5.661-.967-5.458-1.967.176-.868,1.318-2.219,1.682-3.037a3.279,3.279,0,0,1,5.582-1.272" transform="translate(-40.315 -27.899)" fill="#f2b191"/>
        <path id="Trazado_1278910" data-name="Trazado 1278910" d="M240.442,170.126l2.275-.893c-1.4,2.775-2.213,7.273-2.785,7.454-1.55.491-.652-3.692.51-6.561" transform="translate(-41.027 -29.038)" fill="#f2b191"/>
        <path id="Trazado_1278911" data-name="Trazado 1278911" d="M237.437,169.445l2.239-.245c-1.831,2.615-3.026,7.452-3.606,7.494-1.562.114-.238-4.488,1.367-7.249" transform="translate(-40.387 -29.032)" fill="#f2b191"/>
        <path id="Trazado_1278912" data-name="Trazado 1278912" d="M234.792,168.332l2.287-.288c-2.04,2.478-3.427,7.159-3.913,7.217-1.311.157-.265-4.323,1.626-6.929" transform="translate(-39.908 -28.834)" fill="#f2b191"/>
        <path id="Trazado_1278913" data-name="Trazado 1278913" d="M230.167,164.493c.221-.616,2.291-.5,3.637-.848s2.169-1.137,5.256-1.074l-2.455,2.861a4.555,4.555,0,0,0-2.729-.311c-1.433.333-3.932,0-3.709-.627" transform="translate(-39.491 -27.894)" fill="#f2b191"/>
        <path id="Trazado_1278914" data-name="Trazado 1278914" d="M202.86,166.618c10.992,14.174,39.195,32.253,39.195,32.253h2.6s-28.927-44.4-30.517-45.269-7.376-1.446-7.376-1.446Z" transform="translate(-34.808 -26.108)" fill="#e08869"/>
        <path id="Trazado_1278915" data-name="Trazado 1278915" d="M246.476,199.275s-25.909-39.771-30.032-44.763c-.133.1-.268.2-.4.312-5.453,4.82-2.032,17.758,7.536,29.96,10.367,8.132,20.287,14.491,20.287,14.491Z" transform="translate(-36.625 -26.512)" fill="#f2b191"/>
        <path id="Trazado_1278916" data-name="Trazado 1278916" d="M276.684,213.544H259.906l-.771-1.929,6.75-.964a20.62,20.62,0,0,1,7.664-3.905c9.112-1.88,12.583,6.8,3.135,6.8" transform="translate(-44.464 -35.429)" fill="#e2d4bc"/>
        <path id="Trazado_1278917" data-name="Trazado 1278917" d="M170.411,195.1c11.136-11.715,21.405-24.442,21.405-24.442l2.459.578,4.483-20.248s-6.653-.434-8.967-.579-38.327,24.3-38.327,24.3l-6.653-.434-4.628,15.621Z" transform="translate(-24.054 -25.808)" fill="#753d89"/>
        <path id="Trazado_1278918" data-name="Trazado 1278918" d="M190.37,167.887c-1.012,0-.434-6.653-.434-6.653s-1.012,5.352-2.17,6.219S166.7,186.4,166.7,186.4l-24.622-1.04-1.894,6.392,30.228,5.207c11.136-11.715,21.405-24.442,21.405-24.442l2.459.578L196,165.3c-2.006,1.069-4.975,2.59-5.632,2.59" transform="translate(-24.054 -27.666)" fill="#613275"/>
        <path id="Trazado_1278919" data-name="Trazado 1278919" d="M237.829,205.236c-13.692-2.122-45.511-10.317-48.017-10.7S159.15,189.9,157.8,189.326s-16.584-5.978-16.584-5.978l-21.984,20.441,4.243,5.786h114.5Z" transform="translate(-20.459 -31.46)" fill="#753d89"/>
        <path id="Trazado_1278920" data-name="Trazado 1278920" d="M186.775,205.325l.145-2.025s-1.157,1.3-4.917,1.88-40.063-2.169-40.063-2.169l1.3-3.327-3.905,1.88s6.316-14.656,6.22-22.081c-2.315-.386-5.11-.675-5.11-.675l-21.212,24.2,4.242,5.785h114.5l-.047-1.425Z" transform="translate(-20.459 -30.681)" fill="#613275"/>
        <path id="Trazado_1278921" data-name="Trazado 1278921" d="M225.613,169.362c-1.543,2.569-5.695,9.223-8.815,11.914,2.673,2.321,5.475,4.594,8.226,6.731a19.871,19.871,0,0,0,7.743-7.92c-2.433-3.672-4.9-7.376-7.154-10.725" transform="translate(-37.2 -29.06)" fill="#fff8e3"/>
        <path id="Trazado_1278922" data-name="Trazado 1278922" d="M223.061,166.438q-.685.334-1.4.667c.113-.789.211-1.559.293-2.3-.933-1.374-1.808-2.654-2.6-3.8-.16,2.236-.537,4.9-.995,7.578-4.206,1.818-8.413,3.416-10.583,4.219.765.8,1.567,1.6,2.4,2.4,2.112-.8,4.806-1.861,7.525-3.014-.653,3.36-1.337,6.412-1.763,8.243q1.313,1.127,2.656,2.233c.566-2.4,1.658-7.2,2.494-11.965,1.292-.591,2.528-1.19,3.65-1.776q-.859-1.279-1.678-2.49" transform="translate(-35.652 -27.627)" fill="#fff8e3"/>
        <path id="Trazado_1278923" data-name="Trazado 1278923" d="M138.117,168.915a69.362,69.362,0,0,1-.723,8.678l-2.314-.578,2.025,2.748s-18.513,14.607-24.009,16.922c0,0-18.8-24.587-20.826-43.1s-2.315-25.166-1.881-26.179,12.728-7.086,15.186-7.376,17.211,5.931,22.707,11.57c0,0-3.616,11.57-3.037,13.307s-1.012,8.389.723,11.136,6.074,10.124,7.376,10.7,4.772,2.17,4.772,2.17" transform="translate(-15.48 -20.594)" fill="#eaac3d"/>
        <path id="Trazado_1278924" data-name="Trazado 1278924" d="M144.574,145.487a2.661,2.661,0,0,1-1.29,4.683c-4.116.625-8.735,1.159-9.753.846-1.88-.579-5.785-10.269-5.785-10.269s2.893,15.186,2.748,15.91-4.628-2.459-4.628-2.459a67.478,67.478,0,0,0,8.64,8.972c-.958-1.537-1.837-2.986-2.421-3.91a9.42,9.42,0,0,1-.831-4.9c5.057-.917,21.358-3.918,22.091-4.65.868-.868,6.219-7.087,5.352-8.244a20.619,20.619,0,0,0-3.431-2.269l-14.455-.431s-.562,3.147,3.763,6.717" transform="translate(-21.597 -23.811)" fill="#e28430"/>
        <path id="Trazado_1278925" data-name="Trazado 1278925" d="M106.64,130.824c8.876,2.493,17.114,2.08,20.772-.675-6.328-5.2-18.86-10.384-21.109-10.119-1.674.2-7.9,3.075-11.85,5.212a39.917,39.917,0,0,0,12.187,5.583" transform="translate(-16.207 -20.594)" fill="#e28430"/>
        <path id="Trazado_1278926" data-name="Trazado 1278926" d="M113.1,198.208c2.724-1.147,8.643-5.313,13.923-9.224-11.681-3.735-11.8-7.65-11.8-7.65l3.471-5.207-5.786,3.086s-9.449-6.557-8.485-17.934c.86-10.147-2.688-30.858-11.474-31.722-1.25.716-2.447-.88-2.555-.627-.434,1.013-.145,7.666,1.88,26.179s20.827,43.1,20.827,43.1" transform="translate(-15.48 -22.118)" fill="#e28430"/>
        <path id="Trazado_1278927" data-name="Trazado 1278927" d="M78.092,164.5c-1.012-1.736-.289-6.364-.289-6.364s.145-16.343.434-17.5,2.314-10.413,8.244-12c1.091-.292,5.352-2.314,5.352-2.314s8.678,4.772,6.075,20.971c-.374,2.325-5.931,23-5.931,23Z" transform="translate(-13.307 -21.674)" fill="#eaac3d"/>
        <path id="Trazado_1278928" data-name="Trazado 1278928" d="M97.256,129.294a7.072,7.072,0,0,0-4.748-3.327s-5.032,1.925-6.123,2.218c-5.93,1.591-7.858,11.233-8.147,12.391s-.434,17.5-.434,17.5-.723,4.628.289,6.364l13.884,5.785s.067-.248.181-.673c-3.533-7.742-11.879-11.449-12.475-14.176-.674-3.086.579-12.077,1.157-13.137s4.339.289,4.339.289-3.712-2.074-3.037-4.483c.586-2.094,6.58-10.848,15.114-8.751" transform="translate(-13.307 -21.614)" fill="#e28430"/>
        <path id="Trazado_1278929" data-name="Trazado 1278929" d="M91.636,175.687c2.748,7.376-3.327,28.2-3.327,28.2l-8.871-1.881s-1.832-16.054-2.121-19.815.434-10.7.578-12.293,12.926,3.6,13.74,5.785" transform="translate(-13.255 -29.102)" fill="#f2b191"/>
        <path id="Trazado_1278930" data-name="Trazado 1278930" d="M89.394,175.687a5.9,5.9,0,0,1,2.41.529c-.053-.181-.106-.362-.168-.529-.814-2.185-13.6-7.376-13.74-5.785s-.867,8.533-.578,12.293c.13,1.689.571,5.856,1.017,9.936,1.662-9.6,5.986-16.444,11.059-16.444" transform="translate(-13.255 -29.102)" fill="#e08869"/>
        <path id="Trazado_1278931" data-name="Trazado 1278931" d="M116.408,130.154a10.253,10.253,0,0,0,4.289-5.188c-5.646-2.96-11.5-5.109-12.966-4.936a24.938,24.938,0,0,0-4.955,1.826c1.236,2.392,3.831,5.429,9.293,7.864L119.734,141Z" transform="translate(-17.635 -20.594)" fill="#fff8e3"/>
        <path id="Trazado_1278932" data-name="Trazado 1278932" d="M107.179,120.148c-.087.023-.169.043-.266.072s-.21.067-.317.1l-.221.072c-.14.048-.292.1-.443.159l-.168.061c-.172.064-.355.136-.54.209l-.137.052c-.2.08-.409.166-.621.253l-.109.045c-.22.091-.446.188-.675.287l-.1.044c-.228.1-.461.2-.7.306l-.105.046c1.236,2.392,3.832,5.429,9.294,7.864l1.564,2.3c1.188.18,2.345.3,3.463.375l-.688-2.244a10.253,10.253,0,0,0,4.289-5.188l-.365-.189q-.247-.129-.5-.255l-.46-.231c-.17-.085-.34-.169-.509-.253-.143-.07-.287-.142-.431-.21-.241-.117-.48-.23-.719-.343l-.419-.2c-.223-.1-.445-.206-.665-.306l-.367-.164c-.191-.086-.383-.171-.572-.253l-.345-.15c-.232-.1-.461-.2-.688-.292l-.191-.08q-.426-.176-.837-.34l-.258-.1c-.2-.077-.39-.152-.58-.224l-.269-.1q-.306-.114-.6-.22l-.174-.063c-.248-.088-.489-.17-.721-.247l-.165-.053c-.176-.058-.348-.112-.514-.163l-.2-.06c-.156-.046-.306-.089-.451-.128l-.16-.043c-.189-.05-.369-.094-.536-.131l-.076-.015c-.138-.029-.267-.054-.389-.074l-.132-.019c-.1-.014-.191-.024-.276-.031-.036,0-.073-.007-.106-.007a1.88,1.88,0,0,0-.295,0,3.305,3.305,0,0,0-.362.066c-.057.013-.128.035-.19.051" transform="translate(-17.635 -20.594)" fill="#eadec1"/>
        <path id="Trazado_1278933" data-name="Trazado 1278933" d="M105.44,118.792c2.025-4.049,4.194-12.728,4.194-12.728l12.149.723s-2.025,12.873-2.892,14.174-4.483,3.326-7.232,2.6-6.219-4.772-6.219-4.772" transform="translate(-18.092 -18.199)" fill="#dd6d62"/>
        <path id="Trazado_1278934" data-name="Trazado 1278934" d="M108.606,108.041l4.049-3.616,12.294-.433a58.116,58.116,0,0,0,6.22-7.81c1.736-3.037,1.156-7.232,1.156-7.232l-2.6-.723-1.157,2.315V86.635s-6.824-2.112-6.942-1.4a10.592,10.592,0,0,0,.145,2.556l-1.736-2.507s-7.923-1.977-8.437,1.4a76.969,76.969,0,0,1-3.134,11.233,19.826,19.826,0,0,0,.145,10.124" transform="translate(-18.51 -14.535)" fill="#662d3b"/>
        <path id="Trazado_1278935" data-name="Trazado 1278935" d="M111.6,86.683a76.969,76.969,0,0,1-3.134,11.233,19.826,19.826,0,0,0,.145,10.124l4.049-3.616,9.008-.318a30.917,30.917,0,0,0,.755-6.841,28.854,28.854,0,0,0-2.489-12c-.92-.215-7.854-1.728-8.334,1.422" transform="translate(-18.51 -14.535)" fill="#542432"/>
        <path id="Trazado_1278936" data-name="Trazado 1278936" d="M109.106,113.073c2.025,4.628,11.281,7.376,12.294,5.641s5.639-13.6,6.217-15.042,1.448-4.917,1.159-5.786-4.339-1.591-5.93-1.88-3.471-2.749-5.352-3.038-3.037,10.558-5.352,11.281c-.995.311-3.037,8.823-3.037,8.823" transform="translate(-18.721 -15.951)" fill="#f2b191"/>
        <path id="Trazado_1278937" data-name="Trazado 1278937" d="M111.564,105.686c-3.471-1.012-5.062-4.483-3.616-6.219s3.616.289,4.194,1.88-.578,4.339-.578,4.339" transform="translate(-18.431 -16.953)" fill="#f2b191"/>
        <path id="Trazado_1278938" data-name="Trazado 1278938" d="M122.816,97.632l-12.6-2.567-.518,1.989c6.267,1.928,15.331,2.025,15.331,2.025Z" transform="translate(-18.824 -16.312)" fill="#f4e9cb"/>
        <path id="Trazado_1278939" data-name="Trazado 1278939" d="M122.5,93.755l-10.9-4.917-.868,4.049s7.906,3.279,10.51,4.339a58.177,58.177,0,0,1,7.328,4.242l2.8-3.76a86.642,86.642,0,0,0-8.871-3.953" transform="translate(-19.001 -15.243)" fill="#fff8e3"/>
        <path id="Trazado_1278940" data-name="Trazado 1278940" d="M87.162,205.19c.675,2.122,1.06,3.182,2.025,3.953s4.242,1.736,5.3,2.025.771,2.025.771,2.025H64.792s-.675-1.446-.289-1.929,6.942-1.736,8.2-2.025S77.327,205,77.327,205Z" transform="translate(-11.047 -35.175)" fill="#f2b191"/>
        <path id="Trazado_1278941" data-name="Trazado 1278941" d="M168.968,186.607l3.182,4.146-6.942,2.989,3.374-3.086Z" transform="translate(-28.347 -32.019)" fill="#613275"/>
        <path id="Trazado_1278942" data-name="Trazado 1278942" d="M143.723,132.158c-2.448.515.675,7.231,3.278,10.124s5.69,4.365,9.739,3.76c6.46-.964,8.389-6.653,3.471-11.088s-14.655-3.182-16.488-2.8" transform="translate(-24.509 -22.597)" fill="#753d89"/>
        <path id="Trazado_1278943" data-name="Trazado 1278943" d="M151.319,138.041c-4.51-1.961-8.1-8.823-8.389-10.7s-1.881-21.116-2.17-22.563-.578-3.471-.578-3.471,8.244-2.17,8.678-1.881,5.786,10.414,7.231,14.752,5.207,19.381,5.352,20.1-6.8,5.207-10.124,3.76" transform="translate(-24.054 -17.055)" fill="#f2b191"/>
        <path id="Trazado_1278944" data-name="Trazado 1278944" d="M159.977,135.3c-6.37,1.631-14.457-7.033-18.091-19.363.543,5.975,1.166,13.13,1.337,14.24.29,1.881,3.879,8.742,8.389,10.7,3.327,1.446,10.269-3.038,10.125-3.761-.032-.158-.237-1-.553-2.269a6.192,6.192,0,0,1-1.207.45" transform="translate(-24.346 -19.893)" fill="#e08869"/>
        <path id="Trazado_1278945" data-name="Trazado 1278945" d="M77.239,171.907a4.564,4.564,0,0,1-.675-4.05s-1.639-1.253-.482-2.7,15.331,7.135,16.392,9.16-.386,2.989-.386,2.989c-2.6-3.76-8.708-6.119-14.848-5.4" transform="translate(-12.984 -28.311)" fill="#753d89"/>
        <path id="Trazado_1278946" data-name="Trazado 1278946" d="M111.277,103.752c-.64,0-1.158-.389-1.158-.868s.519-.867,1.158-.867c.031,0,.06,0,.091.007-.339-.9-1.56-2.03-2.377-1.05s.082,2.96,2.055,3.536a6.678,6.678,0,0,0,.253-.758l-.022,0" transform="translate(-18.649 -17.261)" fill="#dd6d62"/>
        <path id="Trazado_1278947" data-name="Trazado 1278947" d="M134.072,92.029a14.665,14.665,0,0,1,2.6-1.591l5.062.8-3.11,3.688Z" transform="translate(-23.005 -15.518)" fill="#e08869"/>
        <path id="Trazado_1278948" data-name="Trazado 1278948" d="M138.545,101.2c-1.157-3.037-1.3-4.122-2.242-4.628s-2.6-2.1-3.327-2.1-3.109.8-3.688.723-1.012-2.17-.578-2.532a21.182,21.182,0,0,1,4.772-1.3,24.455,24.455,0,0,1,3.544,1.229,27.2,27.2,0,0,0-2.6-1.663,36.9,36.9,0,0,1-4.049.073c-.434-.145.072-1.808.506-2.315s4.194-.506,4.845-.289,3.544,1.808,3.833,1.808a13.072,13.072,0,0,1,3.037,1.013c1.013.505,4.411,6.508,4.411,6.508Z" transform="translate(-22.055 -15.145)" fill="#f2b191"/>
        <path id="Trazado_1278949" data-name="Trazado 1278949" d="M124.974,105.308c-.289,2.989-1.06,8.871-1.784,9.16s-2.893-.867-2.8-1.253a14.629,14.629,0,0,1,.916-1.784l1.012.385Z" transform="translate(-20.657 -18.069)" fill="#e08869"/>
        <path id="Trazado_1278950" data-name="Trazado 1278950" d="M116.043,115.316c1.832-.145,5.11,1.349,5.641,1.687s-.675.771-.916.626-3.085-.915-4.483-1.349c-.86-.267-.241-.964-.241-.964" transform="translate(-19.875 -19.785)" fill="#542432"/>
        <path id="Trazado_1278951" data-name="Trazado 1278951" d="M119.666,118.631c-1.639-.723-3.519-1.109-2.8-.675a10.5,10.5,0,0,0,2.8.675" transform="translate(-20.026 -20.208)" fill="#e08869"/>
        <path id="Trazado_1278952" data-name="Trazado 1278952" d="M119.943,105.5a7.839,7.839,0,0,0-1.526-.335,1.674,1.674,0,0,0,1.492,2,1.867,1.867,0,0,0,1.542-1,7.519,7.519,0,0,0-1.508-.669" transform="translate(-20.317 -18.045)" fill="#542432"/>
        <path id="Trazado_1278953" data-name="Trazado 1278953" d="M127.413,108.536a5.576,5.576,0,0,0-1.272-.316c-.078,1.107.474,1.992,1.244,1.981a1.59,1.59,0,0,0,1.285-1.013,5.722,5.722,0,0,0-1.257-.651" transform="translate(-21.643 -18.569)" fill="#542432"/>
        <path id="Trazado_1278954" data-name="Trazado 1278954" d="M121.835,117a15.25,15.25,0,0,0-5.127-1.686,11.542,11.542,0,0,0,2.651,1.242,12.192,12.192,0,0,0,2.6.6.253.253,0,0,0-.127-.155" transform="translate(-20.026 -19.787)" fill="#fff"/>
        <path id="Trazado_1278955" data-name="Trazado 1278955" d="M130.511,108.1c-1.562-.521-4.086-1.157-4.231-1.881s.326-2.494.868-2.386a19.372,19.372,0,0,1,4.338,2.133c.217.4-.542,2.277-.976,2.133" transform="translate(-21.664 -17.816)" fill="#662d3b"/>
        <path id="Trazado_1278956" data-name="Trazado 1278956" d="M122.674,104.874c-2.034-.521-5.319-1.157-5.507-1.881s.423-2.494,1.13-2.386,5.366,1.736,5.648,2.133-.706,2.278-1.271,2.133" transform="translate(-20.098 -17.262)" fill="#662d3b"/>
        <path id="Trazado_1278957" data-name="Trazado 1278957" d="M244.518,88.42a1.534,1.534,0,0,1-1.037.582c-.718.069-.959-.962-1.4-1.93-.185-.077-.306-.125-.306-.125.506,1.157.471,2.676,1.338,2.712s1.591-.76,1.411-1.229l-.007-.01" transform="translate(-41.485 -14.919)" fill="#dd6d62"/>
        <path id="Trazado_1278958" data-name="Trazado 1278958" d="M244.92,82.741a2.206,2.206,0,0,0-1.958-1.77,1.3,1.3,0,0,0-1.468,1.526,2.205,2.205,0,0,0,1.958,1.771,1.3,1.3,0,0,0,1.468-1.527" transform="translate(-41.434 -13.893)" fill="#542432"/>
        <path id="Trazado_1278959" data-name="Trazado 1278959" d="M239.838,88.338a2.172,2.172,0,0,0-1.148-2.156c-.819-.478-1.633-.288-1.818.425a2.173,2.173,0,0,0,1.148,2.156c.819.478,1.634.287,1.818-.425" transform="translate(-40.637 -14.742)" fill="#542432"/>
        <path id="Trazado_1278960" data-name="Trazado 1278960" d="M247.446,87.6c-.109-.036-1.049,1.627-3.182,4.049l.181.109,3.652-3.652a5.946,5.946,0,0,0-.651-.506" transform="translate(-41.912 -15.031)" fill="#dd6d62"/>
        <path id="Trazado_1278961" data-name="Trazado 1278961" d="M247.271,91.536c-.656.6-1.193.253.326-1.012s.109.615-.326,1.012" transform="translate(-42.316 -15.459)" fill="#dd6d62"/>
        <path id="Trazado_1278962" data-name="Trazado 1278962" d="M240.594,83.494a16.743,16.743,0,0,1,3.672-3.356l-1.177-1.092a33.3,33.3,0,0,0-2.933,3.841Z" transform="translate(-41.208 -13.563)" fill="#542432"/>
        <path id="Trazado_1278963" data-name="Trazado 1278963" d="M238.748,85.507a9.447,9.447,0,0,0-2.026,3.024l-1.158-1.2a18.375,18.375,0,0,1,2.623-2.2Z" transform="translate(-40.42 -14.607)" fill="#542432"/>
        <path id="Trazado_1278964" data-name="Trazado 1278964" d="M238.421,81.68c2.02-1.731,4.122-3.905,4.122-3.905L240.88,76.69s-3.326,3.543-3.471,3.941.76,1.266,1.012,1.049" transform="translate(-40.733 -13.159)" fill="#8c291c"/>
        <path id="Trazado_1278965" data-name="Trazado 1278965" d="M237.016,84.1c-1.783,2.02-4.019,4.12-4.019,4.12l-1.115-1.663s3.647-3.324,4.056-3.469,1.3.76,1.079,1.013" transform="translate(-39.788 -14.254)" fill="#8c291c"/>
        <path id="Trazado_1278966" data-name="Trazado 1278966" d="M244.086,85.04c-1.373.33-.321-2.023,1.364-2.672s.539,2.216-1.364,2.672" transform="translate(-41.773 -14.117)" fill="#f2b191"/>
        <path id="Trazado_1278967" data-name="Trazado 1278967" d="M239.016,90.428c-1.319.5-.58-1.965,1.007-2.826s.821,2.127-1.007,2.826" transform="translate(-40.895 -15.005)" fill="#f2b191"/>
        <path id="Trazado_1278968" data-name="Trazado 1278968" d="M114.114,83.677c3.234,2.564,6.772,4.459,5.081,4.98s-7.448-3.6-7.448-3.6Z" transform="translate(-19.174 -14.358)" fill="#f2b191"/>
      </g>
    </g>
  </g>
</svg>
