<svg xmlns="http://www.w3.org/2000/svg" xmlns:xlink="http://www.w3.org/1999/xlink" width="187.711" height="160" viewBox="0 0 187.711 160">
  <defs>
    <clipPath id="clip-path">
      <rect id="Rectángulo_460807" data-name="Rectángulo 460807" width="117.233" height="117.265" fill="none"/>
    </clipPath>
  </defs>
  <g id="Grupo_1212907" data-name="Grupo 1212907" transform="translate(-185.711 -988)">
    <g id="Grupo_1209802" data-name="Grupo 1209802" transform="translate(-103.566 -7880.039)">
      <g id="Grupo_1204518" data-name="Grupo 1204518" transform="translate(289.277 8868.039)">
        <rect id="Rectángulo_455283" data-name="Rectángulo 455283" width="187.711" height="160" rx="19" fill="#ffcce2"/>
      </g>
    </g>
    <g id="Grupo_1211417" data-name="Grupo 1211417" transform="translate(220.711 1009)">
      <g id="Grupo_1211416" data-name="Grupo 1211416" clip-path="url(#clip-path)">
        <path id="Trazado_1274717" data-name="Trazado 1274717" d="M64.853,4.787c-.168.3.329,1.318-.482,2.035s-5.2,2.268-6.795,3.266c-7.428,4.653-14.6,14.487-17.549,22.7-.7,1.936-2.366,7.21-2.354,9.055,0,.553-.237.925.5.839,1.345-.156,3.2-1.06,4.875-1.336a24.052,24.052,0,0,1,19.09,4.893c2.89,2.165,4.97,5.311,8.42,6.673,8.763,3.457,9.439-3.871,15.768-6.021,1.6-.545,6.351-1.26,6.337,1.334-.014,2.614-2.561,1.448-3.74,1.567-1.029.1-2.268,1-3.275,1.286l3.363,2.164c1.877,1.329,3.988,8.869.241,8.177-1.653-.305-1.205-2.068-1.614-3.449a4.607,4.607,0,0,0-5.7-3.392c-1.155.376-3.139,2.534-4.844,2.534H72.232a61.758,61.758,0,0,1,6.294,11.315c1.248,3,2.207,8.511,5.318,10.111,1.285.66,3.819.091,4.1,1.962.552,3.739-5.837,1.249-7.319.426a14.491,14.491,0,0,0-.261,5.121c.315,1.715,3.162,3.729,1.116,4.96-3.036,1.827-4.938-4.611-4.91-6.893C76.591,82,78.123,78.75,77.927,77.1a66.664,66.664,0,0,0-2.849-7.908c-.279-.648-2.011-4.289-2.35-4.367-.459-.107-1.367,1.006-1.64,1.372-3,4.028,1.161,13.152-2.367,19.1-.839,1.415-3.191,3.75-4.563,1.859-1.244-1.716.8-2.461,1.517-3.562,1.02-1.559,1.128-4.175,1.187-6.021a8.526,8.526,0,0,1-7.941.733c-1.487-.546-2.953-1.3-2.388-3.18.692-2.3,4.387.537,6.1.422,1.5-.1,3.71-1.624,3.916-3.157.478-3.574-.855-5.13,1.856-8.541.54-.679,2.51-2.108,2.455-2.492-5.18-7.85-13.091-16.829-23.276-17.015-4.768-.087-6.448,3.831-6.531,8.061A11.676,11.676,0,0,1,51.114,59.95c.541,1.6,1.42,4.339-1.2,4.225-1.806-.079-1.69-2.327-2.372-3.676a7.341,7.341,0,0,0-6.171-4.391c1.272,4.7,4.248,10.087.669,14.588-1.052,1.323-4.371,3.6-5.667,1.636-1.72-2.613,3.184-2.506,3.636-5.345.7-4.379-1.948-7.543-2.324-11.726a20.71,20.71,0,0,1,1-8.881c-6.822,2.369-11.8,10.972-12.4,17.948-.541,6.258.85,10.785,4.216,15.9.9,1.361,5.17,6.223,5.093,7.189-.033.415-.6.986-.594,1.225a1.886,1.886,0,0,1-2.2.017c-1.5-.865-4.479-6.089-5.422-6.341-2.968-.792-7.322,5.182-7.986,7.655-.536,1.994.371,1.751,1.546,2.842.349.324.629,1.181.863,1.219.5.081,1.8-.61,2.63-.7,1.466-.155,5.454.02,4.734,2.356-.76,2.463-3.457.506-5.232,1.34.264,2.469,2.969,8.645-1.522,8.072-1.408-.18-1.035-3.4-1.242-4.476a9.578,9.578,0,0,0-2.936-5.278c-.069.734-.3,1.422-.353,2.166-.22,2.928.622,9.294-.134,11.606a1.825,1.825,0,0,1-3.542-.356,58.062,58.062,0,0,1-.014-8.567c.416-7.863,2.388-18.442,11.068-20.966-.911-3.618-1.311-4.765-5.14-3.294-11.146,4.282-8.684,23.586-9.6,32.826-.244,2.452-3.076,2.119-3.372-.15a81.238,81.238,0,0,1,.021-11.082A80.079,80.079,0,0,1,8.838,85.958c-3.031.123-3.768.774-4.595,3.619-.525,1.806-.263,6.519-2.332,6.706C-.8,96.53.221,91.443.547,89.907c.251-1.185,1.925-4.655,1.914-5.133-.013-.6-4.23-4.824-1.6-5.972,3.357-1.463,1.9,3.418,5.789,3.812,4.351.44,3.88-2.586,6.07-5.349,2.372-2.992,5.374-4.321,8.87-5.588-.641-1.954-1.667-3.736-2.364-5.67-2.119-5.884-3.733-12.363-3.014-18.62-5.073,1.757-3.982,6.1-4.4,10.185-.276,2.685-1.954,5.51.494,7.81,1.135,1.067,4.1.822,3.017,3.391-.313.745-1.584.824-2.289.77-2.572-.2-4.113-3.36-4.4-3.4-.848-.126-5.339,3.477-6.688.7C.74,64.336,4.243,64.4,5.4,63.9c1.572-.69,2.414-3.461,2.688-5.026.081-.461.437-3.41.4-3.587-.176-.858-1.411-.14-2.113-.2-2.09-.182-6.608-2.949-3.758-4.7,2.446-1.5,3.058,3.449,6.364-.682,1.952-2.439,2.235-4.03,5.438-5.63.567-.283,2.332-.677,2.416-.772.1-.119.536-2.382.809-3.048.237-.58,1.792-3.388,1.6-3.6-2.766-.355-4.055-2.268-4.878-4.685-.329-.967.091-2.3-1.168-2.857a10.168,10.168,0,0,0-4.35-.005c-2.1,1.157-.877,6.887-2.928,7.483-4.106,1.194-1.1-7.326-1.434-7.652-3.679,1.181-6.716-3.33-2.2-3.7,2.381-.2,9.116-.3,11.254.178a5.861,5.861,0,0,1,3.3,2.4c1.545,2.426.173,5.589,3.918,5.512,1.8-.037,3.281-2.555,4.7-3.714,1.218-1,5.072-2.936,5.7-3.687.319-.379.3-.393-.055-.7a22.837,22.837,0,0,0-9.5-4.862c-2.741-.644-4.654.412-5.879-2.842C13.158,10.708,17.653.771,25.458.416,31.314.15,39.629,9.943,42.521,14.541c.357.567,1.337,2.906,1.712,2.993.475.11,5.791-5.943,6.863-6.882C53.3,8.722,60.913,3.325,63.661,3.777a1.519,1.519,0,0,1,1.192,1.011m-26.5,23.478a36.75,36.75,0,0,1,3.691-7.211c-2.728-5.393-6.292-10.976-11.291-14.533-3.231-2.3-5.992-3.794-9.383-.608-1.979,1.859-4.17,8.166-2.3,10.282.219.248,5.281,1.264,6.383,1.667,5.424,1.98,9.385,6,12.9,10.4m-4.07.38c-.515-.3-3.1,1.3-3.744,1.7-10.332,6.307-12.6,16.3-10.068,27.716.175.79,1.566,5.871,1.791,6.1.553.55.567-.122.677-.488.3-.988.284-2.134.546-3.148a29.51,29.51,0,0,1,5.645-11.461c1.048-1.24,4.306-3.663,4.646-4.745.5-1.582.661-4.177,1.056-5.987.371-1.7,1.828-5.348,1.331-6.69a35.237,35.237,0,0,0-1.879-2.989" transform="translate(0 -0.273)" fill="#12263f"/>
        <path id="Trazado_1274718" data-name="Trazado 1274718" d="M171.725,3.508a2.383,2.383,0,0,1,1.927-2.265c3.3-.977,13.972-1.607,17.28-1.009,2.765.5,4.7,5.342,4.9,7.844a11.962,11.962,0,0,1-2.649,8.337c-2.69,3.024-5.851.793-9.222.516a24.089,24.089,0,0,0-7.481.558c-.539.128-1.892.239-2.071.775a39.678,39.678,0,0,1,19.446,5.7c.938-2.38,3.625-4.52,5.819-5.757.96-.541,4.272-1.7,4.52-2.189.122-3.8,4.7-7.452,1.746-11.008-1.022-1.23-4.857-2.344-2.7-4.372,2.008-1.891,6.6,2.67,6.729,4.88.382.358,5.7-3.769,6.316-.419.355,1.931-2.654,2.453-4.082,3.495a12.031,12.031,0,0,0-4.25,6.647c2.859-.13,8.58-1.673,11.165-.932a1.866,1.866,0,0,1-.432,3.619c-1.436.271-3.6-.148-5.195,0-5.3.51-13.021,2.319-16.269,6.872-1.625,2.277,1.218,3.255,2.675,4.863,1.905-4.3,7.223-6.814,11.668-7.624,2.4-.437,4.792-.222,7.121-.762,1.819.338,2.4,2.746.663,3.514-.847.374-5.088.323-6.762.617-.665.117-4.294.838-4.293,1.4,2.969,2.489,3.028,5.372,7.555,5.539,1.332.048,2.662-.689,3.695-.024a1.882,1.882,0,0,1-.691,3.374h-5.367c-.122,0-.276-.543-.5-.171a26.617,26.617,0,0,1,.32,7.375c-.329,1.757-2.834,1.971-3.29.624-.349-1.028.055-3.631-.059-4.972-.231-2.715-.769-5.976-2.682-8.052-1.947-2.113-3.582-1.613-4.66,1.037-1.054,2.591.725,4.472,1.4,6.917a51.854,51.854,0,0,1,1.619,13.308c3.972.411,7.233,1.874,7.675,6.244.374,3.7-1.331,11.118,3.356,12.744,1.3.451,3.318.042,3.635,1.758.671,3.624-5.408,1.783-6.985.42-.067,2.742-.4,6.881,2.588,8.309,1.461.7,5.215.018,4.391,2.853-.758,2.609-5.334.254-5.64.576.914,2.8-3.975,10.089-6.569,7.073-1.867-2.171,1.6-2.815,2.351-4.076,2.426-4.078-.71-7.992-.782-11.92-.1-5.468,1.007-11.5.214-16.982-.418-2.892-1.884-3.3-4.61-3.276l-.343,8.881c-.248,1.312-1.53,1.337-1.668,1.519-1.143-.145-1.484-.386-1.646-1.528-.757-5.353.718-12.358.317-18.105C201,33.019,193,24.83,180.179,22.39c-2.5-.476-9.386-1.343-11.572-.7-1.419.417-3.608,4.779-4.213,6.184-.683,1.585-2.266,5.86-2.334,7.4-.056,1.26,5.089,1.6,4.972,3.919-.163,3.249-4.738.321-6.457-.221-1.806-.57-6-.376-5.225-3.026.611-2.1,3.15-.781,3.291-.911.179-.167.83-3.894,1.108-4.766C164.414,15.62,175.245,11,189.963,14.5c2.375-.453,4.144-10.376-1.3-10.991A60.881,60.881,0,0,0,173.737,4.85c-1.068.421-1.67-1.258-2.012-1.342" transform="translate(-103.182 0)" fill="#12263f"/>
        <path id="Trazado_1274719" data-name="Trazado 1274719" d="M170.346,208.459c2.52,0,1.741,4.808,1.693,6.892-.351,15.356.671,41.841-21.647,40.4-11.859-.767-24.448-8.225-33.546-15.424,0,3.112-1.768,5.157-.943,8.322,1.073,4.116,6.625,2.077,6.483,4.894-.149,2.96-4.436,1.5-6.055.715a6.754,6.754,0,0,1-3.682-4.54c-.373-.277-5.906,4.682-6.375,1.154-.277-2.091,1.468-2.091,2.665-3.024,4.619-3.6,5.935-7.705,2.03-12.713-.978-1.254-5.1-3.914-2.675-5.542a4.358,4.358,0,0,1,1.175-.294c1.4.083,4.884,4.332,6.2,5.5a81.432,81.432,0,0,0,19.965,13.237c-.9-2.758-4.01-6.715-4.113-9.611a1.784,1.784,0,0,1,3.412-.754c1.4,2.52,1.743,5.2,3.746,7.993,5.806,8.085,18.647,9.46,24.761,1.006,5.075-7.018,4.552-17.963,4.907-26.286.153-3.57.015-7.168.33-10.738.183-.961.76-1.184,1.668-1.183" transform="translate(-70.61 -138.54)" fill="#12263f"/>
        <path id="Trazado_1274720" data-name="Trazado 1274720" d="M143.122,10.455c.343.084.944,1.763,2.012,1.342-8.241,2.513-16.67,11.136-21.066,18.345a45.2,45.2,0,0,0-6.437,17.88c-1.676.275-3.53,1.18-4.875,1.336-.74.086-.5-.286-.5-.839-.012-1.845,1.658-7.119,2.354-9.055,2.953-8.214,10.122-18.047,17.549-22.7,1.593-1,5.974-2.539,6.8-3.266s.314-1.739.482-2.036a21.457,21.457,0,0,1,3.69-1.006" transform="translate(-74.579 -6.947)" fill="#e96060"/>
        <path id="Trazado_1274721" data-name="Trazado 1274721" d="M31.355,257.181c.919-9.24-1.543-28.544,9.6-32.827,3.829-1.471,4.23-.324,5.14,3.294-8.679,2.524-10.652,13.1-11.068,20.966a58.016,58.016,0,0,0,.014,8.567Z" transform="translate(-20.838 -148.69)" fill="#e24343"/>
        <path id="Trazado_1274722" data-name="Trazado 1274722" d="M300.863,53.4v3.354c-2.328.539-4.721.325-7.121.762-4.444.81-9.762,3.323-11.668,7.624-1.457-1.608-4.3-2.586-2.675-4.863,3.248-4.553,10.968-6.362,16.269-6.872,1.591-.153,3.759.267,5.194,0" transform="translate(-185.363 -35.468)" fill="#e24343"/>
        <path id="Trazado_1274723" data-name="Trazado 1274723" d="M72.964,84.515A35.238,35.238,0,0,1,74.843,87.5c.5,1.342-.96,4.99-1.331,6.69-.395,1.811-.558,4.405-1.056,5.987-.34,1.082-3.6,3.5-4.646,4.745a29.51,29.51,0,0,0-5.645,11.461c-.262,1.014-.249,2.16-.546,3.148-.11.366-.123,1.037-.677.488-.225-.224-1.616-5.306-1.791-6.1-2.529-11.416-.263-21.41,10.068-27.716.643-.392,3.229-2,3.744-1.7" transform="translate(-38.682 -56.143)" fill="#e24343"/>
        <path id="Trazado_1274724" data-name="Trazado 1274724" d="M74.726,35.549c-3.517-4.409-7.479-8.424-12.9-10.4-1.1-.4-6.164-1.418-6.383-1.667-1.867-2.116.324-8.423,2.3-10.282,3.392-3.185,6.152-1.691,9.383.608,5,3.557,8.563,9.141,11.291,14.533a36.75,36.75,0,0,0-3.691,7.211" transform="translate(-36.374 -7.557)" fill="#9fc0f8"/>
        <path id="Trazado_1274725" data-name="Trazado 1274725" d="M122.415,11.641A60.881,60.881,0,0,1,137.34,10.3c5.445.615,3.675,10.538,1.3,10.991-14.718-3.5-25.549,1.12-30.214,15.772-.277.872-.928,4.6-1.108,4.766-.141.13-2.68-1.188-3.291.911-.771,2.65,3.419,2.456,5.225,3.026,1.719.542,6.294,3.47,6.457.221.116-2.32-5.028-2.659-4.972-3.919.068-1.544,1.651-5.819,2.334-7.4.605-1.406,2.794-5.768,4.213-6.184,2.186-.642,9.074.225,11.572.7,12.817,2.439,20.822,10.628,21.746,23.87.4,5.748-1.073,12.753-.317,18.105.161,1.142.5,1.383,1.646,1.528-.378.5-.329,3.238-.335,4.025-.908,0-1.486.222-1.668,1.183-.316,3.569-.178,7.167-.33,10.737-.356,8.323.168,19.268-4.907,26.286-6.113,8.453-18.955,7.079-24.761-1.006-2-2.79-2.343-5.474-3.746-7.993a1.784,1.784,0,0,0-3.412.753c.1,2.9,3.213,6.853,4.113,9.611a81.441,81.441,0,0,1-19.965-13.237c-1.315-1.166-4.8-5.415-6.2-5.5a4.359,4.359,0,0,0-1.175.294c-.529-.346-2.675-2.292-2.683-2.683-.005-.238.561-.809.594-1.225.077-.966-4.2-5.828-5.094-7.189C79,81.631,77.6,77.1,78.146,70.846c.6-6.976,5.581-15.579,12.4-17.948a20.711,20.711,0,0,0-1,8.881c.376,4.182,3.02,7.346,2.323,11.726-.451,2.84-5.355,2.732-3.635,5.345,1.3,1.969,4.615-.314,5.667-1.636,3.578-4.5.6-9.886-.669-14.588a7.34,7.34,0,0,1,6.171,4.391c.682,1.349.566,3.6,2.372,3.676,2.616.114,1.737-2.623,1.2-4.225a11.676,11.676,0,0,0-10.062-7.547c.084-4.23,1.763-8.148,6.531-8.061,10.185.186,18.1,9.165,23.276,17.015.055.383-1.916,1.813-2.455,2.492-2.712,3.411-1.379,4.967-1.857,8.541-.205,1.532-2.42,3.056-3.916,3.157-1.713.115-5.408-2.724-6.1-.423-.564,1.877.9,2.634,2.388,3.18a8.525,8.525,0,0,0,7.941-.733c-.059,1.847-.166,4.462-1.187,6.021-.721,1.1-2.761,1.847-1.517,3.562,1.371,1.892,3.723-.444,4.562-1.859,3.528-5.948-.631-15.072,2.367-19.1.273-.367,1.181-1.479,1.64-1.373.339.079,2.071,3.719,2.35,4.367a66.712,66.712,0,0,1,2.849,7.908c.2,1.65-1.336,4.9-1.362,7.014-.028,2.281,1.874,8.72,4.91,6.892,2.047-1.231-.8-3.245-1.116-4.96a14.491,14.491,0,0,1,.261-5.121c1.482.824,7.871,3.314,7.319-.426-.276-1.871-2.811-1.3-4.1-1.962-3.112-1.6-4.07-7.109-5.318-10.111a61.789,61.789,0,0,0-6.294-11.315h4.863c1.7,0,3.689-2.158,4.843-2.534a4.607,4.607,0,0,1,5.7,3.392c.409,1.381-.039,3.144,1.614,3.449,3.747.692,1.636-6.848-.24-8.177L137.511,57.6c1.007-.288,2.246-1.181,3.275-1.286,1.179-.119,3.726,1.046,3.74-1.567.014-2.594-4.732-1.879-6.337-1.334-6.329,2.15-7,9.478-15.768,6.021-3.45-1.361-5.53-4.508-8.42-6.673a24.052,24.052,0,0,0-19.09-4.892,45.2,45.2,0,0,1,6.437-17.88c4.4-7.209,12.825-15.832,21.066-18.345" transform="translate(-51.859 -6.791)" fill="#f17b7b"/>
      </g>
    </g>
  </g>
</svg>
