<svg xmlns="http://www.w3.org/2000/svg" xmlns:xlink="http://www.w3.org/1999/xlink" width="396.925" height="303.52" viewBox="0 0 396.925 303.52">
  <defs>
    <clipPath id="clip-path">
      <rect id="Rectángulo_455593" data-name="Rectángulo 455593" width="72.093" height="71.683" fill="#ff9ebf"/>
    </clipPath>
    <clipPath id="clip-path-3">
      <rect id="Rectángulo_455590" data-name="Rectángulo 455590" width="34.882" height="71.683" fill="#ff9ebf"/>
    </clipPath>
    <clipPath id="clip-path-4">
      <rect id="Rectángulo_455591" data-name="Rectángulo 455591" width="72.093" height="33.673" fill="#ff9ebf"/>
    </clipPath>
    <clipPath id="clip-path-5">
      <rect id="Rectángulo_455593-2" data-name="Rectángulo 455593" width="47.879" height="47.606" fill="#ff9ebf"/>
    </clipPath>
    <clipPath id="clip-path-7">
      <rect id="Rectángulo_455590-2" data-name="Rectángulo 455590" width="23.166" height="47.606" fill="#ff9ebf"/>
    </clipPath>
    <clipPath id="clip-path-8">
      <rect id="Rectángulo_455591-2" data-name="Rectángulo 455591" width="47.879" height="22.363" fill="#ff9ebf"/>
    </clipPath>
    <clipPath id="clip-path-9">
      <rect id="Rectángulo_455593-3" data-name="Rectángulo 455593" width="39.76" height="39.534" fill="#ff9ebf"/>
    </clipPath>
    <clipPath id="clip-path-11">
      <rect id="Rectángulo_455590-3" data-name="Rectángulo 455590" width="19.238" height="39.534" fill="#ff9ebf"/>
    </clipPath>
    <clipPath id="clip-path-12">
      <rect id="Rectángulo_455591-3" data-name="Rectángulo 455591" width="39.76" height="18.571" fill="#ff9ebf"/>
    </clipPath>
    <clipPath id="clip-path-13">
      <rect id="Rectángulo_460805" data-name="Rectángulo 460805" width="357.699" height="234.988" fill="none"/>
    </clipPath>
  </defs>
  <g id="Grupo_1180507" data-name="Grupo 1180507" transform="translate(-483.625 -2220.444)">
    <g id="Grupo_1176854" data-name="Grupo 1176854" transform="translate(484.138 2220.944)">
      <g id="Grupo_1208879" data-name="Grupo 1208879" transform="translate(0 0)">
        <path id="Trazado_991751" data-name="Trazado 991751" d="M510.91,248.349c29.894-62.51,53.271-70.338,30.691-118.614C526.377,97.187,502.884,87.294,477.2,77.9c-21.817-7.983-33.58-32.4-50.973-49.6C401.555,3.887,369.128.055,339.548,0,303.684-.075,262.277,4.571,232.5,34.707c-16.916,17.122-30.9,42.2-30.061,72.108.736,26.244,9.914,49.054-9.381,66.795-16.038,14.746-30.517,26.852-36.836,53.576-5.949,25.157,4.922,42,28.837,49.815s2.558,29.954,154.488,24.744S466.068,288.72,491.478,277" transform="translate(-154.624 0.004)" fill="#fff5d4" stroke="rgba(0,0,0,0)" stroke-width="1"/>
      </g>
      <g id="Grupo_1208882" data-name="Grupo 1208882" transform="translate(323.906 0)" style="isolation: isolate">
        <g id="Grupo_1179161" data-name="Grupo 1179161" clip-path="url(#clip-path)">
          <g id="Grupo_1179160" data-name="Grupo 1179160" transform="translate(0 0)">
            <g id="Grupo_1179159" data-name="Grupo 1179159" clip-path="url(#clip-path)">
              <g id="Grupo_1179155" data-name="Grupo 1179155" transform="translate(17.623 0)" opacity="0.25" style="mix-blend-mode: soft-light;isolation: isolate">
                <g id="Grupo_1179154" data-name="Grupo 1179154">
                  <g id="Grupo_1179153" data-name="Grupo 1179153" clip-path="url(#clip-path-3)">
                    <path id="Trazado_998479" data-name="Trazado 998479" d="M56.2,61.889c1.294-7.3-1.747-16.692-3.909-24.3A173.015,173.015,0,0,0,42.6,11.656,32.836,32.836,0,0,0,38.12,4.1C34.752.168,29.59-1.038,26.02.927c-7.957,4.379-3.17,16.682-.637,25.181,3.3,11.087,6.97,22.082,10.6,33.1,1.608,4.879,4.076,10.543,8.85,12.132s9.016-2.592,10.652-6.833a14.107,14.107,0,0,0,.716-2.617" transform="translate(-21.626 0)" fill="#ff9ebf"/>
                  </g>
                </g>
              </g>
              <g id="Grupo_1179158" data-name="Grupo 1179158" transform="translate(0 18.178)" opacity="0.25" style="mix-blend-mode: soft-light;isolation: isolate">
                <g id="Grupo_1179157" data-name="Grupo 1179157">
                  <g id="Grupo_1179156" data-name="Grupo 1179156" clip-path="url(#clip-path-4)">
                    <path id="Trazado_998480" data-name="Trazado 998480" d="M62.532,20.482c-7.264-1.476-16.73,1.33-24.388,3.3a173,173,0,0,0-26.169,9.033A32.867,32.867,0,0,0,4.307,37.11C.3,40.379-1.039,45.509.836,49.128c4.178,8.063,16.6,3.586,25.157,1.265,11.166-3.027,22.249-6.416,33.353-9.766,4.917-1.485,10.642-3.811,12.349-8.544s-2.366-9.078-6.565-10.819a14.1,14.1,0,0,0-2.6-.782" transform="translate(0 -20.069)" fill="#ff9ebf"/>
                  </g>
                </g>
              </g>
            </g>
          </g>
        </g>
      </g>
      <g id="Grupo_1208884" data-name="Grupo 1208884" transform="translate(354.725 231.611) rotate(53)" style="isolation: isolate">
        <g id="Grupo_1179161-2" data-name="Grupo 1179161" transform="translate(0 0)" clip-path="url(#clip-path-5)">
          <g id="Grupo_1179160-2" data-name="Grupo 1179160" transform="translate(0 0)">
            <g id="Grupo_1179159-2" data-name="Grupo 1179159" clip-path="url(#clip-path-5)">
              <g id="Grupo_1179155-2" data-name="Grupo 1179155" transform="translate(11.704 0)" opacity="0.25" style="mix-blend-mode: soft-light;isolation: isolate">
                <g id="Grupo_1179154-2" data-name="Grupo 1179154">
                  <g id="Grupo_1179153-2" data-name="Grupo 1179153" clip-path="url(#clip-path-7)">
                    <path id="Trazado_998479-2" data-name="Trazado 998479" d="M22.96,41.1c.86-4.847-1.16-11.085-2.6-16.137A114.9,114.9,0,0,0,13.931,7.741,21.807,21.807,0,0,0,10.954,2.72C8.718.111,5.289-.689,2.918.616-2.366,3.524.813,11.694,2.5,17.339,4.69,24.7,7.124,32,9.532,39.321c1.068,3.241,2.707,7,5.878,8.057s5.988-1.722,7.074-4.538A9.368,9.368,0,0,0,22.96,41.1" transform="translate(0 0)" fill="#ff9ebf"/>
                  </g>
                </g>
              </g>
              <g id="Grupo_1179158-2" data-name="Grupo 1179158" transform="translate(0 12.072)" opacity="0.25" style="mix-blend-mode: soft-light;isolation: isolate">
                <g id="Grupo_1179157-2" data-name="Grupo 1179157">
                  <g id="Grupo_1179156-2" data-name="Grupo 1179156" clip-path="url(#clip-path-8)">
                    <path id="Trazado_998480-2" data-name="Trazado 998480" d="M41.529.274c-4.824-.98-11.111.883-16.2,2.193a114.892,114.892,0,0,0-17.379,6A21.827,21.827,0,0,0,2.86,11.317C.2,13.488-.69,16.9.555,19.3c2.775,5.355,11.022,2.382,16.707.84,7.416-2.01,14.776-4.261,22.151-6.486,3.266-.987,7.068-2.531,8.2-5.674S46.043,1.95,43.254.793A9.362,9.362,0,0,0,41.529.274" transform="translate(0 0)" fill="#ff9ebf"/>
                  </g>
                </g>
              </g>
            </g>
          </g>
        </g>
      </g>
      <g id="Grupo_1208883" data-name="Grupo 1208883" transform="translate(41.84 129.143) rotate(40)" style="isolation: isolate">
        <g id="Grupo_1179161-3" data-name="Grupo 1179161" transform="translate(0 0)" clip-path="url(#clip-path-9)">
          <g id="Grupo_1179160-3" data-name="Grupo 1179160" transform="translate(0 0)">
            <g id="Grupo_1179159-3" data-name="Grupo 1179159" clip-path="url(#clip-path-9)">
              <g id="Grupo_1179155-3" data-name="Grupo 1179155" transform="translate(9.72 0)" opacity="0.25" style="mix-blend-mode: soft-light;isolation: isolate">
                <g id="Grupo_1179154-3" data-name="Grupo 1179154">
                  <g id="Grupo_1179153-3" data-name="Grupo 1179153" clip-path="url(#clip-path-11)">
                    <path id="Trazado_998479-3" data-name="Trazado 998479" d="M19.067,34.132c.714-4.025-.964-9.206-2.156-13.4a95.42,95.42,0,0,0-5.342-14.3A18.11,18.11,0,0,0,9.1,2.259C7.24.093,4.392-.572,2.423.511-1.965,2.926.675,9.711,2.072,14.4c1.822,6.114,3.844,12.178,5.844,18.254.887,2.691,2.248,5.815,4.881,6.691s4.972-1.43,5.875-3.769a7.78,7.78,0,0,0,.4-1.443" transform="translate(0 0)" fill="#ff9ebf"/>
                  </g>
                </g>
              </g>
              <g id="Grupo_1179158-3" data-name="Grupo 1179158" transform="translate(0 10.025)" opacity="0.25" style="mix-blend-mode: soft-light;isolation: isolate">
                <g id="Grupo_1179157-3" data-name="Grupo 1179157">
                  <g id="Grupo_1179156-3" data-name="Grupo 1179156" clip-path="url(#clip-path-12)">
                    <path id="Trazado_998480-3" data-name="Trazado 998480" d="M34.487.228c-4.006-.814-9.227.733-13.45,1.821A95.411,95.411,0,0,0,6.6,7.03,18.126,18.126,0,0,0,2.375,9.4C.162,11.2-.573,14.031.461,16.026c2.3,4.447,9.153,1.978,13.874.7,6.158-1.669,12.271-3.539,18.395-5.386,2.712-.819,5.869-2.1,6.811-4.712S38.236,1.619,35.92.659A7.774,7.774,0,0,0,34.487.228" transform="translate(0 0)" fill="#ff9ebf"/>
                  </g>
                </g>
              </g>
            </g>
          </g>
        </g>
      </g>
    </g>
    <g id="Grupo_1211413" data-name="Grupo 1211413" transform="translate(500.805 2261.945)">
      <g id="Grupo_1211412" data-name="Grupo 1211412" transform="translate(0 0)" clip-path="url(#clip-path-13)">
        <path id="Trazado_1274647" data-name="Trazado 1274647" d="M72.985,163.78a3.052,3.052,0,0,1,2.213,1.412,3.688,3.688,0,0,1,.338,1.731c.039,3.932-2.094,7.135-3.6,10.622-1.539,3.563-2.937,7.27-3.135,11.188a7.147,7.147,0,0,0,.857,4.285,6.762,6.762,0,0,0,3.82,2.512c7.092,2.173,14.6-1.232,21.082-4.834a248.181,248.181,0,0,0,50.616-37.257c7.712-7.354,15.011-15.256,23.777-21.314,5.057-3.49,10.526-6.32,15.777-9.5,9.229-5.593,17.751-12.262,26.247-18.915,1.993-1.556,3.763-3.377,5.587-5.119.24-.226,4.8-4.524,4.8-2.557,0,.194-.116.383-.082.575.056.3.426.42.733.457a9.934,9.934,0,0,0,6.044-1.17,4.716,4.716,0,0,1,.037,3.684,13.283,13.283,0,0,0-.95,3.653,2.13,2.13,0,0,0,.713,1.824c.958.691,2.278-.07,3.126-.894s1.846-1.818,3-1.573a2.345,2.345,0,0,1,1.576,1.55,12.907,12.907,0,0,1,.465,2.255,1.515,1.515,0,0,0,.561,1.08c1.987,1.215,1.573-3.944,1.677-4.722a1.692,1.692,0,0,1,.333-.916,1.253,1.253,0,0,1,1.542-.166A2.4,2.4,0,0,1,241.1,103a15.585,15.585,0,0,0,.567,1.8,1.588,1.588,0,0,0,1.483.984,1.424,1.424,0,0,0,1.023-.8,3.513,3.513,0,0,0,.293-1.311,13.191,13.191,0,0,0-.13-3.036c-.09-.584-.175-1.3.3-1.655a1.262,1.262,0,0,1,1.378.1c1.122.7,1.629,2.038,2.283,3.191a1.956,1.956,0,0,0,.533.657.73.73,0,0,0,.8.059.98.98,0,0,0,.29-.361c2.238-4.152-2.988-6.991-1.587-10.98.541-1.531,2.01-2.5,3.4-3.349,4.087-2.512,8.217-4.967,12.476-7.185,5.3-2.76,10.833-5.173,15.636-8.73,9.37-6.937,13.573-20.085,6.81-30.388-2.675-4.07-6.664-7.1-10.785-9.686A72.134,72.134,0,0,0,247.3,21.568c-2.622-.352-5.429-.5-7.766.733a9.667,9.667,0,0,0-4.4,5.77c-.8,2.543-.513,5.26-1.271,7.758-.713,2.34-2.433,4.144-3.887,6.049A209.318,209.318,0,0,1,193.723,78.8a15.982,15.982,0,0,1-5,3.013c-5.858,1.813-11.481-3.07-17.4-4.679-9.44-2.565-18.892,3.366-26.884,9.006q-11.163,7.882-22.323,15.76l-11.163,7.879c-2.441,1.722-5.567,5.728-8.708,3.171a2.114,2.114,0,0,0-.933-.575,1.676,1.676,0,0,0-1.159.454Q81.973,126.12,63.784,139.408c-4.065,2.971-8.116,5.976-12.22,8.891-3.845,2.734-7.915,5.449-10.788,9.263-1.973,2.619-4.008,6.763-3.447,10.131.815,4.9,5.576,5.846,9.835,5.122a40.754,40.754,0,0,0,8.35-2.576q4.723-1.9,9.28-4.2c2.4-1.212,4.93-2.543,7.611-2.334.195.017.386.042.581.079" transform="translate(67.725 38.777)" fill="#ffe19a"/>
        <path id="Trazado_1274648" data-name="Trazado 1274648" d="M5.89,88.92C14.4,97.287,23.209,105.6,33.757,111.175c12.192,6.441,26.106,8.9,39.859,9.891a121.733,121.733,0,0,0,23.918-.307c6.049-.758,12.121-2.2,17.378-5.291s9.652-7.989,11.132-13.906c1.387-5.559.366-12.3-1.37-17.7-2.179-6.762-7.216-12.24-12.727-16.724A127.315,127.315,0,0,0,92.232,54.454C81.842,48.788,70.2,43.52,58.563,45.7c-4.978.933-10.269,3.718-12.507,8.485-2.464,5.249-5.632,9.911-10.726,13.057-8.775,5.418-20.068,4.276-29.776,7.752A10.7,10.7,0,0,0,1.382,77.38C-2.26,81.123,3.116,86.192,5.89,88.92" transform="translate(0.287 82.206)" fill="#ffe19a"/>
        <path id="Trazado_1274649" data-name="Trazado 1274649" d="M40.043,77.631l-1.891-.894V62.829l1.891.891Z" transform="translate(69.394 114.28)" fill="#ff2d81"/>
        <path id="Trazado_1274650" data-name="Trazado 1274650" d="M141.01,35.039l1.891.894L40.043,114.27l-1.891-.894Z" transform="translate(69.394 63.733)" fill="#dcf5ff"/>
        <path id="Trazado_1274651" data-name="Trazado 1274651" d="M38.823,127.6,141.681,49.265V35.356L38.823,113.693Z" transform="translate(70.614 64.31)" fill="#a4d6eb"/>
        <path id="Trazado_1274652" data-name="Trazado 1274652" d="M61.332,61.982a2.3,2.3,0,0,1,.848-.445,1.937,1.937,0,0,1,.919.1,16.566,16.566,0,0,1,5.579,3.5q1.691,1.412,3.388,2.822a.63.63,0,0,1,.245.319.592.592,0,0,1-.039.319A20.272,20.272,0,0,1,67.254,76.2c-2.125,2.21-4.459,4.228-6.39,6.61-2.441,3-4.242,6.588-7.236,9.04a66.814,66.814,0,0,0-9.855-16.536c-.817-1-1.655-1.99-2.424-3.03-.727-.981-1.24-2.106-1.959-3.075a13.192,13.192,0,0,1-2.763-6.591c-.034-.324.034-.77.361-.8a.56.56,0,0,1,.327.1c1.347.77,1.987,2.388,3.422,3.03a16.8,16.8,0,0,0,5.528,1.139,23.514,23.514,0,0,0,9.962-1.412,22.293,22.293,0,0,0,5.1-2.7" transform="translate(66.606 111.887)" fill="#ffb78c"/>
        <path id="Trazado_1274653" data-name="Trazado 1274653" d="M35.506,72.954c1.068,2.878,3.749,5.071,6.21,6.734a17.861,17.861,0,0,1,3.594,2.8,17.086,17.086,0,0,1,2.052,3.326,49.2,49.2,0,0,0,2.895,4.75c1.514,2.2,3.453,4.412,6.083,4.851a4.149,4.149,0,0,0,2.125-.161,4.061,4.061,0,0,0,1.452-.989,6.78,6.78,0,0,0,1.514-6.114A12.162,12.162,0,0,0,58.2,82.533a20.261,20.261,0,0,0-4.186-3.385c-1.271-.775-2.627-1.409-3.845-2.266-3.721-2.619-5.742-6.985-7.431-11.211a14.4,14.4,0,0,0-1.8-3.555c-.781-1.012-2.765-2.481-4.138-1.965A3.578,3.578,0,0,0,34.9,62.564c-1.054,3.23-.558,7.16.578,10.317a.565.565,0,0,1,.028.073" transform="translate(62.424 109.214)" fill="#ffe5cc"/>
        <path id="Trazado_1274654" data-name="Trazado 1274654" d="M162.405,35.758a4.776,4.776,0,0,0-1.782-.75,7.774,7.774,0,0,0-5.339.758,30.7,30.7,0,0,1-5.79,2.4A139.424,139.424,0,0,1,135.6,41.7c-4.958.992-10.03,1.734-14.661,3.769-8.485,3.727-14.63,11.4-22.771,15.831a33.526,33.526,0,0,0-5.6,3.276A37.277,37.277,0,0,0,88.6,68.646a65.43,65.43,0,0,1-9.215,8.538C77.007,79,68.24,86.385,66.352,88.392q-3.6,3.822-7.2,7.645-1.81,1.92-3.6,3.856c-1.928,2.08-7.738,8.288-8.722,9.305-.882.913-1.9,1.773-2.706,2.748-.132.163-.18.443-.006.558.147.1.341.02.5-.059.5-.242,1.457.307,1.937.536a9.436,9.436,0,0,1,1.849,1.17,10.588,10.588,0,0,1,2.737,3.349,13.269,13.269,0,0,1,1.345,4.352,16.99,16.99,0,0,1,.147,2.334,3.77,3.77,0,0,1-.054,1.113c-.1.285-.307.552-.423.837a.265.265,0,0,0-.017.234.189.189,0,0,0,.087.068.438.438,0,0,0,.378-.037,1.271,1.271,0,0,0,.293-.257c.758-.8,15.611-13.353,18.292-15.273,2.638-1.891,5.508-3.259,8.178-5.1C83.411,103,86.811,99.425,90.2,95.907c2.669-2.774,5.167-5.858,8.485-7.9,4.09-2.512,9-3.008,13.471-4.426,5.277-1.677,10.627-3.087,15.873-4.879a39.871,39.871,0,0,0,10.359-4.775c3.9-2.76,6.754-6.717,9.536-10.6l8.245-11.5c2.3-3.208,5.6-5.39,7.157-9.161a8.221,8.221,0,0,0,.73-3.656,4.369,4.369,0,0,0-1.649-3.25" transform="translate(80.041 63.352)" fill="#379799"/>
        <path id="Trazado_1274655" data-name="Trazado 1274655" d="M42.279,128.674l2.247.9L150.18,54.261l2.247-13.009-2.247-.9-107.9,74.413Z" transform="translate(76.9 73.397)" fill="#dcf5ff"/>
        <path id="Trazado_1274656" data-name="Trazado 1274656" d="M43.075,128.993l107.9-74.413V40.672l-107.9,74.41Z" transform="translate(78.349 73.977)" fill="#a4d6eb"/>
        <path id="Trazado_1274657" data-name="Trazado 1274657" d="M76.911,54.264a53.79,53.79,0,0,1-2.467,19.5,32.121,32.121,0,0,0,3.738-2.715,30.039,30.039,0,0,1,6.365-3.7A32.274,32.274,0,0,0,82.8,46.93a14.944,14.944,0,0,0-6.109-7.191c-1.3-.7-2.729-.245-2.514,1.455.144,1.13,1.006,2.311,1.339,3.428a38.97,38.97,0,0,1,1.393,9.643" transform="translate(134.885 71.709)" fill="#ccc"/>
        <path id="Trazado_1274658" data-name="Trazado 1274658" d="M60.644,75.271a24.454,24.454,0,0,1-3.476.685,21.036,21.036,0,0,1-4.606.223,25.8,25.8,0,0,0-4.578-.5,21.422,21.422,0,0,1,5.142,9.252A40.289,40.289,0,0,1,54.439,95.51a10.9,10.9,0,0,0,.333,2.771c.172.66.011,1.646.395,2.216a1.452,1.452,0,0,0,1.249.533,3.976,3.976,0,0,0,2.523-1.187c2.737-2.506,4.837-5.415,7.259-8.206a23,23,0,0,1,5.336-4.527c1.666-1.02,3.315-1.886,3.868-3.921a7.436,7.436,0,0,0-.282-4.316,11.081,11.081,0,0,0-3.87-5.294,4.533,4.533,0,0,0-3.67-1.071,22.962,22.962,0,0,0-3.084,1.407,29.41,29.41,0,0,1-3.851,1.356" transform="translate(87.277 131.723)" fill="#ffb78c"/>
        <path id="Trazado_1274659" data-name="Trazado 1274659" d="M161.106,46.71c-2.187-1.691-4.848-2.957-6.9-4.812-1.5-1.359-3.614-3.868-4.138-5.821-.319-1.181-.025-1.5-1.556-1.116-2.731.679-5.029,2.54-7.047,4.414-4.412,4.093-7.354,8.832-10.063,14.114a10.077,10.077,0,0,1-1.057,1.548C129.3,56.39,99.891,92.9,98.3,94.664c-1.421,1.576-3.1,2.87-4.149,4.758-1.02,1.832-1.858,3.769-2.932,5.567a11.288,11.288,0,0,1-1.426,1.725c-2.365,2.616-4.877,5.1-7.369,7.6q-5.26,5.264-10.6,10.45c-3.5,3.416-18.551,17.426-18.4,17.827a.357.357,0,0,0,.386.189,1.553,1.553,0,0,0,.431-.166c2.723-1.274,6.061,2.331,7.27,4.42a15.021,15.021,0,0,1,1.429,3.476c.288,1.029.826,2.483.282,3.5a3.4,3.4,0,0,1-.6.815c-.178.18-.395.386-.358.637a.563.563,0,0,0,.564.409,1.952,1.952,0,0,0,.992-.293,13.741,13.741,0,0,0,2.551-2.035,25.071,25.071,0,0,1,2.768-2.038c1.951-1.26,4.028-2.311,6.08-3.394A169.094,169.094,0,0,0,91.666,138.2c6.407-4.375,12.75-9.491,15.873-16.592.775-1.762,1.4-3.6,2.238-5.333A24.6,24.6,0,0,1,112.055,112a8.75,8.75,0,0,1,1.3-1.305,113.952,113.952,0,0,1,19.927-13.426c5.08-2.754,10.342-5.018,15.3-7.975,6.839-4.082,14.357-7.966,19.233-14.421,4.07-5.39,6.359-12.347,5.2-19a4.437,4.437,0,0,0-.8-2.094,5.775,5.775,0,0,0-2.413-1.4c-3.214-1.314-5.948-3.549-8.7-5.672" transform="translate(97.177 63.312)" fill="#64bcbe"/>
        <path id="Trazado_1274660" data-name="Trazado 1274660" d="M122.229,14.24c-6.655.412-10.323,5.243-12.288,11.064-1.249,3.7-1.77,7.676-2.6,11.481-3.025,13.8-13.474,23.865-22.633,33.92-.631.691-4.44,4.53-3.625,5.336a.736.736,0,0,0,.761.1c.257-.09.476-.257.722-.369,1.784-.817,4.431-.254,6.28.045a41.951,41.951,0,0,1,7.092,1.86,39.925,39.925,0,0,1,14.1,8.034,44.275,44.275,0,0,1,6.918,8.589c1.026,1.59,2.069,3.168,3.019,4.806.485.837.944,1.689,1.367,2.557a3.976,3.976,0,0,1,.369,2.475c-.011.175-.006.383.147.471a.442.442,0,0,0,.437-.076,5.509,5.509,0,0,0,1.46-1.559c3.073-4.321,24.631-30.588,26.96-33q3.784-3.915,7.569-7.834c6.19-6.4,12.209-12.648,16.685-20.431,1.663-2.9,2.878-6.461.95-9.635a8.744,8.744,0,0,0-3.177-2.717c-10.985-6.557-23.315-10.582-35.791-13.407-4.826-1.094-9.821-2.013-14.717-1.711" transform="translate(147.271 25.797)" fill="#8d1939"/>
        <path id="Trazado_1274661" data-name="Trazado 1274661" d="M98.686,27.167a4.206,4.206,0,0,0-.984,2,2.126,2.126,0,0,0,.381,1.7,2.651,2.651,0,0,0,1.136.716,13.775,13.775,0,0,0,5.308.7A34.262,34.262,0,0,0,121.6,27.158a9.91,9.91,0,0,0,2.221-1.745,1.482,1.482,0,0,0,.372-.62c.152-.643-.451-1.192-.972-1.6a12.606,12.606,0,0,1-2.982-3.025c-1.37-2.117-1.646-4.733-2.34-7.157-.054-.186-.175-.417-.366-.381a.387.387,0,0,0-.183.11c-1.618,1.432-3.194,2.985-4.939,4.257a18.443,18.443,0,0,1-6.833,2.937l-2.275.519c-.231.051-.378.152-.612.087a2.776,2.776,0,0,1-.716-.527A10.179,10.179,0,0,1,99.524,26.2c-.285.33-.575.646-.837.97" transform="translate(177.646 22.971)" fill="#ffb78c"/>
        <path id="Trazado_1274662" data-name="Trazado 1274662" d="M129.8,14.042a14.332,14.332,0,0,0-2.667-6.421c-.31-.395-.634-.772-.975-1.139C119.515-.642,108.913-.106,101.7,5.889a16.286,16.286,0,0,0-4.333,5.477c-.953,2.018-.9,4.561-1.026,6.76q-.186,3.378-.369,6.754a43.943,43.943,0,0,0-.02,6.81,38.42,38.42,0,0,0,2.825,10.154,7.8,7.8,0,0,0,1.734,2.968,5.213,5.213,0,0,0,2.619,1.221c2.892.527,5.793-.693,8.423-2q3.07-1.535,6.03-3.287a13.5,13.5,0,0,0,3.467-2.641,5.041,5.041,0,0,0,1.322-4.025,6.239,6.239,0,0,0,4.1-2.918,15.487,15.487,0,0,0,2.137-4.347,27.5,27.5,0,0,0,1.322-5.7,30.891,30.891,0,0,0,.107-5.054,19.963,19.963,0,0,0-.24-2.013" transform="translate(174.303 2.303)" fill="#ffe5cc"/>
        <path id="Trazado_1274663" data-name="Trazado 1274663" d="M106.586,14.787a3.363,3.363,0,1,1-3.58-3.132,3.363,3.363,0,0,1,3.58,3.132" transform="translate(181.645 21.186)" fill="#ff8c8c"/>
        <path id="Trazado_1274664" data-name="Trazado 1274664" d="M102.934,9.324a6.449,6.449,0,0,1,3.7.71,3.976,3.976,0,0,1,1.562,1.807,15.235,15.235,0,0,0-6.638-1.105,4.677,4.677,0,0,1-1.658-.073c-.321-.1-1.167-.584-.809-1.012.245-.29,1.277-.135,1.6-.155.75-.045,1.494-.135,2.244-.172" transform="translate(180.073 16.932)" fill="#0e1b47"/>
        <path id="Trazado_1274665" data-name="Trazado 1274665" d="M98.813,8.475a4.6,4.6,0,0,1,1.81,1.218,3.443,3.443,0,0,1,.837,1.212,1.453,1.453,0,0,1-1.2-.183,24.1,24.1,0,0,0-4.008-1.44c-.767-.2-.693-.792.037-.882a5.888,5.888,0,0,1,2.52.076" transform="translate(174.089 15.097)" fill="#0e1b47"/>
        <path id="Trazado_1274666" data-name="Trazado 1274666" d="M98.881,12.917a1.4,1.4,0,1,1-1.068-1.669,1.4,1.4,0,0,1,1.068,1.669" transform="translate(174.815 20.4)" fill="#ff8c8c"/>
        <path id="Trazado_1274667" data-name="Trazado 1274667" d="M111.791,2.252a6.954,6.954,0,0,1,4.722,3.036,14.956,14.956,0,0,1,2.337,5.528,27.149,27.149,0,0,1,.127,8.947,21.328,21.328,0,0,1-1.269,5.08,12.545,12.545,0,0,1-1.085,2.2c-.265.417-.552.857-.843,1.254-.3.414-.809.736-1.071,1.173a5.279,5.279,0,0,0,.07-5.029,1.951,1.951,0,0,0-1.759-1.06,2.716,2.716,0,0,0-1.161.474,18.423,18.423,0,0,0-2.731,2.072,1.79,1.79,0,0,1-.947.569c-1.424.147-1.006-4.524-1.077-5.424-.31-4.039-3.369-7.335-4.42-11.245a11.7,11.7,0,0,1-.132-5.508,2.677,2.677,0,0,0,1.7.578,6.939,6.939,0,0,0,3.859-1.457,4.375,4.375,0,0,1,3.679-1.187" transform="translate(186.044 3.975)" fill="#0e1b47"/>
        <path id="Trazado_1274668" data-name="Trazado 1274668" d="M103.978,13.955a79.276,79.276,0,0,0,8.426.223,11.543,11.543,0,0,0,3.321-.434,4.34,4.34,0,0,0,2.576-2.021c1.748.857,3.817.051,5.587-.753s3.837-1.612,5.587-.761a7.449,7.449,0,0,0-1.057-2.314,17.183,17.183,0,0,0-9.711-7A23.3,23.3,0,0,0,112.537,0c-6-.07-11.4,2.286-14.867,7.259a10.3,10.3,0,0,0-2.114,5.113c-.07,1.223.519,3.349,2.154,2.444.268-.149.378-.474.7-.64a5.169,5.169,0,0,1,1.818-.347,23.14,23.14,0,0,1,3.749.124" transform="translate(173.794 0.001)" fill="#172d75"/>
        <path id="Trazado_1274669" data-name="Trazado 1274669" d="M158.9,68.7a19.652,19.652,0,0,0-1.449-5.517,82.4,82.4,0,0,0-4.319-8.372,108.352,108.352,0,0,1-7.278-16.059c-1.818-5.443-4.048-10.934-8.031-15.064-2.334-2.419-6.562-5.612-9.875-3.211a10.688,10.688,0,0,0-4.53,7.786,26.271,26.271,0,0,0,.908,8.395c.135.5.282,1,.445,1.488,2.027,6.168,5.931,11.6,9.844,16.631,1.316,1.691,2.7,3.335,3.89,5.119,1.057,1.59,2.252,3.309,2.371,5.274.09,1.483-1.339,2.311-2.238,3.287-1.81,1.962-21.511,17.094-23.064,18.464a23.423,23.423,0,0,1-4,2.591,21.367,21.367,0,0,0-2.3,1.474,24.654,24.654,0,0,0-4.4,4.77q-1.222,1.59-2.447,3.174a1.36,1.36,0,0,0-.237.392.889.889,0,0,0,.51,1,1.916,1.916,0,0,0,1.206.079,5.1,5.1,0,0,0,3.287-2.21,2.338,2.338,0,0,1,.519-.66,2.408,2.408,0,0,1,.583-.259A5.154,5.154,0,0,0,110.2,96.06c.316,1.525-.412,3.044-.9,4.521a15.819,15.819,0,0,0-.77,6.185,2.063,2.063,0,0,0,.459,1.345,1.507,1.507,0,0,0,2.058-.228,4.36,4.36,0,0,0,.888-2.1l.66-2.892c.265-1.173.71-2.545,1.866-2.881q.507,3.691,1.015,7.377a5.439,5.439,0,0,0,.589,2.1,1.634,1.634,0,0,0,3.129-.5,5.4,5.4,0,0,0-.07-2.049q-.359-2.186-.716-4.366a2.636,2.636,0,0,1-.014-1.2.908.908,0,0,1,.874-.691,1.219,1.219,0,0,1,.789.572c1.55,2.052,1.959,4.75,3.239,6.98.271.474.677.975,1.221.953a1.121,1.121,0,0,0,.682-.31c.877-.792.719-2.187.459-3.34q-.7-3.1-1.689-6.125c.324-.412.964.014,1.285.426q2.355,3,4.708,6a1.459,1.459,0,0,0,.894.668,1,1,0,0,0,.978-.8,2.9,2.9,0,0,0-.1-1.367,13.149,13.149,0,0,0-1.311-3.791c-.7-1.175-1.779-2.14-2.224-3.433-.426-1.237-.217-2.622-.615-3.868a1.984,1.984,0,0,1-.189-1.19,3.355,3.355,0,0,1,.6-.978c.409-.217.815-.437,1.221-.651,1.356-.713,9.593-4.767,12.389-6.01,4.612-2.049,9.376-3.977,13.249-7.214a11.075,11.075,0,0,0,3.7-4.961A9.349,9.349,0,0,0,158.9,68.7" transform="translate(185.807 35.692)" fill="#ffe5cc"/>
        <path id="Trazado_1274670" data-name="Trazado 1274670" d="M113.278,21.358a8.948,8.948,0,0,0-1.782,1.818c-3.665,5.139-2.382,12.908-.544,18.489a45.471,45.471,0,0,0,4.541,9.548c.93,1.511,1.948,2.954,2.96,4.409.445.64.575.967,1.381,1.077a8.859,8.859,0,0,0,3-.288,27.467,27.467,0,0,0,8.485-3.281,18.309,18.309,0,0,0,6.433-6.467,1.468,1.468,0,0,0,.217-.5c.138-.91-2.252-6.035-2.909-7.371-1.59-3.219-3.428-6.311-5.316-9.367-2.066-3.34-4.3-6.751-7.628-8.846a7.637,7.637,0,0,0-2.96-1.19,8.37,8.37,0,0,0-5.88,1.97" transform="translate(198.535 35.178)" fill="#8d1939"/>
        <path id="Trazado_1274671" data-name="Trazado 1274671" d="M44.734,74.478a14.385,14.385,0,0,0,.443,5.652,15.891,15.891,0,0,0,3.693,7.329A21.3,21.3,0,0,1,50.51,89.28c2.264,3.149,1.015,7.673,2.6,11.214a7.644,7.644,0,0,0,6.909,4.412c1.813-.025,3.039-.395,3.814-2.156a9.15,9.15,0,0,0-.051-6.187,36.732,36.732,0,0,1-1.691-6.078c-.307-2.681-.152-5.46-1.452-7.955-1.252-2.4-3.228-4.307-4.947-6.359a32.247,32.247,0,0,0-2.8-3.177,6.871,6.871,0,0,0-3.707-1.9,3.9,3.9,0,0,0-3.721,1.528,5.134,5.134,0,0,0-.73,1.858" transform="translate(81.118 129.249)" fill="#ffe5cc"/>
        <path id="Trazado_1274672" data-name="Trazado 1274672" d="M81.67,42.294a9.131,9.131,0,0,1,.186,2.892c-.237,3.4-1.6,6.875-4.341,8.9a.484.484,0,0,1-.428.132,10.462,10.462,0,0,0-.643-6.027c-.462-1.091-1.111-2.094-1.6-3.177a5.154,5.154,0,0,1-.524-3.047,3.805,3.805,0,0,1,1.432-1.883c2.075-1.863,4.93-.7,5.776,1.736.054.155.1.313.141.471" transform="translate(135.062 71.243)" fill="#f2f2f2"/>
        <path id="Trazado_1274673" data-name="Trazado 1274673" d="M78.327,38.143a7.023,7.023,0,0,0-1.347.282,10.645,10.645,0,0,0-2.2,1.319c-.809.507-6.622,4.736-7.025,5.164a6.677,6.677,0,0,0-.7.888c.192-.288.9-.544,1.2-.713.423-.237.854-.457,1.291-.665a23.673,23.673,0,0,1,2.692-1.088,24.035,24.035,0,0,1,2.8-.747c.927-.186,1.832-.409,2.771-.552a24.639,24.639,0,0,1,8.386.076,2.665,2.665,0,0,0,1.632-.011,1.7,1.7,0,0,0,.609-2.233c-.465-.677-2.049-.956-2.794-1.167a18.337,18.337,0,0,0-7.309-.552" transform="translate(121.949 69.113)" fill="#e6e6e6"/>
        <path id="Trazado_1274674" data-name="Trazado 1274674" d="M75.653,38.5a11.087,11.087,0,0,0-6.179,7.478c-.039.152-.054.352.087.42a.327.327,0,0,0,.3-.059,6.75,6.75,0,0,0,1.1-1.066,6.69,6.69,0,0,1,4.871-1.6c1.759.02,3.5.366,5.257.3a3.776,3.776,0,0,0,2.977-1.206,4.352,4.352,0,0,0,.685-2.238c.025-.716-.417-1.077-.989-1.44a8.756,8.756,0,0,0-5.113-1.274,9.022,9.022,0,0,0-2.991.679" transform="translate(126.317 68.77)" fill="#f2f2f2"/>
        <path id="Trazado_1274675" data-name="Trazado 1274675" d="M76.156,38.745c-1.939.832-3.834,2.357-3.543,4.313a2.146,2.146,0,0,0,1.308,1.573,5.8,5.8,0,0,0,2.035.364,2.909,2.909,0,0,0,3.23,2.162,3.98,3.98,0,0,0,2.974-2.889c.448-1.553.2-4.457-1.029-5.579a3.121,3.121,0,0,0-2.255-.646,8.223,8.223,0,0,0-2.72.7" transform="translate(132.021 69.188)" fill="#fff"/>
        <path id="Trazado_1274676" data-name="Trazado 1274676" d="M68.792,55.513a42.844,42.844,0,0,1,.781,9.46c.006,3.462-.107,7.081-1.782,10.111q4.338-3.036,8.676-6.075a1.777,1.777,0,0,0,.567-.536,1.726,1.726,0,0,0,.175-.727c.445-5.068-.259-10.447-3.18-14.613a25.425,25.425,0,0,0-6.111-5.782,5.08,5.08,0,0,0-2.08-1.046c-1.088-.178-1.751.4-1.012,1.316a21.6,21.6,0,0,1,1.787,2.351,18.568,18.568,0,0,1,2.179,5.539" transform="translate(117.342 84.169)" fill="#ccc"/>
        <path id="Trazado_1274677" data-name="Trazado 1274677" d="M72.125,49.079a9.13,9.13,0,0,1,.186,2.892c-.237,3.4-1.6,6.875-4.341,8.9a.484.484,0,0,1-.428.132,10.45,10.45,0,0,0-.643-6.024c-.462-1.094-1.111-2.1-1.6-3.18a5.153,5.153,0,0,1-.524-3.047,3.805,3.805,0,0,1,1.432-1.883c2.075-1.863,4.93-.7,5.776,1.736.054.155.1.313.141.471" transform="translate(117.701 83.584)" fill="#f2f2f2"/>
        <path id="Trazado_1274678" data-name="Trazado 1274678" d="M69.711,45.682a14.506,14.506,0,0,0-2.269.507,14.341,14.341,0,0,0-3.549,2.241c-.789.581-3.806,3.019-4.53,3.684s-1.446,1.3-2.185,1.931a75.377,75.377,0,0,1,10.058-5.023c.744-.3,1.494-.6,2.261-.843.739-.237,1.536-.335,2.255-.609a9,9,0,0,1,2.379-.395,21.585,21.585,0,0,1,2.633-.082,1.621,1.621,0,0,0,1.08-.211.8.8,0,0,0-.178-1.308,6.49,6.49,0,0,0-2.4-.358,25.33,25.33,0,0,0-5.553.465" transform="translate(104 82.2)" fill="#e6e6e6"/>
        <path id="Trazado_1274679" data-name="Trazado 1274679" d="M66.108,45.287a11.087,11.087,0,0,0-6.179,7.478c-.039.152-.054.352.087.42a.327.327,0,0,0,.3-.059,6.749,6.749,0,0,0,1.1-1.066,6.694,6.694,0,0,1,4.871-1.6c1.759.02,3.5.366,5.26.3a3.773,3.773,0,0,0,2.974-1.206,4.352,4.352,0,0,0,.685-2.238c.025-.716-.417-1.077-.989-1.44A8.756,8.756,0,0,0,69.1,44.607a9.038,9.038,0,0,0-2.991.679" transform="translate(108.956 81.113)" fill="#f2f2f2"/>
        <path id="Trazado_1274680" data-name="Trazado 1274680" d="M66.61,45.531c-1.937.832-3.834,2.357-3.541,4.313a2.146,2.146,0,0,0,1.308,1.573,5.854,5.854,0,0,0,2.035.364,2.907,2.907,0,0,0,3.23,2.162,3.984,3.984,0,0,0,2.974-2.889c.448-1.553.2-4.457-1.032-5.579a3.111,3.111,0,0,0-2.252-.646,8.236,8.236,0,0,0-2.723.7" transform="translate(114.661 81.531)" fill="#fff"/>
        <path id="Trazado_1274681" data-name="Trazado 1274681" d="M58.441,62.762a42.783,42.783,0,0,1,.5,9.477c-.1,3.462-.316,7.078-2.078,10.058q4.427-2.909,8.851-5.818a1.814,1.814,0,0,0,.583-.519,1.752,1.752,0,0,0,.195-.722c.595-5.054.048-10.45-2.748-14.7a25.361,25.361,0,0,0-5.939-5.959,5.066,5.066,0,0,0-2.047-1.108c-1.082-.209-1.765.352-1.051,1.288a21.235,21.235,0,0,1,1.717,2.4,18.544,18.544,0,0,1,2.016,5.6" transform="translate(98.977 97.179)" fill="#ccc"/>
        <path id="Trazado_1274682" data-name="Trazado 1274682" d="M62.083,57.058a9.13,9.13,0,0,1,.186,2.892c-.237,3.4-1.6,6.875-4.341,8.9a.484.484,0,0,1-.428.132,10.462,10.462,0,0,0-.643-6.027c-.462-1.091-1.111-2.094-1.6-3.177a5.153,5.153,0,0,1-.524-3.047,3.805,3.805,0,0,1,1.432-1.883c2.075-1.863,4.93-.7,5.776,1.736.054.155.1.313.141.471" transform="translate(99.436 98.096)" fill="#f2f2f2"/>
        <path id="Trazado_1274683" data-name="Trazado 1274683" d="M59.849,53.167a14.4,14.4,0,0,0-2.266.507,14.358,14.358,0,0,0-3.552,2.241c-.789.581-3.806,3.019-4.53,3.684s-1.446,1.3-2.185,1.931a75.375,75.375,0,0,1,10.058-5.023c.744-.3,1.494-.6,2.261-.843.739-.237,1.536-.335,2.255-.612a9.132,9.132,0,0,1,2.379-.392,21.033,21.033,0,0,1,2.633-.082,1.638,1.638,0,0,0,1.08-.211.8.8,0,0,0-.178-1.308,6.482,6.482,0,0,0-2.4-.358,25.33,25.33,0,0,0-5.553.465" transform="translate(86.062 95.815)" fill="#e6e6e6"/>
        <path id="Trazado_1274684" data-name="Trazado 1274684" d="M51.069,59.9A14.505,14.505,0,0,0,48.8,60.4a14.393,14.393,0,0,0-3.549,2.241c-.789.581-3.805,3.019-4.53,3.684s-1.446,1.3-2.185,1.931a75.376,75.376,0,0,1,10.058-5.023c.744-.3,1.494-.6,2.261-.843.739-.24,1.536-.335,2.255-.612a9.112,9.112,0,0,1,2.379-.392,21.034,21.034,0,0,1,2.633-.082A1.621,1.621,0,0,0,59.2,61.1a.8.8,0,0,0-.178-1.308,6.482,6.482,0,0,0-2.4-.358,25.329,25.329,0,0,0-5.553.465" transform="translate(70.092 108.056)" fill="#e6e6e6"/>
        <path id="Trazado_1274685" data-name="Trazado 1274685" d="M56.066,53.265a11.087,11.087,0,0,0-6.179,7.479c-.039.152-.054.352.087.42a.327.327,0,0,0,.3-.059,6.749,6.749,0,0,0,1.1-1.066,6.69,6.69,0,0,1,4.871-1.6c1.759.02,3.5.366,5.257.3a3.775,3.775,0,0,0,2.977-1.206A4.352,4.352,0,0,0,65.16,55.3c.025-.716-.417-1.077-.989-1.44a8.756,8.756,0,0,0-5.113-1.274,9.022,9.022,0,0,0-2.991.679" transform="translate(90.69 95.624)" fill="#f2f2f2"/>
        <path id="Trazado_1274686" data-name="Trazado 1274686" d="M56.57,53.51c-1.939.832-3.836,2.357-3.543,4.313A2.146,2.146,0,0,0,54.334,59.4a5.79,5.79,0,0,0,2.035.364,2.907,2.907,0,0,0,3.23,2.162,3.984,3.984,0,0,0,2.974-2.889c.448-1.553.2-4.457-1.032-5.579a3.108,3.108,0,0,0-2.249-.646,8.2,8.2,0,0,0-2.723.7" transform="translate(96.394 96.044)" fill="#fff"/>
        <path id="Trazado_1274687" data-name="Trazado 1274687" d="M49.583,68.883a42.783,42.783,0,0,1,.5,9.477c-.1,3.462-.316,7.078-2.078,10.058q4.427-2.909,8.851-5.818a1.814,1.814,0,0,0,.583-.519,1.763,1.763,0,0,0,.195-.722c.595-5.054.048-10.45-2.748-14.7A25.361,25.361,0,0,0,48.949,60.7,5.066,5.066,0,0,0,46.9,59.592c-1.082-.209-1.765.352-1.051,1.285a21.523,21.523,0,0,1,1.717,2.4,18.517,18.517,0,0,1,2.015,5.6" transform="translate(82.865 108.312)" fill="#ccc"/>
        <path id="Trazado_1274688" data-name="Trazado 1274688" d="M47.3,59.568a11.087,11.087,0,0,0-6.179,7.479c-.039.152-.054.352.085.42a.331.331,0,0,0,.3-.059,6.749,6.749,0,0,0,1.1-1.066,6.693,6.693,0,0,1,4.874-1.6c1.753.02,3.5.366,5.257.3A3.773,3.773,0,0,0,55.7,63.841a4.352,4.352,0,0,0,.685-2.238c.025-.716-.417-1.077-.989-1.44a8.756,8.756,0,0,0-5.113-1.274,9.023,9.023,0,0,0-2.991.679" transform="translate(74.737 107.088)" fill="#f2f2f2"/>
        <path id="Trazado_1274689" data-name="Trazado 1274689" d="M46.84,65.44a6.585,6.585,0,0,1,1.418-1.181c.961-.688,1.8-1.593,2.813-2.2A3.817,3.817,0,0,0,52.765,60.2,15.788,15.788,0,0,0,54.1,55.588a14.368,14.368,0,0,1,1.04,8.059,9.49,9.49,0,0,1-4.51,6.582,4.178,4.178,0,0,1-3.808.372c-.992-.5-.772-1.452-.795-2.388a4.412,4.412,0,0,1,.812-2.774" transform="translate(83.708 101.109)" fill="#f2f2f2"/>
        <path id="Trazado_1274690" data-name="Trazado 1274690" d="M47.158,64.439a30.221,30.221,0,0,1-7.338,1.082,5.515,5.515,0,0,0,2.7,2.258,11.744,11.744,0,0,0,3.481.77,24.25,24.25,0,0,0,6.326-.189A13.434,13.434,0,0,0,56.525,67a7.681,7.681,0,0,0,3.149-3.033,3.208,3.208,0,0,0,.276-2.892,2.47,2.47,0,0,0-2.111-1.269c-1.985-.068-3.315,1.866-4.925,2.729a23.153,23.153,0,0,1-5.756,1.9" transform="translate(72.428 108.785)" fill="#f2f2f2"/>
        <path id="Trazado_1274691" data-name="Trazado 1274691" d="M47.8,59.812c-1.937.832-3.834,2.357-3.541,4.316a2.141,2.141,0,0,0,1.308,1.57,5.791,5.791,0,0,0,2.035.364,2.907,2.907,0,0,0,3.23,2.162A3.983,3.983,0,0,0,53.8,65.331c.448-1.55.2-4.454-1.032-5.576a3.111,3.111,0,0,0-2.249-.646,8.233,8.233,0,0,0-2.726.7" transform="translate(80.441 107.506)" fill="#fff"/>
        <path id="Trazado_1274692" data-name="Trazado 1274692" d="M86.061,107.54a29.748,29.748,0,0,0-3.588-3.081,14.6,14.6,0,0,1-3.18-2.977c-1.5-2.314-2.19-4.891-3.109-7.453-2.19-6.111-4.524-12.178-7.29-18.052a108.9,108.9,0,0,0-6.565-12.045A76.692,76.692,0,0,0,56.5,55.588c-.031-.039-.054-.082-.085-.121C50.9,48.166,47.522,39.6,43.279,31.54A19.3,19.3,0,0,0,39.22,25.8a6.494,6.494,0,0,1-3.168,6.128c-1.773,1.1-3.842,1.666-5.643,2.731a4.381,4.381,0,0,0-1.6,1.455,3.622,3.622,0,0,0-.121,3.022c1.012,2.76,3.149,5.252,4.854,7.594q3.239,4.448,6.416,8.944c1.2,1.7,6.909,10.686,8.13,12.468Q57.96,82.531,66.515,97.764c.942,1.677,4.24,7.935,4.66,9.525a20,20,0,0,1,.682,3.992c.034.536.076,1.082.138,1.624a9.576,9.576,0,0,0,1.584,4.713,17.627,17.627,0,0,0,2.655,2.551,5.483,5.483,0,0,0,3.177,1.5.484.484,0,0,0,.428-.09c.1-.118.07-.3.082-.459.045-.612.781-.9,1.393-.967s1.333-.127,1.649-.654c.121-.206.166-.465.344-.626a1.18,1.18,0,0,1,.3-.178,3.738,3.738,0,0,0,2.024-2.76,1.042,1.042,0,0,1,.127-.454,1.013,1.013,0,0,1,.271-.242,4.509,4.509,0,0,0,1.829-3.445,6.268,6.268,0,0,0-1.8-4.257" transform="translate(51.68 46.935)" fill="#ffb78c"/>
        <path id="Trazado_1274693" data-name="Trazado 1274693" d="M34.253,46.762A13.491,13.491,0,0,0,46.467,42.17a26.864,26.864,0,0,0,1.618-2.238.947.947,0,0,0,.172-.361.911.911,0,0,0-.07-.44,45.066,45.066,0,0,0-5.894-11.69,7.249,7.249,0,0,0-2.731-2.63,6.987,6.987,0,0,0-2.74-.465,11.3,11.3,0,0,0-4.82.739,8.768,8.768,0,0,0-4.767,7.385,16.785,16.785,0,0,0,2.173,8.848,38.438,38.438,0,0,0,2.252,3.724,3,3,0,0,0,2.593,1.72" transform="translate(49.468 44.274)" fill="#ffcce2"/>
        <path id="Trazado_1274694" data-name="Trazado 1274694" d="M61.722,85.291A52.2,52.2,0,0,1,47.65,80.184a66.238,66.238,0,0,1-6.436-4.389q-11.34-8.406-22.684-16.812a14.392,14.392,0,0,0-5.536-2.96,42.309,42.309,0,0,1,2.049-8.172,2.121,2.121,0,0,1,.488-.874,1.871,1.871,0,0,1,1-.4,9.555,9.555,0,0,1,6.046,1.314,34.223,34.223,0,0,1,5.057,3.749A112.114,112.114,0,0,0,46.892,64.449c6.145,3.228,12.786,6.03,17.381,11.23,1.505,1.7,5.04,5.353,4.2,7.879-.871,2.622-4.713,2.216-6.751,1.734" transform="translate(23.636 84.555)" fill="#379799"/>
        <path id="Trazado_1274695" data-name="Trazado 1274695" d="M49.975,88.313c5.841,4.149,12.1,7.611,19.408,8.316a9.836,9.836,0,0,0,4.35-.324,6.947,6.947,0,0,0,3.027-2.311,11.262,11.262,0,0,0,1.57-9.5,25.761,25.761,0,0,0-4.572-8.781C68.29,68.231,61.5,61.838,54.652,55.594c-5.325-4.857-10.734-9.677-16.815-13.548a7.98,7.98,0,0,0-2.478-1.178,8.449,8.449,0,0,0-2.951.054c-3.814.524-7.712,1.071-11.135,2.836s-6.334,5.009-6.624,8.848c-.217,2.9,1.347,5.229,3.2,7.318,8.087,9.116,17.376,17.094,27.008,24.558,1.68,1.3,3.38,2.6,5.119,3.831" transform="translate(26.608 74.131)" fill="#64bcbe"/>
        <path id="Trazado_1274696" data-name="Trazado 1274696" d="M15.521,56.8a24.278,24.278,0,0,0-2.441-3.18c-.643-.7-2.109-1.522-2.159-2.554a.8.8,0,0,0-.042-.285.583.583,0,0,0-.192-.2,4.84,4.84,0,0,0-5.26,0,5.993,5.993,0,0,0-2.658,4.234c-.163,1.928.135,3.913-.189,5.844A33.152,33.152,0,0,1,.71,65.9a11.274,11.274,0,0,0-.29,6.949,9.062,9.062,0,0,0,7.605,6.238c2.754.341,6.4-.364,7.51-3.27a2.858,2.858,0,0,0-.13-2.591,6.074,6.074,0,0,0-1.452-1.246,2.533,2.533,0,0,1-1.006-2.723c.226-.507.981-.792,1.359-.383-.71-.767,1.066-2.757,1.511-3.205a6.065,6.065,0,0,0,2.078-3.735c.144-1.914-1.359-3.588-2.374-5.128" transform="translate(0 90.602)" fill="#379799"/>
        <path id="Trazado_1274697" data-name="Trazado 1274697" d="M16.167,55.432a16.34,16.34,0,0,0-3.521-4.121,6.483,6.483,0,0,0-5.091-1.418,5.453,5.453,0,0,0-3.687,2.875C2.78,54.9,3.6,57.064,3.225,59.3a33.152,33.152,0,0,1-1.869,5.229,11.274,11.274,0,0,0-.29,6.949,9.062,9.062,0,0,0,7.605,6.238,6.671,6.671,0,0,0,4.079-.685,4.721,4.721,0,0,0,2.069-2.41c.513-1.285.223-1.959-.369-3.185a15.2,15.2,0,0,1-.77-1.917,2.323,2.323,0,0,1-.087-1.632c.226-.51.978-.792,1.359-.383-.71-.767,1.066-2.757,1.511-3.205a6.065,6.065,0,0,0,2.078-3.735c.144-1.914-1.359-3.588-2.374-5.128" transform="translate(1.175 90.573)" fill="#0e1b47"/>
        <path id="Trazado_1274698" data-name="Trazado 1274698" d="M65.729,94.651A82.909,82.909,0,0,0,48.9,75.285a153.248,153.248,0,0,0-15.93-11.879,42.834,42.834,0,0,0-4.183-2.7c-1.407-.7-3.013-1.167-4.476-1.81a103.9,103.9,0,0,1-9.973-5.04c-.989-.567-2.092-2.007-3.25-2.066a2.021,2.021,0,0,0-.97.265,11.544,11.544,0,0,0-6.3,10.162c-.011,1.677.648,2.151,2.159,2.819C12.069,67.725,17.086,72.351,21.7,77.16s8.972,9.917,14.28,13.945c5.669,4.3,11.935,7.975,18.934,9.435a16.47,16.47,0,0,0,5.435.451c2.734-.358,7.349-3.1,5.381-6.34" transform="translate(6.939 94.192)" fill="#379799"/>
        <path id="Trazado_1274699" data-name="Trazado 1274699" d="M3.63,51.148c-1.159,6.483.547,13.218,3.541,19.084s7.211,11,11.411,16.076c9.294,11.228,18.754,22.5,30.295,31.4,3.755,2.9,8.1,5.646,12.84,5.376a11.433,11.433,0,0,0,10.39-10.193,16.743,16.743,0,0,0-1.094-6.667c-2.754-7.994-8.361-14.669-14.295-20.693S44.363,73.885,39.385,67.049a10.233,10.233,0,0,0,5.92-9.8,7.615,7.615,0,0,1-5.043-.282A34.084,34.084,0,0,1,27.6,49.62c-3.174-2.918-5.858-6.486-9.652-8.533-2.915-1.573-7.008-1.982-9.86-.042-2.968,2.021-3.868,6.81-4.457,10.1" transform="translate(5.937 72.289)" fill="#64bcbe"/>
        <path id="Trazado_1274700" data-name="Trazado 1274700" d="M31.609,33.178c-8.194,6.937-13.5,16.417-18.03,25.984Q9.046,68.731,4.511,78.3c-1.486,3.135.975,6.289,3.075,8.555,9.206,9.937,24.268,13.841,37.257,10.01a3.611,3.611,0,0,0,1.491-.713,4.041,4.041,0,0,0,.925-1.784,41.082,41.082,0,0,1,9.824-16.054c2.878-2.9,6.216-5.4,8.55-8.755a38.012,38.012,0,0,0,4.031-8.513Q74.332,48.625,79,36.2a12.727,12.727,0,0,0,1.108-4.668c-.065-3.132-2.413-5.767-5-7.543a22.623,22.623,0,0,0-10.185-3.752,21.961,21.961,0,0,0-9.336.73,94.009,94.009,0,0,0-9.739,3.992c-4.863,2.314-10.027,4.671-14.176,8.163l-.07.059" transform="translate(7.379 36.466)" fill="#ff9ebf"/>
        <path id="Trazado_1274701" data-name="Trazado 1274701" d="M101.061,112.491c-.07-.919-.144-1.835-.214-2.754a2.2,2.2,0,0,0-.217-.944,2.171,2.171,0,0,0-1.1-.8q-1.806-.782-3.684-1.384a16.125,16.125,0,0,0-2.813-.685,15.457,15.457,0,0,0-3.168-.037c-1.722.13-3.431.4-5.15.555a33.685,33.685,0,0,1-5.144-.113c-2.746-.175-4.527-3.1-6.171-5.032C71.72,99.322,62.68,86.772,59.542,82.7A118.286,118.286,0,0,0,49.214,71c-.031-.062-.056-.124-.09-.183q-7.882-14.165-15.76-28.335a23.109,23.109,0,0,0-2.647-4.062c-3.318-3.8-8.848-5.037-13.846-4.378-2.582.341-4.846,1.72-4.609,4.654a10.342,10.342,0,0,0,1.311,3.774A164.715,164.715,0,0,0,26.147,62.262c3.411,4.823,6.847,9.635,10.624,14.182,1.753,2.109,14.416,16.812,16.33,18.824,3.594,3.78,14.946,14.531,17.006,16.121,1.584,1.221,3.315,2.233,4.925,3.422,1.362,1.006,1.813,2.548,3.487,3.261,1.922.823,4.234.412,6.086,1.381,1,.522,1.767,1.4,2.734,1.97a2.6,2.6,0,0,0,3.123-.051,1.4,1.4,0,0,1,.335-.31,1.076,1.076,0,0,1,.634-.034,3.515,3.515,0,0,0,2.038-.248,1.9,1.9,0,0,0,1.1-1.643c.978-.189,2.148-.553,2.359-1.528a2.425,2.425,0,0,0-.09-1.1,21.468,21.468,0,0,0-1.621-4.4,6.31,6.31,0,0,1,1.753.457,4.967,4.967,0,0,0-.409,1.449,1.7,1.7,0,0,0,.465,1.384,2.226,2.226,0,0,0,1.841.352,2.756,2.756,0,0,0,1.7-.736,3.316,3.316,0,0,0,.493-2.529" transform="translate(22.27 61.612)" fill="#ffe5cc"/>
        <path id="Trazado_1274702" data-name="Trazado 1274702" d="M21.913,25.38a14.193,14.193,0,0,0-2.2,6.7,21.7,21.7,0,0,0,.445,8.034,13.438,13.438,0,0,0,4.138,6.81,9.768,9.768,0,0,0,7.5,2.334,4.28,4.28,0,0,0,3.369-2.094c.767-1.658.054-3.278-.319-4.916a5.53,5.53,0,0,1,1.672-5.243,1.793,1.793,0,0,1-.764-.894c-1.731-3.425-2.128-7.369-3.557-10.932a5.941,5.941,0,0,0-1.722-2.6c-1.119-.863-3.338-1.612-4.679-.882a13.049,13.049,0,0,0-3.882,3.676" transform="translate(35.527 38.941)" fill="#ffb78c"/>
        <path id="Trazado_1274703" data-name="Trazado 1274703" d="M57.069,43.282a15.63,15.63,0,0,1-4.6,5.2,2.451,2.451,0,0,0-.885.953A2.406,2.406,0,0,0,51.5,50.5q.156,2.1.31,4.192a1.5,1.5,0,0,1-.073.758,1.271,1.271,0,0,1-.615.536,3.813,3.813,0,0,1-3.481-.09,2.1,2.1,0,0,0-1.037-.412,2.861,2.861,0,0,0-1.074.488,7.238,7.238,0,0,1-2.506.3c-1.051.11-2.018.629-3.056.832-2.892.561-5.621-1.367-7.938-3.185a16.425,16.425,0,0,1-3.177-2.977,5.564,5.564,0,0,1-1.209-4.076c.248-1.6-.617-2.018-1.564-3.149a18.149,18.149,0,0,1-2.351-3.642A24.956,24.956,0,0,1,21.393,31.5a14.193,14.193,0,0,1,.042-3.8,13.616,13.616,0,0,1,2.816-6.6,15.55,15.55,0,0,1,7.27-4.733c5.046-1.734,11.019-2.233,16.014-.062a13.809,13.809,0,0,1,5.8,4.127c2.376,3.1,4.482,6.551,5.139,10.4a28.158,28.158,0,0,1-.2,8.634,11.882,11.882,0,0,1-1.209,3.814" transform="translate(38.717 27.038)" fill="#ffe5cc"/>
        <path id="Trazado_1274704" data-name="Trazado 1274704" d="M36.885,27.668c.24-.051.7-.175.6-.482-.087-.268-.575-.409-.809-.437a4.289,4.289,0,0,0-.987.042c-1.209.124-2.427.014-3.642.062-.581.023-1.161.082-1.736.152a5.194,5.194,0,0,1-.829.1,2.021,2.021,0,0,0-.5-.037,2.916,2.916,0,0,0,.877.33,19.369,19.369,0,0,0,4.93.417,10.656,10.656,0,0,0,2.1-.147" transform="translate(52.708 48.625)" fill="#0e1b47"/>
        <path id="Trazado_1274705" data-name="Trazado 1274705" d="M63.36,15.275A19.528,19.528,0,0,1,74.071,29.463a19.883,19.883,0,0,1-.147,7.667,8.8,8.8,0,0,1-4.161,6.142,8.781,8.781,0,0,1-4.166.84c-2.531-.008-5.049-.55-7.58-.451a15.11,15.11,0,0,0-7.391,2.278c-1.638,1.023-3.191,2.407-5.111,2.585.293-.028.107-2.317.065-2.56a5.285,5.285,0,0,0-.82-2.165c-1-1.556-2.23-3.47-4-4.22-2.472-1.049-3.039,1.824-2.647,3.693.468,2.252,1.457,4.361,2.1,6.571a9.849,9.849,0,0,1-.042,6.757,7.636,7.636,0,0,1-3.718,3.608,12.89,12.89,0,0,1-5.128,1.128c-7.174.248-14.638-3.422-16.564-10.74-1.181-4.493-1.113-9.407,1.886-13.237A15.327,15.327,0,0,1,22.8,32.992c2.337-1,4.795-1.691,7.163-2.619a6.432,6.432,0,0,0,2.044-1.128c1.19-1.071,1.519-2.622,2.162-4.006,1.1-2.376,2.252-4.925,4.121-6.782a18.618,18.618,0,0,1,6.545-4.234,22.83,22.83,0,0,1,13.8-.679,28.669,28.669,0,0,1,4.719,1.731" transform="translate(25.553 23.257)" fill="#0e1b47"/>
        <path id="Trazado_1274706" data-name="Trazado 1274706" d="M12.795,34.7c-.211.826-.364,1.6-.468,2.207-1.314,7.636-.18,15.5,1.779,22.994a.848.848,0,0,0,.772.753A25.947,25.947,0,0,0,24.871,61a23.483,23.483,0,0,0,9.04-2.54A15.483,15.483,0,0,0,35.8,57.152c.767-.62.942-.716.789-1.7a48.55,48.55,0,0,0-1.793-6.985,45.908,45.908,0,0,0-2.568-6.475,33.717,33.717,0,0,0-8.254-10.94c-.561-.476-1.139-.933-1.736-1.364-1.26-.911-3.34-2.047-4.984-1.641-2.43.6-3.763,3.946-4.457,6.658" transform="translate(21.393 50.856)" fill="#ffcce2"/>
      </g>
    </g>
  </g>
</svg>
