<svg xmlns="http://www.w3.org/2000/svg" xmlns:xlink="http://www.w3.org/1999/xlink" width="113.341" height="113.341" viewBox="0 0 113.341 113.341">
  <defs>
    <clipPath id="clip-path">
      <rect id="Rectángulo_459447" data-name="Rectángulo 459447" width="71.575" height="71.625" fill="#6a2874"/>
    </clipPath>
  </defs>
  <g id="Grupo_1212912" data-name="Grupo 1212912" transform="translate(-743.678 -9125.896)">
    <path id="Trazado_998483" data-name="Trazado 998483" d="M125.718,69.047a56.67,56.67,0,1,1-56.67-56.67,56.671,56.671,0,0,1,56.67,56.67" transform="translate(731.301 9113.519)" fill="#fff"/>
    <g id="Grupo_1209203" data-name="Grupo 1209203" transform="translate(764.746 9147.587)" clip-path="url(#clip-path)">
      <path id="Trazado_1269298" data-name="Trazado 1269298" d="M112.664,37.545a17.2,17.2,0,0,1,5.328,4.412l-1.739,1.34c-.555,0-.881-.917-1.223-1.246a18.421,18.421,0,0,0-9.877-4.889c-.625-.111-2.951-.039-3.125-.566l.071-3.768c.2-.4,1.573-.7,2.091-.985,6.323-3.449,4.658-9.977,4.688-16.043a22.91,22.91,0,0,1-2.351-1.136c-1.745-1.071-3.015-2.907-4.994-3.118-.918.106-2.062,1.2-2.918,1.2-.956,0-2.091-1.257-3.228-1.2-1.254.068-3.376,2.312-4.684,3.115-.768.471-2.353.816-2.456,1.645-.288,2.314-.174,8.8.622,10.885a9.087,9.087,0,0,0,4.171,4.647c.518.283,1.894.587,2.091.985l.011,3.913c-1.514.4-3.061.394-4.592.74A18.221,18.221,0,0,0,82.3,41.949c-.356.326-.726,1.208-1.161,1.319-.484.123-1.439-1.008-1.9-1.311a17.208,17.208,0,0,1,5.328-4.412,13.57,13.57,0,0,1-3.936-3.752c-3.49-5.7-.26-9.9.424-15.652.384-3.221-.137-6.592.788-9.671A12.159,12.159,0,0,1,94.486.043c1.292.108,3.212,1,4.128,1s2.836-.9,4.128-1a12.134,12.134,0,0,1,12.936,9.571c.568,2.841.134,5.841.5,8.734.718,5.742,3.975,9.846.35,15.574a13.992,13.992,0,0,1-3.86,3.623m1.025-20.711V11.6c0-5.022-5.1-9.386-9.946-9.349-1.784.014-3.788,1.208-5.128,1.211-1.241,0-3.381-1.2-5.129-1.211-4.859-.037-9.946,4.34-9.946,9.349v5.23l2.372-.806c.325-2.709-.554-5.308,1.323-7.6l1.616,1.581a6,6,0,0,0-.592,3.341c2.794-1.019,4.374-4.4,7.664-4.081a23.346,23.346,0,0,1,2.691,1c.214,0,1.251-.622,1.7-.755,4.061-1.2,5.351,2.534,8.654,3.837a5.993,5.993,0,0,0-.592-3.341l1.616-1.581c1.877,2.294,1,4.893,1.323,7.6ZM86,22.986v-4.2c0-.809-2.458.287-2.427,2.056A2.205,2.205,0,0,0,86,22.986m25.225-4.2v4.2A2.256,2.256,0,0,0,111.7,18.5ZM85.959,25.488a9.079,9.079,0,0,1-1.739-.412c-.869-.336-1.316-.947-2.114-1.267a7.815,7.815,0,0,1-.559,2.209A8.387,8.387,0,0,0,84.5,34.641a8.971,8.971,0,0,0,2.663,1.416c1.066.091,4.147-1.615,5.607-1.177a.676.676,0,0,0-.208-.713c-.258-.276-1.879-1.014-2.441-1.456a12.213,12.213,0,0,1-4.161-7.223m29.163-1.68c-.8.321-1.246.931-2.114,1.267a9.081,9.081,0,0,1-1.739.412,12.212,12.212,0,0,1-4.161,7.223c-.562.442-2.182,1.18-2.441,1.456a.676.676,0,0,0-.208.713c1.46-.438,4.542,1.268,5.607,1.177,1.848-.157,4.374-2.866,5.091-4.525,1.237-2.862.716-4.834-.036-7.725" transform="translate(-62.827 0)" fill="#6a2874"/>
      <path id="Trazado_1269299" data-name="Trazado 1269299" d="M39.171,191.081V195.8l2.46.41v-2.667h2.257v4.2c0,.1,1.057,1.231,1.27,1.6,1.373,2.4,1.1,5.309.781,7.935h3.384c1.27,0,1.817,1.976,2.561,2.666l4.822-14.768,4.617,18.458,2.285-5.4a2.908,2.908,0,0,1,1.507-.955h6.46v2.461h-6.05l-4.612,11.688c-1.644-5.668-2.644-11.693-4.3-17.336-.087-.3.118-.359-.413-.3l-3.9,12.1-3.276-6.052-3.469-.08c-.874,3.832-2.514,8.393-5.141,11.367-2.718,3.076-6.42,3.179-9.339.3-1.945-1.915-6.4-6.907-7.317-9.295a18.975,18.975,0,0,0-.7-2.41l-1.621.214-4.4,11.487L12.713,203.8l-.428.288L8.406,215.9l-3.381-6.152H0v-2.461H5.435c1.27,0,1.817,1.976,2.561,2.666l4.922-14.559,4.717,18.249c1.322-2.833,1.218-7.109,5.531-6.365a10.485,10.485,0,0,1,7.792-8.922A14.923,14.923,0,0,0,33.067,198c.5-.22,1.131-.949,1.789-1.287a19.007,19.007,0,0,1,2.03-.738l.118-4.7Zm-.891,29.051c3.546-3.148,6.988-14.9,5.1-19.207-1.323-3.013-5.228-3.572-7.844-1.9-.5.321-.844.876-1.341,1.12a13.027,13.027,0,0,1-2.771.51,8.042,8.042,0,0,0-4.844,11.94,63.491,63.491,0,0,0,6.645,7.711,3.855,3.855,0,0,0,5.061-.178" transform="translate(0 -151.893)" fill="#6a2874"/>
      <path id="Trazado_1269300" data-name="Trazado 1269300" d="M155.025,127.155c1.251,2.208,3.677,2.166,4.937-.012,1.586.839,2.584.669,1.112,2.35a4.928,4.928,0,0,1-6.464.712,7.754,7.754,0,0,1-1.518-1.776c-.079-.521,1.593-.955,1.932-1.275" transform="translate(-121.693 -101.068)" fill="#6a2874"/>
      <path id="Trazado_1269301" data-name="Trazado 1269301" d="M165.631,90.076,165,94.247l1.242.648-1.139,1.944-3.182-1.552c.667-1.7,1.479-3.321,1.453-5.208Z" transform="translate(-128.715 -71.603)" fill="#6a2874"/>
      <path id="Trazado_1269302" data-name="Trazado 1269302" d="M146.961,78.941a1.153,1.153,0,1,1,.214,2.186,1.153,1.153,0,0,1-.214-2.186" transform="translate(-116.261 -62.684)" fill="#6a2874"/>
      <path id="Trazado_1269303" data-name="Trazado 1269303" d="M192.064,78.981a1.157,1.157,0,0,1,1.037,2.068c-1.644.781-2.34-1.663-1.037-2.068" transform="translate(-152.135 -62.724)" fill="#6a2874"/>
      <path id="Trazado_1269304" data-name="Trazado 1269304" d="M147.8,252.589c.484.149.347,1.82.218,2.269l-.247.164a12.368,12.368,0,0,1-7.862-1.817,7.309,7.309,0,0,1-3.654,3.426c-.453.2-1.659.882-1.917.19a10.611,10.611,0,0,1-.382-1.974c3.333-.438,5.039-3.6,4.922-6.77h2.258l-.164,3.036a9.49,9.49,0,0,0,3.137,1.477Z" transform="translate(-106.477 -197.199)" fill="#6a2874"/>
    </g>
  </g>
</svg>
