<svg xmlns="http://www.w3.org/2000/svg" xmlns:xlink="http://www.w3.org/1999/xlink" width="113.341" height="113.341" viewBox="0 0 113.341 113.341">
  <defs>
    <clipPath id="clip-path">
      <rect id="Rectángulo_461037" data-name="Rectángulo 461037" width="67.68" height="74.595" fill="#6a2874"/>
    </clipPath>
  </defs>
  <g id="Grupo_1212914" data-name="Grupo 1212914" transform="translate(-899.932 -2136.813)">
    <path id="Trazado_998483" data-name="Trazado 998483" d="M125.718,69.047a56.67,56.67,0,1,1-56.67-56.67,56.671,56.671,0,0,1,56.67,56.67" transform="translate(887.555 2124.437)" fill="#fff"/>
    <g id="Grupo_1212103" data-name="Grupo 1212103" transform="translate(922.71 2156)" clip-path="url(#clip-path)">
      <path id="Trazado_1277684" data-name="Trazado 1277684" d="M51.512,72.326A1.1,1.1,0,0,1,51.1,74.45l-40.971-.056a1.358,1.358,0,0,1-.586-.47c-.619-1.037.092-7.861-.2-8.152-5.385.37-9.96-2.4-9.278-8.325.273-2.372,3.74-7.815,5.467-9.539,1.446-1.444,3.139-1.266,4.126.533,2.324-3.489,4.473-3.723,6.765,0,.918-1.433,2.592-2.087,4.018-.844a37.5,37.5,0,0,1,3.944,5.568,11.8,11.8,0,0,1,1.664,4.36l5.557-.449c.722-.246,1.447-4.461,1.094-5.04-.1-.165-2.771-1.518-3.348-1.935-3.205-2.319-5.174-5.921-6.472-9.591a22.227,22.227,0,0,1-2.806-.156A5.527,5.527,0,0,1,15.947,33.8c.153-.9,1.236-2.216,1.216-2.774-.048-1.3-1.705-4.834-2.049-6.639a20.186,20.186,0,0,1,1.168-11.812c.348-.841,2.336-4.516,3-4.82.873-.4,1.788.038,1.69,1.041-.029.293-2.244,3.624-2.635,4.563-2.314,5.554-1.531,10.978.725,16.391a8.664,8.664,0,0,0,2.379-.351,16.869,16.869,0,0,1,4.191-.924,19.268,19.268,0,0,0,8.235-4.235C35.307,23,37.44,19.71,39.249,19.7c2.043-.016,4.22,3.409,5.813,4.759a18.592,18.592,0,0,0,9.857,4.3,11.928,11.928,0,0,1,2.513.657,14.406,14.406,0,0,0,2.2.418c1.823-4.828,2.855-9.289,1.433-14.411A18.716,18.716,0,0,0,43.26,2.145c-1.435.029-2.908.484-4.439.439-4.795-.141-6.954-.826-11.652,1.435-.858.413-3.275,2.258-3.82,2.332a.575.575,0,0,1-.467-.069c-1.751-1.369.453-2.522,1.617-3.242A20.875,20.875,0,0,1,36.5.042,42.67,42.67,0,0,0,42.414.031C56.256-.7,66.407,12,63.349,25.4c-.345,1.513-1.74,4.414-1.791,5.621-.026.621,1.1,2.1,1.243,3.167.555,4.251-3.169,6.974-7.149,6.238-1.376,5.114-5,9.908-10.135,11.634-.342.531.487,4.944.955,5.054l12.2,1.076c6.2.634,8.437,6.952,8.989,12.358a3.375,3.375,0,0,1-2.849,3.87,54.573,54.573,0,0,1-8.439.022c-1.377-.16-1.758-1.333-.589-2.076,2.652-.361,6.056.351,8.611-.054a1.258,1.258,0,0,0,1.135-.981,57.183,57.183,0,0,0-1.289-6.025,7.01,7.01,0,0,0-4.169-4.5c-4.31-1.08-8.907-.91-13.312-1.587-.145,9.825-15.063,9.866-15.433,0l-5.238.676c-.764,4.711-5.1,6.047-9.344,5.876v6.552ZM55,30.9c-6.086-.313-11.405-4.048-15.1-8.676-1.139-.738-1.954,1.124-2.648,1.813a23.125,23.125,0,0,1-9.986,6.289c-.632.173-3.651.579-3.707.882.353,8.751,3.926,18.9,14.008,19.768C49.9,52.04,54.941,41.653,55,30.9m-33.625.865c-5.023.2-4.083,7.27.863,6.534Zm35.1,6.535a3.424,3.424,0,0,0,3.777-4.939c-.415-.755-2.731-2.433-3.113-1.266ZM12.86,48.032C10.993,50.66,7.178,54.91,7.445,58.268c.454,5.7,8.891,6.986,10.941,1.435a4.616,4.616,0,0,0-.061-3.861,31.592,31.592,0,0,0-4.64-7.407c-.234-.224-.431-.523-.825-.4M7.654,63.446c-2.832-3.077-2.972-6.269-1.167-9.936.742-1.508,2.874-3.287.748-4.434-1.414,2.358-3.662,4.739-4.6,7.343-1.413,3.907.833,7.22,5.022,7.028m10.78,0c2.881.092,5.268-1.253,5.5-4.321.27-3.521-3.161-7.392-5.187-10.046l-.857,1.493c2.992,4.046,4.69,8.882.54,12.874M43.375,52.88a20.2,20.2,0,0,1-8.454-.21c.419,3.207-2.332,5.846-.808,8.944,1.936,3.936,8.548,3.723,10.149-.342,1.182-3-1.407-5.32-.887-8.392M14.629,65.351a5.647,5.647,0,0,1-2.959,0v6.975h2.959Z" transform="translate(0 0)" fill="#6a2874"/>
      <path id="Trazado_1277685" data-name="Trazado 1277685" d="M29.953,194a1.1,1.1,0,1,1-1.1-1.1,1.1,1.1,0,0,1,1.1,1.1" transform="translate(-21.889 -152.128)" fill="#6a2874"/>
      <path id="Trazado_1277686" data-name="Trazado 1277686" d="M43.567,133.4a1.082,1.082,0,1,1-1.082-1.082,1.082,1.082,0,0,1,1.082,1.082" transform="translate(-32.652 -104.352)" fill="#6a2874"/>
      <path id="Trazado_1277687" data-name="Trazado 1277687" d="M39.474,164.324a1.082,1.082,0,1,1-1.082-1.082,1.082,1.082,0,0,1,1.082,1.082" transform="translate(-29.424 -128.739)" fill="#6a2874"/>
      <path id="Trazado_1277688" data-name="Trazado 1277688" d="M61.762,181.156a1.08,1.08,0,1,1-1.08-1.08,1.08,1.08,0,0,1,1.08,1.08" transform="translate(-47.005 -142.015)" fill="#6a2874"/>
      <path id="Trazado_1277689" data-name="Trazado 1277689" d="M7.107,155.45a1.075,1.075,0,1,1-1.075-1.075,1.075,1.075,0,0,1,1.075,1.075" transform="translate(-3.909 -121.746)" fill="#6a2874"/>
      <path id="Trazado_1277690" data-name="Trazado 1277690" d="M169.963,206.531c-1.228.809-2.421-.422-3.641-.383-.89.029-1.675.689-2.755.662-.976-.024-1.82-.692-2.741-.662s-3.861,1.714-3.726-.518c.086-1.424,3.628-1.728,4.764-1.573.354.048.636.323.905.362,1.692.246,2.746-.58,4.4-.38a11.824,11.824,0,0,1,2.865.938,1.4,1.4,0,0,1-.069,1.554" transform="translate(-123.891 -160.888)" fill="#6a2874"/>
      <path id="Trazado_1277691" data-name="Trazado 1277691" d="M145.364,161.079a4.27,4.27,0,0,1,3.044.448c.911.531,1.927,1.875.548,2.519-1.234.577-1.634-1.5-3.483-.744-.66.272-.875,1.217-1.817.661-1.624-.958.471-2.673,1.708-2.885" transform="translate(-112.824 -126.959)" fill="#6a2874"/>
      <path id="Trazado_1277692" data-name="Trazado 1277692" d="M202.435,161.234c1.3-.222,4.4.234,4.176,2.091-.268,2.242-2.392-.085-3.376-.042-1.136.049-1.613,1.583-2.639.75-1.337-1.085.674-2.6,1.84-2.8" transform="translate(-157.848 -127.114)" fill="#6a2874"/>
      <path id="Trazado_1277693" data-name="Trazado 1277693" d="M140.424,142.434a1.728,1.728,0,0,1-.268-1.1c.141-1.046,2-.9,2.816-1.217s2.2-1.957,2.955-.323c.892,1.924-4.581,3.563-5.5,2.641" transform="translate(-110.526 -109.684)" fill="#6a2874"/>
      <path id="Trazado_1277694" data-name="Trazado 1277694" d="M206.933,139.191c.981-.286,1.488.815,2.419,1.089.784.231,3.3.2,2.558,1.777-.8,1.692-5.572-.17-5.772-1.543a1.272,1.272,0,0,1,.794-1.323" transform="translate(-162.561 -109.734)" fill="#6a2874"/>
      <path id="Trazado_1277695" data-name="Trazado 1277695" d="M176.166,180.215c1.367-.282,4.2.532,3.338,2.275-.661,1.342-1.864-.168-2.336-.219-.865-.092-1.455,1.3-2.409.526-1.14-.919.363-2.367,1.407-2.582" transform="translate(-137.5 -142.081)" fill="#6a2874"/>
    </g>
  </g>
</svg>
