<svg xmlns="http://www.w3.org/2000/svg" xmlns:xlink="http://www.w3.org/1999/xlink" width="128" height="128" viewBox="0 0 128 128">
  <defs>
    <clipPath id="clip-path">
      <rect id="Rectángulo_455595" data-name="Rectángulo 455595" width="128" height="128" fill="none"/>
    </clipPath>
    <clipPath id="clip-path-2">
      <rect id="Rectángulo_460707" data-name="Rectángulo 460707" width="61.335" height="64.764" fill="#8d1939"/>
    </clipPath>
  </defs>
  <g id="Grupo_1212895" data-name="Grupo 1212895" transform="translate(-388.828 -1733.826)">
    <g id="Grupo_1180401" data-name="Grupo 1180401" transform="translate(388.828 1733.826)">
      <g id="Grupo_1179172" data-name="Grupo 1179172" clip-path="url(#clip-path)">
        <path id="Trazado_998483" data-name="Trazado 998483" d="M118.651,65.514A53.137,53.137,0,1,1,65.514,12.377a53.138,53.138,0,0,1,53.137,53.137" transform="translate(-1.514 -1.514)" fill="#ff9ebf"/>
        <path id="Trazado_998485" data-name="Trazado 998485" d="M126.489,64.245A62.245,62.245,0,1,1,64.245,2,62.244,62.244,0,0,1,126.489,64.245Z" transform="translate(-0.245 -0.245)" fill="none" stroke="#8d1939" stroke-miterlimit="10" stroke-width="4"/>
      </g>
    </g>
    <g id="Grupo_1180402" data-name="Grupo 1180402" transform="translate(418.828 1763.826)">
      <g id="Grupo_1099618" data-name="Grupo 1099618" transform="translate(0 0)">
        <rect id="Rectángulo_401104" data-name="Rectángulo 401104" width="68" height="68" transform="translate(0)" fill="none"/>
      </g>
      <g id="Grupo_1211243" data-name="Grupo 1211243" transform="translate(2.287 1.98)">
        <g id="Grupo_1211242" data-name="Grupo 1211242" clip-path="url(#clip-path-2)">
          <path id="Trazado_1273722" data-name="Trazado 1273722" d="M2.671.047,25,0a3.166,3.166,0,0,1,2.878,3.261c.951,11.085-3.393,25.353,5.139,33.873,5.041,3.674,9.729,8.586,14.789,12.143,3.266,2.3,4.461,1.795,8.036,2.46a6.562,6.562,0,0,1-.735,13.027h-41.6C-1.5,62.98,3.729,45.132,2.92,34.559c-.2-2.629-1.313-5.63-1.748-8.351A108.5,108.5,0,0,1,.141,4.844C.256,2.823.327.617,2.671.047m47.14,52.675c-.1-.145-2.53-1.335-3.107-1.745A174.517,174.517,0,0,1,32.228,39.114,19.736,19.736,0,0,1,25.7,25.248L25.6,2.375a1.594,1.594,0,0,0-1.181-.4c-6.681-.6-14.236.474-21.011,0a1.146,1.146,0,0,0-1.074.907c-.358,8.088-.381,16.476,1.079,24.456C3.8,29.462,4.723,31.914,4.9,33.966c.554,6.454-.568,13.752.006,20.193a9.493,9.493,0,0,0,8.614,8.614l41.759-.019A4.253,4.253,0,0,0,58.568,60.6,9.022,9.022,0,0,1,50.7,55.69c-.343-.694-.764-2.788-.893-2.968m9.551,5.7a4.734,4.734,0,0,0-1.8-3.849c-1.641-1.175-3.618-.888-5.531-1.1a6.593,6.593,0,0,0,7.327,4.95" transform="translate(0)" fill="#8d1939"/>
          <path id="Trazado_1273723" data-name="Trazado 1273723" d="M32.439,102.819l-1.685.791c-.134.043-.144-.188-.1-.293a19,19,0,0,1,1.686-1.682c4.73-3.815,12.337-2.738,16.134,1.878l-2.375-.892v9.01a4.061,4.061,0,0,1-1.635,2.128,2.8,2.8,0,0,1-3.556-1.293c-.47-.966-.2-1.878-.4-2.773a1,1,0,0,0-1.951-.261c-.7,1.75.139,6.169-.2,8.326a2.948,2.948,0,0,1-5.337,1.2,11.931,11.931,0,0,1-.592-1.389Zm11.658-.766a17.3,17.3,0,0,0-9.652,0l.158,15.532a.813.813,0,0,0,1.2.585,1.576,1.576,0,0,0,.551-.839c.532-2.4-.674-6.935.51-9a2.974,2.974,0,0,1,5.079-.27c.925,1.3.289,2.807.807,3.549a.656.656,0,0,0,1.156,0c.672-.956-.045-7.963.188-9.562" transform="translate(-24.566 -79.648)" fill="#8d1939"/>
          <path id="Trazado_1273724" data-name="Trazado 1273724" d="M86.512,258.036c1.318-.4,3.053,2.27,3.5,3.35,2.377,5.747-7.46,6.62-6.366.715.145-.78,2.156-3.849,2.866-4.066m.359,2.537c-1.187.932-2.169,3.672.189,3.576,2.243-.091,1.034-2.887-.189-3.576" transform="translate(-67.013 -206.904)" fill="#8d1939"/>
          <path id="Trazado_1273725" data-name="Trazado 1273725" d="M94.873,186.053c1.286-1.116,2.622,1.023,3.267,2.054.967,1.546,1.437,2.752.322,4.4a3.341,3.341,0,0,1-5.865-3.094,13.748,13.748,0,0,1,2.275-3.364m.734,2.115c-.3.926-1.247,1.4-1.2,2.47.078,1.968,2.773,1.426,2.771.006a6.928,6.928,0,0,0-1.566-2.476" transform="translate(-74.067 -148.958)" fill="#8d1939"/>
          <path id="Trazado_1273726" data-name="Trazado 1273726" d="M45.09,224.051c1.211-.363,3.1,2.537,3.229,3.624.532,4.621-6.675,4.361-5.7-.347.142-.686,1.84-3.088,2.473-3.277m.353,2.544c-.846.569-1.466,2.392,0,2.391s.789-1.806,0-2.391" transform="translate(-34.105 -179.657)" fill="#8d1939"/>
        </g>
      </g>
    </g>
  </g>
</svg>
