<svg xmlns="http://www.w3.org/2000/svg" xmlns:xlink="http://www.w3.org/1999/xlink" width="113.341" height="113.341" viewBox="0 0 113.341 113.341">
  <defs>
    <clipPath id="clip-path">
      <rect id="Rectángulo_461189" data-name="Rectángulo 461189" width="77.775" height="77.919" fill="#6a2874"/>
    </clipPath>
  </defs>
  <g id="Grupo_1212906" data-name="Grupo 1212906" transform="translate(-1213.932 -650.788)">
    <path id="Trazado_998483" data-name="Trazado 998483" d="M125.718,69.047a56.67,56.67,0,1,1-56.67-56.67,56.671,56.671,0,0,1,56.67,56.67" transform="translate(1201.555 638.411)" fill="#fff"/>
    <g id="Grupo_1212509" data-name="Grupo 1212509" transform="translate(1231.711 668)" clip-path="url(#clip-path)">
      <path id="Trazado_1278758" data-name="Trazado 1278758" d="M87.672,170.977v4.539a6.306,6.306,0,0,1-.794,1.42,3.656,3.656,0,0,1-6.52-2.075c-.134-1.666.02-3.243,2.117-2.34.671.659-.019,2.665.695,3.121.592.379,2.067.2,2.067-.57v-4.1H78.483a8.751,8.751,0,0,1-1.2-.568,3.542,3.542,0,0,1-1.565-4.3c-3.077.458-5.843-1.615-4.871-4.871-4.926.967-7.292-5.3-2.448-7.106a3.8,3.8,0,0,1,3.224-5.074l20.495-.1c1.759-.575-.21-3.971-.4-5.384a5.975,5.975,0,0,1,2.267-5.589c.909-.679,3.4-1.67,4.315-.773.848.829,1.591,6.144,2.422,7.486,3.33,1.777,2.164-3.453,2.828-5.561,1.017-3.232,5.666-5.56,8.211-2.767.124,3.475-1.055,7.05.226,10.4,2.294,6,11.216,7.1,16.105,9.578a1.833,1.833,0,0,1,.871.679V180.05a1.217,1.217,0,0,1-1.646.551c-5.451-3.337-12.234-10.673-18.781-11.344-2.139-.219-5.9,1.121-8.185,1.444-4.168.589-8.474.129-12.676.277m23.469-20.592a27.4,27.4,0,0,1-1.65-3.33,12.845,12.845,0,0,1-.561-4.748l.4-4.265c-.012-.843-1.46-.221-1.963.043-3.081,1.619-.619,6.247-2.887,8.405l-1.748,1.126c2.34,2.228,5.386,2.308,8.411,2.769m15.5,7.972c-4.942-1.355-9.771-3.75-14.665-5.151-6.1-1.745-10.853-.858-13.68-8.018-.565-1.43-.953-4.188-1.587-5.276-.76-1.3-2.422,1.221-2.568,2.228-.257,1.779,1.287,4.046,1.222,5.863a3.679,3.679,0,0,1-3.585,3.5c-6.2.558-13.649-.729-19.719-.013-1.63.192-2.031,1.84-.433,2.434l17.48.011a1.227,1.227,0,0,1,.333,2.314l-19.815.112c-1.261.031-1.992,1.393-.895,2.232l20.173.2a1.217,1.217,0,0,1,.666,2.239l-15.968.416c-1.012.761-.5,2.026.691,2.214,4.287.676,10.241-.57,14.611,0a1.215,1.215,0,0,1,.666,2.239l-10.816.255a1.21,1.21,0,0,0,.222,2.341c6.14-.216,12.689.449,18.782.057,3.309-.213,6.7-1.525,9.958-1.777,6.664-.515,12.6,2.25,18.927,3.76Zm0,18.6V173.3l-8.414-2.544Z" transform="translate(-51.185 -105.207)" fill="#6a2874"/>
      <path id="Trazado_1278759" data-name="Trazado 1278759" d="M34.05,12.188c-.03,4.767-3.985,5.211-7.867,4.88a4.774,4.774,0,0,1-4.424-4.882A16.863,16.863,0,0,0,18.4,13.257c-5.552,2.2-10.906,5-16.452,7.236l-1.407.073-.427-.458L0,.833,1.16,0,30.627,0a6.142,6.142,0,0,1,5.832,5.46,35.53,35.53,0,0,1-.019,5.9c-.356,1.238-2.272.7-2.39.82m0-2.434V5.436c0-1.069-1.917-2.989-2.989-2.989H2.389V17.5C8.817,15.219,14.77,11.66,21.32,9.754Zm-2.436,2.436H24.309c-.14,2.783,2.725,2.607,4.77,2.445,1.708-.135,2.521-.565,2.537-2.445" transform="translate(-0.001)" fill="#6a2874"/>
      <path id="Trazado_1278760" data-name="Trazado 1278760" d="M61.016,141.1a2.581,2.581,0,0,0-3.78.606c-.982,1.745-.021,6.773-.184,8.906-.228,1.193-1.918,1-2.281-.058-.487-1.423-.481-6.25-.319-7.868a4.907,4.907,0,0,1,7.973-3.55c1.074.885,1.377,2.831,2.668,2.456.495-.352.024-7.086.259-8.376.335-1.837,2.38-1.75,2.6.39.175,1.683.185,7.272-.4,8.68a3.206,3.206,0,0,1-4.707,1.3c-.963-.66-1.206-1.872-1.836-2.482" transform="translate(-42.32 -102.706)" fill="#6a2874"/>
      <path id="Trazado_1278761" data-name="Trazado 1278761" d="M142.7,102.674c-.841.8-.765,2.152-2.246,2.736-2.819,1.11-4.492-.923-4.7-3.577a131.724,131.724,0,0,1,0-17.287c.24-2.6,2.4-2.606,2.665-.213l.033,18.565.322.348c.938.31,1.635-1.819,2.519-2.533,1.111-.9,3.458-1.487,3.069.615-.173.932-1.119.828-1.661,1.346" transform="translate(-105.473 -64.284)" fill="#6a2874"/>
      <path id="Trazado_1278762" data-name="Trazado 1278762" d="M88.141,280.169a1.271,1.271,0,0,1,1.375,1.2c.513,3.266-.426,7.743,0,11.068a1.234,1.234,0,0,0,2.4.385c.463-1.611-.437-5.565.163-6.923a1.235,1.235,0,0,1,2.314.333,39.756,39.756,0,0,1-.092,6.982,3.653,3.653,0,0,1-7.156-.176,74.195,74.195,0,0,1-.057-11.465c.075-.637.33-1.289,1.051-1.4" transform="translate(-67.657 -218.126)" fill="#6a2874"/>
      <path id="Trazado_1278763" data-name="Trazado 1278763" d="M65.069,107.226a4.133,4.133,0,0,1-3.221-2.314c-1.6-4.752,4.817-6.888,6.6-3.054.085.183.5,1.414.5,1.493v3.321a3.7,3.7,0,0,1-.554.554,29.1,29.1,0,0,1-3.321,0m1.44-2.435c.113-1.521-.389-3.119-2.161-2.161-.958,1.772.64,2.275,2.161,2.161" transform="translate(-47.957 -77.767)" fill="#6a2874"/>
      <path id="Trazado_1278764" data-name="Trazado 1278764" d="M36.259,263.976c.691-.088,2.814-.23,3.28.138.8,2.1.337,6.385-2.331,7.011-5.148,1.207-6.991-6.381-.95-7.148m1.155,2.374-2.235.53c-.714,1.385.315,2.42,1.7,1.7Z" transform="translate(-25.284 -205.449)" fill="#6a2874"/>
      <path id="Trazado_1278765" data-name="Trazado 1278765" d="M176.2,307.918a11.354,11.354,0,0,1,2.609-.041c1.731.16,3.692.891,4.048,2.815.893,4.827-5.556,6.279-6.92,2.051-.284-.881-.826-4.5.264-4.825m1.838,2.392.53,2.235c1.385.714,2.42-.315,1.7-1.7Z" transform="translate(-136.676 -239.668)" fill="#6a2874"/>
      <path id="Trazado_1278766" data-name="Trazado 1278766" d="M161.19,118.281c-1.1-.308-.407-4.246-.066-5.157a3.57,3.57,0,0,1,6.421-.313,3.624,3.624,0,0,1-1.218,4.851,18.428,18.428,0,0,1-1.816.619,23.5,23.5,0,0,1-3.321,0m1.882-2.436c1.47.122,3.081-.374,2.235-2.125a1.442,1.442,0,0,0-1.575-.2Z" transform="translate(-125.036 -86.386)" fill="#6a2874"/>
      <path id="Trazado_1278767" data-name="Trazado 1278767" d="M105.681,91.04c-.9.732-1.988-.068-2.141-1.173-.147-1.06-.17-5.987.416-6.641a1.351,1.351,0,0,1,1.695-.117c.723.551.658,5.492.539,6.556a3.261,3.261,0,0,1-.508,1.374" transform="translate(-80.547 -64.518)" fill="#6a2874"/>
    </g>
  </g>
</svg>
