<svg xmlns="http://www.w3.org/2000/svg" xmlns:xlink="http://www.w3.org/1999/xlink" width="69" height="69" viewBox="0 0 69 69">
  <defs>
    <clipPath id="clip-path">
      <rect id="Rectángulo_460530" data-name="Rectángulo 460530" width="42" height="42.062" fill="#fff"/>
    </clipPath>
  </defs>
  <g id="Grupo_1210716" data-name="Grupo 1210716" transform="translate(-304.77 -11337.717)">
    <g id="Elipse_13679" data-name="Elipse 13679" transform="translate(304.77 11337.717)" fill="#6a2874" stroke="#707070" stroke-width="1">
      <circle cx="34.5" cy="34.5" r="34.5" stroke="none"/>
      <circle cx="34.5" cy="34.5" r="34" fill="none"/>
    </g>
    <g id="Grupo_1210954" data-name="Grupo 1210954" transform="translate(318.77 11350.717)">
      <g id="Grupo_1210953" data-name="Grupo 1210953" clip-path="url(#clip-path)">
        <path id="Trazado_1272991" data-name="Trazado 1272991" d="M35.492,240.753a1.363,1.363,0,0,1-.908-1.017c.358-4.337-1.264-9.369,2.41-12.639.318-.283,1.663-1.323,2.046-1.083.139.087.707.973,1.027,1.261,1.967,1.772,6.268,2.235,8.839,2.53-.235,2.208.1,5.121,2.826,5.415a29.486,29.486,0,0,0,5.541-.115c2.811-.785,2.333-4.115,2.357-6.366a6.751,6.751,0,0,0,3.709-2.125c.185-.213.322-.679.544-.672a7.236,7.236,0,0,1,4.276,5.964c.2,2.518-.16,5.284,0,7.83.053.359-.652,1.017-.908,1.017h-4.03V235.64c0-.417-.855-.808-1.262-.79s-1.144.507-1.144.91v4.993H41.928V235.76c0-.4-.726-.891-1.144-.91s-1.262.373-1.262.79v5.113c-1.171-.161-2.937.217-4.03,0" transform="translate(-30.372 -198.76)" fill="#fff"/>
        <path id="Trazado_1272992" data-name="Trazado 1272992" d="M89.143,22.683a5.118,5.118,0,0,0-3.36-2.9,39.264,39.264,0,0,0,.228-6.665,3.005,3.005,0,0,0-2.718-2.7,6.612,6.612,0,0,1-2.6-.529c-1.189-.577-2.3-2.229-3.336-2.438C74.736,6.926,74.4,8.948,72.443,9.9s-4.993-.008-5.317,3.224a34.625,34.625,0,0,0,.248,6.6,6.229,6.229,0,0,0-3.437,2.965,1.26,1.26,0,0,1-.362-.48c-.7-1.462-.317-7.076-.178-8.962,1.187-16.1,25.153-16.112,26.344,0,.207,2.794.45,6.3-.178,8.962Z" transform="translate(-55.568 -1.022)" fill="#fff"/>
        <path id="Trazado_1272993" data-name="Trazado 1272993" d="M123.558,73.132c.287-.075,1.5,1.221,1.851,1.481a8.527,8.527,0,0,0,3.232,1.46c.486.1,1.363.075,1.734.191a.272.272,0,0,1,.2.284c-.118,3.112.625,6.009-1.5,8.6a7.024,7.024,0,0,1-10.887-.064c-2.059-2.568-1.378-5.658-1.394-8.727a12.288,12.288,0,0,1,1.879-.287,8.527,8.527,0,0,0,3.232-1.46c.294-.217,1.517-1.444,1.658-1.481" transform="translate(-102.654 -64.331)" fill="#fff"/>
        <path id="Trazado_1272994" data-name="Trazado 1272994" d="M87.768,174.99c3.451,6.352,12.845,6.275,16.332-.024a3.247,3.247,0,0,1,.436,6.237c-4.378,1.839-13.226,1.98-17.521-.107a3.23,3.23,0,0,1,.753-6.106" transform="translate(-74.903 -153.916)" fill="#fff"/>
        <path id="Trazado_1272995" data-name="Trazado 1272995" d="M308.136.049a1.206,1.206,0,0,1,.638.027,12.974,12.974,0,0,1,2.285,3.009c.579,1.243-.756,2.05-1.188,3.114.45.905,1.634,1.771,1.274,2.872a23.939,23.939,0,0,1-1.848,2.85,1.226,1.226,0,0,1-1.672.132c-1.392-.987.43-2.413.862-3.429-.243-.679-1.377-1.741-1.4-2.418s1.147-1.847,1.4-2.514c0-.359-1.318-1.7-1.38-2.314A1.313,1.313,0,0,1,308.136.049" transform="translate(-270.142 -0.017)" fill="#fff"/>
        <path id="Trazado_1272996" data-name="Trazado 1272996" d="M10.21.029a1.314,1.314,0,0,1,1.58,1.24c0,.714-1.144,1.7-1.387,2.406.285.712,1.387,1.764,1.388,2.526,0,.648-1.158,1.749-1.388,2.406,0,.253,1.037,1.481,1.211,1.877a1.245,1.245,0,0,1-2.074,1.353A22.56,22.56,0,0,1,7.856,9.311c-.619-1.3.624-2.074,1.163-3.129-.344-.888-1.611-1.844-1.3-2.855A20.794,20.794,0,0,1,9.471.618,1.568,1.568,0,0,1,10.21.029" transform="translate(-6.747 -0.001)" fill="#fff"/>
        <path id="Trazado_1272997" data-name="Trazado 1272997" d="M2.455,164.143a1.341,1.341,0,0,1,1.868.155,13.23,13.23,0,0,1,.61,3.948c-.135.833-1.718,1.405-2.342,1.864.018.928.849,2.926-.329,3.4a1.261,1.261,0,0,1-1.713-.631A20.127,20.127,0,0,1,0,169.461c.059-1.217,1.692-1.4,2.4-2.192-.007-.941-.716-2.362.054-3.125" transform="translate(0 -144.125)" fill="#fff"/>
        <path id="Trazado_1272998" data-name="Trazado 1272998" d="M310.494,164.143c.77.763.061,2.184.054,3.125.708.8,2.34.975,2.4,2.192a20.124,20.124,0,0,1-.547,3.423,1.261,1.261,0,0,1-1.713.631c-1.178-.478-.346-2.477-.329-3.4-.624-.459-2.207-1.031-2.342-1.864a13.23,13.23,0,0,1,.61-3.948,1.341,1.341,0,0,1,1.868-.155" transform="translate(-270.948 -144.125)" fill="#fff"/>
        <path id="Trazado_1272999" data-name="Trazado 1272999" d="M179.685,257c-.05.29-.5.513-.777.547a29.877,29.877,0,0,1-4.4-.06c-.825-.255-.6-2.025-.543-2.72l.145-.1a23.876,23.876,0,0,0,5.577-.618c-.107.891.145,2.1,0,2.948" transform="translate(-152.971 -223.485)" fill="#fff"/>
      </g>
    </g>
  </g>
</svg>
