<svg xmlns="http://www.w3.org/2000/svg" xmlns:xlink="http://www.w3.org/1999/xlink" width="96" height="96" viewBox="0 0 96 96">
  <defs>
    <clipPath id="clip-path">
      <rect id="Rectángulo_455595" data-name="Rectángulo 455595" width="96" height="96" fill="none"/>
    </clipPath>
    <clipPath id="clip-path-2">
      <rect id="Rectángulo_460486" data-name="Rectángulo 460486" width="54.663" height="54.609" fill="#fff"/>
    </clipPath>
  </defs>
  <g id="Grupo_1210870" data-name="Grupo 1210870" transform="translate(-735.746 -9118)">
    <g id="Grupo_1180407" data-name="Grupo 1180407" transform="translate(735.746 9117.971)">
      <g id="Grupo_1179172" data-name="Grupo 1179172" transform="translate(0 0.03)" clip-path="url(#clip-path)">
        <path id="Trazado_998483" data-name="Trazado 998483" d="M92.261,52.319A39.942,39.942,0,1,1,52.319,12.377,39.942,39.942,0,0,1,92.261,52.319" transform="translate(-4.304 -4.333)" fill="#8d1939"/>
        <path id="Trazado_998485" data-name="Trazado 998485" d="M90.566,46.284A44.283,44.283,0,1,1,46.284,2,44.283,44.283,0,0,1,90.566,46.284Z" transform="translate(1.731 1.702)" fill="none" stroke="#8d1939" stroke-miterlimit="10" stroke-width="4"/>
      </g>
    </g>
    <g id="Grupo_1180408" data-name="Grupo 1180408" transform="translate(755.746 9137)">
      <g id="Grupo_1099618" data-name="Grupo 1099618" transform="translate(0.338 0.626)">
        <rect id="Rectángulo_401104" data-name="Rectángulo 401104" width="56.349" height="57.028" transform="translate(0)" fill="none"/>
      </g>
      <g id="Grupo_1210883" data-name="Grupo 1210883" transform="translate(0.338 1.626)">
        <g id="Grupo_1210882" data-name="Grupo 1210882" clip-path="url(#clip-path-2)">
          <path id="Trazado_1272113" data-name="Trazado 1272113" d="M190.883,30.516a12.047,12.047,0,0,1-4.139-1.417c-.714-.415-3.117-1.947-1.863-2.854.759-.549,2.153,1.047,2.92,1.485a6.664,6.664,0,0,0,3.118.962c2.368-5.731,3.613-12.966,1.989-19.06-.616-2.311-2.326-5.959-5.041-6.226-.5-.049-1.374.166-1.652.09-.406-.111-1.157-.956-1.605-1.217-2.442-1.42-3.834-.117-6.016.309-1.283.25-1.6-1.091-.782-1.568a10.274,10.274,0,0,1,6.5-.792c.932.282,1.934,1.306,2.332,1.424,1.171.348,1.823-.07,3.321.748,6.062,3.313,5.879,14.506,4.662,20.288-.31,1.473-2.194,6.531-2.112,7.357a21.753,21.753,0,0,0,1.057,3.494c.4.506,1.914,1.469,2.512,2.027,4.709,4.4,7.821,9.851,8.135,16.437.035.744.259,2.444-.712,2.586-1.482.215-1.073-2.818-1.166-3.681-.736-6.786-4.119-11.563-9.384-15.668l-.527.112a41.5,41.5,0,0,1-7.2,5.33c-.7.391-3.459,2.047-3.939,1.07a1.251,1.251,0,0,1-.084-.7c.111-.593,2.879-1.7,3.554-2.089a35.344,35.344,0,0,0,4.978-3.474,13.746,13.746,0,0,0,1.813-1.632c.387-.654-.62-2.517-.671-3.338" transform="translate(-149.604 0)" fill="#fff"/>
          <path id="Trazado_1272114" data-name="Trazado 1272114" d="M58.279,33.8c1.7,4.421,4.244,8.04,9.552,6.968,2.68-.541,5.464-1.8,8.173-2.248.677.144.667.68.561,1.279l-.442.339c-3.56.883-7.109,2.525-10.8,2.582L66.55,47.34l-1.383,3.59c.054.27,1.861.562,2.232.746,1.347.666.82,5.127,2.926,5.681C72.1,57.824,75.5,56,77.491,55.75c.956-.118,1.1-.065,1.454.813a26.78,26.78,0,0,1,1.091,4.225.975.975,0,0,1-.863.7c-1.11,0-1.355-3.059-1.645-3.9-3.623.6-8.3,3.779-10.179-1.167-.379-1-.469-2.169-.924-3.146l-3.1-1.045a1.039,1.039,0,0,1-.133-.908c.212-1.112,1.475-2.913,1.51-3.99a33.03,33.03,0,0,0-1.248-4.7c-.288-.647-.7-.5-1.214-.821a14.375,14.375,0,0,1-5.919-8.48c-.145-.613-.535-1.751.349-2.008.785-.228,1.035.625,1.695.747,1.712.316,3.712-.748,5.184-1.531,2.041-1.085,3.993-2.541,5.992-3.713a.867.867,0,0,1,.869,1.5c-3.828,2.059-7.516,5.7-12.131,5.478" transform="translate(-47.328 -22.569)" fill="#fff"/>
          <path id="Trazado_1272115" data-name="Trazado 1272115" d="M158.455,240.494c1.842,1.836-.174,4.669-.256,6.83l1.015-1.252a2.491,2.491,0,0,1,3.754,1.1,18.684,18.684,0,0,1-.067,6.97c-.291.891-2.225,3.785-3.026,2.063-.384-.825.9-1.485,1.27-2.253a19.587,19.587,0,0,0,.335-5.918,1.024,1.024,0,0,0-.579-.685c-1.775-.466-.9,3.539-1.168,4.407a.894.894,0,0,1-1.388.311c-.617-.615-1.261-3.473-1.859-4.359-.241-1.536,1.434-4.678.9-5.742a1.3,1.3,0,0,0-.357-.428l-2.264,5.884c.178,2.561,1.468,5.629,1.567,8.117a1.759,1.759,0,0,1-.084.866c-1.11.763-1.444.049-1.7-.964-.682-2.7-.938-5.624-1.5-8.335l2.716-7.147c.671-.738,2.11-.046,2.695.537" transform="translate(-129.092 -202.132)" fill="#fff"/>
          <path id="Trazado_1272116" data-name="Trazado 1272116" d="M234.965,270.095c-.692.673-1.5.47-1.684-.508a50.509,50.509,0,0,1-.044-7.793c.613-7.739,11.529-7.913,12.064.311.159,2.436-.124,5.053-.018,7.51a.885.885,0,0,1-1.567.491c-.391-.547-.01-7.158-.189-8.575a4.279,4.279,0,0,0-7.621-2.231,5.4,5.4,0,0,0-.943,2.031Z" transform="translate(-196.625 -215.903)" fill="#fff"/>
          <path id="Trazado_1272117" data-name="Trazado 1272117" d="M33.677,239.266a.959.959,0,0,1-.514,1.524c-2.523.227-5.519-.289-7.982,0-2.582.3-1.5,4.453.974,3.164,1.287-.671.567-2.486,1.838-2.386,1.645.13.446,3.342-1.277,4.044-4.88,1.99-7.012-6.126-1.382-6.547a59.182,59.182,0,0,1,7.526,0c.243.02.644.027.817.2" transform="translate(-18.538 -201.549)" fill="#fff"/>
          <path id="Trazado_1272118" data-name="Trazado 1272118" d="M24.4,170.323a3.711,3.711,0,0,1-2.545-2.62c-.769-4.522,5.409-5.565,6.545-2.007.27.846.307,2.681-1.068,2.01-.67-.327-.2-2.143-1.689-2.383a1.678,1.678,0,1,0-.621,3.281c2.293.273,5.862-.43,7.952.03.9.2.959,1.11.347,1.688Z" transform="translate(-18.377 -137.964)" fill="#fff"/>
          <path id="Trazado_1272119" data-name="Trazado 1272119" d="M201.326,112.928a1.287,1.287,0,0,1-.051-1.267c.128-.2.793-.3,1.1-.5,2.211-1.44.638-6.27-1.292-5.676-1.174.361.068,2.519-1.043,2.882-1.318.43-1.349-1.355-1.265-2.214a2.547,2.547,0,0,1,1.684-2.228c3.9-1.426,6.168,5.4,3.651,8.033-.487.51-2.183,1.579-2.786.973" transform="translate(-167.643 -87.493)" fill="#fff"/>
          <path id="Trazado_1272120" data-name="Trazado 1272120" d="M66.119,217.805l7.162-.031a.875.875,0,0,1,0,1.714c-2.149-.224-4.964.32-7.029-.007a1.063,1.063,0,0,1-.556-.226.864.864,0,0,1,.424-1.451" transform="translate(-55.212 -183.69)" fill="#fff"/>
          <path id="Trazado_1272121" data-name="Trazado 1272121" d="M158.072,17.342c-.694-.69.469-2.153,1.286-1.208.849.981-.558,1.931-1.286,1.208" transform="translate(-133.153 -13.349)" fill="#fff"/>
          <path id="Trazado_1272122" data-name="Trazado 1272122" d="M196.954,185.012c.965-.024,1.2,1.53.276,1.682a.864.864,0,1,1-.276-1.682" transform="translate(-165.394 -156.055)" fill="#fff"/>
          <path id="Trazado_1272123" data-name="Trazado 1272123" d="M137.558,168.856c.672.674-.2,2.158-1.208,1.286-.943-.815.516-1.98,1.208-1.286" transform="translate(-114.75 -142.25)" fill="#fff"/>
          <path id="Trazado_1272124" data-name="Trazado 1272124" d="M158.795,168.669a.88.88,0,0,1,.56,1.668c-1.164.339-1.475-1.39-.56-1.668" transform="translate(-133.492 -142.232)" fill="#fff"/>
          <path id="Trazado_1272125" data-name="Trazado 1272125" d="M213.235,201.606c1.574-.473,1.579,1.863.316,1.665-.872-.136-1.037-1.449-.316-1.665" transform="translate(-179.48 -170)" fill="#fff"/>
          <path id="Trazado_1272126" data-name="Trazado 1272126" d="M.579,217.733c1.048-.28,1.613,1.361.556,1.67a.88.88,0,0,1-.556-1.67" transform="translate(0 -183.629)" fill="#fff"/>
          <path id="Trazado_1272127" data-name="Trazado 1272127" d="M22.011,219.26c-.656-.657.256-2.107,1.208-1.286.917.791-.451,2.044-1.208,1.286" transform="translate(-18.378 -183.652)" fill="#fff"/>
          <path id="Trazado_1272128" data-name="Trazado 1272128" d="M44.269,217.819a.858.858,0,1,1,.392,1.671.858.858,0,0,1-.392-1.671" transform="translate(-36.8 -183.712)" fill="#fff"/>
          <path id="Trazado_1272129" data-name="Trazado 1272129" d="M109.558,239.7a.861.861,0,1,1,.4,1.669.861.861,0,0,1-.4-1.669" transform="translate(-91.92 -202.147)" fill="#fff"/>
          <path id="Trazado_1272130" data-name="Trazado 1272130" d="M180.4,174.484c1.533-.532,1.842,1.716.283,1.552a.839.839,0,0,1-.283-1.552" transform="translate(-151.82 -147.106)" fill="#fff"/>
          <path id="Trazado_1272131" data-name="Trazado 1272131" d="M224.276,217.816a.852.852,0,1,1-.122,1.631.868.868,0,0,1,.122-1.631" transform="translate(-188.635 -183.71)" fill="#fff"/>
        </g>
      </g>
    </g>
  </g>
</svg>
