<svg xmlns="http://www.w3.org/2000/svg" xmlns:xlink="http://www.w3.org/1999/xlink" width="396.5" height="194.42" viewBox="0 0 396.5 194.42">
  <defs>
    <clipPath id="clip-path">
      <rect id="Rectángulo_460496" data-name="Rectángulo 460496" width="291.57" height="189.523" fill="none"/>
    </clipPath>
    <clipPath id="clip-path-2">
      <rect id="Rectángulo_460495" data-name="Rectángulo 460495" width="291.57" height="189.522" fill="none"/>
    </clipPath>
    <clipPath id="clip-path-3">
      <rect id="Rectángulo_460492" data-name="Rectángulo 460492" width="8.132" height="9.767" fill="none"/>
    </clipPath>
  </defs>
  <g id="Grupo_1210875" data-name="Grupo 1210875" transform="translate(-1024.378 -3130.967)">
    <g id="Grupo_1207203" data-name="Grupo 1207203" transform="translate(1024.378 3130.967)">
      <path id="Trazado_1267359" data-name="Trazado 1267359" d="M6.378,6.036h396V150.618h-396Z" transform="translate(-6.378 43.766)" fill="#fee7ec"/>
      <ellipse id="Elipse_13725" data-name="Elipse 13725" cx="52.5" cy="6.5" rx="52.5" ry="6.5" transform="translate(255.727 166.384)" fill="#ffcce2"/>
      <ellipse id="Elipse_13726" data-name="Elipse 13726" cx="90.5" cy="11" rx="90.5" ry="11" transform="translate(70.727 172.384)" fill="#ffcce2"/>
      <g id="Grupo_1210900" data-name="Grupo 1210900" transform="translate(58.711)">
        <g id="Grupo_1210899" data-name="Grupo 1210899" transform="translate(0.001)" clip-path="url(#clip-path)">
          <g id="Grupo_1210898" data-name="Grupo 1210898" transform="translate(0 0.001)">
            <g id="Grupo_1210897" data-name="Grupo 1210897" clip-path="url(#clip-path-2)">
              <path id="Trazado_1272159" data-name="Trazado 1272159" d="M125.158,94.81c.007-.44.013-.881.026-1.319q.078-2.486.153-4.967c.03-.933.039-2.1,1.056-2.425a3.618,3.618,0,0,1,1.2-.1l1.847.056a2.563,2.563,0,0,1,2.039.689,2.781,2.781,0,0,1,.4,1.676q.064,2.722.127,5.445a9,9,0,0,0,.221,2.2,3.913,3.913,0,0,1,.216,2.342,1.563,1.563,0,0,1-1.271.814,21.661,21.661,0,0,1-3.971.543,4.035,4.035,0,0,1-1.951-.351c-.572-.292-.574-.7-.408-1.373a14.7,14.7,0,0,0,.321-3.233" transform="translate(-71.183 79.119)" fill="#ffa87d"/>
              <path id="Trazado_1272160" data-name="Trazado 1272160" d="M124.159,97.519c.02.027.041.05.063.075l18.686-.284c.015-.138.028-.276.037-.415a8.846,8.846,0,0,0,.011-.939,7.314,7.314,0,0,0-.941-3.385.932.932,0,0,0-.555-.513,1.155,1.155,0,0,0-.788.284,4.043,4.043,0,0,1-3.3.516,4.411,4.411,0,0,1-1.74-1.235,3.263,3.263,0,0,0-.681-.647,1.226,1.226,0,0,0-.958-.115,11.105,11.105,0,0,0-2.55,1.528,21,21,0,0,1-2.927,1.43,27.116,27.116,0,0,0-2.541,1.046,5.154,5.154,0,0,0-1.762,1.375,1.053,1.053,0,0,0-.05,1.277" transform="translate(-80.158 83.556)" fill="#dd475d"/>
              <path id="Trazado_1272161" data-name="Trazado 1272161" d="M128.839,94.281c.085-.211.356-.282.546-.365a22.742,22.742,0,0,0,3.085-1.632q.839-.527,1.626-1.125a.342.342,0,0,1,.3-.048c.059.019.166.1.081.163a23.618,23.618,0,0,1-3.154,2.022q-.811.432-1.653.8a.989.989,0,0,0-.376.188c-.1.119.006.284.07.392.109.179.712.816.565,1.045-.227.357-.624-.315-.686-.455a3.258,3.258,0,0,0-.2-.371c-.111-.171-.288-.394-.2-.613" transform="translate(-80.654 83.814)" fill="#993741"/>
              <path id="Trazado_1272162" data-name="Trazado 1272162" d="M129.4,91.213a.427.427,0,0,1,.17-.015.244.244,0,0,1,.131.054c.238.244.474.49.71.733.068.069,0,.142-.076.165a.367.367,0,0,1-.17.015.241.241,0,0,1-.133-.054l-.709-.732c-.068-.071,0-.142.076-.167" transform="translate(-77.463 83.904)" fill="#395795"/>
              <path id="Trazado_1272163" data-name="Trazado 1272163" d="M129.965,91.533a.333.333,0,0,1,.3.038,6.82,6.82,0,0,1,.635.684c.024.029.041.056.024.092a.176.176,0,0,1-.1.075.382.382,0,0,1-.168.013.221.221,0,0,1-.133-.052,6.619,6.619,0,0,0-.635-.684c-.072-.069.005-.144.077-.167" transform="translate(-78.999 84.199)" fill="#395795"/>
              <path id="Trazado_1272164" data-name="Trazado 1272164" d="M130.509,91.9a.162.162,0,0,1,.1-.073.365.365,0,0,1,.17-.015.225.225,0,0,1,.131.054l.509.637c.022.029.039.056.022.092a.162.162,0,0,1-.1.073.362.362,0,0,1-.17.015.225.225,0,0,1-.131-.054c-.17-.211-.34-.424-.507-.637-.024-.029-.042-.054-.024-.092" transform="translate(-80.702 84.465)" fill="#395795"/>
              <path id="Trazado_1272165" data-name="Trazado 1272165" d="M131.212,92.086a.338.338,0,0,1,.3.038,3.535,3.535,0,0,1,.644.774.076.076,0,0,1-.02.092.258.258,0,0,1-.131.06.281.281,0,0,1-.271-.081c-.041-.067-.085-.134-.131-.2-.022-.033-.046-.063-.07-.094l-.013-.015-.015-.019-.037-.046a3.385,3.385,0,0,0-.334-.344c-.076-.065.006-.146.076-.167" transform="translate(-82.539 84.708)" fill="#395795"/>
              <path id="Trazado_1272166" data-name="Trazado 1272166" d="M124.529,94.934h18.02a.614.614,0,0,0,0-1.227h-18.02a.614.614,0,0,0,0,1.227" transform="translate(-80.286 86.216)" fill="#fff"/>
              <path id="Trazado_1272167" data-name="Trazado 1272167" d="M142.174,83.1q-5.542.046-11.082-.2c-1.759-.079-3.757-.309-4.8-1.789-1.271-1.811-.921-4.973-1.159-7.116-.293-2.611-.755-5.178-1.259-7.757a29.175,29.175,0,0,0-1.36-5.153c-1.4-3.539-4.06-6.323-5.606-9.777a76.7,76.7,0,0,0-5.94-10.593,14.6,14.6,0,0,0-2.477-3.08,16.7,16.7,0,0,1-5.226-7.976,7.792,7.792,0,0,1,.6-6.242,10.861,10.861,0,0,1,2.75-2.657,70.558,70.558,0,0,1,6.867-5.046,31.675,31.675,0,0,1,7.319-3.623,37.722,37.722,0,0,1,8.219-1.285c2-.1,4.538-.676,6.426.157a14.346,14.346,0,0,1,3.178,1.757c1.565,1.237,2.142,3.13,2.835,4.965a53.362,53.362,0,0,1,2.037,6.772c.664,2.851.969,5.8,1.925,8.565,1.253,3.621,3.728,6.8,5.562,10.128,2.011,3.646,3.837,7.4,5.532,11.215,3.4,7.657,6.287,15.549,9.164,23.433.642,1.759.2,2.22-1.187,2.6-1.412.384-3,.732-4.493,1.142a48.832,48.832,0,0,1-11.1,1.4q-3.363.135-6.728.163" transform="translate(-64.28 9.672)" fill="#9fc0f8"/>
              <path id="Trazado_1272168" data-name="Trazado 1272168" d="M133.436,26.246a13.97,13.97,0,0,1-5.446-5.733c-.463-.795-1.869-2.619-1.868-3.539s1.757-1.452,2.414-1.836a31.633,31.633,0,0,1,7.317-3.625c.609-.167,1.548-.707,2.078-.094.5.58.041,1.747-.236,2.3a64.039,64.039,0,0,0-4.259,12.528" transform="translate(-79.329 10.244)" fill="#ffa87d"/>
              <path id="Trazado_1272169" data-name="Trazado 1272169" d="M131.453,26.564a1.843,1.843,0,0,1,1.115-.666,4.544,4.544,0,0,1,3.744,1.041,11.988,11.988,0,0,1,2.574,3.16,33.522,33.522,0,0,1,3.689,7.926c.41,1.354.644,2.736,1.129,4.046a7.57,7.57,0,0,1,.1,4.516,16.191,16.191,0,0,1-2.233,4.616,44.068,44.068,0,0,1-4.464,5.76,9.59,9.59,0,0,1-3.562,2.727,7.243,7.243,0,0,1-2.718.367,5.244,5.244,0,0,1-2.246-.49,2.662,2.662,0,0,1-1.432-1.786c-.221-1.144.508-2.421.777-3.516a10.879,10.879,0,0,1,1.617-3.243l3.493-5.351a2.714,2.714,0,0,0,.393-.774,2.64,2.64,0,0,0-.013-1.075c-.69-4.4-2.528-8.581-2.873-13.03a14.7,14.7,0,0,1,.485-3.118,2.4,2.4,0,0,1,.421-1.11" transform="translate(-87.101 23.747)" fill="#ffa87d"/>
              <path id="Trazado_1272170" data-name="Trazado 1272170" d="M143.738,39.666a.814.814,0,0,1,0,.476c-.221.586-1.818.9-2.333,1.133-2.427,1.081-5.577,2.438-8.238,2.231q-2-7.428-3.469-15a43.354,43.354,0,0,1-.825-5.726c-.068-1.171-.094-3.316.555-4.351a1.489,1.489,0,0,1,1.689-.513c1.98.593,3.133,3.619,3.992,5.351,2.3,4.65,4.386,9.433,7.071,13.867a11.33,11.33,0,0,1,1.561,2.527" transform="translate(-89.952 16.42)" fill="#9fc0f8"/>
              <path id="Trazado_1272171" data-name="Trazado 1272171" d="M110.509,34.488,109.3,33.474q-1.891-1.587-3.783-3.176a9.687,9.687,0,0,1-3.124-3.688,7,7,0,0,1,.882-5.994,6.864,6.864,0,0,1,1.482-1.768c2.406-1.957,5.224-1.1,7.413.735a94.3,94.3,0,0,1,9.079,9.034,7.1,7.1,0,0,1,2.235,4.883,84.7,84.7,0,0,1-2.8,23.511,19.4,19.4,0,0,1-1.9,5.213c-.76,1.29-1.962,2.5-3.51,2.135a4.151,4.151,0,0,1-3.18-3.015,5.057,5.057,0,0,1,.031-1.356q.678-6.057,1.36-12.11.341-3.027.679-6.054c.188-1.669.906-3.5-.517-4.7l-3.145-2.638" transform="translate(-20.274 16.315)" fill="#ffa87d"/>
              <path id="Trazado_1272172" data-name="Trazado 1272172" d="M122.4,33.841c-4.346-2.826-8.758-5.576-12.093-9.579a11.413,11.413,0,0,1-2.973-6.432,13.5,13.5,0,0,1,.615-4.226c.124-.463.572-.772.91-1.079a5.751,5.751,0,0,1,4.176-1.661,8.49,8.49,0,0,1,2.015.5,41.8,41.8,0,0,1,4.1,1.53,42.882,42.882,0,0,1,6.234,3.736q3.958,2.69,7.915,5.376a18.45,18.45,0,0,1,2.827,2.2c-.441,1.306-2.174,2.16-3.139,3a27.788,27.788,0,0,0-4.309,5.516,39.093,39.093,0,0,1-2.539,3.635c-1.223-.866-2.478-1.694-3.741-2.513" transform="translate(-42.614 9.983)" fill="#9fc0f8"/>
              <path id="Trazado_1272173" data-name="Trazado 1272173" d="M108.712,133.717a3.323,3.323,0,0,1-.015-1.152l.033-1.7q.036-1.7.079-3.395.083-3.4.2-6.791.224-6.791.555-13.575t.777-13.563q.163-2.509.343-5.015a63.233,63.233,0,0,1,.825-7.352c.275-1.452.531-3.832,1.345-5.121l0-.075c2.377-7.325,6.477-14.235,9.747-21.1,1.343-2.821,2.58-7.492,5.091-9.284a14.451,14.451,0,0,1,8.834-2.7c4.041.1,7.933,1.6,11.576,3.42a6.8,6.8,0,0,1,2.4,1.7c.917,1.152.65,2.807.5,4.192a24.742,24.742,0,0,1-2.912,8.786,18.738,18.738,0,0,1-2.757,4.115c-.843.908-1.818,1.67-2.739,2.492-3.27,2.92-5.855,6.569-8.8,9.838l-.024.025a44.62,44.62,0,0,0-3.152,3.212,12.99,12.99,0,0,0-1.659,3.99,43.409,43.409,0,0,0-1.253,8.894q-.476,6.788-.954,13.577t-.954,13.579q-.238,3.4-.476,6.789l-.238,3.395c-.041.566-.081,1.131-.12,1.7-.022.3.065,1.212-.124,1.4a.337.337,0,0,1-.2.077q-.634.061-1.268.058c-.694,0-1.384-.058-2.076-.1-4.014-.236-8.038.027-12.058-.061a.822.822,0,0,1-.373-.067.351.351,0,0,1-.157-.186" transform="translate(-60.084 39.459)" fill="#9fc0f8"/>
              <path id="Trazado_1272174" data-name="Trazado 1272174" d="M80.575,78.3c-.408-.117-.818-.23-1.224-.351l-4.588-1.381c-.862-.259-1.949-.559-2-1.661a4.064,4.064,0,0,1,.2-1.231q.252-.925.507-1.849a2.751,2.751,0,0,1,1.144-1.887,2.522,2.522,0,0,1,1.659.013l5.1,1.215a8.158,8.158,0,0,0,2.1.319,3.5,3.5,0,0,1,2.235.359,1.67,1.67,0,0,1,.445,1.482,24.179,24.179,0,0,1-.474,4.14,4.408,4.408,0,0,1-.806,1.88c-.413.5-.792.407-1.38.075A13.138,13.138,0,0,0,80.575,78.3" transform="translate(71.121 64.218)" fill="#ffa87d"/>
              <path id="Trazado_1272175" data-name="Trazado 1272175" d="M74.9,89.728a.888.888,0,0,0,.085-.044l4.346-18.913c-.125-.05-.251-.1-.378-.138a8.05,8.05,0,0,0-.871-.244,6.566,6.566,0,0,0-3.386.113.925.925,0,0,0-.615.434,1.293,1.293,0,0,0,.07.864,3.939,3.939,0,0,1-1.912,4.91,3.218,3.218,0,0,0-.77.526,1.35,1.35,0,0,0-.345.937,12.11,12.11,0,0,0,.8,2.949,23.166,23.166,0,0,1,.611,3.3c.105.943.153,1.9.347,2.819a5.451,5.451,0,0,0,.847,2.118.96.96,0,0,0,1.176.365" transform="translate(80.995 64.607)" fill="#dd475d"/>
              <path id="Trazado_1272176" data-name="Trazado 1272176" d="M75.2,80.9c-.175-.136-.175-.428-.2-.641a24.806,24.806,0,0,0-.76-3.514q-.282-.976-.646-1.916a.378.378,0,0,1,.03-.315c.033-.056.133-.144.172-.04a25.326,25.326,0,0,1,1.105,3.677c.137.616.247,1.238.336,1.864a1.1,1.1,0,0,0,.083.426c.087.129.266.065.382.025.194-.065.936-.517,1.113-.311.277.317-.448.553-.592.58a2.847,2.847,0,0,0-.4.113c-.186.069-.437.194-.62.052" transform="translate(78.953 68.478)" fill="#993741"/>
              <path id="Trazado_1272177" data-name="Trazado 1272177" d="M74.872,75.853a.428.428,0,0,1,.028-.175.246.246,0,0,1,.083-.119l.858-.536c.081-.052.131.036.135.117a.429.429,0,0,1-.028.175.262.262,0,0,1-.081.121l-.858.534c-.083.052-.133-.036-.137-.117" transform="translate(77.427 69.012)" fill="#395795"/>
              <path id="Trazado_1272178" data-name="Trazado 1272178" d="M74.727,76.411a.356.356,0,0,1,.111-.294,6.559,6.559,0,0,1,.794-.472c.031-.015.061-.027.09,0a.181.181,0,0,1,.044.119.425.425,0,0,1-.028.173.225.225,0,0,1-.083.121,6.542,6.542,0,0,0-.792.472c-.081.056-.133-.04-.137-.119" transform="translate(77.904 69.583)" fill="#395795"/>
              <path id="Trazado_1272179" data-name="Trazado 1272179" d="M74.671,77.1a.181.181,0,0,1-.044-.119.434.434,0,0,1,.028-.175c.018-.04.044-.1.083-.119.24-.119.48-.238.72-.355.031-.015.061-.027.092,0a.178.178,0,0,1,.042.117.386.386,0,0,1-.028.177.235.235,0,0,1-.081.119l-.72.355c-.033.015-.061.027-.092,0" transform="translate(78.263 70.217)" fill="#395795"/>
              <path id="Trazado_1272180" data-name="Trazado 1272180" d="M74.466,77.739a.364.364,0,0,1,.113-.294,3.321,3.321,0,0,1,.88-.461c.031-.012.065.015.079.044a.284.284,0,0,1,.024.146c-.011.092-.05.221-.142.253-.074.025-.146.054-.216.083-.037.015-.074.033-.107.048l-.018.01-.018.01-.054.027a3.567,3.567,0,0,0-.4.253c-.079.058-.133-.044-.138-.119" transform="translate(78.59 70.828)" fill="#395795"/>
              <path id="Trazado_1272181" data-name="Trazado 1272181" d="M72.195,89.336,76.64,71.165a.617.617,0,0,0-.426-.745.588.588,0,0,0-.716.444l-4.446,18.17a.618.618,0,0,0,.426.747.589.589,0,0,0,.716-.444" transform="translate(83.827 64.773)" fill="#fff"/>
              <path id="Trazado_1272182" data-name="Trazado 1272182" d="M146.279,114.09a2.955,2.955,0,0,1-1.078-.271l-1.572-.451q-1.575-.455-3.145-.916-3.142-.925-6.276-1.874-6.27-1.9-12.506-3.909t-12.442-4.128c-6.245-2.133-11.093-4.666-15.333-10.146-3.473-4.485-5.959-9.7-8.413-14.859q-2.342-4.922-4.685-9.848c-2.8-5.883-5.791-12.229-5.748-18.949.033-5.192,6.717-9.318,11.38-8.4a12.76,12.76,0,0,1,5.87,3.4,36.323,36.323,0,0,1,9.459,13.932c1.288,3.387,2.074,6.953,3.1,10.434a78.27,78.27,0,0,0,4.346,11.4,10.786,10.786,0,0,0,2.412,3.621,11.214,11.214,0,0,0,4.2,1.966q7.582,2.362,14.973,5.324c2.464.987,4.9,2.037,7.33,3.1,1.727.758,4.589,2.285,6.435,2.285l3.1,1.077,1.552.54c.277.1,1.144.232,1.277.47a.393.393,0,0,1,.022.217c-.068.434-.155.866-.26,1.292-.172.7-.395,1.381-.6,2.068-1.211,3.988-1.96,8.112-3.032,12.144a.933.933,0,0,1-.155.357.33.33,0,0,1-.212.113" transform="translate(2.473 36.995)" fill="#9fc0f8"/>
              <path id="Trazado_1272183" data-name="Trazado 1272183" d="M130.847,23.106q2.491,5.279,5.077,10.507.728,1.475,1.465,2.943c.092.186-.435.248-.52.077q-2.613-5.216-5.13-10.48-.709-1.483-1.412-2.97c-.089-.192.439-.25.52-.077" transform="translate(-86.312 21.164)" fill="#395795"/>
              <path id="Trazado_1272184" data-name="Trazado 1272184" d="M113.157,18.828q5.268,3.6,10.413,7.4,1.439,1.063,2.871,2.143c.1.077-.026.171-.1.2a.414.414,0,0,1-.369-.052q-5.055-3.81-10.236-7.435-1.478-1.034-2.966-2.051c-.255-.175.233-.3.382-.2" transform="translate(-42.891 17.289)" fill="#395795"/>
              <path id="Trazado_1272185" data-name="Trazado 1272185" d="M113.042,52.41q1.082,2.339,2.224,4.65c.092.188-.436.248-.519.077q-1.14-2.31-2.226-4.65c-.089-.192.441-.25.52-.077" transform="translate(-31.332 48.126)" fill="#395795"/>
              <path id="Trazado_1272186" data-name="Trazado 1272186" d="M96.142,62.683A14.286,14.286,0,0,1,97.5,67.869c.013.192-.524.205-.539,0a14.027,14.027,0,0,0-1.343-5.109c-.09-.19.437-.248.52-.077" transform="translate(17.628 57.578)" fill="#395795"/>
              <path id="Trazado_1272187" data-name="Trazado 1272187" d="M103.089,48.617c.042-.108.245-.111.332-.1a109.429,109.429,0,0,0,14.259,1.073q3.576.035,7.149-.165,1.8-.1,3.591-.261a25.735,25.735,0,0,0,3.5-.5c2.475-.572,4.824-1.619,7.324-2.081.089-.017.288-.008.33.1s-.111.161-.188.175c-2.266.42-4.409,1.334-6.636,1.916a37.472,37.472,0,0,1-7.057.889,109.412,109.412,0,0,1-14.37-.029q-4.039-.271-8.051-.837c-.079-.012-.233-.065-.188-.177" transform="translate(-38.243 42.85)" fill="#993741"/>
              <path id="Trazado_1272188" data-name="Trazado 1272188" d="M110.637,37.656a.414.414,0,0,1,.369.052q4.562,3.211,9.282,6.173t9.557,5.653q2.729,1.518,5.5,2.953c.1.054.09.148,0,.2a.433.433,0,0,1-.38,0q-4.955-2.566-9.777-5.4-4.8-2.82-9.459-5.9-2.619-1.728-5.187-3.539c-.107-.075.03-.173.1-.2" transform="translate(-47.763 34.625)" fill="#993741"/>
              <path id="Trazado_1272189" data-name="Trazado 1272189" d="M112.351,37.953a.421.421,0,0,1,.38,0q3.114,1.861,6.367,3.445c.1.052.089.148,0,.2a.437.437,0,0,1-.382,0q-3.25-1.584-6.365-3.447c-.1-.058-.094-.144,0-.2" transform="translate(-34.799 34.877)" fill="#993741"/>
              <path id="Trazado_1272190" data-name="Trazado 1272190" d="M123.045,27.885a30.184,30.184,0,0,0,5.073,8.446,54.826,54.826,0,0,0,5.857,6.2l.607-.726a53.6,53.6,0,0,1-5.758-6.092,29.308,29.308,0,0,1-4.918-8.174c-.716-1.924-2.726-8.517,1.408-12.623.343-.342.727-.662,1.1-.972a14.326,14.326,0,0,1,2.506-1.8,7.175,7.175,0,0,1,9.017,2.538,27.013,27.013,0,0,1,2.528,5.532c.251.67.509,1.348.76,2.006.5,1.323,1.02,2.673,1.48,4.042.1.309.2.62.3.929a1.771,1.771,0,0,1,.9-.238c-.1-.317-.2-.634-.3-.95-.471-1.4-1-2.786-1.513-4.138-.251-.655-.509-1.331-.755-2a27.989,27.989,0,0,0-2.628-5.729,8.107,8.107,0,0,0-10.188-2.857,14.8,14.8,0,0,0-2.676,1.912c-.388.321-.788.655-1.161,1.023-3.069,3.049-3.68,8.156-1.631,13.665" transform="translate(-77.191 9.657)" fill="#231c20"/>
              <path id="Trazado_1272191" data-name="Trazado 1272191" d="M124.833,28.868a2.62,2.62,0,1,0,2.617-2.723,2.673,2.673,0,0,0-2.617,2.723" transform="translate(-68.863 24.054)" fill="#fff"/>
              <path id="Trazado_1272192" data-name="Trazado 1272192" d="M122.736,17.74c.192.532.382,1.064.563,1.6.1.315.207.632.3.949a1.754,1.754,0,0,0-.9.24c-.1-.311-.2-.622-.3-.931-.179-.53-.367-1.058-.557-1.582.293-.094.589-.192.886-.278" transform="translate(-56.893 16.321)" fill="#fff"/>
              <path id="Trazado_1272193" data-name="Trazado 1272193" d="M115.878,27.293a14.305,14.305,0,0,0,1.27,2.648,22.95,22.95,0,0,0,5.662,6.409l.548-.772a22.055,22.055,0,0,1-5.424-6.142,13.4,13.4,0,0,1-1.187-2.469,9.851,9.851,0,0,1-.428-4.652,4.33,4.33,0,0,1,.729-2.006,2.093,2.093,0,0,1,.591-.538,1.778,1.778,0,0,1,.9-.24,7.11,7.11,0,0,1,3.445,1.521,19.32,19.32,0,0,1,3.311,2.8,20.044,20.044,0,0,1,4.482,7.484l.873-.311a21.044,21.044,0,0,0-4.695-7.847,20.364,20.364,0,0,0-3.471-2.934c-1.048-.7-2.72-1.816-4.25-1.661a2.47,2.47,0,0,0-.891.257,2.944,2.944,0,0,0-1.015.872,5.225,5.225,0,0,0-.917,2.456,10.792,10.792,0,0,0,.471,5.127" transform="translate(-51.825 17.082)" fill="#fff"/>
              <path id="Trazado_1272194" data-name="Trazado 1272194" d="M115.44,26.672c.517.812,1.279,1.233,1.705.939s.352-1.189-.164-2-1.279-1.233-1.705-.941-.352,1.189.164,2" transform="translate(-38.066 22.613)" fill="#fff"/>
              <path id="Trazado_1272195" data-name="Trazado 1272195" d="M119,28.428c.293.924.923,1.54,1.408,1.373s.64-1.05.347-1.974-.923-1.54-1.408-1.373-.64,1.05-.347,1.974" transform="translate(-48.665 24.314)" fill="#fff"/>
              <path id="Trazado_1272196" data-name="Trazado 1272196" d="M127.168,30.645a2.085,2.085,0,1,0-2-2.083,2.047,2.047,0,0,0,2,2.083m0-3.846a1.764,1.764,0,1,1-1.694,1.763,1.732,1.732,0,0,1,1.694-1.763" transform="translate(-68.579 24.361)" fill="#395795"/>
              <path id="Trazado_1272197" data-name="Trazado 1272197" d="M126.861,16.889a9.975,9.975,0,0,0,.908,3.516c.02.04.039.081.061.121a17.754,17.754,0,0,0,2.823,3.877,2.759,2.759,0,0,0,3.431.872,6.181,6.181,0,0,0,2.242-2.2,21.139,21.139,0,0,0,2.4-4.723,2.989,2.989,0,0,0,.242-1.334,3.126,3.126,0,0,0-.585-1.3,9.83,9.83,0,0,1-1.218-1.985c-.336-.975-.244-2.037-.591-3.016-.45-1.277-.71-2.613-1.714-3.589a3.767,3.767,0,0,0-1.757-.874,4.343,4.343,0,0,0-4.052.806,6.608,6.608,0,0,0-1.421,2.678,16.026,16.026,0,0,0-.814,4.727c0,.125-.006.252-.007.378a17.924,17.924,0,0,0,.05,2.049" transform="translate(-81.411 5.595)" fill="#ffa87d"/>
              <path id="Trazado_1272198" data-name="Trazado 1272198" d="M131.556,12.968a9.976,9.976,0,0,0,.908,3.516c.02.04.039.081.061.121a6.566,6.566,0,0,0,2.076-2.5,3.723,3.723,0,0,0,.262-2.619,1.523,1.523,0,0,0-1.672-1.129c-.474.05-1.107-.125-1.546.1a.636.636,0,0,0-.083.05.279.279,0,0,0-.048.035c0,.125-.006.252-.007.378-.011.682.007,1.367.05,2.049" transform="translate(-86.106 9.515)" fill="#e06f63"/>
              <path id="Trazado_1272199" data-name="Trazado 1272199" d="M130.023,8.123a8.918,8.918,0,0,0,.057,2.308c.076.49.282.949.34,1.44a2.5,2.5,0,0,1-.236,1.323c-.281.691-.622,1.352-.95,2.02-.273.555-.688,1.294-.325,1.912a1.572,1.572,0,0,0,.441.444c.48.355,1.257.488,1.548,1.029a9.605,9.605,0,0,1,.681,2.078,8.527,8.527,0,0,0,.758,1.935,2.484,2.484,0,0,0,2.966.877,7.721,7.721,0,0,0,5.139-4.533,14.539,14.539,0,0,0,.727-2.26c.172-.7.245-1.238.882-1.636a5.89,5.89,0,0,0,2.746-4.775,8.149,8.149,0,0,0-.792-3.984,6.5,6.5,0,0,0-1.539-2.129,7.887,7.887,0,0,0-1.975-1.2,19.288,19.288,0,0,0-2.96-1.075,5.353,5.353,0,0,0-1.869-.25,5.748,5.748,0,0,0-1.764.543,5.866,5.866,0,0,0-3,2.648,7.275,7.275,0,0,0-.456,1.229,11.622,11.622,0,0,0-.419,2.058" transform="translate(-90.866 1.501)" fill="#ffa87d"/>
              <path id="Trazado_1272200" data-name="Trazado 1272200" d="M135.589.011c-1.521.092-3.019-.025-4.532.04a11.588,11.588,0,0,0-3.322.641,4.764,4.764,0,0,0-2.262,1.446,2.38,2.38,0,0,0-.286,2.606,3.955,3.955,0,0,0,1.807,1.273,12.217,12.217,0,0,1,1.965,1.2c.9.674.646,1.217.98,2.141a8.952,8.952,0,0,0,1.609,2.661,17.639,17.639,0,0,0,3.335,3.2c1.724,1.208,2.966,3.061,4.72,4.218a1.473,1.473,0,0,0,.969.326c.869-.121,1.144-2.095,1.331-2.794.221-.824.286-1.753.583-2.546a10.26,10.26,0,0,1,1.006-1.613A3.613,3.613,0,0,0,144,11.067a1.476,1.476,0,0,1,.153-.831,1.582,1.582,0,0,1,.781-.426,1.7,1.7,0,0,0,1.094-1.59,1.937,1.937,0,0,0-.692-1.279,8.53,8.53,0,0,0-1.218-.816.775.775,0,0,1-.317-.3,1.212,1.212,0,0,1-.018-.62,2.209,2.209,0,0,0-1.408-2.031,10.28,10.28,0,0,0-2.512-.538,3.406,3.406,0,0,1-2.25-1.158c-.325-.445-.5-1.045-.972-1.317a1.864,1.864,0,0,0-1.056-.154" transform="translate(-84.982 0)" fill="#231c20"/>
              <path id="Trazado_1272201" data-name="Trazado 1272201" d="M134.778,6.584a.61.61,0,0,1,.273-.5,2.182,2.182,0,0,1,1.36-.371,2.413,2.413,0,0,1,1.307.244c.2.123.2.326.02.39a3.913,3.913,0,0,1-.725.056,7.722,7.722,0,0,0-1.434.317c-.164.052-.572.221-.734.015a.3.3,0,0,1-.066-.148" transform="translate(-95.014 5.252)" fill="#231c20"/>
              <path id="Trazado_1272202" data-name="Trazado 1272202" d="M136.449,7.334c-.059-.357-.395-.885-.8-.559a.556.556,0,0,0-.168.276,1.309,1.309,0,0,0-.031.5,1.08,1.08,0,0,0,.325.7.473.473,0,0,0,.118.083.356.356,0,0,0,.38-.046.623.623,0,0,0,.188-.405,2.015,2.015,0,0,0-.013-.551" transform="translate(-94.843 6.139)" fill="#231c20"/>
              <path id="Trazado_1272203" data-name="Trazado 1272203" d="M130.392,10.305l-.022-.054c-.6-1.44-.054-4.531,1.969-4.186a2.173,2.173,0,0,1,1.576,1.39c.522,1.35.009,3.938-1.532,4.376-.939.267-1.653-.743-1.991-1.526" transform="translate(-82.704 5.556)" fill="#ffa87d"/>
              <path id="Trazado_1272204" data-name="Trazado 1272204" d="M134.768,10.739c.445-.067.891-.152,1.325-.25a.329.329,0,0,1,.312.142.293.293,0,0,1,.078.159c0,.036-.007.1-.052.106-.469.106-.939.2-1.412.267a.278.278,0,0,1-.162-.056.444.444,0,0,1-.146-.15c-.044-.084-.066-.2.057-.219" transform="translate(-93.441 9.645)" fill="#e06f63"/>
              <path id="Trazado_1272205" data-name="Trazado 1272205" d="M134.31,1.759A5.435,5.435,0,0,1,137.222.553c.092-.01.288-.012.332.1s-.111.167-.188.177A4.829,4.829,0,0,0,134.775,1.9a1.758,1.758,0,0,0-.471,2.321c.076.1-.133.167-.188.175a.342.342,0,0,1-.33-.1,1.936,1.936,0,0,1,.524-2.54" transform="translate(-92.335 0.504)" fill="#395795"/>
              <path id="Trazado_1272206" data-name="Trazado 1272206" d="M127.378,3.167a2.379,2.379,0,0,1,2-1.275,6.85,6.85,0,0,1,2.8.313c1.76.565,3.207,1.841,4.955,2.437a3.908,3.908,0,0,0,2.938.01.433.433,0,0,1,.38,0c.09.054.107.152,0,.2-1.663.781-3.525.2-5.062-.62-.784-.422-1.539-.906-2.336-1.3a7.021,7.021,0,0,0-2.7-.77A2.288,2.288,0,0,0,127.9,3.244c-.076.171-.605.121-.52-.077" transform="translate(-84 1.708)" fill="#395795"/>
              <path id="Trazado_1272207" data-name="Trazado 1272207" d="M126.945,2.782a.4.4,0,0,1,.369-.052,3.4,3.4,0,0,0,2.9-.184.415.415,0,0,1,.38,0c.1.056.1.148,0,.2a4.244,4.244,0,0,1-3.554.23c-.085-.033-.181-.1-.1-.2" transform="translate(-73.3 2.299)" fill="#395795"/>
              <path id="Trazado_1272208" data-name="Trazado 1272208" d="M126.7,6.731a.4.4,0,0,1,.369-.052,2.35,2.35,0,0,0,2.469-.628A.4.4,0,0,1,129.911,6c.087.027.185.106.1.2a3.1,3.1,0,0,1-3.207.732c-.085-.031-.181-.106-.1-.2" transform="translate(-72.228 5.499)" fill="#395795"/>
              <path id="Trazado_1272209" data-name="Trazado 1272209" d="M44.929,70.913c-.365-1.3.675-2.571,1.855-3.207,1.487-.8,3.205-1,4.77-1.619,3.1-1.223,5.361-3.971,7.522-6.584q4.083-4.934,8.339-9.708,2.126-2.388,4.3-4.731,1.118-1.21,2.248-2.406a15.044,15.044,0,0,0,1.8-1.709c.77-1.263,1.369-2.7,2.035-4.007q1.3-2.56,2.578-5.134c.65-1.308,1.325-3.769,2.534-4.549a5.981,5.981,0,0,1,4.717-.211,7.388,7.388,0,0,1,4.128,3.377,5.365,5.365,0,0,1-.151,5.324q-2.262,4.634-4.933,9.034a22.5,22.5,0,0,1-3.119,4.535c-1.792,2.3-4.669,4.188-6.588,5.708A173.734,173.734,0,0,1,60.692,66.233c-.692.434-1.164,1.077-1.855,1.513a4.2,4.2,0,0,1-2.39.649l-.024,0c-.607-.031-1.2-.194-1.812-.234a4.524,4.524,0,0,0-1.554.171,1.866,1.866,0,0,0-.98.582c-.865,1.112.142,2.379-.321,3.462-.592,1.388-3.152.816-4.237.549a3.893,3.893,0,0,1-2.034-1.043,2.412,2.412,0,0,1-.557-.968" transform="translate(116.409 24.537)" fill="#ffa87d"/>
              <path id="Trazado_1272210" data-name="Trazado 1272210" d="M52.781,49.675a36.42,36.42,0,0,1-6.433-3.844A50.551,50.551,0,0,1,42,42.085c.323-.62.618-1.238.891-1.755q1.32-2.517,2.524-5.1,2.405-5.167,4.32-10.56c.018-.054.039-.109.057-.165a13.49,13.49,0,0,1,1.709-3.642,4.132,4.132,0,0,1,3.488-1.847A6.033,6.033,0,0,1,57.654,20.2a14,14,0,0,1,3.921,3.343c2.578,3.61,1.655,7.772.238,11.636l-5.89,16.046c-1.043-.528-2.095-1.033-3.143-1.548" transform="translate(150.853 17.483)" fill="#9fc0f8"/>
              <path id="Trazado_1272211" data-name="Trazado 1272211" d="M142.456,39.873c.423.025.845.044,1.266.075q2.383.167,4.767.336c.893.061,2.019.115,2.29,1.183a4.025,4.025,0,0,1,.052,1.246c-.039.639-.079,1.279-.118,1.92a2.794,2.794,0,0,1-.734,2.095,2.527,2.527,0,0,1-1.624.355q-2.619-.032-5.235-.061a8.052,8.052,0,0,0-2.12.152,3.5,3.5,0,0,1-2.259.142,1.644,1.644,0,0,1-.736-1.35,24.24,24.24,0,0,1-.38-4.149,4.464,4.464,0,0,1,.406-2.016c.3-.584.69-.572,1.332-.376a13.036,13.036,0,0,0,3.095.449" transform="translate(-113.249 36.161)" fill="#ffa87d"/>
              <path id="Trazado_1272212" data-name="Trazado 1272212" d="M142.336,35.065c-.02.027-.037.052-.055.081l4.661,18.832c.133-.019.264-.038.4-.061a8.235,8.235,0,0,0,.878-.209,6.781,6.781,0,0,0,2.942-1.749.972.972,0,0,0,.349-.682,1.248,1.248,0,0,0-.45-.73,4.456,4.456,0,0,1-1.262-3.22,4.711,4.711,0,0,1,.746-2.051,3.409,3.409,0,0,0,.443-.839,1.368,1.368,0,0,0-.116-1,11.522,11.522,0,0,0-2.028-2.22,22.243,22.243,0,0,1-2.024-2.623c-.517-.783-.989-1.6-1.576-2.323a5.176,5.176,0,0,0-1.7-1.459.956.956,0,0,0-1.205.25" transform="translate(-122.5 31.931)" fill="#ffd540"/>
              <path id="Trazado_1272213" data-name="Trazado 1272213" d="M144.121,36.733c.218.036.347.294.469.467a23.761,23.761,0,0,0,2.251,2.736q.689.723,1.432,1.381a.371.371,0,0,1,.116.292c0,.065-.054.192-.135.121a24.363,24.363,0,0,1-2.63-2.713c-.4-.48-.773-.975-1.135-1.486-.072-.1-.151-.276-.264-.336-.133-.071-.266.073-.349.165-.142.152-.594.91-.843.816-.387-.146.148-.707.262-.8a2.594,2.594,0,0,0,.3-.294c.133-.15.3-.382.524-.346" transform="translate(-120.517 33.792)" fill="#b2752b"/>
              <path id="Trazado_1272214" data-name="Trazado 1272214" d="M143.9,38.38a.451.451,0,0,1,.054.169.263.263,0,0,1-.018.146c-.173.3-.345.593-.519.891-.048.084-.133.031-.172-.04a.378.378,0,0,1-.054-.167.259.259,0,0,1,.018-.146c.172-.3.345-.593.517-.891.05-.084.133-.031.173.038" transform="translate(-116.634 35.236)" fill="#fff"/>
              <path id="Trazado_1272215" data-name="Trazado 1272215" d="M144.31,37.946a.362.362,0,0,1,.035.313,6.968,6.968,0,0,1-.489.8c-.022.031-.042.054-.081.046a.168.168,0,0,1-.092-.084.4.4,0,0,1-.053-.167.244.244,0,0,1,.018-.146,7.3,7.3,0,0,0,.489-.8c.046-.088.135-.029.173.038" transform="translate(-117.844 34.836)" fill="#fff"/>
              <path id="Trazado_1272216" data-name="Trazado 1272216" d="M144.623,37.374a.168.168,0,0,1,.092.084.412.412,0,0,1,.054.167.244.244,0,0,1-.018.146l-.476.664c-.022.029-.042.054-.081.044a.172.172,0,0,1-.092-.083.394.394,0,0,1-.054-.169.244.244,0,0,1,.018-.146l.476-.664c.022-.029.042-.054.081-.044" transform="translate(-119.018 34.384)" fill="#fff"/>
              <path id="Trazado_1272217" data-name="Trazado 1272217" d="M145.2,36.87a.365.365,0,0,1,.035.315,3.564,3.564,0,0,1-.572.833.07.07,0,0,1-.09,0,.263.263,0,0,1-.087-.119.307.307,0,0,1,.013-.294c.054-.058.105-.117.153-.179.026-.031.048-.061.072-.094l.011-.015.015-.019.033-.048a3.621,3.621,0,0,0,.244-.42c.044-.09.137-.027.173.038" transform="translate(-120.267 33.845)" fill="#fff"/>
              <path id="Trazado_1272218" data-name="Trazado 1272218" d="M144.348,35.392l4.239,18.223a.59.59,0,0,0,.712.453.617.617,0,0,0,.434-.741L145.494,35.1a.588.588,0,0,0-.712-.451.613.613,0,0,0-.434.739" transform="translate(-124.525 31.866)" fill="#fff"/>
              <path id="Trazado_1272219" data-name="Trazado 1272219" d="M83.112,51.086c0,.757,0,1.561.031,2.306.048,1.25.033,1.142,1.227,1.317,1.921.275,3.933.246,5.868.369q5.866.369,11.731.739l21.093,1.331,2.369.15q1.711.107,3.419.213c4.807.29,9.622.53,14.436.5,6-.033,11.995-.478,17.981-.922q12.672-.939,25.343-1.882a6.336,6.336,0,0,0,2.526-.543c4.307-2.283.984-8.725-1.009-11.357a24.755,24.755,0,0,0-11.152-8.1,34.513,34.513,0,0,0-10.013-1.989,56.33,56.33,0,0,0-9.469.326c-1.936.215-3.864.5-5.789.787-4.97.737-9.7,2.081-14.649,2.686q-7.042.861-14.04,2.07-1.752.3-3.5.628c-.62.115-1.244.228-1.864.342a301.2,301.2,0,0,1-33.16,4.526c-3.028.211-1.379,4.547-1.379,6.494" transform="translate(-52.217 30.501)" fill="#dd475d"/>
              <path id="Trazado_1272220" data-name="Trazado 1272220" d="M92.866,19.872q.576-.228,1.155-.44,2.951-1.1,5.918-2.152a9.586,9.586,0,0,1,3.672-.77c1.432.084,2.32.879,3.552,1.453s2.63.614,3.851,1.35a5.083,5.083,0,0,1,2.429,3.183,8.229,8.229,0,0,1-.843,4.6,97.13,97.13,0,0,1-5.66,11.407,183.485,183.485,0,0,1-11.8,18.223,43.714,43.714,0,0,1-6.378,7.5,42.461,42.461,0,0,1-3.9,2.421c-.856.6-1.532,1.989-2.8,1.525a4.229,4.229,0,0,1-1.812-1.736c-.906-.945-1.576-2.181-2.473-3.143a41.428,41.428,0,0,1-3.039-4.03q-3.189-4.4-6.374-8.809a2.618,2.618,0,0,1-.668-1.578,2.626,2.626,0,0,1,1.225-1.743,68.1,68.1,0,0,0,12.3-12.924c.865-1.189,1.746-2.4,2.495-3.667.614-1.041.806-2.131,1.321-3.218a14.6,14.6,0,0,1,4.767-5.918,15.672,15.672,0,0,1,3.056-1.536" transform="translate(53.093 15.182)" fill="#ffe19a"/>
              <path id="Trazado_1272221" data-name="Trazado 1272221" d="M112.773,35.452c.074-.081.149-.161.225-.242a12.468,12.468,0,0,1,4.724-3.529,4.918,4.918,0,0,1,5.409,1.194c2.5,3.066.589,7.394-1.783,9.666a45.759,45.759,0,0,1-20.307,11.522c-3.567.893-7.225.751-10.725,1.477a14.645,14.645,0,0,1-5.544-.179c-.489-.088-.974-.225-1.463-.3-.349-.054-.672.025-1.021-.036A5.211,5.211,0,0,1,80,53.792a1.9,1.9,0,0,1-.52-.58.736.736,0,0,1,.026-.756c.244-.317.718-.242,1.1-.138-.151-.217-.3-.436-.452-.653-.081-.119-.166-.271-.1-.4s.262-.15.417-.131c1.578.186,3.113.655,4.671.975.587.121,5.248.741,4.75-.415-.314-.73-1.832-.833-2.482-.889a9.831,9.831,0,0,1-1.8-.328,1.926,1.926,0,0,1-.777-.367.807.807,0,0,1-.271-.8c.257-.858,1.521-.488,2.137-.54a13.78,13.78,0,0,1,2.984-.2,11.794,11.794,0,0,1,2.467.791c2.641.97,4.859-.593,7.1-1.9a44.744,44.744,0,0,0,5.444-3.543c3.037-2.421,5.424-5.6,8.075-8.467" transform="translate(20.751 28.849)" fill="#ffa87d"/>
              <path id="Trazado_1272222" data-name="Trazado 1272222" d="M83.263,25.916c.891-1.24,1.8-2.469,2.707-3.7a12.461,12.461,0,0,1,1.722-2.014A6.883,6.883,0,0,1,95,19.384c2.034,1.194,3.193,4.645,2.87,6.949a15.794,15.794,0,0,1-1.869,4.983A129.242,129.242,0,0,1,81.772,53.049a4.9,4.9,0,0,1-1.456,1.363c-1.535.8-3.336-.2-4.778-1.171a18.441,18.441,0,0,1-4.422-4.491c-.753-1.093-2.51-3.6-1.755-4.948a3.508,3.508,0,0,1,.766-.858,43.72,43.72,0,0,0,5.811-5.576,35.285,35.285,0,0,0,2.506-4.086,84.533,84.533,0,0,1,4.818-7.365" transform="translate(65.984 17.186)" fill="#ffe19a"/>
              <path id="Trazado_1272223" data-name="Trazado 1272223" d="M74.02,44.192c.517-1.82,2.34-2.723,3.5-4.042.76-.866,1.421-1.832,2.107-2.761.709-.962,1.414-1.928,2.1-2.907,1.262-1.8,2.434-3.652,3.587-5.526,1.07-1.74,2.148-3.483,3.357-5.127a23.592,23.592,0,0,1,4.65-4.879.437.437,0,0,1,.371-.094c.1.027.142.123.046.2-3.2,2.429-5.444,5.889-7.561,9.312-1.12,1.816-2.235,3.635-3.443,5.39-1.331,1.934-2.713,3.842-4.143,5.7A11.866,11.866,0,0,1,77.406,40.8c-.358.344-.738.659-1.111.985a5.114,5.114,0,0,0-1.753,2.35c-.052.184-.579.253-.522.056" transform="translate(61.195 17.337)" fill="#b2752b"/>
              <path id="Trazado_1272224" data-name="Trazado 1272224" d="M76.459,33.54c.059-.109.24-.142.347-.14,3.407.015,6.92,0,10.155-1.258a12.649,12.649,0,0,0,2.545-1.331.386.386,0,0,1,.369-.04c.107.067.026.163-.048.213-3,2.037-6.636,2.588-10.142,2.7-1.03.031-2.058.031-3.087.027-.094,0-.2-.061-.138-.167" transform="translate(60.579 28.281)" fill="#b2752b"/>
              <path id="Trazado_1272225" data-name="Trazado 1272225" d="M81.324,31.364c.026-.117.2-.167.3-.179l1.26-.15c.072-.01.249,0,.221.123s-.2.169-.3.18l-1.259.15c-.074.008-.249-.006-.223-.125" transform="translate(58.394 28.551)" fill="#b2752b"/>
              <path id="Trazado_1272226" data-name="Trazado 1272226" d="M74.407,26.311c.172-.081.347-.159.52-.232a32.755,32.755,0,0,1,2.021-6.469,21.041,21.041,0,0,1,6.913-8.869c.03-.225.068-.444.113-.651a21.267,21.267,0,0,0-7.446,9.32,33.574,33.574,0,0,0-2.12,6.9" transform="translate(70.288 9.283)" fill="#65bfd7"/>
              <path id="Trazado_1272227" data-name="Trazado 1272227" d="M84.36,22.3a2.451,2.451,0,0,1-.862.806,5.2,5.2,0,0,1-2.5.447l-8.267.092a23.615,23.615,0,0,1-5.558-.38c-.078-.019.677-.559.771-.593.341-.129.644-.288.976-.451a20.025,20.025,0,0,1,2.384-.879,13.124,13.124,0,0,0,3.224-1.461,4.983,4.983,0,0,0,2.218-3.771l.009-.044a9.673,9.673,0,0,1,.57-2.154c.758-1.686,2.235-1.872,3.851-1.624.157.023.314.05.471.079a15.852,15.852,0,0,1,3.021.876c2.023.81,2.233,1.363,1.672,3.479q-.5,1.892-1.187,3.725a8.975,8.975,0,0,1-.8,1.855" transform="translate(81.008 11.222)" fill="#ffa87d"/>
              <path id="Trazado_1272228" data-name="Trazado 1272228" d="M72.571,16.313a4.953,4.953,0,0,1-2.993-.2l.007-.044a9.587,9.587,0,0,1,.568-2.156c.762-1.686,2.237-1.87,3.855-1.624.157.025.314.052.469.079a3.577,3.577,0,0,1,.328.618,2.49,2.49,0,0,1,.107,1.565,1.342,1.342,0,0,1-.089.236,3.051,3.051,0,0,1-2.253,1.528" transform="translate(88.181 11.222)" fill="#e06f63"/>
              <path id="Trazado_1272229" data-name="Trazado 1272229" d="M79.912,21.245a8.57,8.57,0,0,0,2.333-2.306,9.949,9.949,0,0,0,1.655-4.9,4.947,4.947,0,0,0-.644-3.164,23.158,23.158,0,0,0-2.274-2.778,9.56,9.56,0,0,0-4.617-2.677c-1.7-.419-3.689.6-4.885,1.841-.642.664-1.142,1.459-1.751,2.158a4.872,4.872,0,0,1-1.454,1.19,3.333,3.333,0,0,1-1.607.238c-1.019,0-2.183.073-2.054,1.452a2.884,2.884,0,0,1-.5,2.15c-.788,1.114-2.32,2.59-1.9,4.126a3.013,3.013,0,0,0,.856,1.354,10.382,10.382,0,0,0,5.479,2.525,19.837,19.837,0,0,0,2.366.065c2.473.008,5.025.388,7.363-.449a7.631,7.631,0,0,0,1.633-.822" transform="translate(92.973 4.894)" fill="#ffa87d"/>
              <path id="Trazado_1272230" data-name="Trazado 1272230" d="M69.887,9.441c.188.18.7.651.683.367a2.532,2.532,0,0,0-1.655-2.225c-.474-.157-1,.152-.567.657a2.107,2.107,0,0,0,.465.359,7.42,7.42,0,0,1,1.008.78c.007.006.031.029.066.063" transform="translate(95.171 6.938)" fill="#932409"/>
              <path id="Trazado_1272231" data-name="Trazado 1272231" d="M70.145,9.136c.017.019.031.04.048.058.3.361.624.71.954,1.046a.073.073,0,0,1,.03.056c0,.031-.041.042-.068.044a1.357,1.357,0,0,1-.984-.271,2.735,2.735,0,0,1-.867-1.607c-.006-.044,0-.1.035-.121a.1.1,0,0,1,.078.006c.336.129.55.5.775.789" transform="translate(92.592 7.668)" fill="#231c20"/>
              <path id="Trazado_1272232" data-name="Trazado 1272232" d="M71.229,22.359a9.446,9.446,0,0,1,1.2-2.972c.474-.757,1.056-1.438,1.508-2.21,1.223-2.083.788-5.169.343-7.448a3.686,3.686,0,0,1,.151-2.784,3.239,3.239,0,0,1,.463-.5l.325-.305a4.136,4.136,0,0,1,1.626-1.094,5.645,5.645,0,0,1,2.9.378,11.209,11.209,0,0,1,4.447,2.492,12.723,12.723,0,0,1,3.929,7.705,8.179,8.179,0,0,1-.131,3.17c-.437,1.619-1.522,2.7-2.44,4.009-.694,1-1.569,1.667-1.978,2.888-.609,1.816-.716,3.56-1.644,5.278-.9,1.657-1.438,3.176-3.073,4.264a6.464,6.464,0,0,1-5.211.945c-1.379-.376-2.6-1.208-3.94-1.722a13.933,13.933,0,0,0-5.064-.762c-1.035,0-3.05.161-3.818-.682a2.1,2.1,0,0,1-.085-2.454,3.516,3.516,0,0,1,2.093-1.405,20.555,20.555,0,0,1,2.517-.388,2.5,2.5,0,0,0,1.493-.6,12.484,12.484,0,0,0,.856-1.467,6.336,6.336,0,0,1,2.209-1.4c1.046-.609,1.059-1.525,1.26-2.606.02-.109.042-.219.066-.326" transform="translate(91.933 4.564)" fill="#932409"/>
              <path id="Trazado_1272233" data-name="Trazado 1272233" d="M68.855,20.569a37.781,37.781,0,0,1-3.039-3.817,31.594,31.594,0,0,1-5.27-9.957.652.652,0,0,1-.015-.422.6.6,0,0,1,.242-.242c.524-.351,1.26-1.073,1.921-.739a2.366,2.366,0,0,1,.723.668A94.507,94.507,0,0,0,74.009,16.939c.731.637,1.735,1.528,1.116,2.542s-1.251,2.066-1.973,3.022c-.236.311-.594.774-.993.856-.465.1-.6-.2-.936-.511-.8-.751-1.617-1.477-2.369-2.279" transform="translate(104.605 4.88)" fill="#fff"/>
              <path id="Trazado_1272234" data-name="Trazado 1272234" d="M72,10.68l.965.929a.428.428,0,0,1,.109.351c-.007.04-.022.088-.063.1a.115.115,0,0,1-.109-.044l-.967-.927a.431.431,0,0,1-.107-.353c.007-.04.02-.088.063-.1s.081.017.109.044" transform="translate(85.964 9.782)" fill="#e06f63"/>
              <g id="Grupo_1210896" data-name="Grupo 1210896" transform="translate(154.083 14.606)" opacity="0.6">
                <g id="Grupo_1210895" data-name="Grupo 1210895" transform="translate(0)">
                  <g id="Grupo_1210894" data-name="Grupo 1210894" clip-path="url(#clip-path-3)">
                    <path id="Trazado_1272235" data-name="Trazado 1272235" d="M70.831,10.757a5.426,5.426,0,0,1,3.776-3.074,10.466,10.466,0,0,1,3.224.144c.945.142-.057,1.405-.279,1.864-.533,1.108-.157,2.442-.413,3.623a5.382,5.382,0,0,1-4.128,4.024,2.377,2.377,0,0,1-1.131-.073c-.4-.129-.526-.371-.84-.614-1.314-1.016-1.015-3.767-.528-5.146a6.774,6.774,0,0,1,.319-.749" transform="translate(-70.097 -7.607)" fill="#65bfd7"/>
                  </g>
                </g>
              </g>
              <path id="Trazado_1272236" data-name="Trazado 1272236" d="M61.444,6.322a8.821,8.821,0,0,1,3.92,5.9,8.523,8.523,0,0,1,.118,2.112c-.011.175-.472.165-.461,0a8.82,8.82,0,0,0-2.362-6.57,7.837,7.837,0,0,0-1.541-1.265c-.225-.138.2-.253.327-.173" transform="translate(113.404 5.791)" fill="#701807"/>
              <path id="Trazado_1272237" data-name="Trazado 1272237" d="M62.407,8.482a3.608,3.608,0,0,1,.352,2.321c-.033.177-.491.152-.463,0a3.482,3.482,0,0,0-.334-2.256c-.083-.156.369-.211.445-.065" transform="translate(114.427 7.725)" fill="#701807"/>
              <path id="Trazado_1272238" data-name="Trazado 1272238" d="M66.888,18.688a7.169,7.169,0,0,1,.55-2.091,7.263,7.263,0,0,1,1.091-1.766c.406-.493.86-.943,1.271-1.429a4.478,4.478,0,0,0,1.035-1.887c.039-.177.495-.148.461,0a7.058,7.058,0,0,1-2.017,3.034,7.371,7.371,0,0,0-1.875,3.742,3.117,3.117,0,0,0,.293,2.273c.092.136-.354.2-.447.065a2.926,2.926,0,0,1-.364-1.941" transform="translate(96.884 10.481)" fill="#701807"/>
              <path id="Trazado_1272239" data-name="Trazado 1272239" d="M68.329,14.894c.039-.148.495-.125.445.065a4.236,4.236,0,0,0,.046,3.176c.085.15-.364.207-.445.065a4.387,4.387,0,0,1-.046-3.306" transform="translate(97.209 13.614)" fill="#701807"/>
              <path id="Trazado_1272240" data-name="Trazado 1272240" d="M72.881,18.583a1.781,1.781,0,0,1,1.65-.632c.066.01.2.054.161.15s-.21.1-.284.086a1.235,1.235,0,0,0-1.159.568,1.574,1.574,0,0,0-.1,1.509c.078.163-.375.211-.445.063a1.7,1.7,0,0,1,.179-1.745" transform="translate(83.006 16.498)" fill="#701807"/>
              <path id="Trazado_1272241" data-name="Trazado 1272241" d="M64.279,16.254a3.988,3.988,0,0,0,.441-2.006c-.006-.167.456-.173.463,0a4.15,4.15,0,0,1-.459,2.072c-.074.144-.526.094-.445-.065" transform="translate(107.783 12.99)" fill="#701807"/>
              <path id="Trazado_1272242" data-name="Trazado 1272242" d="M62.545,5.63c.88,2.15,1.725,4.318,2.659,6.446.015.031.03.061.042.092a.257.257,0,0,1,.2.058,48.531,48.531,0,0,0,5.084,5.267q.775.691,1.578,1.348c.085.069-.018.146-.083.167a.355.355,0,0,1-.316-.044,48.59,48.59,0,0,1-5.3-5.036q-.371-.412-.734-.833a46.581,46.581,0,0,0,2.737,4.883c.666,1.048,1.356,2.079,2.047,3.111.09.138-.354.2-.447.065-1.235-1.843-2.471-3.692-3.563-5.632A54.687,54.687,0,0,1,63.58,9.314L62.1,5.695c-.07-.171.384-.215.445-.065" transform="translate(104.85 5.095)" fill="#65bfd7"/>
              <path id="Trazado_1272243" data-name="Trazado 1272243" d="M181.995,73.832c17.127-23.227,40.9-55.532,46.181-62.853a1.86,1.86,0,0,1,2.471-.534l7.441,4.414a2.031,2.031,0,0,1,.594,2.9c-1.015,1.436-3.047,4.222-7.346,10.092-4.106,5.607-9.8,13.362-16.926,23.047-12.13,16.486-24.368,33.079-24.49,33.244l-1.849,2.508H56.461A2.308,2.308,0,0,1,54.2,84.295V76.186a2.308,2.308,0,0,1,2.261-2.354Z" transform="translate(-47.502 9.369)" fill="#395795"/>
              <path id="Trazado_1272244" data-name="Trazado 1272244" d="M60.449,49.883h74.524a4.876,4.876,0,0,1,4.776,4.969v4.274a1.856,1.856,0,0,1-1.818,1.891h-.214a1.856,1.856,0,0,1-1.818-1.891v-.269a4.876,4.876,0,0,0-4.776-4.969H60.449Z" transform="translate(40.27 45.895)" fill="#231c20"/>
              <path id="Trazado_1272302" data-name="Trazado 1272302" d="M.036,2.06,158.9,4.921l-.036-2.06L0,0Z" transform="matrix(-0.847, -0.531, 0.531, -0.847, 158.131, 185.195)" fill="#eabb5d"/>
              <path id="Trazado_1272303" data-name="Trazado 1272303" d="M1.878,103.276l2.027.037L2.027.037,0,0Z" transform="translate(67.659 184.951) rotate(-146.249)" fill="#eabb5d"/>
              <path id="Trazado_1272245" data-name="Trazado 1272245" d="M54.024,86.476V90.75a1.856,1.856,0,0,0,1.818,1.891h.214a1.856,1.856,0,0,0,1.818-1.891v-.269a4.876,4.876,0,0,1,4.776-4.969H196.093l.579-.783c.122-.165,12.359-16.758,24.486-33.242,19.262-26.178,23.588-32.15,24.632-33.663a.623.623,0,0,0-.194-.887l-2.36-1.35a.57.57,0,0,0-.753.173C238.928,20.8,207.32,63.71,194.2,81.507H58.8a4.876,4.876,0,0,0-4.776,4.969" transform="translate(-54.024 14.271)" fill="#231c20"/>
              <path id="Trazado_1272246" data-name="Trazado 1272246" d="M120.632,101.985a4.893,4.893,0,0,0,7.092.392,5.386,5.386,0,0,0-.24-7.385,4.9,4.9,0,0,0-7.092-.392,5.386,5.386,0,0,0,.24,7.385" transform="translate(-57.18 85.804)" fill="#395795"/>
              <path id="Trazado_1272247" data-name="Trazado 1272247" d="M121.13,99.336a2.736,2.736,0,0,0,3.964.219,3.009,3.009,0,0,0-.135-4.126,2.736,2.736,0,0,0-3.964-.219,3.009,3.009,0,0,0,.135,4.126" transform="translate(-56.167 86.91)" fill="#231c20"/>
              <path id="Trazado_1272248" data-name="Trazado 1272248" d="M114.606,37.219l7.74,25.209,1.229,4.005h5.675l-1.231-4.005-8.044-26.178q-1.755.3-3.5.626c-.622.117-1.244.23-1.864.344" transform="translate(-49.171 33.351)" fill="#fff"/>
              <path id="Trazado_1272249" data-name="Trazado 1272249" d="M27.911,17.022a7.632,7.632,0,0,1,2.724-.453,13.715,13.715,0,0,1,5.828,1.995,23.739,23.739,0,0,1,3.456,2.06,19.35,19.35,0,0,1,2.526,2.4,87.107,87.107,0,0,1,6.411,8.206,29.344,29.344,0,0,1,3.189,5.119,34.625,34.625,0,0,0,3.765,5.86c2.735,3.777,5.769,7.31,8.45,11.129,1.991,2.838,3.779,5.82,5.566,8.8a32.046,32.046,0,0,1,2.307,4.337,32.941,32.941,0,0,1,1.124,3.487q.448,1.6.9,3.195a17.044,17.044,0,0,1,.958,3.032,1.652,1.652,0,0,1-.692,1.567,2.068,2.068,0,0,1-1.174.167c-.943-.065-1.875-.223-2.811-.359-3.484-.509-7-.707-10.509-.96-1.629-.117-3.226.156-4.861-.067A24.956,24.956,0,0,1,50,75.162a40.88,40.88,0,0,1-6.728-3.049,11.388,11.388,0,0,1-2.694-1.822,9.836,9.836,0,0,1-1.36-2.6A63.356,63.356,0,0,0,34.733,59.3a60.3,60.3,0,0,0-5.547-6.851,23.051,23.051,0,0,1-2.471-2.8c-.79-1.283-1.539-2.594-2.255-3.923a82.353,82.353,0,0,1-3.853-8.214,26.834,26.834,0,0,1-1.962-6.828A11.5,11.5,0,0,1,19.8,23.767a14.039,14.039,0,0,1,3.148-3.6,15.818,15.818,0,0,1,4.964-3.143" transform="translate(182.228 15.242)" fill="#9fc0f8"/>
              <path id="Trazado_1272250" data-name="Trazado 1272250" d="M7,90.981c-.3-.317-.591-.63-.88-.95L2.838,86.417c-.616-.68-1.406-1.513-.908-2.488a3.815,3.815,0,0,1,.775-.95q.67-.662,1.342-1.325a2.591,2.591,0,0,1,1.906-1.02,2.582,2.582,0,0,1,1.423.889q1.9,1.872,3.8,3.746a8.516,8.516,0,0,0,1.655,1.386c.626.369,1.458.76,1.749,1.492a1.684,1.684,0,0,1-.341,1.513,23.2,23.2,0,0,1-2.43,3.312A4.158,4.158,0,0,1,10.2,94.164c-.6.215-.88-.067-1.222-.666A14.1,14.1,0,0,0,7,90.981" transform="translate(273.639 74.181)" fill="#ffa87d"/>
              <path id="Trazado_1272251" data-name="Trazado 1272251" d="M.878,100.488a.8.8,0,0,0,.1.006l12.98-13.988c-.083-.109-.168-.215-.257-.319a8.5,8.5,0,0,0-.631-.67,6.762,6.762,0,0,0-2.973-1.694.888.888,0,0,0-.74.048,1.248,1.248,0,0,0-.362.781,4.348,4.348,0,0,1-1.976,2.8,4.275,4.275,0,0,1-2.069.413,3.155,3.155,0,0,0-.921.046,1.273,1.273,0,0,0-.755.626A12.013,12.013,0,0,0,2.517,91.5a23.325,23.325,0,0,1-1.089,3.168c-.371.868-.794,1.715-1.078,2.613a5.493,5.493,0,0,0-.306,2.27,1.007,1.007,0,0,0,.834.937" transform="translate(277.595 77.071)" fill="#eabb5d"/>
              <path id="Trazado_1272252" data-name="Trazado 1272252" d="M5.581,92.822c-.085-.211.059-.461.137-.661a24.864,24.864,0,0,0,1.063-3.427q.233-.991.38-1.993a.354.354,0,0,1,.179-.253c.055-.031.185-.054.168.054a25.466,25.466,0,0,1-.845,3.752q-.277.9-.622,1.784a1.079,1.079,0,0,0-.137.411c.011.156.2.2.317.225.2.044,1.057.05,1.109.319.083.42-.655.24-.794.186a2.836,2.836,0,0,0-.4-.111c-.2-.04-.471-.065-.559-.284" transform="translate(273.81 79.55)" fill="#b2752b"/>
              <path id="Trazado_1272253" data-name="Trazado 1272253" d="M5.573,87.337a.424.424,0,0,1,.109-.134.246.246,0,0,1,.131-.061c.332,0,.666,0,1-.008.1,0,.1.1.059.175a.379.379,0,0,1-.109.134.233.233,0,0,1-.129.061l-1,.006c-.1,0-.094-.1-.059-.173" transform="translate(274.432 80.168)" fill="#fff"/>
              <path id="Trazado_1272254" data-name="Trazado 1272254" d="M5.762,87.935A.341.341,0,0,1,6,87.741a6.3,6.3,0,0,1,.913.013c.035,0,.066.008.079.048a.175.175,0,0,1-.02.125.379.379,0,0,1-.109.134.221.221,0,0,1-.129.061,6.04,6.04,0,0,0-.913-.013c-.1.006-.094-.106-.059-.175" transform="translate(273.979 80.717)" fill="#fff"/>
              <path id="Trazado_1272255" data-name="Trazado 1272255" d="M6.009,88.668a.193.193,0,0,1,.022-.127.376.376,0,0,1,.109-.134.223.223,0,0,1,.129-.06l.794.075c.035,0,.066.01.079.048a.194.194,0,0,1-.02.125.386.386,0,0,1-.109.136.223.223,0,0,1-.131.06l-.792-.075c-.035,0-.066-.008-.081-.048" transform="translate(273.343 81.284)" fill="#fff"/>
              <path id="Trazado_1272256" data-name="Trazado 1272256" d="M6.227,89.207a.347.347,0,0,1,.24-.2,3.3,3.3,0,0,1,.982.069.076.076,0,0,1,.048.081.262.262,0,0,1-.052.138c-.055.073-.151.165-.247.144a2.212,2.212,0,0,0-.225-.042c-.039-.008-.078-.012-.114-.015l-.02,0-.022,0-.059-.006a3.5,3.5,0,0,0-.471,0c-.1.01-.094-.106-.059-.173" transform="translate(272.623 81.886)" fill="#fff"/>
              <path id="Trazado_1272257" data-name="Trazado 1272257" d="M1.007,99.284l12.705-13.3a.633.633,0,0,0,0-.868.573.573,0,0,0-.834,0L.172,98.42a.63.63,0,0,0,0,.866.573.573,0,0,0,.834,0" transform="translate(277.686 78.151)" fill="#395795"/>
              <path id="Trazado_1272258" data-name="Trazado 1272258" d="M32.292,84.414c-.275-.336-.552-.668-.821-1.006l-3.047-3.827c-.572-.718-1.31-1.6-.753-2.544a3.811,3.811,0,0,1,.832-.9l1.421-1.233a2.576,2.576,0,0,1,1.965-.889A2.605,2.605,0,0,1,33.256,75l3.562,3.992a8.615,8.615,0,0,0,1.567,1.5c.6.409,1.408.856,1.655,1.605a1.678,1.678,0,0,1-.436,1.486,23.06,23.06,0,0,1-2.63,3.145,4.123,4.123,0,0,1-1.685,1.081c-.613.175-.873-.127-1.179-.745a14,14,0,0,0-1.818-2.646" transform="translate(200.778 68.084)" fill="#ffa87d"/>
              <path id="Trazado_1272259" data-name="Trazado 1272259" d="M26.531,93.507a.958.958,0,0,0,.1.013L40.445,80.427c-.078-.115-.157-.227-.236-.336-.185-.248-.382-.484-.589-.71a6.8,6.8,0,0,0-2.862-1.887.883.883,0,0,0-.744,0,1.269,1.269,0,0,0-.41.757,4.3,4.3,0,0,1-2.144,2.665,4.266,4.266,0,0,1-2.089.273,3.15,3.15,0,0,0-.921-.015,1.27,1.27,0,0,0-.792.574,11.942,11.942,0,0,0-.936,2.9,23.357,23.357,0,0,1-1.283,3.089c-.424.841-.9,1.657-1.238,2.534a5.509,5.509,0,0,0-.445,2.245,1.013,1.013,0,0,0,.773.991" transform="translate(203.616 71.221)" fill="#eabb5d"/>
              <path id="Trazado_1272260" data-name="Trazado 1272260" d="M31.38,86.112c-.072-.217.087-.457.177-.649a24.54,24.54,0,0,0,1.271-3.351q.293-.973.5-1.962a.361.361,0,0,1,.2-.244c.055-.027.186-.04.164.067a25.218,25.218,0,0,1-1.076,3.687q-.332.884-.731,1.74a1.079,1.079,0,0,0-.161.4c0,.157.185.211.3.246.2.058,1.052.121,1.087.394.057.424-.668.194-.8.132a2.694,2.694,0,0,0-.389-.138c-.19-.054-.465-.1-.539-.321" transform="translate(200.003 73.501)" fill="#b2752b"/>
              <path id="Trazado_1272261" data-name="Trazado 1272261" d="M31.43,80.706a.4.4,0,0,1,.118-.127.235.235,0,0,1,.133-.052c.332.019.666.038,1,.06.1.006.09.108.048.177a.407.407,0,0,1-.118.129.232.232,0,0,1-.131.05c-.334-.019-.666-.038-1-.06-.1-.006-.089-.108-.048-.177" transform="translate(200.867 74.09)" fill="#fff"/>
              <path id="Trazado_1272262" data-name="Trazado 1272262" d="M31.657,81.294a.339.339,0,0,1,.251-.179,6.275,6.275,0,0,1,.91.075c.035.006.065.013.076.054a.174.174,0,0,1-.028.123.424.424,0,0,1-.116.129.224.224,0,0,1-.133.05,6.28,6.28,0,0,0-.912-.073c-.1,0-.087-.111-.048-.179" transform="translate(200.306 74.631)" fill="#fff"/>
              <path id="Trazado_1272263" data-name="Trazado 1272263" d="M31.937,82.016a.187.187,0,0,1,.028-.125.4.4,0,0,1,.118-.127.222.222,0,0,1,.133-.052c.262.044.524.086.786.129.035.006.065.013.076.054a.182.182,0,0,1-.028.123.4.4,0,0,1-.116.129.225.225,0,0,1-.135.05l-.786-.127c-.035-.006-.065-.013-.076-.054" transform="translate(199.558 75.18)" fill="#fff"/>
              <path id="Trazado_1272264" data-name="Trazado 1272264" d="M32.2,82.531a.343.343,0,0,1,.251-.179,3.227,3.227,0,0,1,.976.134.077.077,0,0,1,.042.084.278.278,0,0,1-.061.134c-.059.069-.161.154-.255.125-.074-.021-.148-.04-.223-.058-.037-.008-.076-.015-.113-.021l-.02,0-.022,0a.513.513,0,0,1-.057-.01,3.479,3.479,0,0,0-.471-.027c-.1,0-.087-.113-.048-.177" transform="translate(198.72 75.768)" fill="#fff"/>
              <path id="Trazado_1272265" data-name="Trazado 1272265" d="M26.718,92.2l13.5-12.421a.631.631,0,0,0,.052-.866.574.574,0,0,0-.832-.052l-13.5,12.421a.629.629,0,0,0-.052.864.574.574,0,0,0,.832.054" transform="translate(203.658 72.416)" fill="#395795"/>
              <path id="Trazado_1272266" data-name="Trazado 1272266" d="M7.03,38.966a7.632,7.632,0,0,1,2.724-.453,13.715,13.715,0,0,1,5.828,1.995,23.741,23.741,0,0,1,3.456,2.06c1.626,1.238,3,2.834,4.54,4.184,1.607,1.413,3.584,2.337,5.056,3.923,3.146,3.393,3.248,8.807,4.058,13.183,1.334,7.21,2.9,14.354,4.5,21.5a12.933,12.933,0,0,0,.93,2.974,12.381,12.381,0,0,0,2.281,2.888q11.1,11.474,22.2,22.949c.413.426-5.217,6.672-5.615,7.145-.949,1.114-2.945,4.508-4.272,4.952-2.05.687-8.057-5.349-9.88-6.81a231.117,231.117,0,0,1-18.972-16.975c-3.8-3.8-6.224-7.327-7.7-12.553-1.541-5.436-3.711-10.835-5.518-16.211-3-8.921-6-17.86-8.1-27.054a9.184,9.184,0,0,1-.33-3.374C2.544,41,5.123,39.632,7.03,38.966" transform="translate(224.975 35.432)" fill="#9fc0f8"/>
              <path id="Trazado_1272267" data-name="Trazado 1272267" d="M25.8,78.773c-.531-1.9.14-3.562.812-5.883a31.545,31.545,0,0,1,3.735-7.5,102,102,0,0,1,8.249-11.131,54.551,54.551,0,0,1,8.356-8.827c.249-.192.5-.382.755-.566,1.371-.991,2.816-2.369,4.346-1.492a18.433,18.433,0,0,1,4.165,3.087c2.41,2.6,2.951,6.448,3.49,10.015.439,2.894.823,4.958-.653,7.747a26.451,26.451,0,0,1-4.1,5.321c-2.314,2.525-4.634,5.052-7.09,7.425C54.5,85,61.679,92.523,68.155,100.729c.388.49-4.828,5.9-5.383,6.476-1.331,1.386-5.625,5.319-7.677,4.7-.888-.267-2.637-2.947-3.353-3.706q-2.062-2.18-4.123-4.362Q39.65,95.4,31.681,86.968a41.406,41.406,0,0,1-5.088-6.459,6.59,6.59,0,0,1-.8-1.736" transform="translate(176.146 39.648)" fill="#9fc0f8"/>
              <path id="Trazado_1272268" data-name="Trazado 1272268" d="M19.319,44.22a25.477,25.477,0,0,0,11.063,6.062,58.53,58.53,0,0,0,14.195,1.692c2.774.075,5.547.123,8.321.182.079,0,.269.025.269.144s-.194.144-.269.142c-2.524-.054-5.049-.1-7.573-.163-2.465-.06-4.933-.15-7.391-.378A37.183,37.183,0,0,1,24.785,48.51a23.256,23.256,0,0,1-5.931-4.145c-.177-.173.338-.269.465-.144" transform="translate(203.679 40.633)" fill="#395795"/>
              <path id="Trazado_1272269" data-name="Trazado 1272269" d="M30.916,39.3c.068-.232.419-.219.6-.163a1.638,1.638,0,0,1,.592.47,15.155,15.155,0,0,0,1.41,1.179A23.441,23.441,0,0,0,36.7,42.726c1.126.586,2.277,1.121,3.421,1.663,1.24.584,2.484,1.16,3.748,1.693.7.294,1.4.566,2.1.841a6.572,6.572,0,0,1,1.81.972c.1.081-.024.171-.1.2a.413.413,0,0,1-.369-.052,5.757,5.757,0,0,0-1.522-.833c-.574-.227-1.152-.444-1.72-.678-1.2-.492-2.379-1.023-3.556-1.573a53.936,53.936,0,0,1-6.376-3.272,17.774,17.774,0,0,1-1.589-1.135c-.253-.2-.5-.413-.738-.632-.114-.108-.229-.215-.34-.324-.041-.04-.09-.081-.135-.125-.166.061-.467,0-.421-.163" transform="translate(186.714 35.98)" fill="#395795"/>
              <path id="Trazado_1272270" data-name="Trazado 1272270" d="M34.33,46.742a.4.4,0,0,1,.369-.052,10.745,10.745,0,0,1,3.2,1.732c1.019.76,2,1.6,2.951,2.446a16.357,16.357,0,0,1,1.578,1.592c.166.2-.349.28-.465.144a23.341,23.341,0,0,0-2.811-2.65,22.679,22.679,0,0,0-2.877-2.172,8.39,8.39,0,0,0-1.849-.845c-.089-.029-.177-.106-.1-.2" transform="translate(185.816 42.938)" fill="#395795"/>
              <path id="Trazado_1272271" data-name="Trazado 1272271" d="M31.586,52.4a29.374,29.374,0,0,1,1.5,5.3c.037.173-.495.207-.537,0a28.884,28.884,0,0,0-1.486-5.221c-.083-.2.447-.252.52-.077" transform="translate(201.168 48.114)" fill="#395795"/>
              <path id="Trazado_1272272" data-name="Trazado 1272272" d="M36.5,64.6a10.443,10.443,0,0,1,3.466-3.9.425.425,0,0,1,.382,0c.1.058.1.146,0,.2a10.074,10.074,0,0,0-3.327,3.775c-.1.161-.624.094-.52-.077" transform="translate(183.818 55.806)" fill="#395795"/>
              <path id="Trazado_1272273" data-name="Trazado 1272273" d="M54.321,20.882l-2.888,3.639a18.511,18.511,0,0,0-1.8,2.554,18.951,18.951,0,0,0-.989,2.25l-1.772,4.554q-.191-3.024-.386-6.048a10.285,10.285,0,0,0-2.227-5.4l-.024-.036a9.481,9.481,0,0,1-1.087-1.93c-.633-1.742.269-2.972,1.567-4.005.125-.1.255-.2.382-.294A16.1,16.1,0,0,1,47.8,14.525a4.862,4.862,0,0,1,1.973-.624c.749.012.782.267,1.244.912a20.648,20.648,0,0,0,3.056,3.418c.465.415,1,.935.9,1.565a1.84,1.84,0,0,1-.445.82l-.212.267" transform="translate(157.345 12.789)" fill="#ffa87d"/>
              <path id="Trazado_1272274" data-name="Trazado 1272274" d="M50.739,19.254a5.234,5.234,0,0,1-2.229,2.093l-.024-.036a9.481,9.481,0,0,1-1.087-1.93c-.631-1.741.271-2.97,1.569-4.005.125-.1.253-.2.38-.294a3.058,3.058,0,0,1,.655.186,2.3,2.3,0,0,1,1.152,1.01,1.718,1.718,0,0,1,.105.23,3.3,3.3,0,0,1-.52,2.746" transform="translate(153.091 13.876)" fill="#e06f63"/>
              <path id="Trazado_1272275" data-name="Trazado 1272275" d="M60.729,16.818a9.031,9.031,0,0,0,.037-3.347,9.838,9.838,0,0,0-2.222-4.654,4.581,4.581,0,0,0-2.63-1.726,21.485,21.485,0,0,0-3.5-.244,9.414,9.414,0,0,0-5.064,1.578c-1.474.975-2.157,3.168-2.139,4.925.011.941.209,1.87.266,2.811a5.2,5.2,0,0,1-.194,1.916,3.581,3.581,0,0,1-.958,1.363c-.709.76-1.471,1.678-.432,2.544a2.807,2.807,0,0,1,1.131,1.872c.218,1.365.168,3.537,1.519,4.3a2.808,2.808,0,0,0,1.53.305,10.346,10.346,0,0,0,5.56-2.327,20.521,20.521,0,0,0,1.694-1.717c1.731-1.838,3.772-3.477,4.826-5.8a8.348,8.348,0,0,0,.574-1.791" transform="translate(150.6 6.293)" fill="#ffa87d"/>
              <path id="Trazado_1272276" data-name="Trazado 1272276" d="M52.006,11.939c.258-.015.936-.065.729-.253a2.369,2.369,0,0,0-2.685-.319c-.441.246-.6.854.057.881a2.019,2.019,0,0,0,.572-.1,7.114,7.114,0,0,1,1.236-.207c.011,0,.044,0,.09-.006" transform="translate(147.142 10.201)" fill="#231c20"/>
              <path id="Trazado_1272277" data-name="Trazado 1272277" d="M50.342,12.511a.553.553,0,0,1,.675-.48c.45.125.454.912.354,1.285a.476.476,0,0,1-.782.4,1.247,1.247,0,0,1-.247-1.2" transform="translate(147.341 11.049)" fill="#231c20"/>
              <path id="Trazado_1272278" data-name="Trazado 1272278" d="M51.822,23.183A13.574,13.574,0,0,0,49.644,21.6a2.178,2.178,0,0,1-1.393-1.288,6.614,6.614,0,0,0-.888-1.571A6.913,6.913,0,0,1,46.6,17.1a10.712,10.712,0,0,0-2.163-3.241c-.722-.741-1.55-1.371-2.209-2.174-.7-.849-1.458-2.306-.751-3.366A4.016,4.016,0,0,1,43.866,6.96,14.536,14.536,0,0,1,53.621,8.1c2.3,1.206,5.422,3.988,5.245,6.916-.19,1.878-.249,3.775-.421,5.658a5.048,5.048,0,0,1-.779,2.7A2.908,2.908,0,0,1,55.6,24.394a5.489,5.489,0,0,1-3.777-1.212" transform="translate(156.675 6.046)" fill="#231c20"/>
              <path id="Trazado_1272279" data-name="Trazado 1272279" d="M40.844,16.226c.463.628,1.048,1.39,1.842,1.484,1.105.131,2.31.2,2.954-.916a4.011,4.011,0,0,0,.2-3.312,5.536,5.536,0,0,0-5.4-3.621,3.213,3.213,0,0,0-1.928.593,3.85,3.85,0,0,0-.781.841,1.769,1.769,0,0,0-.336.889c-.02.691.751.954,1.22,1.308a12.471,12.471,0,0,1,2.227,2.734" transform="translate(176.458 9.07)" fill="#231c20"/>
              <path id="Trazado_1272280" data-name="Trazado 1272280" d="M46.977,12.365a2.363,2.363,0,0,0-.67.883,3.778,3.778,0,0,0-.164,2.763c.312.845,1.205,1.768,2.1,1.181a2.721,2.721,0,0,0,.8-.95,4.387,4.387,0,0,0,.707-2.306,1.834,1.834,0,0,0-2.061-1.891,1.545,1.545,0,0,0-.7.321" transform="translate(157.024 11.059)" fill="#ffa87d"/>
              <path id="Trazado_1272281" data-name="Trazado 1272281" d="M50.453,15.806l1.314-.073a.4.4,0,0,1,.317.165.122.122,0,0,1,.026.119c-.018.04-.068.048-.107.05q-.656.035-1.312.073a.4.4,0,0,1-.319-.165.133.133,0,0,1-.026-.119.119.119,0,0,1,.107-.05" transform="translate(146.556 14.475)" fill="#e06f63"/>
              <path id="Trazado_1272282" data-name="Trazado 1272282" d="M47.82,7.552a9.936,9.936,0,0,0,4.366,5.914c.1.06.1.144,0,.2a.427.427,0,0,1-.38,0A10.178,10.178,0,0,1,47.3,7.628c-.057-.219.474-.252.52-.077" transform="translate(152.033 6.844)" fill="#395795"/>
              <path id="Trazado_1272283" data-name="Trazado 1272283" d="M45.989,9.425a9.209,9.209,0,0,0,3.388,2.615c.105.048.087.15,0,.2a.44.44,0,0,1-.38,0,9.467,9.467,0,0,1-3.473-2.675c-.162-.2.352-.282.465-.144" transform="translate(158.169 8.608)" fill="#395795"/>
              <path id="Trazado_1272284" data-name="Trazado 1272284" d="M41.776,7.555a.4.4,0,0,1,.369-.052,13.366,13.366,0,0,1,6.1,4.708c.072.1-.131.165-.188.175a.336.336,0,0,1-.33-.1A12.9,12.9,0,0,0,41.872,7.75c-.085-.033-.179-.1-.1-.2" transform="translate(166.278 6.882)" fill="#395795"/>
              <path id="Trazado_1272285" data-name="Trazado 1272285" d="M41.929,17.327a4.9,4.9,0,0,0,2.709-3.973c.018-.2.557-.19.539,0a5.149,5.149,0,0,1-2.868,4.174.427.427,0,0,1-.38,0c-.09-.052-.107-.152,0-.2" transform="translate(169.155 12.151)" fill="#395795"/>
              <path id="Trazado_1272286" data-name="Trazado 1272286" d="M43.317,15.387c.052-.108.238-.111.332-.1a1.76,1.76,0,0,0,.389,0,1.879,1.879,0,0,0,.428-.1,2.052,2.052,0,0,0,.76-.486.4.4,0,0,1,.369-.052c.085.027.186.108.1.2a2.675,2.675,0,0,1-2.189.718c-.074-.01-.24-.067-.188-.177" transform="translate(165.923 13.457)" fill="#395795"/>
              <path id="Trazado_1272287" data-name="Trazado 1272287" d="M38.522,10.36a.405.405,0,0,1,.369-.052,6.593,6.593,0,0,1,3.372,2.081,4.107,4.107,0,0,1,.821,1.6,2.028,2.028,0,0,1-.242,1.786c-.111.136-.629.056-.465-.144a1.964,1.964,0,0,0,.146-1.717,3.965,3.965,0,0,0-.8-1.471,6.208,6.208,0,0,0-3.1-1.887c-.09-.025-.175-.108-.1-.2" transform="translate(177.362 9.464)" fill="#395795"/>
              <path id="Trazado_1272288" data-name="Trazado 1272288" d="M39.359,11.968a.344.344,0,0,1,.332.1,1.9,1.9,0,0,1,.09,1.83c-.085.171-.613.113-.52-.075a1.731,1.731,0,0,0-.09-1.678c-.066-.1.125-.169.188-.177" transform="translate(179.337 11.006)" fill="#395795"/>
              <path id="Trazado_1272289" data-name="Trazado 1272289" d="M41.466,10.486a23.5,23.5,0,0,0,.391,3.112c.035.175-.5.207-.539,0a23.505,23.505,0,0,1-.391-3.112c-.011-.192.528-.2.539,0" transform="translate(174.185 9.511)" fill="#395795"/>
              <path id="Trazado_1272290" data-name="Trazado 1272290" d="M57.759,63.667a5.713,5.713,0,0,1-2.087.192,5.444,5.444,0,0,0-1.725-.069c-1.31.3-1.216,2.035-1.356,3.118-.05.4-.17.879-.544.979-.408.108-.744-.334-.93-.726a.991.991,0,0,1-.841.966.97.97,0,0,1-1-.78,1.038,1.038,0,0,1-1.126.62,1.079,1.079,0,0,1-.819-1.016c.007.7-.956.862-1.419.564-.6-.386-.5-1.45-.428-2.064a7.932,7.932,0,0,1,1.629-4.637,7.737,7.737,0,0,1,4.368-1.834q.828-.158,1.655-.313a9.293,9.293,0,0,0,2.095-.57c1.546-.693,2.921-2.435,4.305-3.448a36.2,36.2,0,0,0,4.626-4.683c3.172-3.389,6.376-6.751,9.734-9.942,2.349-2.231,4.47-4.837,7.9-4.706a5.409,5.409,0,0,1,4.529,2.594c3.309,5.941-3.96,9.917-7.71,12.678A173.212,173.212,0,0,1,61.982,61.2c-.707.407-1.2,1.033-1.906,1.442a9.909,9.909,0,0,1-2.316,1.027" transform="translate(120.586 32.491)" fill="#ffa87d"/>
              <path id="Trazado_1272291" data-name="Trazado 1272291" d="M43.389,50.886a6.472,6.472,0,0,1-2.1-4.493,5.108,5.108,0,0,1,1.135-3.262,40.885,40.885,0,0,0,2.539-4.466q1.387-2.514,2.751-5.038c.692-1.283,1.449-3.719,2.683-4.453a5.971,5.971,0,0,1,4.72-.038,7.416,7.416,0,0,1,4.014,3.525,5.358,5.358,0,0,1-.332,5.315q-2.414,4.551-5.232,8.85c-1.548,2.362-3.3,5.747-6.453,5.791a5.489,5.489,0,0,1-3.73-1.73" transform="translate(155.672 26.375)" fill="#ffa87d"/>
              <path id="Trazado_1272292" data-name="Trazado 1272292" d="M47.254,24.514a13.5,13.5,0,0,1,1.711-3.648,4.148,4.148,0,0,1,3.5-1.853A6.038,6.038,0,0,1,55.127,20.2a14.023,14.023,0,0,1,3.929,3.349c2.584,3.617,1.659,7.788.238,11.659L52.4,54a5.721,5.721,0,0,0-1.8-.693,7.938,7.938,0,0,1-1.572-.826L44.97,49.953a39.911,39.911,0,0,1-7.221-5.3,17.844,17.844,0,0,0,2.589-4.28q1.323-2.523,2.53-5.111,2.411-5.178,4.327-10.58c.02-.056.039-.111.059-.167" transform="translate(161.222 17.483)" fill="#9fc0f8"/>
              <path id="Trazado_1272293" data-name="Trazado 1272293" d="M64.493,51.232a4.333,4.333,0,0,1,1.061-1.926c.122-.129.64-.04.465.144a4.1,4.1,0,0,0-1.011,1.882,7.053,7.053,0,0,0-.135,1.181L64.8,53.866c-.011.2-.55.194-.541,0a14.119,14.119,0,0,1,.233-2.634" transform="translate(106.93 45.308)" fill="#e06f63"/>
              <path id="Trazado_1272294" data-name="Trazado 1272294" d="M65.568,51.375a4.517,4.517,0,0,1,1.2-2.406.4.4,0,0,1,.369-.052c.081.027.188.108.1.2a4.38,4.38,0,0,0-1.157,2.408c-.188.985-.249,2-.352,3-.022.2-.559.188-.539,0a30.94,30.94,0,0,1,.38-3.147" transform="translate(104.004 44.986)" fill="#e06f63"/>
              <path id="Trazado_1272295" data-name="Trazado 1272295" d="M67.887,48.8c.124-.125.642-.035.465.144-1.441,1.469-1.572,3.688-1.665,5.66-.009.2-.548.2-.539,0,.1-2.039.251-4.289,1.738-5.8" transform="translate(101.113 44.845)" fill="#e06f63"/>
              <path id="Trazado_1272296" data-name="Trazado 1272296" d="M46.851,40.9a3.256,3.256,0,0,0,2.2-2.1c.063-.18.591-.227.524-.035a3.805,3.805,0,0,1-2.667,2.414c-.079.019-.266.029-.292-.084s.166-.179.236-.2" transform="translate(155.973 35.552)" fill="#e06f63"/>
              <path id="Trazado_1272297" data-name="Trazado 1272297" d="M38.237,44.989,43.3,31.437q.709-1.9,1.419-3.8c.065-.173.6-.131.52.077q-2.533,6.774-5.066,13.552-.711,1.9-1.419,3.8c-.065.173-.6.131-.52-.077" transform="translate(175.774 25.33)" fill="#395795"/>
              <path id="Trazado_1272298" data-name="Trazado 1272298" d="M42.435,44.636c1.705-3.251,3.189-6.62,4.582-10.027-.074-.023-.131-.065-.138-.129a35.748,35.748,0,0,1-.26-3.873c0-.2.537-.2.539,0,.013,1.068.077,2.133.186,3.195.031-.075.063-.152.092-.227.764-1.893,1.5-3.8,2.244-5.7q.551-1.408,1.1-2.817c.321-.814.646-1.632,1.043-2.412.827-1.628,2.268-3.623,4.25-3.529.079,0,.269.023.269.144s-.2.146-.269.142a3.072,3.072,0,0,0-2.213,1.116A8.591,8.591,0,0,0,52.4,22.607a24.878,24.878,0,0,0-1.026,2.337q-.545,1.38-1.081,2.763c-1.436,3.687-2.864,7.377-4.46,10.992-.9,2.035-1.851,4.046-2.881,6.014-.089.167-.616.108-.52-.077" transform="translate(156.94 17.587)" fill="#395795"/>
              <path id="Trazado_1272299" data-name="Trazado 1272299" d="M49.426,64.1c-.255-.186.026-.868.113-1.062a3.666,3.666,0,0,1,.662-1.021,7.148,7.148,0,0,1,3.707-1.791,23.2,23.2,0,0,0,4.335-1.413,16.891,16.891,0,0,0,3.726-2.421c1.133-.95,2.181-2.006,3.22-3.068q1.741-1.777,3.48-3.56,3.54-3.623,7.083-7.244c2.264-2.316,4.562-4.606,6.69-7.06.264-.305.526-.612.782-.922.113-.134.631-.054.465.144-2.078,2.5-4.359,4.8-6.621,7.112Q73.541,45.4,70.013,49.01L66.5,52.6c-1.061,1.085-2.113,2.183-3.233,3.2a19.9,19.9,0,0,1-3.545,2.646,18.409,18.409,0,0,1-4.195,1.684,13.246,13.246,0,0,0-4.15,1.417,3.677,3.677,0,0,0-1.277,1.44,4.234,4.234,0,0,1-.483,1.039c-.05.058-.131.113-.192.069" transform="translate(116.832 31.716)" fill="#e06f63"/>
              <path id="Trazado_1272300" data-name="Trazado 1272300" d="M70.652,101.985a4.894,4.894,0,0,0,7.092.392,5.386,5.386,0,0,0-.24-7.385,4.9,4.9,0,0,0-7.092-.392,5.386,5.386,0,0,0,.24,7.385" transform="translate(85.032 85.804)" fill="#395795"/>
              <path id="Trazado_1272301" data-name="Trazado 1272301" d="M71.15,99.336a2.736,2.736,0,0,0,3.964.219,3.009,3.009,0,0,0-.135-4.126,2.736,2.736,0,0,0-3.964-.219,3.009,3.009,0,0,0,.135,4.126" transform="translate(86.046 86.91)" fill="#231c20"/>
            </g>
          </g>
        </g>
      </g>
    </g>
    <g id="Grupo_1207817" data-name="Grupo 1207817" transform="translate(1025.256 3288.603)">
      <g id="Grupo_1207816" data-name="Grupo 1207816" transform="translate(0 0)">
        <path id="Sustracción_117" data-name="Sustracción 117" d="M4.03,0A20.137,20.137,0,0,0,0,.409V19.928a19.378,19.378,0,0,1,8.018,2.4,32.225,32.225,0,0,1,6.11,5.1l.008.007.015.016.009.009a44.246,44.246,0,0,0,4.422,3.973,20.662,20.662,0,0,0,12.28,4.12c.587,0,1.174-.026,1.742-.077a39.858,39.858,0,0,0,5.437-1l.021,0,.015,0c1-.232,2.241-.522,3.439-.733a31.793,31.793,0,0,1,12.461.309,18.894,18.894,0,0,1,5.743,2.235h7.9a25.946,25.946,0,0,0-2.9-4.681,19.44,19.44,0,0,0-7.273-5.883C53.2,23.8,48.466,23.752,43.884,23.7H43.8c-.606-.007-1.294-.016-1.949-.03-5.07-.1-10.817-.692-15-4.285-2.374-2.037-4.032-4.873-5.634-7.614l0,0,0,0,0-.005,0-.007a34.2,34.2,0,0,0-4.726-6.774A17.169,17.169,0,0,0,4.03,0Z" transform="translate(0.001 0)" fill="#9fc0f8" stroke="rgba(0,0,0,0)" stroke-miterlimit="10" stroke-width="1"/>
        <path id="Sustracción_118" data-name="Sustracción 118" d="M0,0H0V11.8H8.521a1.991,1.991,0,0,0,.65-.86c.74-1.958-1.631-5.865-2.52-7.08A10.124,10.124,0,0,0,0,0Z" transform="translate(0 24.48)" fill="#ff9ebf" stroke="rgba(0,0,0,0)" stroke-miterlimit="10" stroke-width="1"/>
      </g>
      <g id="Grupo_1207818" data-name="Grupo 1207818" transform="translate(395.122 35.732) rotate(180)">
        <path id="Sustracción_117-2" data-name="Sustracción 117" d="M4.04,35.731a20.538,20.538,0,0,1-4.04-.4V16.106A19.682,19.682,0,0,0,8.038,13.74a32.179,32.179,0,0,0,6.125-5.023l.008-.007.015-.016.009-.009A44.1,44.1,0,0,1,18.63,4.772,20.961,20.961,0,0,1,30.94.715c.589,0,1.177.026,1.746.076a40.606,40.606,0,0,1,5.45.985l.021,0,.015,0c1,.229,2.247.514,3.448.721a32.248,32.248,0,0,0,5.469.465A32.357,32.357,0,0,0,54.113,2.2,19.145,19.145,0,0,0,59.871,0h7.916a25.48,25.48,0,0,1-2.9,4.609A19.429,19.429,0,0,1,57.591,10.4c-4.253,1.885-9,1.937-13.6,1.988h-.082c-.608.007-1.3.016-1.954.029-5.083.1-10.844.682-15.04,4.219-2.38,2.006-4.042,4.8-5.648,7.5l0,0,0,0,0,.005,0,.007a33.673,33.673,0,0,1-4.738,6.671A17.375,17.375,0,0,1,4.04,35.731Z" transform="translate(0.001 0.001)" fill="#ff9ebf" stroke="rgba(0,0,0,0)" stroke-miterlimit="10" stroke-width="1"/>
        <path id="Sustracción_118-2" data-name="Sustracción 118" d="M0,11.8H0V0H8.521a1.991,1.991,0,0,1,.65.86c.74,1.958-1.631,5.865-2.52,7.08A10.124,10.124,0,0,1,0,11.8Z" fill="#9fc0f8" stroke="rgba(0,0,0,0)" stroke-miterlimit="10" stroke-width="1"/>
      </g>
    </g>
  </g>
</svg>
