<svg xmlns="http://www.w3.org/2000/svg" xmlns:xlink="http://www.w3.org/1999/xlink" width="187.711" height="161.667" viewBox="0 0 187.711 161.667">
  <defs>
    <clipPath id="clip-path">
      <rect id="Rectángulo_460788" data-name="Rectángulo 460788" width="121.904" height="126.475" fill="none"/>
    </clipPath>
  </defs>
  <g id="Grupo_1212932" data-name="Grupo 1212932" transform="translate(-289.711 -1099)">
    <g id="Grupo_1209194" data-name="Grupo 1209194" transform="translate(0.145 -112.289)">
      <g id="Grupo_1208298" data-name="Grupo 1208298" transform="translate(0.289 -7656.75)">
        <g id="Grupo_1204518" data-name="Grupo 1204518" transform="translate(289.277 8868.039)">
          <rect id="Rectángulo_455283" data-name="Rectángulo 455283" width="187.711" height="161.667" rx="19" fill="#e9c3ff"/>
        </g>
      </g>
      <g id="Grupo_1211373" data-name="Grupo 1211373" transform="translate(322.566 1228.289)">
        <g id="Grupo_1211372" data-name="Grupo 1211372" clip-path="url(#clip-path)">
          <path id="Trazado_1274415" data-name="Trazado 1274415" d="M39.054,18.034c-.142-1.058-1.073-.712-.2-2.54,1.063-2.228,5-4.127,5.44-5.036.477-1,.305-3.663,1.077-5.421C48.528-2.15,59.924-1.537,61.911,6.186c.3,1.163.212,3.787.705,4.529.131.2,3.113,2.117,3.747,2.751,4.6,4.6,5.693,10.71,5.562,17.033a8,8,0,0,1-3.085,6.669,9.794,9.794,0,0,1-1.922.788,9.193,9.193,0,0,0-.384,2.564c.158.573,1.73,1.412,2.314,2.046.57.618.728,1.474,1.267,1.982,3.339,3.15,8.944,2.933,10.923,8.933.959,2.909.678,10.049-3.72,9.315-.013-.217-.71-.788-.758-1.621-.08-1.387.905-2.1,1.1-3.272.852-5.234-3.561-7.251-7.554-8.825l-1.088,2.706c-1.882,1.311-6.445,7.88-8.2,8.413-2.631.8-3.521-3.152-5.521-4.259V68.754c0,1.79-3.61,1.46-3.61.361V55.938c-.852-.228-.61.222-.825.462-1.545,1.731-2.482,4.786-5.227,3.631-.389-.164-5.187-5.319-5.852-6.088-.78-.9-1.726-2.043-2.417-3-.32-.446-.437-1.462-.687-1.526-.922-.232-4.577,1.874-5.389,2.554-5.708,4.784,2.326,13.381,4.336,18.407.664,1.183,4.812-1.347,4.832-1.614-.669-1.788-4.434-6.227-2.858-7.956a2.09,2.09,0,0,1,2.164-.36C41.58,61.267,48.418,77.2,50.611,79.6c2.084-.274,4.337-.471,6.317-.918L66.73,60.6c2.315-.979,3.607.512,2.728,2.815-.381,1-2.829,4.376-2.933,5.031-.123.781,3.647,2.48,4.427,2.318.24-.05,1.436-3.118,2.19-3.664.807-.585,1.483-.17,2.01-.336,2.925,2.348-1.452,5.042-1.7,7.445a24.685,24.685,0,0,0,.723,4.9c1.091,4.7,3.787,8.35,6.752,12.041,1.74-.516,4.4.171,5.894-.187.273-.065,1.035-3.007,3.552-3.741,3.991-1.163,5.489,3.02,8.414,3.374a16.565,16.565,0,0,0,3.9-.082c1.093-.324,1.429-2.089,3.716-2.419,7.854-1.13,14.728,5.97,15.324,13.49.168,2.124.312,8.557-.091,10.4a2.038,2.038,0,0,1-2.449,1.7c-.043-.112-1.231-.663-1.343-1.667-.3-2.687.564-6.96.257-10.061-.584-5.884-5.741-11.285-11.859-9.88-.56.88,2.071,9.169,2.836,10.239.974,1.362,3.727,2.192,2.989,4.04-.959,2.4-3.458.713-4.8-.422-.9-.766-.978-2.161-2.167-1.463-3.385,1.987-.9,9.784-6.651,11.761-1.989.684-5.588-.016-5.25,3.374.2,1.969,1.607,2.6,3.408,2.763,4.117.374,11.7.327,15.32-1.685,1.984-1.1,2.94-3.69,5.456-2.305.011.685.749,1.245.173,2.52-.517,1.146-4.732,3.606-6.028,4.079-3.149,1.148-14.061,1.57-17.274.826a7.8,7.8,0,0,1-3.413-2.362c-.537-.693-.911-2.056-1.125-2.21-2.147-1.547-11.021-.232-13.97-.7-1.779,3.785-5.446,5.146-9.431,5.445-20.719,1.552-43.358-1.191-64.278-.014a1.81,1.81,0,1,1-.174-3.61H35.083V114.42H1.51c-2.04-.305-1.9-3.257.361-3.61,2.762-.43,6.5.317,9.386,0V97.453c-2.97-.262-6.493.356-9.386,0-1.982-.244-2.4-2.517-1.2-3.277,1.521-.966,7.8.087,10.039-.34,1.041-.2,1.389-1.322,2.22-1.751,1.112-.574,6.141-.626,7.459-.33,1.943.435,1.615,2.877,3.989,2.029,4.094-6.2,9.467-11.845,8.826-19.9C29.188,64.667,19,55.236,31.23,47.573c3.514-2.2,3.983-1.8,6.914-5,.57-.622,2.17-1.511,2.3-2.043.625-2.529-2.305-2.973-3.555-4.27-2.165-2.246-2.067-7.133-1.821-10.118.14-1.7.319-3.761,2.54-3.417.025.066.89.5,1.1.876,1.123,1.981-.685,9.439,1.248,10.312l3.081-3.41c2.435-1.008,5.06-1.542,7.018-3.451.869-.847,1.809-3.1,2.909-3.256,2.142-.3,2.526,1.873,3.757,3.1,2.445,2.428,5.29,2.3,7.573,3.979.922.679,2.187,3,2.375,3.044,1.743.425,1.364-7.326,1.272-8.5A14.557,14.557,0,0,0,44.1,15.322c-1.521,1.228-2.768,4.068-5.05,2.712M58.546,8.646c-.188-5-6.914-6.954-9.457-2.417-2.043,3.645.58,2.106,2.763,2.041a43.147,43.147,0,0,1,6.694.376M53.832,28.881l-.508-.009a14.931,14.931,0,0,1-3.562,2.94c-3.857,2.178-7.126,1.039-5.857,7.181C45.688,47.616,58.763,49.034,62.42,40.5c3.854-9-5.316-6.193-8.588-11.617m-2.5,20.924a14.043,14.043,0,0,1-7.418-3.6c-1.031-.906-.931-2.4-2.526-1.478-4.649,2.688,3.533,8.551,5.118,10.821.678.118,4.18-4.87,4.825-5.747m4.332,0c.538.937,4.145,5.947,4.861,5.772,1.556-2.83,7.052-5.544,6.26-9.125-.175-.791-1.277-2.271-2.2-2.027-.465.122-3.184,3.132-4.475,3.862a12.6,12.6,0,0,1-4.442,1.518m6.135,45.48c-.243-6.53-5.353-4.152-9.533-4.723-4.523-.617-5.049-4.014-4.345-7.919l-5.6-10.306C41.7,71.945,39.093,74.07,38,74.02l.251,1.673L47.87,93.51c.958.694,5.564.238,7.2.379,2.27.2,4.494,1,6.723,1.4m-9.926-8.662c1.324.41,8.425,0,10.469,0L68.647,74.85c.545-.91-3.188-2.379-3.777-2.326-.516.047-.6.251-.869.6-1.559,2.043-3.029,7.175-4.724,8.991-1.833,1.962-6.409-.155-7.605,1.87-.386.653-.637,2.377.2,2.635m26.173,19.131c-.093-3.2-1.981-6.182-1.285-9.408.172-.8.857-1.625.925-2.361.179-1.936-3.287-4.5-4.034-6.4L70.1,79.767a77.515,77.515,0,0,1-4.035,8.06c-.423.68-1.544,1.4-1.695,1.945-.285,1.041,1.913,5.3,1.018,7.078,3.044,1.708,6.805,3.839,8.976,6.622,1.383,1.773.611,2.778,3.674,2.282M39.054,95.648c.006-2.82,2.9-1.382,4.69-1.983l-7.575-13.54c-.732,5.289-4.3,9.305-7.221,13.54,1.592.449,4.9-.549,5.052,1.983A2.738,2.738,0,0,1,33.553,97c-1.082,1.048-8.805.142-10.745.451V110.81H35.083c.248,0-.348-3.523,2.369-3.948a35.368,35.368,0,0,1,6.455,0c1.312.209,1.567,1.269,2.889,1.443,4.912.648,13.79-1.368,17.873,1.26,3.977,2.56,5.342,8.545,2.544,12.434,7.282-.5,3.757-5.259,3.959-9.939.093-2.158,1.542-4.475.372-6.12-3.431-4.827-12.494-8.073-18.233-8.481-3.8-.27-9.6.635-12.983-.013-1.034-.2-1.275-.817-1.273-1.8m63.458-1.008c-.882-.647-4.351-.251-5.71-.6-1.607-.419-3.944-3.2-5.216-3.108S90.8,93.96,88.977,94.49c-2.509.731-7.61-1.352-8.607,2.6-.741,2.936,3.168,10.806,2.664,13.813-.206,1.232-1.108,1.55-2.27,1.353-1.71-.29-1.37-2.589-1.675-2.853a11.756,11.756,0,0,0-3.6.12c-.784.566-.743,6.25-.178,7.086.441.653,10.555.288,12.311.323.705.014,1.72.465,2.11.406.233-.035,1.55-2.8,2.977-3.59,1.973-1.1,5.164-.167,6.1-2.922.783-2.3.348-4.289,1.9-6.763.688-1.1,3.056-2.922,3.259-3.62a18.935,18.935,0,0,0-1.462-5.8m-83.673.647H14.867V110.81h3.971Zm23.826,27.075V110.629c0-.8-3.971-.8-3.971,0v11.732Zm3.61,0H60.533a11.055,11.055,0,0,0,3.068-1.625,5.3,5.3,0,0,0,.159-7.017,8.2,8.2,0,0,0-2.866-1.827H46.274Z" transform="translate(0 0)" fill="#050404"/>
          <path id="Trazado_1274416" data-name="Trazado 1274416" d="M129.144,149.671a21.451,21.451,0,0,1-2.166,3.971c-.527.166-1.2-.249-2.01.336-.754.546-1.95,3.614-2.19,3.664-.78.162-4.551-1.537-4.427-2.318.1-.655,2.552-4.032,2.933-5.031.878-2.3-.413-3.794-2.728-2.815l-9.8,18.082c-1.98.447-4.233.644-6.317.918-2.193-2.408-9.031-18.336-10.845-19.159a2.09,2.09,0,0,0-2.164.36c-1.576,1.729,2.189,6.169,2.858,7.956-.02.267-4.168,2.8-4.832,1.614-2.01-5.026-10.044-13.623-4.336-18.407.812-.68,4.467-2.786,5.389-2.554.251.063.367,1.08.687,1.526.69.962,1.636,2.1,2.417,3,.665.77,5.463,5.924,5.852,6.088,2.744,1.155,3.682-1.9,5.227-3.631.215-.24-.027-.69.825-.462v13.176c0,1.1,3.61,1.429,3.61-.361V142.812c2,1.107,2.89,5.06,5.521,4.259,1.75-.533,6.313-7.1,8.2-8.413l1.088-2.706c3.993,1.574,8.406,3.591,7.554,8.825-.19,1.167-1.175,1.886-1.1,3.272.048.833.744,1.4.758,1.621" transform="translate(-51.825 -86.874)" fill="#ff9ebf"/>
          <path id="Trazado_1274417" data-name="Trazado 1274417" d="M105.531,39.193c2.282,1.356,3.529-1.484,5.05-2.712a14.557,14.557,0,0,1,23.843,10.1c.092,1.169.471,8.92-1.272,8.5-.187-.046-1.453-2.365-2.375-3.044-2.283-1.68-5.129-1.551-7.573-3.979-1.231-1.222-1.615-3.4-3.757-3.1-1.1.156-2.04,2.409-2.909,3.256-1.958,1.909-4.584,2.443-7.018,3.451l-3.081,3.41c-1.933-.873-.125-8.331-1.248-10.312-.213-.375-1.078-.81-1.1-.876-.4-1.063,1.616-3.411,1.444-4.693" transform="translate(-66.478 -21.16)" fill="#8f808f"/>
          <path id="Trazado_1274418" data-name="Trazado 1274418" d="M284.14,276.306c.465,1.215-1.82,3.784-1.8,4.693-2.516-1.384-3.472,1.2-5.456,2.305-3.62,2.011-11.2,2.059-15.32,1.685-1.8-.164-3.212-.794-3.408-2.763-.338-3.39,3.261-2.69,5.25-3.374,5.75-1.978,3.266-9.774,6.651-11.761,1.189-.7,1.263.7,2.167,1.463,1.341,1.136,3.841,2.822,4.8.422.738-1.848-2.014-2.677-2.989-4.04-.765-1.07-3.4-9.359-2.836-10.239,6.118-1.4,11.275,4,11.859,9.88.308,3.1-.556,7.375-.257,10.061.112,1,1.3,1.556,1.343,1.667" transform="translate(-164.945 -162.608)" fill="#633c0b"/>
          <path id="Trazado_1274419" data-name="Trazado 1274419" d="M4.182,316.954H37.755V324.9H4.543c-.193-2.588.431-5.461-.361-7.942" transform="translate(-2.672 -202.534)" fill="#fcb0a3"/>
          <path id="Trazado_1274420" data-name="Trazado 1274420" d="M5.182,269.836c2.893.356,6.416-.262,9.386,0v13.357c-2.883.317-6.624-.43-9.386,0Z" transform="translate(-3.311 -172.383)" fill="#636363"/>
          <path id="Trazado_1274421" data-name="Trazado 1274421" d="M79.427,264.954c0,.978.24,1.6,1.273,1.8,3.383.648,9.182-.257,12.983.013,5.739.408,14.8,3.654,18.233,8.481,1.17,1.646-.279,3.963-.372,6.12-.2,4.68,3.323,9.438-3.959,9.939,2.8-3.889,1.434-9.874-2.544-12.434-4.083-2.628-12.961-.612-17.873-1.26-1.321-.174-1.577-1.235-2.889-1.443a35.372,35.372,0,0,0-6.455,0c-2.717.425-2.121,3.948-2.369,3.948H63.182V266.759c1.939-.309,9.663.6,10.745-.451a2.738,2.738,0,0,0,.446-1.354Z" transform="translate(-40.373 -169.306)" fill="#9fc0f8"/>
          <path id="Trazado_1274422" data-name="Trazado 1274422" d="M235.081,255.585a18.937,18.937,0,0,1,1.462,5.8c-.2.7-2.571,2.524-3.259,3.62-1.553,2.474-1.118,4.464-1.9,6.763-.939,2.755-4.13,1.826-6.1,2.922-1.427.793-2.744,3.555-2.977,3.591-.39.059-1.405-.392-2.11-.406-1.756-.035-11.87.33-12.311-.323-.565-.836-.606-6.52.178-7.086a11.747,11.747,0,0,1,3.6-.12c.305.264-.035,2.563,1.675,2.853,1.162.2,2.063-.121,2.27-1.353.5-3.007-3.405-10.877-2.664-13.813,1-3.95,6.1-1.866,8.607-2.6,1.821-.531,1.326-3.469,2.608-3.563s3.609,2.689,5.216,3.108c1.359.354,4.828-.042,5.71.6" transform="translate(-132.57 -160.945)" fill="#fcb0a3"/>
          <path id="Trazado_1274423" data-name="Trazado 1274423" d="M131.058,79.985c3.273,5.424,12.443,2.62,8.588,11.617-3.657,8.536-16.732,7.118-18.514-1.506-1.269-6.142,2-5,5.857-7.181a14.923,14.923,0,0,0,3.562-2.94Z" transform="translate(-77.226 -51.105)" fill="#fcb0a3"/>
          <path id="Trazado_1274424" data-name="Trazado 1274424" d="M128.182,320.423V309.954H142.8a8.2,8.2,0,0,1,2.866,1.827,5.3,5.3,0,0,1-.159,7.017,11.056,11.056,0,0,1-3.068,1.625Z" transform="translate(-81.909 -198.061)" fill="#8bb6fb"/>
          <path id="Trazado_1274425" data-name="Trazado 1274425" d="M191.945,246.948c-3.063.5-2.292-.509-3.674-2.282-2.171-2.783-5.932-4.914-8.976-6.621.9-1.775-1.3-6.037-1.018-7.078.151-.55,1.272-1.265,1.695-1.945a77.509,77.509,0,0,0,4.035-8.06l3.545,7.82c.747,1.9,4.213,4.463,4.033,6.4-.068.736-.753,1.562-.925,2.361-.7,3.226,1.192,6.21,1.285,9.408" transform="translate(-113.903 -141.195)" fill="#ff9ebf"/>
          <path id="Trazado_1274426" data-name="Trazado 1274426" d="M129.061,223.244c-2.229-.394-4.453-1.2-6.723-1.4-1.637-.142-6.244.315-7.2-.38l-9.617-17.817-.251-1.673c1.091.05,3.7-2.075,4.31-1.682l5.6,10.306c-.7,3.9-.178,7.3,4.345,7.919,4.18.57,9.29-1.807,9.533,4.723" transform="translate(-67.267 -127.959)" fill="#fcb0a3"/>
          <path id="Trazado_1274427" data-name="Trazado 1274427" d="M85.24,237.477c-.154-2.533-3.46-1.534-5.052-1.983,2.924-4.234,6.49-8.251,7.221-13.54l7.575,13.54c-1.794.6-4.684-.837-4.69,1.983Z" transform="translate(-51.24 -141.829)" fill="#ff9ebf"/>
          <path id="Trazado_1274428" data-name="Trazado 1274428" d="M142.7,215c-.835-.258-.583-1.983-.2-2.635,1.2-2.025,5.773.093,7.605-1.87,1.7-1.816,3.165-6.948,4.724-8.991.268-.351.353-.556.869-.6.589-.053,4.323,1.415,3.777,2.326L153.166,215c-2.044,0-9.145.41-10.469,0" transform="translate(-90.828 -128.373)" fill="#fcb0a3"/>
          <rect id="Rectángulo_460787" data-name="Rectángulo 460787" width="3.971" height="15.523" transform="translate(14.867 95.287)" fill="#f6f6f6"/>
          <path id="Trazado_1274429" data-name="Trazado 1274429" d="M154.183,128.394a12.6,12.6,0,0,0,4.442-1.518c1.291-.73,4.01-3.74,4.475-3.862.927-.243,2.029,1.236,2.2,2.028.792,3.58-4.7,6.294-6.26,9.124-.716.175-4.323-4.834-4.861-5.772" transform="translate(-98.523 -78.589)" fill="#ffcce2"/>
          <path id="Trazado_1274430" data-name="Trazado 1274430" d="M122.081,128.469c-.645.877-4.147,5.865-4.825,5.747-1.585-2.271-9.767-8.133-5.118-10.821,1.595-.922,1.494.572,2.526,1.478a14.043,14.043,0,0,0,7.418,3.6" transform="translate(-70.754 -78.664)" fill="#ffcce2"/>
          <path id="Trazado_1274431" data-name="Trazado 1274431" d="M111.153,317.131h-3.971V305.4c0-.8,3.971-.8,3.971,0Z" transform="translate(-68.49 -194.769)" fill="#f6f6f6"/>
          <path id="Trazado_1274432" data-name="Trazado 1274432" d="M144.132,15.155a43.108,43.108,0,0,0-6.694-.376c-2.184.065-4.807,1.6-2.763-2.041,2.543-4.536,9.269-2.583,9.457,2.417" transform="translate(-85.586 -6.509)" fill="#8f808f"/>
        </g>
      </g>
    </g>
  </g>
</svg>
