<svg xmlns="http://www.w3.org/2000/svg" xmlns:xlink="http://www.w3.org/1999/xlink" width="96" height="96" viewBox="0 0 96 96">
  <defs>
    <clipPath id="clip-path">
      <rect id="Rectángulo_455595" data-name="Rectángulo 455595" width="96" height="96" fill="none"/>
    </clipPath>
    <clipPath id="clip-path-2">
      <rect id="Rectángulo_460487" data-name="Rectángulo 460487" width="53.373" height="54.894" fill="#fff"/>
    </clipPath>
  </defs>
  <g id="Grupo_1210871" data-name="Grupo 1210871" transform="translate(-735.746 -9118)">
    <g id="Grupo_1180407" data-name="Grupo 1180407" transform="translate(735.746 9117.971)">
      <g id="Grupo_1179172" data-name="Grupo 1179172" transform="translate(0 0.03)" clip-path="url(#clip-path)">
        <path id="Trazado_998483" data-name="Trazado 998483" d="M92.261,52.319A39.942,39.942,0,1,1,52.319,12.377,39.942,39.942,0,0,1,92.261,52.319" transform="translate(-4.304 -4.333)" fill="#8d1939"/>
        <path id="Trazado_998485" data-name="Trazado 998485" d="M90.566,46.284A44.283,44.283,0,1,1,46.284,2,44.283,44.283,0,0,1,90.566,46.284Z" transform="translate(1.731 1.702)" fill="none" stroke="#8d1939" stroke-miterlimit="10" stroke-width="4"/>
      </g>
    </g>
    <g id="Grupo_1180408" data-name="Grupo 1180408" transform="translate(755.746 9137)">
      <g id="Grupo_1099618" data-name="Grupo 1099618" transform="translate(0.084 0.626)">
        <rect id="Rectángulo_401104" data-name="Rectángulo 401104" width="56.349" height="57.028" transform="translate(0)" fill="none"/>
      </g>
      <g id="Grupo_1210885" data-name="Grupo 1210885" transform="translate(1.084 1.625)">
        <g id="Grupo_1210884" data-name="Grupo 1210884" clip-path="url(#clip-path-2)">
          <path id="Trazado_1272132" data-name="Trazado 1272132" d="M113.107,100.258c.1-.086-.841-1.249-.968-1.465-1.491-2.536-1.858-5.52-2.746-8.282l-2.141-.592A8.316,8.316,0,0,1,97.2,90.5c-.251-.165-.63-.667-.8-.693-.33-.051-4.955.794-5.582.955a9.836,9.836,0,0,0-7.057,8.659c-.017.262.13.84.386.84h6.28c.369,0,.742,1.353-.187,1.532a39.117,39.117,0,0,1-6.37,0c-1.545-.281-1.832-1.63-1.647-2.988A11.348,11.348,0,0,1,90,89.313c2.055-.6,4.3-.517,6.322-1.255L97.544,85.6c-.813-.774-3.453-2.646-3.444-3.791,0-.679.72-.9,1.27-.626.215.107,1.008,1.343,1.325,1.657a7.186,7.186,0,0,0,10.548-.063c.9-.985.157-1.279.2-2.379.019-.5.273-.741.32-1.106a9.6,9.6,0,0,0-1.121-5.455c-.879-1.555-3.719-4.022-1.957-5.865,1.708-1.786,3.611,1.21,4.969,1.988a10.63,10.63,0,0,0-1.186-3.758c-1.341-1.863-2.812-.283-4.457.075a9.9,9.9,0,0,1-4.251,0c-1.442-.311-2.889-1.6-4.163-.249-.951,1.012-1.672,5.081-1.8,6.524a21.61,21.61,0,0,0,0,3.921c.111.949,1.052,2.985.11,3.424-1.361.634-1.537-2.52-1.694-3.331a3.537,3.537,0,0,1-1.75-6.543c-1.118-5.976.343-11.66,6.6-13.675,4.611-1.486,8.574.238,12.688,2.143,1.657.313,3.012-1.807,4.512-.908a1.789,1.789,0,0,1,.873,1.324,22.737,22.737,0,0,1-.594,7.856c-.277,1.145-.706,2.3-1.094,3.411a3.67,3.67,0,0,1,.6,5.2c-.644.711-1.42.521-1.266,1.736.082.646.423.481.724.849a37.016,37.016,0,0,1,2.967,4.725c.342,1.017-.3,1.585-1.245,1.088l-2.855-4.534-3.2,1.164-.123.277c.764,3.274,1.277,6.611,2.058,9.88.8,3.346,2.22,11.128,7.172,9.618,3.749-1.144,2.934-4.914,1.759-7.716-.959-2.286-2.475-4.419-3.572-6.644a.854.854,0,0,1,.65-.949c.51-.081.723.219.985.582a44.29,44.29,0,0,1,3.351,6.226c1.815,4.173,2.083,8.661-3.1,10.14l-24.833-.1c-.694-.325-.26-1.454.041-1.454Zm-1.115-30.63c1.039-3.2,1.964-6.709,1.594-10.117-.026-.236-.015-.392-.242-.538-3.307,2.478-5.509.144-8.564-.861-3.418-1.124-6.743-1.04-9.776,1.043-3.361,2.309-3.543,6.513-3.069,10.232l.232.239.524.011c.42-2.246,1.067-5.548,3.855-5.8,1.766-.159,3.36,1.127,5.335,1.11,2.624-.023,4.588-2.3,7.039-.615,1.469,1.01,1.981,3.648,2.311,5.3Zm-2.652,8.809A3.133,3.133,0,0,0,111.2,77.7c-.022-1.74.4-3.225-.756-4.689a38.16,38.16,0,0,0-4.479-4c-.172.009-.245.346-.233.535.03.472,1.929,2.8,2.323,3.5a9.578,9.578,0,0,1,1.287,5.386M92.384,71.215c-2.423.014-2.7,3.449-.314,3.61ZM112.8,74.2c1.11-1.047.132-2.833-1.257-2.982-.3.335,1.383,2.345,1.257,2.982M108.24,84.245l-2.177,1.487c.736,1.4,1.215,2.772,2.961,3.065Zm-3.614,2.039a9.108,9.108,0,0,1-5.632.013l-1.26,2.563a6.828,6.828,0,0,0,8.3.018Z" transform="translate(-69.268 -47.026)" fill="#fff"/>
          <path id="Trazado_1272133" data-name="Trazado 1272133" d="M8.955.057A10.264,10.264,0,0,1,19.892,13.349c-.127.412-.627,1.237-.656,1.518-.125,1.191,2.058,4.469.073,5.276-1.343.546-3.21-.766-4.464-.779-.463,0-2.405.959-3.427,1.053C-2.712,21.72-3.95,1.375,8.955.057m9.608,18.635c.14-.14-.983-3.164-.951-3.844a18.678,18.678,0,0,1,.839-2.312A8.639,8.639,0,0,0,5.263,3.116C-2.511,8.223,2.634,20.8,12.163,18.65a20.848,20.848,0,0,1,2.56-.905c.691-.022,3.7,1.088,3.841.948" transform="translate(-0.001 0)" fill="#fff"/>
          <path id="Trazado_1272134" data-name="Trazado 1272134" d="M31.992,23.113c.805-.092,4.3-.171,3.938,1.258-.268,1.065-1.885.3-2.563.263-4.242-.253-7.571,4.086-4.859,7.842,1.7,2.352,5.261,2.89,6.947.223,1.285-2.032.214-5.272-2.4-5.081-2.1.154-2.672,3.275-1.079,3.425.933.088,1-2.346,2.189-1.395,1,.8-.472,2.728-1.621,2.961-3.926.8-4.1-5.945-.111-6.548,6.525-.987,7.082,9.426.3,10.035-7.773.7-9.752-11.954-.741-12.985" transform="translate(-21.941 -19.448)" fill="#fff"/>
        </g>
      </g>
    </g>
  </g>
</svg>
