<svg xmlns="http://www.w3.org/2000/svg" xmlns:xlink="http://www.w3.org/1999/xlink" width="85" height="85" viewBox="0 0 85 85">
  <defs>
    <clipPath id="clip-path">
      <rect id="Rectángulo_460786" data-name="Rectángulo 460786" width="70" height="70" fill="#8d1939"/>
    </clipPath>
  </defs>
  <g id="Grupo_1208380" data-name="Grupo 1208380" transform="translate(-705.342 -410.097)">
    <path id="Sustracción_110" data-name="Sustracción 110" d="M0,0H85V85H0Z" transform="translate(705.342 410.097)" fill="#ffe19a"/>
    <g id="Grupo_1211371" data-name="Grupo 1211371" transform="translate(713.342 418.097)">
      <g id="Grupo_1211370" data-name="Grupo 1211370" clip-path="url(#clip-path)">
        <path id="Trazado_1274413" data-name="Trazado 1274413" d="M36.689,53.976H40.44c2.694,0,5.276,3.239,5.551,5.789.512,4.744-.6,9.554-6.152,9.991-9.844.775-20.689-.605-30.64,0-.869.078-1.22-.536-1.311-1.321a90.627,90.627,0,0,1,0-13.153c.04-.337.4-1.31.714-1.31h9.43l-3.97-14.342C9.01,35.152,3.9,30.161,1.452,23.7-5.524,5.27,14.192-8.989,27.462,6.857c5.36-6.9,14.963-9.6,22-3.335,2.575,2.292,4.009,5.493,5.064,8.7l3.524.07c.673-1.189.958-2.4,2.086-3.38,5.948-5.177,13.8,4,7.58,8.974-3.619,2.894-8.37.749-9.528-3.452l-3.367.1c-.322.576.131,1.2.114,1.733-.3,9.672-7.226,17.528-14.287,23.365Zm9.43-41.656H51.8c.491-.465-.215-1.759-.472-2.36a12.778,12.778,0,0,0-8.343-7.454c-6.15-1.465-11.3,2.468-14.9,6.994-1.41.822-2.07-1.023-2.848-1.833C12.913-5.17-1.812,7.173,3.226,22.131c1.746,5.183,5.729,9.836,9.735,13.444C10.8,29.4,13.3,23.785,20.254,23.433a7.117,7.117,0,1,1,14.214,0c5.7.531,8.463,3.638,7.9,9.41-.09.919-.626,1.793-.506,2.73,5.952-5.282,11.56-12.85,10.647-21.232H47.639L46.17,23.493a1.212,1.212,0,0,1-1.764.447L40.848,11.711l-.3-.2c-.143.929-.2,2.183-.915,2.831H29.693c-.662,0-.662-2.022,0-2.022h8.314c.857-1.12,1.06-5.388,1.933-6.16a1.172,1.172,0,0,1,.7-.3,1.337,1.337,0,0,1,1.129.88L44.6,17.376c.535.042.336.021.4-.308.163-.869.387-4.537,1.122-4.748m19.295-.333a1.885,1.885,0,0,1-1.445,3.178c-.972-.043-2.48-1.723-3.263-.41a3.647,3.647,0,0,0,6.642.13c2.017-4.629-4.7-7.455-6.724-2.867,1.657,1.268,3.068-1.746,4.79-.031M26.3,18.237c-4.93.77-5.008,8.436-.166,9.362,7.843,1.5,8.1-10.6.166-9.362m2.887,35.739a5.129,5.129,0,0,1-.315-3.246c.751-5.192,3.5-11.135,4.424-16.417.6-1.833,2.421-1.349,2.163.534-.979,5.219-3.542,10.933-4.356,16.085-.489,3.1,2.021,4.18,3.663,1.632C36.625,45.4,38.986,38.3,40.3,31.026c.254-3.036-3.105-5.641-5.944-5.379-.79.073-1.091,1.211-1.617,1.842a7.12,7.12,0,0,1-11.049-.311c-.519-.633-.524-1.477-1.32-1.531-2.961-.2-6.116,2.26-5.985,5.379C16.11,37.729,17.431,45.494,19.71,52c.983,2.806,4.015,2.495,4.017-.147l-4.459-17.01c-.311-1.562,1.276-2.447,2.052-.828,1.443,6.21,3.8,12.326,4.6,18.631l-.388,1.33ZM40.44,56.2H10.124V67.525h7.1c-1.6-3.113.379-5.986,3.744-6.276,5.312-.458,11.264.365,16.646,0,1.39.182,1.672,2.056-.007,2.235-5.389.575-11.67-.5-17.153.087-2.794,1.3-1.736,3.721,1.122,3.965,5.834.5,12.358-.393,18.266,0,3.986-.5,4.278-4.075,3.944-7.386A4.577,4.577,0,0,0,40.44,56.2" transform="translate(0 0)" fill="#8d1939"/>
        <path id="Trazado_1274414" data-name="Trazado 1274414" d="M236.159,273.821c9.435-1.378,10.177,12.993,1,12.811-7.941-.157-8.278-11.747-1-12.811m.2,2.221c-4.925.835-3.976,8.685,1.142,8.432,5.654-.28,5.26-9.518-1.142-8.432" transform="translate(-184.106 -218.376)" fill="#8d1939"/>
      </g>
    </g>
  </g>
</svg>
