<svg xmlns="http://www.w3.org/2000/svg" xmlns:xlink="http://www.w3.org/1999/xlink" width="292" height="254.478" viewBox="0 0 292 254.478">
  <defs>
    <clipPath id="clip-path">
      <rect id="Rectángulo_460800" data-name="Rectángulo 460800" width="282.795" height="99.056" fill="none"/>
    </clipPath>
    <clipPath id="clip-path-2">
      <rect id="Rectángulo_460799" data-name="Rectángulo 460799" width="282.796" height="99.056" fill="none"/>
    </clipPath>
    <clipPath id="clip-path-3">
      <rect id="Rectángulo_460794" data-name="Rectángulo 460794" width="282.795" height="10.852" fill="none"/>
    </clipPath>
    <clipPath id="clip-path-4">
      <rect id="Rectángulo_460795" data-name="Rectángulo 460795" width="9.286" height="14.123" fill="none"/>
    </clipPath>
    <clipPath id="clip-path-5">
      <rect id="Rectángulo_460796" data-name="Rectángulo 460796" width="263.419" height="12.025" fill="none"/>
    </clipPath>
    <clipPath id="clip-path-6">
      <rect id="Rectángulo_460797" data-name="Rectángulo 460797" width="35.528" height="8.977" fill="none"/>
    </clipPath>
    <clipPath id="clip-path-7">
      <rect id="Rectángulo_460798" data-name="Rectángulo 460798" width="136.36" height="49.726" fill="none"/>
    </clipPath>
  </defs>
  <g id="Grupo_1211404" data-name="Grupo 1211404" transform="translate(-185.711 -1962)">
    <g id="Grupo_1209949" data-name="Grupo 1209949" transform="translate(-104.289 -727.602)">
      <g id="Grupo_1208478" data-name="Grupo 1208478" transform="translate(290 2689.602)">
        <path id="Trazado_1266782" data-name="Trazado 1266782" d="M0,0H292V254.478H0Z" fill="#fff5d4"/>
      </g>
    </g>
    <g id="Grupo_1211403" data-name="Grupo 1211403" transform="translate(190.711 2039)">
      <g id="Grupo_1211402" data-name="Grupo 1211402" clip-path="url(#clip-path)">
        <g id="Grupo_1211401" data-name="Grupo 1211401" transform="translate(0 0)">
          <g id="Grupo_1211400" data-name="Grupo 1211400" clip-path="url(#clip-path-2)">
            <g id="Grupo_1211387" data-name="Grupo 1211387" transform="translate(0 88.204)" opacity="0.1">
              <g id="Grupo_1211386" data-name="Grupo 1211386">
                <g id="Grupo_1211385" data-name="Grupo 1211385" clip-path="url(#clip-path-3)">
                  <path id="Trazado_1274457" data-name="Trazado 1274457" d="M282.8,34.605c0,3-2,5.426-4.477,5.426H4.477C2,40.031,0,37.6,0,34.605s2-5.426,4.477-5.426H278.319c2.473,0,4.477,2.43,4.477,5.426" transform="translate(0 -29.179)" fill="#131313"/>
                </g>
              </g>
            </g>
            <path id="Trazado_1274458" data-name="Trazado 1274458" d="M4.942,28.791c.154-1.137,1.481-1.112,2.237-.877,1.33.417,3.664.759,6.212,1.212.55.224,1.076.3,1.635.5a11.412,11.412,0,0,1,1.539.638c.39.484.644.88,1.079,1.514a31.441,31.441,0,0,1-10-1.115c-.783-.311-2.838-.855-2.7-1.871" transform="translate(9.985 56.203)" fill="#ffc990"/>
            <path id="Trazado_1274459" data-name="Trazado 1274459" d="M2.075,35.516v.015a.868.868,0,0,0,.759.858,1.07,1.07,0,0,0,.142.006l12.509-.036H27.077v-.015l-.257-3.7-.2-2.89c0,.088-.193.109-.529.088a23.435,23.435,0,0,1-2.352-.381c-2.412-.472-5.68-1.221-7.089-1.378a2.5,2.5,0,0,0-.336-.021,2.836,2.836,0,0,0-1.037.2l-2.312.9-.97.378L8.849,30.767a2.844,2.844,0,0,0-.6.314L4.572,33.443,2.477,34.788a.862.862,0,0,0-.4.729" transform="translate(4.197 56.772)" fill="#e8b783"/>
            <path id="Trazado_1274460" data-name="Trazado 1274460" d="M10.009,33.065l.033.323.3,2.781.408,3.7v.03l.006.036h37.16a39.738,39.738,0,0,0,7.315.163h.021c.251-.021.5-.048.771-.085A.561.561,0,0,0,56.3,39.9c.472-.323.71-1.339.713-2.669.057-4-1.808-10.9-4.785-10.919h-.012c-.166.012-.278.027-.351.033a.2.2,0,0,0-.073.009L27.771,30.211l-2.56.414-1.394.224-4.6.735Z" transform="translate(20.247 53.232)" fill="#e8b783"/>
            <path id="Trazado_1274461" data-name="Trazado 1274461" d="M34.446,42.54c-4.32-.384-8.648-.846-13-1.49-.828-.118-1.647-.251-2.476-.384l-.085-1.517-.076-1.557L18.715,36l-.668-12.675c-.009-.124-.009-.251-.009-.375a7.692,7.692,0,0,1,1.65-4.74,7.867,7.867,0,0,1,.692-.762,7.6,7.6,0,0,1,.762-.644,7.494,7.494,0,0,1,2-1.055,7.712,7.712,0,0,1,2.11-.417l.16-.009a7.628,7.628,0,0,1,8,7.2l.024.429.109,2.167.124,2.37.009.233.018.193.067,1.33.227,4.329.033.644.109,2.119.067,1.239Z" transform="translate(36.489 30.982)" fill="#cc4418"/>
            <path id="Trazado_1274462" data-name="Trazado 1274462" d="M55.579,28.47l-2.89,9.8,1.058,2.2a6.107,6.107,0,0,1,1.765-.048,5.262,5.262,0,0,1,.568.085,15.7,15.7,0,0,1,4.976,2.228c1.194.7,2.7,2.826,4.586,4.734.384.378.756.753,1.094,1.109,2.025,2.107,3.552,3.933,5.16,4.422,1.315.662,2.848-.29,4.9-1.055a.742.742,0,0,0,.55-.7,26.674,26.674,0,0,0-3.283-11.8L72.3,36.4l-2.08-3.6L67.8,28.615c-.073-.124-.139-.248-.212-.363l-.747-1.481-.221-.411-1.56-2.993A8.862,8.862,0,0,0,63.934,21.7L62.4,19.94a.653.653,0,0,0-.472-.233,24.544,24.544,0,0,0-4.3,2.6c-2.04,1.384-4.12,2.89-4.525,3.289l-.057.057c-.233.206-.777,1.118-1.684,2.071-.617.656,5.6.067,4.64.553a3.833,3.833,0,0,1-.429.193" transform="translate(103.823 39.865)" fill="#61483e"/>
            <path id="Trazado_1274463" data-name="Trazado 1274463" d="M69.558,17.457c.009.351.009.71-.018,1.088v.009c-.006.459-.039.928-.082,1.421v.009c-.051.611-.136,1.224-.227,1.877q-.426,2.081-.9,4.141c-.393,1.717-.813,3.416-1.248,5.1-1.164,4.5-2.452,8.857-3.748,12.935-.278.871-.553,1.714-.837,2.551-.369,1.121-.738,2.219-1.1,3.274-.269.771-.529,1.524-.786,2.261-.311.871-.614,1.714-.913,2.536v.009c-.218.6-.435,1.188-.653,1.765-1.608,4.32-3.008,7.778-3.927,9.96-.629,1.517-1.031,2.421-1.106,2.579-.124.411-.26.8-.408,1.182-.212.535-.435,1.046-.68,1.524-.142.26-.284.52-.435.762l-.015.033a9.975,9.975,0,0,1-1.424,1.868,7.445,7.445,0,0,1-2.9,1.941,6.978,6.978,0,0,1-2.494.435,10,10,0,0,1-3.2-.568,10.672,10.672,0,0,1-3.283-1.675,10.9,10.9,0,0,1-1.548-1.415c-.067-.076-.124-.151-.184-.227a8.249,8.249,0,0,1-.862-1.155,5.363,5.363,0,0,1-.351-.586l-.027-.042A.144.144,0,0,0,36.164,71a12.01,12.01,0,0,1-.686-1.508,11.1,11.1,0,0,1-.6-4.806,9.637,9.637,0,0,1,.212-1.378c.057-.293.133-.577.218-.865.224-1.3.441-2.512.635-3.649.586-3.331,1.046-5.985,1.439-8.246.747-4.235,1.233-7.074,1.783-10.3.562-3.274,1.2-6.95,2.252-12.883.033-.209.076-.42.109-.629.245-1.315.487-2.745.771-4.3.057-.366.127-.753.2-1.146.236-1.306.478-2.7.738-4.193h.009q.3-1.737.653-3.661s10.489-5.876,18.05-5.224h.006a8.875,8.875,0,0,1,4.2,1.366,6.779,6.779,0,0,1,2.319,2.721c.091.184.175.375.251.568a8.673,8.673,0,0,1,.384,1.149c.024.091.051.181.076.284a15.09,15.09,0,0,1,.369,3.147" transform="translate(70.456 16.529)" fill="#3c3c3b"/>
            <path id="Trazado_1274464" data-name="Trazado 1274464" d="M35.6,46.175a.919.919,0,0,1,.067.088c.2.23.8.931,1.427,1.566.076.07.139.136.215.2a8.082,8.082,0,0,0,.786.686,10.886,10.886,0,0,0,7.729,2.022C72.96,45.952,80.366,46.7,87.576,45.383l.484-5.656.278-3.295-.2-15.568s-15.912,2.651-31.311,6.07v.012c-9.374,2.077-17.255,4.368-19.428,6.43-.057.057-.426,2.452-.816,5.148-.508,3.513-1.043,7.554-.979,7.651" transform="translate(72.011 42.207)" fill="#3c3c3b"/>
            <path id="Trazado_1274465" data-name="Trazado 1274465" d="M60.541,28.47l-2.893,9.8,1.058,2.2a6.107,6.107,0,0,1,1.765-.048,5.153,5.153,0,0,1,.568.085,15.67,15.67,0,0,1,4.976,2.228c1.194.7,2.7,2.826,4.586,4.734.384.378.756.753,1.091,1.109,2.031,2.107,3.555,3.933,5.163,4.422,1.318.662,2.851-.29,4.9-1.055a.749.749,0,0,0,.553-.7,26.722,26.722,0,0,0-3.286-11.8L77.264,36.4l-2.08-3.6-2.421-4.184c-.073-.124-.139-.248-.209-.363l-.75-1.481-.218-.411-1.563-2.993A8.847,8.847,0,0,0,68.9,21.7l-1.53-1.759a.665.665,0,0,0-.475-.233,24.544,24.544,0,0,0-4.3,2.6c-2.04,1.384-4.12,2.89-4.525,3.289l-.057.057c-.233.206-.777,1.118-1.684,2.071-.614.656,5.6.067,4.64.553a4.058,4.058,0,0,1-.426.193" transform="translate(113.857 39.865)" fill="#61483e"/>
            <path id="Trazado_1274466" data-name="Trazado 1274466" d="M68.354,20.138c-.109,1.406-.218,2.82-.36,4.22q-.249,2.634-.577,5.224C66.589,36.252,65.458,42.7,64.3,48.365c-.16.789-.32,1.566-.487,2.319-.227,1.106-.459,2.176-.686,3.207V53.9c-.713,3.189-1.4,6.009-1.992,8.3-.988,3.9-1.708,6.33-1.8,6.614-.057.375-.133.753-.224,1.112l-.027.109a13.894,13.894,0,0,1-1.037,2.914A10.044,10.044,0,0,1,57,74.667a5.6,5.6,0,0,1-.4.478,6.87,6.87,0,0,1-.955.922,7.06,7.06,0,0,1-3.241,1.457,7.742,7.742,0,0,1-.97.109,10.177,10.177,0,0,1-2.627-.209,10.7,10.7,0,0,1-3.259-1.115,9.15,9.15,0,0,1-1.23-.771c-.242-.175-.478-.36-.7-.55-.076-.07-.142-.136-.218-.2a10.534,10.534,0,0,1-1.007-1.037c-.142-.175-.284-.354-.417-.535l-.067-.085c-.042-.06-.085-.118-.118-.175a10.855,10.855,0,0,1-.762-1.23,11.192,11.192,0,0,1-1.215-4.891,11.32,11.32,0,0,1,.142-2.077c.06-1.321.118-2.551.16-3.7.085-1.95.16-3.682.227-5.23.057-1.267.109-2.412.157-3.476.169-4.026.278-6.8.411-9.894.142-3.482.311-7.376.6-13.905.066-1.339.124-2.787.209-4.362.006-.266.024-.55.042-.837,0-.109.006-.218.015-.326.066-1.572.142-3.28.236-5.13.039-.913.082-1.85.124-2.829A53.316,53.316,0,0,1,51.879,9.5C55.93,7.774,60.452,6.719,63.726,8.36a6.648,6.648,0,0,1,2.442,2.092c.067.1.142.2.209.308.109.16.212.32.3.487v.009a7.046,7.046,0,0,1,.393.768c.1.2.184.411.269.629a15.259,15.259,0,0,1,.771,3.074,22.635,22.635,0,0,1,.224,2.509v.009c.027.611.027,1.224.018,1.892" transform="translate(80.535 15.254)" fill="#575756"/>
            <path id="Trazado_1274467" data-name="Trazado 1274467" d="M40.508,46.175a.922.922,0,0,1,.066.088c.2.23.8.931,1.427,1.566.076.07.139.136.215.2a8.082,8.082,0,0,0,.786.686,10.886,10.886,0,0,0,7.729,2.022c27.133-4.788,38.333-4.924,45.543-6.239L93.209,20.865s-16.079,2.651-31.477,6.07v.012c-9.374,2.077-17.252,4.368-19.428,6.43-.057.057-.426,2.452-.816,5.148-.508,3.513-1.043,7.554-.979,7.651" transform="translate(81.933 42.207)" fill="#575756"/>
            <path id="Trazado_1274468" data-name="Trazado 1274468" d="M103.867,53.613l-4.6.565c-1.288.151-2.482.263-3.57.336a38.963,38.963,0,0,1-5.644.021c-1.9-.151-2.917-.478-3.053-.78a12.058,12.058,0,0,1-.858-3.047c-.7-4.326-.085-10.64,2.99-15.09.142-.206.278-.414.414-.629,2.869-4.619,4.1-11.514,5.393-13.361,1.947-2.766,6.817-2.252,6.817-2.252l.073,1.01,1.545,21.849-2.225,4.283,2.409.843.057,1.188Z" transform="translate(173.729 39.119)" fill="#2e2e2d"/>
            <path id="Trazado_1274469" data-name="Trazado 1274469" d="M74.227,46.8c-8.165,6.557-22.466,5.722-29.5.118-1.545-9.682-1.953-18.615,0-25.994C55.763,20.4,71.37,23.443,79.653,24.74Z" transform="translate(87.814 42.207)" fill="#006080"/>
            <path id="Trazado_1274470" data-name="Trazado 1274470" d="M104.591,42.646,101.967,46.7l2.316,1.073-.293,6.251-4.634.115c-1.923.042-3.624.015-5.091-.073a29.243,29.243,0,0,1-5.323-.707c-1.094-.278-1.672-.577-1.759-.816a10.917,10.917,0,0,1-.5-2.467c-.45-4.392.707-11.043,4.368-15.383,3.6-4.271,5.6-11.572,7.131-13.361a4.784,4.784,0,0,1,2.21-1.394,10.913,10.913,0,0,1,4.791-.2Z" transform="translate(175.163 39.564)" fill="#3c3c3b"/>
            <path id="Trazado_1274471" data-name="Trazado 1274471" d="M29.989,23.086V41.567l-7.733.242h-.009l-1.575.057-6.487.2-.03-1.254v-.251l-.109-4.958-.009-.345-.063-2.869-.157-7.074,4.679-.644,4.676-.65,2.82-.393Z" transform="translate(27.948 46.699)" fill="#f0b87d"/>
            <path id="Trazado_1274472" data-name="Trazado 1274472" d="M40.092,30.027h-.009a1.437,1.437,0,0,1-.057.275c.009.018.009.018,0,.018a12.4,12.4,0,0,1-8.407,8.806c-.142.033-.284.07-.435.1a.856.856,0,0,1,.033.175l.009.042a5.142,5.142,0,0,0,.336.995c.127.269.26.544.4.822h.009c.384.725.828,1.448,1.155,2.1.435.871.653,1.632.233,2.107l-.006.009a1.372,1.372,0,0,1-.544.354,7.933,7.933,0,0,0-1.735.979v.006c-.3.212-.6.435-.91.686-1.877,1.484-3.954,3.434-6.145,4.22a29.825,29.825,0,0,1-3.766.644l-.278.027c-.124.015-.242.024-.36.033a17.226,17.226,0,0,1-2.878,0,9.98,9.98,0,0,1-7.56-3.809H9.168a10.922,10.922,0,0,1-.753-1.115c-.193-.317-.369-.644-.529-.97a16.226,16.226,0,0,1-.729-1.7C7,44.416,6.865,44,6.741,43.588c-.378-1.2-.653-2.367-.928-3.4A13.311,13.311,0,0,1,8.164,28.924a13.6,13.6,0,0,1,1.6-1.708v-.009h.006A16.817,16.817,0,0,1,14.1,24.393a24.522,24.522,0,0,1,2.89-1.088,19.26,19.26,0,0,1,1.983.251l.7-.55,3.08-2.47a1.66,1.66,0,0,1,2.452.583l.771,1.324c1.007-.242,6.52-2.11,6.52-2.11a8.169,8.169,0,0,1,4.362.175,3.919,3.919,0,0,1,2.73,2.814l.629,2.745.115.511a9.322,9.322,0,0,1-.233,3.449" transform="translate(11.028 40.699)" fill="#f0b87d"/>
            <path id="Trazado_1274473" data-name="Trazado 1274473" d="M39.714,43.472c-.293,1.926-2.025,3.1-4.353,3.827-.393.124-.813.233-1.248.333a25.391,25.391,0,0,1-2.527.444c-3.649.478-7.618.393-9.77.487-.317.006-.635.024-.946.033-.227.009-.441.015-.668.015a27.126,27.126,0,0,1-7.074-.577,8.49,8.49,0,0,1-6.012-4.9l-.006-.024a15.333,15.333,0,0,1-.671-1.566c-.426-1.14-.813-2.427-1.206-3.893C3.584,31.441,4.546,26.16,6.8,23.741c.094-.1.184-.193.284-.287a4,4,0,0,1,4.8-.65v.015c.042.662.085,1.282.133,1.859l.027.275c1.179,12.273,6.354,8.531,18.576,5.87a30.054,30.054,0,0,1,.97,3.1.394.394,0,0,1-.076.109c-.88,1.149-3.573,4.045-3.751,4.22a16.89,16.89,0,0,1,5.317-1.381,1.9,1.9,0,0,1,.227-.009h.009a5.013,5.013,0,0,1,.768.009h.009a5.6,5.6,0,0,1,3.473,1.221l.009.009a5.042,5.042,0,0,1,.453.426,4.514,4.514,0,0,1,.393.478,5.661,5.661,0,0,1,.629,1.164,9.342,9.342,0,0,1,.644,2.947c.009.118.015.233.024.36" transform="translate(8.909 45.096)" fill="#3c3c3b"/>
            <path id="Trazado_1274474" data-name="Trazado 1274474" d="M15.725,31.95c2.346-.635,4.519-3.346,4.1-4.879s-2.27-.849-4.622-.239c-1.557.4-3.866.608-3.9,2.421-.03,1.59.982,3.627,4.422,2.7" transform="translate(22.862 52.875)" fill="#f0b87d"/>
            <g id="Grupo_1211390" data-name="Grupo 1211390" transform="translate(42.136 61.209)" opacity="0.1">
              <g id="Grupo_1211389" data-name="Grupo 1211389">
                <g id="Grupo_1211388" data-name="Grupo 1211388" clip-path="url(#clip-path-4)">
                  <path id="Trazado_1274475" data-name="Trazado 1274475" d="M22.921,29.767h-.009a1.437,1.437,0,0,1-.057.275c.009.018.009.018,0,.018a10.674,10.674,0,0,1-4.017,2.811,33.162,33.162,0,0,1-4.9,1.5,7.94,7.94,0,0,0,3.531-2.763,10.435,10.435,0,0,0,.78-1.2,16.193,16.193,0,0,0,1.23-2.854,19.473,19.473,0,0,0,.511-1.883,11.084,11.084,0,0,0,.26-2.563,8.026,8.026,0,0,0-.571-2.863,3.919,3.919,0,0,1,2.73,2.814l.629,2.745.115.511a9.322,9.322,0,0,1-.233,3.449" transform="translate(-13.937 -20.25)" fill="#050504"/>
                </g>
              </g>
            </g>
            <path id="Trazado_1274476" data-name="Trazado 1274476" d="M105.309,29.061c0,1.07-.057,2.158-.16,3.283a70.63,70.63,0,0,1-2.962,14.262q-.54,1.809-1.173,3.643c-.218.638-.441,1.273-.668,1.91v.006l-.1.278c-.018.042-.027.082-.042.124-.278.753-.562,1.508-.855,2.252l-.048.127c-.076.2-.151.4-.236.6h-.895c-2.446-.009-8.246.009-15.655.042-3.207.018-6.714.033-10.381.057-.8.009-1.608.009-2.427.009H69.7c-3.809.033-7.76.06-11.686.094-1.415.006-2.835.015-4.235.024-11.662.091-19,.961-25.389-.562a23.075,23.075,0,0,1-5.743-2.176l-.009-.006c-.7-.369-1.406-.8-2.119-1.267l-.544-.157L16.615,50.55h-.009c.027-.1.051-.2.076-.3.218-.895.426-1.79.62-2.7l.308-1.508v-.009c.076-.36.145-.729.212-1.088.057-.284.109-.568.157-.852l.009-.009c.677-3.624,1.23-7.1,1.9-9.936.151-.611.3-1.215.459-1.756v-.009c.057-.193.109-.369.166-.553a4.1,4.1,0,0,1,1.191-1.206,20.485,20.485,0,0,1,2.21-1.4l.048-.051c.136-.127.553-.511,1.239-1.046a36.183,36.183,0,0,1,9.377-5.133c.662-.251,1.348-.493,2.077-.719q1.242-.4,2.612-.753c1.288-.326,2.66-.611,4.108-.837,1.049-.16,2.143-.293,3.274-.393l.3-.027c.308-.033.629-.057.946-.076.4-.024.813-.039,1.221-.057q2.186-.086,4.571.018c.269.006.538.015.8.033,4.1-.931,12.472-1.626,21.541-1.357a111.244,111.244,0,0,1,11.819.931c1.255.166,2.485.36,3.7.583a52.946,52.946,0,0,1,8.639,2.27,28.674,28.674,0,0,1,4.153,1.892c.257.142.5.293.744.441.009.085.024.169.033.26a30.312,30.312,0,0,1,.184,3.86" transform="translate(33.592 37.956)" fill="#e69f56"/>
            <path id="Trazado_1274477" data-name="Trazado 1274477" d="M67.677,29.441,66,40.363l-.4,2.609-.036.23-1.324-.015h-.021l-12.744-.112-21.215-.2c-6.535-1.152-9.017-4.341-9.927-7.007a9.017,9.017,0,0,1-.414-4.105c1.466-6.868,9.691-7.231,14.241-6.424,8.147,1.439,29.76,3.712,33.085,4.063h.012c.166.015.281.027.351.036a.294.294,0,0,1,.073.006" transform="translate(40.131 50.632)" fill="#e69f56"/>
            <path id="Trazado_1274478" data-name="Trazado 1274478" d="M107.816,23.3l-1.481,19.026-.544,7.016c-.52.006-1.028.021-1.545.027-11.248.236-20.74.759-31.374.027a141.053,141.053,0,0,1-15.456-1.907q-2.381-.417-4.906-.946l-.073-.52-.472-3.549L49.4,23.3c5.314-.556,10.241-.922,14.833-1.143,18.923-.9,32.148.641,43.578,1.143" transform="translate(99.94 44.252)" fill="#006080"/>
            <path id="Trazado_1274479" data-name="Trazado 1274479" d="M129.58,29.054l-1.711,15.111-.4,3.555-.085.732h-.239c-29.077.215-40.821.435-59.6,0l.006-.036.958-6.995,2.612-19.074A448.508,448.508,0,0,0,126.642,28.9q1.469.077,2.938.151" transform="translate(136.635 45.203)" fill="#006080"/>
            <path id="Trazado_1274480" data-name="Trazado 1274480" d="M52.247,43.506c-.345,1.91-.686,3.633-1,5.012-.187.81-.366,1.5-.529,2.04-.251.828-.475,1.3-.638,1.3H43.571c.015-.048.036-.1.051-.148.351-.967.671-1.947.97-2.947.115-.351.224-.7.314-1.052.5-1.681.937-3.4,1.339-5.163,1.545-6.723,2.5-13.932,3.467-21.221.03-.221.057-.444.088-.665l4.933.366c.109.012.178.236.215.635.23,2.754-1.251,13.9-2.7,21.843" transform="translate(88.138 41.797)" fill="#cc8d4c"/>
            <path id="Trazado_1274481" data-name="Trazado 1274481" d="M63.056,28.952c-.154-1.137-1.481-1.112-2.237-.877-1.33.417-3.664.759-6.212,1.212-.55.224-1.076.3-1.635.5a11.413,11.413,0,0,0-1.539.638c-.39.484-.644.88-1.079,1.514a31.44,31.44,0,0,0,10-1.115c.783-.311,2.838-.855,2.7-1.871" transform="translate(101.86 56.529)" fill="#ffc990"/>
            <path id="Trazado_1274482" data-name="Trazado 1274482" d="M74.15,35.677v.015a.868.868,0,0,1-.759.858,1.07,1.07,0,0,1-.142.006l-12.509-.036H49.148v-.012l.257-3.7.2-2.89c0,.088.193.109.529.088a23.437,23.437,0,0,0,2.352-.381c2.412-.472,5.68-1.221,7.089-1.378a2.5,2.5,0,0,1,.336-.021,2.847,2.847,0,0,1,1.037.2l2.313.9.97.378,3.147,1.224a2.99,2.99,0,0,1,.6.314L71.653,33.6l2.095,1.345a.862.862,0,0,1,.4.729" transform="translate(99.42 57.098)" fill="#ffc990"/>
            <path id="Trazado_1274483" data-name="Trazado 1274483" d="M80.94,33.225l-.036.323-.3,2.781-.408,3.7v.03l-.009.036H43.034a39.741,39.741,0,0,1-7.315.163H35.7c-.251-.021-.508-.048-.774-.085a.573.573,0,0,1-.272-.115c-.472-.323-.707-1.336-.713-2.669-.057-4,1.808-10.9,4.785-10.919h.012c.166.012.281.027.351.033a.2.2,0,0,1,.073.009l24.017,3.854,2.56.414,1.394.224,4.607.735Z" transform="translate(68.649 53.555)" fill="#ffc990"/>
            <g id="Grupo_1211393" data-name="Grupo 1211393" transform="translate(16.029 82.038)" opacity="0.1">
              <g id="Grupo_1211392" data-name="Grupo 1211392">
                <g id="Grupo_1211391" data-name="Grupo 1211391" clip-path="url(#clip-path-5)">
                  <path id="Trazado_1274484" data-name="Trazado 1274484" d="M268.722,32.444l-.29,6.245-4.64.118c-1.929.045-3.624.015-5.091-.073a39.942,39.942,0,0,1-5.644.024c-29.08.212-40.827.432-59.6,0l.009-.039c-11.251.236-20.74.759-31.377.03a.7.7,0,0,1-.142.009L149.43,38.72H138.116l-.006.039H100.959a40.048,40.048,0,0,1-7.318.163h-.024l-12.738-.115c-1.418.006-2.835.015-4.238.03C61.377,38.955,53.527,40.4,45.51,36.1l-.006-.009a24.614,24.614,0,0,1-2.125-1.261l-.541-.163L39.48,33.611h-.009l-1.575.054c-.29,1.929-2.022,3.1-4.347,3.824-.393.133-.816.236-1.248.339-4.19.97-9.634.813-12.3.931-.32.009-.635.024-.946.03-.227.009-.447.018-.668.018C10.56,38.971,7.349,37.474,5.3,33.336c1.4.432,2.781.8,4.159,1.082h.009a30.4,30.4,0,0,0,16.178-.547,23.67,23.67,0,0,0,5.728-1.505,19.858,19.858,0,0,0,2.279-1.082l.006-.006a9.311,9.311,0,0,0,7.185-4.138c.039,1.59,8.071,4.6,8.884,4.459C61.707,34.575,76.02,35.79,91.86,36.056c1.176.015,2.352.03,3.543.039,8.491.063,17.409-.118,26.607-.438.345-.009.7-.018,1.058-.033.251-.006.5-.015.759-.03,1.605-.054,3.213-.109,4.834-.181q4.679-.186,9.434-.405c.148-.009.29-.009.429-.018,1.034.151,2.077.275,3.126.384,2.273.251,4.592.417,6.983.511h.006c3.73.139,7.609.109,11.7-.079a302.868,302.868,0,0,0,34.074-4.081c.251-.039.511-.088.768-.127.118.03.245.054.369.079,17.808,4.075,34.4,4.982,53.586,3.253.662-.057,1.318-.112,1.974-.181.886-.079,1.771-.172,2.666-.275,4.141-.453,8.41-1.025,12.838-1.7.692-.109,1.4-.221,2.1-.329" transform="translate(-5.302 -27.14)" fill="#1d1d1b"/>
                </g>
              </g>
            </g>
            <path id="Trazado_1274485" data-name="Trazado 1274485" d="M52.213,15.722l-.544.393-.3.218-21.1,15.278-1.8,1.306a1.991,1.991,0,0,0-.2-.251,13.85,13.85,0,0,0-1.542-1.557c-1-.895-2.025-1.717-2.025-1.717l-1.756.326-3.3.62-2.034.378c-.178-.855-.336-1.617-.478-2.3-.946-4.586-1.14-5.49-1.164-5.674-.042-.212-.26-1.372-1.448-8.014l2.04-.408,4.153-.822s.275-.735.629-1.708h.006c.538-1.5,1.267-3.564,1.415-4.311l27.653,7.745,1.07.3Z" transform="translate(29.368 15.123)" fill="#e8b783"/>
            <path id="Trazado_1274486" data-name="Trazado 1274486" d="M113.286,26.5v.009l-7.642,4.042-.662.354a63.511,63.511,0,0,1-16.611,7.7c-3.776,1.239-6.9,2.312-10.42,5.293-3.567,3.02-13.63,7.9-17.965,9.19-.033.009-2.176.729-5.3,1.675-2.872.862-6.572,1.91-10.223,2.739a.535.535,0,0,1-.067.024h-.015c-.411.094-.813.175-1.224.26a57.486,57.486,0,0,1-6.136,1.037c-.257.033-.517.051-.768.076-.212.018-.411.033-.6.042h-.009c-.29.018-.568.024-.834.033-4.28.828-11.269,2.588-13.464-2.929-.257-.653-.508-1.363-.744-2.11a87.006,87.006,0,0,1-2.219-9.09A7.643,7.643,0,0,0,21.9,42.332c3.842-4.806,2.479-13.905-5.115-15.42h-.018s2.095-11.218,3.174-15.665A13.163,13.163,0,0,1,22.515,5.74,9.138,9.138,0,0,1,28.041,2.6a.11.11,0,0,1,.057-.009c.653-.1,1.291-.2,1.935-.3h.042c45.379-6.88,77.685,1.983,82.984,23.24.085.317.16.644.227.97" transform="translate(33.928 0)" fill="#e94e1b"/>
            <path id="Trazado_1274487" data-name="Trazado 1274487" d="M42.174,25.628a8.493,8.493,0,0,1-1.339,2.228c-.26.333-.553.677-.889,1.046-.686.771-1.53,1.632-2.545,2.654a18.938,18.938,0,0,1-5.943,3.591.914.914,0,0,1,.109.209,1.408,1.408,0,0,1,.06.771c-.193,1.137-1.608,1.865-3.491,2.551-2.319.846-4.5,1.04-4.973-.251a1.033,1.033,0,0,1-.076-.393.423.423,0,0,1,0-.151.7.7,0,0,1,.015-.224l-6.034,1.164A9.18,9.18,0,0,1,6.68,32.886a8.829,8.829,0,0,1-.369-1.339L4.645,22.941a9.19,9.19,0,0,1,7.282-10.755l6.037-1.167a1.427,1.427,0,0,1-.227-.744c-.042-1.363,2.053-2,4.522-2.077,2-.057,3.582.094,4.184,1.073a1.391,1.391,0,0,1,.236.735c0,.076-.018.16-.024.236a19.046,19.046,0,0,1,6.856,1.121c1.321.577,2.427,1.064,3.355,1.514.444.218.837.429,1.206.638C40.651,15,41.5,16.469,42.2,20.093l.009.051v.009l.009.015a.1.1,0,0,0,.009.051c.459,2.4.511,3.96-.051,5.408" transform="translate(9.06 16.562)" fill="#ffc990"/>
            <path id="Trazado_1274488" data-name="Trazado 1274488" d="M25.551,35.8a.6.6,0,0,0-.018.227.371.371,0,0,0,.027.142l-.027.009a40.318,40.318,0,0,0-3.857,1.2c-2.863.988-5.762,2.195-9.434.435A15.628,15.628,0,0,1,4.63,29.65H4.624A16.279,16.279,0,0,1,7.5,12.115c2.805-2.956,5.946-2.866,8.966-2.965a32.326,32.326,0,0,1,3.945.009c.006.478.762.946,2.4,1.188l.236,1.206c-11.862.1-11.36,3.18-10.145,5.768.175.378.333.738.484,1.073a27.755,27.755,0,0,1,1.666,4.9c.06.218.109.444.169.68.082.626.148,1.188.2,1.723a25.489,25.489,0,0,1,.118,3.147c-.009.336-.018.689-.042,1.049s-.042.729-.067,1.121a8.425,8.425,0,0,0-.018.995,2.985,2.985,0,0,0,.6,1.85c1.079,1.291,3.942,1.557,11.124-1.137l.245,1.236c-1.164.7-1.717,1.357-1.826,1.835" transform="translate(6.615 18.422)" fill="#61483e"/>
            <path id="Trazado_1274489" data-name="Trazado 1274489" d="M5.386,16.176a4.687,4.687,0,0,0,1.161,4.973,7.657,7.657,0,0,0,4.9,2.028,22.432,22.432,0,0,0,5.384-.45,12.948,12.948,0,0,1-4.979-4.577,18.311,18.311,0,0,0-1.65-2.542A3.205,3.205,0,0,0,7.544,14.39a2.861,2.861,0,0,0-2.158,1.787" transform="translate(10.282 29.076)" fill="#61483e"/>
            <path id="Trazado_1274490" data-name="Trazado 1274490" d="M5.314,17.339c.656,2.222,2.669,3.77,4.743,4.809s5.042,1.381,6.931,2.721A32.155,32.155,0,0,0,9.824,13.9a3.752,3.752,0,0,0-3.089-1.391A2.847,2.847,0,0,0,4.7,15.477,7.779,7.779,0,0,0,6.088,19.1Z" transform="translate(9.51 25.226)" fill="#61483e"/>
            <path id="Trazado_1274491" data-name="Trazado 1274491" d="M4.9,16.5a7.1,7.1,0,0,0,3.358,4.054,38.681,38.681,0,0,0,4.915,2.225,11.074,11.074,0,0,1,4.4,3.023A15.732,15.732,0,0,0,11.9,16.255c-1.384-1.1-3.059-2.095-3.6-3.782a7.652,7.652,0,0,0-.351-1.131,1.072,1.072,0,0,0-.907-.665c-.659.009-.964.8-1.1,1.448q-.63,2.984-1.264,5.97Z" transform="translate(9.465 21.6)" fill="#61483e"/>
            <g id="Grupo_1211396" data-name="Grupo 1211396" transform="translate(15.708 60.82)" opacity="0.1">
              <g id="Grupo_1211395" data-name="Grupo 1211395">
                <g id="Grupo_1211394" data-name="Grupo 1211394" clip-path="url(#clip-path-6)">
                  <path id="Trazado_1274492" data-name="Trazado 1274492" d="M40.1,23.321l.629,2.745c-1.022-.057-2.034-.1-3.047-.133-5.919-.184-11.729.042-16.91,1.632a30.735,30.735,0,0,1-10.356,1.508c-.6-.027-1.173-.076-1.732-.151A17.481,17.481,0,0,1,5.2,28.134c.091-.1.184-.19.284-.284a4.007,4.007,0,0,1,4.8-.653v.009h.006a16.812,16.812,0,0,1,4.329-2.811,24,24,0,0,1,2.89-1.088,18.321,18.321,0,0,1,1.983.251l.7-.553,3.08-2.47a1.66,1.66,0,0,1,2.452.586l.771,1.321c1-.242,6.52-2.11,6.52-2.11a8.171,8.171,0,0,1,4.362.178,3.91,3.91,0,0,1,2.73,2.811" transform="translate(-5.195 -20.12)" fill="#1d1d1b"/>
                </g>
              </g>
            </g>
            <g id="Grupo_1211399" data-name="Grupo 1211399" transform="translate(11.246 18.851)" opacity="0.1">
              <g id="Grupo_1211398" data-name="Grupo 1211398">
                <g id="Grupo_1211397" data-name="Grupo 1211397" clip-path="url(#clip-path-7)">
                  <path id="Trazado_1274493" data-name="Trazado 1274493" d="M139.689,13.894v-.006c-.066-.326-.142-.653-.227-.97-.091.057-.184.115-.284.175a42.381,42.381,0,0,1-7.518,3.7c-5.29,2.016-41.752,16.892-44.424-3.875C87.2,12.633,53.588,6.046,53.794,6.24c4.153,3.939,14.543,9.982,15.94,14.419-.076.018,1.025,20.927-14.244,20.226-2.92-.136-4.948-2.63-6.145-5.066a10.276,10.276,0,0,1-.777-2.2,11.13,11.13,0,0,1-.251-3.9h-.009a12.755,12.755,0,0,0-4.6-.142,20.65,20.65,0,0,0-4.737,1.348c-5.526,2.228-10.849,6.236-16.266,6.8a45.981,45.981,0,0,1-5.039.233c-1.055,0-2.119-.048-3.165-.133a40.19,40.19,0,0,1-5.743-.862c-.181-.033-.36-.076-.544-.127a34.731,34.731,0,0,1-4.5-1.372,15.627,15.627,0,0,0,7.612,8.162c3.673,1.759,6.572.553,9.434-.435a40,40,0,0,1,3.857-1.2,1.107,1.107,0,0,0,.076.393c.478,1.288,2.654,1.1,4.973.251,1.883-.686,3.3-1.415,3.491-2.554a1.408,1.408,0,0,0-.057-.771A1.052,1.052,0,0,0,33,39.092,18.938,18.938,0,0,0,38.939,35.5c1.013-1.022,1.859-1.883,2.545-2.654l3.3-.62A86.972,86.972,0,0,0,47,41.32c0,.124,0,.251.009.375l.762,14.265c.786.051,1.481-1.5,2.258-1.448,3.978.227,12.016-.831,15.674-.991.511-.024,14.64-.514,19.189-3.679,9.223-6.412,27.928,2.1,32.729-4.159,1.738-2.273,1.581-5.483,2.887-8.02,2.787-5.426,7.243-9.779,11.242-14.383.236-.269.478-.544.722-.813v-.009c2.285-2.5,5.054-5.1,7.609-7.793a8.018,8.018,0,0,0-.393-.771M80.561,45.522c-.269-.018-.535-.024-.8-.033.453-1.1.895-2.219,1.33-3.34,3.123-.946,5.266-1.666,5.3-1.675,4.338-1.288,14.4-6.17,17.965-9.193-1.055,5.937-1.69,9.61-2.252,12.883-9.066-.266-17.436.429-21.538,1.357" transform="translate(-3.721 -6.237)" fill="#1d1d1b"/>
                </g>
              </g>
            </g>
            <path id="Trazado_1274494" data-name="Trazado 1274494" d="M39.626,31.238c-.7,2.119-1.472,4.253-2.285,6.363-.435,1.121-.88,2.243-1.33,3.34-.278.653-.553,1.3-.822,1.941-.308.71-.626,1.415-.937,2.1l-2.56-1.765-.009-.009-.151-.1-.124-.051-1.65.26-4.41.7.142-1.007.209-1.539.118-.855.067-.469.009-.057.677-4.915,2.9-20.885.06-.387.057-.426.048-.369.136-.653c.719-3.791,13.041-3.975,13.041-3.975a4.269,4.269,0,0,1,.68,1.7c.843,4.054-.973,12.382-3.86,21.054" transform="translate(51.272 17.164)" fill="#ffc990"/>
            <path id="Trazado_1274495" data-name="Trazado 1274495" d="M22.845,19.647c.169-1.248,1.626-1.224,2.458-.961,1.463.456,4.026.831,6.829,1.33.6.245,1.182.329,1.8.547a13.272,13.272,0,0,1,1.693.7c.429.532.707.967,1.185,1.666a34.656,34.656,0,0,1-10.991-1.224c-.858-.345-3.12-.943-2.968-2.059" transform="translate(46.198 37.506)" fill="#ffc990"/>
            <path id="Trazado_1274496" data-name="Trazado 1274496" d="M19.24,27.041v.015a.95.95,0,0,0,.831.943.847.847,0,0,0,.157.009l13.878-1.932,5.753.789c3.893,0,8-2.195,7.729-6.079v-.073c0,.094-.218.118-.586.094a25.98,25.98,0,0,1-2.585-.417c-2.648-.517-6.242-1.345-7.79-1.517a3.061,3.061,0,0,0-.369-.024,3.132,3.132,0,0,0-1.14.221l-2.539.991-1.07.417L28.052,21.82a3.23,3.23,0,0,0-.656.348l-5.414,2.594-2.3,1.478a.944.944,0,0,0-.438.8" transform="translate(38.92 38.129)" fill="#ffc990"/>
            <path id="Trazado_1274497" data-name="Trazado 1274497" d="M22.726,15.652c4.392,3.256,8.963,6.632,13.724,10.021.378.269.759.541,1.152.813a6.965,6.965,0,0,0,9.67-1.415.4.4,0,0,0,.082-.1l.082-.112a6.96,6.96,0,0,0,.716-7.04l-.012-.018c-1.774-3.458-8.367-9.649-14.413-14.561a39.44,39.44,0,0,0-11,12.409" transform="translate(45.972 6.56)" fill="#ffc990"/>
            <path id="Trazado_1274498" data-name="Trazado 1274498" d="M19.614,4.972l-.082.127a7.609,7.609,0,0,0,2.2,10.547c3.718,2.409,7.581,4.976,11.578,7.621A42.975,42.975,0,0,1,44.574,9.125a82.55,82.55,0,0,0-10.4-6.7c-7.222-3.51-12.252-.967-14.555,2.542" transform="translate(36.986 1.515)" fill="#cc4418"/>
          </g>
        </g>
      </g>
    </g>
  </g>
</svg>
