<svg xmlns="http://www.w3.org/2000/svg" xmlns:xlink="http://www.w3.org/1999/xlink" width="187.711" height="167.565" viewBox="0 0 187.711 167.565">
  <defs>
    <clipPath id="clip-path">
      <rect id="Rectángulo_461199" data-name="Rectángulo 461199" width="134.355" height="133.511" fill="none"/>
    </clipPath>
  </defs>
  <g id="Grupo_1212927" data-name="Grupo 1212927" transform="translate(-289.711 -1738)">
    <g id="Grupo_1209908" data-name="Grupo 1209908" transform="translate(0.434 -7130.039)">
      <g id="Grupo_1204518" data-name="Grupo 1204518" transform="translate(289.277 8868.039)">
        <rect id="Rectángulo_455283" data-name="Rectángulo 455283" width="187.711" height="167.565" rx="19" fill="#ffcce2"/>
      </g>
    </g>
    <g id="Grupo_1212525" data-name="Grupo 1212525" transform="translate(316.711 1755)">
      <g id="Grupo_1212524" data-name="Grupo 1212524" clip-path="url(#clip-path)">
        <path id="Trazado_1278969" data-name="Trazado 1278969" d="M23.179,7.677c.677-4.528,6.6-1.695,7.462-2.55C31.12,4.65,29.331.45,32.778,0L57.522.031c2.2.413,1.179,3.505,1.383,5.1,1.668.146,7.462-.82,7.462,1.765V13.37h15.9c2.872,0,7.264,4.887,7.264,7.656v27.68c7.258-6.86,18.042-5.717,23.095,3.015.557.962.771,3.035,1.638,3.466,5.253.761,17.582,2.615,19.327,8.549-.048,12.4,1.878,25.764-.212,38.046-1.957,11.507-10.006,17.591-19.147,23.649-1.941,1.287-12.541,7.988-13.935,8.078-2.945.192-14.878-9.289-18.444-10.576l-73.024,0c-5.41-.221-8.34-4.1-8.811-9.25L0,22.975c.279-3.035,1.178-6.169,3.811-7.968A27.248,27.248,0,0,1,7.278,13.37h15.9c.185-1.779-.256-3.982,0-5.693m31.41-3.337H34.958c.009,1.154.391,5.1-1.374,5.1H27.89V22.007H61.46a3.94,3.94,0,0,0,.589-.589V9.443H55.963c-1.435,0-1.587-4.018-1.374-5.1M66.367,17.688v6.871c0,1.3-2.318,1.7-3.322,1.782-11.8,1-24.979-.782-36.93-.006a3.586,3.586,0,0,1-2.543-1.383V18.277a3.94,3.94,0,0,0-.589-.589H8.063c-.559,0-3.031,1.869-3.162,2.728l-.185,94.456c-.357,1.326,2.512,3.721,3.346,3.721H76.576a30.447,30.447,0,0,1-9.8-15.917l-21.727-.26c-2.128-.625-.668-4.24.314-4.24H66.367l-.4-4.711c-6.709.837-13.724.274-20.533.3-2.359-.451-1.432-4.223-.469-4.223H65.975c.094-3.331-.121-6.694-.016-10.028.027-.843,1.062-4.892-.18-4.892H44.969c-1.3,0-1.41-4.319.393-4.319H66.367l0-5.1a4.835,4.835,0,0,1-2.146.795,121.388,121.388,0,0,1-18.44-.046,2.167,2.167,0,0,1-.04-4.3c1.99-.265,19.128-.168,20.16.283.677.3.222,1.166,1.055.911C70.911,56.938,78.879,57,85.031,55l.177-32.009c.131-1.821-1.818-5.3-3.726-5.3ZM109.85,58.367a9.752,9.752,0,1,0-9.752,9.752,9.752,9.752,0,0,0,9.752-9.752m5.4,44.52c-1.74.5-5.636-.367-7.656,0v7.656c0,.433-1.606,1.26-2.182,1.351-1.548.245-10.319.211-11.459-.274a4.49,4.49,0,0,1-1.279-1.077v-7.656H85.017a5.422,5.422,0,0,1-1.294-1.453c-.271-.919.158-2.76-.13-3.207-.135-.21-3.516-1.02-4.636-1.844-3.651-2.687-3.5-9.207-3.182-13.339.618-8.138,6.307-13.385,14.149-14.713a20.034,20.034,0,0,1-4.159-8.661c-3.092.41-14.4,2.223-15.07,5.73-.66,3.476.083,10.554.007,14.534-.155,8.162-1.176,16.6,1.273,24.608C75.489,116.027,90.6,122.726,100,128.723c9.536-5.8,24.114-12.429,28.016-23.672,2.092-6.029,1.486-11.569,1.547-17.657q.11-10.956-.065-21.918c-.827-3.692-11.738-5.291-14.98-5.81-1.079,3.093-1.8,6.217-4.174,8.666,7.69,1.351,13.517,6.719,14.148,14.714.448,5.672.568,11.742-5.234,14.423-.572.265-2.442.551-2.583.756-.3.438.388,4.144-1.423,4.662M85.41,87.575c1.944-.418,5.154.306,7.264,0V79.919a3.5,3.5,0,0,1,.791-.779c.949-.443,12.62-.365,13.468.162a2.648,2.648,0,0,1,.66,1.01v7.264h6.871c2.626,0,2.227,4.1,2.161,5.888,4.307-.06,3.812-6.912,3.525-10a11.652,11.652,0,0,0-11.167-10.82,133.214,133.214,0,0,0-18.472.014,11.816,11.816,0,0,0-10.4,10.414c-.294,3.238-.978,10.36,3.525,10.4.026-1.719-.541-5.392,1.769-5.888m17.864-4.319H96.992v6.871a6.634,6.634,0,0,1-1.374,1.767H87.962v6.675h7.264c.611,0,1.767,1.6,1.767,2.159V107.6h6.282v-7.264a3.834,3.834,0,0,1,1.767-1.767H112.3V91.894h-7.656a6.634,6.634,0,0,1-1.374-1.767Z" fill="#10100f"/>
        <path id="Trazado_1278970" data-name="Trazado 1278970" d="M224.093,195.19c1.811-.518,1.122-4.224,1.423-4.662.141-.205,2.011-.492,2.583-.756,5.8-2.682,5.682-8.751,5.234-14.423-.631-7.995-6.457-13.363-14.148-14.714,2.371-2.448,3.094-5.572,4.174-8.666,3.242.519,14.153,2.118,14.98,5.81q.181,10.952.065,21.918c-.061,6.088.545,11.628-1.547,17.657-3.9,11.242-18.48,17.871-28.016,23.672-9.4-6-24.509-12.7-28.023-24.18-2.449-8.005-1.428-16.446-1.273-24.608.076-3.98-.667-11.059-.007-14.534.666-3.507,11.978-5.321,15.07-5.73a20.034,20.034,0,0,0,4.159,8.661c-7.842,1.328-13.531,6.575-14.149,14.713-.314,4.132-.469,10.651,3.182,13.339,1.119.824,4.5,1.634,4.636,1.844.289.447-.141,2.288.13,3.207a5.423,5.423,0,0,0,1.294,1.453h7.656v7.656a4.491,4.491,0,0,0,1.279,1.077c1.14.486,9.911.52,11.459.274.576-.091,2.182-.918,2.182-1.351V195.19c2.02-.367,5.916.5,7.656,0" transform="translate(-108.845 -92.303)" fill="#da9dfe"/>
        <path id="Trazado_1278971" data-name="Trazado 1278971" d="M209.007,199.46c-2.309.5-1.743,4.168-1.769,5.888-4.5-.036-3.819-7.158-3.525-10.4a11.816,11.816,0,0,1,10.4-10.414,133.21,133.21,0,0,1,18.472-.014,11.652,11.652,0,0,1,11.167,10.82c.286,3.092.781,9.944-3.525,10,.066-1.789.465-5.888-2.161-5.888H231.19V192.2a2.648,2.648,0,0,0-.66-1.01c-.848-.527-12.52-.605-13.468-.162a3.505,3.505,0,0,0-.791.779v7.656c-2.11.306-5.32-.418-7.263,0" transform="translate(-123.598 -111.884)" fill="#fadd76"/>
        <path id="Trazado_1278972" data-name="Trazado 1278972" d="M249.613,133.574a9.752,9.752,0,1,1-9.752-9.752,9.752,9.752,0,0,1,9.752,9.752" transform="translate(-139.763 -75.207)" fill="#ffcce2"/>
        <path id="Trazado_1278973" data-name="Trazado 1278973" d="M239.348,212.052v6.871a6.634,6.634,0,0,0,1.374,1.767h7.656v6.675h-7.264a3.834,3.834,0,0,0-1.767,1.767v7.264h-6.282v-6.871c0-.563-1.155-2.159-1.767-2.159h-7.264V220.69h7.656a6.634,6.634,0,0,0,1.374-1.767v-6.871Z" transform="translate(-136.074 -128.796)" fill="#8d1939"/>
        <path id="Trazado_1278974" data-name="Trazado 1278974" d="M73.617,45.052H88.733c1.907,0,3.856,3.483,3.726,5.3l-.177,32.009c-6.152,2-14.12,1.935-18.079,7.836-.834.256-.378-.615-1.056-.911-1.032-.451-18.17-.548-20.16-.283a2.167,2.167,0,0,0,.04,4.3,121.44,121.44,0,0,0,18.44.046,4.834,4.834,0,0,0,2.146-.794l0,5.1H52.612c-1.8,0-1.692,4.319-.393,4.319H73.028c1.242,0,.207,4.048.18,4.891-.1,3.334.11,6.7.016,10.028H52.219c-.962,0-1.89,3.773.469,4.223,6.808-.023,13.823.539,20.533-.3l.4,4.711H52.612c-.982,0-2.441,3.614-.314,4.24l21.728.26a30.446,30.446,0,0,0,9.8,15.917H15.313c-.834,0-3.7-2.4-3.346-3.721l.185-94.455c.13-.858,2.6-2.728,3.161-2.728h14.92a3.94,3.94,0,0,1,.589.589v6.675A3.588,3.588,0,0,0,33.365,53.7c11.951-.776,25.128,1,36.93.006,1-.085,3.322-.483,3.322-1.782ZM40.51,59.679a3.338,3.338,0,0,0-1.846.874c-1.348,1.2-6.2,8.618-7.309,8.811s-2.405-3.078-3.561-3.426c-1.629-.49-3.559.552-3.2,2.38.161.815,4.8,6.411,5.7,6.919,1.587.894,2.622-.619,3.675-1.711C35.089,72.369,42.018,64,42.386,63.1c.644-1.576-.077-3.467-1.876-3.419m33.013,1.956c-.433-.434-1.439-.451-2.048-.5-4.228-.353-14.457-.53-18.488,0a2.167,2.167,0,0,0,.04,4.3,126.154,126.154,0,0,0,18.844.057c1.932-.252,2.968-2.536,1.652-3.854m5.5,11.985c1.465-1.459-.015-3.6-2.056-3.84-7.269-.86-16.137.672-23.585-.013-2.575.18-3.182,4.119-.391,4.357,7.764-.536,16.322.651,23.985,0,.612-.052,1.608-.065,2.047-.5m-38.881,13.9c-1.787.274-7.5,9.5-8.781,9.723-1.115.194-2.405-3.078-3.561-3.426-1.629-.49-3.559.552-3.2,2.38.229,1.154,5.5,7.628,7.022,7.2,2.334-.653,8.531-10.371,10.768-12.422a2.336,2.336,0,0,0-2.25-3.456m-7.472,43.4,9.722-12.063c1.089-2.495-1.415-4.483-3.494-2.709-1.953,1.667-4.927,6.181-6.9,8.43-.4.457-.364,1.594-1.2.716-1.426-1.491-2.047-4.413-4.791-3.594-3.75,1.119,1.5,6.615,2.85,7.98,1.035,1.044,2.271,2.379,3.817,1.24" transform="translate(-7.25 -27.364)" fill="#fff5d4"/>
        <path id="Trazado_1278975" data-name="Trazado 1278975" d="M97.734,11.052c-.213,1.086-.061,5.1,1.374,5.1h6.086V28.131a3.94,3.94,0,0,1-.589.589H71.036V16.156h5.693c1.766,0,1.383-3.95,1.374-5.1Z" transform="translate(-43.146 -6.713)" fill="#fadd76"/>
        <path id="Trazado_1278976" data-name="Trazado 1278976" d="M139.683,111.456c-.439.437-1.434.45-2.047.5-7.663.653-16.22-.534-23.985,0-2.792-.238-2.185-4.177.39-4.357,7.448.685,16.316-.847,23.585.013,2.042.242,3.521,2.381,2.056,3.84" transform="translate(-67.915 -65.199)" fill="#10100f"/>
        <path id="Trazado_1278977" data-name="Trazado 1278977" d="M59.653,153.174a2.336,2.336,0,0,1,2.25,3.456c-2.238,2.052-8.434,11.769-10.768,12.422-1.526.427-6.794-6.047-7.022-7.2-.362-1.828,1.569-2.87,3.2-2.38,1.156.348,2.446,3.619,3.561,3.426,1.283-.223,6.995-9.449,8.782-9.723" transform="translate(-26.766 -93.019)" fill="#10100f"/>
        <path id="Trazado_1278978" data-name="Trazado 1278978" d="M60.026,82.3c1.8-.048,2.521,1.842,1.876,3.419-.369.9-7.3,9.271-8.415,10.429-1.053,1.092-2.089,2.6-3.675,1.711-.9-.508-5.539-6.1-5.7-6.919-.362-1.828,1.569-2.87,3.2-2.38,1.156.348,2.446,3.619,3.561,3.426s5.961-7.615,7.309-8.812a3.337,3.337,0,0,1,1.846-.874" transform="translate(-26.766 -49.989)" fill="#10100f"/>
        <path id="Trazado_1278979" data-name="Trazado 1278979" d="M52.365,239.837c-1.546,1.139-2.782-.2-3.817-1.24-1.353-1.364-6.6-6.861-2.85-7.98,2.744-.819,3.366,2.1,4.791,3.594.839.878.8-.26,1.2-.716,1.972-2.249,4.946-6.763,6.9-8.43,2.079-1.774,4.583.214,3.494,2.709Z" transform="translate(-26.95 -136.288)" fill="#10100f"/>
        <path id="Trazado_1278980" data-name="Trazado 1278980" d="M134.127,85.995c1.316,1.318.28,3.6-1.652,3.853a126.153,126.153,0,0,1-18.844-.057,2.168,2.168,0,0,1-.04-4.3c4.031-.528,14.26-.351,18.488,0,.609.051,1.615.068,2.048.5" transform="translate(-67.854 -51.723)" fill="#10100f"/>
      </g>
    </g>
  </g>
</svg>
