<svg xmlns="http://www.w3.org/2000/svg" xmlns:xlink="http://www.w3.org/1999/xlink" width="96" height="96" viewBox="0 0 96 96">
  <defs>
    <clipPath id="clip-path">
      <rect id="Rectángulo_455595" data-name="Rectángulo 455595" width="96" height="96" fill="none"/>
    </clipPath>
    <clipPath id="clip-path-2">
      <rect id="Rectángulo_460705" data-name="Rectángulo 460705" width="53.978" height="53.943" fill="#fff"/>
    </clipPath>
  </defs>
  <g id="Grupo_1210054" data-name="Grupo 1210054" transform="translate(-735.746 -9118)">
    <g id="Grupo_1180407" data-name="Grupo 1180407" transform="translate(735.746 9117.971)">
      <g id="Grupo_1179172" data-name="Grupo 1179172" transform="translate(0 0.03)" clip-path="url(#clip-path)">
        <path id="Trazado_998483" data-name="Trazado 998483" d="M92.627,52.5A40.125,40.125,0,1,1,52.5,12.377,40.125,40.125,0,0,1,92.627,52.5" transform="translate(-4.488 -4.517)" fill="#8d1939"/>
        <path id="Trazado_998485" data-name="Trazado 998485" d="M90.973,46.487A44.486,44.486,0,1,1,46.487,2,44.486,44.486,0,0,1,90.973,46.487Z" transform="translate(1.527 1.499)" fill="none" stroke="#8d1939" stroke-miterlimit="10" stroke-width="4"/>
      </g>
    </g>
    <g id="Grupo_1180408" data-name="Grupo 1180408" transform="translate(755.746 9137)">
      <g id="Grupo_1099618" data-name="Grupo 1099618" transform="translate(0 0.381)">
        <rect id="Rectángulo_401104" data-name="Rectángulo 401104" width="56.349" height="57.028" transform="translate(0)" fill="none"/>
      </g>
      <g id="Grupo_1211239" data-name="Grupo 1211239" transform="translate(1 1.38)">
        <g id="Grupo_1211238" data-name="Grupo 1211238" clip-path="url(#clip-path-2)">
          <path id="Trazado_1273716" data-name="Trazado 1273716" d="M13.111,5.3l.374-2.167a2.7,2.7,0,0,1,5.329.241l-.924,7.94L19.6,8.944a2.755,2.755,0,0,1,4.609,1.989c0,1.321-2.494,4.919-3.109,6.449-1,2.483-.8,5.744-3.344,7.374l-.027.2c1.739,5.288,6.6,8.189,9.564,12.665l.315.008c2.956-2.07,6.671-2.5,9.9-3.832,2.279-.938,4.06-2.706,6.078-4.1,1.811-1.25,5.749-4.009,7.673-4.661A1.8,1.8,0,0,1,53.818,26.5c.507,4.21-.389,9.412,0,13.73-.16,1.325-2.934,3.366-4.029,4.143-4.665,3.311-10.474,5.5-15.9,7.227-.684.218-2.3.475-2.775.732-.595.321-1.228,3.038-2.519.61-.562.119-1.169.332-1.727.425-5.86.976-7.858.657-10.728-4.761l-1.486-3.059a7.507,7.507,0,0,0,.187,4.821c.2.558,1.345,2.344,1.32,2.632a1.129,1.129,0,0,1-1.088.847c-1.065-.162-2.326-3.824-2.424-4.833a18.007,18.007,0,0,1,.018-2.909c.111-1.063,1.108-2.881,1.056-3.546-.087-1.12-1.262-3.994-1.617-5.337-.973-3.683-1.792-7.416-2.577-11.145C7.059,24.5,6.9,21.1,5.31,19.04,4.236,17.648.708,14.965.2,13.661a2.738,2.738,0,0,1,3.5-3.578C3.08,8.487,1.626,6.7,1.868,4.932,2.183,2.646,5.233,2.055,6.633,3.84c.343.437.475,1.121.924,1.464C7.326,3.549,6.54,1.394,8.581.39,12-1.292,12.877,2.86,13.111,5.3m38.853,34.77V26.736c-1.66.846-3.286,1.775-4.86,2.772-2.933,1.859-5.981,4.776-9.09,6.02-4.257,1.7-8.879,2.058-12.1,5.783-.6.694-1,2.063-2.056,1.74-1.437-.441.476-2.706.976-3.282a2.331,2.331,0,0,1,1.072-.858l-.015-.205c-2.92-4.283-7.471-7.2-9.46-12.13-1.161-2.876-.264-2.147,1.064-4.013,1.17-1.643,1.033-3.51,1.664-5.275.4-1.11,3.4-6.157,3.333-6.63a.926.926,0,0,0-1.451-.585L17.2,15.642a.915.915,0,0,1-1.615-.68c.288-3.369,1.189-7.012,1.374-10.353a4.09,4.09,0,0,0-.074-1.464c-.214-.439-1.335-.488-1.5.039l-1.106,7.682c-.327,1.177-1.531,1.2-1.869,0-.652-2.329-.821-6.309-1.689-8.333a.891.891,0,0,0-1.751.222l1.823,8.82a.928.928,0,0,1-1.38.9L4.9,4.646a.881.881,0,0,0-1.29.97c.842,2.218,2.17,4.344,3.05,6.523.259.641.965,2.01-.141,2.233a.9.9,0,0,1-.653-.049c-.758-.356-1.694-1.75-2.393-2.235-1.233-.855-2.164.079-1.311,1.311,1.31,1.892,4.284,3.585,5.378,5.724,1.119,2.187,1.353,4.52,3.6,6.115.794,3.289,1.447,6.613,2.291,9.889.161.623,1.458,5.792,1.761,5.791.426-.467.872-.848,1.462-.379.987.786-.438,1.824-.9,2.485l.749,2.213L18.2,43a1.021,1.021,0,0,1,1.088.179c.6.94-.484,1.576-.857,2.368-.959,2.036-.384,3.261,1,4.849,2.192,2.509,5.258,1.613,8.2.959,1.786-.4,2.247-.133,2.677-2.1A8.169,8.169,0,0,0,30.078,45c-.269-.832-1.562-2.44-1.282-3.108.676-1.616,2.068.462,2.437,1.182a10.009,10.009,0,0,1,.685,7.02c-.019.126.132.088.233.082,1.348-.08,5.3-1.637,6.746-2.2,4.679-1.816,9.571-4.256,13.067-7.9" transform="translate(0 0)" fill="#fff"/>
          <path id="Trazado_1273717" data-name="Trazado 1273717" d="M195.123,177.973c.965-.118,1.539.53,1.058,1.446a34.4,34.4,0,0,1-2.762,2.787c-.825.523-1.711.087-1.508-.882.123-.587.942-.984,1.206-1.5-.8.04-1.535-.566-1.155-1.386.087-.188,2.74-2.837,2.92-2.94.832-.482,1.791.228,1.395,1.084-.1.212-1.394,1.19-1.154,1.39" transform="translate(-162.277 -148.308)" fill="#fff"/>
          <path id="Trazado_1273718" data-name="Trazado 1273718" d="M156.325,161.9c.388-.321,1.359-.5,1.591.035a1.9,1.9,0,0,1,.115.658,25.16,25.16,0,0,1-.824,3.814.926.926,0,0,1-1.779-.144c-.052-.363.415-1.594.278-1.741-.752.387-1.681.364-1.7-.69a24.342,24.342,0,0,1,1.083-4.319.877.877,0,0,1,1.423.27c.322.751-.237,1.356-.19,2.118" transform="translate(-130.262 -134.703)" fill="#fff"/>
          <path id="Trazado_1273719" data-name="Trazado 1273719" d="M130.111,291.386a2.694,2.694,0,1,1-2.08,2.08,2.862,2.862,0,0,1,2.08-2.08m.148,1.844c-.644.194-.537,1.32.05,1.585,1.424.644,1.892-2.168-.05-1.585" transform="translate(-108.254 -246.418)" fill="#fff"/>
          <path id="Trazado_1273720" data-name="Trazado 1273720" d="M169.4,287.859a.957.957,0,0,1-1.473-.379c-.138-.473.221-2.06.112-2.882-.128-.963-1-1.768-1.066-2.339-.088-.778.411-1.107,1.148-.991,1.536.241,2.4,5.544,1.279,6.591" transform="translate(-141.219 -237.882)" fill="#fff"/>
        </g>
      </g>
    </g>
  </g>
</svg>
