<svg xmlns="http://www.w3.org/2000/svg" xmlns:xlink="http://www.w3.org/1999/xlink" width="162.25" height="162.25" viewBox="0 0 162.25 162.25">
  <defs>
    <clipPath id="clip-path">
      <rect id="Rectángulo_460502" data-name="Rectángulo 460502" width="90" height="86.972" transform="translate(-3 -3)" fill="#6a2874" stroke="#6a2874" stroke-width="1"/>
    </clipPath>
  </defs>
  <g id="Grupo_1212913" data-name="Grupo 1212913" transform="translate(-250.711 -1123.119)">
    <g id="Grupo_1210801" data-name="Grupo 1210801" transform="translate(1 101.119)">
      <g id="Grupo_1210797" data-name="Grupo 1210797" transform="translate(-55.436 -8990.459)">
        <g id="Grupo_1177470" data-name="Grupo 1177470" transform="translate(305.146 10012.421)">
          <circle id="Elipse_13609" data-name="Elipse 13609" cx="81.125" cy="81.125" r="81.125" transform="translate(0 0.038)" fill="#f6e1fe"/>
          <g id="Grupo_1207827" data-name="Grupo 1207827" transform="translate(35.635 35.96)">
            <g id="Grupo_1099618" data-name="Grupo 1099618" transform="translate(0.365 -3.922)">
              <rect id="Rectángulo_401104" data-name="Rectángulo 401104" width="90" height="90" transform="translate(0)" fill="none"/>
            </g>
            <g id="Grupo_1210912" data-name="Grupo 1210912" transform="translate(3.365 1.078)">
              <g id="Grupo_1210911" data-name="Grupo 1210911" clip-path="url(#clip-path)">
                <path id="Trazado_1272327" data-name="Trazado 1272327" d="M129.987,52a5.88,5.88,0,0,1-.387,2.855c-.662,2.02-4.791,9.517-6.438,10.548s-11.516,4.331-13.464,4.526c-3.276.328-6.108-1.031-6.117-4.691-.012-5.253,9.922-6.079,13.587-7.7l2.652-5.055c.793.074,1.924-.435,1.681.766a45.557,45.557,0,0,1-2.637,5.614c-.96.807-8.069,2.315-8.321,2.672l.963,5.457c.407.4,10.074-2.7,10.966-3.275,1.777-1.153,4.027-8.185,5.6-10.385.49-.685.9-1.5,1.913-1.329M108.5,62.493c-5.253.788-2.607,7.5,1.517,5.2Z" transform="translate(-51.869 -26.03)" fill="#6a2874" stroke="#6a2874" stroke-width="1"/>
                <path id="Trazado_1272328" data-name="Trazado 1272328" d="M80.637,74.351a18.592,18.592,0,0,1-.019-3.665.359.359,0,0,1,.019-.078V68.42c-2.414-.049-5.258-.29-6.514.013,1.823-2.858,2.476-6.548-.005-9.233-.866-.938-3.007-1.8-3.388-3.106-.466-1.6.107-3.928-.1-5.641h8.993V65.44l1.528-.221c.265-.193.413-.92.489-1.964V57.237a57.555,57.555,0,0,1-.007-7.524c.245-1.286,1.68-1.785,1.96-3.536.606-3.8.482-16.944.03-20.956a8.706,8.706,0,0,0-6.5-7.748c9.58-6.039,3.963-20.221-7.269-17-7.955,2.278-7.886,13.066-1.227,17-5.475,1.481-7.112,6.826-6.491,12H64.13c-.96-8.158,3.442-11.454,11.254-10.505a7.424,7.424,0,0,1,6.189,5.8c.516,3.631.574,17.357.014,20.906a2.92,2.92,0,0,1-2.324,2.672c-1.874.432-9.77.364-11.892.117-4.232-.492-1.9-3.888-5.234-4-.521,3.736,2.955,6.406,6.49,6l0,4.493c-5.957-3.738-11.515-12.114-18.73-5.476-5.326-4.748-11.123-5.09-17.232-1.519.039-5.053-5.026-7.393-9.5-6.992C24.5,32.9,18.492,26.873,10.554,30.1c-.768.313-2.311,1.731-2.628,1.73s-1.249-1.065-2.109-1.266c-5.176-1.2-7.65,5.378-4.26,7.91C2.93,39.5,5.1,39.216,5.6,39.538c.216.14.717,2.375,1.153,3.1a8.415,8.415,0,0,0,5.9,3.843C9.828,55.988,19.875,61.164,24.66,67.7l-1.238.742L13.4,68.414c-.024,2.668-1.373,11.083,1.279,12.253l63.212.286c1.094.213,2.536-1.389,2.723-2.273.007-.035.012-.074.019-.11Zm-1.523-61.37c-3.673-1.859-3.034-5.328-4.978-8.253l-5-2.231c7.185-2.467,13.5,3.4,9.983,10.485M76.889,15c-.407.635-3.2,1.392-4.014,1.392-5.883,0-9.009-6.351-6.174-11.326,1.77-.228,4.633-.219,5.948,1.154,1.077,1.126.9,3.013,1.523,4.472.6,1.4,3.336,3.346,2.718,4.309M5.665,37.45c-4.678,1.051-4.861-5.8-.249-5,2.541.444-.158,3.149.249,5M54.877,48.922a5.76,5.76,0,0,1,3.44.6c2.074,1.03,11.41,8.348,13.312,10.169s3.329,3.528,1.7,6.21c-4.2,6.934-13.212-4.613-17.434-6.463l-9.249,6.5c.357-4.593-3.038-5.742-6.994-5.741,3.307-2,11.995-10.91,15.223-11.275m8.756,19.516H47.645c2.2-2.834,5.463-4.694,8.249-6.91,1.863,2.16,5.045,3.521,6.978,5.422.488.48.945.643.761,1.488m-19.6-1.119c-.592.6-2.049.632-2.876.62v-5.5c3.179-1.084,4.695,3.051,2.878,4.879M7.678,37.214a6.749,6.749,0,0,1,3.992-5.5c2.513-1.134,5.955-1.426,3.494,2-2.057,2.86-5.891,2.655-6.994,6.247-.876.028-.562-2.236-.492-2.743m3.147,1.9c.857-.763,2.87-1.217,4.094-2.153,1.662-1.27,2.332-2.889,3.506-4.494,5.141,2.887,3.206,11.624-2.541,12.461-3.8.553-9.356-1.992-5.06-5.814M14.974,53.9a8.443,8.443,0,0,1-.211-6.852,10.414,10.414,0,0,0,6.232-2.761c.429-.343.57-1.274,1.165-1.6,1.275-.7,6.372.879,7.466,2.057,1.314,1.416.756,2.659,1.406,4.087,1.2,2.637,4.371-.29,6.4-.845,4.075-1.114,7.838-.524,10.7,2.718,0,.783-11.468,9.581-12.236,9.731a15.234,15.234,0,0,1-3.51.03c-2.862-.374-8.074-7.8-9.464-7.51a1,1,0,0,0-.516,1.5c.376.728,7.919,7.986,8.5,7.986h8.243v5.5H27.911c-.919-.261-12.339-12.82-12.938-14.041M78.621,78.18l-.749.749H15.921l-.749-.749V69.937H78.621Z" transform="translate(0 0)" fill="#6a2874" stroke="#6a2874" stroke-width="1"/>
              </g>
            </g>
          </g>
        </g>
        <ellipse id="Elipse_13678" data-name="Elipse 13678" cx="19.243" cy="19.243" rx="19.243" ry="19.243" transform="translate(305.965 10136.186)" fill="#da9dfe"/>
        <g id="Grupo_1207826" data-name="Grupo 1207826" transform="translate(305.146 10138.641)">
          <path id="Trazado_998481" data-name="Trazado 998481" d="M0,13.854q4.835.419,9.664.868l-.27.112,1.389-2.491a.373.373,0,0,1,.426-.131.271.271,0,0,1,.2.185l0,.01,1.186,5.359L11.7,17.7l1.915-4.337,1.934-4.332,1.94-4.33L19.452.377A.822.822,0,0,1,20.394.03.578.578,0,0,1,20.9.6V.609l-.77,7.01-.812,7.007-.823,7.006-.854,7L16.044,28.4c1.235-2.953,2.506-5.9,3.765-8.845l1.893-4.42,1.917-4.414,0-.011a.7.7,0,0,1,.8-.305.505.505,0,0,1,.439.47l-.29,5.628-.314,5.627-.826-.118,2.776-5.324,0-.009a.291.291,0,0,1,.3-.125l5.25.671,5.247.689-5.291-.467-5.287-.485.3-.133-2.494,5.4a.472.472,0,0,1-.54.2.338.338,0,0,1-.286-.3v-.012l.079-5.631.1-5.631L24.836,11,23.051,15.45l-1.809,4.44c-1.209,2.959-2.407,5.921-3.64,8.874a.892.892,0,0,1-1.022.4c-.373-.087-.6-.356-.57-.635v0l.812-7.007.842-7,.854-7,.9-7,1.444.232-2.048,4.3-2.069,4.3-2.074,4.3-2.093,4.29-.005.011a.513.513,0,0,1-.588.2.382.382,0,0,1-.3-.278l-.924-5.388.624.063L9.86,14.986l0,.007a.273.273,0,0,1-.265.1q-4.8-.609-9.59-1.244" transform="translate(0 4.51) rotate(-7)" fill="#fff"/>
        </g>
      </g>
      <path id="Trazado_1272079" data-name="Trazado 1272079" d="M79.8,53.239V66.476a.9.9,0,0,1-.9.895H68.265a.9.9,0,0,0-.9.9V78.909a.9.9,0,0,1-.9.9H53.239a.9.9,0,0,1-.9-.9V68.266a.9.9,0,0,0-.895-.9H40.767a.9.9,0,0,1-.9-.895V53.239a.9.9,0,0,1,.9-.9H51.449a.9.9,0,0,0,.895-.895V40.768a.9.9,0,0,1,.9-.9H66.475a.9.9,0,0,1,.9.9V51.449a.9.9,0,0,0,.9.895H78.908a.9.9,0,0,1,.9.9" transform="translate(327.754 986.793)" fill="#8d1939"/>
    </g>
  </g>
</svg>
