<svg xmlns="http://www.w3.org/2000/svg" xmlns:xlink="http://www.w3.org/1999/xlink" width="113.341" height="113.341" viewBox="0 0 113.341 113.341">
  <defs>
    <clipPath id="clip-path">
      <rect id="Rectángulo_461195" data-name="Rectángulo 461195" width="72.984" height="73.564" fill="#6a2874"/>
    </clipPath>
  </defs>
  <g id="Grupo_1212922" data-name="Grupo 1212922" transform="translate(-589.932 -650.788)">
    <path id="Trazado_998483" data-name="Trazado 998483" d="M125.718,69.047a56.67,56.67,0,1,1-56.67-56.67,56.671,56.671,0,0,1,56.67,56.67" transform="translate(577.555 638.411)" fill="#fff"/>
    <g id="Grupo_1212516" data-name="Grupo 1212516" transform="translate(611.009 670)" clip-path="url(#clip-path)">
      <path id="Trazado_1278771" data-name="Trazado 1278771" d="M187.787,39.516,191.1,67.623c-.062,4.915-8.392,6.576-10.158.411-1.356-4.737-1.815-10.328-2.9-15.185-.5.113-.494.668-.6,1.065-1.217,4.576-1.5,9.856-2.807,14.376-1.621,5.626-9.941,4.385-10.087-.648l3.494-28.126c-3.1.254-5.359-.957-5.652-4.224-.294-3.288-.342-12.473.909-15.269,1.213-2.713,3.543-4.123,5.985-5.555-.5-6.2.488-14.282,8.367-14.464,8.188-.189,9.477,8,8.9,14.464.876.817,2.038,1.113,3.014,1.858a10.341,10.341,0,0,1,3.428,5.035c.644,2.311.816,12.46.328,14.833-.551,2.681-3.035,3.562-5.529,3.322m-4.36-25.392V6.815a15.463,15.463,0,0,0-.914-1.651,5.7,5.7,0,0,0-9.2,0,15.455,15.455,0,0,0-.914,1.651V14.38ZM176.5,16.945c-2.353.681-4.812-.27-7.1.722-6.477,2.806-3.531,12.319-4.177,17.865.379,1.376,1.619,1.216,2.814,1.161V26.819c0-1.091,2.821-1.091,2.821,0v9.874h14.105V26.819c0-1.091,2.821-1.091,2.821,0v9.874c1.2.055,2.435.215,2.814-1.161-.561-4.772,1.556-12.719-2.034-16.417a9.1,9.1,0,0,0-4.242-2.169h-5V30.152c0,1.3-2.821,1.3-2.821,0Zm8.426,22.6-14.1.114L167.51,68.305c.57.958,3.667,1.106,4.18-.137l5.074-24.162c2.087-1.164,2.272.284,2.7,1.91,1.859,7.1,2.559,14.893,4.38,22.046l.535.8c1.038.383,3.191.569,3.741-.6Z" transform="translate(-120.613 0)" fill="#6a2874"/>
      <path id="Trazado_1278772" data-name="Trazado 1278772" d="M20.437,60.209c1,.091,1.868-.409,2.892-.477a84.4,84.4,0,0,1,10.533,0,6.214,6.214,0,0,1,2.678.779C38.213,57.9,40.3,54.98,43.823,56.7a4.56,4.56,0,0,1,1.159,7.25,78.457,78.457,0,0,1-7.939,6.166,7.824,7.824,0,0,1-1.515.793c-1.775.451-10.81.334-12.968.131a3.6,3.6,0,0,1-1.1-.183,98.923,98.923,0,0,1-9.406-7.008c-2.814-3.052-.154-8.415,3.991-7.58,2.014.406,3.285,2.379,4.392,3.944m-1.845,4.917c-.144-1.142.532-1.846-.031-2.915a29.552,29.552,0,0,0-2.8-3.115c-1.427-.645-2.363,1.223-1.916,2.437Zm19.75,0c.246.271,4.837-3.242,5-3.593.468-1.008-.452-2.616-1.515-2.564a1.785,1.785,0,0,0-.766.289c-.168.109-2.5,2.871-2.588,3.052-.35.766-.029,1.972-.131,2.816M22.88,62.617c-2.024.222-1.934,5.113-.518,5.538,3.714-.277,8.424.539,12.016.061a1.865,1.865,0,0,0,.631-.139c.74-.36,1.057-5.223-.5-5.4Z" transform="translate(-8.097 -41.771)" fill="#6a2874"/>
      <path id="Trazado_1278773" data-name="Trazado 1278773" d="M95.318,134.119h.769v-6.283c0-1.24,2.821-1.24,2.821,0v6.283h.769v-4.744c0-.862,2.821-1.113,2.821.256v8.591c1.22-.7,1.788-3.4,3.37-3.2,2.789.339.143,3.429-.6,4.567-1,1.541-2.187,3.184-3.294,4.656-.535.71-1.55,1.07-1.254,2.167,2.8.745,2.318,2.9-.651,3.109a71.981,71.981,0,0,1-9,0c-1.272-.106-2.574-.51-2.066-2.071.366-1.127,1.736-.636,1.71-1.4-.033-.958-1.554-1.25-1.8-2.838l-.01-13.57c.312-1.59,2.815-1.072,2.815-.006v4.488c.493.075.687-.2.768-.643.236-1.295-.571-6.066.684-6.495.713-.243,2.138,0,2.138.854Zm4.36,2.821h-7.95v5.77c0,.385,1.578.332,1.609.956l.186,2.763h4.36c.072-.856-.194-1.97.186-2.763s1.609-.734,1.609-.828Z" transform="translate(-66.099 -94.349)" fill="#6a2874"/>
      <path id="Trazado_1278774" data-name="Trazado 1278774" d="M14.6,133.951h.769v-4.488c0-1.056,2.516-1.68,2.8.271a85.086,85.086,0,0,1,0,13.042c-.256,1.8-1.882,1.84-1.741,3.457,2.654.916,2.05,2.864-.662,3.116a66.27,66.27,0,0,1-9,0c-2.806-.234-2.992-2.569-.4-3.108.447-.64-1.248-2.065-1.724-2.721A67.026,67.026,0,0,1,.22,137.178c-.837-1.9.9-3.107,2.187-1.931.8.73,1.3,2.348,2.192,3.063v-8.848c0-1.364,2.821-1.19,2.821,0v4.488l.768-.643.125-6.028c.537-1.072,2.7-.609,2.7.388v5.9l.385.38.385-.38v-5.9c0-1.24,2.821-1.24,2.821,0Zm.769,2.821H7.42v5.77c0,.385,1.578.332,1.609.956l.186,2.763h4.36c.072-.856-.194-1.97.186-2.763s1.609-.734,1.609-.828Z" transform="translate(0 -94.182)" fill="#6a2874"/>
      <path id="Trazado_1278775" data-name="Trazado 1278775" d="M50.145,2.912c.9-.013,2.245-.23,2.688.774a13.754,13.754,0,0,1,.127,3.706c-.25,1.338-1.73,1.232-2.815,1.16.056,1.2.216,2.436-1.16,2.815L28.2,11.134c-.887-.629-.609-1.622-.624-2.582-1.086.073-2.565.178-2.815-1.16a13.754,13.754,0,0,1,.127-3.706c.443-1,1.791-.788,2.688-.774.015-.96-.263-1.953.624-2.582L48.986.1c1.376.38,1.216,1.619,1.16,2.815m-2.82,0H30.4V8.553h6.924c-.342-1.915.8-3.707,2.7-2.31l.125,2.31h7.181Z" transform="translate(-18.363 -0.072)" fill="#6a2874"/>
      <path id="Trazado_1278776" data-name="Trazado 1278776" d="M13.51,236.563c.23-1.322-.627-4.89.775-5.508a32.223,32.223,0,0,1,6.913,0,1.765,1.765,0,0,1,.535.491c.9,1.512-.178,10.01.234,12.319-.256.922-.784,1.094-1.644,1.177a73.809,73.809,0,0,1-10.527-.019,4.264,4.264,0,0,1-2.836-7.189,5.511,5.511,0,0,1,2.32-1.271Zm5.642-2.821H16.331v4.745c0,1.572-5.78.529-6.918,1.032-1.423.629-.512,2.687.122,2.687h9.617Z" transform="translate(-4.295 -171.661)" fill="#6a2874"/>
      <path id="Trazado_1278777" data-name="Trazado 1278777" d="M99.012,236.563h4.232a8.73,8.73,0,0,1,2.192,1.142,4.288,4.288,0,0,1-2.7,7.322,72.9,72.9,0,0,1-10.531.015c-.86-.083-1.389-.254-1.644-1.177.412-2.309-.671-10.807.234-12.319a1.765,1.765,0,0,1,.535-.491,32.223,32.223,0,0,1,6.913,0c1.4.618.545,4.186.775,5.508m-2.821-2.821H93.37v8.463h9.361a1.426,1.426,0,0,0,.324-2.632c-1.205-.557-6.863.461-6.863-1.087Z" transform="translate(-67.229 -171.661)" fill="#6a2874"/>
    </g>
  </g>
</svg>
