<svg xmlns="http://www.w3.org/2000/svg" xmlns:xlink="http://www.w3.org/1999/xlink" width="69" height="69" viewBox="0 0 69 69">
  <defs>
    <clipPath id="clip-path">
      <rect id="Rectángulo_461200" data-name="Rectángulo 461200" width="31.866" height="45" fill="#fff"/>
    </clipPath>
  </defs>
  <g id="Grupo_1209911" data-name="Grupo 1209911" transform="translate(-304.77 -11338.319)">
    <circle id="Elipse_13679" data-name="Elipse 13679" cx="34.5" cy="34.5" r="34.5" transform="translate(304.77 11338.319)" fill="#6a2874"/>
    <g id="Grupo_1212527" data-name="Grupo 1212527" transform="translate(323.769 11350.319)">
      <g id="Grupo_1212526" data-name="Grupo 1212526" clip-path="url(#clip-path)">
        <path id="Trazado_1278981" data-name="Trazado 1278981" d="M.782,199.67c-.44-.094-.571-.636-.611-1.02a77.064,77.064,0,0,1,0-10.194,7.487,7.487,0,0,1,1.56-4.421c2.466-3.05,7.66-2.92,11.136-4.2l.082-.83a10.156,10.156,0,0,0,5.911,0l.149.833c4.268,1.456,10.909,1.184,12.36,6.509.587,2.153.589,9.916.339,12.3-.034.323-.217,1.02-.611,1.02h-4.01v-8.9a1.4,1.4,0,0,0-.619-.483,1.079,1.079,0,0,0-.741.483v8.9H6.152v-8.9a1.4,1.4,0,0,0-.619-.483,1.079,1.079,0,0,0-.741.483v8.9Zm9.271-15.459c-.309-.37-1.817-1.171-2.324-.839-1.212.794,1.153,2.14,2,1.993a.7.7,0,0,0,.327-1.154m11.109,4.242a5.222,5.222,0,1,0-5.223,5.222,5.223,5.223,0,0,0,5.223-5.222m.656-3.225c.787.78,3.929-1.386,2.147-1.951-.559-.177-2.989,1.009-2.147,1.951m-15.025,2.51c-.766.165-.824,1.345.239,1.468.877.1,2.349.236,2.11-1.021-.122-.644-1.83-.558-2.35-.446m16.449,0c-.766.165-.824,1.345.239,1.468.877.1,2.349.236,2.11-1.021-.122-.644-1.83-.558-2.35-.446m-13.182,3.944c-.787-.78-3.929,1.386-2.147,1.952.559.177,2.989-1.009,2.147-1.952M21.826,192.7c.309.37,1.817,1.171,2.324.839,1.212-.794-1.153-2.14-2-1.993a.7.7,0,0,0-.327,1.154" transform="translate(0 -154.67)" fill="#fff"/>
        <path id="Trazado_1278982" data-name="Trazado 1278982" d="M62.248,60.154a15.83,15.83,0,0,0,10.535-2.811l4.393,3.04c-.108,2.679.493,5.639-.652,8.133a7.5,7.5,0,0,1-13.833-.581,8.339,8.339,0,0,1-.443-1.6Zm2.817,1.526c-.766.165-.824,1.345.239,1.468.877.1,2.349.236,2.11-1.021-.122-.644-1.83-.558-2.35-.446m7.477,0c-.766.165-.824,1.345.239,1.468.877.1,2.349.236,2.11-1.021-.122-.644-1.83-.558-2.35-.446M67.32,69.222c.678.814,1.556-.535,2.461-.5.832.036,1.67,1.267,2.317.53.923-1.053-1.565-2.058-2.435-2.037-.814.019-3.177,1-2.342,2" transform="translate(-53.786 -49.548)" fill="#fff"/>
        <path id="Trazado_1278983" data-name="Trazado 1278983" d="M63.064,8.975c-.838-.388-3.868-2.9-4.544-2.854-.277.018-2.248,1.443-2.791,1.7A15.749,15.749,0,0,1,48.07,9.113c-2.266-2.19-3.65-7.747.388-8.831,1.521-.408,8.471-.295,10.329-.149,1.893.149,4.277,1.828,4.277,3.879Z" transform="translate(-39.647 0)" fill="#fff"/>
        <path id="Trazado_1278984" data-name="Trazado 1278984" d="M39.349,89.019v3.67a1.836,1.836,0,1,1,0-3.67" transform="translate(-32.382 -76.917)" fill="#fff"/>
        <path id="Trazado_1278985" data-name="Trazado 1278985" d="M183.249,92.689v-3.67a1.836,1.836,0,1,1,0,3.67" transform="translate(-158.337 -76.917)" fill="#fff"/>
        <path id="Trazado_1278986" data-name="Trazado 1278986" d="M97.183,224.736a3.74,3.74,0,1,1-3.74-3.74,3.74,3.74,0,0,1,3.74,3.74m-1.5,0a2.235,2.235,0,1,0-2.235,2.235,2.235,2.235,0,0,0,2.235-2.235" transform="translate(-77.508 -190.953)" fill="#fff"/>
        <path id="Trazado_1278987" data-name="Trazado 1278987" d="M113.247,243.771a.747.747,0,1,1-.747-.747.747.747,0,0,1,.747.747" transform="translate(-96.561 -209.986)" fill="#fff"/>
      </g>
    </g>
  </g>
</svg>
