<svg xmlns="http://www.w3.org/2000/svg" xmlns:xlink="http://www.w3.org/1999/xlink" width="85" height="85" viewBox="0 0 85 85">
  <defs>
    <clipPath id="clip-path">
      <rect id="Rectángulo_460563" data-name="Rectángulo 460563" width="66.485" height="68" fill="#8d1939"/>
    </clipPath>
  </defs>
  <g id="Grupo_1210726" data-name="Grupo 1210726" transform="translate(-0.422 -0.436)">
    <path id="Sustracción_110" data-name="Sustracción 110" d="M0,0H85V85H0Z" transform="translate(0.422 0.436)" fill="#ffe19a"/>
    <g id="Grupo_1211018" data-name="Grupo 1211018" transform="translate(9.422 8.436)">
      <g id="Grupo_1211017" data-name="Grupo 1211017" clip-path="url(#clip-path)">
        <path id="Trazado_1273108" data-name="Trazado 1273108" d="M7.11,27.554c.066-4.159-.055-8.792.835-12.863C9.2,8.969,13.731,5.752,19.6,6.925c7.8-6.681,15.989-8.96,25.788-4.919C49.47,3.691,53.18,7.388,57.7,6.935c1.66-.166,4.855-1.6,6.2-1.3,1.51.338.762,3.151.471,4.274A11.316,11.316,0,0,1,62,14.344c-.851.985-3.413,2.7-3.586,3.8a12.249,12.249,0,0,0-.019,1.94c.078,2.434.732,5.014.785,7.473,1.993-.031,3.746-.248,5.349,1.159C68.281,32,66.346,40.5,61.176,41.3c-.586.091-2.03-.11-2.29.236-1.667,7.015-6.267,13.1-11.944,17.4,1.643.4,3.3.134,4.91.723,4,1.461,4.9,6.757.415,8.1-4.126-.251-8.751.392-12.816.026-2.177-.2-2.308-2.5.2-2.737,3.881-.361,8.307.284,12.249.008l.393-.189c.837-1.435-.36-2.435-1.685-2.793-3.514-.951-11.957.777-13.133-4.159-.24-1-.043-2.268-.738-3.148-1.25-1.582-5.4-1.578-6.792-.2-.914.9-.659,2.242-.924,3.351-1.168,4.893-9.485,3.241-12.975,4.123-1.392.351-2.7,1.279-1.843,2.829l.393.189,12.934.084c1.706.408,1.5,2.464-.489,2.645A90.14,90.14,0,0,1,14.4,67.774c-2.722-.291-3.876-3.406-2.629-5.739,1.585-2.965,4.935-2.7,7.777-3.1-5.677-4.3-10.277-10.38-11.944-17.4-.259-.346-1.7-.146-2.289-.236-5.224-.808-7.137-9.5-3.257-12.684A8.964,8.964,0,0,1,4.1,27.554ZM61.9,8.708c-1.477.2-2.9.819-4.4.945-4.709.4-7.876-2.775-11.855-4.611C38.7,1.834,32.546,1.617,25.9,5.635c-1.161.7-5.475,4.219-6.257,4.211-1.163-.011-1.9-.731-3.6-.469C9.163,10.434,9.941,20.73,9.832,25.8,12.551,23.64,16.785,21.4,20.279,21c3.241-.367,8.345,1.6,11.7,2.378a217.71,217.71,0,0,0,24.482,3.98c.135-3-1.233-6.833-.687-9.723.455-2.41,3.576-3.907,4.855-5.832.245-.368,1.448-2.93,1.274-3.1M39.969,55.554a2.261,2.261,0,0,0,3.095,2.8c4.513-1.959,10.281-9.415,12.128-13.907,1.542-3.751,1.967-9.878,1.473-13.895-.025-.207.007-.454-.191-.587A201.952,201.952,0,0,1,32.6,26.256c-3.1-.711-6.517-1.942-9.546-2.5-3.345-.617-8.2,1.509-10.875,3.523-.663.5-2.257,1.742-2.358,2.5a64.108,64.108,0,0,0,0,8.956c.467,6.795,6.191,14.479,11.6,18.32,1.419,1.008,3.02,2.414,4.63.809.655-.652.515-1.452.464-2.309-3.827-1.107-3.422-5.289-1.826-8.185,3.792-6.881,14.689-6.3,17.622,1.037,1.109,2.776,1,6.242-2.344,7.148M7.11,30.08C5.164,30,3.65,29.926,2.934,32.023c-1,2.938.637,6.972,4.177,6.8Zm52.266,8.743c3.54.172,5.18-3.861,4.177-6.8-.716-2.1-2.23-2.027-4.177-1.944ZM31.934,45.285a7.2,7.2,0,0,0-5.349,4.171c-.426,1.125-.828,2.489.245,3.357.981.793,1.01-.034,1.784-.55a8.041,8.041,0,0,1,10.292.908c2.472-.634,1.232-3.774.15-5.2a7.507,7.507,0,0,0-7.122-2.687" transform="translate(0 0)" fill="#8d1939"/>
        <path id="Trazado_1273109" data-name="Trazado 1273109" d="M165.666,334.9c1.513-.239,2.093,2.512.326,2.688-1.848.184-1.894-2.441-.326-2.688" transform="translate(-132.574 -269.821)" fill="#8d1939"/>
        <path id="Trazado_1273110" data-name="Trazado 1273110" d="M94.4,173.8c.1-.453-.062-.311-.249-.432-.992-.642-5.662-2.169-3.63-3.929.975-.845,3.789.973,4.854,1.544.6.32,3.135,1.567,3.262,1.982a2.9,2.9,0,0,1,0,1.287c-.218.714-5.683,2.99-6.578,3.718a1.339,1.339,0,0,1-1.951-1.351c.069-1.119,3.3-2.32,4.292-2.819" transform="translate(-72.527 -136.336)" fill="#8d1939"/>
        <path id="Trazado_1273111" data-name="Trazado 1273111" d="M211.575,173.082c-.1.453.06.31.249.432.733.473,3.523,1.646,3.842,2.174a1.356,1.356,0,0,1-1.614,2.01,43.227,43.227,0,0,1-3.842-1.992c-1.431-.77-4.047-1.613-2.516-3.5,1.51-.511,5.741-3.534,7.068-3.4a1.273,1.273,0,0,1,1.1,1.456c-.068,1.11-3.3,2.362-4.292,2.819" transform="translate(-166.965 -136.005)" fill="#8d1939"/>
      </g>
    </g>
  </g>
</svg>
