<svg xmlns="http://www.w3.org/2000/svg" xmlns:xlink="http://www.w3.org/1999/xlink" width="69" height="69" viewBox="0 0 69 69">
  <defs>
    <clipPath id="clip-path">
      <rect id="Rectángulo_460531" data-name="Rectángulo 460531" width="42" height="40.688" fill="#fff"/>
    </clipPath>
  </defs>
  <g id="Grupo_1210718" data-name="Grupo 1210718" transform="translate(-304.77 -11337.717)">
    <circle id="Elipse_13679" data-name="Elipse 13679" cx="34.5" cy="34.5" r="34.5" transform="translate(304.77 11337.717)" fill="#6a2874"/>
    <g id="Grupo_1210956" data-name="Grupo 1210956" transform="translate(318.769 11351.717)">
      <g id="Grupo_1210955" data-name="Grupo 1210955" clip-path="url(#clip-path)">
        <path id="Trazado_1273000" data-name="Trazado 1273000" d="M28.771,4.977a17.861,17.861,0,0,1,9.962,13.069c.9.3,1.471-.1,2.343.545a2.21,2.21,0,0,1-1.092,3.994H2.018A2.21,2.21,0,0,1,.926,18.592c.871-.648,1.441-.244,2.342-.545A17.88,17.88,0,0,1,13.23,4.977c.153,1.118.278,2.248.413,3.37.042.351-.038.726.013,1.087a1.174,1.174,0,1,0,2.338-.124l-.85-7.977c.022-.8.411-1.106,1.175-1.175a69.036,69.036,0,0,1,9.363,0,1.1,1.1,0,0,1,1.128.8l-.8,8.489a1.142,1.142,0,0,0,2.219.425Z" transform="translate(-0.001 0.001)" fill="#fff"/>
        <path id="Trazado_1273001" data-name="Trazado 1273001" d="M.654,193.728a2.254,2.254,0,0,1-.491-.334,12.719,12.719,0,0,1,0-3.975c.277-.438,2.345-.143,2.9-.228a2.962,2.962,0,0,1,3.087-3.032l30.222.042a2.9,2.9,0,0,1,2.579,2.99c.555.086,2.622-.21,2.9.228a12.719,12.719,0,0,1,0,3.975,2.6,2.6,0,0,1-.491.334H38.95v3.506A26.434,26.434,0,0,1,35,201.124c-3.081-.162-6.569.314-9.6.036a2.178,2.178,0,0,1-.482-.068c-.868-.266-2.657-3.882-3.912-4.3-1.226.418-3.064,4.038-3.912,4.3a2.178,2.178,0,0,1-.482.068c-3.034.278-6.522-.2-9.6-.036a26.433,26.433,0,0,1-3.948-3.89v-3.506c-.7-.1-1.757.137-2.406,0m35.408-4.538H5.948V196l2.272,2.128,7.531.005c1.14-1.514,3.162-4.414,5.254-4.414s4.114,2.9,5.254,4.414l7.531-.005L36.062,196Z" transform="translate(-0.005 -160.561)" fill="#fff"/>
      </g>
    </g>
  </g>
</svg>
