<svg xmlns="http://www.w3.org/2000/svg" xmlns:xlink="http://www.w3.org/1999/xlink" width="187.711" height="121.729" viewBox="0 0 187.711 121.729">
  <defs>
    <clipPath id="clip-path">
      <rect id="Rectángulo_460541" data-name="Rectángulo 460541" width="104.667" height="104.663" fill="none"/>
    </clipPath>
  </defs>
  <g id="Grupo_1212910" data-name="Grupo 1212910" transform="translate(-297.711 -1048)">
    <g id="Grupo_1210720" data-name="Grupo 1210720" transform="translate(8.434 -7820.039)">
      <g id="Grupo_1204518" data-name="Grupo 1204518" transform="translate(289.277 8868.039)">
        <rect id="Rectángulo_455283" data-name="Rectángulo 455283" width="187.711" height="121.729" rx="19" fill="#e9c3ff"/>
      </g>
    </g>
    <g id="Grupo_1210960" data-name="Grupo 1210960" transform="translate(339.711 1056)">
      <g id="Grupo_1210959" data-name="Grupo 1210959" clip-path="url(#clip-path)">
        <path id="Trazado_1273013" data-name="Trazado 1273013" d="M126.782,53.661l3.975,7c2.842,6.463,5.073,18.069-.408,23.619-1.511,1.529-3.577,2.234-5.4,3.279.9,4.45,3.543,8.145.413,12.45-.543.748-4.316,4.54-4.927,4.657l-31.367-.154c-3.408-3.479-6.6-5.263-5.854-10.788.182-1.353,2.1-5.269,1.8-6.165-1.081-.755-2.309-1.07-3.471-1.8-8.675-5.481-5.09-20.261-.994-27.772.578-1.061,2.372-3.184,2.63-3.864.218-.574-.219-.394-.424-.485-.792-.351-5.357-1.883-5.448-2.3a36.907,36.907,0,0,0,5.114-12.5C84.7,26.624,79.64,15.07,90.3,5.58c11.283-10.047,29.368-6.012,34.995,7.987,2.509,6.241,1.134,12.414,1.478,18.927a37.649,37.649,0,0,0,5.889,18.839ZM89.993,13.468c.249.232-.187,5.894,0,6.8h3.092v-6.8h3.4v6.8h3.4v-6.8h3.4v6.8h3.4v-6.8h3.4v6.8h3.4v-6.8h3.4v6.8h3.092v-6.8c.423-.063,1.462.3,1.232-.458-.436-1.443-3.57-4.679-4.841-5.672a18.521,18.521,0,0,0-22.771,0c-1.267.982-4.407,4.239-4.841,5.672-.258.853,1.05.288,1.232.458m-.349,10.243c-.1-.153-2.676-.984-3.048-1.9.231,9.65.209,19.222-4.338,27.973.907.2,2.121,1.054,2.98,1.085.823.031,2.8-2.108,3.686-2.766,1.364-1.02,2.8-1.935,4.139-2.981a20.71,20.71,0,0,1-3.341-8.663c-.19-1.9.273-12.219-.078-12.752m38.067,26.235c-1.37-3.528-2.949-6.981-3.627-10.747-1.035-5.75-.489-11.582-.855-17.382a6.6,6.6,0,0,1-2.953,2.056c-.185,7.332,1.289,14.986-3.381,21.262l7.329,5.7ZM116.89,23.67H93.085V36.5c0,1.887,2.031,5.747,3.386,7.125,3.161,3.215,2.908.589,5.87-.031a6.1,6.1,0,0,1,4.565.725c2.4,1.425,1.35,2.967,4.7.808,2.411-1.554,5.284-5.728,5.284-8.628ZM80.1,68.806c-.5,5.358-1.531,12.2,4.517,14.807,4.85,2.094,8.869-.332,10.993-4.7a246.078,246.078,0,0,0,10.463-26.946c.527-1.634,1.1-2.851-.308-4.338a2.945,2.945,0,0,0-4.591.675L88.153,76.093c-6.007.056-.9-3.525-1.908-5.084-.179-.275-5.915-2.438-6.144-2.2m1.273-3.438c1.058.256,6.322,3.017,6.778,2.691l8.943-19.2c-.624-2.37-3.635.164-4.852,1.021-4.959,3.5-9.667,9.48-10.869,15.488m47.227,0c-1.236-5.974-5.911-11.992-10.87-15.488-1.217-.858-4.227-3.391-4.852-1.021l8.943,19.2c2.25-.48,4.514-1.883,6.779-2.691M121.875,76.19,109.782,50.876c-.267,3.153-2.667,5.9-2.778,9.091,4.155,6.8,6.138,28.921,18.354,23.645,6.047-2.612,5.017-9.448,4.516-14.807a39.247,39.247,0,0,0-6.144,2.2c-.679,1.045,1.421,3.225,1.173,4.089-.331.652-2.566,1.385-3.027,1.093m-.731,11.549a49.2,49.2,0,0,1-4.77-1.567c-5.812-3.262-8.135-14.348-10.786-20.439-.165-.38-.3-1.241-.752-1.251-3.647,6.98-4.648,19.436-12.9,22.5-.747.277-2.915.506-3.2.889-.2.262-1.972,5.641-2.064,6.209-.6,3.766,1.875,5.086,4.415,7.185l28.063-.057c2.387-2.394,4.781-3.269,4.162-7.129a53.106,53.106,0,0,0-2.163-6.339" transform="translate(-52.654 0)" fill="#12263f"/>
        <path id="Trazado_1273014" data-name="Trazado 1273014" d="M9.478,90.424c-.137.237-3.766,2.133-4.554,3.019-3.768,4.242-.169,8.08,3.859,9.965.364.171,1.272.326,1.316.378.119.139.222,2.687.562,3.613.863,2.353,3.044,3.709,5.346,4.4l-1.422,3.111A10.92,10.92,0,0,1,7.7,109.433c-.425-.919-.634-2.612-1.129-3.2-.4-.47-2.148-1.16-2.9-1.735A9.027,9.027,0,0,1,3.636,90c-5.6-4.975-4.6-13.685,2.4-16.775a37,37,0,0,1,5.142-1.6c.478.143,1.3,2.641.993,3.082-.282.4-3.963,1.287-4.816,1.689a6.37,6.37,0,0,0-1.52,10.793c.775.66,4.232,2.223,3.646,3.238" transform="translate(0 -49.476)" fill="#12263f"/>
        <path id="Trazado_1273015" data-name="Trazado 1273015" d="M288.037,114.831l-1.261-3.067c2.18-.651,4.378-1.966,5.267-4.166.4-.993.46-3.063.76-3.569.589-1,4.822-1.523,6.1-4.721,1.831-4.593-2.255-7.1-5.646-9.043-.186-1.083,2.84-2.379,3.7-3.109a6.447,6.447,0,0,0-.3-10.155c-1.172-.806-5.751-1.925-6.034-2.327-.311-.442.441-3.083,1.241-3.1a36.737,36.737,0,0,1,6.15,2.214c5.887,3.377,6.29,11.874,1.141,16.177a9.027,9.027,0,0,1-.032,14.5c-.73.557-2.776,1.427-3.088,1.859a28.3,28.3,0,0,0-.847,2.863,10.379,10.379,0,0,1-7.144,5.64" transform="translate(-198.116 -49.446)" fill="#12263f"/>
        <path id="Trazado_1273016" data-name="Trazado 1273016" d="M283.284,276.822c.728,1.015-3,4.818-3.9,5.487-2.162,1.612-5.635,1.969-6.5,2.617-.269.2-.633,1.176-1.025,1.6-2.88,3.132-5.751,5.018-10.194,5.109.122-.629-.19-3.111.032-3.371.1-.123,2.517-.491,3.146-.718,2.695-.971,3.631-2.188,5.11-4.473.238-.367.65-1.548.725-1.593.16-.1,2.885-.2,3.73-.445,2.45-.7,5.207-2.925,5.811-5.477a29.485,29.485,0,0,1,3.067,1.261" transform="translate(-180.734 -190.369)" fill="#12263f"/>
        <path id="Trazado_1273017" data-name="Trazado 1273017" d="M46.506,130.9c.364.364,1.061,3.2,1.792,4.237.471.667,2.543,2.2,2.584,2.369a14.334,14.334,0,0,1-1.143,2.51c-.151.268.11.526-.489.359-1.79-.5-3.7-3.108-4.647-4.634-.344-.552-.507-1.662-.891-2.047s-1.926-.859-2.706-1.467a6.952,6.952,0,0,1-.622-10.221,9.841,9.841,0,0,1,2.069-1.349c.562-.055,1.677,2.673,1.629,2.875-.086.363-1.541.909-1.906,1.811-1.944,4.807,3.116,4.342,4.331,5.557" transform="translate(-26.552 -83.356)" fill="#12263f"/>
        <path id="Trazado_1273018" data-name="Trazado 1273018" d="M267.007,133.61c-.543.543-1.376,3-2.254,4.083-.472.582-3.149,3.034-3.7,2.635.056-.771-1.34-2.387-1.217-2.906.041-.17,2.113-1.7,2.584-2.369.731-1.036,1.428-3.873,1.792-4.237,1.286-1.285,5.915-.518,4.426-5.344-.335-1.085-1.909-1.642-2-2.024-.095-.4,1.172-2.326,1.377-2.915,5.085,1.892,5.751,8.78,1.361,11.892-.633.449-2.013.827-2.371,1.184" transform="translate(-179.502 -83.27)" fill="#12263f"/>
        <path id="Trazado_1273019" data-name="Trazado 1273019" d="M26.275,21.606c7.856-1.241,7.925,11.569-.315,10.057-5.223-.958-5.072-9.206.315-10.057m2.168,6.346c1.484-1.483-.948-4.2-2.54-2.384-1.494,1.7,1.156,3.768,2.54,2.384" transform="translate(-15.293 -14.867)" fill="#12263f"/>
        <path id="Trazado_1273020" data-name="Trazado 1273020" d="M58.637,283.568a5.108,5.108,0,0,1,3.779,9.342c-4.251,2.766-9.616-2.031-7.1-6.795a5.27,5.27,0,0,1,3.325-2.547m-.151,3.711c-1.3,1.3.506,4.163,2.386,2.541,1.812-1.563-.891-4.037-2.386-2.541" transform="translate(-37.768 -195.829)" fill="#12263f"/>
        <path id="Trazado_1273021" data-name="Trazado 1273021" d="M277.14,32.61c6.927-1.108,8.133,9.4,1.436,10.112s-7.741-9.1-1.436-10.112m.3,3.376c-1.991.531-1.226,3.978,1.1,3.3,2.089-.611.973-3.851-1.1-3.3" transform="translate(-188.559 -22.472)" fill="#12263f"/>
        <path id="Trazado_1273022" data-name="Trazado 1273022" d="M276.361,218.494c4.33-.892,8.011,2.841,6.08,7.007-2.375,5.125-10.384,3.014-9.681-2.875a5.37,5.37,0,0,1,3.6-4.132m1.236,3.072c-2.2.337-1.907,4.337,1.117,3.3,1.439-.5.851-3.6-1.117-3.3" transform="translate(-188.403 -150.852)" fill="#12263f"/>
        <rect id="Rectángulo_460533" data-name="Rectángulo 460533" width="3.404" height="3.404" transform="translate(80.929 23.668)" fill="#12263f"/>
        <rect id="Rectángulo_460534" data-name="Rectángulo 460534" width="3.404" height="3.404" transform="translate(13.532 74.061)" fill="#12263f"/>
        <rect id="Rectángulo_460535" data-name="Rectángulo 460535" width="3.404" height="3.404" transform="translate(97.933 77.462)" fill="#12263f"/>
        <rect id="Rectángulo_460536" data-name="Rectángulo 460536" width="3.404" height="3.404" transform="translate(3.33 84.263)" fill="#12263f"/>
        <rect id="Rectángulo_460537" data-name="Rectángulo 460537" width="3.404" height="3.404" transform="translate(77.528 6.664)" fill="#12263f"/>
        <rect id="Rectángulo_460538" data-name="Rectángulo 460538" width="3.404" height="3.404" transform="translate(16.933 27.069)" fill="#12263f"/>
        <rect id="Rectángulo_460539" data-name="Rectángulo 460539" width="3.404" height="3.404" transform="translate(77.528 87.664)" fill="#12263f"/>
        <path id="Trazado_1273023" data-name="Trazado 1273023" d="M144.291,231.826a53.109,53.109,0,0,1,2.163,6.339c.62,3.86-1.775,4.735-4.162,7.129l-28.063.057c-2.54-2.1-5.019-3.419-4.415-7.185.091-.569,1.867-5.948,2.064-6.209.288-.383,2.456-.612,3.2-.889,8.255-3.062,9.255-15.518,12.9-22.5.455.011.587.871.752,1.251,2.651,6.091,4.974,17.178,10.786,20.439a49.193,49.193,0,0,0,4.77,1.567" transform="translate(-75.8 -144.088)" fill="#eabb5d"/>
        <path id="Trazado_1273024" data-name="Trazado 1273024" d="M154.581,76.561v12.83c0,2.9-2.873,7.074-5.284,8.628-3.349,2.159-2.3.617-4.7-.809a6.107,6.107,0,0,0-4.566-.725c-2.962.62-2.708,3.246-5.87.031-1.355-1.378-3.386-5.237-3.386-7.125V76.561ZM135.3,78.747c-4.211,2.742-.2,3.641-.2,4.461,0,.732-4.16,2,.427,4.461.681-.776,4.227-3.753,4.227-4.461-.314-.744-4.011-4.538-4.452-4.461m14.531,0c-.681.776-4.227,3.752-4.227,4.46.314.744,4.011,4.538,4.451,4.461,4.212-2.742.2-3.64.2-4.461,0-.732,4.161-2-.427-4.46m-5.453,8.016h-3.4v6.492h3.4Z" transform="translate(-90.345 -52.891)" fill="#ebccb1"/>
        <path id="Trazado_1273025" data-name="Trazado 1273025" d="M87.9,173.387c.229-.235,5.965,1.927,6.144,2.2,1.01,1.559-4.1,5.14,1.908,5.084l13.021-27.793a2.946,2.946,0,0,1,4.592-.675c1.409,1.486.835,2.7.308,4.338a246.011,246.011,0,0,1-10.463,26.946c-2.124,4.372-6.144,6.8-10.993,4.7-6.047-2.611-5.017-9.449-4.516-14.807" transform="translate(-60.449 -104.582)" fill="#ebccb1"/>
        <path id="Trazado_1273026" data-name="Trazado 1273026" d="M117.947,21.119c-.182-.17-1.49.395-1.232-.458.433-1.433,3.574-4.691,4.841-5.672a18.522,18.522,0,0,1,22.772,0c1.271.994,4.4,4.229,4.84,5.672.23.761-.809.394-1.232.458v6.8h-3.092v-6.8h-3.4v6.8h-3.4v-6.8h-3.4v6.8h-3.4v-6.8h-3.4v6.8h-3.4v-6.8h-3.4v6.8h-3.092c-.187-.907.249-6.57,0-6.8" transform="translate(-80.608 -7.651)" fill="#636b76"/>
        <path id="Trazado_1273027" data-name="Trazado 1273027" d="M190.67,189.876c.461.293,2.7-.441,3.027-1.093.249-.864-1.851-3.044-1.173-4.089a39.225,39.225,0,0,1,6.144-2.2c.5,5.359,1.531,12.2-4.516,14.807-12.216,5.276-14.2-16.847-18.353-23.645.112-3.194,2.512-5.938,2.778-9.091Z" transform="translate(-121.449 -113.686)" fill="#ebccb1"/>
        <path id="Trazado_1273028" data-name="Trazado 1273028" d="M92.9,172.34c1.2-6.008,5.91-11.992,10.869-15.488,1.217-.858,4.227-3.391,4.852-1.021l-8.944,19.2c-.456.327-5.72-2.434-6.778-2.691" transform="translate(-64.177 -106.973)" fill="#eabb5d"/>
        <path id="Trazado_1273029" data-name="Trazado 1273029" d="M210.524,172.34c-2.264.808-4.528,2.211-6.778,2.691l-8.944-19.2c.625-2.37,3.635.164,4.852,1.021,4.959,3.5,9.634,9.514,10.869,15.488" transform="translate(-134.577 -106.973)" fill="#eabb5d"/>
        <path id="Trazado_1273030" data-name="Trazado 1273030" d="M103.143,72.456c.35.533-.112,10.857.078,12.752a20.706,20.706,0,0,0,3.341,8.663c-1.342,1.046-2.775,1.962-4.139,2.982-.881.658-2.863,2.8-3.686,2.767-.859-.032-2.073-.887-2.98-1.085,4.546-8.751,4.568-18.323,4.338-27.973.372.911,2.948,1.743,3.048,1.9" transform="translate(-66.153 -48.746)" fill="#636b76"/>
        <path id="Trazado_1273031" data-name="Trazado 1273031" d="M218.61,98.695l-3.488.885-7.329-5.7c4.67-6.276,3.2-13.93,3.381-21.262a6.594,6.594,0,0,0,2.953-2.056c.367,5.8-.18,11.632.855,17.382.678,3.766,2.257,7.218,3.627,10.747" transform="translate(-143.552 -48.75)" fill="#636b76"/>
        <path id="Trazado_1273032" data-name="Trazado 1273032" d="M35.87,35.645c-1.383,1.384-4.034-.683-2.54-2.384,1.592-1.814,4.023.9,2.54,2.384" transform="translate(-22.719 -22.561)" fill="#ff9ebf"/>
        <path id="Trazado_1273033" data-name="Trazado 1273033" d="M66.034,294.767c1.5-1.5,4.2.978,2.386,2.541-1.88,1.622-3.682-1.244-2.386-2.541" transform="translate(-45.315 -203.317)" fill="#ff9ebf"/>
        <path id="Trazado_1273034" data-name="Trazado 1273034" d="M284.949,43.572c2.07-.552,3.187,2.688,1.1,3.3-2.324.68-3.089-2.767-1.1-3.3" transform="translate(-196.065 -30.058)" fill="#ff9ebf"/>
        <path id="Trazado_1273035" data-name="Trazado 1273035" d="M285.292,228.68c1.967-.3,2.556,2.8,1.117,3.3-3.023,1.04-3.318-2.961-1.117-3.3" transform="translate(-196.098 -157.967)" fill="#ff9ebf"/>
        <path id="Trazado_1273036" data-name="Trazado 1273036" d="M141.1,83.63c.441-.077,4.137,3.716,4.451,4.461,0,.708-3.546,3.685-4.227,4.46-4.588-2.459-.427-3.728-.427-4.46,0-.82-4.009-1.719.2-4.461" transform="translate(-96.141 -57.774)" fill="#12263f"/>
        <path id="Trazado_1273037" data-name="Trazado 1273037" d="M182.967,83.634c4.588,2.46.427,3.728.427,4.461,0,.82,4.009,1.719-.2,4.46-.441.077-4.137-3.716-4.452-4.46,0-.708,3.546-3.685,4.227-4.461" transform="translate(-123.481 -57.778)" fill="#12263f"/>
        <rect id="Rectángulo_460540" data-name="Rectángulo 460540" width="3.401" height="6.492" transform="translate(50.633 33.872)" fill="#12263f"/>
      </g>
    </g>
  </g>
</svg>
