<svg xmlns="http://www.w3.org/2000/svg" xmlns:xlink="http://www.w3.org/1999/xlink" width="150" height="150" viewBox="0 0 150 150">
  <defs>
    <clipPath id="clip-path">
      <rect id="Rectángulo_461289" data-name="Rectángulo 461289" width="78.152" height="77.972" fill="#6a2874"/>
    </clipPath>
  </defs>
  <g id="Grupo_1209962" data-name="Grupo 1209962" transform="translate(-561.711 -8567.084)">
    <g id="Grupo_1207828" data-name="Grupo 1207828" transform="translate(561.711 8567.084)">
      <g id="Grupo_1177470" data-name="Grupo 1177470" transform="translate(0 0)">
        <circle id="Elipse_13609" data-name="Elipse 13609" cx="75" cy="75" r="75" fill="#f6e1fe"/>
        <g id="Grupo_1207827" data-name="Grupo 1207827" transform="translate(32.621 32.621)">
          <g id="Grupo_1099618" data-name="Grupo 1099618" transform="translate(0.149 0.009)">
            <rect id="Rectángulo_401104" data-name="Rectángulo 401104" width="84.532" height="84.532" transform="translate(0)" fill="none"/>
          </g>
          <g id="Grupo_1212590" data-name="Grupo 1212590" transform="translate(3.149 3.009)">
            <g id="Grupo_1212589" data-name="Grupo 1212589" clip-path="url(#clip-path)">
              <path id="Trazado_1279149" data-name="Trazado 1279149" d="M92.3,145.367h.435c.546-1.23,2.709-3.367,4.112-2.221,1.757,1.435-1.209,3.112-1.934,4.285a6.093,6.093,0,0,0-.854,2.915c-.711,9.5.55,19.891.012,29.488a5.917,5.917,0,1,0,9.293-5.525c-1.041-.728-3.107-.832-3.023-2.418.176-3.332,5.234,0,6.357,1.3,1.449,1.681,1.157,3.731,3.982,1.754a6.011,6.011,0,0,0,2.244-7.093c-.388-1.081-1.785-2.184-1.765-3.1.014-.642,1.291-1.946,1.638-2.766a5.9,5.9,0,0,0-4.405-8.217c-.8,2.275-4.883,6.266-7.4,5.191a1.713,1.713,0,0,1-.628-1.63c.334-1.1,2.575-1.586,3.565-2.439a6.045,6.045,0,0,0,1.89-3.65c.15-1.428-.986-4.187,1.043-4.507,1.943-.306,1.977,2.687,2.156,3.964a9.158,9.158,0,0,1,5.744,14.062,9.105,9.105,0,0,1-5.814,14.1A9.05,9.05,0,0,1,92.6,184.4c-.941.622-1.606,1.615-2.578,2.25A9.009,9.009,0,0,1,76.1,178.86a8.922,8.922,0,0,1-5.777-13.914c-3.658-5.326-.765-13.14,5.789-14.044-.346-8.85,11.233-12.888,16.194-5.535m-15.541,8.441a5.929,5.929,0,0,0-4.793,7.569c.328,1.1,1.889,2.775,1.93,3.4.056.848-.919,1.468-1.334,2.2-1.739,3.05-.515,7.5,2.949,8.588,1.79.56,1.783-1.231,2.929-2.488,1.129-1.238,6.078-4.51,6.254-1.183.084,1.586-1.982,1.69-3.023,2.418a5.919,5.919,0,1,0,9.271,5.724c-.58-9.653.857-20.38.032-29.908-.7-8.06-12.814-6.9-11.737,1.319.444,3.393,2.43,3.49,4.618,4.913.941.612,1.2,2.174.19,2.606-2.428,1.036-6.682-2.825-7.286-5.157" transform="translate(-53.471 -110.171)" fill="#6a2874"/>
              <path id="Trazado_1279150" data-name="Trazado 1279150" d="M141.459,8.6h4.1a5.258,5.258,0,0,1,3.7,2.285,4.646,4.646,0,0,1,.114,4.633A92.188,92.188,0,0,1,143.5,26.928a3.236,3.236,0,0,1-4.161,1.414A4.057,4.057,0,0,1,137.469,26V19.9H132.7a5.768,5.768,0,0,1-2.446-1.322c-2.75-2.855-.3-6.291,1.111-9.1.789-1.577,3.937-8.1,4.913-8.83a3.336,3.336,0,0,1,4.518.516,6.743,6.743,0,0,1,.659,1.336Zm-.887,16.847,6.369-12.269c-.249-2.822-6.466-.616-7.938-1.789a4.539,4.539,0,0,1-.647-.9V3.055L132.037,15.5a1.74,1.74,0,0,0,.934,1.254c1.349.392,7.6-.79,7.6,1.266Z" transform="translate(-100.413 0)" fill="#6a2874"/>
              <path id="Trazado_1279151" data-name="Trazado 1279151" d="M55.655,67.931a6.417,6.417,0,0,1,.909,1.641A61.494,61.494,0,0,1,59.176,77.6c.46,2.444-.956,4.16-3.5,3.5-1.062-.274-2.695-2.8-3.377-2.833-2.149,3.011-5.716,3.707-7.375-.158a59.883,59.883,0,0,1-2.612-8.027c-.246-1.307-.052-3,1.439-3.459,2.6-.8,3.572,1.369,5.251,2.767.391.068,1.62-1.539,2.091-1.853a3.732,3.732,0,0,1,4.565.392m-2.162,2.163c-.96-.669-3.014,2.947-4.323,3.081-1.426.147-2.308-1.8-3.413-2.437l2.2,6.777c1.075.782,2.986-2.867,4.359-3.008,1.389-.143,2.134,1.6,3.192,2.216Z" transform="translate(-32.861 -51.722)" fill="#6a2874"/>
              <path id="Trazado_1279152" data-name="Trazado 1279152" d="M246.668,79.75c-2.119,2.118-5.051.615-6.466-1.483-.682.035-2.315,2.559-3.377,2.833-2.547.657-3.964-1.059-3.5-3.5a61.49,61.49,0,0,1,2.612-8.027c.837-1.949,2.179-3.02,4.441-2.55,1.318.273,1.972,1.813,3.123,2.371,1.68-1.4,2.656-3.567,5.251-2.767,1.491.46,1.685,2.152,1.439,3.459a59.914,59.914,0,0,1-2.612,8.027,6.414,6.414,0,0,1-.909,1.641m.072-9.014c-1.106.639-1.987,2.584-3.413,2.437-1.309-.134-3.363-3.75-4.323-3.081l-2.012,6.629c1.058-.618,1.8-2.358,3.192-2.216,1.373.141,3.284,3.79,4.359,3.008Z" transform="translate(-181.535 -51.721)" fill="#6a2874"/>
              <path id="Trazado_1279153" data-name="Trazado 1279153" d="M9.062,141.738c1.347-.306,2.333.352,2.014,1.788-.181.816-2.9,2.515-3.718,3.38a16.692,16.692,0,0,0-4.214,12.847c.128,1.482,1.581,4.4.2,5.315C.764,166.775.136,160.806.04,159.311a19.569,19.569,0,0,1,4.438-13.734c.758-.906,3.54-3.6,4.584-3.839" transform="translate(0 -110.262)" fill="#6a2874"/>
              <path id="Trazado_1279154" data-name="Trazado 1279154" d="M302.96,141.791c1.733-.508,4.638,2.448,5.719,3.719,4.054,4.764,5.963,12.739,3.6,18.675a1.55,1.55,0,0,1-3.043-.184c-.079-.813.755-2.921.858-4a16.748,16.748,0,0,0-4.29-13.168c-.715-.745-3.1-2.235-3.416-2.789-.434-.758-.364-1.981.576-2.257" transform="translate(-235.156 -110.316)" fill="#6a2874"/>
              <path id="Trazado_1279155" data-name="Trazado 1279155" d="M31.16,180.786c-1.034,1.094-2.335.246-2.76-1A13.59,13.59,0,0,1,31.1,167.1c.832-.934,3.922-3.773,4.878-1.772.829,1.733-2.229,3.294-3.175,4.584A10.17,10.17,0,0,0,31,177.181c.066.947.885,2.838.16,3.6" transform="translate(-21.648 -128.134)" fill="#6a2874"/>
              <path id="Trazado_1279156" data-name="Trazado 1279156" d="M294.335,180.851c-.575.578-2.1.6-2.451-.209-.453-1.048.219-2.472.3-3.6a10.015,10.015,0,0,0-1.819-7.063c-1.039-1.415-3.779-2.682-3.243-4.429.575-1.871,3.114-.11,3.949.62a13.336,13.336,0,0,1,4.219,8.638c.082,1.252-.09,5.171-.958,6.044" transform="translate(-223.426 -128.204)" fill="#6a2874"/>
              <path id="Trazado_1279157" data-name="Trazado 1279157" d="M217.058,144.677a1.528,1.528,0,1,1-1.528-1.528,1.528,1.528,0,0,1,1.528,1.528" transform="translate(-166.564 -111.418)" fill="#6a2874"/>
            </g>
          </g>
        </g>
      </g>
      <ellipse id="Elipse_13678" data-name="Elipse 13678" cx="18.074" cy="18.074" rx="18.074" ry="18.074" transform="translate(0.769 113.817)" fill="#da9dfe"/>
      <g id="Grupo_1207826" data-name="Grupo 1207826" transform="translate(0 116.123)">
        <path id="Trazado_998481" data-name="Trazado 998481" d="M0,13.012q4.541.393,9.077.815l-.253.1,1.3-2.34a.35.35,0,0,1,.4-.123.254.254,0,0,1,.184.174l0,.009,1.114,5.034-.836-.059,1.8-4.073,1.816-4.068,1.822-4.067L18.27.354a.772.772,0,0,1,.885-.326.543.543,0,0,1,.472.536V.572L18.9,7.156l-.762,6.581-.773,6.58-.8,6.579-1.5-.222c1.16-2.774,2.354-5.539,3.536-8.307l1.778-4.152,1.8-4.146,0-.01a.657.657,0,0,1,.753-.287.475.475,0,0,1,.413.442L23.082,15.5l-.295,5.285-.776-.111,2.607-5,0-.008a.274.274,0,0,1,.277-.117l4.931.63,4.928.647-4.969-.438-4.966-.456.281-.125L22.763,20.88a.443.443,0,0,1-.508.185.318.318,0,0,1-.269-.285v-.011l.074-5.289.1-5.289,1.17.145-1.676,4.175-1.7,4.17c-1.136,2.779-2.26,5.561-3.418,8.335a.838.838,0,0,1-.96.376c-.35-.082-.566-.334-.536-.6v0l.762-6.581.791-6.579.8-6.579L18.234.48,19.59.7,17.666,4.738,15.723,8.774l-1.948,4.035-1.966,4.029-.005.01a.482.482,0,0,1-.552.192.359.359,0,0,1-.279-.261L10.1,11.718l.586.059-1.431,2.3,0,.007a.257.257,0,0,1-.249.1Q4.5,13.609,0,13.012" transform="translate(0 4.236) rotate(-7)" fill="#fff"/>
      </g>
    </g>
    <path id="Trazado_1267128" data-name="Trazado 1267128" d="M77.377,52.427V64.859a.84.84,0,0,1-.841.84h-10a.841.841,0,0,0-.841.841v10a.841.841,0,0,1-.841.841H52.427a.841.841,0,0,1-.841-.841v-10a.841.841,0,0,0-.84-.841H40.713a.841.841,0,0,1-.841-.84V52.427a.841.841,0,0,1,.841-.841H50.745a.84.84,0,0,0,.84-.84V40.714a.841.841,0,0,1,.841-.841H64.858a.841.841,0,0,1,.841.841V50.746a.841.841,0,0,0,.841.84h10a.841.841,0,0,1,.841.841" transform="translate(630.197 8531.593)" fill="#8d1939"/>
  </g>
</svg>
