<svg xmlns="http://www.w3.org/2000/svg" xmlns:xlink="http://www.w3.org/1999/xlink" width="96" height="96" viewBox="0 0 96 96">
  <defs>
    <clipPath id="clip-path">
      <rect id="Rectángulo_455595" data-name="Rectángulo 455595" width="96" height="96" fill="none"/>
    </clipPath>
    <clipPath id="clip-path-2">
      <rect id="Rectángulo_460577" data-name="Rectángulo 460577" width="51.492" height="51.41" fill="#fff"/>
    </clipPath>
  </defs>
  <g id="Grupo_1210781" data-name="Grupo 1210781" transform="translate(-735.746 -9118)">
    <g id="Grupo_1180407" data-name="Grupo 1180407" transform="translate(735.746 9117.971)">
      <g id="Grupo_1179172" data-name="Grupo 1179172" transform="translate(0 0.03)" clip-path="url(#clip-path)">
        <path id="Trazado_998483" data-name="Trazado 998483" d="M92.627,52.5A40.125,40.125,0,1,1,52.5,12.377,40.125,40.125,0,0,1,92.627,52.5" transform="translate(-4.488 -4.517)" fill="#8d1939"/>
        <path id="Trazado_998485" data-name="Trazado 998485" d="M90.973,46.487A44.486,44.486,0,1,1,46.487,2,44.486,44.486,0,0,1,90.973,46.487Z" transform="translate(1.527 1.499)" fill="none" stroke="#8d1939" stroke-miterlimit="10" stroke-width="4"/>
      </g>
    </g>
    <g id="Grupo_1180408" data-name="Grupo 1180408" transform="translate(755.746 9137)">
      <g id="Grupo_1099618" data-name="Grupo 1099618" transform="translate(0 -0.835)">
        <rect id="Rectángulo_401104" data-name="Rectángulo 401104" width="56.349" height="57.028" transform="translate(0)" fill="none"/>
      </g>
      <g id="Grupo_1211036" data-name="Grupo 1211036" transform="translate(2 2.165)">
        <g id="Grupo_1211035" data-name="Grupo 1211035" clip-path="url(#clip-path-2)">
          <path id="Trazado_1273173" data-name="Trazado 1273173" d="M23.853.065C45.336-1.414,59.218,22.674,46.829,40.418A25.753,25.753,0,0,1,4.682,40.5C-6.8,24.2,4.066,1.427,23.853.065m.589,1.473A24.252,24.252,0,0,0,3.83,36.053c8.009,17.1,31.909,18.675,42.2,2.833,10.733-16.517-2-38.5-21.592-37.349" transform="translate(0 0)" fill="#fff"/>
          <path id="Trazado_1273174" data-name="Trazado 1273174" d="M45.191,38.563c-.39-.051-.661-.424-1.025-.522-1.456-.393-1.682.5-2.743.654a5.339,5.339,0,0,1-2.275-.218c-.879,1.237-.435,2.8-.656,4.209-2.1,1.357-1.427-3.167-1.073-4.166.631-1.78,3.46-3.525,2.882-5.452-.072-.239-.443-.435-.591-.734-.515-1.039-.48-3.5.911-3.865A32.525,32.525,0,0,1,46,28.4c1.5.18,1.654,1.614,1.541,2.874-.125,1.38-1.1,1.48-.871,2.938.108.679.733,1.155,1.1,1.7l4.637-4.49.735,0,.382.816L27.453,58.45c-.836.529-1.8-1.083-2.265-1.727C10.792,36.738,35.054,11.3,55.782,24.8c.726.473,3.082,1.848,2.524,2.793a33.353,33.353,0,0,1-3.1,2.953.775.775,0,0,1-.812-1.117c.173-.374,2.129-1.966,2.131-2.138A20.894,20.894,0,0,0,27.152,56.671Zm.736-8.691h-4.86V31.64h4.86Zm-.736,3.239H41.8c.319,1.806-.677,2.793-1.619,4.123,1.5.056,1.984-.832,3.615-.74,1.2.067,1.7.845,2.864.741.231-.221-.842-1.29-1-1.571a4.048,4.048,0,0,1-.467-2.552" transform="translate(-17.773 -17.923)" fill="#fff"/>
          <path id="Trazado_1273175" data-name="Trazado 1273175" d="M104.559,73.184c.711-.2,1.611,1.2,2.016,1.758a22.5,22.5,0,0,1-31.329,31.476c-.644-.464-2.256-1.429-1.727-2.265ZM81.921,97.9,75.3,104.456A20.894,20.894,0,0,0,104.673,75.08l-9.91,9.968-.131,15.773a2.627,2.627,0,0,1-2.345,1.778,52.247,52.247,0,0,1-7.788.014,4.023,4.023,0,0,1-1.476-.439,3.441,3.441,0,0,1-1.1-1.548ZM93.26,86.711l-.443.22L83.533,96.2a15.95,15.95,0,0,0-.126,3.823c.045.323.191.84.53.942l8.657.025c.292.039.666-.623.666-.807Z" transform="translate(-62.603 -62.391)" fill="#fff"/>
        </g>
      </g>
    </g>
  </g>
</svg>
