<svg xmlns="http://www.w3.org/2000/svg" xmlns:xlink="http://www.w3.org/1999/xlink" width="292" height="215" viewBox="0 0 292 215">
  <defs>
    <clipPath id="clip-path">
      <path id="Trazado_1272987" data-name="Trazado 1272987" d="M0,0H292V215H0Z" transform="translate(289.711 3249)" fill="#fff5d4" stroke="#707070" stroke-width="1"/>
    </clipPath>
    <clipPath id="clip-path-2">
      <rect id="Rectángulo_460527" data-name="Rectángulo 460527" width="232.77" height="199.73" fill="none"/>
    </clipPath>
  </defs>
  <g id="Enmascarar_grupo_1180318" data-name="Enmascarar grupo 1180318" transform="translate(-289.711 -3249)" clip-path="url(#clip-path)">
    <g id="Grupo_1210950" data-name="Grupo 1210950" transform="translate(309.941 3254.78)">
      <rect id="Rectángulo_460528" data-name="Rectángulo 460528" width="292" height="76" rx="12" transform="translate(-20.23 70.22)" fill="#ff9ebf"/>
      <circle id="Elipse_13727" data-name="Elipse 13727" cx="103.5" cy="103.5" r="103.5" transform="translate(22.77 -1.78)" fill="#fff5d4"/>
      <g id="Grupo_1210949" data-name="Grupo 1210949" transform="translate(9.77 2.219)" clip-path="url(#clip-path-2)">
        <path id="Trazado_1272893" data-name="Trazado 1272893" d="M76.457,298.125c1.142,1.3,3.106,1.69,4.733,1.984a10.371,10.371,0,0,0,5.462-.253,5.955,5.955,0,0,0,3.467-3.033c.031-.072.052-.145.078-.212a.274.274,0,0,0,.129-.16,7.5,7.5,0,0,0-4.155-8.686,7.686,7.686,0,0,0-8.6,1.695,8.056,8.056,0,0,0-2.077,4.046,5.507,5.507,0,0,0,.961,4.62" transform="translate(103.258 -138.758)" fill="#dfaea9"/>
        <path id="Trazado_1272894" data-name="Trazado 1272894" d="M52.883,253.547a18.432,18.432,0,0,0,20.194,10.164A18.733,18.733,0,0,0,82.089,259c.212-.16.429-.32.63-.5l-.114-.015q.426-.434.822-.9a18.871,18.871,0,0,0,4.31-11.456,19.963,19.963,0,0,0-3.276-11.652,22.259,22.259,0,0,0-6.045-6.154c-.264-.289-.532-.579-.822-.842a14.744,14.744,0,0,0-17.61-1.834,15.9,15.9,0,0,0-4.527,4.165,24.041,24.041,0,0,0-4.4,11.585,22.522,22.522,0,0,0,1.829,12.143" transform="translate(118.724 -108.034)" fill="#e4d1df"/>
        <path id="Trazado_1272895" data-name="Trazado 1272895" d="M131.155,266.994a6.868,6.868,0,0,1,.725.237,5.525,5.525,0,0,1,3.385,4.612c.011.145.015.291.013.438a4.367,4.367,0,0,1-.27,1.493,6.562,6.562,0,0,1-2.095,2.6c-2.019,1.672-4.335,2.972-6.263,4.745-1.687,1.548-3.072,3.452-4.989,4.71a5.428,5.428,0,0,1-2.674.982,3.362,3.362,0,0,1-1.32-.207.7.7,0,0,1-.215-.561,1.084,1.084,0,0,1-.715-.019,1.216,1.216,0,0,1-.82-.944.61.61,0,0,0-.09-.329.533.533,0,0,0-.271-.132,2.148,2.148,0,0,1-1.115-.661,1.21,1.21,0,0,1-.212-1.231,1.639,1.639,0,0,1-1.312-2.217,1.409,1.409,0,0,1-.1-.317,2.39,2.39,0,0,1,.712-2.007,6.979,6.979,0,0,1,1.809-1.247q1.163-.636,2.322-1.265a4.431,4.431,0,0,0,1.242-.88c-1.314-.075-2.64-.049-3.952-.045a74.424,74.424,0,0,1-7.972-.4,56.265,56.265,0,0,1-7.065-1.194,14.626,14.626,0,0,1-4.5-1.693,14.663,14.663,0,0,1-3.785-3.839c-.151-.207-.3-.413-.45-.626a11.085,11.085,0,0,1-1.818-3.637c-.791-3.177.8-6.629,3.364-8.658a.544.544,0,0,1,.05-.038,19.408,19.408,0,0,1,3.534-2.078c.191-.089.38-.181.572-.272q10.639-5.119,21.276-10.234a14.163,14.163,0,0,1,4.807-1.631c3.328-.286,6.454,1.841,8.481,4.5a17.3,17.3,0,0,1,3.36,12.563,10.13,10.13,0,0,1-1.194,3.84,7.347,7.347,0,0,1-4.79,3.426,20.25,20.25,0,0,1-4.6.558,21.892,21.892,0,0,0,4.163,1.2c.925.155,1.873.229,2.771.467" transform="translate(51.42 -116.185)" fill="#dfaea9"/>
        <path id="Trazado_1272896" data-name="Trazado 1272896" d="M64.59,138.614v-.005a26.263,26.263,0,0,1,5.9-14.972l.2.165a18.852,18.852,0,0,1,13.75-6.5c2.752-.051,5.648.457,8.154-.678s4.082-3.748,4.734-6.423a34.638,34.638,0,0,0,.513-8.22,59.6,59.6,0,0,1,2.644-18.546l.021.005a16.741,16.741,0,0,0-.39,4.9,18.638,18.638,0,0,0,.436,2.87,34.514,34.514,0,0,0,2.1,6.054,74.862,74.862,0,0,0,8.107,14.125,29.734,29.734,0,0,0,6.074,6.5,15.592,15.592,0,0,0,4.067,2.193,12.451,12.451,0,0,0,.092,5.134c7.1-1.612,14.248-5.207,21.534-2.793,6.8,2.249,12.071,8.282,16.286,13.806,7.2,9.443,12.179,20.431,19.09,30.042.03.046.061.087.092.134,1.371,1.894,2.814,3.733,4.365,5.5q1.294-.755,2.552-1.556c1.165-.745,2.305-1.52,3.419-2.336h.006a68.406,68.406,0,0,0,12.548-11.871v-.005q.27-2.835.287-5.674c.006-.457.006-.909,0-1.366a8.586,8.586,0,0,1,.354-3.209,3.181,3.181,0,0,1,.565-.935,5.719,5.719,0,0,1,2.506-1.381c1.4-.483,2.8-.97,4.205-1.454a24.579,24.579,0,0,1,4.878-1.324,5.29,5.29,0,0,1,2.536.18,6.89,6.89,0,0,1,2.224,1.669,31.582,31.582,0,0,0,4.195,3.532c1.679,1.135,3.635,2.121,4.518,3.944a7.428,7.428,0,0,1,.457,4.02c-.19-.134-.375-.272-.554-.411a46.455,46.455,0,0,1-4.226-4.01c-.981-.98-2.321-2.008-3.63-1.53-1.191.437-1.633,1.926-1.551,3.194.169,2.706,1.905,5.073,3.9,6.9,1.715,1.566,3.666,2.865,5.391,4.411q-5.36.885-10.715,1.777a3.836,3.836,0,0,0-2.742,1.289,2.571,2.571,0,0,0,.206,2.752,7.421,7.421,0,0,0,2.167,1.9,6.579,6.579,0,0,0-2.044.447,3.451,3.451,0,0,0-.96,6.068,61.865,61.865,0,0,1-6.418,8.641c-.061.072-.128.144-.19.216a130.8,130.8,0,0,1-15.128,14l-.037.02a101.678,101.678,0,0,0-12.418,8.634c-3.858,3-7.706,6-11.674,8.856-3.611,2.6-7.142,5.33-10.98,7.6-3.748,2.215-7.895,4.067-12.3,4.331-4.489.27-8.824-1.335-12.715-3.452a61.155,61.155,0,0,1-11.582-8.467c-3.469-3.129-6.682-6.532-9.918-9.9-3.609-3.754-7.16-7.563-10.758-11.328-2.938-3.074-5.919-6.112-8.978-9.066-7.536-8.388-15.481-16.526-20.585-26.535a41.551,41.551,0,0,1-4.59-21.873" transform="translate(-28.235 -40.321)" fill="#da9784"/>
        <path id="Trazado_1272897" data-name="Trazado 1272897" d="M115.78,222.347c.031.046.061.087.093.133a17.76,17.76,0,0,1,1.843.734h.005a20.435,20.435,0,0,1,3.62,2.11c.488.354.965.734,1.448,1.1q1.749-1.116,3.42-2.336h.005a68.371,68.371,0,0,0,12.548-11.871v-.005q.27-2.834.288-5.673a9.081,9.081,0,0,0-1.848-1.253,35.011,35.011,0,0,1-3.476-1.854,16.943,16.943,0,0,1-2.793-2.629c-.344-.37-.714-.868-.529-1.34a11.512,11.512,0,0,0-2.023,3.255c-.811,1.879-1.335,3.938-2.116,5.838a41.252,41.252,0,0,1-5.027,8.261,23.694,23.694,0,0,1-2.86,3.492,22.659,22.659,0,0,1-2.6,2.039" transform="translate(33.893 -96.393)" fill="#ebe1f0"/>
        <path id="Trazado_1272898" data-name="Trazado 1272898" d="M160.632,243.816c.062.021.128.041.191.067-.031-.046-.063-.087-.092-.133l-.1.067" transform="translate(-11.057 -117.796)" fill="#ebe1f0"/>
        <path id="Trazado_1272899" data-name="Trazado 1272899" d="M155.7,253.9c-.67.334-1.354.651-2.044.955-.946.266-1.9.5-2.875.695-.689.141-1.378.292-2.057.471-.548-.921-1.11-1.833-1.709-2.716,2.595-.334,4.9-1.849,6.993-3.436q2.759-2.083,5.3-4.433h.005a19.894,19.894,0,0,1,3.62,2.11c.533.385,1.047.8,1.572,1.192a53.7,53.7,0,0,1-8.81,5.163" transform="translate(-7.703 -118.608)" fill="#e4d1df"/>
        <path id="Trazado_1272900" data-name="Trazado 1272900" d="M284.075,182.052a18.365,18.365,0,0,1,1.58,6.456,19.378,19.378,0,0,1-.8,6.666c-.113.374-.7.214-.587-.162a19.659,19.659,0,0,0-.522-12.821c-.074-.188.246-.325.329-.138" transform="translate(-199.531 -87.937)" fill="#bb6d5e"/>
        <path id="Trazado_1272901" data-name="Trazado 1272901" d="M228.374,196.526c.6,1.809,1.24,3.608,2.012,5.352a47.471,47.471,0,0,0,2.627,5.043,77.8,77.8,0,0,0,6.71,9.365c2.432,2.977,4.99,5.849,7.472,8.783a102.623,102.623,0,0,1,7.031,9.117,46.747,46.747,0,0,1,5.252,10.131c.159.441.3.886.444,1.333s-.563.643-.708.2a44.347,44.347,0,0,0-4.947-10.239,90.571,90.571,0,0,0-6.92-9.208c-2.467-2.947-5.032-5.812-7.483-8.773a85.8,85.8,0,0,1-6.831-9.272A38.077,38.077,0,0,1,228.325,198c-.119-.454-.212-.914-.3-1.375a.18.18,0,0,1,.347-.1" transform="translate(-144.999 -94.913)" fill="#bb6d5e"/>
        <path id="Trazado_1272902" data-name="Trazado 1272902" d="M189.3,245.467c-.668.662-1.285,1.368-2.013,1.966s-1.476,1.148-2.248,1.675a44.842,44.842,0,0,1-4.862,2.87,89.6,89.6,0,0,1-10.675,4.449c-3.889,1.394-7.815,2.7-11.63,4.289A50.763,50.763,0,0,0,148,266.033a29.3,29.3,0,0,0-7.433,7.41q-.37.549-.71,1.119a.368.368,0,0,1-.635-.371,28.554,28.554,0,0,1,7.062-7.8,46.165,46.165,0,0,1,9.4-5.53c3.8-1.714,7.738-3.074,11.662-4.459a111.047,111.047,0,0,0,10.992-4.352,50.417,50.417,0,0,0,4.97-2.7q1.2-.746,2.336-1.574c.753-.55,1.462-1.175,2.241-1.688a9.108,9.108,0,0,0,1.128-.908c.192-.176.473.1.287.287" transform="translate(-28.504 -118.46)" fill="#bb6d5e"/>
        <path id="Trazado_1272903" data-name="Trazado 1272903" d="M108.733,228.78c-1.117-.563-2.214-1.164-3.347-1.7a37.2,37.2,0,0,0-3.511-1.43c-.333-.117-.189-.65.146-.532a28.645,28.645,0,0,1,6.907,3.323.194.194,0,0,1-.2.334" transform="translate(71.208 -108.786)" fill="#bb6d5e"/>
        <path id="Trazado_1272904" data-name="Trazado 1272904" d="M258.477,154.353c.072,1.208.121,2.433.279,3.635a22.61,22.61,0,0,0,3.876,9.983q.584.834,1.245,1.609c.439.513.969.972,1.363,1.519.162.224-.156.532-.379.379a7.394,7.394,0,0,1-1.3-1.3q-.609-.7-1.16-1.444a22.711,22.711,0,0,1-4.2-10.272c-.094-.677-.16-1.357-.193-2.041a10.866,10.866,0,0,1,.124-2.113c.03-.206.334-.141.346.046" transform="translate(-165.831 -74.509)" fill="#bb6d5e"/>
        <path id="Trazado_1272905" data-name="Trazado 1272905" d="M35.852,237.383c.052.046.108.087.159.133a6.965,6.965,0,0,0,3.081,1.34,2.782,2.782,0,0,0-.883.883,2.816,2.816,0,0,0-.262,2.331,4.087,4.087,0,0,0,.976,1.479,4.679,4.679,0,0,0,3.142,1.566,5.72,5.72,0,0,0-.318,2.193,2.837,2.837,0,0,0,1.161,2.136,4.4,4.4,0,0,0,1.607.529q4.066.755,8.159,1.273h.005q2.2.277,4.41.488a5.824,5.824,0,0,0,2.311-.1,4.534,4.534,0,0,0,2.665-3.286,4.433,4.433,0,0,1,.5-1.355,4.981,4.981,0,0,1,1.294-1.053,4.41,4.41,0,0,0,1.895-4.58,8.346,8.346,0,0,1-.673-2.141,6.987,6.987,0,0,1,.827-2.361,6.586,6.586,0,0,0-.3-4.529c-.539-1.448-1.3-2.819-1.7-4.313l-.344-.01a9.659,9.659,0,0,0-.329-2.875c-.8-2.814-3.153-4.924-5.638-6.464-2.3-1.422-4.8-2.506-6.988-4.072-.19-.133-.375-.272-.554-.411a46.448,46.448,0,0,1-4.225-4.01c-.981-.981-2.321-2.008-3.63-1.53-1.192.437-1.633,1.925-1.551,3.193.169,2.706,1.9,5.073,3.9,6.9,1.715,1.566,3.666,2.865,5.392,4.41q-5.361.886-10.716,1.777a3.836,3.836,0,0,0-2.742,1.289,2.572,2.572,0,0,0,.206,2.752,7.437,7.437,0,0,0,2.167,1.905,6.582,6.582,0,0,0-2.044.446,3.452,3.452,0,0,0-.96,6.069" transform="translate(148.771 -100.77)" fill="#da9784"/>
        <path id="Trazado_1272906" data-name="Trazado 1272906" d="M62.668,237.089c-1.327.275-2.682.409-4.026.581s-2.7.361-4.044.564a20.951,20.951,0,0,0-3.5.653,2.259,2.259,0,0,0-1.75,1.938,2.944,2.944,0,0,0,1.324,2.409,6.327,6.327,0,0,0,3.275.867c1.295.064,2.6.055,3.892.076l4.152.068,9.283.151a.291.291,0,0,1,0,.581l-8.794-.143-4.4-.072c-1.395-.023-2.8-.009-4.188-.083a7.063,7.063,0,0,1-3.453-.889,3.748,3.748,0,0,1-1.669-2.4,2.568,2.568,0,0,1,1.02-2.607,7,7,0,0,1,3.122-.984q2.377-.376,4.764-.684a38.566,38.566,0,0,1,4.929-.448c.237,0,.3.374.057.425" transform="translate(136.032 -114.372)" fill="#bb6d5e"/>
        <path id="Trazado_1272907" data-name="Trazado 1272907" d="M70.63,276.019c-1.582-.112-3.159-.274-4.745-.342a43.925,43.925,0,0,0-4.767.056c-2.774.183-6.013,1.047-8.5-.648a3.866,3.866,0,0,1-1.881-3.17.251.251,0,0,1,.5,0,3.712,3.712,0,0,0,1.78,2.661,6.644,6.644,0,0,0,3.774.842c1.465-.035,2.921-.27,4.383-.364a44.02,44.02,0,0,1,4.469-.059,26.485,26.485,0,0,1,5.041.6.217.217,0,0,1-.057.425" transform="translate(135.711 -131.29)" fill="#bb6d5e"/>
        <path id="Trazado_1272908" data-name="Trazado 1272908" d="M58.045,236.262a3.594,3.594,0,0,1,.986.33c.329.144.652.3.983.441s.652.275.98.4.692.234,1.016.393c.347.17.1.682-.253.6a7.025,7.025,0,0,1-1.009-.369c-.338-.135-.674-.275-1-.427s-.651-.3-.966-.47a2.872,2.872,0,0,1-.856-.609c-.084-.1-.041-.313.122-.294" transform="translate(140.684 -114.177)" fill="#bb6d5e"/>
        <path id="Trazado_1272909" data-name="Trazado 1272909" d="M80.714,243.59c.313-1.832,2.586-1.8,4.04-1.848,1.595-.052,1.663,3.584.5,4.255-1.749.669-4.671-.145-4.538-2.406" transform="translate(105.015 -116.825)" fill="#e4a699"/>
        <path id="Trazado_1272910" data-name="Trazado 1272910" d="M84.1,257.868a1.935,1.935,0,0,1,.7-.892c.9-1.241,3.3-.815,4.327.113a5.59,5.59,0,0,1,.469,3.3c-1.418,2.323-6.39.234-5.5-2.523" transform="translate(99.708 -123.816)" fill="#e4a699"/>
        <path id="Trazado_1272911" data-name="Trazado 1272911" d="M78.645,269.6c2.544-2.122,5.471.488,4.43,3.4-1.619,1.735-6.562-1.2-4.43-3.4" transform="translate(109.112 -129.917)" fill="#e4a699"/>
        <path id="Trazado_1272912" data-name="Trazado 1272912" d="M70.8,208.81c1.026-1.062,4.613,1.986,4.929,2.971.209,1.21-1.487,1.3-2.3,1.088-1.316-.4-3.407-2.67-2.628-4.058" transform="translate(120.525 -100.804)" fill="#e4a699"/>
        <path id="Trazado_1272913" data-name="Trazado 1272913" d="M50.951,252.053c-1.958-.008-4.263.482-5.086,2.5a2.731,2.731,0,0,0,.265,2.622,4.252,4.252,0,0,0,2.378,1.585,13.4,13.4,0,0,0,3.4.381c1.219.03,2.439,0,3.658-.032,2.48-.075,4.96-.164,7.439-.246,2.813-.094,5.626-.206,8.439-.277.407-.01.4.614,0,.631-5.37.223-10.746.386-16.118.542-1.319.038-2.639.058-3.958.007a10.968,10.968,0,0,1-3.546-.564c-1.872-.724-3.33-2.575-2.62-4.641a4.241,4.241,0,0,1,2.208-2.423,5.505,5.505,0,0,1,1.725-.495,5.958,5.958,0,0,1,1.857.1c.18.034.135.316-.043.316" transform="translate(137.754 -121.592)" fill="#bb6d5e"/>
        <path id="Trazado_1272914" data-name="Trazado 1272914" d="M70.6,216.782a13.718,13.718,0,0,1-2.738-1.487,29.947,29.947,0,0,1-2.494-1.827,31.184,31.184,0,0,1-2.328-2.089,18.245,18.245,0,0,0-2.305-2.282,1.956,1.956,0,0,0-2.654.11,3.466,3.466,0,0,0-.71,2.59c.156,2.159,1.546,4,2.988,5.505a40.776,40.776,0,0,0,5.76,4.952c.3.211.015.7-.288.492a43.6,43.6,0,0,1-5.566-4.6c-1.609-1.575-3.15-3.376-3.468-5.687-.234-1.7.4-4.339,2.545-4.379a3.918,3.918,0,0,1,2.771,1.506c.78.828,1.552,1.653,2.4,2.418a30.55,30.55,0,0,0,3.01,2.405c1.044.731,2.169,1.341,3.2,2.087.129.093.058.344-.118.28" transform="translate(132.667 -100.561)" fill="#bb6d5e"/>
        <path id="Trazado_1272915" data-name="Trazado 1272915" d="M70.756,283.5c.254-1.4,4.105-1.855,4.936-1,.441.9.708,2.218-.4,2.794-1.481.389-4.483.191-4.538-1.8" transform="translate(120.133 -136.314)" fill="#e4a699"/>
        <path id="Trazado_1272916" data-name="Trazado 1272916" d="M60.4,281.99a7.726,7.726,0,0,1,.172.785,5.072,5.072,0,0,1,.033.835,6.565,6.565,0,0,1-.283,1.627c-.1.323-.61.185-.509-.141a6.365,6.365,0,0,0,.287-1.487c.017-.249.027-.5.022-.749a5.881,5.881,0,0,0-.029-.788c-.031-.2.261-.287.306-.084" transform="translate(141.264 -136.221)" fill="#bb6d5e"/>
        <path id="Trazado_1272917" data-name="Trazado 1272917" d="M60.274,272.276c.035-.671.065-1.341.048-2.013s-.1-1.339-.167-2.01c-.029-.3.468-.369.533-.072a9.537,9.537,0,0,1,.186,2.082,9.7,9.7,0,0,1-.212,2.065.2.2,0,0,1-.387-.052" transform="translate(140.812 -129.51)" fill="#bb6d5e"/>
        <path id="Trazado_1272918" data-name="Trazado 1272918" d="M60.627,260.485c-.171-1.08-.354-2.157-.512-3.24a.255.255,0,1,1,.5-.068c.118,1.088.208,2.177.313,3.267.017.172-.277.214-.3.041" transform="translate(140.776 -124.166)" fill="#bb6d5e"/>
        <path id="Trazado_1272919" data-name="Trazado 1272919" d="M62.636,246.472q-.751-1.564-1.444-3.154a.267.267,0,0,1,.092-.353.26.26,0,0,1,.353.092q.691,1.628,1.326,3.276c.072.189-.241.322-.329.138" transform="translate(138.19 -117.401)" fill="#bb6d5e"/>
        <path id="Trazado_1272920" data-name="Trazado 1272920" d="M136.621,167.334a17.2,17.2,0,0,0,.929,3.673,13.893,13.893,0,0,0,2.759,4.564c1.316,1.432,2.967,2.56,4.1,4.143.8,1.108,1.317,2.41,2.193,3.461a6.608,6.608,0,0,0,5.13,2.318c.43.639.866,1.273,1.3,1.912a25.955,25.955,0,0,0,2.279,3.039c2.991,3.281,7.409,4.835,10.933,7.54a27.055,27.055,0,0,1,5.842,6.461c2.594-.334,4.9-1.849,6.993-3.436q2.759-2.083,5.3-4.433a18.82,18.82,0,0,0-2.033-.8,24.206,24.206,0,0,0,2.7-2.105,23.6,23.6,0,0,0,2.86-3.49,41.3,41.3,0,0,0,5.028-8.262c.779-1.9,1.3-3.959,2.115-5.837a11.677,11.677,0,0,0-2.163-1.892,23.094,23.094,0,0,0-2.73-1.515q-2.686-1.336-5.362-2.667a22.335,22.335,0,0,0-2.9-1.268,10.936,10.936,0,0,0-5.343-.348l-.034.014a6.694,6.694,0,0,0-1.162-1.926,9.133,9.133,0,0,0,2.5-9.118,6.975,6.975,0,0,0-3.189-4.172,3.476,3.476,0,0,0-1.408-.44,2.522,2.522,0,0,0-2.478,1.888,20.729,20.729,0,0,0-9.181-8.4,20.253,20.253,0,0,0-5.658-1.674,20.581,20.581,0,0,0-7.424.256,14.378,14.378,0,0,0-3.838,1.384c-3.814,2.105-5.982,6.233-7.144,10.488-.145.513-.271,1.031-.382,1.544a25.986,25.986,0,0,0-.537,9.1" transform="translate(-32.777 -69.753)" fill="#dfaea9"/>
        <path id="Trazado_1272921" data-name="Trazado 1272921" d="M225.691,154.576a11.448,11.448,0,0,1-.561,5.185A12.369,12.369,0,0,1,224,162.13a9.346,9.346,0,0,1-1.631,2.054.318.318,0,0,1-.449-.449,17.493,17.493,0,0,0,1.517-1.99,12.238,12.238,0,0,0,1.093-2.251,13.02,13.02,0,0,0,.8-4.918c-.01-.236.334-.224.36,0" transform="translate(-107.633 -74.618)" fill="#d28471"/>
        <path id="Trazado_1272922" data-name="Trazado 1272922" d="M230.464,155.678a8.023,8.023,0,0,1-.422,1.917,8.308,8.308,0,0,1-.939,1.806,8,8,0,0,1-2.983,2.687.314.314,0,0,1-.317-.542,9.514,9.514,0,0,0,2.785-2.5,9.361,9.361,0,0,0,1.556-3.412c.038-.176.341-.141.319.043" transform="translate(-114.296 -75.157)" fill="#d28471"/>
        <path id="Trazado_1272923" data-name="Trazado 1272923" d="M233.139,156.575a4.369,4.369,0,0,1-4.195,2.6.337.337,0,0,1,0-.673,4.6,4.6,0,0,0,2.184-.528,5.5,5.5,0,0,0,1.724-1.524c.1-.127.356-.061.287.121" transform="translate(-118.517 -75.577)" fill="#d28471"/>
        <path id="Trazado_1272924" data-name="Trazado 1272924" d="M175.826,165.584a1.238,1.238,0,0,0-2.009-.192,2.549,2.549,0,0,0-.377,1.146,12.977,12.977,0,0,0-.161,1.406,4.46,4.46,0,0,0,.736,2.659,6.35,6.35,0,0,1,1.166,2.325,2.01,2.01,0,0,1-.851,2.141c-.241.121-.549-.211-.308-.4,1.888-1.474-.691-3.538-1.245-4.954a5.945,5.945,0,0,1-.11-3.032,2.642,2.642,0,0,1,1.229-2.248,1.61,1.61,0,0,1,2.273,1.006.188.188,0,0,1-.343.145" transform="translate(-32.554 -79.388)" fill="#d28471"/>
        <path id="Trazado_1272925" data-name="Trazado 1272925" d="M174.45,169.086a3.065,3.065,0,0,1,1.147.738,3.636,3.636,0,0,1,.753,1.221,3.538,3.538,0,0,1-.24,3.038c-.141.214-.55.081-.441-.186a4.41,4.41,0,0,0,.373-1.289,3.239,3.239,0,0,0-.169-1.357,3.3,3.3,0,0,0-.611-1.041,4.325,4.325,0,0,0-.932-.84c-.142-.088-.049-.353.119-.283" transform="translate(-33.858 -81.708)" fill="#d28471"/>
        <path id="Trazado_1272926" data-name="Trazado 1272926" d="M175.888,179.632a8.831,8.831,0,0,1,1.029,1.69,10.481,10.481,0,0,1,.593,1.89,10.965,10.965,0,0,1,.231,1.9,7.032,7.032,0,0,1-.143,2.011.257.257,0,0,1-.5-.068c.026-.617.128-1.218.114-1.841a10.1,10.1,0,0,0-.223-1.913,10.727,10.727,0,0,0-.537-1.765,12.616,12.616,0,0,0-.8-1.768c-.093-.155.137-.282.238-.139" transform="translate(-35.736 -86.78)" fill="#d28471"/>
        <path id="Trazado_1272927" data-name="Trazado 1272927" d="M179.222,191.8a7.042,7.042,0,0,0-3.746,4.163c-.849,2.065-1.569,4.192-2.333,6.29-.445,1.225-.9,2.444-1.358,3.665-.152.407-.81.231-.657-.181.848-2.292,1.715-4.576,2.57-6.865.748-2,1.374-4.226,2.843-5.839a4.345,4.345,0,0,1,2.645-1.5c.162-.02.163.212.036.263" transform="translate(-34.959 -92.563)" fill="#d28471"/>
        <path id="Trazado_1272928" data-name="Trazado 1272928" d="M165.391,197.55c4.33,2.4,5.87,8.125,4.028,12.577-.986,2.384-2.884,4.113-4.66,5.91-1.868,1.891-3.326,4.141-5.218,6.006-1.936,1.908-4.664,3.448-7.463,2.84-.372-.081-.213-.641.157-.568,2.4.471,4.764-.733,6.493-2.32,1.851-1.7,3.222-3.837,4.928-5.672,1.626-1.75,3.545-3.291,4.724-5.405a9.853,9.853,0,0,0,.976-7.007,10.827,10.827,0,0,0-4.152-6.04c-.187-.14-.027-.44.187-.32" transform="translate(-15.889 -95.456)" fill="#d28471"/>
        <path id="Trazado_1272929" data-name="Trazado 1272929" d="M178.889,221.135c.331-.169.64-.385.971-.561.348-.185.711-.344,1.069-.51.677-.316,1.365-.606,2.061-.879a26.244,26.244,0,0,1,4.341-1.337,16.571,16.571,0,0,1,8.4.409,16.229,16.229,0,0,1,4.285,2.112c.385.268.019.9-.371.634a15.6,15.6,0,0,0-7.589-2.731,19.516,19.516,0,0,0-8.394,1.433c-.777.29-1.538.615-2.307.924-.366.147-.725.312-1.092.457-.4.157-.819.261-1.212.42-.213.086-.36-.267-.157-.371" transform="translate(-59.793 -105.107)" fill="#d28471"/>
        <path id="Trazado_1272930" data-name="Trazado 1272930" d="M201.019,176.649a4.078,4.078,0,0,1-.52,1.556,5.295,5.295,0,0,1-2.549,2.185,5.076,5.076,0,0,1-.782.259,2.424,2.424,0,0,1-.926.1c-.363-.06-.281-.554,0-.657a6.665,6.665,0,0,1,.733-.141,5.15,5.15,0,0,0,.749-.237,4.724,4.724,0,0,0,1.274-.779,4.772,4.772,0,0,0,.925-1.063,7.3,7.3,0,0,0,.7-1.329.2.2,0,0,1,.391.108" transform="translate(-69.532 -85.247)" fill="#3c3558"/>
        <path id="Trazado_1272931" data-name="Trazado 1272931" d="M226.532,198.517a3.907,3.907,0,0,1-.2.815,4.254,4.254,0,0,1-.376.7,5.519,5.519,0,0,1-1.113,1.258,6.1,6.1,0,0,1-1.388.894,3.194,3.194,0,0,1-1.669.427.332.332,0,0,1-.079-.6,3.98,3.98,0,0,1,.765-.234,4.919,4.919,0,0,0,.64-.242,5.636,5.636,0,0,0,1.265-.8,6.389,6.389,0,0,0,1.007-1.086c.145-.2.271-.411.4-.618s.29-.432.407-.657c.1-.2.372-.051.339.143" transform="translate(-108.25 -95.822)" fill="#3c3558"/>
        <path id="Trazado_1272932" data-name="Trazado 1272932" d="M198.361,203.012a.718.718,0,0,0,.924.518,2.852,2.852,0,0,0,.978-.74c.334-.31.663-.629.978-.953A24.521,24.521,0,0,0,203,199.847a.345.345,0,0,0,.049-.4.33.33,0,0,0-.368-.15,10.608,10.608,0,0,0-1.3.547,4.777,4.777,0,0,0-1.132.547,5.429,5.429,0,0,0-1.336,1.219,1.91,1.91,0,0,0-.436.557.743.743,0,0,0-.053.227.961.961,0,0,0-.063.615" transform="translate(-72.812 -96.308)" fill="#d28471"/>
        <path id="Trazado_1272933" data-name="Trazado 1272933" d="M201.783,206.526l-.035.058.019-.069a.555.555,0,0,1-.026.143.647.647,0,0,1-.058.109,1.142,1.142,0,0,1-.163.212,1.786,1.786,0,0,1-.412.3,2.072,2.072,0,0,1-.47.182c-.188.046-.477.117-.63-.038a.243.243,0,0,1,0-.338.444.444,0,0,1,.316-.1l.056,0c.007,0,.069-.007.033,0s.032-.005.032-.005l.045-.008a1.761,1.761,0,0,0,.218-.057c.032-.01.064-.023.1-.035s-.029.014.013-.006l.052-.024a2.353,2.353,0,0,0,.349-.214c.027-.021.133-.1.159-.118a.949.949,0,0,1,.107-.086c.011-.007.026-.011.038-.017.041-.019.051-.023.027-.01s-.016.007,0-.012c.1-.135.32-.018.231.135" transform="translate(-72.349 -99.713)" fill="#d28471"/>
        <path id="Trazado_1272934" data-name="Trazado 1272934" d="M189.482,189.4a3.928,3.928,0,0,0,.622-5.52c-1.352-1.7-2.323-1.012-4.019.34s-3.476,2.861-2.123,4.557a3.928,3.928,0,0,0,5.52.622" transform="translate(-53.004 -88.377)" fill="#dca19a"/>
        <path id="Trazado_1272935" data-name="Trazado 1272935" d="M218.551,212.578a3.928,3.928,0,0,0,.622-5.52c-1.352-1.7-2.323-1.012-4.019.341s-3.476,2.861-2.123,4.557a3.928,3.928,0,0,0,5.52.622" transform="translate(-97.094 -99.579)" fill="#dca19a"/>
        <path id="Trazado_1272936" data-name="Trazado 1272936" d="M200.66,246.484a19.006,19.006,0,0,0-3.109-4.446,28.5,28.5,0,0,0-4.088-3.6c-3.129-2.3-6.587-4.084-9.848-6.177a30.061,30.061,0,0,1-5.3-4.066c-.263-.269.131-.651.409-.409a43.279,43.279,0,0,0,4.8,3.674c1.691,1.1,3.439,2.114,5.173,3.147a39.822,39.822,0,0,1,8.984,6.683,19.817,19.817,0,0,1,1.9,2.356,14.7,14.7,0,0,1,1.409,2.7c.078.188-.239.32-.329.138" transform="translate(-60.328 -110.042)" fill="#bb6d5e"/>
        <path id="Trazado_1272937" data-name="Trazado 1272937" d="M209.667,194.134a1.067,1.067,0,0,1,.006,1.365,1.285,1.285,0,0,1-1.329.431l.328-.328a1.642,1.642,0,0,1-2.351,1.885l.4-.306a1.422,1.422,0,0,1-.445,1.455,1.438,1.438,0,0,1-1.524.167c-.332-.152-.043-.648.288-.492a.841.841,0,0,0,1.158-.986.275.275,0,0,1,.4-.307,1.117,1.117,0,0,0,1.563-1.274.269.269,0,0,1,.328-.328.755.755,0,0,0,.782-.233,1.061,1.061,0,0,0,.146-.9c-.035-.137.151-.268.253-.147" transform="translate(-82.873 -93.795)" fill="#d28471"/>
        <path id="Trazado_1272938" data-name="Trazado 1272938" d="M203.093,173.392a.907.907,0,0,0-.148-.071c-.058-.019-.118-.028-.176-.048-.109-.036-.22-.068-.331-.1-.056-.014-.112-.027-.168-.038l-.1-.017-.034-.005-.089-.011c.024,0,.021,0-.009,0l-.074-.008c-.066-.006-.131-.009-.2-.011a.241.241,0,1,1,0-.482,2.853,2.853,0,0,1,.791.132,2.467,2.467,0,0,1,.37.156,1.861,1.861,0,0,1,.179.125c.048.033.1.06.15.092a.165.165,0,0,1-.166.284" transform="translate(-74.703 -83.413)" fill="#d28471"/>
        <path id="Trazado_1272939" data-name="Trazado 1272939" d="M205.569,175.383a2.274,2.274,0,0,1-.872.076c-.138-.008-.278-.018-.416-.034a1.372,1.372,0,0,1-.49-.106.217.217,0,0,1,.051-.392.765.765,0,0,1,.136-.016c.047,0,.1.013.142.02l.161.02c.144.018.288.036.432.048a4,4,0,0,1,.856.122.137.137,0,0,1,0,.262" transform="translate(-78.149 -84.529)" fill="#d28471"/>
        <path id="Trazado_1272940" data-name="Trazado 1272940" d="M207.518,177.79c-.117.016-.233.036-.349.057s-.254.034-.381.048-.235.034-.359.045a1.816,1.816,0,0,1-.359.02.229.229,0,0,1-.222-.2.224.224,0,0,1,.162-.248,3.592,3.592,0,0,1,.749-.038c.119,0,.239-.01.359,0s.239.011.359.011a.155.155,0,0,1,.152.134.153.153,0,0,1-.111.17" transform="translate(-81.228 -85.767)" fill="#d28471"/>
        <path id="Trazado_1272941" data-name="Trazado 1272941" d="M231.738,195.926c-.028-.1-.072-.186-.095-.285s-.048-.2-.062-.305-.028-.2-.042-.3c-.007-.05-.014-.1-.021-.149a.49.49,0,0,1-.005-.252.253.253,0,0,1,.458-.06.849.849,0,0,1,.072.381c.011.1.022.208.033.312s.012.2.014.3-.018.207-.022.312a.169.169,0,0,1-.331.045" transform="translate(-118.944 -93.973)" fill="#d28471"/>
        <path id="Trazado_1272942" data-name="Trazado 1272942" d="M229.534,194.88c-.039-.242-.077-.482-.1-.725-.012-.115-.017-.231-.023-.347a1,1,0,0,1,.007-.4.256.256,0,0,1,.209-.179.246.246,0,0,1,.25.119.972.972,0,0,1,.053.42c0,.12.006.24,0,.36-.012.237-.034.471-.057.706a.172.172,0,0,1-.147.167.168.168,0,0,1-.188-.122" transform="translate(-115.692 -93.38)" fill="#d28471"/>
        <path id="Trazado_1272943" data-name="Trazado 1272943" d="M226.591,194.168c0-.089-.01-.178-.012-.267s0-.177,0-.266a2.3,2.3,0,0,1,.056-.578.247.247,0,0,1,.485.066,2.316,2.316,0,0,1-.086.574c-.017.087-.036.173-.059.259s-.055.168-.075.255a.16.16,0,0,1-.312-.042" transform="translate(-111.435 -93.212)" fill="#d28471"/>
        <path id="Trazado_1272944" data-name="Trazado 1272944" d="M204.7,76.817a16.476,16.476,0,0,0,.548,2.506,30.5,30.5,0,0,0,2.2,5.218A66.131,66.131,0,0,0,215.4,96.535a26.239,26.239,0,0,0,5.727,5.385,13.762,13.762,0,0,0,3.711,1.7,9.976,9.976,0,0,0,6.519-.289c3.75-2.154,13.89-8.877,16.485-12.46.3-.315.6-.639.892-.971a20.836,20.836,0,0,0,2.46-3.441c.057-.095.11-.194.163-.292a14.415,14.415,0,0,0,1.542-4.342c.2-1.15.245-2.326.54-3.454.777-2.965,3.161-5.183,4.823-7.755a17.688,17.688,0,0,0,2.45-12.875,12.172,12.172,0,0,1-5.294.392c-7.745-.809-14.991-4.241-22.675-5.5a19.167,19.167,0,0,0-6.091-.184,9.3,9.3,0,0,0-5.379,2.667c-2.483,2.657-2.649,6.636-3.4,10.2a27.352,27.352,0,0,1-3.665,9c-1,1.588-2.305,3.163-4.126,3.618,3.129-3.212,3.955-8.026,3.911-12.511a36.96,36.96,0,0,1,.2-7.4,8.1,8.1,0,0,1,3.683-5.689,6.556,6.556,0,0,0-1.095-3.221,5.1,5.1,0,0,0-1.229-1.084,6.059,6.059,0,0,0-4.069-1.128,5.646,5.646,0,0,0-3.309,1.842,12.189,12.189,0,0,0-2.035,3.268,19.39,19.39,0,0,0-1.932,8.241A12.014,12.014,0,0,0,206.57,67.4a14.951,14.951,0,0,0-1.869,9.419" transform="translate(-133.786 -22.645)" fill="#da9784"/>
        <path id="Trazado_1272945" data-name="Trazado 1272945" d="M187.556,103.176a.5.5,0,0,0-.08.6,10.035,10.035,0,0,0,7.631,5.02,9.851,9.851,0,0,0,10.3-7.134,53.66,53.66,0,0,0,.829-5.347,10.992,10.992,0,0,1,4.567-7.258,10.844,10.844,0,0,1,3.763-1.683,28.444,28.444,0,0,1,5.327-.268,9.169,9.169,0,0,0,7.223-3.729c4.23-5.59,2.368-12.734,1.1-18.995a41.757,41.757,0,0,1-.933-8.172,44.848,44.848,0,0,1,1.127-6.389s1.742-4.925,1.827-5.069a11.981,11.981,0,0,1-2.363-7.149,19.315,19.315,0,0,1,1.931-8.241,12.041,12.041,0,0,1,2.035-3.267,5.64,5.64,0,0,1,3.307-1.842,6.059,6.059,0,0,1,4.071,1.127,4.944,4.944,0,0,1,1.227,1.087,6.518,6.518,0,0,1,1.1,3.217,8.1,8.1,0,0,0-3.684,5.689,36.778,36.778,0,0,0-.2,7.4c.044,4.488-.78,9.3-3.912,12.511,1.822-.452,3.128-2.03,4.126-3.614a27.4,27.4,0,0,0,3.669-9.006c.75-3.56.914-7.537,3.4-10.193a9.25,9.25,0,0,1,5.377-2.666,19.176,19.176,0,0,1,6.092.179c7.685,1.266,14.929,4.7,22.674,5.506a12.105,12.105,0,0,0,5.3-.392,17.7,17.7,0,0,1-2.452,12.873c-1.663,2.572-4.047,4.791-4.821,7.755-.3,1.132-.338,2.309-.542,3.455a14.488,14.488,0,0,1-1.544,4.344.019.019,0,0,0,0,.015c1.683-2.84,5.287-4.16,8.281-5.665,3.2-1.613,6.573-4.18,6.593-7.759a27.39,27.39,0,0,1-.194-3.3c.308-2.477,2.835-4.12,3.56-6.5.764-2.5-.551-4.845-2.105-7.109-.7-1.023-1.445-2.031-2.07-3.033-2.775-4.454-3.3-9.959-5.65-14.646-2.825-5.635-8.167-9.726-14.015-12.069S257.195.348,250.9.06c-3.564-.164-7.362-.124-10.371,1.787-2.849,1.812-4.5,5-6.96,7.313-3.292,3.088-8.048,4.652-10.445,8.475-2.428,3.863-1.738,8.906-3.262,13.206-1.252,3.515-3.9,6.315-6.147,9.294S209.509,46.683,210,50.387c.407,3.018,2.378,5.565,3.595,8.36.928,2.135,1.28,4.836.317,6.821a10.261,10.261,0,0,1-2.706,1.132c-4.552,1.231-9.383.442-13.951,1.6a12.989,12.989,0,0,0-9.08,7.993c-1.718,4.577-.8,9.587.144,14.224a39.937,39.937,0,0,1,1.1,7.169,7.05,7.05,0,0,1-1.867,5.491" transform="translate(-157.446 0)" fill="#3c3558"/>
        <path id="Trazado_1272946" data-name="Trazado 1272946" d="M291.041,132.143a9.22,9.22,0,0,1-1.7-.328,14.454,14.454,0,0,1-1.682-.667,17.871,17.871,0,0,1-3.114-1.864,34.436,34.436,0,0,1-5.432-5.242,56.937,56.937,0,0,1-8.283-11.776,30.225,30.225,0,0,1-2.643-7.549c-.073-.374.5-.534.574-.158a33.823,33.823,0,0,0,5.778,12.634c1.339,1.921,2.8,3.755,4.308,5.544a41.139,41.139,0,0,0,5.209,5.359,20.688,20.688,0,0,0,3.33,2.246,16.426,16.426,0,0,0,1.826.836c.612.238,1.242.488,1.869.677.151.045.132.311-.039.289" transform="translate(-196.991 -50.426)" fill="#bb6d5e"/>
        <path id="Trazado_1272947" data-name="Trazado 1272947" d="M298.6,55.326a1.888,1.888,0,0,1,.741-1.622,2.194,2.194,0,0,1,1.815-.451,2.561,2.561,0,0,1,1.882,3.1,8.648,8.648,0,0,1-.822,2.265c-.349.764-.693,1.53-1.039,2.295a2.871,2.871,0,0,1-1.318,1.519,5.8,5.8,0,0,0-1.645,1,4.051,4.051,0,0,0-1.051,3.819.3.3,0,0,1-.574.159,4.418,4.418,0,0,1,.4-3.256,4.66,4.66,0,0,1,1-1.278,5.905,5.905,0,0,1,1.5-.879,2.1,2.1,0,0,0,.791-.537,3.431,3.431,0,0,0,.489-.914q.437-1.084.862-2.174c.44-1.122,1.242-2.792.285-3.874a1.649,1.649,0,0,0-1.66-.491,2.074,2.074,0,0,0-1.3,1.37.184.184,0,0,1-.36-.049" transform="translate(-223.482 -25.716)" fill="#bb6d5e"/>
        <path id="Trazado_1272948" data-name="Trazado 1272948" d="M303.5,63.622c-.146.2-.462.244-.691.317a5.893,5.893,0,0,0-.848.335,4.975,4.975,0,0,0-1.416,1.051,4.916,4.916,0,0,0-.98,1.573,5.232,5.232,0,0,0-.266.9c-.06.307-.038.628-.1.931a.232.232,0,0,1-.444,0,2.763,2.763,0,0,1,.049-.981,5.335,5.335,0,0,1,2.856-3.923,5.194,5.194,0,0,1,.9-.359c.241-.071.676-.2.9-.039a.141.141,0,0,1,.05.191" transform="translate(-225.104 -30.616)" fill="#bb6d5e"/>
        <path id="Trazado_1272949" data-name="Trazado 1272949" d="M240.454,97.935c-.517.544-1.071,1.048-1.561,1.618a13.165,13.165,0,0,0-1.324,1.847,14.864,14.864,0,0,0-1.705,4.363,22.763,22.763,0,0,0-.507,5.059,5.086,5.086,0,0,1-.275,2.133,2.221,2.221,0,0,1-1.5,1.215,6.839,6.839,0,0,1-2.294.068L228.171,114c-.446-.035-.45-.735,0-.7l2.772.217a9.679,9.679,0,0,0,2.132.052,1.647,1.647,0,0,0,1.431-1.04,6.9,6.9,0,0,0,.166-2.134A18.849,18.849,0,0,1,237,101.179a9.359,9.359,0,0,1,3.234-3.526.18.18,0,0,1,.218.282" transform="translate(-125.465 -47.181)" fill="#bb6d5e"/>
        <path id="Trazado_1272950" data-name="Trazado 1272950" d="M258.71,117.682a3.675,3.675,0,0,0-.548.435,2.389,2.389,0,0,0-.423.567,2.063,2.063,0,0,0-.214.651.935.935,0,0,0-.019.139c0,.057-.007.115-.007.173a1.227,1.227,0,0,1,0,.428.312.312,0,0,1-.561.073.888.888,0,0,1-.081-.5,2.482,2.482,0,0,1,.052-.463,2.652,2.652,0,0,1,.32-.8,2.067,2.067,0,0,1,1.344-1.027.177.177,0,0,1,.135.321" transform="translate(-158.751 -56.715)" fill="#bb6d5e"/>
        <path id="Trazado_1272951" data-name="Trazado 1272951" d="M263.9,138.619a2.788,2.788,0,0,1-1,.2,3.565,3.565,0,0,1-1.019-.148,3.991,3.991,0,0,1-.924-.4,2.622,2.622,0,0,1-.828-.706.327.327,0,0,1,.085-.424.336.336,0,0,1,.432.026,8.257,8.257,0,0,0,.67.541,3.279,3.279,0,0,0,.784.362,4.407,4.407,0,0,0,1.742.15c.243-.027.251.323.054.4" transform="translate(-165.669 -66.244)" fill="#bb6d5e"/>
        <path id="Trazado_1272952" data-name="Trazado 1272952" d="M241.381,78.473c2.236-.458,4.531.314,6.546,1.225a25.339,25.339,0,0,1,2.617,1.373c.392.273.775.567,1.139.877s.708.622,1.043.954c.3.3.676.689,1.136.447a2.046,2.046,0,0,0,.732-1.2,1.453,1.453,0,0,0-.262-1.318,5.282,5.282,0,0,0-1.079-.9c-.381-.264-.772-.517-1.176-.743a14.382,14.382,0,0,0-10.9-1.323c-.4.117-.178.679.206.6" transform="translate(-146.395 -37.38)" fill="#3c3558"/>
        <path id="Trazado_1272953" data-name="Trazado 1272953" d="M212.472,97.912c.207.14.544.057.766.069.276.018.548.05.822.094a7.046,7.046,0,0,1,1.667.493,8.973,8.973,0,0,1,2.938,2.095c.214.225.545-.167.341-.4-.02-.017-.041-.04-.061-.057a.128.128,0,0,0,.04-.125,5.732,5.732,0,0,0-2.092-3.125,6.2,6.2,0,0,0-2.88-1.365,1.105,1.105,0,0,0-1.341.708,7.792,7.792,0,0,0-.344,1,.541.541,0,0,0,.144.611" transform="translate(-96.001 -46.184)" fill="#3c3558"/>
        <path id="Trazado_1272954" data-name="Trazado 1272954" d="M254.622,122.958a.275.275,0,0,1,.2-.118.587.587,0,0,1,.351.125,3,3,0,0,1,.258.166c.15.107.3.213.443.33a2.12,2.12,0,0,1,.4.4.527.527,0,0,1,.052.589.149.149,0,0,1-.21.014c-.058-.066-.074-.113-.129-.181l-.016-.016-.038-.035c-.027-.028-.054-.057-.083-.084-.122-.111-.245-.22-.375-.321-.065-.051-.131-.1-.2-.147l-.049-.034c.047.032-.017-.01-.022-.012-.033-.02-.068-.039-.1-.058-.075-.042-.149-.086-.225-.129l-.1-.056a.459.459,0,0,1-.1-.062.448.448,0,0,1-.087-.134.251.251,0,0,1,.033-.235" transform="translate(-155.175 -59.363)" fill="#3c3558"/>
        <path id="Trazado_1272955" data-name="Trazado 1272955" d="M253.759,126.853c.556.106,1.117.175,1.679.233a12.134,12.134,0,0,1,1.721.2c1.123.285,1.786,1.307,2.777,1.832a11.547,11.547,0,0,0,1.589.644,2.325,2.325,0,0,1,1.166.674,2.572,2.572,0,0,1,.419,1.295,3,3,0,0,1-.063,1.35,11.818,11.818,0,0,1-5.18-1.737,20.29,20.29,0,0,1-4.395-3.175c-.354-.344-.7-.7-1.025-1.071a4.657,4.657,0,0,1-.666-.863,8.725,8.725,0,0,0,1.976.615" transform="translate(-160.492 -61.007)" fill="#bb6d5e"/>
        <path id="Trazado_1272956" data-name="Trazado 1272956" d="M325.007,14.837c-1.474.528-2.929,1.121-4.387,1.7s-2.923,1.19-4.341,1.88a28.269,28.269,0,0,0-7.333,4.963,17.909,17.909,0,0,0-4.509,6.746,13.5,13.5,0,0,0-.789,4.069c-.057,1.634.132,3.28-.088,4.908-.644,4.769-5.14,7.255-8.086,10.548a10.7,10.7,0,0,0-1.786,2.614,7.338,7.338,0,0,0-.624,3.793c.3,3.122,2.222,5.791,3.993,8.262,1.638,2.286,3.425,4.714,3.937,7.544a7.95,7.95,0,0,1-1.566,6.71,5.33,5.33,0,0,1-1.32,1.053.378.378,0,0,1-.381-.652c2.073-1.243,2.768-3.756,2.609-6.044-.2-2.848-1.883-5.334-3.481-7.6-1.75-2.479-3.6-5.006-4.23-8.041a8.43,8.43,0,0,1,.143-4.232,9.341,9.341,0,0,1,1.46-2.774,38.274,38.274,0,0,1,4.7-4.712,12.189,12.189,0,0,0,3.737-5.261,16.764,16.764,0,0,0,.322-4.9,15.857,15.857,0,0,1,.469-4.332,17.406,17.406,0,0,1,3.877-6.96c4.015-4.54,9.8-6.97,15.421-8.863.722-.243,1.453-.455,2.173-.7.18-.063.255.22.078.283" transform="translate(-243.444 -7.029)" fill="#3c3558"/>
        <path id="Trazado_1272957" data-name="Trazado 1272957" d="M186.233,38.009c2.206,2.97,4.277,6.044,6.353,9.105,1.024,1.509,2.051,3.016,3.07,4.529A22.872,22.872,0,0,1,198,55.792a9.526,9.526,0,0,1,.645,4.777,24.307,24.307,0,0,1-1.359,4.993c-.984,2.812-2.085,5.762-4.349,7.813-2.5,2.266-5.938,3.167-9.154,3.874-.429.095-.613-.553-.182-.661,2.8-.7,5.71-1.35,8.087-3.09,2.421-1.773,3.652-4.572,4.638-7.313a36.12,36.12,0,0,0,1.454-4.639,9.243,9.243,0,0,0-.191-4.87,17.575,17.575,0,0,0-2.135-4.1c-.961-1.463-1.958-2.9-2.939-4.354-2.242-3.312-4.51-6.619-6.607-10.025-.13-.212.185-.381.326-.191" transform="translate(-60.692 -18.328)" fill="#3c3558"/>
        <path id="Trazado_1272958" data-name="Trazado 1272958" d="M344.421,86.572a12.841,12.841,0,0,0-3.725,7.063,21.768,21.768,0,0,0,.458,9.02c1.526,6.516,4.709,12.966,3.672,19.82a12.889,12.889,0,0,1-3.566,7.229,9.183,9.183,0,0,1-7.13,2.808c-1.69-.122-3.316-.643-5-.824a6.679,6.679,0,0,0-4.023.6c-2.832,1.619-2.3,5.475-2.609,8.2a8.652,8.652,0,0,1-1.44,4.037,8.545,8.545,0,0,1-2.89,2.613,8.292,8.292,0,0,1-7.889-.069,7.4,7.4,0,0,1-1.638-1.217c-.3-.29.147-.723.452-.452a7.791,7.791,0,0,0,7.669,1.616,7.711,7.711,0,0,0,4.94-5.837c.531-2.875-.2-6.278,1.971-8.634,2.1-2.283,5.493-1.615,8.167-1.082a11.115,11.115,0,0,0,4.589.206,8.573,8.573,0,0,0,3.36-1.6,11.672,11.672,0,0,0,4.1-6.448c1.63-6.691-1.489-13.313-3.131-19.671a24.95,24.95,0,0,1-.9-9.074,13.614,13.614,0,0,1,2.915-7.264A8.937,8.937,0,0,1,344.2,86.29c.163-.124.364.145.218.282" transform="translate(-271.696 -41.686)" fill="#3c3558"/>
        <path id="Trazado_1272959" data-name="Trazado 1272959" d="M248.068,64.022c-5.324,3.732-12.237,2.423-18.056.787a80.581,80.581,0,0,0-10.023-2.533,17.661,17.661,0,0,0-9.4.835,10.547,10.547,0,0,0-6.116,6.164c-.117.358-.688.2-.567-.157a10.786,10.786,0,0,1,5.13-5.854,16.109,16.109,0,0,1,8.843-1.756A45.374,45.374,0,0,1,228.037,63.7a46.165,46.165,0,0,0,9.982,2.241,16.147,16.147,0,0,0,9.9-2.173c.161-.1.3.147.148.254" transform="translate(-120.721 -29.705)" fill="#3c3558"/>
        <path id="Trazado_1272960" data-name="Trazado 1272960" d="M273.806,41.491c-4.929,4.082-11.972,3.675-17.75,1.957-6.761-2.009-12.957-5.791-20-6.875a20.933,20.933,0,0,0-9.83.779,20.122,20.122,0,0,0-8.014,5,20.429,20.429,0,0,0-4.73,7.709c-1.124,3.332-1.194,6.849-1.383,10.326a25.256,25.256,0,0,1-1.749,9.076,11.378,11.378,0,0,1-5.1,5.756,8.3,8.3,0,0,1-1.8.633c-.389.089-.555-.509-.165-.6a9.372,9.372,0,0,0,5.9-4.844,20.425,20.425,0,0,0,2.2-8.616c.259-3.544.2-7.152,1.115-10.612A20.832,20.832,0,0,1,232.961,35.7c7.124.117,13.512,3.653,20.029,6.088a32.615,32.615,0,0,0,9.883,2.311,17.722,17.722,0,0,0,8.809-1.734,14.423,14.423,0,0,0,1.9-1.164c.167-.121.382.155.222.288" transform="translate(-146.027 -17.252)" fill="#514b75"/>
        <path id="Trazado_1272961" data-name="Trazado 1272961" d="M252.227,27.6c-3.374,1.3-7.073,1.323-10.636,1.133A60.913,60.913,0,0,1,231.8,27.4a62.321,62.321,0,0,1-9.428-2.869,63.878,63.878,0,0,1-8.856-4.287,60.95,60.95,0,0,1-8.1-5.663q-.468-.388-.928-.784c-.317-.273.144-.731.459-.459a61.041,61.041,0,0,0,7.851,5.734,61.176,61.176,0,0,0,8.659,4.43,62.915,62.915,0,0,0,9.278,3.022,61.425,61.425,0,0,0,9.6,1.53,50,50,0,0,0,5.138.165,30.6,30.6,0,0,0,5.365-.625c.439-.089.873-.2,1.3-.322.215-.061.292.252.091.329" transform="translate(-125.181 -6.407)" fill="#514b75"/>
        <path id="Trazado_1272962" data-name="Trazado 1272962" d="M354.659,114.527c-3.273,2.89-3.881,7.488-4.351,11.583-.461,4.011-1.149,8.707-4.514,11.4-3.642,2.914-8.606,2.156-12.878,3.191a12.727,12.727,0,0,0-8.958,8.12c-.827,2.413-.739,5.045-1.692,7.422-.817,2.039-2.559,3.941-4.932,3.835a3.755,3.755,0,0,1-1.47-.365c-.379-.18-.049-.735.328-.561a3.453,3.453,0,0,0,3.028-.219,5.231,5.231,0,0,0,2.181-2.438c1.107-2.306,1.014-4.953,1.73-7.373a13.43,13.43,0,0,1,8.323-8.717,28.633,28.633,0,0,1,6.552-1.109,15.745,15.745,0,0,0,6.31-1.61c3.782-2.172,4.713-6.822,5.209-10.807a45.913,45.913,0,0,1,1.018-6.28,11.683,11.683,0,0,1,2.816-5.363,7.783,7.783,0,0,1,1.138-.914c.124-.083.273.109.161.208" transform="translate(-285.06 -55.237)" fill="#514b75"/>
        <path id="Trazado_1272963" data-name="Trazado 1272963" d="M364.382,128.481a7.186,7.186,0,0,1-.283,1.908,8.142,8.142,0,0,1-.821,1.754,11.356,11.356,0,0,1-2.635,2.893c-2.307,1.832-5.091,2.836-7.778,3.964a26.974,26.974,0,0,0-4.149,2.084,16.121,16.121,0,0,0-2.959,2.448A17.751,17.751,0,0,0,341.84,150a17.5,17.5,0,0,0-.9,4.207,18.655,18.655,0,0,0,.182,4.3c.052.357-.476.524-.557.153a16.413,16.413,0,0,1,.317-7.6,18.588,18.588,0,0,1,3.445-6.807,17.9,17.9,0,0,1,6.331-4.922c2.748-1.319,5.73-2.19,8.318-3.827a13.081,13.081,0,0,0,3.365-2.988,8.708,8.708,0,0,0,1.1-1.846,10.1,10.1,0,0,0,.366-1.059,5.069,5.069,0,0,0,.253-1.125c.018-.2.327-.205.316,0" transform="translate(-307.436 -62.017)" fill="#514b75"/>
        <path id="Trazado_1272964" data-name="Trazado 1272964" d="M249.458,86.095c.112.021,1.169,1.4,1.685,1.93.214.211.432.418.657.617a11.41,11.41,0,0,0,2.44,1.624,10.6,10.6,0,0,0,1.392.567c.48.157.986.237,1.459.409.94.344.975,2.613.781,2.583-7.878-1.224-8.69-8-8.415-7.73" transform="translate(-154.078 -41.603)" fill="#3c3558"/>
        <path id="Trazado_1272965" data-name="Trazado 1272965" d="M218.723,105.764a12.781,12.781,0,0,0,4.777,1.569.525.525,0,0,1,.4.246s.01,0,.014.008c.28.251.645,2.041.231,1.98-4.383-.646-5.63-3.919-5.424-3.8" transform="translate(-104.574 -51.111)" fill="#3c3558"/>
        <path id="Trazado_1272966" data-name="Trazado 1272966" d="M249.649,91.8c.022-.535.025-1.071.05-1.606q.018-.387.036-.774c.006-.138.011-.277.019-.416a.5.5,0,0,1,.115-.375.2.2,0,0,1,.274,0c.171.2.085.546.074.792s-.024.516-.036.774c-.025.535-.072,1.07-.1,1.606-.014.276-.443.279-.432,0" transform="translate(-146.481 -42.805)" fill="#bb6d5e"/>
        <path id="Trazado_1272967" data-name="Trazado 1272967" d="M254.4,87.582a8.7,8.7,0,0,0-4.642-1.91,8.522,8.522,0,0,0-.859-.037,2.666,2.666,0,0,1-.811-.006.18.18,0,0,1-.042-.325,1.757,1.757,0,0,1,.806-.1,8.569,8.569,0,0,1,.907.037,9.1,9.1,0,0,1,1.791.35,8.954,8.954,0,0,1,3.142,1.7c.2.17-.088.456-.29.29" transform="translate(-150.12 -41.174)" fill="#bb6d5e"/>
        <path id="Trazado_1272968" data-name="Trazado 1272968" d="M218.557,106.58q.04-.589.12-1.175a5.213,5.213,0,0,1,.243-1.139.2.2,0,0,1,.215-.141.194.194,0,0,1,.17.193c-.032.384-.121.76-.186,1.14s-.112.746-.148,1.121a.213.213,0,0,1-.207.207.209.209,0,0,1-.207-.207" transform="translate(-99.472 -50.319)" fill="#bb6d5e"/>
        <path id="Trazado_1272969" data-name="Trazado 1272969" d="M221.689,103.825a5.483,5.483,0,0,0-3.923-.441.187.187,0,0,1-.1-.36,5.667,5.667,0,0,1,4.2.5c.2.109.022.409-.178.3" transform="translate(-101.591 -49.692)" fill="#bb6d5e"/>
        <path id="Trazado_1272970" data-name="Trazado 1272970" d="M88.783,288.189c2.078.477,4.158.945,6.233,1.431a9.762,9.762,0,0,1,4.876,2.255,4.287,4.287,0,0,1,1.094,4.553c-.647,1.8-2.164,3.015-3.621,4.155l-5.761,4.5c-.259.2-.627-.161-.365-.365l4.809-3.761a15.389,15.389,0,0,0,4-3.757,4.35,4.35,0,0,0,.687-2.526,3.789,3.789,0,0,0-.971-2.187,8.341,8.341,0,0,0-4.5-2.28c-2.2-.538-4.413-1.017-6.62-1.524-.324-.074-.187-.573.137-.5" transform="translate(85.817 -139.268)" fill="#d28471"/>
        <path id="Trazado_1272971" data-name="Trazado 1272971" d="M104.267,304.259c2.619.147,5.238.3,7.858.439,2.131.114,4.92.057,5.992-2.178.144-.3.59-.038.446.261a4.908,4.908,0,0,1-4.164,2.435,21.535,21.535,0,0,1-3.157-.05l-3.263-.182-3.712-.208c-.331-.019-.333-.535,0-.517" transform="translate(60.429 -146.134)" fill="#d28471"/>
        <path id="Trazado_1272972" data-name="Trazado 1272972" d="M127.922,316.733a2.591,2.591,0,0,1,2.214-1.505.258.258,0,0,1,0,.517,2.084,2.084,0,0,0-1.768,1.249.26.26,0,0,1-.353.092.265.265,0,0,1-.092-.353" transform="translate(36.289 -152.339)" fill="#d28471"/>
        <path id="Trazado_1272973" data-name="Trazado 1272973" d="M126.429,320.829a2.187,2.187,0,0,1,1.613-1.435.258.258,0,1,1,.137.5,1.9,1.9,0,0,0-.231.06c-.031.01-.062.022-.092.034l-.029.012-.056.027a1.912,1.912,0,0,0-.206.12c-.025.017-.05.035-.074.052l-.033.025-.048.04a1.92,1.92,0,0,0-.163.16c-.023.025-.044.052-.066.078l-.024.031c-.012.017-.024.034-.036.051a1.831,1.831,0,0,0-.116.2l-.027.056-.014.032c-.013.033-.026.066-.037.1a.258.258,0,0,1-.5-.137" transform="translate(39.078 -154.349)" fill="#d28471"/>
        <path id="Trazado_1272974" data-name="Trazado 1272974" d="M123.366,324.4a2.167,2.167,0,0,1,1.558-1.576.258.258,0,0,1,.137.5,2.267,2.267,0,0,0-.239.076l-.014.006-.055.026c-.036.018-.071.037-.106.057s-.075.045-.111.07l-.05.035-.019.014a2.166,2.166,0,0,0-.174.156c-.028.029-.056.058-.083.089l-.039.047-.017.023a2.2,2.2,0,0,0-.126.191c-.02.035-.039.071-.056.107-.009.018-.017.037-.026.055l0,.006,0,.007a2.235,2.235,0,0,0-.077.251.26.26,0,0,1-.318.18.264.264,0,0,1-.18-.318" transform="translate(43.777 -156.009)" fill="#d28471"/>
        <path id="Trazado_1272975" data-name="Trazado 1272975" d="M120.86,326.822a2.206,2.206,0,0,1,1.224-1.539.265.265,0,0,1,.353.092.261.261,0,0,1-.093.354,1.9,1.9,0,0,0-.2.1c-.032.019-.064.04-.095.061l-.042.029-.018.014a2.147,2.147,0,0,0-.306.3l-.01.012-.03.041c-.02.028-.038.056-.056.085a2.017,2.017,0,0,0-.109.2l-.021.046v0c-.015.038-.029.077-.042.115a1.873,1.873,0,0,0-.057.217.26.26,0,0,1-.318.18.265.265,0,0,1-.18-.318" transform="translate(47.851 -157.184)" fill="#d28471"/>
        <path id="Trazado_1272976" data-name="Trazado 1272976" d="M34.415,300.183c-3.62,2.619-8.233,2.828-12.51,2.2-4.8-.708-9.5-2.343-14.41-2.134a16.228,16.228,0,0,0-3.623.545,14.413,14.413,0,0,0-3.414,1.494c-.36.209-.639-.309-.318-.545a12.7,12.7,0,0,1,6.13-2.091,25.062,25.062,0,0,1,6.742.309c4.751.78,9.443,2.355,14.313,2.055a13.652,13.652,0,0,0,6.908-2.14c.192-.132.366.177.181.311" transform="translate(198.276 -144.757)" fill="#9272bd"/>
        <path id="Trazado_1272977" data-name="Trazado 1272977" d="M372.41,300.346a15.515,15.515,0,0,0-10.42-1.443,31.854,31.854,0,0,0-10.448,4.209c-3.424,2.007-6.691,4.287-10.237,6.085a35.32,35.32,0,0,1-22.9,3.164c-.477-.1-.951-.2-1.421-.33a.352.352,0,0,1,.187-.679,36.557,36.557,0,0,0,11.769.785,34.3,34.3,0,0,0,11.331-3.193c3.616-1.738,6.927-4.023,10.369-6.069a34.025,34.025,0,0,1,10.4-4.419,16.072,16.072,0,0,1,10.4.935,13.212,13.212,0,0,1,1.152.647.178.178,0,0,1-.18.307" transform="translate(-303.571 -144.021)" fill="#9272bd"/>
        <path id="Trazado_1272978" data-name="Trazado 1272978" d="M417.544,266.536a50.226,50.226,0,0,0,3.092,10.394,48.775,48.775,0,0,0,5.245,9.507q.872,1.233,1.815,2.414c.65.81,1.367,1.563,2.02,2.368.269.332-.158.788-.479.478a23.989,23.989,0,0,1-1.815-2.07q-.871-1.06-1.68-2.168a48.623,48.623,0,0,1-2.982-4.628,45.5,45.5,0,0,1-5.629-16.181c-.042-.269.365-.387.413-.114" transform="translate(-412.576 -128.733)" fill="#9272bd"/>
        <path id="Trazado_1272979" data-name="Trazado 1272979" d="M336.585,309.675a35.582,35.582,0,0,0-11.136,7.139,36.058,36.058,0,0,0-7.794,10.595,34.736,34.736,0,0,0-2.482,7.031c-.094.393-.694.226-.605-.167A34.6,34.6,0,0,1,320.1,322.03a36.443,36.443,0,0,1,9.631-9.36,32.916,32.916,0,0,1,6.753-3.375c.24-.089.337.288.1.38" transform="translate(-266.49 -149.465)" fill="#9272bd"/>
        <path id="Trazado_1272980" data-name="Trazado 1272980" d="M321.892,317.108a18.446,18.446,0,0,0-6.89,10,22.333,22.333,0,0,0-.6,3.418c-.053.459-.748.487-.738,0a16.21,16.21,0,0,1,1.568-6.277,17.447,17.447,0,0,1,6.439-7.523c.24-.158.449.218.222.38" transform="translate(-251.3 -153.046)" fill="#9272bd"/>
        <path id="Trazado_1272981" data-name="Trazado 1272981" d="M401.616,115.893a26.9,26.9,0,0,0-5.006-1.432,21.933,21.933,0,0,0-5.115-.26,21.55,21.55,0,0,0-9.779,3.058c-2.829,1.708-5.438,3.93-8.649,4.905-3.807,1.156-7.571-.227-11.327-.877-3.032-.524-7.007-.361-8.935,2.435l-.224-.552c3.412.985,5.268,4.442,5.647,7.775.5,4.376-1.649,8.546-3.308,12.451a52.166,52.166,0,0,0-3.624,12.936,53.115,53.115,0,0,0-.214,13.342,51.83,51.83,0,0,0,3.145,12.96q.305.794.639,1.576c.186.437-.456.817-.644.377a52.1,52.1,0,0,1-3.6-12.675,53.9,53.9,0,0,1-.362-13.181,52.559,52.559,0,0,1,2.878-12.861c1.528-4.213,4.022-8.281,4.374-12.833.249-3.223-.97-7.056-3.973-8.674a5.866,5.866,0,0,0-1.161-.467.379.379,0,0,1-.225-.552c1.747-2.531,4.988-3.191,7.885-3.01,3.834.239,7.558,2.067,11.444,1.444,3.446-.552,6.242-2.857,9.1-4.677a22.817,22.817,0,0,1,9.776-3.517,20.485,20.485,0,0,1,11.44,1.863c.243.125.073.547-.189.447" transform="translate(-350.019 -54.822)" fill="#9272bd"/>
        <path id="Trazado_1272982" data-name="Trazado 1272982" d="M352.9,288.22a22.72,22.72,0,0,0-5.83-1.546,18.4,18.4,0,0,0-6.023.329,19.434,19.434,0,0,0-3.277,1.074c-.389.165-.734-.4-.338-.578a18.726,18.726,0,0,1,12.327-.948,13.9,13.9,0,0,1,3.3,1.3c.194.11.063.456-.156.37" transform="translate(-294.657 -138.179)" fill="#9272bd"/>
        <path id="Trazado_1272983" data-name="Trazado 1272983" d="M350.235,280.332a21.191,21.191,0,0,0-5.476-2.146,21.825,21.825,0,0,0-2.878-.5c-.985-.1-1.965-.075-2.952-.115a.325.325,0,0,1,0-.651,13.965,13.965,0,0,1,3.005.109,20.588,20.588,0,0,1,2.988.564,21.124,21.124,0,0,1,5.517,2.389.2.2,0,0,1-.2.35" transform="translate(-292.741 -133.805)" fill="#9272bd"/>
        <path id="Trazado_1272984" data-name="Trazado 1272984" d="M432.126,148.493c-.7,3.8-1.384,7.61-2.124,11.407s-1.491,7.584-2.247,11.374c-.681,3.416-1.422,6.827-1.957,10.27a42.5,42.5,0,0,0-.566,9.433,19.149,19.149,0,0,0,3.134,9.641c.252.366-.344.711-.594.348-3.647-5.289-3.674-11.987-2.852-18.117.455-3.387,1.171-6.732,1.84-10.081q1.146-5.744,2.3-11.484c.437-2.152.861-4.306,1.319-6.453s.948-4.284,1.407-6.429c.048-.221.376-.126.336.092" transform="translate(-418.704 -71.656)" fill="#9272bd"/>
        <path id="Trazado_1272985" data-name="Trazado 1272985" d="M151.074,332.535c5.4,1.415,9.213,5.936,13.126,9.639a56.069,56.069,0,0,0,15.785,10.5,46.219,46.219,0,0,0,19.909,4.344c7.028-.225,13.577-3.086,19.762-6.215a113.792,113.792,0,0,0,18.009-11.362c-5.422-1.043-10.447-3.463-15.5-5.628a57.46,57.46,0,0,0-17.9-4.883c-6.352-.769-12.753-.906-19.121-1.493-6.465-.6-12.915-2.195-19.434-1.9-5.51.245-11.446,2.277-14.644,7" transform="translate(-82.96 -157.301)" fill="#c3a7f5"/>
        <path id="Trazado_1272986" data-name="Trazado 1272986" d="M88.717,333.438a19.212,19.212,0,0,1,7.5-6.447,25.63,25.63,0,0,1,10.432-1.954,102.492,102.492,0,0,1,12.112.682c4.242.433,8.487.808,12.733,1.19,8.559.77,17.23,1.758,25.331,4.789,2.078.778,4.106,1.682,6.18,2.474,2.1.8,4.215,1.542,6.359,2.2a69.4,69.4,0,0,0,13.237,2.813,39.248,39.248,0,0,0,23.668-5.036c.881-.511,1.745-1.047,2.588-1.617.343-.232.655.318.322.552a39.362,39.362,0,0,1-22.669,7.007,54.954,54.954,0,0,1-12.687-1.77,96.507,96.507,0,0,1-12.672-4.144c-2.044-.813-4.055-1.7-6.141-2.4a63.633,63.633,0,0,0-6.14-1.725,108.947,108.947,0,0,0-13.017-2.042c-4.315-.454-8.642-.774-12.961-1.19-3.981-.383-7.95-.86-11.948-1.043a38.436,38.436,0,0,0-11.537.764,18.311,18.311,0,0,0-8.522,5.155c-.626.651-1.229,1.329-1.825,2.008-.163.186-.49-.061-.346-.267" transform="translate(-22.379 -157.075)" fill="#9272bd"/>
      </g>
    </g>
  </g>
</svg>
