<svg xmlns="http://www.w3.org/2000/svg" xmlns:xlink="http://www.w3.org/1999/xlink" width="96" height="96" viewBox="0 0 96 96">
  <defs>
    <clipPath id="clip-path">
      <rect id="Rectángulo_455595" data-name="Rectángulo 455595" width="96" height="96" fill="none"/>
    </clipPath>
    <clipPath id="clip-path-2">
      <rect id="Rectángulo_460712" data-name="Rectángulo 460712" width="52.377" height="53.726" fill="#fff"/>
    </clipPath>
  </defs>
  <g id="Grupo_1208571" data-name="Grupo 1208571" transform="translate(-735.746 -9118)">
    <g id="Grupo_1180407" data-name="Grupo 1180407" transform="translate(735.746 9117.971)">
      <g id="Grupo_1179172" data-name="Grupo 1179172" transform="translate(0 0.03)" clip-path="url(#clip-path)">
        <path id="Trazado_998483" data-name="Trazado 998483" d="M92.562,52.469A40.092,40.092,0,1,1,52.469,12.377,40.093,40.093,0,0,1,92.562,52.469" transform="translate(-4.455 -4.484)" fill="#8d1939"/>
        <path id="Trazado_998485" data-name="Trazado 998485" d="M90.9,46.451A44.45,44.45,0,1,1,46.451,2,44.45,44.45,0,0,1,90.9,46.451Z" transform="translate(1.564 1.535)" fill="none" stroke="#8d1939" stroke-miterlimit="10" stroke-width="4"/>
      </g>
    </g>
    <g id="Grupo_1180408" data-name="Grupo 1180408" transform="translate(755.746 9137)">
      <g id="Grupo_1099618" data-name="Grupo 1099618" transform="translate(-0.035 -0.221)">
        <rect id="Rectángulo_401104" data-name="Rectángulo 401104" width="56.349" height="57.028" transform="translate(0)" fill="none"/>
      </g>
      <g id="Grupo_1211253" data-name="Grupo 1211253" transform="translate(1.965 1.779)">
        <g id="Grupo_1211252" data-name="Grupo 1211252" clip-path="url(#clip-path-2)">
          <path id="Trazado_1273752" data-name="Trazado 1273752" d="M17.12,2.036A3.066,3.066,0,0,1,21.539.465l9.736,9.418c-.293-1.715-1.646-3.839-1.812-5.507-.331-3.317,4.481-4.8,6.042-1.414,2.02,4.377,3.119,9.831,5.039,14.347.3.7,2.14,4.244,2.681,4.406.4.119,1.24-.587,2.574.032,1.6.744,1.7,2.471,1.242,3.979l5.284,5.345a.912.912,0,0,1-1.2,1.2l-5.443-5.3-8.416,8.369-.077.388,5.056,5.114c.405,1.148-.39,1.917-1.434,1.121-1.679-1.279-3.245-3.556-4.926-4.931-.533-.24-1.856.833-3.3-.226a2.74,2.74,0,0,1-1-3.229L27.893,32.5a19.614,19.614,0,0,0,1.1,7.825,2.767,2.767,0,0,1,2.963,3.851c-.179.4-.713.723-.656,1.132l3.493,7.308a.913.913,0,0,1-1.646.71l-3.408-7.287-11.23,5.234c1.718,2.434-.814,3.611-1.547.769a2.757,2.757,0,0,1-2.917-4.377A22.59,22.59,0,0,1,7.364,40.8C4.6,36.181,2.7,30.64.116,25.888a3.173,3.173,0,0,1,2.851-4.16c.111-.124-1.112-2.3-1.194-2.728a3.149,3.149,0,0,1,3.04-3.888c-2.875-4.975,4.444-7.7,5.849-2.153l1.226-.846c-2.346-1.748-2.643-4.727.154-6.154C8.541,3.586,11.8-1.669,15.327.522c.342.213,1.554,1.689,1.792,1.513m4.618,23.233V19.345c0-.422.867-1.431,1.227-1.7a3.126,3.126,0,0,1,4.928,2.158l-.01,10.6a21.246,21.246,0,0,0,4.748,1.606c.167.005.291.033.42-.112L41.882,22.9a18.492,18.492,0,0,1-2.987-4.869C37.114,13.84,35.913,9.1,34.27,4.812A6.263,6.263,0,0,0,33.577,3.2a1.364,1.364,0,0,0-2.307.914l3.137,9.183c.134.985-.706,1.333-1.524.905L20.718,2.056c-1.915-.638-2.7.848-1.446,2.369,1.907,2.315,4.709,4.383,6.693,6.692a.887.887,0,0,1-1.461,1l-9.92-9.927A1.341,1.341,0,0,0,12.612,4L22.944,14.458a1.076,1.076,0,0,1-.437,1.042,1.027,1.027,0,0,1-1.07-.163L13.779,7.765A1.323,1.323,0,0,0,12.04,9.657c.709,1.139,2.855,2.448,3.668,3.562,1.761,2.411,3.855,7.937,5.281,10.874a2.743,2.743,0,0,0,.747,1.176m-7.581-11.19c-1.107-.778-2.464-.188-2.259,1.254l4.228,8.854c.429,1.153-.5,1.868-1.449,1.143L8.482,12.445a1.341,1.341,0,0,0-2.53.828L12.078,26.08c.542,1.122-.656,2.042-1.489,1.029-1.7-2.795-2.767-6.648-4.515-9.332-.912-1.4-2.385-1-2.566.587l4.618,9.823,0,.93a.968.968,0,0,1-1.471.081c-.681-.939-2.046-4.991-2.856-5.451a1.383,1.383,0,0,0-2.068,1.137,14.318,14.318,0,0,0,.954,2.286A141.4,141.4,0,0,0,8.9,39.873a17.548,17.548,0,0,0,6.91,6.618l11.476-5.469c-1.645-4.47-1-9.3-1.083-13.99-.039-2.212.049-4.729-.153-6.924-.162-1.76-2.431-1.805-2.629.309-.144,1.546.3,8.839-.136,9.519a1.12,1.12,0,0,1-1.206.154Zm30,9.221L33.423,33.953c-.681,1.181.589,2.073,1.554,1.245l10.3-10.314c.739-.885-.01-1.922-1.122-1.584M29.238,42.064l-13.3,6.407c-1.271.637-.636,2.258.727,1.8l13.28-6.413a.99.99,0,0,0-.706-1.8" transform="translate(0 0)" fill="#fff"/>
          <path id="Trazado_1273753" data-name="Trazado 1273753" d="M66.064,242.114a16.685,16.685,0,0,1-3.333-4.748.886.886,0,0,1,1.436-.964,31.714,31.714,0,0,0,2.3,3.546c.584.692,2.944,2.494,3.113,2.9.331.785-.357,1.34-1.161,1.156a11.421,11.421,0,0,1-2.354-1.885" transform="translate(-53.033 -199.836)" fill="#fff"/>
        </g>
      </g>
    </g>
  </g>
</svg>
