<svg xmlns="http://www.w3.org/2000/svg" xmlns:xlink="http://www.w3.org/1999/xlink" width="96" height="96" viewBox="0 0 96 96">
  <defs>
    <clipPath id="clip-path">
      <rect id="Rectángulo_455595" data-name="Rectángulo 455595" width="96" height="96" fill="none"/>
    </clipPath>
    <clipPath id="clip-path-2">
      <rect id="Rectángulo_460721" data-name="Rectángulo 460721" width="56.349" height="45.484" fill="#fff"/>
    </clipPath>
  </defs>
  <g id="Grupo_1208576" data-name="Grupo 1208576" transform="translate(-735.746 -9118)">
    <g id="Grupo_1180407" data-name="Grupo 1180407" transform="translate(735.746 9117.971)">
      <g id="Grupo_1179172" data-name="Grupo 1179172" transform="translate(0 0.03)" clip-path="url(#clip-path)">
        <path id="Trazado_998483" data-name="Trazado 998483" d="M92.562,52.469A40.092,40.092,0,1,1,52.469,12.377,40.093,40.093,0,0,1,92.562,52.469" transform="translate(-4.455 -4.484)" fill="#8d1939"/>
        <path id="Trazado_998485" data-name="Trazado 998485" d="M90.9,46.451A44.45,44.45,0,1,1,46.451,2,44.45,44.45,0,0,1,90.9,46.451Z" transform="translate(1.564 1.535)" fill="none" stroke="#8d1939" stroke-miterlimit="10" stroke-width="4"/>
      </g>
    </g>
    <g id="Grupo_1180408" data-name="Grupo 1180408" transform="translate(755.746 9137)">
      <g id="Grupo_1099618" data-name="Grupo 1099618" transform="translate(-0.035 -0.221)">
        <rect id="Rectángulo_401104" data-name="Rectángulo 401104" width="56.349" height="57.028" transform="translate(0)" fill="none"/>
      </g>
      <g id="Grupo_1211261" data-name="Grupo 1211261" transform="translate(-0.035 5.779)">
        <g id="Grupo_1211260" data-name="Grupo 1211260" clip-path="url(#clip-path-2)">
          <path id="Trazado_1273818" data-name="Trazado 1273818" d="M138.413,95.947h13.143a5.533,5.533,0,0,1,1.45.807,3.424,3.424,0,0,1,.727,3.868c5.154-.574,5.447,6.578.323,6.292a3.429,3.429,0,0,1-.324,3.465c-.271.371-1.258,1.21-1.693,1.21h-2.822a3.229,3.229,0,0,1-2.338,4.677,33.534,33.534,0,0,1-5.009.009c-1.013-.121-.778-1.394-.121-1.591,1.036-.311,3.538.122,4.811-.027,1.846-.217,1.881-2.763-.179-3.054s-4.725.265-6.767-.006a.805.805,0,0,1,.018-1.609l11.885-.049c1.9-.517,1.44-2.9-.464-3.007l-11.721-.051c-.477-.14-.511-.741-.41-1.15.13-.379.676-.407,1.015-.438,4.715-.424,10.068.326,14.851.015a1.536,1.536,0,0,0-.183-3.057l-14.991-.007c-.687-.01-.831-.594-.693-1.19l.575-.394,11.566-.045a1.529,1.529,0,0,0-.167-3.04c-3.708-.528-8.566.349-12.409-.008-2.3-.214-1.8-2.442-1.12-4.036.925-2.179,3.8-3.439,3.232-6.14-.137-.65-.506-1.236-1.237-1.2L128.471,97.213a2.967,2.967,0,0,1-1.26.353,50.7,50.7,0,0,1-5.893-.086.838.838,0,0,1,.112-1.5c1.165-.353,4.161.145,5.617-.028a1.222,1.222,0,0,0,.621-.185L137.684,85.3c1.844-1.72,4.2-.422,4.561,1.9.668,4.252-3.365,4.956-3.832,8.75" transform="translate(-101.404 -70.881)" fill="#fff"/>
          <path id="Trazado_1273819" data-name="Trazado 1273819" d="M91.749,12.37a6.833,6.833,0,0,0-.2,1.008c-.074,1.383.828,1.644,1.316,2.871A5.18,5.18,0,1,1,84.2,14.743a13.461,13.461,0,0,1,2.153-1.556c.179-2.418-.666-3.523,1.589-5.023,4.374-2.907,9.59-5.218,14.075-8.019,3.112-.984,5.433,3.279,3.148,5.406ZM88,17.809c2.639-.37,1.24-5.432,2.5-6.615l13.1-6.578c1.636-.763.592-3.42-1.085-2.859L88.36,9.851A.879.879,0,0,0,88,10.31Zm-1.613-2.58a3.223,3.223,0,0,0-1.778,2.334A3.528,3.528,0,0,0,90.9,20.308a3.213,3.213,0,0,0,.241-3.628A3.364,3.364,0,0,1,87.3,19.386c-.3-.069-.921-.586-.921-.852Z" transform="translate(-69.534 0)" fill="#fff"/>
          <path id="Trazado_1273820" data-name="Trazado 1273820" d="M64.647,178.29c-.669-5.163,6.638-5.163,5.966,0,5.775.2,4.608,8.822-.976,7.669-.505-.1-1.219-.671-1.549-.7-.288-.025-1.184.57-1.77.6a3.161,3.161,0,0,1-3.138-2.877c-2.135.092-5.225.231-4.809-2.824.095-.7.971-1.868,1.679-1.868Zm2.7-2.23c-1.429.3-.871,1.634-.988,2.394-.381,2.479-4.343,1.008-5.952,1.481a.771.771,0,0,0-.358,1.1c.384.643,2.891.095,3.751.442,1.226.5.851,2.34,1.931,2.585,1,.228,1.5-.485,2.379-.457.8.026,1.528.735,2.283.806a2.268,2.268,0,0,0,1.3-4.218c-1.062-.542-2.53-.044-2.791-1.739-.065-.426.125-.689.109-1.049a1.462,1.462,0,0,0-1.667-1.345" transform="translate(-48.926 -146.289)" fill="#fff"/>
          <path id="Trazado_1273821" data-name="Trazado 1273821" d="M1.235,261.736c7.561.253,15.5-.471,23.021-.037,2.764.16,5.332,1.226,7.906,1.447.909.078,5.134-.264,5.482.323a.859.859,0,0,1-.489,1.288,34.7,34.7,0,0,1-5.162.011c-2.168-.161-4.432-1.142-6.6-1.3-7.752-.576-16.212.441-24.039.01-1.3-.115-1.523-1.491-.119-1.739" transform="translate(-0.232 -219.377)" fill="#fff"/>
          <path id="Trazado_1273822" data-name="Trazado 1273822" d="M.279,156.14c-.669-.666-.03-1.347.841-1.42,4.905-.411,10.37.327,15.335,0a.814.814,0,1,1,0,1.628c-4.961-.333-10.437.416-15.335,0-.252-.021-.66-.027-.841-.206" transform="translate(0 -129.661)" fill="#fff"/>
        </g>
      </g>
    </g>
  </g>
</svg>
