<svg xmlns="http://www.w3.org/2000/svg" xmlns:xlink="http://www.w3.org/1999/xlink" width="187.711" height="190.929" viewBox="0 0 187.711 190.929">
  <defs>
    <clipPath id="clip-path">
      <rect id="Rectángulo_461029" data-name="Rectángulo 461029" width="136.544" height="136.154" fill="none"/>
    </clipPath>
  </defs>
  <g id="Grupo_1212918" data-name="Grupo 1212918" transform="translate(-186.711 -4719)">
    <g id="Grupo_1209870" data-name="Grupo 1209870" transform="translate(-102.566 -4149.039)">
      <g id="Grupo_1204518" data-name="Grupo 1204518" transform="translate(289.277 8868.039)">
        <rect id="Rectángulo_455283" data-name="Rectángulo 455283" width="187.711" height="190.929" rx="19" fill="#e9c3ff"/>
      </g>
    </g>
    <g id="Grupo_1212049" data-name="Grupo 1212049" transform="translate(212.5 4746.792)">
      <g id="Grupo_1212048" data-name="Grupo 1212048" clip-path="url(#clip-path)">
        <path id="Trazado_1277592" data-name="Trazado 1277592" d="M106.206,0c4.671,2,8.689,5.367,10.325,10.344,1.557,4.737,1.521,21.31-.006,26.073a17.339,17.339,0,0,1-8.231,9.515,21.944,21.944,0,0,1-2.505.835,25.443,25.443,0,0,1-6.683.415v2.51l4.6,0v4.6l-4.6.239.005,1.849,4.6,0v4.6c-2.2-.243-5,.327-7.1,0-3.155-.494-2.05-6.251-2.088-8.769-.242-15.994.179-32.026,0-48.022A11.873,11.873,0,0,0,80.779,14.867c-.561,5.059-.662,18.546,1.872,22.676,1.62,2.641,4.873,3.344,5.192,6.083.136,1.173.167,6.027-.225,6.892-.168.37-4.92,5.2-5.63,5.853a24.931,24.931,0,0,1-2.8,2.42c-1.388.411-4.3.007-5.969.086-11.213.527-17.93,5.334-19.641,16.9l.015,60.353c-1.526-.022-3.067.016-4.593,0V74.118C49,65.1,59.437,55.493,68.106,54.39c2.666-.339,7.322.428,9.412-.192a59.669,59.669,0,0,0,5.506-5.35c1.921-4.24-3.214-6.541-4.949-10.068-2.664-5.417-2.824-23.454-.76-29.045C79.08,4.957,82.963,2.047,87.416,0Zm-.418,5.011a14.871,14.871,0,0,0-6.681-.835V15.45h6.681v4.593H99.108v13.78l2.09,0c.141-5.315-1.28-6.813,4.591-7.1,1.52-.074,3.073.053,4.595,0,1.5,6.141-3.961,3.961-4.6,4.593-.208.206,0,4.979,0,5.848-1.9,1.811-4.272,1.175-6.683,1.251L99.1,42.768c2.25.716,4.628-.141,6.689-1.012a10.133,10.133,0,0,0,6.473-7.1c1.081-3.691,1.1-18.856.007-22.556a11.964,11.964,0,0,0-6.48-7.091" transform="translate(-28.539)" fill="#0a3044"/>
        <path id="Trazado_1277593" data-name="Trazado 1277593" d="M115.823,133.769v2.505c-1.431.143-1.819.351-2.06,1.907-.624,4.034.919,17.7-.423,20.038a41.282,41.282,0,0,1-2.953,2.893c-.875.4-8.3.4-9.171,0a103.718,103.718,0,0,1-7.725-7.725c-.456-1.005-.06-3.6-.214-3.753s-3.849.124-4.6,0c.168,1.952-.444,4.222.473,6,.311.6,8.928,9.254,9.585,9.623,1.732.974,11.222.966,13.261.384a12.033,12.033,0,0,0,1.734-.976l0,44.262c-1.527,0-3.066.008-4.593,0l-.092-11.6-8.473-6.348c-.945-.174-.576.411-.621,1.033-.094,1.3.022,2.667,0,3.975a47.367,47.367,0,0,1-8.691-6.55l-.087-26.219a52.238,52.238,0,0,0-4.662-5.547c-1.086-.484-3.751,2.394-3.65,2.976.161.919,3.576,2.679,3.332,4.211l-.022,44.075c-1.388.019-2.787-.006-4.176,0l.045-62.381a21.5,21.5,0,0,1,10.394-14.869c1.674-.078,4.582.326,5.969-.086a24.929,24.929,0,0,0,2.8-2.42c2.255-.344,6.035.515,8.057-.086,1.186-.352,3.076-3.494,4.47-4.09.038,2.518-1.067,8.274,2.088,8.769" transform="translate(-47.76 -72.804)" fill="#fee7ec"/>
        <path id="Trazado_1277594" data-name="Trazado 1277594" d="M187.505,110c.136,1.288-.319,2.982.216,4.168a81.044,81.044,0,0,0,6.055,6.054c1.52.69,6.443.036,8.546.223,7.254.645,12.811,4.667,16.918,10.433-.5.366-1.356,2.211-2.239,2.057-.714-.124-2.045-2.6-2.923-2.445a15.81,15.81,0,0,0-2.727,2.768c-.383,1.464,2.978,2.9,3.287,4.519-.62,8.419.854,18.057.035,26.323-.267,2.695-3.381,3.681-3.381,4.985,0,.57,1.914,2.544,2.395,2.669,1.379.361,2.087-2.058,3.257-2.058,1.6,0,1.732,3.489,4.384,1.267v8.351c-2.653-2.222-2.788,1.266-4.384,1.267-1.17,0-1.877-2.418-3.257-2.058a14.944,14.944,0,0,0-2.757,2.73c-.059.332.532,1.168.794,1.4-2.232,1.1-3.857,3.544-6.263,4.176-.168-2.745-.772-4.956-3.466-6.347-1.47-.759-5.091-1.2-6.548-.536-1.535.7-4.749,5.557-6.279,6.248-1.079.487-2.918.167-4.169.217v-8.769a20.9,20.9,0,0,0,5.451-.186c.735-.227,2.915-2.214,2.915-2.945,0-.552-2.429-3.039-2.785-3.1-.76-.134-1.3,1.41-2.459,1.633-1.4.27-2.126-.3-3.122-.41v-4.176c2.325.1,7.716.365,9.725-.088.8-.181,3.318-2.247,3.19-2.986-.069-.4-2.588-2.792-3.1-2.789-.75,0-1.118,1.073-2.092,1.264-1.979.388-5.463-.1-7.719.007v-4.593c2.325.1,7.716.365,9.725-.088.8-.181,3.318-2.247,3.19-2.986-.069-.4-2.588-2.792-3.1-2.789-.75,0-1.118,1.073-2.092,1.264-1.979.388-5.463-.1-7.719.007v-4.593c2.525.114,11.3.389,13.062-.424a13.918,13.918,0,0,0,2-2.272,9.828,9.828,0,0,0-2.8-3.124c-.631-.11-1.066,1.03-2.039,1.22-2.567.5-7.289-.122-10.223.007V140.9c2.371.107,10.929.426,12.65-.086.59-.175,4.938-4.615,4.858-5.077-4.245-5.889-4.311-.3-6.945.484-2.042.606-7.926-.03-10.562.086v-4.176c2.285-.312,5.167-4.593,5.637-4.593h17.329c-.081-2.451.675-4.283-2.29-4.594s-14.091-.489-16.7.01c-.946.181-2.957,2.523-3.976,3.331v-15.45a22.028,22.028,0,0,0,2.505-.835m31.737,63.05h-4.6v4.6h4.6Z" transform="translate(-107.75 -64.068)" fill="#fff5d4"/>
        <path id="Trazado_1277595" data-name="Trazado 1277595" d="M79.6,141a21.5,21.5,0,0,0-10.394,14.869l-.045,62.381c-3.054.013-6.134.044-9.186,0L59.964,157.9c1.711-11.562,8.427-16.369,19.641-16.9" transform="translate(-34.925 -82.123)" fill="#ffcce2"/>
        <path id="Trazado_1277596" data-name="Trazado 1277596" d="M134.26,143.92c1.019-.809,3.03-3.151,3.976-3.331,2.61-.5,13.747-.318,16.7-.009s2.208,2.143,2.29,4.593H139.9c-.471,0-3.352,4.281-5.637,4.593-1.12.153-6.447-.238-6.683,0l0,68.065c-1.527,0-3.066,0-4.593,0l0-44.262a12.037,12.037,0,0,1-1.734.976c-2.038.583-11.528.59-13.261-.384-.657-.369-9.274-9.019-9.585-9.623-.917-1.781-.3-4.052-.473-6,.749.124,4.43-.167,4.6,0s-.242,2.747.214,3.753a103.714,103.714,0,0,0,7.725,7.725c.875.4,8.3.4,9.171,0a41.285,41.285,0,0,0,2.953-2.893c1.342-2.339-.2-16,.423-20.038.241-1.556.628-1.764,2.06-1.907,2.233-.223,6.973.547,8.6-.394.294-.17.413-.721.587-.859" transform="translate(-57.01 -81.703)" fill="#0a3044"/>
        <path id="Trazado_1277597" data-name="Trazado 1277597" d="M175.678,162.888v4.176c-.529.023-2.023-.218-2.1.241l.005,4.354c.693.025,1.4-.033,2.09,0v4.593c-.529.023-2.023-.218-2.1.241l.005,4.354c.693.025,1.4-.033,2.09,0v4.593c-.694.031-1.4-.027-2.09,0l-.005,4.354c.072.46,1.567.218,2.1.241v4.593c-.694.031-1.4-.027-2.09,0l-.005,4.354c.072.46,1.567.218,2.1.241v4.176c-.675-.075-1.408.046-2.09,0l-.005,4.772c.072.46,1.567.218,2.1.241v8.769c-.528.021-2.024-.217-2.1.241l.005,4.354c.693.025,1.4-.033,2.09,0v4.593c-.694.031-1.4-.027-2.09,0l0,4.6c-1.527,0-3.066,0-4.593,0l0-68.065c.236-.236,5.563.155,6.683,0" transform="translate(-98.428 -94.825)" fill="#ffe19a"/>
        <path id="Trazado_1277598" data-name="Trazado 1277598" d="M87.379,254.422l.022-44.075c.244-1.532-3.171-3.292-3.332-4.211-.1-.581,2.564-3.46,3.65-2.976a52.239,52.239,0,0,1,4.662,5.547l.087,26.219a47.368,47.368,0,0,0,8.691,6.55c-.071,4.307.052,8.637,0,12.945-1.526-.022-3.067.016-4.593,0v-10.23c0-.261-3.648-2.57-4.176-3.132v13.362c-1.665.016-3.346-.023-5.011,0" transform="translate(-48.962 -118.296)" fill="#0a3044"/>
        <path id="Trazado_1277599" data-name="Trazado 1277599" d="M255.319,81v4.593H224.21L207.3,102.529c-.751.468-3.067-2.049-3.275-2.607-.421-1.125.7-1.09,1.413-1.78,5.8-5.612,11.1-11.719,17.106-17.142Z" transform="translate(-118.775 -47.177)" fill="#0a3044"/>
        <path id="Trazado_1277600" data-name="Trazado 1277600" d="M202.538,283.949c.156,2.543.435,9.748,0,11.9-.158.791-.724,1-1.256,1.458-7.092.021-14.2.009-21.3,0l0-4.6c.693-.025,1.4.033,2.09,0,5.262-.238,10.6.176,15.867,0v-10.23c0-.769-2.608-1.221-3.46-.964-1.478.445-5.038,5.689-6.569,6.385-1.01.458-4.5.276-5.838.216-.694-.031-1.4.027-2.09,0l-.005-4.354c.072-.458,1.568-.22,2.1-.241,1.251-.05,3.09.271,4.169-.216,1.53-.691,4.744-5.552,6.279-6.248,1.456-.661,5.078-.223,6.548.535,2.694,1.391,3.3,3.6,3.466,6.347" transform="translate(-104.828 -161.184)" fill="#0a3044"/>
        <path id="Trazado_1277601" data-name="Trazado 1277601" d="M255.913,159.45c1.177-.866,3.631,1.8,3.728,2.354.075.428-1.608,2.129-2.058,2.657-.541.636-1.861.926-1.692,2.276.842,8.048-1.046,18.142,0,25.932.239,1.785,1.225,1.714,2.11,2.692,1.7,1.879,2.312,2.24,0,4.176-2.653,2.222-2.788-1.267-4.384-1.267-1.17,0-1.878,2.419-3.257,2.058-.481-.126-2.395-2.1-2.395-2.67,0-1.3,3.113-2.29,3.381-4.985.819-8.266-.655-17.9-.035-26.323-.309-1.617-3.67-3.054-3.287-4.518a15.812,15.812,0,0,1,2.727-2.768c.879-.153,2.209,2.321,2.923,2.445.883.153,1.741-1.691,2.239-2.057" transform="translate(-144.423 -92.64)" fill="#0a3044"/>
        <path id="Trazado_1277602" data-name="Trazado 1277602" d="M0,74.593V70H32.779l13.6,13.552c1.212,1.193-1.639,4-2.939,3.373L31.109,74.593Z" transform="translate(0 -40.77)" fill="#0a3044"/>
        <path id="Trazado_1277603" data-name="Trazado 1277603" d="M264.719,37v4.593H234.028L223.789,51.837c-1.451.67-2.749-1.706-3.719-2.576-.152-.858,10.689-11.01,12.288-12.261Z" transform="translate(-128.175 -21.55)" fill="#0a3044"/>
        <rect id="Rectángulo_461025" data-name="Rectángulo 461025" width="43.427" height="4.593" transform="translate(0 10.857)" fill="#0a3044"/>
        <path id="Trazado_1277604" data-name="Trazado 1277604" d="M0,106.593V102H31.944c.924,0,6.149,4.865,6.025,5.58-3.856,6.352-5.747-.987-7.277-.987Z" transform="translate(0 -59.408)" fill="#0a3044"/>
        <path id="Trazado_1277605" data-name="Trazado 1277605" d="M124.948,287.972c.022-1.308-.094-2.675,0-3.975.045-.622-.324-1.207.621-1.033l8.473,6.348.092,11.6c-3.056-.015-6.132.044-9.186,0,.052-4.308-.071-8.638,0-12.945" transform="translate(-72.752 -164.79)" fill="#ffcce2"/>
        <path id="Trazado_1277606" data-name="Trazado 1277606" d="M290.572,124v4.593H273.661c-.444,0-5.563,6.1-6.321,6.233-.537.094-3.706-2.433-2.682-3.956.52-.773,6.83-6.871,7.332-6.871Z" transform="translate(-154.028 -72.222)" fill="#0a3044"/>
        <path id="Trazado_1277607" data-name="Trazado 1277607" d="M257.491,274.846c2.312,1.936,1.7,2.3,0,4.176-.392.433-1.358.848-1.693,1.439-1.342,2.363.186,11.987-.4,15.264-1.518.069-3.071-.012-4.593,0-.593-3.318.96-13.322-.4-15.693-.256-.447-.941-.688-1.275-1.01a4.614,4.614,0,0,0-1.253-.835c-.261-.233-.853-1.069-.794-1.4a14.931,14.931,0,0,1,2.757-2.73c1.379-.361,2.087,2.058,3.257,2.058,1.6,0,1.732-3.489,4.384-1.267" transform="translate(-143.913 -159.598)" fill="#0a3044"/>
        <path id="Trazado_1277608" data-name="Trazado 1277608" d="M239.769,284.835l-.418,16.7c-2.778.013-5.573-.008-8.351,0,.532-.458,1.1-.667,1.256-1.458.431-2.156.152-9.361,0-11.9,2.406-.631,4.032-3.07,6.264-4.176a4.613,4.613,0,0,1,1.253.835" transform="translate(-134.542 -165.411)" fill="#ffe19a"/>
        <path id="Trazado_1277609" data-name="Trazado 1277609" d="M296.171,222v5.011H280.93c-1.4,0-3.023,6.723-6.86.569-.1-.572,5.02-5.58,5.607-5.58Z" transform="translate(-159.627 -129.3)" fill="#0a3044"/>
        <rect id="Rectángulo_461026" data-name="Rectángulo 461026" width="20.461" height="4.593" transform="translate(116.083 126.94)" fill="#0a3044"/>
        <path id="Trazado_1277610" data-name="Trazado 1277610" d="M12.318,200.678c.41.1,5.251,4.8,5.187,5.162-3.832,6.155-5.457-.569-6.858-.569H0v-4.593c3.433.538,9.2-.725,12.318,0" transform="translate(0 -116.747)" fill="#0a3044"/>
        <rect id="Rectángulo_461027" data-name="Rectángulo 461027" width="15.867" height="4.593" transform="translate(0 126.94)" fill="#0a3044"/>
        <path id="Trazado_1277611" data-name="Trazado 1277611" d="M268.6,202.9c-.885-.978-1.87-.907-2.11-2.692-1.046-7.791.842-17.884,0-25.932-.169-1.35,1.151-1.64,1.692-2.276.148,1.624.721,3.64.75,5.22.012.636-.355,1.34-.351,2.07.046,7.869,0,15.745.018,23.609" transform="translate(-155.027 -100.179)" fill="#e1e9ee"/>
        <path id="Trazado_1277612" data-name="Trazado 1277612" d="M253.088,302.7c-.7.005-1.392,0-2.088,0l.418-16.7c.334.322,1.02.563,1.275,1.01,1.355,2.371-.2,12.374.4,15.693" transform="translate(-146.191 -166.576)" fill="#e1e9ee"/>
        <path id="Trazado_1277613" data-name="Trazado 1277613" d="M268.844,286l0,16.7c-.693.025-1.4-.033-2.09,0,.581-3.276-.947-12.9.4-15.264.335-.591,1.3-1.005,1.693-1.439" transform="translate(-155.266 -166.576)" fill="#e1e9ee"/>
        <path id="Trazado_1277614" data-name="Trazado 1277614" d="M125.858,62.024c.709-.654,5.462-5.484,5.63-5.853.392-.864.362-5.719.225-6.892-.319-2.738-3.571-3.442-5.192-6.083-2.534-4.131-2.433-17.617-1.872-22.676A11.873,11.873,0,0,1,138.387,9.826c.177,16-.244,32.029,0,48.022-1.394.6-3.284,3.738-4.47,4.09-2.022.6-5.8-.259-8.057.086" transform="translate(-72.409 -5.652)" fill="#ffcce2"/>
        <path id="Trazado_1277615" data-name="Trazado 1277615" d="M184.869,48.746V44.153c0-.869-.21-5.642,0-5.848.636-.632,6.1,1.548,4.6-4.593-1.522.054-3.075-.073-4.595,0V12a11.964,11.964,0,0,1,6.48,7.091c1.095,3.7,1.074,18.865-.007,22.556a10.133,10.133,0,0,1-6.473,7.1" transform="translate(-107.62 -6.989)" fill="#fff5d4"/>
        <path id="Trazado_1277616" data-name="Trazado 1277616" d="M175.681,10.766V21.205H169V9.931a14.871,14.871,0,0,1,6.681.835" transform="translate(-98.431 -5.755)" fill="#ffe19a"/>
        <path id="Trazado_1277617" data-name="Trazado 1277617" d="M172.186,112v15.45c-.174.138-.293.688-.587.859-1.626.941-6.366.171-8.6.394V126.2c2.1.329,4.9-.241,7.1,0v-4.6l-4.6,0-.005-1.849,4.6-.239v-4.6l-4.6,0v-2.51a25.443,25.443,0,0,0,6.683-.415" transform="translate(-94.937 -65.233)" fill="#b3d5ee"/>
        <path id="Trazado_1277618" data-name="Trazado 1277618" d="M175.681,48v6.681c-5.871.287-4.45,1.786-4.591,7.1l-2.09,0V48Z" transform="translate(-98.431 -27.957)" fill="#b3d5ee"/>
        <path id="Trazado_1277619" data-name="Trazado 1277619" d="M175.669,93.593c-2.062.871-4.44,1.728-6.689,1.012l.006-4.354c2.411-.075,4.779.56,6.683-1.251Z" transform="translate(-98.42 -51.837)" fill="#b3d5ee"/>
        <path id="Trazado_1277620" data-name="Trazado 1277620" d="M182.077,173.081c-.694-.031-1.4.027-2.09,0l-.005-4.354c.072-.46,1.567-.218,2.1-.241,2.636-.116,8.52.521,10.562-.086,2.634-.781,2.7-6.373,6.945-.484.081.462-4.268,4.9-4.858,5.077-1.721.511-10.279.193-12.65.086" transform="translate(-104.828 -96.249)" fill="#0a3044"/>
        <path id="Trazado_1277621" data-name="Trazado 1277621" d="M182.077,193.278c2.934-.129,7.656.494,10.223-.007.973-.19,1.408-1.33,2.039-1.22a9.833,9.833,0,0,1,2.8,3.124,13.918,13.918,0,0,1-2,2.272c-1.76.813-10.536.539-13.062.424-.694-.031-1.4.027-2.09,0l-.005-4.354c.072-.46,1.567-.218,2.1-.241" transform="translate(-104.828 -111.853)" fill="#0a3044"/>
        <path id="Trazado_1277622" data-name="Trazado 1277622" d="M182.077,241.821c-.529-.023-2.023.218-2.1-.241l.005-4.354c.693-.025,1.4.033,2.09,0,2.256-.1,5.739.381,7.719-.007.974-.191,1.342-1.26,2.092-1.264.516,0,3.034,2.39,3.1,2.789.129.74-2.386,2.805-3.19,2.986-2.008.453-7.4.19-9.725.088" transform="translate(-104.828 -137.429)" fill="#0a3044"/>
        <path id="Trazado_1277623" data-name="Trazado 1277623" d="M182.077,219.821c-.529-.023-2.023.218-2.1-.241l.005-4.354c.693-.025,1.4.033,2.09,0,2.256-.1,5.739.381,7.719-.007.974-.191,1.342-1.26,2.092-1.264.516,0,3.034,2.39,3.1,2.789.129.739-2.386,2.805-3.19,2.986-2.008.453-7.4.19-9.725.088" transform="translate(-104.828 -124.616)" fill="#0a3044"/>
        <path id="Trazado_1277624" data-name="Trazado 1277624" d="M182.077,263.293c-.529-.023-2.023.218-2.1-.241l.005-4.772c.683.048,1.416-.073,2.09,0,1,.111,1.717.68,3.122.41,1.162-.223,1.7-1.767,2.459-1.634.357.063,2.786,2.55,2.785,3.1,0,.732-2.18,2.719-2.915,2.945a20.9,20.9,0,0,1-5.451.186" transform="translate(-104.828 -149.716)" fill="#0a3044"/>
        <rect id="Rectángulo_461028" data-name="Rectángulo 461028" width="4.597" height="4.597" transform="translate(106.895 108.983)" fill="#0a3044"/>
        <path id="Trazado_1277625" data-name="Trazado 1277625" d="M185,294.691c1.334.06,4.829.242,5.838-.216,1.531-.7,5.091-5.94,6.569-6.385.852-.257,3.46.195,3.46.964v10.23c-5.268.176-10.605-.238-15.867,0Z" transform="translate(-107.75 -167.751)" fill="#fff5d4"/>
      </g>
    </g>
  </g>
</svg>
