<svg xmlns="http://www.w3.org/2000/svg" xmlns:xlink="http://www.w3.org/1999/xlink" width="85" height="85" viewBox="0 0 85 85">
  <defs>
    <clipPath id="clip-path">
      <rect id="Rectángulo_460567" data-name="Rectángulo 460567" width="57.885" height="68" fill="#8d1939" stroke="#8d1939" stroke-width="0.5"/>
    </clipPath>
  </defs>
  <g id="Grupo_1210730" data-name="Grupo 1210730" transform="translate(-0.422 -0.436)">
    <path id="Sustracción_110" data-name="Sustracción 110" d="M0,0H85V85H0Z" transform="translate(0.422 0.436)" fill="#ffe19a"/>
    <g id="Grupo_1211026" data-name="Grupo 1211026" transform="translate(135.356 -19.897)">
      <g id="Grupo_1211025" data-name="Grupo 1211025" transform="translate(-121.935 28.333)" clip-path="url(#clip-path)">
        <path id="Trazado_1273122" data-name="Trazado 1273122" d="M72.14,6.224c1.094.861,3.346-.574,3.637.892.92,4.628-4.635,10.751-9.523,10.954-2.487.1-4.608-1.352-7.164-1.188-3.169.2-6.727,1.809-10.008,1.314-4.222-.637-7.861-5.426-7.657-9.437.041-.8.411-1.429.5-2.124.115-.9-1.589.366-1.854.592-2.633,2.251-.845,5.1-1.108,7.894-.123,1.3-.9,2.476-1,3.76-.091,1.268,1.337,4.569-.818,3.862-.776-.254-.951-3.12-.909-3.862.08-1.409.806-2.4.974-3.543.463-3.172-1.627-5.527,1.017-8.688,1.84-2.2,3.069-1.415,4.919-2.376.558-.29.7-.931,1.129-1.279A12.275,12.275,0,0,1,56.675.834c1.746.7,3.083,2.32,5.093,1.876.526-.116.9-.591,1.412-.772,2.835-1,5.918.429,7.759,2.491.385.431.9,1.556,1.2,1.8m1.908,1.951c-4.067.552-3.622-3.559-7.358-4.643-2.857-.829-2.594.455-4.434.822-3.21.641-4.5-1.61-7.1-2.314C47.612-.008,39.416,7,44.9,13.7c4.788,5.849,10.317.837,16.112,1.6,1.556.2,3.383,1.2,4.994,1.125,4.105-.182,7.9-4.475,8.042-8.251" transform="translate(-27.284 0)" fill="#8d1939" stroke="#8d1939" stroke-width="0.5"/>
        <path id="Trazado_1273123" data-name="Trazado 1273123" d="M81.016,72.925c.331.069.279-.244.362-.471a19.606,19.606,0,0,0,.882-6.444.861.861,0,0,1,1.353-.153c.96.921-.058,5.348-.447,6.649-.317,1.061-1.266,2.583-1.4,3.379-.294,1.788.129,4.2-.018,6.106-.8,10.3-10.275,21.331-22.044,17.251C47.456,95,44.164,76.659,50.869,66.914a1,1,0,0,1,1.48.708c.009.278-1.995,4.123-2.285,5.122-3.075,10.562,2.406,26.9,16.248,25.616,11.675-1.085,15.406-16.389,12.9-25.483-.24-.873-2.195-4.39-.31-4.2,1.188.121,1.685,3.307,2.112,4.247" transform="translate(-35.732 -50.149)" fill="#8d1939" stroke="#8d1939" stroke-width="0.5"/>
        <path id="Trazado_1273124" data-name="Trazado 1273124" d="M148.575,214.59c1.548-.479,1.294,1.931,1.782,2.967,2.243,4.764,14.232,4.126,17.643,9.086.6.877,2.533,5.363.557,5.363-.976,0-1.109-2.839-1.651-3.85-2.952-5.514-17.157-3.885-18.619-11.217-.109-.548-.387-2.14.287-2.349" transform="translate(-111.541 -164.006)" fill="#8d1939" stroke="#8d1939" stroke-width="0.5"/>
        <path id="Trazado_1273125" data-name="Trazado 1273125" d="M19.986,214.754c2.207-.2,1.137,2.724.547,3.828-3.08,5.759-15.57,4.688-18.123,9.807-.662,1.327-.454,2.289-.973,3.546-2.52,1.057-1.084-3.293-.472-4.452,3.046-5.761,15.13-4.684,17.934-9.516.642-1.105.359-2.293,1.087-3.213" transform="translate(0 -164.171)" fill="#8d1939" stroke="#8d1939" stroke-width="0.5"/>
        <path id="Trazado_1273126" data-name="Trazado 1273126" d="M94.038,239.685a.828.828,0,0,1,.935.2l4.449,5.88,4.43-5.9a1,1,0,0,1,1.624.6c0,.407-4.246,6.013-4.841,6.695-.561.643-1.281,1.52-2.05.581l-5.19-7.46a1.1,1.1,0,0,1,.643-.6" transform="translate(-70.322 -183.196)" fill="#8d1939" stroke="#8d1939" stroke-width="0.5"/>
        <path id="Trazado_1273127" data-name="Trazado 1273127" d="M134.685,105.417c-.431,2.832-4.566,2.542-4.948-.235l-1.608.7-.866-.82c1.76-2.906,7.439-2.807,9.646-.472.838.886.073,1.9-.987,1.413-.356-.163-.561-.8-1.237-.587m-1.753-.923c-.455-.25-1.72.014-1.46.8.123.372,1.189.487,1.46.336a1.316,1.316,0,0,0,0-1.138" transform="translate(-95.824 -78.636)" fill="#8d1939" stroke="#8d1939" stroke-width="0.5"/>
        <path id="Trazado_1273128" data-name="Trazado 1273128" d="M75.971,105.247c.075,1.942-2.756,2.558-4.088,1.422-.559-.477-.463-1.191-.983-1.656-.623.565-2.265,1.242-2.256-.12s3.807-2.27,4.975-2.254c1.422.019,6.478,1.539,4.41,3.3Zm-1.773.2c.993-.574-.663-1.822-1.333-.912-.45.611.605,1.332,1.333.912" transform="translate(-51.686 -78.467)" fill="#8d1939" stroke="#8d1939" stroke-width="0.5"/>
        <path id="Trazado_1273129" data-name="Trazado 1273129" d="M27.414,110.819c.6-.085,1.18.429,1.028.982-.2.71-2.162,1.472-2.162,3.109,0,2.1,3.3,2.625,2.422,3.737-1,1.263-3.247-1.03-3.7-2.08a3.868,3.868,0,0,1,.3-3.974,5.687,5.687,0,0,1,2.116-1.774" transform="translate(-18.515 -84.714)" fill="#8d1939" stroke="#8d1939" stroke-width="0.5"/>
        <path id="Trazado_1273130" data-name="Trazado 1273130" d="M191.44,110.8c.835-.2,2.192,1.318,2.549,1.963a4.521,4.521,0,0,1,.3,3.594c-.37,1.084-2.712,3.551-3.785,2.318-.862-.991.94-1.37,1.5-1.9a2.811,2.811,0,0,0,.554-3.119c-.255-.6-3.066-2.387-1.121-2.854" transform="translate(-143.266 -84.689)" fill="#8d1939" stroke="#8d1939" stroke-width="0.5"/>
        <path id="Trazado_1273131" data-name="Trazado 1273131" d="M104.937,172.846c1.191-.179,5.3.291,4.732,1.908-.394,1.123-2.7-.417-4.044-.323-1.118.078-2.928,1.586-3.3.308-.338-1.146,1.7-1.756,2.617-1.893" transform="translate(-77.014 -132.113)" fill="#8d1939" stroke="#8d1939" stroke-width="0.5"/>
        <path id="Trazado_1273132" data-name="Trazado 1273132" d="M75.632,125.658c.929-.295,1.546.7,2.681.7,1.254,0,1.863-1.235,2.982-.508.659,2.9-6.274,2.634-6.088.374a.566.566,0,0,1,.425-.566" transform="translate(-56.625 -96.023)" fill="#8d1939" stroke="#8d1939" stroke-width="0.5"/>
        <path id="Trazado_1273133" data-name="Trazado 1273133" d="M141.444,125.65c.972,2.919-6.278,3.276-5.794.193,1.031-.762,1.714.463,2.74.5,1.146.045,1.888-1,3.054-.7" transform="translate(-102.121 -96.017)" fill="#8d1939" stroke="#8d1939" stroke-width="0.5"/>
        <path id="Trazado_1273134" data-name="Trazado 1273134" d="M112.3,145.473c.927,2.6-2.919,3.417-4.872,2.292l.2-1.282c.552-.384,1.746.338,2.562.1.676-.2.777-1.64,2.115-1.106" transform="translate(-80.889 -111.124)" fill="#8d1939" stroke="#8d1939" stroke-width="0.5"/>
      </g>
    </g>
  </g>
</svg>
