<svg xmlns="http://www.w3.org/2000/svg" xmlns:xlink="http://www.w3.org/1999/xlink" width="85" height="85" viewBox="0 0 85 85">
  <defs>
    <clipPath id="clip-path">
      <rect id="Rectángulo_461204" data-name="Rectángulo 461204" width="70.589" height="70.461" fill="#8d1939"/>
    </clipPath>
  </defs>
  <g id="Grupo_1209915" data-name="Grupo 1209915" transform="translate(0.289 0.474)">
    <path id="Sustracción_110" data-name="Sustracción 110" d="M0,0H85V85H0Z" transform="translate(-0.289 -0.474)" fill="#ffe19a"/>
    <g id="Grupo_1212535" data-name="Grupo 1212535" transform="translate(6.711 7.526)">
      <g id="Grupo_1212534" data-name="Grupo 1212534" clip-path="url(#clip-path)">
        <path id="Trazado_1279008" data-name="Trazado 1279008" d="M106.249,170.243l-1.7-1.2c-4.438-4.6.134-12.186,6.293-10.094a6,6,0,0,1,2.79,2.167c.159.168.136.183.414.127.843-2.5,3.506-3.736,5.925-4.179l27.388-.021c1.66.025,1.327,2.174-.2,2.2l-27.32.085c-3.694.783-5.091,4-4.093,7.516.69,2.434,2.635,3.22,5,3.4,8.557.667,17.969-.514,26.616-.007,1.914.206.879,2.2.2,2.2H109.449v4.8h37.908c1.407,0,1.408,2.4,0,2.4H109.449v3.2h38.308c.852,0,.852,2.2,0,2.2H109.449v4.5c2.749,1.216,3.013,5.185.058,6.259a3.281,3.281,0,1,1-2.258-6.159v-17.2h-9.1c-1.127,0-.936-2.2-.2-2.2Zm6.44-5.549a3.839,3.839,0,1,0-3.839,3.839,3.839,3.839,0,0,0,3.839-3.839m2.362,5.549-1.3-2c-.492.415-.908,1-1.4,1.4-.318.259-.82.268-.9.6ZM109.4,192.749a1.107,1.107,0,1,0-1.107,1.107,1.107,1.107,0,0,0,1.107-1.107" transform="translate(-77.875 -125.626)" fill="#8d1939"/>
        <path id="Trazado_1279009" data-name="Trazado 1279009" d="M4.81,113.037h11v-9.2l-8.117-2.185c-1.336-.693-.687-2.149.991-2,3.56.324,8.4,2.722,12.116,3.291.45.069,1.4.318,1.585-.237a1.476,1.476,0,0,0-.159-1.188C21.6,100.645,11,98.342,9.3,97.449c-1.717-4.076,4.79-.337,6.516-.416v-5.1c0-.491-1.32-2.167-1.2-2.3l1.9-.754.2.134c2.1,2.444,1.025,5.846,1.322,8.794,2.517.939,6.678.939,6.589,4.531a3.1,3.1,0,0,1-3.291,3.089c-.34-.034-3.271-1.113-3.326-.683.146,3.152-.189,6.458,0,9.59.359,5.8,1.421,12.755,2.219,18.591a2.216,2.216,0,0,0,.208.688c2.881-.221,4.571,3.807,1.511,5.068a37.9,37.9,0,0,1-6.451,1.366,2.152,2.152,0,0,1-2.194-1.6l-2.3-12.6L9,134.518c3.166.492,4.466,5.085.714,5.524a32.225,32.225,0,0,1-4.8-.2c-1.494-.151-3.283-.08-3.861-1.74.033-1.644.067-3.316.16-4.957.345-6.119,1.173-12.276,1.406-18.4.268-7.028-.774-15.656.013-22.391a6.974,6.974,0,0,1,3.683-5.325l1.693,1.5A5.492,5.492,0,0,0,5.373,90.9c-.093.187-.564,1.359-.564,1.436Zm6,2.2h-6l-1.6,22.205,6.6.4c-.253-1.31-2.125-1.059-3.1-1.2-.3-.043-.322.124-.3-.3Zm5.2,0-2.992.011-.823,4.29,3.316,18.308c.761-.321,5.883-.892,5.895-1.5-.768-1.024-2.023-.257-3-.1Z" transform="translate(-0.841 -69.62)" fill="#8d1939"/>
        <path id="Trazado_1279010" data-name="Trazado 1279010" d="M2.917.056,67.29,0a3.3,3.3,0,0,1,3.293,3.108l-.089,25.318a1.073,1.073,0,0,1-2.1-.325l0-24.8L67.64,2.251H3.111A1.2,1.2,0,0,0,2.359,3.3c-.568,4.349.457,9.918,0,14.4-.082,1.038-1.1,1.174-1.892.718a1.694,1.694,0,0,1-.3-.9c-.515-4.5.377-9.98.021-14.589A3.283,3.283,0,0,1,2.917.056" transform="translate(0)" fill="#8d1939"/>
        <path id="Trazado_1279011" data-name="Trazado 1279011" d="M172.586,46.863c1.1-.057,2.7.224,3.093,1.409a12.793,12.793,0,0,1,0,3.982c-.4,1.185-1.994,1.466-3.093,1.409.311,3.066-1.749,3.452-4.307,3.209-1.957-.186-2.5-1.345-2.292-3.209-3.082.086-3.673-1.548-3.41-4.308.194-2.032,1.533-2.512,3.41-2.492-.213-1.523.239-2.945,1.917-3.183,2.556-.362,5.073.008,4.681,3.183m-2.2-1h-2.2v3.1l-.3.3h-3.1v2h3.1l.3.3v3.1h2.2v-3.4h3.2v-2h-3.2Z" transform="translate(-130.011 -34.851)" fill="#8d1939"/>
        <path id="Trazado_1279012" data-name="Trazado 1279012" d="M229.168,183.441v-2.2h-15.5c-1.076,0-1.136-2.2-.4-2.2h16.4a7.355,7.355,0,0,1,1.005.595c1.258,1.179,1.179,5.735-1.294,5.917l-15.5.077c-1.69-.278-1.121-2.189-.612-2.189Z" transform="translate(-170.188 -143.225)" fill="#8d1939"/>
        <path id="Trazado_1279013" data-name="Trazado 1279013" d="M42.073,41.277a5.506,5.506,0,1,1-5.506-5.506,5.506,5.506,0,0,1,5.506,5.506m-2.207,0a3.3,3.3,0,1,0-3.3,3.3,3.3,3.3,0,0,0,3.3-3.3" transform="translate(-24.848 -28.615)" fill="#8d1939"/>
      </g>
    </g>
  </g>
</svg>
