<svg xmlns="http://www.w3.org/2000/svg" xmlns:xlink="http://www.w3.org/1999/xlink" width="85" height="85" viewBox="0 0 85 85">
  <defs>
    <clipPath id="clip-path">
      <rect id="Rectángulo_460702" data-name="Rectángulo 460702" width="71.955" height="72.048" fill="#6a2874"/>
    </clipPath>
  </defs>
  <g id="Grupo_1211231" data-name="Grupo 1211231" transform="translate(-706.342 -410.531)">
    <path id="Sustracción_110" data-name="Sustracción 110" d="M15975.961,19829.512h85v85h-85Z" transform="translate(-15269.619 -19418.98)" fill="#ffe19a"/>
    <g id="Grupo_1211233" data-name="Grupo 1211233" transform="translate(617.342 297.531)">
      <g id="Grupo_1211232" data-name="Grupo 1211232" transform="translate(96 119)" clip-path="url(#clip-path)">
        <path id="Trazado_1273692" data-name="Trazado 1273692" d="M54.221,69.174a37.081,37.081,0,0,0-2.212-11.909c-.68-2.011-1.66-3.942-2.263-5.983-3.8-12.864,3.282-21.1,4.472-33.337.106-1.091-.378-2.778.625-3.5,1.075-.77,2.124.027,2.267,1.226.295,2.475-.737,5.68-.785,8.2l6.778,18.9,5.754-1.219L66.807,34a1.438,1.438,0,0,1,2.622-.954l2.526,9.442a1.548,1.548,0,0,1-1.193,1.487,55.513,55.513,0,0,1-8.123,1.981,1.382,1.382,0,0,1-1.1-.271l-6.692-16.91c-2.488,7.2-4.645,13.161-2.624,20.865,1.85,7.054,4.661,11.263,4.9,19.222.034,1.146.244,2.6-1.028,3.112l-39.888.08a1.526,1.526,0,0,1-.841-.4c-1.134-1.008-.113-5.542-.144-7.094-.877-.7-1.8-1.68-2.934-1.784-3.531-.325-7.551.267-11.137.005l-1.1-.966L0,50.1c.124-1.068.543-1.256,1.541-1.346,3.261-.293,8.183.567,11.137,0,.459-.087,2.4-1.63,3.352-2.007a12.314,12.314,0,0,1,4.384-.873c.926-5.989-1.616-11.535-3.3-17.111L10.535,45.585c-.7.657-1.437.3-2.248.152A56.06,56.06,0,0,1,1.03,43.925a1.523,1.523,0,0,1-.981-1.8C1.731,36.172,3.181,30.156,4.8,24.189,7.037,15.977,8.028,6.552,18.664,5.683c3.233-.264,8.925,1.293,10.1-2.883.4-1.406-.216-2.51,1.839-2.7,3.572-.324,7.676.224,11.3.054,1.379.361,1,1.663,1.275,2.642,1.182,4.175,6.85,2.617,10.1,2.883a13.214,13.214,0,0,1,8.77,4.424c2.806,3.252,3.236,7.514,4.322,11.531a1.42,1.42,0,0,1-2.571.737c-1.581-4.41-1.548-9.446-5.9-12.244C54.121,7.69,50.771,8.945,46.7,8.562a7.422,7.422,0,0,1-6.417-5.575l-3.37.022c.109,3.506-3.763,3.57-2.895-.009L31.67,2.987A8.319,8.319,0,0,1,30.3,5.778c-3.51,4.493-8.559,1.985-13.23,3.056a9.675,9.675,0,0,0-7.022,6.79L3.095,41.547l5.759,1.224,6.774-18.9c.052-1.992-1.438-7.418-.551-8.993a1.408,1.408,0,0,1,2.612.433,41.759,41.759,0,0,0,1.175,9.545c1.046,4.359,3.1,8.574,3.958,12.946a40.357,40.357,0,0,1,.5,8.257,7.346,7.346,0,0,1,5.53,5.293c2.275.085,4.492.5,5.41,2.836.543,1.385.537,5.859.348,7.44a4.294,4.294,0,0,1-2.869,3.728c-2.02.683-9.136.413-11.65.324a9.8,9.8,0,0,0-2.157-.216l-.205,3.712H35.049c-.189-3.472,3.783-3.465,2.886,0ZM25.772,51.445c-1.289-3.8-7.227-3.11-9.962-1.407-.386.241-1.576,1.407-1.686,1.407H2.89V59.9H13.713c.217,0,2.3,1.738,2.911,2.036a9.006,9.006,0,0,0,3.07.847c3.556.3,7.649-.131,11.227-.1a1.755,1.755,0,0,0,.84-1.221,38.989,38.989,0,0,0,0-5.794,1.581,1.581,0,0,0-1.552-1.334c-2.736-.325-5.986.328-8.776-.088-1.558-.473-.75-2.793.525-2.793Z" transform="translate(0 0)" fill="#6a2874"/>
        <path id="Trazado_1273693" data-name="Trazado 1273693" d="M186.025,75.453h5.463c.275,0,.953,1.1.925,1.531a1.738,1.738,0,0,1-1.338,1.355h-4.844c1.079,1.211.432,3.028-1.295,2.639-.744-.168-3.842-3.364-3.844-4.186,0-.623,3.455-4.085,4.054-4.194,1.663-.3,2.135,1.93.879,2.855" transform="translate(-143.761 -57.61)" fill="#6a2874"/>
        <path id="Trazado_1273694" data-name="Trazado 1273694" d="M182.028,241.811c1.847-.055,1.783,3.532,1.418,4.7-.469,1.5-2.588,1.3-2.8-.522-.142-1.229-.346-4.126,1.38-4.177" transform="translate(-143.336 -191.961)" fill="#6a2874"/>
        <path id="Trazado_1273695" data-name="Trazado 1273695" d="M156.077,81.683c.759.612.8,4.448-.274,5.067-2.362,1.362-2.409-3.011-2.1-4.364a1.531,1.531,0,0,1,2.37-.7" transform="translate(-121.912 -64.603)" fill="#6a2874"/>
        <path id="Trazado_1273696" data-name="Trazado 1273696" d="M157.812,127.074a11.858,11.858,0,0,1-.9-3.967,1.434,1.434,0,0,1,2.657-.574,20.053,20.053,0,0,1,.658,3.649,1.534,1.534,0,0,1-2.419.893" transform="translate(-124.566 -96.711)" fill="#6a2874"/>
        <path id="Trazado_1273697" data-name="Trazado 1273697" d="M179.431,206.568A1.46,1.46,0,0,1,177,206.13c-.408-1.016-1.044-4.19.37-4.614,2.224-.668,2.682,4.281,2.059,5.053" transform="translate(-140.115 -159.924)" fill="#6a2874"/>
        <path id="Trazado_1273698" data-name="Trazado 1273698" d="M158.092,40.567c1.1-.22,1.72.442,1.72,1.508a21.514,21.514,0,0,1-.539,3.19,1.414,1.414,0,0,1-2.269.428c-.813-.793-.278-4.852,1.088-5.127" transform="translate(-124.333 -32.171)" fill="#6a2874"/>
        <path id="Trazado_1273699" data-name="Trazado 1273699" d="M168.617,162.258c.53.573,1.544,4.11.669,4.788-2.2,1.708-3.5-3.54-2.9-4.546a1.472,1.472,0,0,1,2.227-.243" transform="translate(-131.972 -128.49)" fill="#6a2874"/>
        <path id="Trazado_1273700" data-name="Trazado 1273700" d="M178.6,282.648c2.541-.4,1.426,4.991.469,5.422-1.379.622-2.111-.3-2.059-1.638.042-1.072.335-3.586,1.589-3.784" transform="translate(-140.517 -224.363)" fill="#6a2874"/>
        <path id="Trazado_1273701" data-name="Trazado 1273701" d="M316.62,129.766c-1.279-1.21.572-3.333,2-2.1s-.7,3.337-2,2.1" transform="translate(-251.009 -101.051)" fill="#6a2874"/>
      </g>
    </g>
  </g>
</svg>
