<svg xmlns="http://www.w3.org/2000/svg" xmlns:xlink="http://www.w3.org/1999/xlink" width="128" height="128" viewBox="0 0 128 128">
  <defs>
    <clipPath id="clip-path">
      <rect id="Rectángulo_455595" data-name="Rectángulo 455595" width="128" height="128" fill="none"/>
    </clipPath>
    <clipPath id="clip-path-2">
      <rect id="Rectángulo_460710" data-name="Rectángulo 460710" width="46.454" height="68" fill="#8d1939"/>
    </clipPath>
  </defs>
  <g id="Grupo_1212897" data-name="Grupo 1212897" transform="translate(-1080.379 -1733.826)">
    <g id="Grupo_1208468" data-name="Grupo 1208468" transform="translate(1080.379 1733.826)">
      <g id="Grupo_1179172" data-name="Grupo 1179172" clip-path="url(#clip-path)">
        <path id="Trazado_998483" data-name="Trazado 998483" d="M118.651,65.514A53.137,53.137,0,1,1,65.514,12.377a53.138,53.138,0,0,1,53.137,53.137" transform="translate(-1.514 -1.514)" fill="#ff9ebf"/>
        <path id="Trazado_998485" data-name="Trazado 998485" d="M126.489,64.245A62.245,62.245,0,1,1,64.245,2,62.244,62.244,0,0,1,126.489,64.245Z" transform="translate(-0.245 -0.245)" fill="none" stroke="#8d1939" stroke-miterlimit="10" stroke-width="4"/>
      </g>
    </g>
    <g id="Grupo_1208469" data-name="Grupo 1208469" transform="translate(1110.379 1763.826)">
      <g id="Grupo_1099618" data-name="Grupo 1099618" transform="translate(0.332 0)">
        <rect id="Rectángulo_401104" data-name="Rectángulo 401104" width="68" height="68" transform="translate(0)" fill="none"/>
      </g>
      <g id="Grupo_1211249" data-name="Grupo 1211249" transform="translate(10.332)">
        <g id="Grupo_1211248" data-name="Grupo 1211248" clip-path="url(#clip-path-2)">
          <path id="Trazado_1273742" data-name="Trazado 1273742" d="M46.95,39.844a14.885,14.885,0,0,0-2.012.032c-.427.147-.675,1.565-1.8.76-.713-.511-.716-3.408.111-3.81,1.154-.56,1.235.69,1.686.846a15.054,15.054,0,0,0,2.013.032c.388-2.029-.472-1.671-1.333-2.659-.7-.8-1.314-3.008.262-3.005,1.327,0,.729,2.146,2.141,2.146,1.357,0,.876-1.978,1.957-2.133,1.745-.25,1.234,2.2.359,3.1-.9.93-1.588.55-1.247,2.55a15.021,15.021,0,0,0,2.013-.032c.427-.147.675-1.565,1.8-.76.706.506.723,3.4-.111,3.81-1.154.56-1.235-.69-1.686-.846a14.852,14.852,0,0,0-2.012-.032v4.281a14.885,14.885,0,0,0,2.012-.031c.458-.158.365-1.1,1.383-.948,1.276.186,1.2,3.747.166,4.061-1.121.339-1.084-.75-1.549-.909a14.851,14.851,0,0,0-2.012-.032v4.281a14.851,14.851,0,0,0,2.012-.031c.432-.149.35-.961,1.2-.961s.767.812,1.2.961a17.75,17.75,0,0,0,3.239-.006c1.479-1.591,1.744-4.089,4.513-3.856,4.07.342,2.226,6.323,2.619,9.018,4.957,1.994.719,9.565-1.554,12.287-.731.876-3.605,3.115-3.849,3.546-.509.9-.961,3.611-1.5,4.923a26.72,26.72,0,0,1-1.9,3.642,1.032,1.032,0,0,1-1.7-.8L56.1,72.929l-2.739.908a25.542,25.542,0,0,1-1.58,3.431c-.437.769-2.607,3.537-2.682,3.934a10.872,10.872,0,0,0,.028,2.3c.116.341.826.549,1.117.829.755.727,1.579,2.988.105,3.2-1.538.221-.872-2.133-2.325-2.133s-.823,2.6-2.491,2.1c-1.194-.362-.5-2.275.089-2.954.34-.39,1.2-.732,1.3-1.036a7.957,7.957,0,0,0-.073-2.587c-.292-.728-2.071-2.73-2.652-3.769a19.293,19.293,0,0,1-1.57-3.585L40.04,72.345a4.72,4.72,0,0,0,.537,2.382c.347.943,2.065,4.02,2.095,4.543a1.028,1.028,0,0,1-1.38.974c-.546-.146-1.991-3.254-2.275-3.957a26.094,26.094,0,0,1-1.5-5.5,17.677,17.677,0,0,1-5.387-6.873c-.929-2.17-3.093-9.015,1.483-8.3,1.867.294,1.753,2.557,2.155,3.88A11.889,11.889,0,0,0,37.9,63.78c.33-.819,1.5-6.288,3.163-4.622.7.7-.7,3.323-.977,4.28-.2.717-.362,1.444-.5,2.175l2.105,1.476a20.413,20.413,0,0,1,2.645-7.769c.386-.665,2.612-3.393,2.612-3.616V52.688a14.853,14.853,0,0,0-2.012.032c-.458.158-.365,1.1-1.383.948-1.276-.186-1.2-3.747-.166-4.061,1.121-.339,1.084.75,1.549.91a14.887,14.887,0,0,0,2.012.031V46.266a14.853,14.853,0,0,0-2.012.032c-.458.158-.365,1.1-1.383.948-1.276-.186-1.2-3.747-.166-4.061,1.121-.339,1.084.75,1.549.91a14.887,14.887,0,0,0,2.012.031ZM49.09,52.688V55.7c0,.223,2.226,2.951,2.611,3.616a19.915,19.915,0,0,1,2.454,6.892c.042.219-.129.374.289.3.392-.074,1.8-1.223,1.847-1.661.122-1.2-2.984-6.211-.494-5.935,1.237.137,1.46,3.153,2.242,3.894,1.381-2.237.786-4.856,2.824-6.617.27-.234.85-.374.977-.58a45.2,45.2,0,0,0,.083-5.927,1.386,1.386,0,0,0-.711-1.055c-1.168-.321-1.9,1.924-2.506,2.681a3.347,3.347,0,0,1-2.335,1.363,24.777,24.777,0,0,0-2.871.048c-.432.149-.35.961-1.2.961s-.767-.812-1.2-.961a14.882,14.882,0,0,0-2.012-.032M33.325,57.554c-.662-.038-.609.572-.584,1.061a15.639,15.639,0,0,0,1.987,6c.183.32,2.41,3.622,2.685,3.249.34-1.595-.438-1.852-1.133-2.855a16.051,16.051,0,0,1-2.954-7.458m25.3,11.091c.208.234,1.552-1.244,1.745-1.464a19.043,19.043,0,0,0,2.571-3.851c.586-1.24,2.289-5.085.361-5.693-2.094-.66-1.967,2.046-2.356,3.309-.146.474-.346.951-.538,1.408-.328.778-1.9,3.029-1.951,3.321-.118.668.406,2.137.167,2.97M48.281,57.786h-.523c-2.18,3.041-3.978,6.421-4.1,10.262,2.774.8,6.2,1.026,8.721-.5a19.633,19.633,0,0,0-4.1-9.759m8.154,12.562.242-2.871-2.3,1.392a11.6,11.6,0,0,1-.224,2.017c-.013.288-.133.564.285.478Zm-14.547.631c.085-1.938-1.154-2.088-2.527-2.918.081.435-.147,1.392.039,1.712a11.492,11.492,0,0,0,2.488,1.206M52.2,70.009a19.445,19.445,0,0,1-6.32.58c-.592-.04-1.2-.309-1.769-.376-.588-.069-.129,1.491.237,1.712,1.486.894,5.7.6,7.417.178ZM50.841,74.29c-1.929.447-3.894.066-5.837,0a23.121,23.121,0,0,0,3.016,4.86c.513-.555,3.213-4.456,2.821-4.86" transform="translate(-24.801 -25.801)" fill="#8d1939"/>
          <path id="Trazado_1273743" data-name="Trazado 1273743" d="M1.5.083A1.024,1.024,0,0,1,2.83.82l.1,51.3c-.086,2.129-2.212,1.805-2.157-.2V1.7C.781,1.195.955.248,1.5.083" transform="translate(-0.619 -0.02)" fill="#8d1939"/>
          <path id="Trazado_1273744" data-name="Trazado 1273744" d="M227.492,79.108a1,1,0,0,1,.948.143l.338.633.138,50.086c.049,2.07-2.035,2.332-2.158.2V80.133a1.179,1.179,0,0,1,.734-1.025" transform="translate(-182.629 -63.667)" fill="#8d1939"/>
          <path id="Trazado_1273745" data-name="Trazado 1273745" d="M226.748.062c1.136-.341,1.35.772,1.428,1.615a66.774,66.774,0,0,1-.008,9.543c-.223,2.008-1.943,1.953-2.145.2a69.3,69.3,0,0,1,0-10.128c.051-.439.255-1.087.725-1.229" transform="translate(-181.888 0.001)" fill="#8d1939"/>
          <path id="Trazado_1273746" data-name="Trazado 1273746" d="M.4,288.851c.63-.773,1.764-.307,1.9.82a63.572,63.572,0,0,1,0,9.349c-.2,1.752-1.92,1.811-2.145-.2a62.445,62.445,0,0,1-.007-8.764A3.229,3.229,0,0,1,.4,288.851" transform="translate(0 -232.331)" fill="#8d1939"/>
        </g>
      </g>
    </g>
  </g>
</svg>
