<svg xmlns="http://www.w3.org/2000/svg" xmlns:xlink="http://www.w3.org/1999/xlink" width="96" height="96" viewBox="0 0 96 96">
  <defs>
    <clipPath id="clip-path">
      <rect id="Rectángulo_455595" data-name="Rectángulo 455595" width="96" height="96" fill="none"/>
    </clipPath>
    <clipPath id="clip-path-2">
      <rect id="Rectángulo_461033" data-name="Rectángulo 461033" width="51.289" height="51.127" fill="#fff"/>
    </clipPath>
  </defs>
  <g id="Grupo_1209866" data-name="Grupo 1209866" transform="translate(-735.746 -9118)">
    <g id="Grupo_1180407" data-name="Grupo 1180407" transform="translate(735.746 9117.971)">
      <g id="Grupo_1179172" data-name="Grupo 1179172" transform="translate(0 0.03)" clip-path="url(#clip-path)">
        <path id="Trazado_998483" data-name="Trazado 998483" d="M92.562,52.469A40.092,40.092,0,1,1,52.469,12.377,40.093,40.093,0,0,1,92.562,52.469" transform="translate(-4.455 -4.484)" fill="#8d1939"/>
        <path id="Trazado_998485" data-name="Trazado 998485" d="M90.9,46.451A44.45,44.45,0,1,1,46.451,2,44.45,44.45,0,0,1,90.9,46.451Z" transform="translate(1.564 1.535)" fill="none" stroke="#8d1939" stroke-miterlimit="10" stroke-width="4"/>
      </g>
    </g>
    <g id="Grupo_1180408" data-name="Grupo 1180408" transform="translate(755.746 9137)">
      <g id="Grupo_1099618" data-name="Grupo 1099618" transform="translate(-0.035 0.352)">
        <rect id="Rectángulo_401104" data-name="Rectángulo 401104" width="56.349" height="57.028" transform="translate(0)" fill="none"/>
      </g>
      <g id="Grupo_1212057" data-name="Grupo 1212057" transform="translate(2.965 3.352)">
        <g id="Grupo_1212056" data-name="Grupo 1212056" clip-path="url(#clip-path-2)">
          <path id="Trazado_1277648" data-name="Trazado 1277648" d="M111.236,158.131c.442.511.011,3.811.185,4.721.077.4.673.825,1.017,1.038l.278-.177c-.453-2.656,3.012-4.94,5.077-3.132,1.225,1.073,3.813,7.9,3.885,9.592.064,1.5-1.065,5.366-2.2,6.309-1.721,1.429-2.418-.211-3.627-.774a22.662,22.662,0,0,1-2.487-.736c-2.8-1.649-.92-6.232-.942-8.861l-1.811-1.723-1.832,1.839c.156,1.558.51,3.279.593,4.826.086,1.6.01,3.021-1.514,3.919a22.632,22.632,0,0,1-2.487.736c-1.191.555-1.82,2.135-3.549.843-.7-.526-1.791-3.211-2.022-4.131a7.386,7.386,0,0,1-.035-3.638c.342-1.523,2.6-7.271,3.665-8.2,1.6-1.4,4.343-.291,4.917,1.68.184.631,0,1.228.358,1.688.357-.237,1.014-.665,1.1-1.1.208-1.089-.3-3.83.149-4.649.18-.331,1.068-.321,1.284-.072M105.3,168.165c-.827-.947,1.57-2.11,1.793-2.6a7.378,7.378,0,0,0-.11-2.523c-.344-1.612-1.964-2.253-2.969-.7-.926,1.429-3.027,6.674-3,8.274a14.736,14.736,0,0,0,1.5,4.518c.6.926,1.588-.518,2.209-.805.838-.388,2.19-.24,2.809-1,.93-1.143-.194-4.518-.069-6-.481.355-1.551,1.539-2.16.842m8.462-.842c.123,1.492-.959,4.721-.126,5.911.614.878,1.984.681,2.866,1.09.476.221,1.479,1.442,2,1.049.572-.431,1.712-4.085,1.708-4.893-.008-1.474-2.2-7.063-3.106-8.333-.979-1.379-2.546-.552-2.871.89a9.325,9.325,0,0,0-.154,2.428c.154.5,2.674,1.742,1.84,2.7-.607.7-1.68-.487-2.159-.842" transform="translate(-84.971 -134.809)" fill="#fff"/>
          <path id="Trazado_1277649" data-name="Trazado 1277649" d="M193.736,19.623c-.451.177-.662.561-1.126.848a2.881,2.881,0,0,1-1.139.473l-13.051,0a.74.74,0,0,1,.012-1.47h12.6a1.761,1.761,0,0,0,1.322-2.647c-3.106-4.484-5.558-9.754-8.663-14.191-.861-1.23-1.9-1.608-3.055-.443l-9.1,14.927c-.653,3.309,2.581,1.865,3.854,2.459a.78.78,0,0,1,.195,1.152c-.238.3-2.531.261-3.017.206a3.249,3.249,0,0,1-2.351-4.549l9.1-14.926a3.221,3.221,0,0,1,5.4,0c2.486,4.888,6.526,9.688,8.9,14.54.333.681.375,1.468.643,1.994.173.338.744.894,1,1.341,1.88,3.245.573,8.539.961,12.218a.746.746,0,0,1-1.39.223c-.524-3.978.874-8.535-1.1-12.159" transform="translate(-145.023)" fill="#fff"/>
          <path id="Trazado_1277650" data-name="Trazado 1277650" d="M19.952,55.848c.466-.105.979-.042,1.07.494-.123,1.94.179,4.1.01,6.008a2.854,2.854,0,0,1-2.71,2.564c-3.618.324-11.406-.88-14.193.9-4.167,2.656-2.062,9.358-2.616,13.5A.744.744,0,0,1,.07,79.053C.533,74.139-1.623,67.5,3.491,64.44c3.3-1.973,10.519-.6,14.539-.99.689-.066,1.405-.365,1.522-1.115.218-1.393-.33-5.228.116-6.183a.5.5,0,0,1,.283-.3" transform="translate(0 -47.63)" fill="#fff"/>
          <path id="Trazado_1277651" data-name="Trazado 1277651" d="M268.035,197.386c-.163-.163-.168-.535-.188-.764-.487-5.782.8-12.722,1.038-18.606.072-1.769-.23-4.062-.013-5.726a.731.731,0,0,1,1.462.017,44.5,44.5,0,0,1,.016,6.149c-.171,4.583-.818,9.184-1.03,13.767-.046.987.19,4.3-.078,4.9a.792.792,0,0,1-1.207.261" transform="translate(-228.514 -146.448)" fill="#fff"/>
          <path id="Trazado_1277652" data-name="Trazado 1277652" d="M64.154,171.858c.607-.108,1-.036,1.081.629.216,1.671-.085,3.953-.013,5.726.144,3.556.627,7.114.739,10.687.015.489.365.761-.062,1.26-.542.634-1.274.214-1.4-.534-.277-1.717-.177-4.05-.3-5.85-.238-3.4-.827-7.791-.441-11.138.031-.273.1-.68.393-.78" transform="translate(-54.31 -146.646)" fill="#fff"/>
          <path id="Trazado_1277653" data-name="Trazado 1277653" d="M238.8,30.94a2.232,2.232,0,0,1,2.677,1.943,25.539,25.539,0,0,1-.1,4.883,2.228,2.228,0,0,1-4.3-.484,27.253,27.253,0,0,1,.067-4.775A2.253,2.253,0,0,1,238.8,30.94m.428,1.462a.872.872,0,0,0-.679.631,27.477,27.477,0,0,0-.01,3.96c.133.986,1.3,1.026,1.463-.017a22.026,22.026,0,0,0,.016-3.514c-.04-.441-.188-1.116-.79-1.06" transform="translate(-202.285 -26.373)" fill="#fff"/>
          <path id="Trazado_1277654" data-name="Trazado 1277654" d="M239.5,95c2.742-.4,3.494,3.8.954,4.329A2.22,2.22,0,1,1,239.5,95m.878,2.715c.874-.868-1.2-1.873-1.265-.475-.032.662.892.846,1.265.475" transform="translate(-202.831 -81.062)" fill="#fff"/>
          <path id="Trazado_1277655" data-name="Trazado 1277655" d="M72.561,313.186a14.122,14.122,0,0,1,0,4.909.794.794,0,0,1-1.28-.481,23.088,23.088,0,0,1,.131-4.366.919.919,0,0,1,1.149-.062" transform="translate(-60.799 -267.158)" fill="#fff"/>
        </g>
      </g>
    </g>
  </g>
</svg>
