<svg xmlns="http://www.w3.org/2000/svg" xmlns:xlink="http://www.w3.org/1999/xlink" width="162.25" height="162.25" viewBox="0 0 162.25 162.25">
  <defs>
    <clipPath id="clip-path">
      <rect id="Rectángulo_461217" data-name="Rectángulo 461217" width="72.844" height="84.877" fill="#6a2874"/>
    </clipPath>
  </defs>
  <g id="Grupo_1212928" data-name="Grupo 1212928" transform="translate(-249.211 -4862.223)">
    <g id="Grupo_1212900" data-name="Grupo 1212900" transform="translate(0 -35)">
      <g id="Grupo_1209921" data-name="Grupo 1209921" transform="translate(-55.936 -5115.236)">
        <g id="Grupo_1177470" data-name="Grupo 1177470" transform="translate(305.146 10012.421)">
          <circle id="Elipse_13609" data-name="Elipse 13609" cx="81.125" cy="81.125" r="81.125" transform="translate(0 0.038)" fill="#f6e1fe"/>
          <g id="Grupo_1207827" data-name="Grupo 1207827" transform="translate(35.635 35.96)">
            <g id="Grupo_1099618" data-name="Grupo 1099618" transform="translate(0.865 -0.145)">
              <rect id="Rectángulo_401104" data-name="Rectángulo 401104" width="90" height="90" transform="translate(0)" fill="none"/>
            </g>
            <g id="Grupo_1212539" data-name="Grupo 1212539" transform="translate(8.865 2.855)">
              <g id="Grupo_1212538" data-name="Grupo 1212538" clip-path="url(#clip-path)">
                <path id="Trazado_1279034" data-name="Trazado 1279034" d="M61.168,75.163C42.01,92.967,11.013,85.2,2.219,60.793A35.919,35.919,0,0,1,7.071,26.955c-1.66-2.744-6.59-4.707-4.761-8.6a21.575,21.575,0,0,1,3.747-3.721c4.087-2.612,5.966,2.815,8.833,4.5a39.234,39.234,0,0,1,11.489-5.624C27.407,9.464,24.7,2.373,29.995.5,31.735-.11,39.1-.071,41.189.14c6.979.705,4.4,8.258,5.052,13.016a46.132,46.132,0,0,1,9.747,4.468c.7.415,1.63,1.552,2.421,1.192s3.081-3.325,4.1-4.109a3.842,3.842,0,0,1,3.449-.786c.889.2,3.957,3.138,4.468,3.963,2.522,4.069-2.739,6.231-4.507,9.071a36.552,36.552,0,0,1-4.748,48.208M29.989,5.558c-.3,2.048.221,4.742,0,6.866l4.564-.494c.106-1.559-.61-4.838,1.82-4.834,2.446,0,1.318,3.215,1.578,4.834l4.806.494V5.076c0-.884-1.293-1.449-2.069-1.546-1.466-.183-8.013-.224-9.214.14a2.216,2.216,0,0,0-1.485,1.888M69.472,48.524A32.917,32.917,0,1,0,36.555,81.441,32.917,32.917,0,0,0,69.472,48.524M8.7,17.816c-.192-.125-.383-.348-.64-.22L5.426,20.228,9.6,23.971l2.563-2.748c-1.3-.807-2.247-2.618-3.46-3.407M62.13,22.678c.418.385.855.593,1.1,1.2a.547.547,0,0,0,.563.083,26.856,26.856,0,0,0,3.76-3.915L64.835,17.5l-3.758,3.971c-.067.176.784.959,1.052,1.206" transform="translate(0.001 0)" fill="#6a2874"/>
                <path id="Trazado_1279035" data-name="Trazado 1279035" d="M70.5,129.314a12.687,12.687,0,0,1,11.781,4.262c1.773-1.466,3.038-2.768,5.261-3.6,9.073-3.406,18.6,4.381,16.345,13.936-1.626,6.888-10.259,15.1-15.623,19.551a58.993,58.993,0,0,1-5.16,3.995,2.359,2.359,0,0,1-1.076.1c-.733-.095-5.026-3.686-5.927-4.449-5.47-4.626-16.143-14.759-15.652-22.4.338-5.264,4.723-10.621,10.051-11.39m1.208,3.136a8.979,8.979,0,0,0-7.63,10.156c.711,5.368,10.482,14.627,14.671,18.093.688.569,3.2,2.863,3.867,2.671a39.666,39.666,0,0,0,3.961-3.043c4.259-3.555,13.18-12.01,14.042-17.518,1.318-8.425-8.557-13.826-14.765-8.019-1.111,1.04-2.065,3.773-3.384,3.859-1.445.094-2.22-2.385-3.112-3.373a9.053,9.053,0,0,0-7.65-2.826" transform="translate(-45.873 -98.041)" fill="#6a2874"/>
              </g>
            </g>
          </g>
        </g>
        <ellipse id="Elipse_13678" data-name="Elipse 13678" cx="19.243" cy="19.243" rx="19.243" ry="19.243" transform="translate(305.965 10136.186)" fill="#da9dfe"/>
        <g id="Grupo_1207826" data-name="Grupo 1207826" transform="translate(305.146 10138.641)">
          <path id="Trazado_998481" data-name="Trazado 998481" d="M0,13.854q4.835.419,9.664.868l-.27.112,1.389-2.491a.373.373,0,0,1,.426-.131.271.271,0,0,1,.2.185l0,.01,1.186,5.359L11.7,17.7l1.915-4.337,1.934-4.332,1.94-4.33L19.452.377A.822.822,0,0,1,20.394.03.578.578,0,0,1,20.9.6V.609l-.77,7.01-.812,7.007-.823,7.006-.854,7L16.044,28.4c1.235-2.953,2.506-5.9,3.765-8.845l1.893-4.42,1.917-4.414,0-.011a.7.7,0,0,1,.8-.305.505.505,0,0,1,.439.47l-.29,5.628-.314,5.627-.826-.118,2.776-5.324,0-.009a.291.291,0,0,1,.3-.125l5.25.671,5.247.689-5.291-.467-5.287-.485.3-.133-2.494,5.4a.472.472,0,0,1-.54.2.338.338,0,0,1-.286-.3v-.012l.079-5.631.1-5.631L24.836,11,23.051,15.45l-1.809,4.44c-1.209,2.959-2.407,5.921-3.64,8.874a.892.892,0,0,1-1.022.4c-.373-.087-.6-.356-.57-.635v0l.812-7.007.842-7,.854-7,.9-7,1.444.232-2.048,4.3-2.069,4.3-2.074,4.3-2.093,4.29-.005.011a.513.513,0,0,1-.588.2.382.382,0,0,1-.3-.278l-.924-5.388.624.063L9.86,14.986l0,.007a.273.273,0,0,1-.265.1q-4.8-.609-9.59-1.244" transform="translate(0 4.51) rotate(-7)" fill="#fff"/>
        </g>
      </g>
      <path id="Trazado_1271668" data-name="Trazado 1271668" d="M79.8,53.239V66.476a.9.9,0,0,1-.9.895H68.265a.9.9,0,0,0-.9.9V78.909a.9.9,0,0,1-.9.9H53.239a.9.9,0,0,1-.9-.9V68.266a.9.9,0,0,0-.895-.9H40.767a.9.9,0,0,1-.9-.895V53.239a.9.9,0,0,1,.9-.9H51.449a.9.9,0,0,0,.895-.895V40.768a.9.9,0,0,1,.9-.9H66.475a.9.9,0,0,1,.9.9V51.449a.9.9,0,0,0,.9.895H78.908a.9.9,0,0,1,.9.9" transform="translate(327.255 4862.017)" fill="#8d1939"/>
    </g>
  </g>
</svg>
