<svg xmlns="http://www.w3.org/2000/svg" xmlns:xlink="http://www.w3.org/1999/xlink" width="69" height="69" viewBox="0 0 69 69">
  <defs>
    <clipPath id="clip-path">
      <rect id="Rectángulo_461203" data-name="Rectángulo 461203" width="24.946" height="45" fill="#fff"/>
    </clipPath>
  </defs>
  <g id="Grupo_1209914" data-name="Grupo 1209914" transform="translate(-304.77 -11338.319)">
    <circle id="Elipse_13679" data-name="Elipse 13679" cx="34.5" cy="34.5" r="34.5" transform="translate(304.77 11338.319)" fill="#6a2874"/>
    <g id="Grupo_1212533" data-name="Grupo 1212533" transform="translate(326.77 11350.319)">
      <g id="Grupo_1212532" data-name="Grupo 1212532" clip-path="url(#clip-path)">
        <path id="Trazado_1279003" data-name="Trazado 1279003" d="M45.968,71.36c-1.562-1.269-2.37-3.85-4.859-2.723A2.558,2.558,0,0,0,39.769,71c.152,1.6,3.771,4.733,4.656,6.251l.058,6.633c.613.267,1.182,1.091,1.712,1.39a12.694,12.694,0,0,1,3.021,2.083,8.128,8.128,0,0,1,1.7,4.247c.038.35-.124.62-.086,1.027.2,2.136,1.743,5.259,1.776,7.351a2.138,2.138,0,0,1-4.039.993c-.795-1.933-.873-4.648-1.625-6.515-.138-.341-.373-.31-.462-.511-.361-.812-.386-2.55-.854-3.274-.4-.617-1.954-1.448-2.488-2.064a9.578,9.578,0,0,0-.608-.909c-1.3-1.346-3.529-2.557-4.768-3.922a2.9,2.9,0,0,1-.6-1.47,44.066,44.066,0,0,1,0-6.864,56.836,56.836,0,0,1,2.265-8.218c1.566-2.446,7.128.326,6.955,2.668-.031.422-.39,1-.411,1.464M49.83,89.706c-2.639,2.107-4.3-.862-1.242-2.138-.678-.339-1.474-1.588-2.206-1.388a9.454,9.454,0,0,0-2.747,1.958c-.057.33,2.253,1.8,2.533,2.267a20.471,20.471,0,0,1,.773,3.021c.33.289,3.045-1.216,3.379-1.644Z" transform="translate(-31.917 -57.136)" fill="#fff"/>
        <path id="Trazado_1279004" data-name="Trazado 1279004" d="M11.278,201.114a.894.894,0,0,1,.617.278c.735.559,1.9,1.5,2.555,2.134.147.142.39.29.386.527L10.2,217.072a2.167,2.167,0,0,1-4.138-1.093Z" transform="translate(-5.225 -173.372)" fill="#fff"/>
        <path id="Trazado_1279005" data-name="Trazado 1279005" d="M68.475,90.914,76.626,92.9a1.883,1.883,0,0,1-.931,3.563c-2.573-.983-6.575-1.092-8.97-2.214a2.8,2.8,0,0,1-.844-.673,48.862,48.862,0,0,1-4.182-5.06c-.6-.9-.863-1.957.12-2.729,1.2-.941,2.1-.294,2.962.613,1.292,1.352,2.425,3.11,3.694,4.512" transform="translate(-52.727 -73.558)" fill="#fff"/>
        <path id="Trazado_1279006" data-name="Trazado 1279006" d="M75.651,4.3a4.3,4.3,0,1,1-4.3-4.3,4.3,4.3,0,0,1,4.3,4.3" transform="translate(-57.797)" fill="#fff"/>
        <path id="Trazado_1279007" data-name="Trazado 1279007" d="M3.876,82.5l-.064,8.007a1.861,1.861,0,0,1-3.679.021c.278-2.792-.43-6.516.021-9.2a2.826,2.826,0,0,1,.264-.7l6.185-4.5L5.258,81.474Z" transform="translate(0 -65.63)" fill="#fff"/>
      </g>
    </g>
  </g>
</svg>
