<svg xmlns="http://www.w3.org/2000/svg" xmlns:xlink="http://www.w3.org/1999/xlink" width="162.25" height="162.25" viewBox="0 0 162.25 162.25">
  <defs>
    <clipPath id="clip-path">
      <rect id="Rectángulo_461220" data-name="Rectángulo 461220" width="57.428" height="90" fill="#6a2874"/>
    </clipPath>
  </defs>
  <g id="Grupo_1212931" data-name="Grupo 1212931" transform="translate(-1185.211 -4862.223)">
    <g id="Grupo_1212903" data-name="Grupo 1212903" transform="translate(0 -35)">
      <g id="Grupo_1209924" data-name="Grupo 1209924" transform="translate(880.064 -5115.236)">
        <g id="Grupo_1177470" data-name="Grupo 1177470" transform="translate(305.146 10012.421)">
          <circle id="Elipse_13609" data-name="Elipse 13609" cx="81.125" cy="81.125" r="81.125" transform="translate(0 0.038)" fill="#f6e1fe"/>
          <g id="Grupo_1207827" data-name="Grupo 1207827" transform="translate(35.635 35.96)">
            <g id="Grupo_1099618" data-name="Grupo 1099618" transform="translate(0.865 -0.145)">
              <rect id="Rectángulo_401104" data-name="Rectángulo 401104" width="90" height="90" transform="translate(0)" fill="none"/>
            </g>
            <g id="Grupo_1212545" data-name="Grupo 1212545" transform="translate(16.865 -0.145)">
              <g id="Grupo_1212544" data-name="Grupo 1212544" clip-path="url(#clip-path)">
                <path id="Trazado_1279052" data-name="Trazado 1279052" d="M26.375,307.785h-15V296.214c0-1.108-2.52-1.108-2.52,0v4.01H2.669V289.569c0-4.641,5.558-10.054,9.858-11.222,1.417-.385,3.222-.283,4.417-.624,1.13-.322.9-2.535-1.088-2.484A16.59,16.59,0,0,0,.14,290.248c-.447,6.067.352,12.675.009,18.8l.284.973.761.262,25.183-.011Zm-17.52,0H2.669v-5.041H8.856Z" transform="translate(0 -226.951)" fill="#6a2874"/>
                <path id="Trazado_1279053" data-name="Trazado 1279053" d="M177,310.273l25.183.011.761-.262.284-.973c-.343-6.126.456-12.734.009-18.8a16.589,16.589,0,0,0-15.716-15.009c-1.989-.051-2.218,2.162-1.088,2.484,1.2.34,3,.239,4.417.624,4.3,1.168,9.858,6.581,9.858,11.222v10.655H194.52v-4.01c0-1.108-2.521-1.108-2.521,0v11.571H177Zm17.52-7.529h6.186v5.041H194.52Z" transform="translate(-145.947 -226.951)" fill="#6a2874"/>
                <path id="Trazado_1279054" data-name="Trazado 1279054" d="M72.637,64.249c2.209.675,1.541-1.658,1.687-2.838.945-7.655,6-11.544,11.336-12.081v-2.5A14.808,14.808,0,0,0,72.54,57.319c-.369,1.236-1.449,6.457.1,6.929" transform="translate(-59.227 -38.613)" fill="#6a2874"/>
                <path id="Trazado_1279055" data-name="Trazado 1279055" d="M80,172.171a5.333,5.333,0,0,1-2.778-1.365,10.031,10.031,0,0,1-.945-1.363v-4.5a14.447,14.447,0,0,0,3.723.921v-2.524a8.6,8.6,0,0,1-6.689-5.007,15.411,15.411,0,0,1-.726-2.044v-7.962c2.3-.232,5.175.3,7.415.01v-2.658a1.577,1.577,0,0,1-.2.057c-2.11.429-7.571-.483-9.058.174-.9.4-.709,1.612-.7,2.419-6.031-.8-6.625,6.7-2.149,9.186.7.39,2.564.818,2.785,1.025.24.225,1.035,2.16,1.48,2.788.355.5,1.3,1.2,1.456,1.544.6,1.327-.256,5.552.227,7.388.685,2.606,3.291,4.065,6.154,4.4Zm-9.954-16.46c-2.765-.713-4.041-5.745,0-4.616Z" transform="translate(-53.57 -120.106)" fill="#6a2874"/>
                <path id="Trazado_1279056" data-name="Trazado 1279056" d="M192.18,68.687c-.321-.536-1.155-.886-1.256-1.531a27.458,27.458,0,0,1,.477-3.438c.281-4.9-.9-9.271-4.491-12.717a15.111,15.111,0,0,0-9.244-4.184v2.508c6.085.632,11.719,5.553,11.2,14.162-.068,1.128-.4,2.213-.474,3.336h-.69c.5-3.893-3.1-1.934-5.364-2.831-2.027-.806-2.008-3.644-3.742-3.408-.472.064-.722.457-.927.89v4.092a13.5,13.5,0,0,0,1.178-1.035,7.335,7.335,0,0,0,6.316,2.29c-.163,4.318.885,8.867-2.3,12.354a8.518,8.518,0,0,1-5.191,2.684V84.37a14.424,14.424,0,0,0,3.8-.93v4.5c0,.314-1.41,1.7-1.768,1.924a6,6,0,0,1-2.032.786v2.491c3.075-.378,5.866-2.047,6.325-4.985.25-1.6-.381-5.657.134-6.79.143-.315.913-.859,1.226-1.313.392-.569,1.561-2.879,1.711-3.019a14.344,14.344,0,0,1,2.022-.634c2.686-1.2,4.736-4.983,3.1-7.714M187.7,74.209V69.593c3.979-1.157,2.662,3.914,0,4.616" transform="translate(-146.497 -38.604)" fill="#6a2874"/>
                <line id="Línea_3864" data-name="Línea 3864" y2="87.81" transform="translate(28.69 1.095)"/>
                <path id="Trazado_1279057" data-name="Trazado 1279057" d="M159.2,2.737a1.02,1.02,0,0,1-.922-1.095V1.095a.936.936,0,1,1,1.845,0v.547a1.02,1.02,0,0,1-.922,1.095" transform="translate(-130.507)" fill="#6a2874"/>
                <path id="Trazado_1279058" data-name="Trazado 1279058" d="M159.2,108.271a1.02,1.02,0,0,1-.922-1.095v-1.1a.936.936,0,1,1,1.845,0v1.1a1.02,1.02,0,0,1-.922,1.095m0-5.488a1.02,1.02,0,0,1-.922-1.095v-1.1a.936.936,0,1,1,1.845,0v1.1a1.02,1.02,0,0,1-.922,1.095m0-5.488a1.02,1.02,0,0,1-.922-1.095V95.1a.936.936,0,1,1,1.845,0v1.1a1.02,1.02,0,0,1-.922,1.095m0-5.488a1.02,1.02,0,0,1-.922-1.095v-1.1a.936.936,0,1,1,1.845,0v1.1a1.02,1.02,0,0,1-.922,1.095m0-5.488a1.02,1.02,0,0,1-.922-1.095v-1.1a.936.936,0,1,1,1.845,0v1.1a1.02,1.02,0,0,1-.922,1.095m0-5.488a1.02,1.02,0,0,1-.922-1.095v-1.1a.936.936,0,1,1,1.845,0v1.1a1.02,1.02,0,0,1-.922,1.095m0-5.488a1.02,1.02,0,0,1-.922-1.095v-1.1a.936.936,0,1,1,1.845,0v1.1a1.02,1.02,0,0,1-.922,1.095m0-5.488a1.02,1.02,0,0,1-.922-1.095v-1.1a.936.936,0,1,1,1.845,0v1.1a1.02,1.02,0,0,1-.922,1.095m0-5.488a1.02,1.02,0,0,1-.922-1.095v-1.1a.936.936,0,1,1,1.845,0v1.1a1.02,1.02,0,0,1-.922,1.095m0-5.488a1.02,1.02,0,0,1-.922-1.095v-1.1a.936.936,0,1,1,1.845,0v1.1a1.02,1.02,0,0,1-.922,1.095m0-5.488a1.02,1.02,0,0,1-.922-1.095V51.2a.936.936,0,1,1,1.845,0v1.1a1.02,1.02,0,0,1-.922,1.095m0-5.488a1.02,1.02,0,0,1-.922-1.095v-1.1a.936.936,0,1,1,1.845,0v1.1A1.02,1.02,0,0,1,159.2,47.9m0-5.488a1.02,1.02,0,0,1-.922-1.095v-1.1a.936.936,0,1,1,1.845,0v1.1a1.02,1.02,0,0,1-.922,1.095m0-5.488a1.02,1.02,0,0,1-.922-1.095v-1.1a.936.936,0,1,1,1.845,0v1.1a1.02,1.02,0,0,1-.922,1.095m0-5.488a1.02,1.02,0,0,1-.922-1.095v-1.1a.936.936,0,1,1,1.845,0v1.1a1.02,1.02,0,0,1-.922,1.095" transform="translate(-130.507 -23.209)" fill="#6a2874"/>
                <path id="Trazado_1279059" data-name="Trazado 1279059" d="M159.2,500.135a1.02,1.02,0,0,1-.922-1.095v-.547a.936.936,0,1,1,1.845,0v.547a1.02,1.02,0,0,1-.922,1.095" transform="translate(-130.507 -410.135)" fill="#6a2874"/>
              </g>
            </g>
          </g>
        </g>
        <ellipse id="Elipse_13678" data-name="Elipse 13678" cx="19.243" cy="19.243" rx="19.243" ry="19.243" transform="translate(305.965 10136.186)" fill="#da9dfe"/>
        <g id="Grupo_1207826" data-name="Grupo 1207826" transform="translate(305.146 10138.641)">
          <path id="Trazado_998481" data-name="Trazado 998481" d="M0,13.854q4.835.419,9.664.868l-.27.112,1.389-2.491a.373.373,0,0,1,.426-.131.271.271,0,0,1,.2.185l0,.01,1.186,5.359L11.7,17.7l1.915-4.337,1.934-4.332,1.94-4.33L19.452.377A.822.822,0,0,1,20.394.03.578.578,0,0,1,20.9.6V.609l-.77,7.01-.812,7.007-.823,7.006-.854,7L16.044,28.4c1.235-2.953,2.506-5.9,3.765-8.845l1.893-4.42,1.917-4.414,0-.011a.7.7,0,0,1,.8-.305.505.505,0,0,1,.439.47l-.29,5.628-.314,5.627-.826-.118,2.776-5.324,0-.009a.291.291,0,0,1,.3-.125l5.25.671,5.247.689-5.291-.467-5.287-.485.3-.133-2.494,5.4a.472.472,0,0,1-.54.2.338.338,0,0,1-.286-.3v-.012l.079-5.631.1-5.631L24.836,11,23.051,15.45l-1.809,4.44c-1.209,2.959-2.407,5.921-3.64,8.874a.892.892,0,0,1-1.022.4c-.373-.087-.6-.356-.57-.635v0l.812-7.007.842-7,.854-7,.9-7,1.444.232-2.048,4.3-2.069,4.3-2.074,4.3-2.093,4.29-.005.011a.513.513,0,0,1-.588.2.382.382,0,0,1-.3-.278l-.924-5.388.624.063L9.86,14.986l0,.007a.273.273,0,0,1-.265.1q-4.8-.609-9.59-1.244" transform="translate(0 4.51) rotate(-7)" fill="#fff"/>
        </g>
      </g>
      <path id="Trazado_1271671" data-name="Trazado 1271671" d="M79.8,53.239V66.476a.9.9,0,0,1-.9.895H68.265a.9.9,0,0,0-.9.9V78.909a.9.9,0,0,1-.9.9H53.239a.9.9,0,0,1-.9-.9V68.266a.9.9,0,0,0-.895-.9H40.767a.9.9,0,0,1-.9-.895V53.239a.9.9,0,0,1,.9-.9H51.449a.9.9,0,0,0,.895-.895V40.768a.9.9,0,0,1,.9-.9H66.475a.9.9,0,0,1,.9.9V51.449a.9.9,0,0,0,.9.895H78.908a.9.9,0,0,1,.9.9" transform="translate(1263.256 4862.017)" fill="#8d1939"/>
    </g>
  </g>
</svg>
