<svg xmlns="http://www.w3.org/2000/svg" xmlns:xlink="http://www.w3.org/1999/xlink" width="85" height="85" viewBox="0 0 85 85">
  <defs>
    <clipPath id="clip-path">
      <rect id="Rectángulo_461030" data-name="Rectángulo 461030" width="70.18" height="70.197" fill="#8d1939" stroke="#8d1939" stroke-width="0.5"/>
    </clipPath>
  </defs>
  <g id="Grupo_1209868" data-name="Grupo 1209868" transform="translate(0 -0.099)">
    <path id="Sustracción_110" data-name="Sustracción 110" d="M0,0H85V85H0Z" transform="translate(0 0.099)" fill="#ffe19a"/>
    <g id="Grupo_1212051" data-name="Grupo 1212051" transform="translate(7 7.099)">
      <g id="Grupo_1212050" data-name="Grupo 1212050" clip-path="url(#clip-path)">
        <path id="Trazado_1277626" data-name="Trazado 1277626" d="M33.3,33.469v3.415l11.634,5.048c8.806-6.73,22.155-2.19,24.76,8.612,3.49,14.471-12.438,24.982-24.541,16.644a5.256,5.256,0,0,1-4.286,3c-1.127.048-7.326-1.607-8.567-2.1a4.327,4.327,0,0,1-2.786-3.4l-.091-12.716-2.6-1.813-2.667,1.813c-.394,3.995.406,8.646-.035,12.559a4.45,4.45,0,0,1-2.664,3.526A54.213,54.213,0,0,1,12.914,70.2a5.142,5.142,0,0,1-4.8-4.39c-.518-4.615,1.263-12.22,3.593-16.259,1.815-3.147,6.7-8.527,10.643-6.088a5.335,5.335,0,0,1,1.773,2.282v3.949l1.925-1.218c.286-2.25-.4-5.517,0-7.635a.806.806,0,0,1,1.471-.415c.706,1.012-.086,6.5.271,8.053l1.667,1.214V46.169c0-1.216,1.744-3.014,2.93-3.26,3.48-.721,5.882,2.4,8.166,4.434a7.66,7.66,0,0,1,.936-1.736c.277-.389,1.993-2.324,1.842-2.53L31.645,37.9c-.349-.361-.394-4.705-.263-5.385a1.316,1.316,0,0,1,1.182-.953c4.041-.661,10.7,1.986,10.767-4.708H37.887c-.688,0-.354-1.708.213-1.708H43.33V21.622c0-1.073,2.371-.6,2.987-.853l-3.362-3.9C43.668,6.211,33.077-1.735,23.221,3.221c-9.416,4.735-9.78,17.9-1.057,23.559l-.007,10.809c-.1.328-.391.469-.663.617-5.029,2.736-12.077,4.549-16.78,7.553a6.548,6.548,0,0,0-3.006,4.892V69.328H0v-19.1c0-3.666,3.433-5.812,6.259-7.189,4.447-2.166,9.127-3.922,13.6-6.033l.594-.473.038-8.886A15.255,15.255,0,0,1,19.75,3.379C28.288-3.609,41.506.806,44.12,11.44c.365,1.484.229,3.78.534,4.8.225.753,3.249,3.433,3.894,4.429a1.432,1.432,0,0,1,.337.943c-.265,1.717-3.3.515-3.755,1.169-.414,2.579.56,5.307-.905,7.632-.874,1.387-3.189,3.054-4.844,3.054Zm19.593,7.106A14.15,14.15,0,0,0,40.559,53.216C39.5,66.688,56.277,73.8,65.107,63.464c8.2-9.6.331-24.18-12.216-22.889M22.412,53.106c-1.07.419-3.705,2.934-4.607,2.992a.819.819,0,0,1-.641-.2.851.851,0,0,1-.312-.756c.084-.895,4.671-3.257,5.454-4.172,1.533-9.865-5.118-6.673-8.605-1.348-2.562,3.912-3.892,10.265-3.9,14.9,0,1.895.97,3.867,3.1,3.914a64.875,64.875,0,0,0,7.8-1.989c.551-.26,1.7-1.335,1.7-1.924Zm8.751,0V64.312a3.684,3.684,0,0,0,1.555,2.074A60.875,60.875,0,0,0,40.5,68.423a3.49,3.49,0,0,0,3.221-2.444c-.854-1.188-1.937-2.144-2.7-3.417a16.1,16.1,0,0,1-1.406-13.195c-3.3-5.237-9.723-7.906-8.415,1.457.188.616,4.28,2.795,5.09,3.66s.289,1.825-.7,1.573c-.527-.135-4.272-3.165-4.43-2.951" transform="translate(0 0)" fill="#8d1939" stroke="#8d1939" stroke-width="0.5"/>
        <path id="Trazado_1277627" data-name="Trazado 1277627" d="M209.508,214.969a6.956,6.956,0,0,1,4.888,1.4c5.232-3.836,12.992.677,10.964,7.193-1.025,3.294-5.051,7.14-7.581,9.495a29.173,29.173,0,0,1-3.24,2.725c-.407.019-.647-.268-.932-.486-2.593-1.986-8.055-7.565-9.389-10.46-2.073-4.5.284-9.386,5.292-9.868m14.348,7.624a5.147,5.147,0,0,0-7.257-5.443c-.768.325-1.293,1.023-2.06,1.344-.861-.2-1.223-.9-2.062-1.277-3.762-1.67-8.187,1.215-7.19,5.376h4.162c.665-.655,1.479-3.658,2.736-2.793.487.335,1.429,4.374,1.833,5.268.113.251-.1.386.444.3.766-1.65,1.293-4.575,2.19-6.03,1.315-2.132,3.011,2.525,3.9,3.256ZM223,224.3h-3.308c-.439,0-1.409-2.318-2.029-2.458-.495.384-2.043,5.7-2.608,6.786-.313.6-.787.808-1.356.384-.823-.613-1.427-4.75-2.114-5.783-.425-.638-.784,1.071-1.071,1.071h-4.589c.375,1.568,7.889,9.186,8.645,9.186,1.749-1.572,3.715-3.164,5.339-4.914.355-.383,3.4-4.007,3.092-4.272" transform="translate(-160.035 -169.06)" fill="#8d1939" stroke="#8d1939" stroke-width="0.5"/>
      </g>
    </g>
  </g>
</svg>
