<svg xmlns="http://www.w3.org/2000/svg" xmlns:xlink="http://www.w3.org/1999/xlink" width="85" height="85" viewBox="0 0 85 85">
  <defs>
    <clipPath id="clip-path">
      <rect id="Rectángulo_460667" data-name="Rectángulo 460667" width="67.596" height="67.638" fill="#8d1939"/>
    </clipPath>
  </defs>
  <g id="Grupo_1208370" data-name="Grupo 1208370" transform="translate(-706.342 -410.531)">
    <path id="Sustracción_110" data-name="Sustracción 110" d="M15975.961,19829.512h85v85h-85Z" transform="translate(-15269.619 -19418.98)" fill="#ffe19a"/>
    <g id="Grupo_1211194" data-name="Grupo 1211194" transform="translate(715.246 426.031)">
      <g id="Grupo_1211193" data-name="Grupo 1211193" transform="translate(0.096 -6.5)" clip-path="url(#clip-path)">
        <path id="Trazado_1273573" data-name="Trazado 1273573" d="M14.149.007a6.185,6.185,0,0,0-3.932,1.36,86.152,86.152,0,0,0-8.9,8.9A5.666,5.666,0,0,0,.64,16.532L11.209,32.35,44.991,66.136a6.324,6.324,0,0,0,8.405-.2C56.944,61.565,63.012,57.417,66.251,53a6.392,6.392,0,0,0,.6-6.927L32.1,11.055C27.116,8.045,22.373,4.123,17.371,1.2A7.847,7.847,0,0,0,14.149.007m0,2.2a4.527,4.527,0,0,1,1.618.6c4.637,3.546,10.483,6.394,15,9.991a17.591,17.591,0,0,1,1.919,1.892c-1.64,2.752-2.131.749-3.718-.493L14,4.362c-.5-.034-.738.23-1.09.495a80.123,80.123,0,0,0-8,8c-.416.526-.844.915-.442,1.646,3.544,4.808,6.5,10.376,10.076,15.116.461.611,1.074,1.066,1.55,1.661l-1.312,1.457c-.305.053-1.767-1.58-2.037-1.919-3.6-4.515-6.445-10.359-9.991-15a3.314,3.314,0,0,1,.163-3.959,89.438,89.438,0,0,1,8.689-8.7A3.7,3.7,0,0,1,14.153,2.2m.009,4.784,13.608,9,1.93,1.865L26.2,21.349l-1.027-.981L20.4,24.952c-.331.455.908,1.087.908,1.3l-3.495,3.495-1.865-1.93L6.911,14.053,13.6,7.146ZM34.4,16.358c.385.553,1.747,1.254,1.406,1.991l-6,6.013c-.48.5-2-1.252-1.817-1.61ZM49.783,32.627a6.386,6.386,0,0,1-.989,1.114L36.1,21.053l1.5-1.307,12.3,12.09c.488.738.043.581-.121.791M38.172,44.211A21.9,21.9,0,0,1,35.5,47.052c-.154.079-.246.133-.4,0L22.721,34.619l3.311-3.456,1.172.981L32.1,27.25l-.981-1.172,3.311-3.311L47.09,35.253,43.839,38.6l-.346.046-.9-.9L37.7,42.642l1,1.2c-.037.146-.41.234-.528.372M25.178,23.566l3.711,3.711-1.512,1.657-3.856-3.711Zm-2.2,4.4c.333.383,1.687,1.3,1.439,1.783l-6.409,6.206-1.7-1.506ZM51.793,33.75l1.7,1.7L47.2,41.755c-.48.5-2-1.252-1.817-1.61Zm-30.785,2.4L33.7,48.84l-1.5,1.306L19.8,37.94c-.331-.719.833-1.272,1.206-1.791m34.156,1.01,9.323,9.281c1.537,2.161,1.08,3.983-.5,5.9A120.166,120.166,0,0,1,52.295,64.035c-1.836,1.514-3.973,1.953-6,.4-3.031-2.314-5.856-6.421-8.9-8.895l-.278-.478c.355-.32,1.11-1.482,1.583-1.239l8.814,8.791c.931.669,1.781,1.046,2.79.225L62.8,50.347c.9-1.11.353-2.047-.406-3.009l-8.61-8.6c-.265-.373,1.157-1.623,1.384-1.583m-3.171,2.988,8.881,9.065L49.021,60.919,40.1,52.038,43.6,48.543c.21,0,.843,1.239,1.3.908l4.585-4.782L48.5,43.642Zm-9.423.81,3.711,3.711-1.512,1.657-3.856-3.711Zm-2.2,4.4c.334.383,1.687,1.3,1.439,1.783l-6.409,6.4-1.7-1.7Z" transform="translate(0 0)" fill="#8d1939"/>
        <path id="Trazado_1273574" data-name="Trazado 1273574" d="M260.693,56.884l-3.043,3.05,4.669,6.912L264,65.566l-3.551-5.247c-.156-.633,1.249-1.411,1.556-1.978Z" transform="translate(-247.909 -45.513)" fill="#8d1939"/>
        <path id="Trazado_1273575" data-name="Trazado 1273575" d="M249.74,109.068l-1.524-2.179-1.66,1.1,1.306,2.064Z" transform="translate(-231.432 -85.521)" fill="#8d1939"/>
      </g>
    </g>
  </g>
</svg>
