<svg xmlns="http://www.w3.org/2000/svg" xmlns:xlink="http://www.w3.org/1999/xlink" width="128" height="128" viewBox="0 0 128 128">
  <defs>
    <clipPath id="clip-path">
      <rect id="Rectángulo_455595" data-name="Rectángulo 455595" width="128" height="128" fill="none"/>
    </clipPath>
    <clipPath id="clip-path-2">
      <rect id="Rectángulo_460708" data-name="Rectángulo 460708" width="62" height="61.974" fill="#8d1939"/>
    </clipPath>
  </defs>
  <g id="Grupo_1212899" data-name="Grupo 1212899" transform="translate(-6229 9942)">
    <g id="Grupo_1210174" data-name="Grupo 1210174" transform="translate(6229 -9942)">
      <g id="Grupo_1179172" data-name="Grupo 1179172" clip-path="url(#clip-path)">
        <path id="Trazado_998483" data-name="Trazado 998483" d="M118.651,65.514A53.137,53.137,0,1,1,65.514,12.377a53.138,53.138,0,0,1,53.137,53.137" transform="translate(-1.514 -1.514)" fill="#ff9ebf"/>
        <path id="Trazado_998485" data-name="Trazado 998485" d="M126.489,64.245A62.245,62.245,0,1,1,64.245,2,62.244,62.244,0,0,1,126.489,64.245Z" transform="translate(-0.245 -0.245)" fill="none" stroke="#8d1939" stroke-miterlimit="10" stroke-width="4"/>
      </g>
    </g>
    <g id="Grupo_1210177" data-name="Grupo 1210177" transform="translate(6259 -9912)">
      <g id="Grupo_1099618" data-name="Grupo 1099618" transform="translate(0 0)">
        <rect id="Rectángulo_401104" data-name="Rectángulo 401104" width="68" height="68" transform="translate(0)" fill="none"/>
      </g>
      <g id="Grupo_1211245" data-name="Grupo 1211245" transform="translate(3 3.013)">
        <g id="Grupo_1211244" data-name="Grupo 1211244" clip-path="url(#clip-path-2)">
          <path id="Trazado_1273727" data-name="Trazado 1273727" d="M170.721,93.276c.105.1.8-.049,1.055.32,1.464,3.826,1.258,9.1,5.445,11.176,3.58,1.77,9.97-.355,12.453,1.553a3.289,3.289,0,0,1-.1,5.23c-2.854,2.375-9.107,4.666-12.783,5.124-2.118.264-8.125.542-9.94-.123-5.476-2-1.322-8.664-4.22-12.268-.622-.773-2.908-2.582-3.191-3.192a.915.915,0,0,1,1.249-1.247,46.655,46.655,0,0,1,3.538,3.553,6.24,6.24,0,0,1,1.325,3.285c.251,2.668-1.161,7.593,2.475,8.34,3.108.639,9.5-.143,12.6-1.075.8-.241,5.575-2.15,5.829-2.591.214-.373-.247-.777-.621-.816-.956-.1-2.739,1.386-3.447.406-1.019-1.41,2.722-2.319,3.647-2.237,1.092.1,2.088,1.436,2.3,1.438.771.008,1.28-2.3-.215-2.632-4.476-.335-9.395.961-13.172-2.075-3.355-2.7-3.376-6.547-4.63-10.352l-5.381-.381a1.047,1.047,0,0,1-.821-.97.829.829,0,0,1,.271-.635c.718-.885,4.1-2.482,4.455-3.177a3.715,3.715,0,0,0-.187-1.242,78.755,78.755,0,0,0-3.543-11.7c-2.354-3.235-5.463-5.8-8.243-8.635-.529-1.03.27-1.914,1.335-1.3,3.656,4.069,7.981,6.629,9.741,12.066a116.325,116.325,0,0,1,2.894,11.575c-.769.2-.295,2.417-.124,2.587" transform="translate(-128.924 -54.995)" fill="#8d1939"/>
          <path id="Trazado_1273728" data-name="Trazado 1273728" d="M1.884,10.555c3.5,3.163,6.662,7.114,10.19,10.2a16.616,16.616,0,0,0,8.537,4.051c1.419.142,3.7-.4,4.68.816.945,1.174.408,4.6.531,6.206A22.943,22.943,0,0,0,29.5,41.981a.927.927,0,0,1-1.563.979,22.11,22.11,0,0,1-1.917-3.53A28.2,28.2,0,0,1,23.87,26.777a18.175,18.175,0,0,1-12.5-4.25C7.478,19.172,3.942,14.749.148,11.228.334,7.97-.228,4.172.111.978A1.474,1.474,0,0,1,.331.226L1.256,0,17.141.085,26.36,9.127c.7,1.189-.8,1.969-1.642.974L16.6,1.779H1.884Z" transform="translate(0 0.001)" fill="#8d1939"/>
          <path id="Trazado_1273729" data-name="Trazado 1273729" d="M262.739,218.866c1.425-.444,2.294,1.138,2.986,1.213.844.091,1.487-1.566,3.5-1.2.772.139,1.17.7,1.775,1.061.255.152.645.1.935.305a.9.9,0,0,1-.1,1.518c-1.333.65-2.541-1.171-3.251-1.113-.569.046-1.257.951-1.886,1.118-1.661.442-2.077-.307-3.247-1.019-.292-.178-.665-.071-1.026-.4a.936.936,0,0,1,.312-1.482" transform="translate(-215.699 -179.997)" fill="#8d1939"/>
          <path id="Trazado_1273730" data-name="Trazado 1273730" d="M274.872,185.313a1.015,1.015,0,0,1-.32,1.455c-1.2.7-2.225-.284-3.053-.05-.853.241-1.087,2.728-3.568,2.443-.382-.044-.742-.314-1.1-.341-.6-.044-1.937.489-1.746-.909.227-1.658,2.946-.34,3.809-.777.476-.241.623-1.878,2.075-2.178a5.743,5.743,0,0,1,2.327.219c.442.05,1.158-.275,1.578.138" transform="translate(-218.069 -152.108)" fill="#8d1939"/>
          <path id="Trazado_1273731" data-name="Trazado 1273731" d="M260.973,152.486c-.662.809-2.207.575-2.709.923-.734.508-.01,2.455-1.755,3.387a6.108,6.108,0,0,1-1.875.429c-.434.113-1.161.988-1.749.174-.606-.839.469-1.725,1.221-1.943.546-.158,1.42.025,1.793-.512s.06-1.766.935-2.7c.723-.771,1.489-.665,2.39-.889.479-.119.644-.529,1.349-.415.741.119.811,1.045.4,1.547" transform="translate(-207.902 -124.162)" fill="#8d1939"/>
          <path id="Trazado_1273732" data-name="Trazado 1273732" d="M173.514,127.225c.708.732.061,1.848-1.322,1.412-1.829-.576-3.471-3.051-3.6-4.918-.108-1.608,1.3-1.967,1.77-.7.551,1.473.149,2.369,1.788,3.531.353.25,1.179.488,1.36.676" transform="translate(-138.699 -100.579)" fill="#8d1939"/>
          <path id="Trazado_1273733" data-name="Trazado 1273733" d="M215.072,289.17a.909.909,0,0,1,.908.444c.267.769-1.4,2.917.649,2.9.526,0,2.569-1.485,2.216.6-.3,1.755-4.642,1.694-5.1-1.1-.146-.895.3-2.7,1.327-2.854" transform="translate(-175.827 -237.895)" fill="#8d1939"/>
        </g>
      </g>
    </g>
  </g>
</svg>
