<svg xmlns="http://www.w3.org/2000/svg" xmlns:xlink="http://www.w3.org/1999/xlink" width="500.24" height="264.436" viewBox="0 0 500.24 264.436">
  <defs>
    <clipPath id="clip-path">
      <rect id="Rectángulo_460699" data-name="Rectángulo 460699" width="374.289" height="216.695" fill="none"/>
    </clipPath>
    <clipPath id="clip-path-3">
      <path id="Trazado_1273589" data-name="Trazado 1273589" d="M452.077,274.1c8.257-4,20.921-3.874,24.059-2.775,0,0-4.927-12.659-17.575-16.487a45.02,45.02,0,0,1-4.666-.341c-2.656-.431-7.782-2.789-11.222-5.945-4.134,4.566,9.46,13.712,9.4,25.549" transform="translate(-441.89 -248.546)" fill="none"/>
    </clipPath>
    <linearGradient id="linear-gradient" x1="-11.088" y1="1.428" x2="-11.063" y2="1.428" gradientUnits="objectBoundingBox">
      <stop offset="0" stop-color="#ffb7a7"/>
      <stop offset="0.593" stop-color="#ff9f9a"/>
      <stop offset="1" stop-color="#ff9595"/>
    </linearGradient>
    <clipPath id="clip-path-5">
      <path id="Trazado_1273592" data-name="Trazado 1273592" d="M329.936,237.037c-.708,1.1,1.325.71,3.548,2.53a12.992,12.992,0,0,1,2.509,2.569c2.6,8.071,2.786,25.311,13.9,32.645,6.525,4.307,63.787,5.353,63.053-8.165-.6-10.976-16.836-9.523-31.146-8.068-9.212.936-17.626,1.873-20.55-.509-8.533-6.948-10.39-10.975-15.4-18.281-2.687-5.224-5.482-5.55-7.525-5.659-.235-.012-.468-.018-.7-.018-4.075,0-7.023,1.915-7.7,2.958" transform="translate(-329.793 -234.079)" fill="none"/>
    </clipPath>
    <linearGradient id="linear-gradient-2" x1="-2.446" y1="0.876" x2="-2.439" y2="0.876" gradientUnits="objectBoundingBox">
      <stop offset="0" stop-color="#ffb7a7"/>
      <stop offset="1" stop-color="#ff9595"/>
    </linearGradient>
    <clipPath id="clip-path-7">
      <path id="Trazado_1273603" data-name="Trazado 1273603" d="M477.872,235.308a11.007,11.007,0,0,0-.964,3.361,60.065,60.065,0,0,1-6.742,1.626c-2.366.525-5.29.469-6.454,1.469-1.987,2.312-.478,16.412,5.716,20.717,1.494,1.039,9.156,2.3,9.156,2.3.1,2.219.545,5.448,4.433,6.695,3.007.965,6.064-.312,6.367-3.41.155-2.067-1.822-3.52-4.151-4.146-.161-3.075,4.193-5.687,7.095-5.85,5.966-9.305,12.576-8.815,12.576-8.815s0-6.857-4.783-10.067c-1.543-1.307-6.946-1.773-7.975-1.78a11.179,11.179,0,0,0-2.142.474,7.071,7.071,0,0,1-3.223.391,25.521,25.521,0,0,1-6.583-3.261,2.459,2.459,0,0,0-1.189-.36,1.237,1.237,0,0,0-1.135.661" transform="translate(-462.89 -234.647)" fill="none"/>
    </clipPath>
    <linearGradient id="linear-gradient-3" x1="-7.115" y1="1.546" x2="-7.1" y2="1.546" xlink:href="#linear-gradient-2"/>
    <clipPath id="clip-path-9">
      <path id="Trazado_1273630" data-name="Trazado 1273630" d="M158.76,157.984c1.612,8.325,5,13.876,7.9,20.242,5.423,11.895,11.99,15.74,14.35,21.438,2.1,5.062,1.247,11.723,3.709,10.938,2.017-.644-.049-5.73.726-6.122.369-.187.823.635,1.29,2.367.451,1.674.627,3.349,2.015,3.184,1.37-.163,1.129-1.878.887-3.51-.236-1.592-.591-2.834-.081-2.938.558-.113.638.882,1.02,2.407.332,1.326.6,2.98,1.56,2.98,2.325,0,2.347-6.169-.645-12.733-2.9-6.366-8.2-15.177-12.576-23.888a72.292,72.292,0,0,1-6.167-17.482Z" transform="translate(-158.76 -154.868)" fill="none"/>
    </clipPath>
    <linearGradient id="linear-gradient-4" x1="-2.961" y1="1.986" x2="-2.942" y2="1.986" xlink:href="#linear-gradient-2"/>
    <clipPath id="clip-path-11">
      <path id="Trazado_1273643" data-name="Trazado 1273643" d="M152.678,34.834s-2.317,7.268-4.946,5.139c0,0,.432-4.283-1.48-5-3.272-1.4-5.4,1.535-5.578,4.549a6.584,6.584,0,0,0,4.862,6.99c.037,12.46,7.25,19.469,12.324,21.175,3.351,1.128,16.758-3.7,22.776-26.724,0,0,2.846-11.326-9.423-15.195,0,0-5.771,8.729-18.536,9.07" transform="translate(-140.661 -25.764)" fill="none"/>
    </clipPath>
    <linearGradient id="linear-gradient-5" x1="-1.843" y1="4.049" x2="-1.83" y2="4.049" xlink:href="#linear-gradient-2"/>
    <clipPath id="clip-path-13">
      <path id="Trazado_1273654" data-name="Trazado 1273654" d="M115.5,158.487c3.817,9.222,9.311,15.66,16.949,23.707,8.966,9.448,20.671,17.44,27.1,21.916,4.5,3.137,5.379,8.389,7.8,7.483,1.984-.742-2.109-5.16-1.354-5.591.36-.205,1.159.93,1.994,2.264.916,1.465,1.55,3.34,2.872,2.878,1.291-.451,1.169-2.475.652-4.075-.5-1.53-1.372-2.646-.867-2.774.552-.141,1.006,1.058,1.462,2.563.394,1.308.747,2.946,1.7,2.9,2.323-.116,1.777-7.388-3.985-11.6a214.347,214.347,0,0,1-27.028-24.6c-4.921-5.609-12.176-18.178-12.176-18.178Z" transform="translate(-115.501 -155.374)" fill="none"/>
    </clipPath>
    <linearGradient id="linear-gradient-6" x1="-0.828" y1="1.539" x2="-0.82" y2="1.539" xlink:href="#linear-gradient-2"/>
    <clipPath id="clip-path-15">
      <rect id="Rectángulo_460695" data-name="Rectángulo 460695" width="9.744" height="4.207" fill="none"/>
    </clipPath>
  </defs>
  <g id="Grupo_1211226" data-name="Grupo 1211226" transform="translate(-914 -4075.564)">
    <g id="Grupo_1209444" data-name="Grupo 1209444" transform="translate(0 2719.475)">
      <g id="Grupo_1208498" data-name="Grupo 1208498" transform="translate(914.711 1356.09)">
        <g id="Grupo_1206741" data-name="Grupo 1206741" transform="translate(0 0)">
          <g id="Grupo_1204235" data-name="Grupo 1204235">
            <rect id="Rectángulo_402012" data-name="Rectángulo 402012" width="499.529" height="264.436" fill="#fbf1ff"/>
          </g>
        </g>
      </g>
      <g id="Grupo_1211225" data-name="Grupo 1211225" transform="translate(935.711 1299.279)">
        <path id="Trazado_1273686" data-name="Trazado 1273686" d="M-21.711,321.246l500-261.333V321.246Z" transform="translate(0 0)" fill="#e9c3ff"/>
        <g id="Grupo_1211224" data-name="Grupo 1211224" transform="translate(36 87.218)" clip-path="url(#clip-path)">
          <g id="Grupo_1211196" data-name="Grupo 1211196">
            <g id="Grupo_1211195" data-name="Grupo 1211195" clip-path="url(#clip-path)">
              <path id="Trazado_1273576" data-name="Trazado 1273576" d="M277.566,214.78H250.481V203.6a5.6,5.6,0,0,1,5.562-5.632H272a5.6,5.6,0,0,1,5.562,5.632Zm-21.927-5.222h16.769V203.6a.407.407,0,0,0-.4-.409H256.043a.408.408,0,0,0-.4.409Z" transform="translate(-83.6 -64.429)" fill="#363344"/>
              <path id="Trazado_1273577" data-name="Trazado 1273577" d="M278.515,266.515h-49.66a9.41,9.41,0,0,1-9.351-9.468V222.439a9.41,9.41,0,0,1,9.351-9.468h49.66a9.411,9.411,0,0,1,9.352,9.468v34.608a9.411,9.411,0,0,1-9.352,9.468" transform="translate(-73.26 -69.313)" fill="#f6405f"/>
              <rect id="Rectángulo_460668" data-name="Rectángulo 460668" width="5.115" height="27.132" transform="translate(177.802 156.878) rotate(-0.278)" fill="#ffebe2"/>
              <path id="Trazado_1279507" data-name="Trazado 1279507" d="M0,0,29.314-.166l-.03,5.4L-.03,5.4Z" transform="matrix(0.84, -0.543, 0.543, 0.84, 166.707, 176.179)" fill="#ffebe2"/>
              <path id="Trazado_1279508" data-name="Trazado 1279508" d="M0,0,5.4-.03,5.238,29.306l-5.4.03Z" transform="matrix(0.535, -0.845, 0.845, 0.535, 166.643, 164.806)" fill="#ffebe2"/>
              <path id="Trazado_1273578" data-name="Trazado 1273578" d="M278.826,212.979a8.646,8.646,0,0,1,5.845,8.21v32a8.6,8.6,0,0,1-8.544,8.649H231.242a8.6,8.6,0,0,1-8.543-8.649v-32a8.645,8.645,0,0,1,5.844-8.21,9.416,9.416,0,0,0-9.04,9.463V257.05a9.411,9.411,0,0,0,9.351,9.468h49.66a9.411,9.411,0,0,0,9.351-9.468V222.442a9.416,9.416,0,0,0-9.04-9.463" transform="translate(-73.26 -69.315)" fill="#be3048"/>
              <path id="Trazado_1273579" data-name="Trazado 1273579" d="M500.359,237.818s2.979-5.934,12.2-2.014c10.749,4.571,16.132,25.19,4.04,32.373,0,0,3.225,2.939.161,5.388-6.891,2.2-16.016,2.34-25.474,1.469s-12.953-5.873-12.093-11.1,21.167-26.119,21.167-26.119" transform="translate(-159.892 -76.308)" fill="#926466"/>
              <path id="Trazado_1273580" data-name="Trazado 1273580" d="M491.286,275.558c3.109.286,6.181.463,9.15.494-2.3-1.83-6.194-7.132-3.185-15.4a10.688,10.688,0,0,0,1.935,7.836s-2.089-8.128,3.063-14.148c4.192-4.9,10.481-3.591,10.481-3.591a26.227,26.227,0,0,0-2.1-8.978c-2.241-4.681-6.5-8.183-10.274-3.425,0,0-20.306,20.9-21.166,26.119s2.633,10.226,12.092,11.1" transform="translate(-159.892 -76.832)" fill="#80545a"/>
              <path id="Trazado_1273581" data-name="Trazado 1273581" d="M79.589,279.41c-3.965-.071-6.935,4.161-9.79,2.935-3.72-1.6-8.823-22.514-4.954-23.656,2.908-.859,6.365,11.272,9.053,12.864a9.017,9.017,0,0,0,5.015,1.127Z" transform="translate(-21.181 -84.178)" fill="#363344"/>
              <path id="Trazado_1273582" data-name="Trazado 1273582" d="M245.615,280.4s9.158-40.384-3.99-40.215c-12.013,1.054-47.407,4.291-82.046,9.234-35.188,5.021-52.924,9.141-74.228,12.292v14.806s25.5,5.55,75.487-.327c14.238-1.674,42.339-.061,53.092,1.375,16.018,3.5,22.394,2.538,31.684,2.834" transform="translate(-28.486 -78.168)" fill="#a5adbc"/>
              <path id="Trazado_1273583" data-name="Trazado 1273583" d="M241.624,240.181c-2.791.245-6.844.608-11.855,1.082-.146,7.065-4.257,17.72-18.312,19.144-21.5,2.177-38.052-6.747-48.156-4.789s-17.628,11.1-41.276,12.842c-20.753,1.528-31.24-5.492-33.5-7.234q-1.578.244-3.179.481v14.806s25.5,5.55,75.488-.327c14.237-1.674,42.339-.061,53.092,1.375,11.964,3.033,23.143,3.033,31.684,2.834,0,0,9.159-40.384-3.989-40.215" transform="translate(-28.486 -78.168)" fill="#8e92a5"/>
              <path id="Trazado_1273584" data-name="Trazado 1273584" d="M310.757,240.239s-4.73,11.481-.645,34.987H305.6s-4.73-20.242.537-34.553Z" transform="translate(-101.344 -78.187)" fill="#626376"/>
              <path id="Trazado_1273585" data-name="Trazado 1273585" d="M310.307,240l-.718,3.725h-3.712l.751-3.468-1.015.071-.975,4.648h5.854l.918-5.055Z" transform="translate(-101.675 -78.083)" fill="#c2cad7"/>
              <rect id="Rectángulo_460671" data-name="Rectángulo 460671" width="5.858" height="2.231" transform="translate(201.996 171.083)" fill="#a5adbc"/>
              <path id="Trazado_1279509" data-name="Trazado 1279509" d="M0,0,5.859,0l0,2.231L0,2.231Z" transform="translate(201.88 183.078) rotate(-3.56)" fill="#a5adbc"/>
              <path id="Trazado_1273586" data-name="Trazado 1273586" d="M321.636,279.441c33.967,0,69.654-.87,69.654-.87,12.595-.476,18.133-6.979,18.347-13.876-.042-5.628-.658-12.46-8.707-20.9a32.5,32.5,0,0,0-29.848-9.2c-9.983,2.022-31.6,1.524-51.709,3.567,0,0-7.049,17.993,2.263,41.271" transform="translate(-105.739 -76.144)" fill="#8a9ecb"/>
              <path id="Trazado_1273587" data-name="Trazado 1273587" d="M381.83,258.9a18.277,18.277,0,0,1-11.287-13.713c-2.9-.326-4.419,8.849-6.449,9.142-15.8,2.285-37.7,4.138-41.6.327-3.133-3.062-2.477-12.4-2.206-14.59-.306.03-.612.06-.917.092,0,0-7.049,17.993,2.263,41.271,24.363,0,49.61-.448,61.94-.7Z" transform="translate(-105.739 -78.131)" fill="#6b80af"/>
              <path id="Trazado_1273588" data-name="Trazado 1273588" d="M294.2,258.564a67.76,67.76,0,0,0,.071,10.937s-5.579-1.33-5.1-5.947a5.583,5.583,0,0,1,5.031-4.99" transform="translate(-96.5 -84.151)" fill="#727788"/>
            </g>
          </g>
          <g id="Grupo_1211198" data-name="Grupo 1211198" transform="translate(294.407 167.655)">
            <g id="Grupo_1211197" data-name="Grupo 1211197" clip-path="url(#clip-path-3)">
              <path id="Trazado_1279510" data-name="Trazado 1279510" d="M0,0,27.073-.014l-.02,38.591L-.02,38.591Z" transform="matrix(0.041, -0.999, 0.999, 0.041, -4.375, 25.507)" fill="url(#linear-gradient)"/>
            </g>
          </g>
          <g id="Grupo_1211200" data-name="Grupo 1211200">
            <g id="Grupo_1211199" data-name="Grupo 1211199" clip-path="url(#clip-path)">
              <path id="Trazado_1273590" data-name="Trazado 1273590" d="M330.181,239.753a11.406,11.406,0,0,1,3.655,5.659c.859,3.482,3.224,30.472,13.328,34.172l35.9.436-45.791-39.614Z" transform="translate(-110.2 -78.029)" fill="#6b80af"/>
              <path id="Trazado_1273591" data-name="Trazado 1273591" d="M455.942,276.971c8.257-4,20.921-3.875,24.058-2.775,0,0-4.926-12.66-17.574-16.488-1.65-.092-3.119-.1-4.582-.328,0,0,.142,4.979-4.373,10.447,1.72,3.591,2.019,7.338,2.47,9.143" transform="translate(-151.349 -83.766)" fill="#d27a84"/>
            </g>
          </g>
          <g id="Grupo_1211202" data-name="Grupo 1211202" transform="translate(219.722 157.897)">
            <g id="Grupo_1211201" data-name="Grupo 1211201" clip-path="url(#clip-path-5)">
              <path id="Trazado_1279511" data-name="Trazado 1279511" d="M0,0,89.38-.542,88.8,94.076l-89.38.542Z" transform="translate(-22.867 27.541) rotate(-50.653)" fill="url(#linear-gradient-2)"/>
            </g>
          </g>
          <g id="Grupo_1211204" data-name="Grupo 1211204">
            <g id="Grupo_1211203" data-name="Grupo 1211203" clip-path="url(#clip-path)">
              <path id="Trazado_1273593" data-name="Trazado 1273593" d="M333.484,240.994a13,13,0,0,1,2.51,2.569c.19.591.367,1.232.536,1.914.839-.563,1.377-1.493.535-3.014-1.854-3.346-7.014-3.129-7.128-4-.709,1.1,1.324.71,3.547,2.53" transform="translate(-110.071 -77.609)" fill="#d27a84"/>
              <path id="Trazado_1273594" data-name="Trazado 1273594" d="M393.733,268.737c-3.093.266-6.2.606-9.153.9a44.393,44.393,0,0,0-.247,15.017s-23.217,3.591-26.119-2.612c-2.285-4.884,3.163-10.8,11.615-12.271a7.288,7.288,0,0,1-1.325-.473l-7.549-2.275-12,9.879a21.744,21.744,0,0,0,7.332,8.6c3.6,2.378,22.679,3.762,38.916,2.248Z" transform="translate(-116.466 -86.903)" fill="#d27a84"/>
              <path id="Trazado_1273595" data-name="Trazado 1273595" d="M338.57,244.407s3.225-6.856,10.212-4.067c0,0,2.844,2.605,7.521,10.247,2.769,4.523,7.364,7.42,9.429,8.928a1.734,1.734,0,0,1,.786,1.326s-10.33.615-13.561,7.215c-2.948,6.024,1.31,9.193,1.31,9.193a2.879,2.879,0,0,1-2.532-.353c-2.231-1.3-5.448-4.766-7.77-10.43-3.841-9.369-3.8-16.987-5.395-22.057" transform="translate(-113 -78.003)" fill="#f9e5e8"/>
              <path id="Trazado_1273596" data-name="Trazado 1273596" d="M411.68,268.441s-1.773,6.53.806,20.406c0,0,28.79,2.67,29.309-8.623s-6.736-14.884-30.116-11.783" transform="translate(-137.202 -87.019)" fill="#8a9ecb"/>
              <path id="Trazado_1273597" data-name="Trazado 1273597" d="M421.971,283.438a29.822,29.822,0,0,0,6.987-1.037c6.239-.995,11.831-3.265,12.057-8.184a15.316,15.316,0,0,0-.719-5.945q-.008-.266-.019-.536l-9.223-18.817c-7.471,14.236,4.246,27.99,4.246,27.99a51.906,51.906,0,0,1-23.648,2.394l-2.907,4.414c8.147-.154,13.226-.279,13.226-.279" transform="translate(-136.421 -81.012)" fill="#6b80af"/>
              <path id="Trazado_1273598" data-name="Trazado 1273598" d="M411.874,267.987l-4.676.5s-1.612,11.821,1.935,21.811h4.676a56.223,56.223,0,0,1-1.935-22.31" transform="translate(-135.783 -87.218)" fill="#f9e5e8"/>
              <path id="Trazado_1273599" data-name="Trazado 1273599" d="M441.522,246.736c1.587-3.729,13.168-5.916,14.458-3.527.533.988-2.087,3.252,1.4,14.45,3.01,9.671,7.417,11.15,6.449,13.539-1.221,3.017-10.426,5.576-13.114,4.551-1.773-.676-7.437-4.209-9.587-13.767-1.97-8.758-.645-12.8.4-15.247" transform="translate(-146.89 -78.829)" fill="#f9e5e8"/>
              <path id="Trazado_1273600" data-name="Trazado 1273600" d="M365.875,263.206c-.52-.368-1.119-.791-1.762-1.273-8.938.561-14.146,6.59-16.583,10.43.927-4.314,3.688-11.5,11.857-14.688A20.9,20.9,0,0,1,358,255.931a24.758,24.758,0,0,0-14.117,2.62A15.569,15.569,0,0,1,357,254.373q-.451-.73-.879-1.394a16.808,16.808,0,0,0-14.493,6.131q.187.983.408,2.013a24.168,24.168,0,0,1,15.242-3.939c-8.093,3.985-10.494,11.844-11.2,15.965.4.8.824,1.539,1.253,2.225,1.273-2.66,6.636-12.171,18.271-12.171l.283,0" transform="translate(-114.019 -82.319)" fill="#e7c9ce"/>
              <path id="Trazado_1273601" data-name="Trazado 1273601" d="M339.336,247.931c.113.5.218,1.016.319,1.552,4.283-4.9,10.321-3.761,13.288-2.78-.446-.623-.86-1.176-1.236-1.663-3.355-.766-8.427-.992-12.371,2.892" transform="translate(-113.256 -79.602)" fill="#e7c9ce"/>
              <path id="Trazado_1273602" data-name="Trazado 1273602" d="M463.827,271.253c.967-2.389-3.44-3.868-6.449-13.539-3.485-11.2-.864-13.463-1.4-14.451a2.279,2.279,0,0,0-1.689-.883,30.506,30.506,0,0,0,.13,12.262c1.774,9.216,1.269,11.954-2.58,13.482-3.87,1.536-7.552-2-9.19-8.534a34.534,34.534,0,0,1-1.059-12.949c-.025.049-.049.1-.07.149-1.041,2.446-2.367,6.489-.4,15.246,2.15,9.558,7.813,13.092,9.587,13.767,2.687,1.024,11.892-1.535,13.114-4.551" transform="translate(-146.89 -78.884)" fill="#e7c9ce"/>
            </g>
          </g>
          <g id="Grupo_1211206" data-name="Grupo 1211206" transform="translate(308.398 158.28)">
            <g id="Grupo_1211205" data-name="Grupo 1211205" clip-path="url(#clip-path-7)">
              <rect id="Rectángulo_460678" data-name="Rectángulo 460678" width="43.178" height="37.789" transform="translate(-1.165)" fill="url(#linear-gradient-3)"/>
            </g>
          </g>
          <g id="Grupo_1211208" data-name="Grupo 1211208">
            <g id="Grupo_1211207" data-name="Grupo 1211207" clip-path="url(#clip-path)">
              <path id="Trazado_1273604" data-name="Trazado 1273604" d="M507.034,240.57c1.376-.053,2.067,1.356,2.153,4.226.057,1.922-.577,5.8-1.5,5.616-.806-.163-.322-1.307-.967-5.061-.508-2.957-1.5-4.71.312-4.781" transform="translate(-168.878 -78.295)" fill="#80545a"/>
              <path id="Trazado_1273605" data-name="Trazado 1273605" d="M492.681,284.183c-1.587-.5-2.638-1.674-2.347-2.614s1.814-1.294,3.4-.79,2.638,1.674,2.346,2.614-1.814,1.294-3.4.79" transform="translate(-163.636 -91.307)" fill="#d27a84"/>
              <path id="Trazado_1273606" data-name="Trazado 1273606" d="M476.735,246.908c.025.646.059,1.089.059,1.089l.172.034a7.424,7.424,0,0,0,.411-1.029,20.585,20.585,0,0,0,.614-2.35c.144-.869.25-1.743.317-2.4.008-.126.014-.246.019-.355-.6.131-1.233.264-1.889.4.062.623.127,1.441.157,2.265.047.845.134,1.7.14,2.347" transform="translate(-159.014 -78.726)" fill="#d27a84"/>
              <path id="Trazado_1273607" data-name="Trazado 1273607" d="M473.378,245.352l-.208-2.316-.023,0c-.444.1-.907.177-1.375.247a3.726,3.726,0,0,0,1.606,2.065" transform="translate(-157.457 -79.097)" fill="#d27a84"/>
              <path id="Trazado_1273608" data-name="Trazado 1273608" d="M540.539,248.476c2.871,8.066,2.195,17.717-5.335,22.831-.285.194-.111.75.251.6,8.876-3.639,8.7-16.06,5.8-23.633-.169-.442-.878-.26-.715.2" transform="translate(-178.58 -80.72)" fill="#926466"/>
              <path id="Trazado_1273609" data-name="Trazado 1273609" d="M544.226,271.655c-3.2,3.6-6.155,6.781-10.81,8.372a.386.386,0,0,0,.1.752c2.125.181,4.212-1.576,5.783-2.828a19.2,19.2,0,0,0,5.265-6.032c.108-.21-.167-.457-.338-.264" transform="translate(-177.942 -88.389)" fill="#926466"/>
              <path id="Trazado_1273610" data-name="Trazado 1273610" d="M534.8,284.569a9.86,9.86,0,0,1,2.275,2.658c.6,1.137.5,2.212.79,3.4a.308.308,0,0,0,.56.074c1.03-2.361-1.108-5.852-3.367-6.584a.27.27,0,0,0-.258.448" transform="translate(-178.468 -92.465)" fill="#926466"/>
              <path id="Trazado_1273611" data-name="Trazado 1273611" d="M498.467,244.133c-1.137.084-2,.785-1.921,1.568s1.061,1.35,2.2,1.267,2-.785,1.921-1.568-1.061-1.351-2.2-1.268" transform="translate(-165.724 -79.452)" fill="#634a64"/>
              <path id="Trazado_1273612" data-name="Trazado 1273612" d="M498.4,249.039a4.2,4.2,0,0,0,3.151-3.841c.074-1.156-1.582-2.03-2.434-1.74a2.272,2.272,0,0,1,1.013,1.933c-.107,1.213-1.73,3.647-1.73,3.647" transform="translate(-166.345 -79.217)" fill="#634a64"/>
              <path id="Trazado_1273613" data-name="Trazado 1273613" d="M184.4,282.288c1.436-1.5,2.139-18.607.505-19.79-3.259-2.36-116.392,10.056-121.753,5.477s-1.374-12.45-5.59-13.06c-3.009-.435-5.782,16.783-1.836,22.221s125.943,8.015,128.674,5.152" transform="translate(-17.946 -82.961)" fill="#be3048"/>
              <path id="Trazado_1273614" data-name="Trazado 1273614" d="M186.376,262.5c-3.259-2.36-116.392,10.056-121.753,5.477s-1.374-12.45-5.59-13.06a1.038,1.038,0,0,0-.847.331c3.242,1.392.272,9.647,5.309,14.035,6.933,6.04,117.989-6.93,121.248-4.571,1.621,1.174.486,16.368-.933,18.079a4.848,4.848,0,0,0,2.062-.5c1.436-1.5,2.139-18.608.505-19.79" transform="translate(-19.42 -82.961)" fill="#f6405f"/>
              <rect id="Rectángulo_460679" data-name="Rectángulo 460679" width="4.454" height="6.418" transform="translate(32.001 190.836)" fill="#ff7b39"/>
              <rect id="Rectángulo_460680" data-name="Rectángulo 460680" width="4.454" height="6.418" transform="translate(115.648 190.836)" fill="#ff7b39"/>
              <rect id="Rectángulo_460681" data-name="Rectángulo 460681" width="4.454" height="6.418" transform="translate(199.294 190.836)" fill="#ff7b39"/>
              <rect id="Rectángulo_460682" data-name="Rectángulo 460682" width="4.454" height="6.418" transform="translate(282.941 190.836)" fill="#ff7b39"/>
              <rect id="Rectángulo_460683" data-name="Rectángulo 460683" width="4.454" height="6.418" transform="translate(366.587 190.836)" fill="#ff7b39"/>
              <path id="Trazado_1273615" data-name="Trazado 1273615" d="M377.022,302.27H58.082c-5.55,0-10.05-5.083-10.05-10.7h339.04c0,5.62-4.5,10.7-10.05,10.7" transform="translate(-16.031 -94.892)" fill="#ffc900"/>
              <path id="Trazado_1273616" data-name="Trazado 1273616" d="M386.181,283.627H45.669a2.544,2.544,0,0,1,0-5.087H386.181a2.544,2.544,0,0,1,0,5.087" transform="translate(-14.404 -90.652)" fill="#ffc900"/>
              <path id="Trazado_1273617" data-name="Trazado 1273617" d="M386.181,282.694H45.669a2.515,2.515,0,0,1-2.361-1.674,2.565,2.565,0,0,0-.151.871,2.528,2.528,0,0,0,2.512,2.544H386.181a2.528,2.528,0,0,0,2.512-2.544,2.581,2.581,0,0,0-.151-.871,2.516,2.516,0,0,1-2.362,1.674" transform="translate(-14.404 -91.46)" fill="#ff7b39"/>
              <path id="Trazado_1273618" data-name="Trazado 1273618" d="M384.1,291.567A9.747,9.747,0,0,1,374.514,299H55.574a10.27,10.27,0,0,1-4.427-1.041,9.733,9.733,0,0,0,7.974,4.307h318.94c5.55,0,10.05-5.083,10.05-10.7Z" transform="translate(-17.071 -94.892)" fill="#ff7b39"/>
              <path id="Trazado_1273619" data-name="Trazado 1273619" d="M196.19,225.847s.622-1.379,4.165-.354c3.386.98,6.476,9.822,7.981,15.046l-4.837,1.088s-2.5-8.87-5.079-10.828c-1.46-1.108-2.231-4.952-2.231-4.952" transform="translate(-65.48 -73.265)" fill="#363344"/>
              <path id="Trazado_1273620" data-name="Trazado 1273620" d="M241.561,297.066c-2.233-2.922-.92-7.846-.913-14.853a73.752,73.752,0,0,0-1.239-14.5c-1.668.1-3.68.235-5.992.4a65,65,0,0,1,1.294,14.093c-.007,9.9-1.247,14.695,2.749,18.6a11.418,11.418,0,0,0,8.722,3l3.654-3.7c-2.15,0-6.024-.1-8.277-3.047" transform="translate(-77.905 -87.13)" fill="#363344"/>
              <path id="Trazado_1273621" data-name="Trazado 1273621" d="M233.216,299.346v5.55a.541.541,0,0,0,.538.544h7.309a.541.541,0,0,0,.538-.544v-5.55a.541.541,0,0,0-.538-.544h-7.309a.542.542,0,0,0-.538.544m6.88,5.115h-5.375a.541.541,0,0,1-.537-.544v-3.591a.541.541,0,0,1,.537-.544H240.1a.541.541,0,0,1,.538.544v3.591a.541.541,0,0,1-.538.544" transform="translate(-77.837 -97.247)" fill="#626376"/>
              <rect id="Rectángulo_460684" data-name="Rectángulo 460684" width="7.525" height="0.979" transform="translate(155.809 204.386)" fill="#626376"/>
              <path id="Trazado_1273622" data-name="Trazado 1273622" d="M240.863,300.658H235.1c-.031,1.417-.034,2.685.041,3.836h5.777a23.53,23.53,0,0,1-.055-3.836" transform="translate(-78.459 -97.851)" fill="#363344"/>
              <path id="Trazado_1273623" data-name="Trazado 1273623" d="M239.891,268.821q-.129-.733-.264-1.407c-1.977.119-4.362.279-7.1.471q.147.66.291,1.407c2.7-.191,5.079-.349,7.075-.471" transform="translate(-77.607 -87.031)" fill="#363344"/>
              <path id="Trazado_1273624" data-name="Trazado 1273624" d="M191.885,257.165s-4.3-22.31,1.612-31.125l5.348.979s-4.6,5.659-1.263,29.6Z" transform="translate(-63.539 -73.566)" fill="#363344"/>
              <path id="Trazado_1273625" data-name="Trazado 1273625" d="M188.535,244.326l.123,5.549a.539.539,0,0,0,.549.532l7.307-.166a.541.541,0,0,0,.526-.556l-.123-5.549a.54.54,0,0,0-.55-.532l-7.307.166a.542.542,0,0,0-.525.556m6.991,4.957-5.373.122a.54.54,0,0,1-.549-.532l-.08-3.591a.542.542,0,0,1,.526-.557l5.373-.122a.541.541,0,0,1,.55.532l.079,3.591a.541.541,0,0,1-.525.556" transform="translate(-62.925 -79.282)" fill="#626376"/>
              <rect id="Rectángulo_460685" data-name="Rectángulo 460685" width="7.524" height="0.977" transform="translate(126.091 167.319) rotate(-1.289)" fill="#626376"/>
              <path id="Trazado_1273626" data-name="Trazado 1273626" d="M199.073,271.887q-.129-.733-.264-1.407c-1.977.119-4.362.278-7.1.471q.147.66.291,1.406c2.7-.19,5.079-.349,7.075-.471" transform="translate(-63.983 -88.029)" fill="#363344"/>
              <path id="Trazado_1273627" data-name="Trazado 1273627" d="M190.392,246.207c-.028,1.2-.02,2.408.015,3.591h5.99q-.05-1.936-.012-3.591Z" transform="translate(-63.539 -80.129)" fill="#363344"/>
              <path id="Trazado_1273628" data-name="Trazado 1273628" d="M123.173,57.75c-4.023,4.433-12.363,3-20.626,4.015s-9.224,5.558-8.485,7.544A4.979,4.979,0,0,0,96.228,72s-8.53,8.849-4.28,16.675S105.6,95.357,105.6,95.357L129.583,77.9l1.972-14.7Z" transform="translate(-30.292 -18.795)" fill="#b97953"/>
              <path id="Trazado_1273629" data-name="Trazado 1273629" d="M107.794,95.357,131.782,77.9l1.971-14.7-8.383-5.452a7.705,7.705,0,0,1-1.452,1.243,10.3,10.3,0,0,1,2.617,10.34c-1.829,6.306-7.7,4.9-18.871,10.883-6.924,3.7-10.314,12.271-10.314,12.271a11.245,11.245,0,0,0,10.443,2.87" transform="translate(-32.492 -18.795)" fill="#985d3f"/>
            </g>
          </g>
          <g id="Grupo_1211210" data-name="Grupo 1211210" transform="translate(105.773 104.465)">
            <g id="Grupo_1211209" data-name="Grupo 1211209" clip-path="url(#clip-path-9)">
              <rect id="Rectángulo_460687" data-name="Rectángulo 460687" width="35.723" height="56.52" transform="translate(0 0)" fill="url(#linear-gradient-4)"/>
            </g>
          </g>
          <g id="Grupo_1211212" data-name="Grupo 1211212">
            <g id="Grupo_1211211" data-name="Grupo 1211211" clip-path="url(#clip-path)">
              <path id="Trazado_1273631" data-name="Trazado 1273631" d="M167.1,179.352c5.423,11.9,11.99,15.741,14.35,21.439,2.08,5.023,1.26,11.62,3.654,10.953-1.438-1.491-1.483-7.065-2.955-10.79-1.935-4.9-6.88-10.339-10.212-17.086a104.4,104.4,0,0,1-5.8-15.889,26.047,26.047,0,0,0,9.449-3.445c-.887-2.546-1.489-4.7-1.867-6.209l-13.635,4.5c1.782,6.364,4.574,11.152,7.022,16.522" transform="translate(-53.427 -51.528)" fill="#d27a84"/>
              <path id="Trazado_1273632" data-name="Trazado 1273632" d="M153.52,139.03l20.531-6.679c-2.133-11.317-3.746-33.355-13.5-31.177-13.482,3.008-12.186,27.343-7.027,37.855" transform="translate(-50.021 -32.879)" fill="#474557"/>
              <path id="Trazado_1273633" data-name="Trazado 1273633" d="M151.438,154.745c9.056-3.875,16.817-6.038,23.685-8.363l2.429,7.2c-5.732,3.595-13.382,5.777-23.191,8.233Z" transform="translate(-50.543 -47.641)" fill="#a5adbc"/>
              <path id="Trazado_1273634" data-name="Trazado 1273634" d="M21.286,299.1c-6.04,1.054-17.575,5.387-20.638,3.1s5.483-6.2,10.158-8.815,7.255-7.183,11.125-6.857,3.87,4.408,8.384,4.735v7.183a48.64,48.64,0,0,0-9.029.653" transform="translate(0 -93.246)" fill="#363344"/>
              <path id="Trazado_1273635" data-name="Trazado 1273635" d="M142.8,191.191s16.553,28.622,24.507,58.876c4.092,15.565-2.364,21.766-11.824,21.766H130.548l-7.525-54.415s3.87-25.248,3.44-25.466,16.339-.762,16.339-.762" transform="translate(-41.06 -62.224)" fill="#474557"/>
              <path id="Trazado_1273636" data-name="Trazado 1273636" d="M101.149,191.231a96.82,96.82,0,0,0,.645,24.16l-3.87,2.449s8.814,22.147,12.469,33.03-.86,18.284-10.534,18.284H50.2c-9.889,0-11.394-8.271-11.394-12.625s4.945-13.494,15.049-13.494S76,243.9,76,243.9s-9.674-19.154-13.329-30.255-.215-30.472,3.01-30.69,35.471,8.271,35.471,8.271" transform="translate(-12.951 -59.544)" fill="#626376"/>
              <path id="Trazado_1273637" data-name="Trazado 1273637" d="M78.227,184.238c13.759,8.362,36.509,11.328,49.681,5.726l.778-6.153c-16.434,4.772-33.124,1.619-49.726-6.657l-.645,3.972a1.741,1.741,0,0,0-.088,3.112" transform="translate(-25.803 -57.656)" fill="#474557"/>
              <path id="Trazado_1273638" data-name="Trazado 1273638" d="M144.725,46.521a21.619,21.619,0,0,1-10.694-19.859c.589-15.739,10.893-26.833,24-26.661,13.551.178,17.527,8.829,17.527,8.829s7.513.781,9.134,9.364c2.009,10.636-7.442,17.866-7.442,17.866Z" transform="translate(-44.728 0)" fill="#b97953"/>
              <path id="Trazado_1273639" data-name="Trazado 1273639" d="M186.753,23.68s7.23-1.122,10.008,3.062c3.568,5.373,1.985,13.052-1.87,16.822-3.958,3.871-8.138-19.884-8.138-19.884" transform="translate(-62.33 -7.662)" fill="#985d3f"/>
              <path id="Trazado_1273640" data-name="Trazado 1273640" d="M149,58.226l-.807-7.838-4.227-11.626s-6.249.248-4.8,7.967c.618,3.3,4.284,5.439,4.284,5.439a11.027,11.027,0,0,1-.111,4.816l3.019,2.338Z" transform="translate(-46.374 -12.615)" fill="#985d3f"/>
              <path id="Trazado_1273641" data-name="Trazado 1273641" d="M136.683,72.921c2.322-5.688,2.438-15.776,2.438-15.776S149.288,69.134,149.234,75c-1.434,1.03-2.657,5.129-1.3,7.495,0,0-6.032,9.8-19.657,5.377-2.969-.963-6.98-4.453-8.359-5.991,7.167-3.919,14.25-2.793,16.767-8.96" transform="translate(-40.023 -18.598)" fill="#d27a84"/>
              <path id="Trazado_1273642" data-name="Trazado 1273642" d="M171.9,23.746c-11.726,11.473-26.831,10.128-29.649,5.176a7.119,7.119,0,0,0,2.867,5.4l-.855,8.1,7.317,4.544,22.18-13.12Z" transform="translate(-47.477 -7.728)" fill="#985d3f"/>
            </g>
          </g>
          <g id="Grupo_1211214" data-name="Grupo 1211214" transform="translate(93.715 17.379)">
            <g id="Grupo_1211213" data-name="Grupo 1211213" clip-path="url(#clip-path-11)">
              <path id="Trazado_1279512" data-name="Trazado 1279512" d="M0,0,49.685-.1l-.1,49.5L-.1,49.5Z" transform="translate(-7.166 41.85) rotate(-80.404)" fill="url(#linear-gradient-5)"/>
            </g>
          </g>
          <g id="Grupo_1211216" data-name="Grupo 1211216">
            <g id="Grupo_1211215" data-name="Grupo 1211215" clip-path="url(#clip-path)">
              <path id="Trazado_1273644" data-name="Trazado 1273644" d="M143.392,45.712c-.075,1.459.75,2.689,1.844,2.747s2.041-1.078,2.117-2.538-.75-2.689-1.843-2.747-2.041,1.078-2.117,2.538" transform="translate(-47.856 -14.051)" fill="#d27a84"/>
              <path id="Trazado_1273645" data-name="Trazado 1273645" d="M78.685,180.366c13.759,8.362,36.509,11.328,49.681,5.726l.778-6.153c-16.434,4.772-33.124,1.619-49.726-6.657Z" transform="translate(-26.262 -56.396)" fill="#363344"/>
              <path id="Trazado_1273646" data-name="Trazado 1273646" d="M114.113,88.1c-4.837,1.143-20.719,3.755-29.748,25.629s-8.438,27.915-5.536,32.485,21.337,9.794,34.074,9.142,16.446-2.776,18.219-6.041.484-5.877,1.291-8.488,4.514-5.55,9.19-15.018,3.648-21.353,1.451-25.629a24.612,24.612,0,0,0-5.428-6.857l-8.116,7.51Z" transform="translate(-25.673 -28.671)" fill="#626376"/>
              <path id="Trazado_1273647" data-name="Trazado 1273647" d="M125.111,158.419c-17.135-13.359-28.3-48.413-30.468-55.682A46.2,46.2,0,0,0,84.365,118.49c-9.029,21.875-8.438,27.915-5.536,32.485s21.337,9.8,34.074,9.141a52.4,52.4,0,0,0,12.207-1.7" transform="translate(-25.673 -33.436)" fill="#474557"/>
              <path id="Trazado_1273648" data-name="Trazado 1273648" d="M140.282,141.8H132.22l1.935-4.734h8.062Z" transform="translate(-44.129 -44.608)" fill="#8e92a5"/>
              <path id="Trazado_1273649" data-name="Trazado 1273649" d="M134.742,190.319c0,2.014-2.045,3.646-4.568,3.646s-4.568-1.632-4.568-3.646,2.045-3.646,4.568-3.646,4.568,1.632,4.568,3.646" transform="translate(-41.921 -60.754)" fill="#8e92a5"/>
              <path id="Trazado_1273650" data-name="Trazado 1273650" d="M134.382,162.633l-.257-.6c5.966-2.611,6.46-9.39,6.756-13.439a14.377,14.377,0,0,1,.374-2.907,23.513,23.513,0,0,1,1.543-3.314,105.429,105.429,0,0,0,5.772-13.023,29.646,29.646,0,0,0,.005-20.214l.592-.26a30.394,30.394,0,0,1,.005,20.706,106.052,106.052,0,0,1-5.8,13.095,23.112,23.112,0,0,0-1.5,3.216,14.4,14.4,0,0,0-.343,2.748c-.308,4.2-.82,11.222-7.143,13.991" transform="translate(-44.765 -35.435)" fill="#474557"/>
              <path id="Trazado_1273651" data-name="Trazado 1273651" d="M132.34,88.1l-1.774.408,12.467,16.817,2.91-4.026,1.878,1.9,1.775-2.1,3.378,4.859,2.863-12.288-.582-.566-7.573,2.659Z" transform="translate(-43.577 -28.671)" fill="#474557"/>
              <path id="Trazado_1273652" data-name="Trazado 1273652" d="M136.913,82.529l11.382,11.415-4.784,6.643L132.4,86.381Z" transform="translate(-44.189 -26.86)" fill="#a5adbc"/>
              <path id="Trazado_1273653" data-name="Trazado 1273653" d="M156.259,95.878l5.348,7.489,2.618-10.448L160.7,88.47Z" transform="translate(-52.152 -28.793)" fill="#a5adbc"/>
            </g>
          </g>
          <g id="Grupo_1211218" data-name="Grupo 1211218" transform="translate(76.952 104.807)">
            <g id="Grupo_1211217" data-name="Grupo 1211217" clip-path="url(#clip-path-13)">
              <path id="Trazado_1279513" data-name="Trazado 1279513" d="M0,0,81-.437l-.428,79.96-81,.437Z" transform="translate(-24.483 14.373) rotate(-30.106)" fill="url(#linear-gradient-6)"/>
            </g>
          </g>
          <g id="Grupo_1211223" data-name="Grupo 1211223">
            <g id="Grupo_1211222" data-name="Grupo 1211222" clip-path="url(#clip-path)">
              <path id="Trazado_1273655" data-name="Trazado 1273655" d="M104.12,138.163,126.09,130.4c-6.99-12.154-8.847-35.307-19.026-32.649-13.368,3.491-10.053,28.82-2.945,40.408" transform="translate(-32.679 -31.746)" fill="#626376"/>
              <path id="Trazado_1273656" data-name="Trazado 1273656" d="M116.357,124.022a7.124,7.124,0,1,1-6.467-7.916,7.2,7.2,0,0,1,6.467,7.916" transform="translate(-34.09 -37.778)" fill="#474557"/>
              <path id="Trazado_1273657" data-name="Trazado 1273657" d="M115.722,123.486a6.773,6.773,0,1,1-6.159-7.425,6.8,6.8,0,0,1,6.159,7.425" transform="translate(-34.111 -37.764)" fill="#8a9ecb"/>
              <path id="Trazado_1273658" data-name="Trazado 1273658" d="M109.275,129.437c-.178,0-.358-.008-.539-.024a6.282,6.282,0,0,1-3.439-11.027,6.131,6.131,0,0,1,8.709.768,6.274,6.274,0,0,1-4.731,10.283m-.013-11.863a5.45,5.45,0,0,0-3.55,1.313,5.544,5.544,0,1,0,7.8.687,5.485,5.485,0,0,0-3.76-1.979c-.164-.013-.328-.022-.49-.022" transform="translate(-34.407 -38.052)" fill="#bfcee2"/>
              <path id="Trazado_1279514" data-name="Trazado 1279514" d="M0,0,6.156-.007V1.155L0,1.162Z" transform="translate(74.019 88.141) rotate(-84.966)" fill="#bfcee2"/>
              <path id="Trazado_1279515" data-name="Trazado 1279515" d="M0,0,6.247-.034,6.24,1.137l-6.247.034Z" transform="matrix(0.866, -0.5, 0.5, 0.866, 71.878, 86.195)" fill="#bfcee2"/>
              <path id="Trazado_1279516" data-name="Trazado 1279516" d="M0,0,1.169-.007,1.131,6.251l-1.169.007Z" transform="matrix(0.643, -0.766, 0.766, 0.643, 72.107, 83.551)" fill="#bfcee2"/>
              <path id="Trazado_1273659" data-name="Trazado 1273659" d="M179.348,54.514a8.044,8.044,0,0,1,3.964-5.8,7.63,7.63,0,0,0-5.155,5.516A9.847,9.847,0,0,0,179.8,61.3a7.575,7.575,0,0,1-4.373.928c2.555.923,4.462.5,6.708-.276-1.842-2.229-3.215-4.757-2.785-7.441" transform="translate(-58.549 -15.856)" fill="#d27a84"/>
              <path id="Trazado_1273660" data-name="Trazado 1273660" d="M175.053,44.277c-.286,1.039-3.151.494-5.871-.608-2.572-1.042-4.754-2.136-4.83-2.84-.053-.486,2.535.353,5.209,1.178,2.883.891,5.758,1.3,5.493,2.269" transform="translate(-54.853 -13.242)" fill="#b97953"/>
              <path id="Trazado_1273661" data-name="Trazado 1273661" d="M189.391,49.906c-.323,1.015,1.007,1.962,2.8,3.164,1.529,1.028,3.43,1.767,3.858,1.085.482-.767-1.483-1.54-2.947-2.608-1.944-1.419-3.39-2.637-3.707-1.641" transform="translate(-63.194 -16.124)" fill="#b97953"/>
              <path id="Trazado_1273662" data-name="Trazado 1273662" d="M164.6,71.384a27.688,27.688,0,0,1,6.1,1.366,12.285,12.285,0,0,1,3.646,2.818,4.9,4.9,0,0,1-5.493.938,8.61,8.61,0,0,1-4.252-5.122" transform="translate(-54.938 -23.232)" fill="#d87b7c"/>
              <g id="Grupo_1211221" data-name="Grupo 1211221" transform="translate(109.667 48.151)" opacity="0.3" style="mix-blend-mode: multiply;isolation: isolate">
                <g id="Grupo_1211220" data-name="Grupo 1211220">
                  <g id="Grupo_1211219" data-name="Grupo 1211219" clip-path="url(#clip-path-15)">
                    <path id="Trazado_1273663" data-name="Trazado 1273663" d="M169.794,74.371a15.113,15.113,0,0,0,4.533,1.219l.023-.022a10.032,10.032,0,0,0-3.812-2.893,18.845,18.845,0,0,0-5.932-1.292,36.6,36.6,0,0,0,5.188,2.988" transform="translate(-164.605 -71.383)" fill="#80689c"/>
                  </g>
                </g>
              </g>
              <path id="Trazado_1273664" data-name="Trazado 1273664" d="M164.928,47.205a15.76,15.76,0,0,0,.867,1.336,6.825,6.825,0,0,0,2.294,2.118,3.316,3.316,0,0,0,.34.169,3.52,3.52,0,0,0,.419.146,3.2,3.2,0,0,0,.693.113,3.007,3.007,0,0,0,1.352-.256,5.614,5.614,0,0,0,1.326-.8,3.017,3.017,0,0,1-.931,1.413,3.246,3.246,0,0,1-1.678.788,3.077,3.077,0,0,1-1.117-.053,4.511,4.511,0,0,1-.476-.14,3.936,3.936,0,0,1-.521-.225,4.966,4.966,0,0,1-2.35-2.954,4.468,4.468,0,0,1-.219-1.66" transform="translate(-55.043 -15.363)" fill="#4e3a5e"/>
              <path id="Trazado_1273665" data-name="Trazado 1273665" d="M165.469,50.543s-1.694.289-1.746.116,1.449-.782,1.449-.782Z" transform="translate(-54.643 -16.233)" fill="#4e3a5e"/>
              <path id="Trazado_1273666" data-name="Trazado 1273666" d="M164.878,49.292A8.933,8.933,0,0,1,163.066,49a8.061,8.061,0,0,1,1.689-.434Z" transform="translate(-54.424 -15.806)" fill="#4e3a5e"/>
              <path id="Trazado_1273667" data-name="Trazado 1273667" d="M192.436,58.7a2.323,2.323,0,0,1-.674,1.324,2.5,2.5,0,0,1-1.482.748,2.738,2.738,0,0,1-.962-.063,3.088,3.088,0,0,1-.477-.156,2.845,2.845,0,0,1-.4-.186,4.287,4.287,0,0,1-1.919-2.721,4.106,4.106,0,0,1-.117-1.45l.778,1.147a8.439,8.439,0,0,0,.827,1.017,4.487,4.487,0,0,0,1.017.846,2.375,2.375,0,0,0,2.307.228,4.144,4.144,0,0,0,1.1-.733" transform="translate(-62.207 -18.288)" fill="#4e3a5e"/>
              <path id="Trazado_1273668" data-name="Trazado 1273668" d="M192.782,62.407s1.324,1.092,1.456.967-.865-1.4-.865-1.4Z" transform="translate(-64.342 -20.171)" fill="#4e3a5e"/>
              <path id="Trazado_1273669" data-name="Trazado 1273669" d="M193.886,61.555a9,9,0,0,0,1.716.648c.071-.107-1.247-1.216-1.247-1.216Z" transform="translate(-64.711 -19.849)" fill="#4e3a5e"/>
              <path id="Trazado_1273670" data-name="Trazado 1273670" d="M188.84,11.354c2.384.367,4.676-.714,7.12-.011a8.856,8.856,0,0,1,5.75,5.418,10.173,10.173,0,0,1-.161,6.314c-.126.382.474.647.65.277a9.785,9.785,0,0,0-.095-7.941,9.687,9.687,0,0,0-5.132-4.8c-2.295-.9-6.117-1.013-8.163.5-.079.058-.092.223.031.241" transform="translate(-62.996 -3.238)" fill="#b97953"/>
              <path id="Trazado_1273671" data-name="Trazado 1273671" d="M96.189,68.082c1.385-7.251,10.573-7.818,16.2-6.466,3.576.859,6.614,1.882,10.04-.055.514-.291.063-1.029-.454-.787-5.882,2.76-12.815-1.978-19.181-.031-3.484,1.065-7.072,3.237-7.129,7.267,0,.3.468.379.527.072" transform="translate(-31.928 -19.612)" fill="#b97953"/>
              <path id="Trazado_1273672" data-name="Trazado 1273672" d="M95.158,75.643c-5.674,2.816-9.289,14.2-2.689,17.969a.4.4,0,0,0,.475-.623C88.2,88.064,89.856,79.8,95.484,76.208a.326.326,0,0,0-.326-.565" transform="translate(-29.679 -24.606)" fill="#b97953"/>
              <path id="Trazado_1273673" data-name="Trazado 1273673" d="M150.837,1.942c-12.971,1.8-21.819,16.818-15.669,28.975.179.353.787.106.643-.275-5.1-13.455,2.42-24.031,15.132-28.311a.2.2,0,0,0-.106-.389" transform="translate(-44.447 -0.631)" fill="#b97953"/>
              <path id="Trazado_1273674" data-name="Trazado 1273674" d="M171.017,141.8h-8.062l1.935-4.734h8.062Z" transform="translate(-54.387 -44.608)" fill="#8e92a5"/>
              <path id="Trazado_1273675" data-name="Trazado 1273675" d="M174.076,134.521h-6.241l.53-1.869h6.241Z" transform="translate(-56.016 -43.172)" fill="#f9e5e8"/>
              <path id="Trazado_1279517" data-name="Trazado 1279517" d="M0,0,8.052-.012,8.047,3.536l-8.052.012Z" transform="translate(58.273 128.39) rotate(-82.977)" fill="#474557"/>
              <path id="Trazado_1279518" data-name="Trazado 1279518" d="M0,0,8.053-.005l0,3.547L0,3.547Z" transform="matrix(0.053, -0.999, 0.999, 0.053, 76.273, 132.892)" fill="#474557"/>
              <path id="Trazado_1273676" data-name="Trazado 1273676" d="M50.42,248.784C61.6,246.607,76.659,255.7,80.732,252.7c4.73-3.483-13.949-28.3-16.769-37.437a55.876,55.876,0,0,1-1.72-21.33l-.007.016c-1.383,6.7-1.787,16.518.437,23.273C66.329,228.324,76,247.478,76,247.478s-12.038-.871-22.143-.871c-9.2,0-14.118,7.571-14.928,12.215l-.109,1.943c0,.011,0,.021,0,.032.121-1.345,1.293-10.007,11.6-12.013" transform="translate(-12.957 -63.117)" fill="#474557"/>
              <path id="Trazado_1273677" data-name="Trazado 1273677" d="M84.321,257.323l16.116-5.008,3.532,11.983a4.888,4.888,0,0,1-3.242,6.124l-5.95,1.956a4.938,4.938,0,0,1-6.278-3.357Z" transform="translate(-28.143 -82.117)" fill="#474557"/>
              <path id="Trazado_1273678" data-name="Trazado 1273678" d="M83.6,255.362,99.763,250.3l3.532,11.983A4.975,4.975,0,0,1,100,268.459l-5.95,1.956a4.938,4.938,0,0,1-6.278-3.357Z" transform="translate(-27.9 -81.462)" fill="#8e92a5"/>
              <path id="Trazado_1273679" data-name="Trazado 1273679" d="M84.516,257.941l16-5.089-.752-2.552-16.168,5.061Z" transform="translate(-27.9 -81.462)" fill="#626376"/>
              <path id="Trazado_1273680" data-name="Trazado 1273680" d="M92.541,267.595,88.321,255.61,83.6,257.09l4.177,11.7a4.938,4.938,0,0,0,6.278,3.357L97,271.174a4.952,4.952,0,0,1-4.458-3.58" transform="translate(-27.9 -83.19)" fill="#626376"/>
              <path id="Trazado_1273681" data-name="Trazado 1273681" d="M76.8,241.727l18.866-6.1,3.085,9.738-18.831,5.99Z" transform="translate(-25.634 -76.686)" fill="#8e92a5"/>
              <path id="Trazado_1273682" data-name="Trazado 1273682" d="M76.8,243.336l8.261-2.768,3.165,9.9L80,253.125Z" transform="translate(-25.634 -78.294)" fill="#626376"/>
              <path id="Trazado_1273683" data-name="Trazado 1273683" d="M50.739,307.211h51c5.878,0,8.507-2.732,9.9-7.317-2.7,5.365-4.505,5.58-35.537,5.794-31.6.217-30.258-.654-35.686-5.006,1.344,3.411,4.253,6.53,10.319,6.53" transform="translate(-13.49 -97.602)" fill="#474557"/>
              <path id="Trazado_1273684" data-name="Trazado 1273684" d="M159.546,204.109c4.5,3.137,5.379,8.389,7.8,7.483.027-.01.053-.022.077-.033-1.45-.077-3.173-3.773-4.991-6.126-1.935-2.5-15.264-11.644-22.788-18.609s-16.124-21.983-16.124-21.983a47.372,47.372,0,0,0,9.592-5.29c-1.5-2.455-2.5-4.179-2.5-4.179L115.5,158.487c3.818,9.222,9.312,15.66,16.949,23.707,8.966,9.448,20.67,17.44,27.1,21.916" transform="translate(-38.549 -50.567)" fill="#d27a84"/>
              <path id="Trazado_1273685" data-name="Trazado 1273685" d="M104.594,152.413c8.667-4.411,17.474-8.2,24.071-10.913l2.646,7.321c-5.441,3.971-14.14,7.775-23.6,10.756Z" transform="translate(-34.909 -46.052)" fill="#a5adbc"/>
            </g>
          </g>
        </g>
      </g>
    </g>
  </g>
</svg>
