<svg xmlns="http://www.w3.org/2000/svg" xmlns:xlink="http://www.w3.org/1999/xlink" width="96" height="96" viewBox="0 0 96 96">
  <defs>
    <clipPath id="clip-path">
      <rect id="Rectángulo_455595" data-name="Rectángulo 455595" width="96" height="96" fill="none"/>
    </clipPath>
    <clipPath id="clip-path-2">
      <rect id="Rectángulo_460714" data-name="Rectángulo 460714" width="52.08" height="51" fill="#fff"/>
    </clipPath>
  </defs>
  <g id="Grupo_1208575" data-name="Grupo 1208575" transform="translate(-735.711 -9117.779)">
    <g id="Grupo_1180407" data-name="Grupo 1180407" transform="translate(735.711 9117.75)">
      <g id="Grupo_1179172" data-name="Grupo 1179172" transform="translate(0 0.03)" clip-path="url(#clip-path)">
        <path id="Trazado_998483" data-name="Trazado 998483" d="M92.562,52.469A40.092,40.092,0,1,1,52.469,12.377,40.093,40.093,0,0,1,92.562,52.469" transform="translate(-4.455 -4.484)" fill="#8d1939"/>
        <path id="Trazado_998485" data-name="Trazado 998485" d="M90.9,46.451A44.45,44.45,0,1,1,46.451,2,44.45,44.45,0,0,1,90.9,46.451Z" transform="translate(1.564 1.535)" fill="none" stroke="#8d1939" stroke-miterlimit="10" stroke-width="4"/>
      </g>
    </g>
    <g id="Grupo_1211257" data-name="Grupo 1211257" transform="translate(757.711 9140.779)">
      <g id="Grupo_1211256" data-name="Grupo 1211256" clip-path="url(#clip-path-2)">
        <path id="Trazado_1273760" data-name="Trazado 1273760" d="M33.088,23.925c-.021-.77-.168-1.511-.126-2.293.132-2.463,1.114-2.9-.322-5.492-1.006-1.818-2.528-3.564-3.591-5.375a.776.776,0,0,1,1.235-.933l3.9,6.037c.823-.037,1.61-.4,2.44-.436a6.666,6.666,0,0,1,6.509,4.407,7.924,7.924,0,0,1,.156,4.251c2.723.96,3.188,4.141,1.1,6.132-.371.354-.9.343-.935.982,3.026,1.135,2.76,4.254.033,5.592l-.052.2,8.536,12.838c.433.958-.548,1.552-1.294.842L42.23,37.912l-.34-.046c-.6.809-2.257.924-1.875-.363.233-.785,3.343-2.092,3.864-2.863A1.122,1.122,0,0,0,42.4,33.006c-2.161.976-4.565,3.481-6.783,4.579-1,.356-1.483-.812-.626-1.383l6.8-4.7c.566-1.26-.461-2.194-1.66-1.511l-6.678,4.531a.819.819,0,0,1-1.061-.907c.2-.716,6.258-4.222,7.151-5.109a1.106,1.106,0,0,0-1.306-1.752l-6.757,4.6c-.905.323-1.636-.485-.907-1.211l6.879-4.77a1.11,1.11,0,0,0-1.4-1.7L24,31.943c-1.592,1.5-1.291,4.134-3.148,5.515-6.5,3.907-12.687,9.295-19.178,13.087-1.089.636-2.06.649-1.527-.858l12.8-8.78c-.763-.433-2.528-2.543-2.164-3.356a.855.855,0,0,1,1.123-.38c.4.2,1.441,3.04,2.678,2.694,1.545-1.224,3.581-2.207,5.075-3.452,1.656-1.378,1.409-3.051,2.49-4.68.747-1.126,1.923-1.6,2.888-2.5-.885-1.519-2.06-2.919-2.458-4.681-.458-2.028-.207-4.243-.582-6.288-1.85-.59-3.829,1.206-3.83,3.072,0,.72.569,1.46.4,2.022-.131.429-1.347,1.424-1.735,2.008a7.666,7.666,0,0,0-1.2,3.582,18.1,18.1,0,0,1,.082,2.772c-1.122.582-2.2.854-2.98,1.949-.415.585-.56,1.866-1.575,1.407-.864-.391-.177-1.511.17-2.064A5.547,5.547,0,0,1,14.122,30.8a10.047,10.047,0,0,1,1.249-6c.247-.42,1.4-1.7,1.441-1.856.1-.364-.205-1.653-.113-2.344a4.857,4.857,0,0,1,5.216-3.97c-.16-1.85.013-3.2,1.477-4.438l-.057-.335c-1.2-2.128-3.024-4.182-4.172-6.294-.916-1.684-1.012-3.451.589-4.764,1.766-1.448,3.8-.8,5.124.843a53.052,53.052,0,0,1,3.61,5.666c.054.557-.276.846-.8.924l-.476-.264c-1.3-1.66-2.388-4.12-3.742-5.668A1.958,1.958,0,0,0,20,3.827a4.514,4.514,0,0,0,.446.9c1.189,2.256,3.222,4.462,4.446,6.757.386.339,1,.182,1.583.359A3.7,3.7,0,0,1,28.75,14.5c.015,3.182.7,6.684.644,9.825-.027,1.544-1.353,1.384-1.5.592-.381-3.258-.234-6.6-.6-9.855-.282-2.5-4-2.753-3.89.753.07,2.159.2,5.043.457,7.161a10.507,10.507,0,0,0,2.611,5.439Zm8.262,4.344c.067.076,1.532.464,1.7,1.034a2.126,2.126,0,0,0-.178-3.825c-.546-.213-1.294-.072-1.478-.774-.084-.322.461-1.252.525-1.734A5.115,5.115,0,0,0,35.056,17.3c-.3.225-.095,1.762-.147,2.243a12.63,12.63,0,0,0-.446,3.212c.888-.34,1.273-.783,2.317-.756a2.626,2.626,0,0,1,2.429,1.911c.067.336-.035,1.077.054,1.216.067.1,1.457.334,1.907,1.454a9.507,9.507,0,0,1,.181,1.687" transform="translate(0 0)" fill="#fff"/>
        <path id="Trazado_1273761" data-name="Trazado 1273761" d="M158.8,263.761l.154.627,4.828,7.276a.786.786,0,0,1-1.2.9c-.759-.559-1.9-3.23-2.68-4.041-.322-.362-.7.111-1.115.226-2.415.67-3.654.063-5.9.058-2.475-.006-4.868,2.654-6.953,3.819-1.219.265-1.593-.559-.661-1.411a35.442,35.442,0,0,1,5.407-3.555c2.612-.988,5.469.55,8.107-.483-.063-1.068-2.316-2.837-1.833-3.846.263-.55,3.168-2.1,3.809-2.63a.771.771,0,0,1,1,.726c0,.716-2.334,1.938-2.956,2.337" transform="translate(-123.121 -221.712)" fill="#fff"/>
        <path id="Trazado_1273762" data-name="Trazado 1273762" d="M80.823,63.551c3.905-.217,4.285,5.878.252,5.953-3.952.073-3.982-5.745-.252-5.953m-.313,1.642c-1.448.331-1.1,3.142.8,2.747a1.433,1.433,0,1,0-.8-2.747" transform="translate(-66.406 -54.053)" fill="#fff"/>
        <path id="Trazado_1273763" data-name="Trazado 1273763" d="M61.064,122.145a2.971,2.971,0,1,1-1.7,1.289,3.078,3.078,0,0,1,1.7-1.289m.446,1.492a1.429,1.429,0,0,0,.679,2.775,1.429,1.429,0,1,0-.679-2.775" transform="translate(-50.095 -103.834)" fill="#fff"/>
        <path id="Trazado_1273764" data-name="Trazado 1273764" d="M305.2,127.615c2.733,2.733-1.4,6.972-4.2,4.277-2.784-2.679,1.41-7.07,4.2-4.277m-2.372.722a1.431,1.431,0,1,0,.675,2.778,1.431,1.431,0,0,0-.675-2.778" transform="translate(-255.261 -107.791)" fill="#fff"/>
      </g>
    </g>
  </g>
</svg>
