<svg xmlns="http://www.w3.org/2000/svg" xmlns:xlink="http://www.w3.org/1999/xlink" width="96" height="96" viewBox="0 0 96 96">
  <defs>
    <clipPath id="clip-path">
      <rect id="Rectángulo_455595" data-name="Rectángulo 455595" width="96" height="96" fill="none"/>
    </clipPath>
    <clipPath id="clip-path-2">
      <rect id="Rectángulo_460575" data-name="Rectángulo 460575" width="52.74" height="52.998" fill="#fff"/>
    </clipPath>
  </defs>
  <g id="Grupo_1210778" data-name="Grupo 1210778" transform="translate(-735.746 -9118)">
    <g id="Grupo_1180407" data-name="Grupo 1180407" transform="translate(735.746 9117.971)">
      <g id="Grupo_1179172" data-name="Grupo 1179172" transform="translate(0 0.03)" clip-path="url(#clip-path)">
        <path id="Trazado_998483" data-name="Trazado 998483" d="M92.627,52.5A40.125,40.125,0,1,1,52.5,12.377,40.125,40.125,0,0,1,92.627,52.5" transform="translate(-4.488 -4.517)" fill="#8d1939"/>
        <path id="Trazado_998485" data-name="Trazado 998485" d="M90.973,46.487A44.486,44.486,0,1,1,46.487,2,44.486,44.486,0,0,1,90.973,46.487Z" transform="translate(1.527 1.499)" fill="none" stroke="#8d1939" stroke-miterlimit="10" stroke-width="4"/>
      </g>
    </g>
    <g id="Grupo_1180408" data-name="Grupo 1180408" transform="translate(755.746 9137)">
      <g id="Grupo_1099618" data-name="Grupo 1099618" transform="translate(0 0.164)">
        <rect id="Rectángulo_401104" data-name="Rectángulo 401104" width="56.349" height="57.028" transform="translate(0)" fill="none"/>
      </g>
      <g id="Grupo_1211032" data-name="Grupo 1211032" transform="translate(2 2.164)">
        <g id="Grupo_1211031" data-name="Grupo 1211031" clip-path="url(#clip-path-2)">
          <path id="Trazado_1273149" data-name="Trazado 1273149" d="M6.818,12.392l5.815-4.831.054-2.247C9.482,4.389,11.5.433,14.144.163A64.941,64.941,0,0,1,23.208.155c2.844.254,4.749,4.318,1.443,5.155l.064,2.1,5.962,5.213v11.4c.392-.067,1.493.2,1.64-.248.479-3.226-1.621-9.607,3.262-10.026a96.664,96.664,0,0,1,12.7,0c.848.072.889.2,1.11,1,1.456,5.3,1.92,11.261,3.328,16.617.146.367-.351,1.109-.67,1.109H40.794V39.95a3.654,3.654,0,0,1-2.07,2.46,10.158,10.158,0,0,1-1.328.333h-6.72V48.86c0,2.162-2.125,3.848-4.147,4.007-5.167.407-10.9-.283-16.124-.045-1.455-.091-3.588-2.075-3.588-3.509V42.744H1c-.449,0-1.171-.54-.97-1.109C1.21,36.5,1.94,31.257,3.113,26.128c.086-.376.39-2.108.761-2.108H6.818ZM24.637,3.483a1.683,1.683,0,0,0-1.6-1.648,57.176,57.176,0,0,0-8.829.054,1.539,1.539,0,0,0-1.351,1.594ZM16.181,5.294H14.519V6.957h1.663Zm3.322,0H17.841V6.957H19.5Zm3.473,0H21.314V6.957h1.663Zm4.378,6.8L23.474,8.648,13.922,8.7c-1.2,1.012-2.413,2.008-3.588,3.046-.1.09-.288-.011-.193.345Zm1.51,1.661H8.479V23.793l.227.227H28.865Zm11.929,7.777v9.06l.227.227h9.74l-3.04-15.383-11.688-.025a1.787,1.787,0,0,0-1.53,2.975c1.128,1.128,3.707-.254,5.384,1.486a6.025,6.025,0,0,1,.907,1.66M34,20.093v3.7l.227.227h3.322a1.929,1.929,0,0,0,1.58-1.87c-.18-2.523-3.7-1.028-5.128-2.056M1.986,40.932H37.85c.4,0,1.284-.95,1.284-1.284V25.227l-1.731.458L5.1,25.7Zm26.879,1.812H8.479V48.86A6.488,6.488,0,0,0,8.9,49.949a2.822,2.822,0,0,0,2.367,1.257c4.818.415,10.223-.319,15.1-.007a3.154,3.154,0,0,0,1.729-.687,5.4,5.4,0,0,0,.764-1.2Z" transform="translate(0 0)" fill="#fff"/>
          <path id="Trazado_1273150" data-name="Trazado 1273150" d="M62.218,192.991H45.154V181.062H61.991l.227.227Zm-1.812-10.268H47.042l-.227.227V191.1l.227.227H60.406Z" transform="translate(-38.336 -153.721)" fill="#fff"/>
          <rect id="Rectángulo_460570" data-name="Rectángulo 460570" width="11.929" height="1.661" transform="translate(25.543 30.814)" fill="#fff"/>
          <rect id="Rectángulo_460571" data-name="Rectángulo 460571" width="11.929" height="1.661" transform="translate(25.543 34.136)" fill="#fff"/>
          <path id="Trazado_1273151" data-name="Trazado 1273151" d="M199.633,181.062v1.661h-8.607c.068-.54-.2-1.263.227-1.661Z" transform="translate(-162.16 -153.721)" fill="#fff"/>
          <rect id="Rectángulo_460572" data-name="Rectángulo 460572" width="6.795" height="1.661" transform="translate(30.677 37.61)" fill="#fff"/>
          <rect id="Rectángulo_460573" data-name="Rectángulo 460573" width="3.322" height="1.661" transform="translate(25.543 37.61)" fill="#fff"/>
          <rect id="Rectángulo_460574" data-name="Rectángulo 460574" width="1.663" height="1.663" transform="translate(25.542 27.34)" fill="#fff"/>
          <path id="Trazado_1273152" data-name="Trazado 1273152" d="M286.16,159.062v1.661h-4.908c-.43-.4-.158-1.121-.227-1.661Z" transform="translate(-238.57 -135.043)" fill="#fff"/>
          <path id="Trazado_1273153" data-name="Trazado 1273153" d="M286.16,181.062v1.661h-5.134c.068-.54-.2-1.263.227-1.661Z" transform="translate(-238.57 -153.721)" fill="#fff"/>
          <path id="Trazado_1273154" data-name="Trazado 1273154" d="M285.534,114.062l-.141,1.6h-4.1l-.141-1.6Z" transform="translate(-238.699 -96.838)" fill="#fff"/>
          <path id="Trazado_1273155" data-name="Trazado 1273155" d="M285.534,138.094h-4.379l.141-1.6h4.1Z" transform="translate(-238.699 -115.887)" fill="#fff"/>
        </g>
      </g>
    </g>
  </g>
</svg>
