<svg xmlns="http://www.w3.org/2000/svg" xmlns:xlink="http://www.w3.org/1999/xlink" width="69" height="69" viewBox="0 0 69 69">
  <defs>
    <clipPath id="clip-path">
      <rect id="Rectángulo_460500" data-name="Rectángulo 460500" width="42" height="40.512" fill="#fff"/>
    </clipPath>
  </defs>
  <g id="Grupo_1210879" data-name="Grupo 1210879" transform="translate(-616.422 -749.492)">
    <circle id="Elipse_13676" data-name="Elipse 13676" cx="34.5" cy="34.5" r="34.5" transform="translate(616.422 749.492)" fill="#6a2874"/>
    <g id="Grupo_1210908" data-name="Grupo 1210908" transform="translate(630.421 763.492)">
      <g id="Grupo_1210907" data-name="Grupo 1210907" clip-path="url(#clip-path)">
        <path id="Trazado_1272322" data-name="Trazado 1272322" d="M5.92,24.34,11.647,1.2a2.035,2.035,0,0,1,3.845.41l4.472,27.445,3.611-12.614a2.011,2.011,0,0,1,3.712-.35l2.719,8.182,2.256.043c1.489-2.76,4.379-3.951,7.184-2.411,4.369,2.4,2.8,9.626-2.2,9.87a5.327,5.327,0,0,1-4.983-3.127c-1.475-.263-4.182.532-5.277-.668l-1.376-3.5-4.2,14.72a2.068,2.068,0,0,1-3.887-.109c-1.588-8.769-2.737-17.63-4.309-26.4-.042-.232.094-.249-.269-.217L9.462,27.087a2.58,2.58,0,0,1-1.408,1.54H0V24.34Z" transform="translate(0 0)" fill="#fff"/>
      </g>
    </g>
  </g>
</svg>
