<svg xmlns="http://www.w3.org/2000/svg" xmlns:xlink="http://www.w3.org/1999/xlink" width="96" height="96" viewBox="0 0 96 96">
  <defs>
    <clipPath id="clip-path">
      <rect id="Rectángulo_455595" data-name="Rectángulo 455595" width="96" height="96" fill="none"/>
    </clipPath>
    <clipPath id="clip-path-2">
      <rect id="Rectángulo_461032" data-name="Rectángulo 461032" width="51.866" height="52.952" fill="#fff"/>
    </clipPath>
  </defs>
  <g id="Grupo_1207822" data-name="Grupo 1207822" transform="translate(-735.746 -9118)">
    <g id="Grupo_1180407" data-name="Grupo 1180407" transform="translate(735.746 9117.971)">
      <g id="Grupo_1179172" data-name="Grupo 1179172" transform="translate(0 0.03)" clip-path="url(#clip-path)">
        <path id="Trazado_998483" data-name="Trazado 998483" d="M92.562,52.469A40.092,40.092,0,1,1,52.469,12.377,40.093,40.093,0,0,1,92.562,52.469" transform="translate(-4.455 -4.484)" fill="#8d1939"/>
        <path id="Trazado_998485" data-name="Trazado 998485" d="M90.9,46.451A44.45,44.45,0,1,1,46.451,2,44.45,44.45,0,0,1,90.9,46.451Z" transform="translate(1.564 1.535)" fill="none" stroke="#8d1939" stroke-miterlimit="10" stroke-width="4"/>
      </g>
    </g>
    <g id="Grupo_1180408" data-name="Grupo 1180408" transform="translate(755.746 9137)">
      <g id="Grupo_1099618" data-name="Grupo 1099618" transform="translate(-0.035 -0.65)">
        <rect id="Rectángulo_401104" data-name="Rectángulo 401104" width="56.349" height="57.028" transform="translate(0)" fill="none"/>
      </g>
      <g id="Grupo_1212055" data-name="Grupo 1212055" transform="translate(1.965 1.35)">
        <g id="Grupo_1212054" data-name="Grupo 1212054" clip-path="url(#clip-path-2)">
          <path id="Trazado_1277639" data-name="Trazado 1277639" d="M121.605,19.437c.8.843-.136,4.2,1.405,5.8a4.307,4.307,0,0,0,2.657.985c1.012.107,2.657-.488,2.352,1.139-.159.849-2.744.622-3.4.517-3.78-.6-4.438-3.872-4.518-7.167-1-.854-2.019-1.618-2.1-3.067-.089-1.567.963-2.6,1.6-3.861,1.533-3.045.266-5.76,2.727-8.807a13.782,13.782,0,1,1,20.947,17.912c-1.559,1.8-4.849,3.589-2.937,6.575,2.284,3.567,11.009,2.294,11.516,8.973.327,4.307-.262,9.017,0,13.368a.922.922,0,1,1-1.819.287c-.322-4.448.4-9.422,0-13.807-.36-3.954-6.994-4.364-9.71-6.377a5.178,5.178,0,0,1-1-7.657c1.843-2.311,3.485-2.783,4.746-6.029,4.939-12.706-11.822-22.288-20.075-12.486-2.379,2.826-1.228,5.655-2.878,8.959-.716,1.434-2.266,2.749-.521,4.156.269.217.895.46,1.01.583" transform="translate(-100.087 0)" fill="#fff"/>
          <path id="Trazado_1277640" data-name="Trazado 1277640" d="M155.08,168.341c1.334,1.2,5.275.169,5.647-1.608.413-1.973-.683-4.657-1.783-6.278-.535-.788-2.118-1.925-1.5-2.887.8-1.239,2.638,1.4,3.018,1.977,2.578,3.92,3.871,9.407-1.977,10.865-6.924,1.726-6.8-6.264-6.186-10.863l-1.925-1.3c-.432-.04-2.228,1.783-2.858,1.786-1.046,0-.947-2.235-2.714-2.109-1.86.132-4.107,4.3-4.537,5.946-.664,2.544-.375,4.059,2.32,4.746,3.212.819,4.042-.73,4.38-3.66.1-.836-.352-2.709.865-2.785.74-.046.928.525.982,1.128.172,1.94-.545,5.4-2.208,6.609-2.007,1.458-6,.524-7.507-1.293-2.376-2.865.5-8.749,2.8-11,1.739-1.71,4.475-2.143,5.852.157l.218,0,1.446-1.287c-.18-2.847.25-6,.008-8.8a6.156,6.156,0,0,0-3.831-4.972c-.862-.3-3.167-.131-2.98-1.363.223-1.467,3.446-.417,4.328.015,5.963,2.919,3.966,9.76,4.3,15.128.111.582,2.775,1.689,2.972,2.5a22.3,22.3,0,0,1-.389,2.967c-.1,1.61-.008,5.252,1.265,6.4" transform="translate(-117.231 -119.248)" fill="#fff"/>
          <path id="Trazado_1277641" data-name="Trazado 1277641" d="M4.331,12.221c-.636.666-.354,1.622-.742,2.217-.345.531-1.412.579-1.577,1.61-.245,1.533,1.244,1.843,1.321,2.593.071.693-.927,1.819.353,2.544,1.605.91,2.619-1.532,3.55-.362.506.635-.02,1.175-.541,1.577-1.812,1.4-5.007.725-5.414-1.692A14.409,14.409,0,0,1,1.353,19.1c-.045-.278-.589-.738-.746-1.054a3.588,3.588,0,0,1,.268-3.739c.319-.433.9-.653,1.111-1.014.412-.693.263-1.349,1-2.185,1.678-1.9,4.186-1.317,5.919.154.233.2.328.536.609.757,1.879,1.48,3.424,2.043,3.508,4.958.029.984-.413,3.62-1.807,3.207-1.088-.323-.291-1.353-.151-1.909a3.638,3.638,0,0,0-1.333-4.046c-.385-.276-.922-.389-1.283-.69-.412-.343-.633-.913-1.145-1.283a2.319,2.319,0,0,0-2.974-.034" transform="translate(-0.176 -8.402)" fill="#fff"/>
          <path id="Trazado_1277642" data-name="Trazado 1277642" d="M2.179,202.664c.752.686,1.495.067,2.082.26.369.121.638.71.984,1a2.223,2.223,0,0,0,3.339-.3c.22-.244.288-.6.415-.723.15-.15.555-.2.771-.368,1.509-1.167,1.913-3.05.246-4.3-.47-.351-1.565-.467-.914-1.533.626-1.024,2.457.3,2.959,1.005a4.457,4.457,0,0,1-.594,5.761c-.624.581-1.268,1.177-1.9,1.745a4.126,4.126,0,0,1-4.613.661c-.534-.261-.925-.833-1.427-1a14.687,14.687,0,0,1-1.74-.385A3.409,3.409,0,0,1,0,201.43c.023-.567.485-1.279.46-1.665-.019-.28-.319-.747-.387-1.141a3.809,3.809,0,0,1,2.662-4.184c.533-.119.981,0,1.437-.081.579-.1,1.254-1.117,1.973-.292s-.4,1.6-1.1,1.933c-.571.271-1.028-.065-1.71.106a1.966,1.966,0,0,0-1.5,2.27c.089.594.646.916.614,1.527-.036.676-1.334,1.79-.272,2.761" transform="translate(0 -164.343)" fill="#fff"/>
          <path id="Trazado_1277643" data-name="Trazado 1277643" d="M106.334,208.516a11.526,11.526,0,0,1-2,.8c-2.736.9-7.151,1.067-7.369,4.772l0,13.66a.85.85,0,0,1-1.675-.29c.329-4.553-.4-9.642,0-14.13.368-4.048,5.243-4.734,8.318-5.645.485-.144,1.786-.786,2.085-.788a.954.954,0,0,1,.64,1.617" transform="translate(-80.722 -175.499)" fill="#fff"/>
          <path id="Trazado_1277644" data-name="Trazado 1277644" d="M170.295,71.711a2.365,2.365,0,0,1-.539.443c.6.534,1.767,1.555.749,2.273-.968.683-1.58-.847-2.043-.841-.6.364-1.078,1.451-1.888.841-1.04-.784.007-1.5.59-2.142.071-.411-1.431-.952-.94-1.99.54-1.143,1.749-.038,2.262.558.37.064,1.758-2.306,2.452-.088-.024.234-.47.727-.644.946" transform="translate(-140.914 -59.205)" fill="#fff"/>
          <path id="Trazado_1277645" data-name="Trazado 1277645" d="M79.8,163.858c-.132.133-2.976.973-3.557,1.224-.654.282-2.721,1.612-3.045,1.673a.9.9,0,0,1-.866-1.486c.682-.83,5.749-3,6.821-2.972a.938.938,0,0,1,.646,1.562" transform="translate(-61.165 -137.665)" fill="#fff"/>
          <path id="Trazado_1277646" data-name="Trazado 1277646" d="M56.257,139.868c.428-.453,3.575-.443,4.275-.333,1.128.176,1.375,1.609.151,1.8a17.53,17.53,0,0,1-4.224-.158.928.928,0,0,1-.2-1.311" transform="translate(-47.559 -118.305)" fill="#fff"/>
          <path id="Trazado_1277647" data-name="Trazado 1277647" d="M73.107,101.03c.5-.046,2.668,1.58,3.383,1.721a.9.9,0,0,1-.786,1.559,16.62,16.62,0,0,1-3.079-1.639.925.925,0,0,1,.482-1.641" transform="translate(-61.316 -85.696)" fill="#fff"/>
        </g>
      </g>
    </g>
  </g>
</svg>
