<svg xmlns="http://www.w3.org/2000/svg" xmlns:xlink="http://www.w3.org/1999/xlink" width="162.25" height="162.25" viewBox="0 0 162.25 162.25">
  <defs>
    <clipPath id="clip-path">
      <rect id="Rectángulo_461218" data-name="Rectángulo 461218" width="84" height="83.617" fill="#6a2874"/>
    </clipPath>
  </defs>
  <g id="Grupo_1212929" data-name="Grupo 1212929" transform="translate(-561.211 -4862.223)">
    <g id="Grupo_1212901" data-name="Grupo 1212901" transform="translate(0 -35)">
      <g id="Grupo_1209922" data-name="Grupo 1209922" transform="translate(256.064 -5115.236)">
        <g id="Grupo_1177470" data-name="Grupo 1177470" transform="translate(305.146 10012.421)">
          <circle id="Elipse_13609" data-name="Elipse 13609" cx="81.125" cy="81.125" r="81.125" transform="translate(0 0.038)" fill="#f6e1fe"/>
          <g id="Grupo_1207827" data-name="Grupo 1207827" transform="translate(35.635 35.96)">
            <g id="Grupo_1099618" data-name="Grupo 1099618" transform="translate(0.865 -0.145)">
              <rect id="Rectángulo_401104" data-name="Rectángulo 401104" width="90" height="90" transform="translate(0)" fill="none"/>
            </g>
            <g id="Grupo_1212541" data-name="Grupo 1212541" transform="translate(3.865 2.855)">
              <g id="Grupo_1212540" data-name="Grupo 1212540" clip-path="url(#clip-path)">
                <path id="Trazado_1279036" data-name="Trazado 1279036" d="M10.886.079,72.1,0c6.688.643,11.067,5.617,11.519,12.231-.936,19.146,1.212,39.43,0,58.444C83.2,77.311,78.98,82.884,72.1,83.617H11.52C4.833,82.953.451,77.994,0,71.387L.013,12.006C.48,5.795,4.638.932,10.886.079M10.64,3.4a9.226,9.226,0,0,0-7.3,7.9L3.326,72.1a9.1,9.1,0,0,0,7.956,8.194l61.055,0c4.1-.376,7.614-4.712,7.955-8.67v-60.1A9.217,9.217,0,0,0,72.8,3.333Z" fill="#6a2874"/>
                <path id="Trazado_1279037" data-name="Trazado 1279037" d="M40.987,40.981l64.385,0,0,56.31-64.385,0Zm61.048,3.1H44.442l-.356.356V79.469h7.006c1.806-2.43,2.744-6.257,4.434-8.629.959-1.345,2.336-1.419,3.1.146,1.277,2.622,1.878,7.163,2.967,10.1.106.287.146.571.427.76.734-1.055,1.216-5.061,2.424-5.411,1.675.188,8.747-.509,9.705.17a1.637,1.637,0,0,1-.543,2.816c-1.146.263-7.127-.167-7.407.075-.7,1.607-2.209,8.407-3.22,9.246a1.654,1.654,0,0,1-2.623-.719L56.908,76.144c-.556-.119-.38.076-.53.306-.715,1.1-2.627,6.344-3.861,6.344H44.086V93.957h57.949Z" transform="translate(-31.251 -31.248)" fill="#6a2874"/>
                <path id="Trazado_1279038" data-name="Trazado 1279038" d="M65.714,289.934a5.637,5.637,0,1,1-5.637-5.637,5.637,5.637,0,0,1,5.637,5.637m-3.213,0a2.414,2.414,0,1,0-2.414,2.414,2.414,2.414,0,0,0,2.414-2.414" transform="translate(-41.511 -216.777)" fill="#6a2874"/>
                <path id="Trazado_1279039" data-name="Trazado 1279039" d="M218.217,295.088a4.033,4.033,0,1,1-4.033-4.033,4.034,4.034,0,0,1,4.033,4.033m-3.294,0a.761.761,0,1,0-.761.761.761.761,0,0,0,.761-.761" transform="translate(-160.24 -221.93)" fill="#6a2874"/>
                <path id="Trazado_1279040" data-name="Trazado 1279040" d="M170.885,295.1a4.029,4.029,0,1,1-4.029-4.029,4.029,4.029,0,0,1,4.029,4.029m-3.242.005a.82.82,0,1,0-.82.82.82.82,0,0,0,.82-.82" transform="translate(-124.156 -221.946)" fill="#6a2874"/>
                <path id="Trazado_1279041" data-name="Trazado 1279041" d="M123.506,295.114a4.026,4.026,0,1,1-4.026-4.026,4.026,4.026,0,0,1,4.026,4.026m-3.2-.005a.82.82,0,1,0-.82.82.82.82,0,0,0,.82-.82" transform="translate(-88.034 -221.956)" fill="#6a2874"/>
                <path id="Trazado_1279042" data-name="Trazado 1279042" d="M258.61,297.952c3.114-.914,3.113,5.572,0,4.656-1.311-.386-1.306-4.273,0-4.656" transform="translate(-196.442 -227.122)" fill="#6a2874"/>
                <path id="Trazado_1279043" data-name="Trazado 1279043" d="M285.61,297.952c3.114-.914,3.113,5.572,0,4.656-1.311-.386-1.306-4.273,0-4.656" transform="translate(-217.03 -227.122)" fill="#6a2874"/>
                <path id="Trazado_1279044" data-name="Trazado 1279044" d="M209.7,192.316c-1.655-1.378-6.252-5.8-7.08-7.519a6.055,6.055,0,0,1,6.9-8.562c.706.172,1.933.989,2.343.975.349-.011,1.039-.635,1.546-.816a6.159,6.159,0,0,1,7.551,2.887c3.125,6.126-5.124,10.1-8.273,14.2-1.383.593-2.051-.388-2.987-1.167m-2.542-12.907c-1.613.371-2.236,2.488-1.651,3.926.616,1.515,5.247,4.825,6.352,6.469,1.235-1.691,6.106-5.244,6.477-7.057.484-2.362-1.522-3.92-3.808-3.33-1.047.27-1.345,1.619-2.667,1.629-1.907.014-1.915-2.277-4.7-1.636" transform="translate(-154.015 -134.224)" fill="#6a2874"/>
                <path id="Trazado_1279045" data-name="Trazado 1279045" d="M227.261,124.787a2.126,2.126,0,0,1-1.236.309,102.966,102.966,0,0,1-14.5-.005c-2.206-.256-1.938-2.739-.008-3.1l14.969.019a1.683,1.683,0,0,1,.777,2.782" transform="translate(-160.101 -93.015)" fill="#6a2874"/>
                <path id="Trazado_1279046" data-name="Trazado 1279046" d="M210.488,70.3a1.577,1.577,0,0,1,1-2.779c4.67-.5,10.2.37,14.961.006a1.565,1.565,0,0,1-.219,3.093c-4.7-.325-9.872.391-14.509,0a2.038,2.038,0,0,1-1.228-.318" transform="translate(-160.06 -51.363)" fill="#6a2874"/>
                <path id="Trazado_1279047" data-name="Trazado 1279047" d="M210.488,97.3a1.577,1.577,0,0,1,1-2.779c4.67-.5,10.2.37,14.961.006a1.565,1.565,0,0,1-.219,3.093c-4.7-.325-9.872.391-14.509,0a2.038,2.038,0,0,1-1.228-.318" transform="translate(-160.06 -71.951)" fill="#6a2874"/>
                <path id="Trazado_1279048" data-name="Trazado 1279048" d="M175.785,124.615c-.424.4-4.345.436-5,.249-1.269-.365-1.252-2.761.194-3.031a24.026,24.026,0,0,1,4.22.043,1.718,1.718,0,0,1,.582,2.739" transform="translate(-129.524 -92.844)" fill="#6a2874"/>
                <path id="Trazado_1279049" data-name="Trazado 1279049" d="M170.806,67.911a23.159,23.159,0,0,1,4.413,0,1.607,1.607,0,0,1,0,2.989,23.159,23.159,0,0,1-4.413,0c-1.224-.351-1.224-2.636,0-2.987" transform="translate(-129.54 -51.701)" fill="#6a2874"/>
                <path id="Trazado_1279050" data-name="Trazado 1279050" d="M170.806,94.911a23.16,23.16,0,0,1,4.413,0,1.607,1.607,0,0,1,0,2.989,23.159,23.159,0,0,1-4.413,0c-1.224-.351-1.224-2.636,0-2.987" transform="translate(-129.54 -72.289)" fill="#6a2874"/>
              </g>
            </g>
          </g>
        </g>
        <ellipse id="Elipse_13678" data-name="Elipse 13678" cx="19.243" cy="19.243" rx="19.243" ry="19.243" transform="translate(305.965 10136.186)" fill="#da9dfe"/>
        <g id="Grupo_1207826" data-name="Grupo 1207826" transform="translate(305.146 10138.641)">
          <path id="Trazado_998481" data-name="Trazado 998481" d="M0,13.854q4.835.419,9.664.868l-.27.112,1.389-2.491a.373.373,0,0,1,.426-.131.271.271,0,0,1,.2.185l0,.01,1.186,5.359L11.7,17.7l1.915-4.337,1.934-4.332,1.94-4.33L19.452.377A.822.822,0,0,1,20.394.03.578.578,0,0,1,20.9.6V.609l-.77,7.01-.812,7.007-.823,7.006-.854,7L16.044,28.4c1.235-2.953,2.506-5.9,3.765-8.845l1.893-4.42,1.917-4.414,0-.011a.7.7,0,0,1,.8-.305.505.505,0,0,1,.439.47l-.29,5.628-.314,5.627-.826-.118,2.776-5.324,0-.009a.291.291,0,0,1,.3-.125l5.25.671,5.247.689-5.291-.467-5.287-.485.3-.133-2.494,5.4a.472.472,0,0,1-.54.2.338.338,0,0,1-.286-.3v-.012l.079-5.631.1-5.631L24.836,11,23.051,15.45l-1.809,4.44c-1.209,2.959-2.407,5.921-3.64,8.874a.892.892,0,0,1-1.022.4c-.373-.087-.6-.356-.57-.635v0l.812-7.007.842-7,.854-7,.9-7,1.444.232-2.048,4.3-2.069,4.3-2.074,4.3-2.093,4.29-.005.011a.513.513,0,0,1-.588.2.382.382,0,0,1-.3-.278l-.924-5.388.624.063L9.86,14.986l0,.007a.273.273,0,0,1-.265.1q-4.8-.609-9.59-1.244" transform="translate(0 4.51) rotate(-7)" fill="#fff"/>
        </g>
      </g>
      <path id="Trazado_1271669" data-name="Trazado 1271669" d="M79.8,53.239V66.476a.9.9,0,0,1-.9.895H68.265a.9.9,0,0,0-.9.9V78.909a.9.9,0,0,1-.9.9H53.239a.9.9,0,0,1-.9-.9V68.266a.9.9,0,0,0-.895-.9H40.767a.9.9,0,0,1-.9-.895V53.239a.9.9,0,0,1,.9-.9H51.449a.9.9,0,0,0,.895-.895V40.768a.9.9,0,0,1,.9-.9H66.475a.9.9,0,0,1,.9.9V51.449a.9.9,0,0,0,.9.895H78.908a.9.9,0,0,1,.9.9" transform="translate(639.255 4862.017)" fill="#8d1939"/>
    </g>
  </g>
</svg>
