<svg xmlns="http://www.w3.org/2000/svg" xmlns:xlink="http://www.w3.org/1999/xlink" width="85" height="85" viewBox="0 0 85 85">
  <defs>
    <clipPath id="clip-path">
      <rect id="Rectángulo_460489" data-name="Rectángulo 460489" width="61.329" height="62.864" fill="#8d1939"/>
    </clipPath>
  </defs>
  <g id="Grupo_1210729" data-name="Grupo 1210729" transform="translate(-0.422 -0.436)">
    <path id="Sustracción_110" data-name="Sustracción 110" d="M0,0H85V85H0Z" transform="translate(0.422 0.436)" fill="#ffe19a"/>
    <g id="Grupo_1180408" data-name="Grupo 1180408" transform="translate(11.529 11.742)">
      <g id="Grupo_1099618" data-name="Grupo 1099618" transform="translate(0.084 -0.09)">
        <rect id="Rectángulo_401104" data-name="Rectángulo 401104" width="62.81" height="63.566" transform="translate(0)" fill="none"/>
      </g>
      <g id="Grupo_1210889" data-name="Grupo 1210889" transform="translate(1.019 -0.09)">
        <g id="Grupo_1210888" data-name="Grupo 1210888" clip-path="url(#clip-path)">
          <path id="Trazado_1272144" data-name="Trazado 1272144" d="M46.174,56.457c-9.639,8.73-23.218,8.748-31.929-1.237-3.2-.27-7.012.374-10.141.009a1.748,1.748,0,0,1-1.323-.667L2.666,43.2C.016,40.3-.974,36.382,1.162,32.854c.295-.487,1.369-1.532,1.465-1.85.349-1.16-.066-4.213.048-5.692C3.384,16.081,9.739,7.134,17.933,3,34.72-5.469,55.487,4.834,58.382,23.386c.335,2.146-.1,6.178.331,7.618.108.361.758.771,1.023,1.187,2.516,3.94,1.968,7.574-1.064,11.006l-.011,11.028-1,.993-10.17.011c-.678.095-.9.85-1.321,1.228M56.231,29.613c1.015-17.673-15-31.528-32.485-26.777C11.993,6.03,4.344,17.6,5.108,29.613a8.393,8.393,0,0,1,3.762-.44c.249-.249-.317-5.857.167-7.009a1.431,1.431,0,0,1,.5-.61c.809-.384,5.42-.029,6.76-.1a28.263,28.263,0,0,0,16.7-6.3c.828-.709,3.7-4.1,4.5-4.036a3.912,3.912,0,0,1,.978.446c.324.353,1.343,3.08,1.909,3.947A12.864,12.864,0,0,0,46.6,20.566c1.217.434,4.88.77,5.333,1.082,1.066.735.3,6.118.535,7.525,1.27.037,2.606-.217,3.762.44m-6.418-5.738A14.833,14.833,0,0,1,37.2,14.822a31.469,31.469,0,0,1-15.44,8.549c-3.406.684-6.774.494-10.232.5.727,10.011-2.5,21.279,4.536,29.588C27.371,66.815,48.718,59.455,49.824,42.1c.377-5.927-.3-12.254-.011-18.221M8.869,42.418V31.932c-.943-.81-3.031.024-3.97.676C.162,35.9,3.306,43.116,8.869,42.418m43.6,0a5.5,5.5,0,0,0,5.714-7.8c-.9-1.819-3.808-3.761-5.714-2.69ZM5.106,44.626v7.948h7.083c-.65-1.38-1.413-2.695-1.936-4.14a19.9,19.9,0,0,1-.943-3.587c-1.457.478-2.745-.126-4.2-.22m51.127,0c-1.447.124-2.759.588-4.2.219a18.6,18.6,0,0,1-2.878,7.729h7.083Z" transform="translate(0 0)" fill="#8d1939"/>
          <path id="Trazado_1272145" data-name="Trazado 1272145" d="M192.632,111.973a2.557,2.557,0,0,1,.925-.42c1.373-.026,3.7,4.311,3.856,5.556.816,6.386-8.875,6.172-7.4-.574a16.347,16.347,0,0,1,2.617-4.562m.927,3.245c-.946.769-1.872,4.005,0,3.993,2.015-.013,1.149-3.161,0-3.993" transform="translate(-147.839 -86.924)" fill="#8d1939"/>
          <path id="Trazado_1272146" data-name="Trazado 1272146" d="M159.055,84.4c1.827-1.464,4.04,2.912,4.134,4.263.275,3.969-5.564,4.918-6.175,1.064a7.284,7.284,0,0,1,2.041-5.328m.6,5.23c1.344.158.911-1.341.328-1.985a1.873,1.873,0,0,0-.328,1.985" transform="translate(-122.235 -65.533)" fill="#8d1939"/>
          <path id="Trazado_1272147" data-name="Trazado 1272147" d="M119.481,215.014a6.333,6.333,0,0,1,4.558.868c.916.608,2.815,2.936,1.1,3.45-1.81.543-2.165-1.9-4.383-1.9-2.1,0-2.893,2.8-4.4,1.919-2.188-1.284,1.584-4.076,3.121-4.336" transform="translate(-90.087 -167.466)" fill="#8d1939"/>
          <path id="Trazado_1272148" data-name="Trazado 1272148" d="M82.489,123.173a1.325,1.325,0,0,1,1.565,1.792c-.364,1.2-4.011,2.437-5.18,2.562-1.266.136-5.768-.092-4.489-2.266.77-1.308,1.536-.426,2.519-.359a7.435,7.435,0,0,0,3.513-.472c.716-.293,1.559-1.149,2.072-1.257" transform="translate(-57.745 -95.95)" fill="#8d1939"/>
          <path id="Trazado_1272149" data-name="Trazado 1272149" d="M170.7,160.637a2.421,2.421,0,0,1-1.778.233c-1.709-.5-1.545-6.244,1.389-4.917,1.2.545,1.172,3.951.389,4.684" transform="translate(-130.683 -121.368)" fill="#8d1939"/>
          <path id="Trazado_1272150" data-name="Trazado 1272150" d="M92.135,156.286c.7-.561,2.276-.4,2.545.532.251.874.305,3.9-.775,4.212-3.036.884-2.65-4.039-1.77-4.744" transform="translate(-71.251 -121.528)" fill="#8d1939"/>
        </g>
      </g>
    </g>
  </g>
</svg>
