<svg xmlns="http://www.w3.org/2000/svg" xmlns:xlink="http://www.w3.org/1999/xlink" width="85" height="85" viewBox="0 0 85 85">
  <defs>
    <clipPath id="clip-path">
      <rect id="Rectángulo_461038" data-name="Rectángulo 461038" width="41.872" height="69.4" fill="#8d1939"/>
    </clipPath>
  </defs>
  <g id="Grupo_1209935" data-name="Grupo 1209935" transform="translate(0.289 0.358)">
    <path id="Sustracción_110" data-name="Sustracción 110" d="M0,0H85V85H0Z" transform="translate(-0.289 -0.358)" fill="#ffe19a"/>
    <g id="Grupo_1212109" data-name="Grupo 1212109" transform="translate(21.711 7.642)">
      <g id="Grupo_1212108" data-name="Grupo 1212108" clip-path="url(#clip-path)">
        <path id="Trazado_1277696" data-name="Trazado 1277696" d="M20.083,61.069c2.147.339,3.726,2.545,3.937,4.629.108,1.068.263,3.166-.973,3.553l-21.78.1c-.564-.008-.953-.5-1.229-.937L0,26.119A16.215,16.215,0,0,1,16.913,11.427c-.051-1.248,1.222-2.345,1.542-3.282.675-1.979.377-2.916,2.478-4.218a9.3,9.3,0,0,0,2.689-2.233c2.719-2.669,6.4-1.967,8.868.6.7.732,1.451,1.416,2.16,2.172,5.45,5.817.706,12.283-4.344,16.124A9.108,9.108,0,0,1,23.259,22.1a2.847,2.847,0,0,0,1.619,4.14c3.327,1.182,9.523-.177,13.21.377a4.761,4.761,0,0,1,3.653,4.223c.407,4.023-.288,8.692-.009,12.785-.293,1.9-2.745,1.19-2.745.209V35.47l-2.757.394V66.582h2.757V55.457a8.076,8.076,0,0,1,.443-.835c.567-.546,2.157-.266,2.272.681l0,13.111a2.562,2.562,0,0,1-.751.824,41.211,41.211,0,0,1-6.186.09c-.389-.062-1.1-.488-1.1-.874V35.864c-4.555-.061-9.36.393-13.587-1.575ZM26.921,2.828c-1.743.362-1.869,2.206-2.707,2.806-.532.381-1.029.21-1.562.407-2.533.936-1.529,5.3,1.623,4.575.769-.177,1.14-1.113,1.765-1.383,1.073-.464,1.946.478,3.561-.576a3.26,3.26,0,0,0-2.68-5.83m5.1,7.368a6.549,6.549,0,0,1-3.2,1.629c-.482.095-1.033-.079-1.518.057-.261.073-.843.674-1.28.886a4.975,4.975,0,0,1-6.244-1.12c-2.022,4.618,2.642,9.1,7.382,7.575,1.722-.555,6.109-4.947,6.733-6.657a6.34,6.34,0,0,0-.236-4.86,24.291,24.291,0,0,1-1.642,2.49M2.754,25.723V39.408H17.03l.3-.3v-6.3a21.207,21.207,0,0,1-4.3-4.369c-.689-1.015-3.226-4.933-.706-5.18,1.488-.146,1.614,1.517,2.212,2.493a14.577,14.577,0,0,0,11.939,7.359A74.981,74.981,0,0,0,37.3,33.094a1.916,1.916,0,0,0,.4-3.724c-4.216-.346-9.433.644-13.484-.5-3.568-1-4.689-4.52-3.564-7.846a9.461,9.461,0,0,1-4.143-6.8c-6.546-.5-13.095,4.955-13.757,11.493m0,35.149H8.662v-18.9H2.754Zm8.664,0h5.907v-18.9H11.418Zm1.181,5.71a2.877,2.877,0,0,0-2.461-3.151H2.754v3.151Zm8.664,0A2.877,2.877,0,0,0,18.8,63.432H14.766l.591,3.151Z" transform="translate(0 0)" fill="#8d1939"/>
        <path id="Trazado_1277697" data-name="Trazado 1277697" d="M201.012,246.246a1.349,1.349,0,1,1-1.349-1.349,1.349,1.349,0,0,1,1.349,1.349" transform="translate(-159.262 -196.673)" fill="#8d1939"/>
      </g>
    </g>
  </g>
</svg>
