<svg xmlns="http://www.w3.org/2000/svg" xmlns:xlink="http://www.w3.org/1999/xlink" width="150" height="150.335" viewBox="0 0 150 150.335">
  <defs>
    <clipPath id="clip-path">
      <rect id="Rectángulo_460584" data-name="Rectángulo 460584" width="63.653" height="81" fill="#6a2874"/>
    </clipPath>
  </defs>
  <g id="Grupo_1210786" data-name="Grupo 1210786" transform="translate(-561.48 -8566.713)">
    <g id="Grupo_1207828" data-name="Grupo 1207828" transform="translate(561.711 8567.084)">
      <g id="Grupo_1177470" data-name="Grupo 1177470" transform="translate(0 0)">
        <circle id="Elipse_13609" data-name="Elipse 13609" cx="75" cy="75" r="75" transform="translate(-0.23 -0.371)" fill="#f6e1fe"/>
        <g id="Grupo_1207827" data-name="Grupo 1207827" transform="translate(42.621 32.62)">
          <g id="Grupo_1099618" data-name="Grupo 1099618" transform="translate(-9.851 0.009)">
            <rect id="Rectángulo_401104" data-name="Rectángulo 401104" width="84.532" height="84.532" transform="translate(0)" fill="none"/>
          </g>
          <g id="Grupo_1211046" data-name="Grupo 1211046" transform="translate(0.149 2.008)">
            <g id="Grupo_1211045" data-name="Grupo 1211045" clip-path="url(#clip-path)">
              <path id="Trazado_1273223" data-name="Trazado 1273223" d="M2.488,64.859C-.392,67.131.041,61.7.16,59.98c.474-6.868,5.531-12.233,12.533-12.4L12.682,18.24c1-15.7,19.188-23.91,31.426-13.783,8.859,7.331,6.622,17.918,6.824,28.156-.237,1.69-2.3,1-2.3.477V29.032H45.852v4.986c0,6.665-7.624,12.711-14.018,12.647-6.468-.065-14.04-6.13-14.04-12.878V29.032H15.01V48.163l8.977,7.255H39.657l8.86-7.14.124-10.543c.2-1.057,1.445-1.02,2.1-.432l.212,10.282A12.823,12.823,0,0,1,63.472,59.76c.078,1.018.186,4.573-.353,5.205-.607.712-1.963.324-1.963-.106V60.221a16.53,16.53,0,0,0-1.044-4.29c-1.624-3.678-6.035-6.455-10.083-5.908-2.182,1.384-8.567,8-10.787,8H35.649V78.657H50.026V74.135c0-.757,2.319-.757,2.319,0v4.522h8.464l.348-.348V68.917c1.326-.387,2.139-.553,2.323,1.039a64.9,64.9,0,0,1-.018,9.73c-.13.8-.622,1.4-1.48,1.3L1.218,80.971A1.431,1.431,0,0,1,.183,79.686a67.177,67.177,0,0,1,0-9.942c.28-1.811,2.3-.944,2.3-.479v9.044l.348.348H11.3V74.135c0-.757,2.319-.757,2.319,0v4.522H28V58.019H24.4c-2.22,0-8.6-6.611-10.787-8-4.048-.547-8.459,2.23-10.083,5.908a16.522,16.522,0,0,0-1.044,4.29ZM43.862,7.6C32.379-4.2,13.425,5.517,15.112,21.395l2.7.116c1.008-3.664,3.135-4.987,6.817-5.242a125.412,125.412,0,0,1,14.166,0c3.794.238,5.992,1.422,7.047,5.243h2.58A16.607,16.607,0,0,0,43.862,7.6M20.692,21.612H42.953l.248-.473a3.733,3.733,0,0,0-2.582-2.3c-5.5.375-11.754-.55-17.157-.027a3.506,3.506,0,0,0-3.019,2.322Zm-2.9,2.317H15.009l.218,2.682,2.554-.141Zm25.738,0H20.112v7.536l.348.348h7.42c.816,0,1.81-2.569,3.942-2.569s3.126,2.569,3.942,2.569h7.42l.348-.348Zm5.1,0H45.851l.013,2.541,2.554.141Zm-25.741,10.2-2.554.119A9.733,9.733,0,0,0,22.895,39.7Zm15.3,0H25.445v8c3.662,2.9,8.807,2.4,12.754.348Zm2.551,0v5.8a3.485,3.485,0,0,0,.886-1.086,12.936,12.936,0,0,0,1.671-4.363c.025-.487,0-.3-.346-.35-.671-.1-1.512.072-2.211,0M33.1,58.019H30.547V78.657H33.1Z" transform="translate(0 0)" fill="#6a2874"/>
              <path id="Trazado_1273224" data-name="Trazado 1273224" d="M49.146,273.4l12.826.067c.681.4.612,5.773.285,6.551a1.61,1.61,0,0,1-.519.64l-12.517-.006a1.989,1.989,0,0,1-.58-.58,35.7,35.7,0,0,1-.115-5.9.894.894,0,0,1,.62-.772m10.968,2.272H50.839v2.783h8.928c.68-.673.228-1.888.348-2.783" transform="translate(-37.22 -210.003)" fill="#6a2874"/>
              <path id="Trazado_1273225" data-name="Trazado 1273225" d="M166.075,273.366l12.833.077c.386.214.423.523.473.918a34.04,34.04,0,0,1-.132,5.687,1.989,1.989,0,0,1-.58.58l-12.517.006a1.918,1.918,0,0,1-.706-1.613c-.089-.981-.247-5.359.629-5.654m10.976,2.281h-9.276c.12.895-.332,2.109.348,2.783h8.928Z" transform="translate(-127.026 -209.975)" fill="#6a2874"/>
              <path id="Trazado_1273226" data-name="Trazado 1273226" d="M91.711,200.325c.4-.056,2.972,1.493,3.711,1.77a17.6,17.6,0,0,0,13.275-.528c.92-.394,2.366-1.952,3.266-.709,1.212,1.672-2.732,3.14-3.9,3.556a19.92,19.92,0,0,1-12.453.272c-1.034-.317-4.859-1.894-5.008-2.9a1.332,1.332,0,0,1,1.106-1.465" transform="translate(-69.573 -153.871)" fill="#6a2874"/>
            </g>
          </g>
        </g>
      </g>
      <ellipse id="Elipse_13678" data-name="Elipse 13678" cx="18.074" cy="18.074" rx="18.074" ry="18.074" transform="translate(0.769 113.817)" fill="#da9dfe"/>
      <g id="Grupo_1207826" data-name="Grupo 1207826" transform="translate(0 116.123)">
        <path id="Trazado_998481" data-name="Trazado 998481" d="M0,13.012q4.541.393,9.077.815l-.253.1,1.3-2.34a.35.35,0,0,1,.4-.123.254.254,0,0,1,.184.174l0,.009,1.114,5.034-.836-.059,1.8-4.073,1.816-4.068,1.822-4.067L18.27.354a.772.772,0,0,1,.885-.326.543.543,0,0,1,.472.536V.572L18.9,7.156l-.762,6.581-.773,6.58-.8,6.579-1.5-.222c1.16-2.774,2.354-5.539,3.536-8.307l1.778-4.152,1.8-4.146,0-.01a.657.657,0,0,1,.753-.287.475.475,0,0,1,.413.442L23.082,15.5l-.295,5.285-.776-.111,2.607-5,0-.008a.274.274,0,0,1,.277-.117l4.931.63,4.928.647-4.969-.438-4.966-.456.281-.125L22.763,20.88a.443.443,0,0,1-.508.185.318.318,0,0,1-.269-.285v-.011l.074-5.289.1-5.289,1.17.145-1.676,4.175-1.7,4.17c-1.136,2.779-2.26,5.561-3.418,8.335a.838.838,0,0,1-.96.376c-.35-.082-.566-.334-.536-.6v0l.762-6.581.791-6.579.8-6.579L18.234.48,19.59.7,17.666,4.738,15.723,8.774l-1.948,4.035-1.966,4.029-.005.01a.482.482,0,0,1-.552.192.359.359,0,0,1-.279-.261L10.1,11.718l.586.059-1.431,2.3,0,.007a.257.257,0,0,1-.249.1Q4.5,13.609,0,13.012" transform="translate(0 4.236) rotate(-7)" fill="#fff"/>
      </g>
    </g>
    <path id="Trazado_1267128" data-name="Trazado 1267128" d="M77.377,52.427V64.859a.84.84,0,0,1-.841.84h-10a.841.841,0,0,0-.841.841v10a.841.841,0,0,1-.841.841H52.427a.841.841,0,0,1-.841-.841v-10a.841.841,0,0,0-.84-.841H40.713a.841.841,0,0,1-.841-.84V52.427a.841.841,0,0,1,.841-.841H50.745a.84.84,0,0,0,.84-.84V40.714a.841.841,0,0,1,.841-.841H64.858a.841.841,0,0,1,.841.841V50.746a.841.841,0,0,0,.841.84h10a.841.841,0,0,1,.841.841" transform="translate(630.197 8531.593)" fill="#8d1939"/>
  </g>
</svg>
