<svg xmlns="http://www.w3.org/2000/svg" xmlns:xlink="http://www.w3.org/1999/xlink" width="150" height="150" viewBox="0 0 150 150">
  <defs>
    <clipPath id="clip-path">
      <rect id="Rectángulo_460585" data-name="Rectángulo 460585" width="82.275" height="66.209" fill="#6a2874"/>
    </clipPath>
  </defs>
  <g id="Grupo_1210787" data-name="Grupo 1210787" transform="translate(-561.711 -8567.084)">
    <g id="Grupo_1207828" data-name="Grupo 1207828" transform="translate(561.711 8567.084)">
      <g id="Grupo_1177470" data-name="Grupo 1177470" transform="translate(0 0)">
        <circle id="Elipse_13609" data-name="Elipse 13609" cx="75" cy="75" r="75" fill="#f6e1fe"/>
        <g id="Grupo_1207827" data-name="Grupo 1207827" transform="translate(32.621 32.621)">
          <g id="Grupo_1099618" data-name="Grupo 1099618" transform="translate(-2.851 0.009)">
            <rect id="Rectángulo_401104" data-name="Rectángulo 401104" width="84.532" height="84.532" transform="translate(0)" fill="none"/>
          </g>
          <g id="Grupo_1211048" data-name="Grupo 1211048" transform="translate(-1.851 9.009)">
            <g id="Grupo_1211047" data-name="Grupo 1211047" clip-path="url(#clip-path)">
              <path id="Trazado_1273227" data-name="Trazado 1273227" d="M59.04,9.385l.029,3.364c19.324,2.813,29.658,24.7,18.8,41.329A26.921,26.921,0,0,1,47.8,65.144c-1.319-.376-2.906-1.348-4.152-1.5-5.514-.675-12.617.752-18.08-.019a1.343,1.343,0,0,1-.581-2.517H39.539a28.657,28.657,0,0,1-7.688-8.984l-12.463-.117c-1.3-.383-.81-2.487.226-2.487H30.494A47.328,47.328,0,0,1,28.475,40.8c-6.246-.307-12.656.432-18.824-.391A1.429,1.429,0,0,1,9.7,38.47l18.78-.3,2.019-9H.677c-.613,0-1.041-1.772-.235-2.283l31.28-.3a33.355,33.355,0,0,1,7.058-8.2c.276-.252.6-.248.476-.8H30.777c-.273-.9-.595-1.751.482-2.2,3.8-.457,8.369.426,12.071-.082,1.267-.174,3.312-1.315,4.749-1.751,1.137-.345,2.43-.473,3.585-.795l.028-3.364H45.05c-2.7,0-2.97-6.081-1.838-7.773A3.2,3.2,0,0,1,45.887.33a140.816,140.816,0,0,1,19.243,0,3.245,3.245,0,0,1,2.74,1.781c.69,1.709.521,7.276-2.188,7.276Zm6.5-6.5H45.615a4.065,4.065,0,0,0,0,3.957H65.541Zm-8.76,6.5H54.234V12.5h2.547ZM72.508,56.769c12.205-12.029,8.326-32.981-7.431-39.712-20-8.543-40.171,11.189-32.254,31.406,6.261,15.989,27.44,20.374,39.685,8.306" transform="translate(0 0)" fill="#6a2874"/>
              <path id="Trazado_1273228" data-name="Trazado 1273228" d="M122.705,142.2c3.108,12.561,19.026,17.123,28.547,8.341.974-.9,2.863-3.879,3.461-4.179a1.312,1.312,0,0,1,1.87,1.284c-.169,1.12-3.486,4.613-4.484,5.439-11.25,9.316-28.953,3.358-31.944-10.883-.617.3-.361,1.1-1.2,1.492-1.125.529-2.091-.218-1.784-1.492.155-.644,2.659-4.881,3.188-5.044a1.484,1.484,0,0,1,1.373.224c.859.5,4.044,3.863,3.759,4.9-.753,1.347-1.891.79-2.783-.08" transform="translate(-84.011 -98.334)" fill="#6a2874"/>
              <path id="Trazado_1273229" data-name="Trazado 1273229" d="M172.044,84.075c.714-1.519,3.152-1.958,2.974.03-.081.906-2.567,5.484-3.446,5.563-.494.044-4.563-3.615-4.714-3.965-.546-1.262.277-2.253,1.59-1.861.313.094,1.509,1.664,1.324.668-2.286-12.3-18.946-16.824-28.258-8.775-.976.844-3.794,4.62-4.392,4.68-.913.09-1.347-.685-1.258-1.541.143-1.385,4.036-5.159,5.278-6.055,11.349-8.19,27.78-2.385,30.9,11.257" transform="translate(-97.456 -49.536)" fill="#6a2874"/>
              <path id="Trazado_1273230" data-name="Trazado 1273230" d="M181.83,89.428c2.458-.127,5.964,1.092,5.984,4.024-1.161,3.156-.971,8.942-2.4,11.741-1.1,2.155-5.254,2.053-6.492-.022-.207-3.128-2.859-10.267-2.009-13,.529-1.7,3.312-2.658,4.914-2.742m1.392,14.556c.7-.812,1.31-8.9,2.047-10.524-.368-1.893-5.064-1.933-5.8-.716a3.345,3.345,0,0,0-.1,1.809,92.307,92.307,0,0,0,1.811,9.21,1.37,1.37,0,0,0,2.043.22" transform="translate(-126.794 -64.146)" fill="#6a2874"/>
              <path id="Trazado_1273231" data-name="Trazado 1273231" d="M184.086,157.338c5.278-.7,7.229,6.459,2.58,8.519-6.356,2.816-9.178-7.645-2.58-8.519m-.014,2.526a2.017,2.017,0,0,0-.131,3.69c3.531,1.537,3.761-4.768.131-3.69" transform="translate(-129.351 -112.835)" fill="#6a2874"/>
            </g>
          </g>
        </g>
      </g>
      <ellipse id="Elipse_13678" data-name="Elipse 13678" cx="18.074" cy="18.074" rx="18.074" ry="18.074" transform="translate(0.769 113.817)" fill="#da9dfe"/>
      <g id="Grupo_1207826" data-name="Grupo 1207826" transform="translate(0 116.123)">
        <path id="Trazado_998481" data-name="Trazado 998481" d="M0,13.012q4.541.393,9.077.815l-.253.1,1.3-2.34a.35.35,0,0,1,.4-.123.254.254,0,0,1,.184.174l0,.009,1.114,5.034-.836-.059,1.8-4.073,1.816-4.068,1.822-4.067L18.27.354a.772.772,0,0,1,.885-.326.543.543,0,0,1,.472.536V.572L18.9,7.156l-.762,6.581-.773,6.58-.8,6.579-1.5-.222c1.16-2.774,2.354-5.539,3.536-8.307l1.778-4.152,1.8-4.146,0-.01a.657.657,0,0,1,.753-.287.475.475,0,0,1,.413.442L23.082,15.5l-.295,5.285-.776-.111,2.607-5,0-.008a.274.274,0,0,1,.277-.117l4.931.63,4.928.647-4.969-.438-4.966-.456.281-.125L22.763,20.88a.443.443,0,0,1-.508.185.318.318,0,0,1-.269-.285v-.011l.074-5.289.1-5.289,1.17.145-1.676,4.175-1.7,4.17c-1.136,2.779-2.26,5.561-3.418,8.335a.838.838,0,0,1-.96.376c-.35-.082-.566-.334-.536-.6v0l.762-6.581.791-6.579.8-6.579L18.234.48,19.59.7,17.666,4.738,15.723,8.774l-1.948,4.035-1.966,4.029-.005.01a.482.482,0,0,1-.552.192.359.359,0,0,1-.279-.261L10.1,11.718l.586.059-1.431,2.3,0,.007a.257.257,0,0,1-.249.1Q4.5,13.609,0,13.012" transform="translate(0 4.236) rotate(-7)" fill="#fff"/>
      </g>
    </g>
    <path id="Trazado_1267128" data-name="Trazado 1267128" d="M77.377,52.427V64.859a.84.84,0,0,1-.841.84h-10a.841.841,0,0,0-.841.841v10a.841.841,0,0,1-.841.841H52.427a.841.841,0,0,1-.841-.841v-10a.841.841,0,0,0-.84-.841H40.713a.841.841,0,0,1-.841-.84V52.427a.841.841,0,0,1,.841-.841H50.745a.84.84,0,0,0,.84-.84V40.714a.841.841,0,0,1,.841-.841H64.858a.841.841,0,0,1,.841.841V50.746a.841.841,0,0,0,.841.84h10a.841.841,0,0,1,.841.841" transform="translate(630.197 8531.593)" fill="#8d1939"/>
  </g>
</svg>
