<svg xmlns="http://www.w3.org/2000/svg" xmlns:xlink="http://www.w3.org/1999/xlink" width="101" height="101" viewBox="0 0 101 101">
  <defs>
    <clipPath id="clip-path">
      <rect id="Rectángulo_460727" data-name="Rectángulo 460727" width="41.825" height="78.413" fill="none"/>
    </clipPath>
  </defs>
  <g id="Grupo_1211276" data-name="Grupo 1211276" transform="translate(-361.711 -4767)">
    <rect id="Rectángulo_460136" data-name="Rectángulo 460136" width="101" height="101" rx="50.5" transform="translate(361.711 4767)" fill="#fee7ec"/>
    <g id="Grupo_1211275" data-name="Grupo 1211275" transform="translate(391.711 4778)">
      <g id="Grupo_1211274" data-name="Grupo 1211274" clip-path="url(#clip-path)">
        <path id="Trazado_1273945" data-name="Trazado 1273945" d="M19.751,2.313c.025.026.278-.068.357.035a6.249,6.249,0,0,1,.745,1.737,37.908,37.908,0,0,1,.294,4.265c.311,8.078-1.046,16.839-.413,24.792.03.371.257,2,.623,1,.661-1.8.847-6.077.969-8.15.374-6.369-.277-13.4.4-19.622C22.868,5.038,23.51,3.446,25,3.3c2.3-.228,2.845,1.665,3.22,3.529,2.207,10.972.47,23.162,2.491,34.179.253,1.379.6,2.762.936,4.12.287.037.356-.52.376-.709a110.463,110.463,0,0,1,2.05-11.231c.621-2.923,2.069-9.392,6.094-9.069.055.515-.508.5-.661.84-.341.758-.556,4.244-.146,4.823.389.55,1.386.51,2,.481-.735,6.689-.674,13.448-1.391,20.116-.612,5.689-5.8,12.03-7.474,17.3-.879,2.77-.743,6.164-1.072,9.037-.124,1.084-.172,1.523-1.2,1.968-3.912,1.688-16.654,1.428-21.043.707-1.15-.189-4.118-.6-4.092-2.05a83.646,83.646,0,0,0,.174-9.1C4.655,61.7.783,54.884.328,48a184.685,184.685,0,0,1-.01-21.81c.144-2.439.87-10.235,2.3-11.975a2.234,2.234,0,0,1,3.864,1.471C6.754,18.639,6.1,21.566,6,24.25a119.153,119.153,0,0,0,.077,13.742l.3-.2C6.489,27.57,6.924,17.3,9.206,7.329a2.224,2.224,0,0,1,1.823-1.448c-.132.7-.794.556-1.057,1.42a16.041,16.041,0,0,0-.316,2.471c-.014,1.8,2.288,2.559,3.12,1.126a13.89,13.89,0,0,0,.442-2.747c.022-.524-.357-1.105-.008-1.477.108.143.38.132.544.542.512,1.279.057,2.348.043,3.513-.061,4.909-.454,9.783-.793,14.668.3,3.051-.371,6.758.008,9.724.035.272.15.624.4.295L15.194,6.379c.39-1.791.1-3.553,1.98-4.462-.654,1.342-1.324,5.007.706,5.339,2.906.476,2.075-3.13,1.871-4.943m5.3,1.426c-1.173.353-1.077,2.629-.923,3.617a1.537,1.537,0,0,0,2.92.367c.4-1.362.154-4.632-2-3.984M3.638,14.051C2.3,14.443,2.517,19.169,4.8,17.785c.7-.425,1.611-4.546-1.161-3.734m21.979,27.4a5.583,5.583,0,0,0-3.992-1.085c-1.426.107-2.961,1.193-4.571,1.374-1.59.179-3.7-.523-4.912-.159-1.531.46-2.093,2.489-3.291,3.452a14.361,14.361,0,0,1-1.6.829,8.736,8.736,0,0,0-1.164,2.353c-.235,1.479.223,3.088.195,4.556-.063,3.264-1.822,7.253,1.134,10.005,3.426,3.189,8.663.529,12.631.793.7.046,1.488.343,2.186.39,2.26.151,4.242.1,5.761-1.77,1.915-2.352.172-4.4.92-6.806.083-.267.412-.429.506-.683.834-2.24,1.622-3.26.331-5.592-.588-1.061-1.856-2.2-2.347-3.2-.734-1.5-.311-3.267-1.785-4.452" transform="translate(0 -1.537)" fill="#e9b39d"/>
        <path id="Trazado_1273946" data-name="Trazado 1273946" d="M84,.38A2.539,2.539,0,0,1,86.33.231c.131.087.136.434.244.545.2,1.813,1.035,5.419-1.871,4.943-2.03-.332-1.361-4-.706-5.339" transform="translate(-66.824 0)" fill="#f0d3cc"/>
        <path id="Trazado_1273947" data-name="Trazado 1273947" d="M50.085,21.79a4.367,4.367,0,0,1,1.739.131c.363.146.293.466.441.662-.349.372.031.953.008,1.477a13.891,13.891,0,0,1-.442,2.747c-.832,1.433-3.134.672-3.12-1.126a16.046,16.046,0,0,1,.316-2.471c.264-.864.925-.721,1.057-1.42" transform="translate(-39.056 -17.446)" fill="#f0d3cc"/>
        <path id="Trazado_1273948" data-name="Trazado 1273948" d="M199.661,120.062c-.611.03-1.608.069-2-.481-.41-.579-.194-4.066.146-4.823.153-.34.716-.325.661-.84.539.043,1.471.514,1.582,1.094a21.309,21.309,0,0,1,0,3.559c-.043.545-.355,1.145-.393,1.491" transform="translate(-158.305 -91.337)" fill="#f0d3cc"/>
        <path id="Trazado_1273949" data-name="Trazado 1273949" d="M48.687,196.879c1.474,1.186,1.05,2.95,1.785,4.452.491,1,1.76,2.142,2.347,3.2,1.292,2.333.5,3.352-.331,5.592-.095.254-.424.416-.506.683-.747,2.406,1,4.454-.92,6.806-1.519,1.866-3.5,1.921-5.761,1.77-.7-.047-1.488-.343-2.186-.39-3.968-.263-9.2,2.4-12.631-.793-2.956-2.752-1.2-6.741-1.134-10.005.028-1.467-.429-3.077-.195-4.556a8.735,8.735,0,0,1,1.164-2.353,14.365,14.365,0,0,0,1.6-.829c1.2-.963,1.76-2.992,3.291-3.452,1.212-.364,3.322.338,4.912.159,1.61-.181,3.145-1.267,4.571-1.374a5.583,5.583,0,0,1,3.992,1.085" transform="translate(-23.071 -156.967)" fill="#e6998d"/>
        <path id="Trazado_1273950" data-name="Trazado 1273950" d="M122.257,10.77c2.151-.648,2.4,2.622,2,3.984a1.537,1.537,0,0,1-2.92-.367c-.155-.989-.251-3.264.923-3.617" transform="translate(-97.211 -8.568)" fill="#f0d3cc"/>
        <path id="Trazado_1273951" data-name="Trazado 1273951" d="M15.006,62.707c2.772-.812,1.862,3.309,1.161,3.734-2.282,1.384-2.5-3.342-1.161-3.734" transform="translate(-11.369 -50.193)" fill="#f0d3cc"/>
        <path id="Trazado_1273952" data-name="Trazado 1273952" d="M51.455,217.2a13.015,13.015,0,0,1-1.45,1.421c-2.6,1.683-5.588.337-8.3.419-3.631.11-7.431,2.1-10.776-.505-3.546-2.758-1.726-7.861-1.6-11.678a22.991,22.991,0,0,1-.177-2.754c.337-2.925,2.11-2.664,3.651-4.476,1.09-1.282,1.25-3.025,3.543-2.768a13.411,13.411,0,0,0,3.765.364c2.515-.282,3.569-1.784,6.473-1.278,3.6.627,2.778,3.065,3.913,5.4,1.1,2.269,3.487,3.422,2.923,6.411-.2,1.061-1.134,2.19-1.292,2.87-.474,2.043.376,4.644-.667,6.572M38.779,200.656c-1.034.234-1.934,2.009-2.616,2.736-1.882,2.005-3.994,2.985-4.272,6.035-.275,3.025,1.906,6.158,5.073,6.257,1.3.041,2.865-1,4.169-1.177,2.316-.312,6.865,1.725,7.9-1.415.667-2.024-1.036-3.4-1.242-4.9-.11-.8.543-1.55.569-2.333a2.942,2.942,0,0,0-1.618-2.944,17.917,17.917,0,0,0-2.594-.776c-1.868-.76-2.985-2.025-5.369-1.485" transform="translate(-23.048 -157.024)" fill="#e6998d"/>
        <path id="Trazado_1273953" data-name="Trazado 1273953" d="M51.4,219.6c2.384-.54,3.5.725,5.369,1.485a17.919,17.919,0,0,1,2.594.776,2.943,2.943,0,0,1,1.618,2.944c-.027.783-.68,1.531-.569,2.333.206,1.5,1.91,2.873,1.242,4.9-1.035,3.14-5.584,1.1-7.9,1.415-1.3.176-2.873,1.218-4.169,1.177-3.166-.1-5.347-3.232-5.073-6.257.278-3.05,2.39-4.03,4.272-6.035.682-.727,1.583-2.5,2.616-2.736m.483,2.9c.565.907,2.866-.482,1.156-1.255a.871.871,0,0,0-1.156,1.255m3.736,1.613c.421-.416-.561-1.413-.989-.989s.56,1.413.989.989m2.881-.99c-.612.123-.224,1.833.587,1.585.674-.206.237-1.75-.587-1.585m-8.825.992a1.459,1.459,0,0,0,.1.788c.568,1.192,2.165-1.06-.1-.788m5.092,1.25c-2.708-2.4-4.642,3.542-.644,2.9a1.639,1.639,0,0,0,.644-2.9m-7.63,1.289a.833.833,0,0,0,1.446-.165c.747-1.621-2.148-1.037-1.446.165m11.041.612c.412-.614-.777-1.783-1.271-.774-.582,1.19,1.038,1.121,1.271.774m-10.539,1.044c-1.7.353-1.5,3,.334,2.742,1.806-.251,1.731-3.17-.334-2.742M53,230.609c.866-.844-.9-2.047-1.448-.938-.43.869.819,1.551,1.448.938m4.259.994c1,1,3.43-.316,2.052-1.952-1.217-1.443-3.146.855-2.052,1.952m-2.72-.547c-.744.163-.4,1.314.192,1.187.482-.1.395-1.316-.192-1.187m-3.869.2c-.739-.726-2.161,2.159-.1,1.788,1.022-.184-.08-1.054.1-1.788" transform="translate(-35.674 -175.968)" fill="#e17f74"/>
        <path id="Trazado_1273954" data-name="Trazado 1273954" d="M84.508,246.911a1.639,1.639,0,0,1-.644,2.9c-4,.644-2.064-5.3.644-2.9" transform="translate(-65.411 -197.51)" fill="#e9b39d"/>
        <path id="Trazado_1273955" data-name="Trazado 1273955" d="M55.657,263.916c2.065-.428,2.14,2.491.334,2.742-1.839.256-2.036-2.389-.334-2.742" transform="translate(-43.688 -211.57)" fill="#e9b39d"/>
        <path id="Trazado_1273956" data-name="Trazado 1273956" d="M107.576,270.913c-1.095-1.1.835-3.4,2.052-1.952,1.379,1.636-1.055,2.95-2.052,1.952" transform="translate(-85.993 -215.279)" fill="#e9b39d"/>
        <path id="Trazado_1273957" data-name="Trazado 1273957" d="M81.226,229.207a.871.871,0,0,1,1.156-1.255c1.71.773-.591,2.162-1.156,1.255" transform="translate(-65.013 -182.672)" fill="#e9b39d"/>
        <path id="Trazado_1273958" data-name="Trazado 1273958" d="M81.19,270.061c-.629.613-1.877-.069-1.448-.938.549-1.11,2.313.093,1.448.938" transform="translate(-63.866 -215.421)" fill="#e9b39d"/>
        <path id="Trazado_1273959" data-name="Trazado 1273959" d="M70.912,278.437c-.181.734.921,1.6-.1,1.788-2.059.371-.638-2.514.1-1.788" transform="translate(-55.919 -223.152)" fill="#e9b39d"/>
        <path id="Trazado_1273960" data-name="Trazado 1273960" d="M57.4,251.042c-.7-1.2,2.194-1.787,1.446-.166a.833.833,0,0,1-1.446.166" transform="translate(-45.933 -200.352)" fill="#e9b39d"/>
        <path id="Trazado_1273961" data-name="Trazado 1273961" d="M107.9,254.093c-.233.347-1.853.416-1.271-.774.493-1.009,1.683.16,1.271.774" transform="translate(-85.397 -202.791)" fill="#e9b39d"/>
        <path id="Trazado_1273962" data-name="Trazado 1273962" d="M113.962,237.867c.824-.165,1.26,1.379.587,1.585-.811.248-1.2-1.461-.587-1.585" transform="translate(-91.132 -190.708)" fill="#e9b39d"/>
        <path id="Trazado_1273963" data-name="Trazado 1273963" d="M70.608,242.829c2.266-.272.669,1.98.1.788a1.456,1.456,0,0,1-.1-.788" transform="translate(-56.603 -194.678)" fill="#e6998d"/>
        <path id="Trazado_1273964" data-name="Trazado 1273964" d="M96.229,238.5c-.428.424-1.41-.573-.989-.989s1.41.573.989.989" transform="translate(-76.279 -190.347)" fill="#e6998d"/>
        <path id="Trazado_1273965" data-name="Trazado 1273965" d="M93.445,277.882c.587-.129.675,1.085.192,1.188-.594.126-.937-1.024-.192-1.187" transform="translate(-74.582 -222.794)" fill="#e6998d"/>
      </g>
    </g>
  </g>
</svg>
