<svg xmlns="http://www.w3.org/2000/svg" xmlns:xlink="http://www.w3.org/1999/xlink" width="603.378" height="274.757" viewBox="0 0 603.378 274.757">
  <defs>
    <linearGradient id="linear-gradient" x1="0.5" x2="0.5" y2="1" gradientUnits="objectBoundingBox">
      <stop offset="0" stop-color="#fee7ec"/>
      <stop offset="1" stop-color="#ffcce2"/>
    </linearGradient>
    <clipPath id="clip-path">
      <path id="Trazado_1271710" data-name="Trazado 1271710" d="M7.815,0H595.563c2.391,0,7.815,1.524,7.815,6.779v261.2c0,5.255-5.423,6.779-7.815,6.779H7.815c-2.392,0-7.815-1.524-7.815-6.779V6.779C0,1.524,5.423,0,7.815,0Z" transform="translate(0 0)" fill="url(#linear-gradient)"/>
    </clipPath>
    <clipPath id="clip-path-2">
      <rect id="Rectángulo_460801" data-name="Rectángulo 460801" width="134.378" height="252.663" fill="none"/>
    </clipPath>
    <clipPath id="clip-path-3">
      <rect id="Rectángulo_461290" data-name="Rectángulo 461290" width="118.634" height="252.663" fill="none"/>
    </clipPath>
  </defs>
  <g id="Grupo_1212939" data-name="Grupo 1212939" transform="translate(-810 -6478.667)">
    <g id="Grupo_1212893" data-name="Grupo 1212893">
      <g id="Grupo_1210002" data-name="Grupo 1210002" transform="translate(810 6478.667)">
        <g id="Enmascarar_grupo_1180282" data-name="Enmascarar grupo 1180282" transform="translate(0 0)" clip-path="url(#clip-path)">
          <path id="Trazado_1271709" data-name="Trazado 1271709" d="M0,0H606.436V287.841H0Z" transform="translate(-2.436 -7.137)" fill="url(#linear-gradient)"/>
        </g>
      </g>
      <g id="Grupo_1212593" data-name="Grupo 1212593">
        <g id="Grupo_1211406" data-name="Grupo 1211406" transform="translate(952 6493.333)">
          <g id="Grupo_1211405" data-name="Grupo 1211405" transform="translate(0 0)" clip-path="url(#clip-path-2)">
            <path id="Trazado_1274499" data-name="Trazado 1274499" d="M47.381,114.046a4.209,4.209,0,0,0-1.791-2.534,11.09,11.09,0,0,0-2.9-1.277c-.834-.229-1.685-.354-2.524-.551a11.112,11.112,0,0,1-8.216-7.04,26.973,26.973,0,0,1-1.355-5.906c-.209-1.429-.507-3.338-1.857-4.167a4.879,4.879,0,0,0-3.286-.293q-3.413.517-6.782,1.277c.057-.012.45,4.885.462,5.335.057,1.81.02,3.621-.071,5.429-.172,3.4-.563,6.782-.888,10.159q-.092.993-.1,1.988a2.077,2.077,0,0,0,.148.945c.549,1.1,3.3.649,4.3.649h3.067a.956.956,0,0,1,.093-.106,1.42,1.42,0,0,1,.812-.337,2.789,2.789,0,0,1,1.815.408.4.4,0,0,1,.054.034c.015.01.071,0,.089,0H40.038c2.076,0,4.152.01,6.228,0,.465,0,1,.057,1.294-.376.357-.522.14-1.592.084-2.179a8.058,8.058,0,0,0-.263-1.459" transform="translate(26.381 134.509)" fill="#231c20"/>
            <path id="Trazado_1274500" data-name="Trazado 1274500" d="M25.934,96.374a.626.626,0,0,0-.541.071,7.788,7.788,0,0,1-2.357,1.41c-.116.044-.28.152-.143.275a.6.6,0,0,0,.541.074,8.7,8.7,0,0,0,2.642-1.555c.135-.118-.027-.241-.143-.275" transform="translate(33.346 140.649)" fill="#395795"/>
            <path id="Trazado_1274501" data-name="Trazado 1274501" d="M25.582,97.327a4.293,4.293,0,0,1-2.138,1.985c-.153.064-.133.216,0,.285a.68.68,0,0,0,.558,0,4.732,4.732,0,0,0,2.344-2.162c.135-.263-.64-.349-.765-.108" transform="translate(34.07 141.878)" fill="#395795"/>
            <path id="Trazado_1274502" data-name="Trazado 1274502" d="M26.174,98.021c-.15-.017-.4-.01-.487.14q-.635,1.074-1.269,2.143c-.086.15.18.236.278.248.15.017.4.01.487-.14q.635-1.07,1.267-2.143c.089-.15-.177-.236-.276-.248" transform="translate(35.622 143.088)" fill="#395795"/>
            <path id="Trazado_1274503" data-name="Trazado 1274503" d="M26.978,98.681a.619.619,0,0,0-.28-.059c-.143,0-.362.034-.4.2a5.26,5.26,0,0,1-.858,1.968c-.037.052,0,.121.039.155a.449.449,0,0,0,.239.093.517.517,0,0,0,.487-.14,5.54,5.54,0,0,0,.886-2.076c.012-.059-.076-.123-.116-.143" transform="translate(37.121 143.975)" fill="#395795"/>
            <path id="Trazado_1274504" data-name="Trazado 1274504" d="M27.666,99.083c-.02-.165-.263-.2-.4-.2-.1,0-.416.037-.4.2a4.023,4.023,0,0,1-.293,2.039c-.121.28.659.352.763.106a4.218,4.218,0,0,0,.322-2.145" transform="translate(38.787 144.353)" fill="#395795"/>
            <path id="Trazado_1274505" data-name="Trazado 1274505" d="M45.745,102.88a43.389,43.389,0,0,0-5.449.273,38.709,38.709,0,0,1-5.525-.025,34.514,34.514,0,0,1-5.276-.893c-1.715-.413-3.414-.881-5.146-1.22a19.435,19.435,0,0,0-5.808-.359c-.108.012-.312.086-.256.229s.332.143.45.13c3.468-.374,6.87.684,10.2,1.5a37.121,37.121,0,0,0,5.24.94,38.59,38.59,0,0,0,5.412.113,55.433,55.433,0,0,1,6.157-.312c.108.007.364-.037.364-.185s-.263-.18-.364-.187" transform="translate(26.681 146.819)" fill="#395795"/>
            <path id="Trazado_1274506" data-name="Trazado 1274506" d="M32.875,118.006a6.64,6.64,0,0,1-.905,3.685,3.528,3.528,0,0,1-.253.32,2.5,2.5,0,0,1-1.663.74,6.1,6.1,0,0,1-1.847-.2,22.867,22.867,0,0,1-10.238-5.345c-.925-.841-1.653-1.9-2.625-2.686-.59-.477-.883-1.242-1.6-1.658a1.408,1.408,0,0,0-.851-.224,1.241,1.241,0,0,0-.138.027c-.814-.617-1.626-1.24-2.44-1.857-.8-.605-3.264-1.911-3.031-3.122a2.085,2.085,0,0,1,.455-.841q.609-.79,1.284-1.52l.711-.77c.081-.084.16-.172.244-.258,1.992-2.143,4.01-4.27,5.906-6.519,1.168-1.382,2.293-2.8,3.343-4.275.263-.367,2.917-4.5,2.866-4.524q3.136,1.428,6.167,3.092a4.872,4.872,0,0,1,2.44,2.221c.573,1.478-.347,3.176-1.048,4.44a26.8,26.8,0,0,0-2.5,5.52l-.059.212c-.052.187-.1.376-.143.566a13.115,13.115,0,0,0-.28,1.778c-.022.246-.037.492-.042.736a10.208,10.208,0,0,0,.13,1.887c.039.236.089.475.15.706a7,7,0,0,0,.743,1.8,6.446,6.446,0,0,0,.435.635,6,6,0,0,0,1.109,1.095,7.2,7.2,0,0,0,.622.416l.012.007c.954.563,2.091.974,2.642,1.931a3.988,3.988,0,0,1,.4,1.985" transform="translate(10.613 129.899)" fill="#231c20"/>
            <path id="Trazado_1274507" data-name="Trazado 1274507" d="M17.763,95.735a.62.62,0,0,0-.475-.271,7.806,7.806,0,0,1-2.728-.307c-.118-.034-.315-.047-.28.135a.61.61,0,0,0,.386.386,8.718,8.718,0,0,0,3.043.362c.18-.01.125-.207.054-.305" transform="translate(20.84 138.887)" fill="#395795"/>
            <path id="Trazado_1274508" data-name="Trazado 1274508" d="M17.115,96.188a4.3,4.3,0,0,1-2.905.283c-.16-.039-.236.093-.172.229a.685.685,0,0,0,.445.339,4.744,4.744,0,0,0,3.176-.3c.268-.128-.3-.664-.544-.549" transform="translate(20.46 140.397)" fill="#395795"/>
            <path id="Trazado_1274509" data-name="Trazado 1274509" d="M17.191,97.44c-.108-.106-.31-.248-.472-.182q-1.155.465-2.307.935c-.16.066,0,.3.069.367.111.106.312.248.475.182q1.151-.469,2.3-.935c.162-.066,0-.3-.069-.367" transform="translate(20.937 141.959)" fill="#395795"/>
            <path id="Trazado_1274510" data-name="Trazado 1274510" d="M17.386,98.593a.61.61,0,0,0-.187-.216c-.116-.084-.307-.192-.438-.079a5.3,5.3,0,0,1-1.874,1.045c-.061.02-.071.1-.064.148a.48.48,0,0,0,.133.219.522.522,0,0,0,.472.182,5.542,5.542,0,0,0,1.963-1.114c.047-.042.015-.145,0-.185" transform="translate(21.637 143.431)" fill="#395795"/>
            <path id="Trazado_1274511" data-name="Trazado 1274511" d="M17.721,99.54c.084-.143-.086-.325-.192-.4-.081-.059-.354-.221-.438-.079a4.013,4.013,0,0,1-1.469,1.444c-.268.15.31.681.544.549a4.264,4.264,0,0,0,1.555-1.513" transform="translate(22.705 144.531)" fill="#395795"/>
            <path id="Trazado_1274512" data-name="Trazado 1274512" d="M29.828,111.172c-.032.1-.239.1-.32.093a25.456,25.456,0,0,1-6.31-1.427,16.31,16.31,0,0,1-4.853-2.814,24.178,24.178,0,0,1-3.532-3.951c-1.087-1.451-2.106-2.957-3.24-4.374a23.016,23.016,0,0,0-1.82-2.032,7.568,7.568,0,0,0-1.481-1.2l.244-.258A7.628,7.628,0,0,1,10.2,96.535a24.186,24.186,0,0,1,1.948,2.189c2.234,2.8,4.044,6.009,6.834,8.324,2.991,2.484,6.861,3.55,10.661,3.96.081.007.216.059.182.162" transform="translate(12.076 138.989)" fill="#395795"/>
            <path id="Trazado_1274513" data-name="Trazado 1274513" d="M13.32,98.626c1.4,8.393,2.531,16.84,4.216,25.182,1.289,6.376,2.9,12.683,4.5,18.988q5.247,20.574,10.5,41.146a3.244,3.244,0,0,0,.736,1.594,3.279,3.279,0,0,0,2.524.561c3.264-.18,18.225,1.247,17.219-3.808C45.8,146.2,41.53,109.634,38.831,72.965c-.659-8.961-1.117-18.1-3.722-26.758C32.541,37.671,23.5,38.48,15.927,39.434c-6.437.814-8.725,5.055-9.7,11.288-1.86,11.866,2.106,23.75,4.725,35.471.92,4.118,1.678,8.27,2.369,12.432" transform="translate(8.388 56.734)" fill="#395795"/>
            <path id="Trazado_1274514" data-name="Trazado 1274514" d="M27.8,98.626c.851,5.117,1.6,10.248,2.445,15.367.915,5.549,2.782,9.414-.44,14.361-3.636,5.584-6.248,11.884-9.084,17.925q-3.092,6.579-6.093,13.2c-.888,1.958-1.611,3.968-2.612,5.855A45.573,45.573,0,0,0,9.2,171.792a1.083,1.083,0,0,0-.081.672,1.1,1.1,0,0,0,.394.48,22.038,22.038,0,0,0,2.721,2.032,39.509,39.509,0,0,0,4.123,1.892c1.729.775,3.365,1.754,5.119,2.47,1.385.566,2.947.785,4.145,1.587C30.83,172,36.16,163.153,41.429,154.271,49.077,141.384,56.771,128.159,56.9,112.8c.108-13.089-2.625-26.746-3.589-39.835-.659-8.961-1.117-18.1-3.722-26.758C47.018,37.671,37.973,38.48,30.4,39.434c-6.437.814-8.725,5.055-9.7,11.288-1.86,11.866,2.106,23.75,4.725,35.471.92,4.118,1.678,8.27,2.369,12.432" transform="translate(13.276 56.734)" fill="#395795"/>
            <path id="Trazado_1274515" data-name="Trazado 1274515" d="M24.206,92.707q-1.107-8.254-2.312-16.5-.675-4.623-1.38-9.242c-.044-.283-.767-.241-.728.012Q21.04,75.213,22.2,83.46t2.229,16.511q.6,4.634,1.166,9.274c.034.283.76.246.728-.012q-1.011-8.269-2.12-16.525" transform="translate(28.883 97.48)" fill="#231c20"/>
            <path id="Trazado_1274516" data-name="Trazado 1274516" d="M20.137,110.7q-1.424-4.963-2.686-9.967-1.255-4.981-2.349-10-.616-2.845-1.186-5.7c-.052-.266-.775-.216-.728.015q1.011,5.088,2.187,10.142,1.17,5.029,2.5,10.017.753,2.815,1.557,5.613c.064.224.782.172.7-.113" transform="translate(19.25 123.864)" fill="#231c20"/>
            <path id="Trazado_1274517" data-name="Trazado 1274517" d="M61.817,81.575a37.183,37.183,0,0,1-5.267,5.458,37.49,37.49,0,0,1-34.217,7.731,11.107,11.107,0,0,1-3.847-1.727,11.319,11.319,0,0,1-3.129-4.568c.359.037-.089-3.695-.1-4.15a49.217,49.217,0,0,1,.244-5.18A53.341,53.341,0,0,0,15.876,69a1.5,1.5,0,0,0-.327-.908.61.61,0,0,0-.192-.128,1.208,1.208,0,0,0-.792.049c-1.744.526-3.542.91-5.254,1.515-.384.135-.767.28-1.159.416q-1.8-5.133-3.409-10.324Q3,54.007,1.479,48.32c-.244-.913-.472-1.83-.672-2.753a36.6,36.6,0,0,1-.672-4.1c-.487-4.78.234-9.456,3.788-13.465a23.583,23.583,0,0,1,3.86-3.262c1.9-1.387,4.73-3.021,6.2-4.843s1.729-3.69,4.022-4.949a17.528,17.528,0,0,1,6.31-1.7,85.528,85.528,0,0,1,9.18-.654,6.675,6.675,0,0,1,2.519.3c.95.362,1.7,1.124,2.644,1.5,1.363.544,2.9.2,4.364.106a12,12,0,0,1,8.135,2.4,10.478,10.478,0,0,1,3.584,5.23c4.843,16.385,8.688,34.037,8.733,51.19,0,2.642-.017,6.019-1.66,8.253" transform="translate(0 18.379)" fill="#395795"/>
            <path id="Trazado_1274518" data-name="Trazado 1274518" d="M25.306,26.959a10.822,10.822,0,0,1-.428,1.734l-1.4,4.573c-.032.1-.084.229-.192.244a.276.276,0,0,1-.153-.032,104.286,104.286,0,0,1-12.164-5.941,7.039,7.039,0,0,1-2.561-2.079c-1.053-1.624-.669-3.692-.649-5.51.022-1.992.288-3.995.273-6.009A4.955,4.955,0,0,1,9.253,10.2a4.513,4.513,0,0,1,1.791-.932,16.9,16.9,0,0,1,4.546-.561,17.045,17.045,0,0,1,5.5.549A7.906,7.906,0,0,1,24.4,11.295c.945.957.878,1.82.713,3.1-.007.047-.012.1-.02.15-.042.31-.081.62-.116.932a37.393,37.393,0,0,0-.268,5c0,.182.01.364.015.546.076,1.973.841,3.97.581,5.936" transform="translate(11.201 12.696)" fill="#ffa87d"/>
            <path id="Trazado_1274519" data-name="Trazado 1274519" d="M23.49,18.4c-1.557,2.775-4.666,2.775-7.357,1.786C13.159,19.1,10.628,16.365,9.1,13.679a4.36,4.36,0,0,1-.558-1.368,1.824,1.824,0,0,1,.3-1.424c1.075-1.392,4.617-.5,6.081-.325a46.6,46.6,0,0,1,6.777,1.348A3.96,3.96,0,0,1,23,12.462a2.511,2.511,0,0,1,.758.937,37.4,37.4,0,0,0-.271,5" transform="translate(12.421 14.771)" fill="#e06f63"/>
            <path id="Trazado_1274520" data-name="Trazado 1274520" d="M29.587,11.682c.2,3.063.878,6.364.676,9.421a26.514,26.514,0,0,1-1.456,7.323c-1.9,5.308-7.881,4.546-12.083,2.637a11.779,11.779,0,0,1-5.468-5.938c-.362-.819-.632-1.675-1.023-2.482A43.96,43.96,0,0,0,7.721,18.72c-2.076-3.326-1.968-7.894-.8-11.534A10.339,10.339,0,0,1,8.7,3.729a6.562,6.562,0,0,1,2.9-1.663A21.5,21.5,0,0,1,19.251.96a15.57,15.57,0,0,1,4.7.6c1.058.342,1.638,1.328,2.428,2.02.268.236.608.369.863.622a5.245,5.245,0,0,1,.849,1.341,15.539,15.539,0,0,1,1.5,6.137" transform="translate(8.89 1.399)" fill="#ffa87d"/>
            <path id="Trazado_1274521" data-name="Trazado 1274521" d="M5.61,9.366a13.328,13.328,0,0,0,.721,7.51,32.529,32.529,0,0,0,1.86,4.142c.251.48.517,1.119.854,1.7a3.016,3.016,0,0,0,1.309,1.336c.952.4,1.378-.708,1.328-1.454-.153-2.332-.588-4.634-.716-6.966-.1-1.788-.32-4.88,2.162-5.185,1.023-.125,1.946.558,2.905.935a8.932,8.932,0,0,0,3.778.394A13.59,13.59,0,0,0,24.6,10.8a6.625,6.625,0,0,0,2.477-1.86c.221-.273,1.4-2.128.95-2.467a3.419,3.419,0,0,1,.883,1.193l.77,1.441a1.344,1.344,0,0,0,.337.46.462.462,0,0,0,.534.047A.666.666,0,0,0,30.726,9C30.263,2.88,23.137-.736,17.509.127A17.507,17.507,0,0,0,15.6.55a17.165,17.165,0,0,0-5.468,2.288A10.907,10.907,0,0,0,5.61,9.366" transform="translate(7.798 0.001)" fill="#932409"/>
            <path id="Trazado_1274522" data-name="Trazado 1274522" d="M8.379,8.2A1.92,1.92,0,0,0,6.729,9.4a3.7,3.7,0,0,0-.017,2.312,5.225,5.225,0,0,0,4.531,4.133,1.584,1.584,0,0,0,.767-.086c1.5-.662-.034-3.808-.413-4.848A4.575,4.575,0,0,0,10.165,8.7a2.613,2.613,0,0,0-1.786-.5" transform="translate(9.539 11.956)" fill="#ffa87d"/>
            <path id="Trazado_1274523" data-name="Trazado 1274523" d="M15.634,5.478a5.49,5.49,0,0,1,.945.052,5.137,5.137,0,0,1,2.1.8c.268.177,1.127.61.556.824a3.946,3.946,0,0,1-1.806-.113,10.257,10.257,0,0,0-3.38.221c-.453.084-.89.209-.994-.244a.972.972,0,0,1,.248-.986A3.427,3.427,0,0,1,14.623,5.6a5.823,5.823,0,0,1,1.011-.123" transform="translate(19.009 7.993)" fill="#932409"/>
            <path id="Trazado_1274524" data-name="Trazado 1274524" d="M11.641,6.608A7.288,7.288,0,0,0,8.52,9.151a.4.4,0,0,0-.064.14.111.111,0,0,0,.066.123.175.175,0,0,0,.106-.01,35.967,35.967,0,0,1,5.1-1.621c.512-.089,1.412-.413,1.151-1.144a.961.961,0,0,0-.9-.5,4.616,4.616,0,0,0-2.342.472" transform="translate(12.342 8.941)" fill="#932409"/>
            <path id="Trazado_1274525" data-name="Trazado 1274525" d="M14.255,8.09c-.015-.467.057-1.045.546-1.247a.681.681,0,0,1,.7.089.737.737,0,0,1,.138.153,1.092,1.092,0,0,1,.1.116,1.333,1.333,0,0,1,.28.935.954.954,0,0,1-.194.76.929.929,0,0,1-.959.207,1.023,1.023,0,0,1-.615-1.011" transform="translate(20.808 9.904)" fill="#231c20"/>
            <path id="Trazado_1274526" data-name="Trazado 1274526" d="M9.972,9.065c-.047-.482-.01-1.087.482-1.328a.828.828,0,0,1,.981.192,1.417,1.417,0,0,1,.253.487,1.533,1.533,0,0,1-.03,1.378.759.759,0,0,1-.755.315,1.06,1.06,0,0,1-.932-1.043" transform="translate(14.536 11.172)" fill="#231c20"/>
            <path id="Trazado_1274527" data-name="Trazado 1274527" d="M15.856,12.661c-.106-.2-.214-.394-.322-.588A20.215,20.215,0,0,1,13.081,6.9c-.049-.214-.632-.148-.588.042a17.414,17.414,0,0,0,2.125,4.627c.214.376.428.753.635,1.132a1.2,1.2,0,0,1,.229.617,1.177,1.177,0,0,1-.221.5A2.65,2.65,0,0,1,13.465,15c-.086.01-.293.044-.283.17s.224.14.305.128a3.316,3.316,0,0,0,2.049-1.05,1.791,1.791,0,0,0,.531-.969,1.231,1.231,0,0,0-.212-.617" transform="translate(18.235 9.882)" fill="#e06f63"/>
            <path id="Trazado_1274528" data-name="Trazado 1274528" d="M11.641,7.107a.676.676,0,0,1,.514-.263,4.015,4.015,0,0,0,3.19-1.665,4.539,4.539,0,0,0,.745-3.331c-.042-.263.7-.585.75-.261A4.894,4.894,0,0,1,15.808,5.42,5.419,5.419,0,0,1,11.776,7.37c-.172,0-.221-.13-.135-.263" transform="translate(16.933 2.117)" fill="#701807"/>
            <path id="Trazado_1274529" data-name="Trazado 1274529" d="M10.181,5a.676.676,0,0,1,.514-.263A4.62,4.62,0,0,0,14.432,2.44a.65.65,0,0,1,.514-.263c.177.007.221.118.135.263a5.939,5.939,0,0,1-4.765,2.819c-.175.007-.219-.133-.135-.263" transform="translate(14.804 3.178)" fill="#701807"/>
            <path id="Trazado_1274530" data-name="Trazado 1274530" d="M6.056,5.69A5.594,5.594,0,0,1,8.29,2.242c.118-.081.376-.209.514-.1s-.044.3-.138.359C6.314,4.121,6.386,7.39,7.158,9.825c.091.29-.647.627-.728.374A8.823,8.823,0,0,1,6.056,5.69" transform="translate(8.622 3.064)" fill="#701807"/>
            <path id="Trazado_1274531" data-name="Trazado 1274531" d="M17.664,10.79a.558.558,0,0,0-.492.027,5.848,5.848,0,0,1-4.777.979c-.116-.034-.384-.039-.45.091s.133.214.231.244a6.851,6.851,0,0,0,5.6-1.082c.138-.091-.015-.219-.108-.258" transform="translate(17.416 15.688)" fill="#e06f63"/>
            <path id="Trazado_1274532" data-name="Trazado 1274532" d="M31.238,13.657c-.123-.216-.836-.138-.7.1a17.868,17.868,0,0,1,2.236,10.12c-.8-.111-1.6-.194-2.408-.244-.477-.032-.957-.049-1.437-.057a2.38,2.38,0,0,0-1.2.167,1.045,1.045,0,0,0-.465.834c-.076.465-.135.932-.194,1.4-.1.814-.184,1.631-.253,2.45A16.4,16.4,0,0,0,25,27.669c-.792-.276-1.6-.43-2.413-.647a2.88,2.88,0,0,1-1.033-.536,1.365,1.365,0,0,0-1.149-.15c-.9.17-1.793.374-2.676.61s-1.764.536-2.649.807a1.613,1.613,0,0,1-1.2.052,3.438,3.438,0,0,1-.873-.846c-1.188-1.343-2.371-2.691-3.463-4.11-.6-.785-1.183-1.592-1.712-2.425a5.67,5.67,0,0,1-1.038-2.674c-.015-.261-.743-.251-.728,0a5.308,5.308,0,0,0,.824,2.381A25.582,25.582,0,0,0,8.408,22.37c1.08,1.459,2.263,2.836,3.461,4.2.29.33.578.662.876.986a2.022,2.022,0,0,0,.979.647,4.6,4.6,0,0,0,2.548-.4q1.358-.439,2.75-.772c.458-.108.92-.209,1.382-.3.113-.022.229-.047.344-.066a.455.455,0,0,1,.116-.02h.017l.037.025c.177.1.32.258.5.359a4.4,4.4,0,0,0,1.215.411c.477.106.954.219,1.422.362a15.089,15.089,0,0,1,2.826,1.191c.14.076.6.106.622-.13q.1-1.269.246-2.534c.049-.4.1-.807.16-1.21.044-.315.034-.8.266-1.053a.51.51,0,0,1,.406-.121c.219,0,.435,0,.654.01.411.01.822.027,1.232.054.856.059,1.707.157,2.556.29.125.02.443,0,.46-.18a18.084,18.084,0,0,0-2.243-10.462" transform="translate(8.855 19.753)" fill="#231c20"/>
            <path id="Trazado_1274533" data-name="Trazado 1274533" d="M26.918,109.72c-.5-1.614.2-4.383.3-6.076q.074-1.332.148-2.659.111-2.033.224-4.064c.064-1.136.2-2.416,1.092-3.119a4.033,4.033,0,0,1,2.091-.642l4.666-.536a1.645,1.645,0,0,1,.989.091,1.482,1.482,0,0,1,.605.959c.8,2.846-.253,5.717-.718,8.511-.438,2.632-.273,5.909-2.086,8.076-1.5,1.791-6.457,2.179-7.308-.541" transform="translate(39.034 135.172)" fill="#ffa87d"/>
            <path id="Trazado_1274534" data-name="Trazado 1274534" d="M49.854,105.068c-.172-.081-.349-.155-.526-.229a56.133,56.133,0,0,1-6.7-3.237,31.827,31.827,0,0,1-3.1-2.044,4.782,4.782,0,0,1-1.114-1.112,2.429,2.429,0,0,0-1.1-.9,1.908,1.908,0,0,0-1.791.236,4.033,4.033,0,0,0-1.045,1.791,2.7,2.7,0,0,1-1.247,1.614,2.779,2.779,0,0,1-.922.162,2.927,2.927,0,0,1-1.331-.128c-.893-.379-1.23-1.518-2.027-2.076-1.095-.767-.905.846-1.031,1.481a13.087,13.087,0,0,1-.977,2.917,14.426,14.426,0,0,0-1.277,3.331c-.293,1.592.553,2.334,2,2.789a12.384,12.384,0,0,0,3.66.526,13.137,13.137,0,0,0,1.889-.133c2.642-.374,5.382.066,8.024.258a20.91,20.91,0,0,0,7.476-.494,4.35,4.35,0,0,0,1.633-.8,2.4,2.4,0,0,0,.3-3.446,3.2,3.2,0,0,0-.8-.509" transform="translate(37.385 142.232)" fill="#fff"/>
            <path id="Trazado_1274535" data-name="Trazado 1274535" d="M50.334,102.987a.208.208,0,0,0-.187,0,13.751,13.751,0,0,1-2.256.822,10.924,10.924,0,0,1-2.484.182,36.343,36.343,0,0,1-4.964-.221,22.483,22.483,0,0,1-4.72-1.259,45.608,45.608,0,0,0-4.553-1.533,11.03,11.03,0,0,0-5.2-.192c-.052.015-.079.052-.047.093s.135.037.18.027c3.252-.767,6.479.627,9.485,1.722a22.892,22.892,0,0,0,4.659,1.257,34.363,34.363,0,0,0,4.9.241,13.087,13.087,0,0,0,2.723-.165,13.388,13.388,0,0,0,2.46-.878c.057-.022.037-.066,0-.1" transform="translate(37.827 146.798)" fill="#395795"/>
            <path id="Trazado_1274536" data-name="Trazado 1274536" d="M42.615,106.162c-.219-.62-.433-1.245-.657-1.865a1.243,1.243,0,0,0-.394-.613,1.867,1.867,0,0,0-.625-.283,14.72,14.72,0,0,1-1.56-.529,15.239,15.239,0,0,1-1.481-.723c-.981-.541-1.919-1.159-2.861-1.769-.467-.3-.937-.6-1.414-.89a10.645,10.645,0,0,0-1.525-.809,2.666,2.666,0,0,0-3.055.433c-.079.1.172.138.229.071a2.339,2.339,0,0,1,2.8-.337,19.836,19.836,0,0,1,2.753,1.614,22.539,22.539,0,0,0,5.493,2.92,7.226,7.226,0,0,1,.785.241,1.035,1.035,0,0,1,.568.632c.244.64.458,1.3.686,1.943.027.084.288.064.253-.037" transform="translate(42.378 143.657)" fill="#395795"/>
            <path id="Trazado_1274537" data-name="Trazado 1274537" d="M30.631,100.518a.261.261,0,0,1-.165-.059.271.271,0,0,1-.042-.376c.145-.187.285-.376.426-.566a9.78,9.78,0,0,1,1.225-1.456.265.265,0,0,1,.374.02.273.273,0,0,1-.022.379,9.258,9.258,0,0,0-1.156,1.38c-.143.194-.285.389-.433.578a.267.267,0,0,1-.207.1" transform="translate(44.331 143.056)" fill="#395795"/>
            <path id="Trazado_1274538" data-name="Trazado 1274538" d="M31.42,101.1a.268.268,0,0,1-.216-.423c.472-.679.922-1.387,1.338-2.1a.26.26,0,0,1,.362-.093.27.27,0,0,1,.091.366c-.423.728-.881,1.449-1.358,2.14a.263.263,0,0,1-.216.113" transform="translate(45.483 143.709)" fill="#395795"/>
            <path id="Trazado_1274539" data-name="Trazado 1274539" d="M32.261,101.561a.277.277,0,0,1-.079-.012.269.269,0,0,1-.172-.337,1.407,1.407,0,0,1,.3-.487l.015-.017a9.511,9.511,0,0,0,1.08-1.619.263.263,0,0,1,.359-.108.272.272,0,0,1,.106.364,10.246,10.246,0,0,1-1.141,1.71l-.015.017a1.033,1.033,0,0,0-.2.3.262.262,0,0,1-.251.187" transform="translate(46.713 144.45)" fill="#395795"/>
            <path id="Trazado_1274540" data-name="Trazado 1274540" d="M33.107,101.962a.267.267,0,0,1-.219-.416l1.348-2.1a.26.26,0,0,1,.364-.076.271.271,0,0,1,.076.371l-1.348,2.1a.263.263,0,0,1-.221.121" transform="translate(47.948 145.001)" fill="#395795"/>
            <path id="Trazado_1274541" data-name="Trazado 1274541" d="M33.949,102.165a.261.261,0,0,1-.155-.052.267.267,0,0,1-.057-.374A15.909,15.909,0,0,0,34.874,99.9a.263.263,0,0,1,.357-.111.27.27,0,0,1,.108.364,16.151,16.151,0,0,1-1.178,1.906.259.259,0,0,1-.212.108" transform="translate(49.175 145.629)" fill="#395795"/>
            <path id="Trazado_1274542" data-name="Trazado 1274542" d="M42.262,110.5c-.918-1.419-.977-4.278-1.341-5.933q-.284-1.3-.571-2.6l-.871-3.975c-.244-1.112-.458-2.381.216-3.3a4.042,4.042,0,0,1,1.842-1.178q2.177-.886,4.352-1.766a1.657,1.657,0,0,1,.979-.18,1.5,1.5,0,0,1,.841.763c1.533,2.531,1.284,5.576,1.587,8.393.283,2.654,1.318,5.768.15,8.341-.964,2.125-5.638,3.828-7.185,1.434" transform="translate(57.291 133.642)" fill="#ffa87d"/>
            <path id="Trazado_1274543" data-name="Trazado 1274543" d="M62.631,100.184c-.189-.032-.379-.057-.568-.081a56.036,56.036,0,0,1-7.321-1.323,31.294,31.294,0,0,1-3.535-1.139,4.891,4.891,0,0,1-1.373-.772,2.409,2.409,0,0,0-1.3-.571A1.9,1.9,0,0,0,46.873,97a4.01,4.01,0,0,0-.529,2,2.7,2.7,0,0,1-.767,1.889,2.855,2.855,0,0,1-.846.4,2.951,2.951,0,0,1-1.316.234c-.964-.125-1.592-1.134-2.512-1.459-1.259-.448-.644,1.058-.6,1.7a13.088,13.088,0,0,1-.16,3.07,14.484,14.484,0,0,0-.339,3.55c.145,1.614,1.159,2.1,2.679,2.152a12.388,12.388,0,0,0,3.665-.47,13.39,13.39,0,0,0,1.786-.635c2.445-1.068,5.2-1.378,7.8-1.9a20.924,20.924,0,0,0,7.07-2.48,4.393,4.393,0,0,0,1.363-1.205,2.4,2.4,0,0,0-.632-3.4,3.232,3.232,0,0,0-.908-.275" transform="translate(58.077 140.575)" fill="#fff"/>
            <path id="Trazado_1274544" data-name="Trazado 1274544" d="M64.009,98.752a.219.219,0,0,0-.18.049,13.6,13.6,0,0,1-1.956,1.4,10.961,10.961,0,0,1-2.344.839,36.322,36.322,0,0,1-4.841,1.117,22.521,22.521,0,0,1-4.885.052,45.347,45.347,0,0,0-4.8-.261,11.037,11.037,0,0,0-5.06,1.21c-.047.025-.061.069-.02.1s.14,0,.18-.022c2.927-1.611,6.41-1.129,9.6-.881a22.747,22.747,0,0,0,4.824-.037,34.3,34.3,0,0,0,4.789-1.08,12.851,12.851,0,0,0,2.58-.888,13.522,13.522,0,0,0,2.135-1.5c.047-.039.015-.076-.027-.093" transform="translate(58.252 144.155)" fill="#395795"/>
            <path id="Trazado_1274545" data-name="Trazado 1274545" d="M57.349,101.727c-.379-.539-.75-1.082-1.132-1.621a1.261,1.261,0,0,0-.544-.485,1.861,1.861,0,0,0-.679-.106,14.713,14.713,0,0,1-1.643-.091,15.909,15.909,0,0,1-1.621-.3c-1.09-.258-2.16-.605-3.23-.94-.531-.165-1.065-.33-1.6-.48a10.7,10.7,0,0,0-1.687-.369,2.66,2.66,0,0,0-2.824,1.235c-.052.113.2.084.236,0A2.345,2.345,0,0,1,45.237,97.5a19.873,19.873,0,0,1,3.085.819A22.427,22.427,0,0,0,54.4,99.66a7.01,7.01,0,0,1,.819.025,1.03,1.03,0,0,1,.716.455c.406.553.79,1.127,1.181,1.69.052.074.3-.015.236-.1" transform="translate(61.871 142.061)" fill="#395795"/>
            <path id="Trazado_1274546" data-name="Trazado 1274546" d="M44.056,99.459a.254.254,0,0,1-.175-.012.272.272,0,0,1-.14-.352c.089-.219.172-.438.258-.659a9.528,9.528,0,0,1,.792-1.732.258.258,0,0,1,.364-.079.272.272,0,0,1,.081.371,8.89,8.89,0,0,0-.745,1.638c-.086.224-.172.448-.263.672a.264.264,0,0,1-.172.153" transform="translate(63.826 140.996)" fill="#395795"/>
            <path id="Trazado_1274547" data-name="Trazado 1274547" d="M44.95,99.762a.255.255,0,0,1-.16-.007.268.268,0,0,1-.16-.342c.271-.782.514-1.584.723-2.384a.258.258,0,0,1,.322-.187.269.269,0,0,1,.189.327c-.214.817-.462,1.631-.738,2.425a.257.257,0,0,1-.177.167" transform="translate(65.131 141.361)" fill="#395795"/>
            <path id="Trazado_1274548" data-name="Trazado 1274548" d="M45.893,99.988a.283.283,0,0,1-.081.01.268.268,0,0,1-.253-.278,1.39,1.39,0,0,1,.155-.549l.01-.022a9.526,9.526,0,0,0,.608-1.85.264.264,0,0,1,.317-.2.273.273,0,0,1,.2.322,10.2,10.2,0,0,1-.642,1.953l-.01.02a.973.973,0,0,0-.111.347.261.261,0,0,1-.192.246" transform="translate(66.509 141.743)" fill="#395795"/>
            <path id="Trazado_1274549" data-name="Trazado 1274549" d="M46.811,100.144a.26.26,0,0,1-.15,0,.271.271,0,0,1-.172-.339l.736-2.384a.261.261,0,0,1,.332-.172.271.271,0,0,1,.172.337l-.738,2.384a.255.255,0,0,1-.18.177" transform="translate(67.849 141.946)" fill="#395795"/>
            <path id="Trazado_1274550" data-name="Trazado 1274550" d="M47.713,100.084a.267.267,0,0,1-.32-.354A15.583,15.583,0,0,0,48,97.652a.261.261,0,0,1,.312-.2.272.272,0,0,1,.2.322,16.286,16.286,0,0,1-.625,2.15.256.256,0,0,1-.175.162" transform="translate(69.163 142.254)" fill="#395795"/>
            <path id="Trazado_1274551" data-name="Trazado 1274551" d="M17.528,48.985c-.2.239-.4.485-.585.733a21.111,21.111,0,0,0-3.5,18.009,39.781,39.781,0,0,0,4.706,9.761c2.179,3.584,4.12,7.311,6.059,11.032q3.029,5.815,6.061,11.635c2.315,4.445,4.944,8.784,6.435,13.6a59.065,59.065,0,0,1,2.012,11.96c1.284,13.748,1.941,27.543,2.6,41.333l.458,9.65a1.933,1.933,0,0,0,.406,1.331,1.883,1.883,0,0,0,1.06.413,59,59,0,0,0,18.255.14,1.086,1.086,0,0,0,1.149-1.289c.676-14.262-.044-28.763-.057-43.1a114.8,114.8,0,0,0-.418-11.854c-1.3-12.444-6.13-24.34-9.623-36.273-3.555-12.142-6.988-24.318-10.617-36.44-.809-2.706-1.825-5.668-4.285-7.06a8.771,8.771,0,0,0-4.248-.922,20.783,20.783,0,0,0-15.861,7.343" transform="translate(18.6 60.791)" fill="#65bfd7"/>
            <path id="Trazado_1274552" data-name="Trazado 1274552" d="M22.16,52.774a26.507,26.507,0,0,0,1.117,6.774A149.113,149.113,0,0,0,29.026,76c5.744,14.115,12.838,27.838,16.213,42.792,3.562,15.79,7.006,31.641,10.012,47.6l1.786,9.49a1.932,1.932,0,0,0,.585,1.264,1.9,1.9,0,0,0,1.107.263,59.117,59.117,0,0,0,18.1-2.381,1.087,1.087,0,0,0,.959-1.437c-1.134-12.4-3.532-24.441-5.781-36.613-4.334-23.455-9.945-46.282-18.9-68.433q-3.07-7.6-6.524-15.045c-2.3-4.959-4.1-10.609-10.25-11.66a13.484,13.484,0,0,0-8.614,1.616,11.038,11.038,0,0,0-4.012,3.491,10.281,10.281,0,0,0-1.547,5.827" transform="translate(32.351 60.842)" fill="#65bfd7"/>
            <path id="Trazado_1274553" data-name="Trazado 1274553" d="M42.4,106.6a65.368,65.368,0,0,0-2.32-12.944c-1.191-4.295-2.607-8.526-3.955-12.772q-2.07-6.512-4.137-13.02L27.873,54.91l-.524-1.651c-.071-.224-.78-.18-.694.1l4.118,12.956,4.118,12.956c1.348,4.246,2.75,8.482,4.007,12.757a69.237,69.237,0,0,1,2.654,12.946,114.738,114.738,0,0,1,.268,13.36c-.012.568-.027,1.134-.042,1.7,0,.251.713.258.721,0,.108-4.475.216-8.961-.1-13.431" transform="translate(38.903 77.544)" fill="#395795"/>
            <path id="Trazado_1274554" data-name="Trazado 1274554" d="M29.586,82.989a89.8,89.8,0,0,1-6.064-10.641c-.106-.219-.812-.15-.691.1a89.785,89.785,0,0,0,6.061,10.641c.138.2.834.116.694-.1" transform="translate(33.31 105.426)" fill="#395795"/>
            <path id="Trazado_1274555" data-name="Trazado 1274555" d="M44.859,75.27a58.747,58.747,0,0,1,1.3-17.106c1.852-9.264,4.688-18.506,4.194-27.939a17.806,17.806,0,0,0-1.048-5.613c-2.015-5.092-7.753-8.029-13.237-7.717h-.007a13.3,13.3,0,0,0-2.138.293,17.594,17.594,0,0,0-7.271,3.631c-4.034,3.321-6.693,8.339-5.859,13.49a83.26,83.26,0,0,1,1.5,11.126c.084,3.22-1.424,6.5-2.081,9.628q-.517,2.461-.863,4.959c-1.493,10.538-3.488,23.024,1.07,32.989a2.31,2.31,0,0,0,.748,1.041,2.415,2.415,0,0,0,1.6.187q13.032-1.517,25.974-3.695c.194-2.748-.873-4.516-1.936-6.851a27.069,27.069,0,0,1-1.953-8.423" transform="translate(25.705 24.631)" fill="#fff"/>
            <path id="Trazado_1274556" data-name="Trazado 1274556" d="M42.453,21.988a16.107,16.107,0,0,1-2.6,2.922,10.664,10.664,0,0,1-5.889,2.371,16.652,16.652,0,0,1-6.558-.635A8.864,8.864,0,0,1,22.6,23.375,10.459,10.459,0,0,1,21.286,20.8a17.594,17.594,0,0,1,7.271-3.631,13.328,13.328,0,0,1,2.14-.293h0c4.558.216,9.045,2.054,11.751,5.107" transform="translate(31.075 24.644)" fill="#ffa87d"/>
            <path id="Trazado_1274557" data-name="Trazado 1274557" d="M13.138,61.418c-.182,2.342-.253,4.708-.465,7.035C11.4,82.415,10.81,96.582,13.5,110.4a46.393,46.393,0,0,0,16.811-2.775c1.953-.711,3.486-1.973,5.36-2.814a.637.637,0,0,0,.283-.194.658.658,0,0,0,.015-.517c-1.825-7.05-3.395-14.216-5.483-21.189-.755-2.516-1.6-5.089-1.39-7.709a19.585,19.585,0,0,1,1.215-4.77c2.861-8.243,5.692-16.415,7.773-24.886.822-3.345,1.946-6.7,2.044-10.167.123-4.337-1.488-8.393-1.6-12.71-.027-1,.086-2.172.93-2.716a2.971,2.971,0,0,1,1.788-.29c3.825.224,8.243.615,11.682,2.393a5.194,5.194,0,0,1,.728.438A6,6,0,0,1,55.432,25.4a26.7,26.7,0,0,1,1.673,7.677,47.367,47.367,0,0,1-.8,10.248q-1.225,7.771-2.856,15.473c-.915,4.312-2.615,8.221-2.728,12.661-.214,8.568,3.623,17.352,5.973,25.477a2.844,2.844,0,0,0,1.117,1.84,2.794,2.794,0,0,0,1.508.187q3.723-.24,7.431-.64c.307-.034-2.167-8.516-2.475-9.384a39.191,39.191,0,0,0-4.713-9.195A39.646,39.646,0,0,1,56.436,75c-2.8-5.591.672-14.112,2.841-19.467q2.188-5.4,4.01-10.939c1.168-3.562,2.721-6.915,3.291-10.688.347-2.3.271-4.925-1.373-6.568a8.707,8.707,0,0,0-1.38-1.053c-1.35-.9-3.35-1.774-4.317-3.08a17.627,17.627,0,0,0-2.873-3.481A15.536,15.536,0,0,0,52.058,17.2a26.067,26.067,0,0,0-9.284-1.255,13.357,13.357,0,0,0-6.243,1.151A20.284,20.284,0,0,0,31,20.963c-1.127,1.112-3.633,1.766-5.1,2.359-2.873,1.159-6.066,2.143-8.592,3.98a7.526,7.526,0,0,0-3,4.1,10.662,10.662,0,0,0,.081,4.275,83.243,83.243,0,0,1,1.5,11.128c.084,3.22-1.424,6.5-2.081,9.628a38.936,38.936,0,0,0-.664,4.986" transform="translate(16.934 23.261)" fill="#dd475d"/>
            <path id="Trazado_1274558" data-name="Trazado 1274558" d="M36.943,41.987a5.621,5.621,0,0,0,.549,4.133A13.167,13.167,0,0,0,41.87,50.2c4.612,3.1,9.335,6.046,13.765,9.4a19.889,19.889,0,0,0,5.505,3.387,2.1,2.1,0,0,0,1.045.14c.743-.138,1.823-1.81,2.175-2.462a5.183,5.183,0,0,0,.487-3.769c-.669-2.553-3.7-5.023-5.493-6.856-2.866-2.927-5.729-5.854-8.624-8.75a27.876,27.876,0,0,0-3.508-3.518,3.468,3.468,0,0,0-1.54-.5,9.727,9.727,0,0,0-6.361,1.382,5.459,5.459,0,0,0-2.379,3.333" transform="translate(53.684 54.295)" fill="#ffa87d"/>
            <path id="Trazado_1274559" data-name="Trazado 1274559" d="M63.581,51.711a9.909,9.909,0,0,0-4.765-3.318,33.146,33.146,0,0,1-5.441-2.2c-1.71-1-3.783-2.765-5.685-1.063a3.614,3.614,0,0,0-.777,1.077,8.08,8.08,0,0,0,1.166,9.072c1.294,1.321,3.151,1.948,4.548,3.161a8.992,8.992,0,0,0,1.412,1.171c.972.541,2.849.3,2.268-1.218a3.63,3.63,0,0,0-.731-1.053q-1.435-1.627-2.7-3.39c2.406-.268,4.989-.5,7.109.664a15.643,15.643,0,0,1,3.06,2.578c.428.4,1.114.792,1.537.389.1-.093.177-.226.31-.248s.273.1.381.209a2.133,2.133,0,0,0,1.85.578,2.878,2.878,0,0,0-.593-2.15,44,44,0,0,0-2.947-4.258" transform="translate(67.203 64.844)" fill="#ffa87d"/>
            <path id="Trazado_1274560" data-name="Trazado 1274560" d="M39.911,64.709a20.51,20.51,0,0,0,3.773,5.547,1.734,1.734,0,0,1,.455.625,2.872,2.872,0,0,1,.025.908c0,1.181,1.043,2.064,1.992,2.767a2.876,2.876,0,0,0,1.53.713,2.85,2.85,0,0,0,1.235-.352,29.507,29.507,0,0,0,4.77-3.3,23.977,23.977,0,0,0,5.1-4.713,4.019,4.019,0,0,0,.986-2.012,1.614,1.614,0,0,0-1.1-1.764c-.29-.062-.593-.012-.886-.047A3.149,3.149,0,0,1,55.8,61.472c-1.412-2.061-2.77-4.172-4.032-6.324a60.666,60.666,0,0,1-3.154-6.826q-2.985-6.966-5.308-14.2a51.989,51.989,0,0,0-4.76-11.495,6.557,6.557,0,0,0-1.626-2.012,2.237,2.237,0,0,0-2.44-.236,2.982,2.982,0,0,0-.986,1.326,24.9,24.9,0,0,0-1.68,5.446,57.7,57.7,0,0,0-1.22,8.1c-.167,2.561.221,5.038.283,7.574.059,2.361,1.395,5.057,2.209,7.259q1.395,3.76,3.092,7.4c1.129,2.418,2.494,4.706,3.67,7.094.022.042.042.086.064.128" transform="translate(44.601 29.368)" fill="#dd475d"/>
            <path id="Trazado_1274561" data-name="Trazado 1274561" d="M47.985,37.734a.553.553,0,0,0-.492-.066c-1.732.654-2.876,2.111-4.184,3.343a9.161,9.161,0,0,1-2.231,1.569c-.827.411-1.692.735-2.531,1.119a8.081,8.081,0,0,0-2.521,1.67c-.229.239.458.352.62.184C37.9,44.24,39.7,43.729,41.3,42.976a9.585,9.585,0,0,0,2.226-1.419c.681-.59,1.287-1.259,1.933-1.887a7.183,7.183,0,0,1,2.393-1.685c.113-.042.241-.13.128-.251" transform="translate(52.525 54.949)" fill="#993741"/>
            <path id="Trazado_1274562" data-name="Trazado 1274562" d="M41.948,38.758A26.334,26.334,0,0,1,38.389,46.7c-.14.212.556.305.694.1a26.606,26.606,0,0,0,3.584-8.041c.054-.214-.649-.263-.718,0" transform="translate(56.016 56.32)" fill="#993741"/>
            <path id="Trazado_1274563" data-name="Trazado 1274563" d="M41.211,38.586a.663.663,0,0,0-.278.017c-.052.02-.148.052-.165.111-.153.585-.307,1.168-.462,1.754-.037.148.13.212.251.226a.664.664,0,0,0,.278-.02c.052-.017.15-.049.165-.108.155-.585.307-1.171.462-1.754.039-.148-.128-.212-.251-.226" transform="translate(58.834 56.321)" fill="#993741"/>
            <path id="Trazado_1274564" data-name="Trazado 1274564" d="M47.968,39.641c-.054-.167-.305-.212-.45-.226-.241-.027-.485-.022-.726-.037a23.58,23.58,0,0,1-2.851-.364,23.41,23.41,0,0,1-5.488-1.771,23.749,23.749,0,0,1-2.836-1.564c-.2-.125-.851.039-.507.261A24.369,24.369,0,0,0,44.549,39.5c.46.071.92.13,1.385.175.241.022.482.042.723.057l.359.022.135.007h0a.1.1,0,0,0,.039.064c.17.13.893.177.775-.187" transform="translate(51.113 52.021)" fill="#993741"/>
            <path id="Trazado_1274565" data-name="Trazado 1274565" d="M57.611,52.375c-1.555-2.152-3.309-4.482-6.034-5.129a.47.47,0,0,0-.413.054c-.091.093.007.187.108.212,2.6.617,4.278,2.893,5.759,4.944a.393.393,0,0,0,.371.108c.061-.01.288-.079.209-.189" transform="translate(74.639 68.941)" fill="#e06f63"/>
            <path id="Trazado_1274566" data-name="Trazado 1274566" d="M49.393,48.149l-1.053-.057a.491.491,0,0,0-.214.044c-.034.02-.093.061-.089.111.012.128.207.148.3.153l1.053.057a.491.491,0,0,0,.214-.044c.034-.02.091-.062.086-.111-.01-.128-.207-.148-.3-.153" transform="translate(70.127 70.208)" fill="#e06f63"/>
            <path id="Trazado_1274567" data-name="Trazado 1274567" d="M37.663,27.776q-2.612,2.73-5.313,5.377c-.234.229.455.347.622.184q2.7-2.646,5.311-5.377c.229-.239-.458-.352-.62-.184" transform="translate(47.156 40.433)" fill="#993741"/>
            <path id="Trazado_1274568" data-name="Trazado 1274568" d="M27.471,33.6a5.509,5.509,0,0,1-.084-1.569,4.35,4.35,0,0,0,.106-1.631c-.042-.175-.307-.207-.455-.177l-5.249,1.041L20.726,21.194c-.106-.979-.207-1.958-.31-2.937-.03-.261-.745-.241-.721,0l1.092,10.334.31,2.94c.02.177.33.2.455.175l5.262-1.043a5.783,5.783,0,0,1-.138,1.326,5.486,5.486,0,0,0,.076,1.616q.273,1.719.551,3.436c.042.263.755.231.718,0q-.277-1.719-.551-3.436" transform="translate(28.752 26.378)" fill="#993741"/>
            <path id="Trazado_1274569" data-name="Trazado 1274569" d="M33.847,19.4c-.064-.221-.772-.184-.694.1A47.084,47.084,0,0,1,34.9,30.528a22.945,22.945,0,0,0-2.462.649c-.219.071-.433.145-.647.224-.17.061-.4.091-.472.273-.145.344.219.659.325.952a2.034,2.034,0,0,1-.219,1.3q-.244.675-.482,1.353-.5,1.4-1,2.8c-.093.268.613.322.694.1q.627-1.764,1.255-3.525a7.636,7.636,0,0,0,.507-1.587,1.128,1.128,0,0,0-.13-.681c-.1-.18-.3-.4-.244-.62a22.134,22.134,0,0,1,3.338-.942c.081-.017.266-.057.263-.177A47.624,47.624,0,0,0,33.847,19.4" transform="translate(43.705 28.105)" fill="#993741"/>
            <path id="Trazado_1274570" data-name="Trazado 1274570" d="M37.13,25.489a.138.138,0,0,0-.093-.177c-.2-.086-.758-.054-.672.271-.054.128-.123.251-.177.374-.106.239-.212.477-.315.716q-.288.653-.561,1.309-.565,1.332-1.087,2.681-1.044,2.671-1.938,5.4c-.342,1.038-.669,2.086-.979,3.136-.081.278.627.322.694.1a107.528,107.528,0,0,1,3.85-10.855q.314-.745.635-1.488c.106-.239.209-.48.317-.718.084-.194.2-.394.276-.6l.007-.015c.015-.044.032-.086.044-.13" transform="translate(45.696 36.893)" fill="#993741"/>
            <path id="Trazado_1274571" data-name="Trazado 1274571" d="M33,32.594a47,47,0,0,1-6.745,8.044q-1.081,1.029-2.224,1.988c-.128.108.027.219.128.251a.561.561,0,0,0,.492-.064,47.7,47.7,0,0,0,7.289-7.653q.915-1.207,1.754-2.47c.138-.209-.556-.305-.694-.1" transform="translate(35.018 47.413)" fill="#65bfd7"/>
            <path id="Trazado_1274572" data-name="Trazado 1274572" d="M29.234,48.289a26.431,26.431,0,0,0-5.948-5.653.586.586,0,0,0-.492-.064c-.089.027-.271.153-.128.251a25.963,25.963,0,0,1,5.874,5.564.478.478,0,0,0,.443.128c.071-.012.349-.1.251-.226" transform="translate(33.013 62.11)" fill="#65bfd7"/>
            <path id="Trazado_1274573" data-name="Trazado 1274573" d="M29.385,45.429l-2.972-2.258a.568.568,0,0,0-.492-.064c-.1.03-.263.148-.128.248l2.972,2.258a.561.561,0,0,0,.492.066c.1-.03.263-.148.128-.251" transform="translate(37.58 62.889)" fill="#65bfd7"/>
            <path id="Trazado_1274574" data-name="Trazado 1274574" d="M40.6,17.834a8.977,8.977,0,0,1-.064.962,3.655,3.655,0,0,1-.167.726c-.327.972-1.009,1.862-1.4,2.812a17.009,17.009,0,0,0-1.136,4.137c-.022.145-.039.288-.059.43a7.871,7.871,0,0,1-.62,2.607c-.964,1.933-3.023,2.657-5.109,2.674a11.664,11.664,0,0,1-4.706-1.07c-1.776-.77-4.659-2.905-4.711-5.065a4.89,4.89,0,0,1,.3-1.515,50.66,50.66,0,0,0,1.791-6.1c.268-1.5.13-3.333,1.584-4.263a8.105,8.105,0,0,1,4.26-.782,18.024,18.024,0,0,1,5.49.637c1.783.534,4.583,1.6,4.553,3.805" transform="translate(33.028 19.541)" fill="#ffa87d"/>
            <path id="Trazado_1274575" data-name="Trazado 1274575" d="M37.63,18.016c-.327.972-1.009,1.862-1.4,2.812a17.233,17.233,0,0,0-1.136,4.137c-.02.145-.039.288-.057.433a7.237,7.237,0,0,1-5.222-.553A8.3,8.3,0,0,1,24.5,16.862c.025-.947.312-2.3,1.395-2.428,1.031-.128,2.347.477,3.365.674a46.746,46.746,0,0,1,6.7,1.823,3.954,3.954,0,0,1,1.272.644,2.107,2.107,0,0,1,.4.44" transform="translate(35.765 21.047)" fill="#e06f63"/>
            <path id="Trazado_1274576" data-name="Trazado 1274576" d="M44.942,15.536c-.01,3.085.438,6.44.025,9.493A26.693,26.693,0,0,1,43,32.271c-2.275,5.19-8.218,4.007-12.3,1.8a11.843,11.843,0,0,1-5.072-6.334c-.305-.846-.517-1.722-.851-2.558a35.461,35.461,0,0,1-2.074-5.121,20.977,20.977,0,0,1-.561-5.633,8.214,8.214,0,0,1,1.419-4.819,7.382,7.382,0,0,1,2.5-1.929,13.919,13.919,0,0,1,4-1.336,25.842,25.842,0,0,1,5.05-.219c2.58.071,5.313.248,7.444,1.71,2.288,1.569,2.4,5.185,2.386,7.7" transform="translate(32.307 8.903)" fill="#ffa87d"/>
            <path id="Trazado_1274577" data-name="Trazado 1274577" d="M21.781,12.05a11.735,11.735,0,0,0,.18,8.285q1.694,4.649,3.385,9.3a2.1,2.1,0,0,0,.428.792.718.718,0,0,0,.827.175,1.044,1.044,0,0,0,.376-.871c.13-1.719-.015-3.395.18-5.114.43-3.776.92-7.633,1.7-11.37a.75.75,0,0,1,.153-.367c.261-.273.706-.02,1.006.209a6.638,6.638,0,0,0,2.834,1.245,2.009,2.009,0,0,0,1.385-.14c.4-.241.63-.7,1.033-.937.694-.4,1.542.02,2.285.315a7.155,7.155,0,0,0,2.229.49,1.874,1.874,0,0,0,1.077-.184c.17-.1.307-.248.47-.364,1.309-.94,3.208.541,4.711-.044,1.877-.733,1-3.345.347-4.637a7.573,7.573,0,0,0-3.84-3.6c-2.187-.89-4.644-.694-7-.482a32.958,32.958,0,0,0-3.628.325,21.8,21.8,0,0,0-4.16,1.215,10.951,10.951,0,0,0-5.271,4.295,9.411,9.411,0,0,0-.713,1.471" transform="translate(30.813 6.664)" fill="#231c20"/>
            <path id="Trazado_1274578" data-name="Trazado 1274578" d="M24.006,11.226a1.932,1.932,0,0,0-1.742,1.092,3.754,3.754,0,0,0-.177,2.315,5.256,5.256,0,0,0,4.256,4.46,1.612,1.612,0,0,0,.775-.034c1.547-.561.229-3.818-.076-4.888a4.616,4.616,0,0,0-1.282-2.322,2.633,2.633,0,0,0-1.754-.622" transform="translate(32.101 16.386)" fill="#ffa87d"/>
            <path id="Trazado_1274579" data-name="Trazado 1274579" d="M31.875,9.608a3.372,3.372,0,0,1,2.211.977,1.592,1.592,0,0,1,.391.613c.182.659-1.328.015-1.542-.027a13.544,13.544,0,0,0-3.2.015.476.476,0,0,1-.31-.061.368.368,0,0,1-.118-.2,1,1,0,0,1,.723-1.156,2.942,2.942,0,0,1,1.021-.187,6.223,6.223,0,0,1,.827.025" transform="translate(42.73 13.984)" fill="#231c20"/>
            <path id="Trazado_1274580" data-name="Trazado 1274580" d="M27.478,10.448A5.447,5.447,0,0,0,25.35,12.1a2.206,2.206,0,0,0-.487,1.087.235.235,0,0,0,.025.16c.071.108.239.054.347-.012A12.507,12.507,0,0,1,29.9,11.523a1.724,1.724,0,0,0,.627-.17.684.684,0,0,0,.234-.854.974.974,0,0,0-.908-.5,5.1,5.1,0,0,0-2.371.448" transform="translate(36.292 14.586)" fill="#231c20"/>
            <path id="Trazado_1274581" data-name="Trazado 1274581" d="M30.118,12.294c.017-.482.13-1.073.652-1.245a.686.686,0,0,1,.846.307c.034.042.069.084.1.125a1.4,1.4,0,0,1,.221.984,1.016,1.016,0,0,1-.256.767.967.967,0,0,1-1.006.148,1.059,1.059,0,0,1-.558-1.087" transform="translate(43.966 16.071)" fill="#231c20"/>
            <path id="Trazado_1274582" data-name="Trazado 1274582" d="M26,12.869c-.015-.5.066-1.122.59-1.336a.867.867,0,0,1,1,.268,1.531,1.531,0,0,1,.226.519,1.575,1.575,0,0,1-.13,1.419.78.78,0,0,1-.8.271A1.1,1.1,0,0,1,26,12.869" transform="translate(37.956 16.75)" fill="#231c20"/>
            <path id="Trazado_1274583" data-name="Trazado 1274583" d="M31.491,17.061c-.086-.207-.172-.413-.263-.62a20.43,20.43,0,0,1-1.919-5.424c-.027-.216-.615-.212-.59-.017a17.5,17.5,0,0,0,1.648,4.846c.175.4.349.795.517,1.2a1.215,1.215,0,0,1,.165.642,1.214,1.214,0,0,1-.271.472,2.662,2.662,0,0,1-1.919,1c-.086,0-.3.015-.3.143s.209.162.29.16a3.357,3.357,0,0,0,2.16-.839,1.822,1.822,0,0,0,.632-.915,1.27,1.27,0,0,0-.15-.64" transform="translate(41.692 15.847)" fill="#e06f63"/>
            <path id="Trazado_1274584" data-name="Trazado 1274584" d="M28.969,16.713a2.033,2.033,0,0,1,.482-1.427,1.052,1.052,0,0,1,1.434-.123,2.658,2.658,0,0,1,.667,1.9,2.069,2.069,0,0,1-.13.986.991.991,0,0,1-1.188.526,1.839,1.839,0,0,1-1.117-1.114,2.262,2.262,0,0,1-.148-.753" transform="translate(42.289 21.804)" fill="#e06f63"/>
            <path id="Trazado_1274585" data-name="Trazado 1274585" d="M35,10.826a16.024,16.024,0,0,0-.881-2.507,6.384,6.384,0,0,0-1.434-1.739A6.648,6.648,0,0,0,28.468,5c-.106,0-.359.034-.359.184s.261.182.359.182a5.738,5.738,0,0,1,3.766,1.547A5.92,5.92,0,0,1,33.5,8.546a17.484,17.484,0,0,1,.812,2.379c.081.221.79.172.694-.1" transform="translate(41.035 7.298)" fill="#395795"/>
            <path id="Trazado_1274586" data-name="Trazado 1274586" d="M29.426,6.072a.578.578,0,0,0-.492-.066c-.1.03-.263.15-.128.251A4.635,4.635,0,0,1,30.624,9.5c.025.261.743.244.718,0a4.9,4.9,0,0,0-1.916-3.432" transform="translate(41.979 8.729)" fill="#395795"/>
            <path id="Trazado_1274587" data-name="Trazado 1274587" d="M28.706,9.557a4.293,4.293,0,0,1-3.84-2.794c-.084-.224-.795-.17-.694.1a4.913,4.913,0,0,0,4.534,3.063c.106,0,.359-.034.359-.182s-.258-.184-.359-.184" transform="translate(35.275 9.669)" fill="#395795"/>
            <path id="Trazado_1274588" data-name="Trazado 1274588" d="M22.255,7.609a8.478,8.478,0,0,0-.364,6.332c.074.224.785.177.691-.1a8.261,8.261,0,0,1,.367-6.137c.116-.248-.588-.32-.694-.1" transform="translate(31.306 10.914)" fill="#395795"/>
            <path id="Trazado_1274589" data-name="Trazado 1274589" d="M23.936,11.371a2.771,2.771,0,0,1-.922-1.924c-.03-.148-.234-.187-.359-.182-.081,0-.386.034-.359.182a3.03,3.03,0,0,0,1.021,2.108.586.586,0,0,0,.492.066c.089-.027.273-.155.128-.251" transform="translate(32.545 13.525)" fill="#395795"/>
            <path id="Trazado_1274590" data-name="Trazado 1274590" d="M14.97,54.826a63.931,63.931,0,0,0,7.744.475c2.548.148,5.05.659,7.645.7q9.911.155,19.824.138,4.959-.007,9.913-.059a13.6,13.6,0,0,0,7.99-2.544,3.221,3.221,0,0,0,1.028-.991,2.332,2.332,0,0,0-.33-2.507,5.446,5.446,0,0,0-2.189-1.508,34.488,34.488,0,0,0-8.179-2.064C50.281,45.11,42,44.2,34.1,41.806c-2.61-.79-5.271-1.7-7.992-1.5-1.427.106-2.189-1.264-3.149-2.243-2.2-2.248-4.543-4.578-7.559-5.476-2.831-.844-4.969-.017-7.537,1.018a6.892,6.892,0,0,0-4.344,4.3c-.723,2.477.708,5.414,1.638,7.682A16.462,16.462,0,0,0,9.676,52.4a11.024,11.024,0,0,0,5.294,2.423" transform="translate(4.842 47.064)" fill="#ffa87d"/>
            <path id="Trazado_1274591" data-name="Trazado 1274591" d="M21.339,49.664a6.788,6.788,0,0,1-.278.795,8.535,8.535,0,0,1-1.277,2.258,2.363,2.363,0,0,1-.9.394l-3.419.952a.572.572,0,0,0-.189-.128,1.188,1.188,0,0,0-.78.049c-1.719.519-3.493.9-5.18,1.5-.376.133-.758.276-1.141.408Q6.4,50.829,4.811,45.711q-1.723-5.538-3.22-11.146c-.239-.9-.465-1.8-.659-2.713a35.388,35.388,0,0,1-.664-4.037,5.329,5.329,0,0,1,1.085-2.981,5.147,5.147,0,0,1,4.091-1.515c10.078.221,13.4,12.754,15.5,20.461a10.885,10.885,0,0,1,.4,5.884" transform="translate(0.391 34.04)" fill="#395795"/>
            <path id="Trazado_1274592" data-name="Trazado 1274592" d="M5.807,41.166a2.545,2.545,0,0,1-1.39-.02Q2.7,35.608,1.2,30c-.241-.9-.467-1.8-.662-2.713a2.569,2.569,0,0,1,1.2-.755c2.238-.622,4.966,2.147,6.088,6.189s.219,7.82-2.02,8.445" transform="translate(0.785 38.605)" fill="#65bfd7"/>
            <path id="Trazado_1274593" data-name="Trazado 1274593" d="M11.3,34.988,6.768,25.36c-.1-.219-.812-.153-.694.1l4.536,9.63c.1.219.812.153.694-.1" transform="translate(8.848 36.828)" fill="#231c20"/>
            <path id="Trazado_1274594" data-name="Trazado 1274594" d="M6.992,41.545a13.815,13.815,0,0,0-2.1,6.858c-.263,3.744.076,7.5-.039,11.247C4.7,64.336,3.841,69,4.05,73.686a2.232,2.232,0,0,0,.3,1.215,2.019,2.019,0,0,0,.767.588,5.505,5.505,0,0,0,6.76-1.25c1.665-2.047,1.867-5.953,2.285-8.484,1.136-6.868,2.273-13.736,3.2-20.636.18-1.338.443-3.326-.539-4.418s-3.294-1.5-4.684-1.547a6.2,6.2,0,0,0-3.687.95,5.916,5.916,0,0,0-1.456,1.441" transform="translate(5.865 57.154)" fill="#ffa87d"/>
            <path id="Trazado_1274595" data-name="Trazado 1274595" d="M14.929,50.227a5.559,5.559,0,0,0-3.215.967,18.734,18.734,0,0,0-4.689,4.28q-1.834,2.369-3.663,4.735c-.689.888-1.378,1.781-1.978,2.733-.268.43-1.52,1.995-1.023,2.548.133.145.371.071.546-.022a12.813,12.813,0,0,0,3.537-3.3,8.45,8.45,0,0,1-.5,1.8c-.145.563-.29,1.1-.487,1.653-.43,1.232-.854,2.467-1.215,3.719-.125.43-.187,1,.2,1.218,1.264.694,2.1-2.061,2.408-2.753a32.672,32.672,0,0,1,2.359-4.467Q6.477,65.7,5.749,68.066a14.721,14.721,0,0,0-1.011,4.553.727.727,0,0,0,.116.455.616.616,0,0,0,.617.133c1.444-.342,1.668-2.1,2.115-3.245q1.063-2.719,2.236-5.394c-.445,1.016-2.689,7.168-.765,7.544a1.181,1.181,0,0,0,1.077-.448,3.437,3.437,0,0,0,.551-1.082Q11.8,67.553,12.863,64.5a18.525,18.525,0,0,1,1.05-2.812,6.691,6.691,0,0,1,1.242-1.983.685.685,0,0,1,.652-.212c.258.1.325.433.352.711.187,1.941.042,3.921.33,5.84a2.941,2.941,0,0,0,.731,1.727,1.414,1.414,0,0,0,1.515.293c.443-.3.381-1.07.386-1.535a41.523,41.523,0,0,1,.718-5.456,12.2,12.2,0,0,0-.822-6.885c-.925-1.813-1.648-3.805-4.059-3.96l-.03,0" transform="translate(0.359 73.315)" fill="#ffa87d"/>
            <path id="Trazado_1274596" data-name="Trazado 1274596" d="M9.088,56.319a73.487,73.487,0,0,0-2.31,8.59,24.445,24.445,0,0,0-.61,4.324c-.02,1,.071,2.45-1.181,2.824a3.068,3.068,0,0,0-.706.2,1.356,1.356,0,0,0-.485,1.08,15.385,15.385,0,0,0,.01,3.139,1.4,1.4,0,0,0,.438,1.036,1.455,1.455,0,0,0,.888.167l7.687-.219c2.15-.061,6.4.445,7.318-2.042a7.366,7.366,0,0,0,.337-2.226c.074-1.562.219-3.119.219-4.679.435-5.387,3.149-10.036,6.2-14.348A107.38,107.38,0,0,1,37.519,41.36a24.334,24.334,0,0,0,4.789-5.968,10.852,10.852,0,0,0-4.054-13.7c-4.083-2.352-10.218-1.107-12.821,2.922-6.44,9.97-12.626,20.523-16.346,31.7" transform="translate(5.433 29.946)" fill="#dd475d"/>
            <path id="Trazado_1274597" data-name="Trazado 1274597" d="M28.477,27.407q-3.553,3.361-6.8,7.025t-6.15,7.613q-1.635,2.221-3.158,4.524c-.138.212.556.305.694.1q2.686-4.059,5.724-7.869t6.43-7.35q1.889-1.974,3.879-3.855c.236-.224-.45-.344-.62-.184" transform="translate(18.032 39.904)" fill="#993741"/>
            <path id="Trazado_1274598" data-name="Trazado 1274598" d="M17.435,35.8a22.763,22.763,0,0,1-3.673,4.142c-.686.711-1.318,1.473-2,2.189-.728.765-1.478,1.508-2.234,2.243-.782.763-1.569,1.518-2.349,2.28a.322.322,0,0,0-.229.268c-.042.248.566.194.669.093l.14-.138h0a.163.163,0,0,0,.091-.091c1.424-1.395,2.878-2.76,4.263-4.194.718-.745,1.382-1.535,2.093-2.285.644-.686,1.333-1.328,1.99-2A12.524,12.524,0,0,0,18.129,35.9c.13-.229-.571-.312-.694-.1" transform="translate(10.145 52.079)" fill="#993741"/>
            <path id="Trazado_1274599" data-name="Trazado 1274599" d="M11.279,37.806a.613.613,0,0,0-.276.02c-.057.017-.145.047-.167.108A8.4,8.4,0,0,1,9.9,39.825c-.086.133.167.216.251.226a.473.473,0,0,0,.443-.128,8.508,8.508,0,0,0,.932-1.892c.049-.145-.138-.212-.251-.226" transform="translate(14.432 55.182)" fill="#993741"/>
            <path id="Trazado_1274600" data-name="Trazado 1274600" d="M19.023,40.84a13.465,13.465,0,0,0-2.979.31,28.554,28.554,0,0,1-2.817.7,32.138,32.138,0,0,1-5.5-.241,9.656,9.656,0,0,0-3.072.315c-.118.034-.236.135-.128.251a.552.552,0,0,0,.492.066,14.435,14.435,0,0,1,5.3-.047,15.631,15.631,0,0,0,2.735.047,14.541,14.541,0,0,0,2.7-.608,12.391,12.391,0,0,1,3.264-.43c.106,0,.359-.032.359-.184s-.258-.185-.359-.182" transform="translate(6.55 59.621)" fill="#993741"/>
            <path id="Trazado_1274601" data-name="Trazado 1274601" d="M11.089,41.693a.587.587,0,0,0-.509,0,24.833,24.833,0,0,0-5.5,4.285c-.231.239.458.354.62.187a24.251,24.251,0,0,1,5.387-4.214c.125-.074.123-.184,0-.258" transform="translate(7.35 60.782)" fill="#993741"/>
            <path id="Trazado_1274602" data-name="Trazado 1274602" d="M11.129,41.728a.546.546,0,0,0-.492-.066,23.088,23.088,0,0,0-3.166,1.493c-.125.071-.133.189,0,.258a.581.581,0,0,0,.507,0A22.2,22.2,0,0,1,11,41.979c.108-.042.246-.135.128-.251" transform="translate(10.766 60.777)" fill="#993741"/>
            <path id="Trazado_1274603" data-name="Trazado 1274603" d="M20.974,22.426a1.88,1.88,0,0,0-1.611-1.109,4.254,4.254,0,0,0-2.369.581,29.03,29.03,0,0,0-4.558,2.849c-.135.1.032.219.128.251a.578.578,0,0,0,.492-.066,28.691,28.691,0,0,1,3.86-2.47,5.228,5.228,0,0,1,2.047-.795,1.314,1.314,0,0,1,1.318.858c.079.221.79.172.694-.1" transform="translate(18.081 31.093)" fill="#993741"/>
            <path id="Trazado_1274604" data-name="Trazado 1274604" d="M7.4,50.895a.561.561,0,0,0-.492-.066,15.686,15.686,0,0,0-2.8,1.277c-.125.074-.133.189,0,.261a.6.6,0,0,0,.507,0,14.8,14.8,0,0,1,2.654-1.22c.106-.037.251-.14.128-.251" transform="translate(5.858 74.162)" fill="#e06f63"/>
            <path id="Trazado_1274605" data-name="Trazado 1274605" d="M47.857,19.224a1.106,1.106,0,0,0-.608-.364c-.327-.066-.686.034-.991-.1-.18-.081-.315-.234-.492-.317a1.054,1.054,0,0,0-.408-.093A2.432,2.432,0,0,0,43.1,20.1a1.234,1.234,0,0,0,.012.881c.076.157.2.285.278.443.123.268.086.608.276.834a.937.937,0,0,0,.362.234,2.031,2.031,0,0,0,1.5.192c.263-.1.487-.288.755-.362.386-.1.812.049,1.183-.091.888-.332.947-1.788.689-2.514a1.5,1.5,0,0,0-.29-.494" transform="translate(62.807 26.778)" fill="#932409"/>
            <path id="Trazado_1274606" data-name="Trazado 1274606" d="M50.808,21.765a.667.667,0,0,1-.28-.079A55.919,55.919,0,0,0,36.2,16.223c-.283-.066-.45-.3-.374-.514a.556.556,0,0,1,.659-.271,57.221,57.221,0,0,1,14.651,5.586.358.358,0,0,1,.138.573.593.593,0,0,1-.465.167" transform="translate(52.273 22.51)" fill="#65bfd7"/>
            <path id="Trazado_1274607" data-name="Trazado 1274607" d="M44.36,20.739a.674.674,0,0,1-.219-.049A62.347,62.347,0,0,0,36.166,18c-.283-.074-.438-.307-.352-.524a.57.57,0,0,1,.672-.253,63.9,63.9,0,0,1,8.14,2.743.377.377,0,0,1,.234.558.56.56,0,0,1-.5.212" transform="translate(52.249 25.115)" fill="#65bfd7"/>
            <path id="Trazado_1274608" data-name="Trazado 1274608" d="M25,52.836a2.62,2.62,0,0,0-.637.836c-.394.908.31.8,1.006.873a25.877,25.877,0,0,0,4.278-.017,14.492,14.492,0,0,0,6.718-1.8c4.9-3.048,7.126-9.744,6.376-15.271A5.177,5.177,0,0,0,41.4,34.173a2.614,2.614,0,0,0-3.023-.642,3.084,3.084,0,0,0-.777.76c-1.018,1.3-1.793,2.836-3.119,3.82-1.537,1.139-3.614,1.37-5.141,2.526a5.91,5.91,0,0,0-1.678,1.992c-.327.64-.863,1.81-.408,2.482a2.3,2.3,0,0,0,.994.659,5.049,5.049,0,0,1,1.075.694,1.428,1.428,0,0,1,.637,1.176,1.586,1.586,0,0,1-.418.77,27.778,27.778,0,0,1-3.995,3.963c-.18.145-.369.3-.546.462" transform="translate(35.396 48.557)" fill="#ffa87d"/>
            <path id="Trazado_1274609" data-name="Trazado 1274609" d="M31.951,37.751q-.314.679-.684,1.323-2.007-.247-4-.635c-.123-.025-.379-.01-.443.128s.157.207.253.224q1.978.387,3.985.635a35.968,35.968,0,0,1-5.217,6.327c-.337.347-.681.684-1.009,1.041a1.3,1.3,0,0,0-.465,1.161c.069.261.775.214.718,0a1.163,1.163,0,0,1,.455-1.07c.293-.307.593-.608.888-.913.583-.6,1.166-1.205,1.734-1.823a31.2,31.2,0,0,0,3.087-3.83,18.29,18.29,0,0,0,1.387-2.47c.113-.251-.59-.32-.694-.1" transform="translate(35.545 54.917)" fill="#e06f63"/>
            <path id="Trazado_1274610" data-name="Trazado 1274610" d="M30.244,40.067a44.12,44.12,0,0,1-4.6,4.342c-.13.106.03.216.128.251a.561.561,0,0,0,.492-.066,43.623,43.623,0,0,0,4.6-4.342c.224-.244-.462-.357-.62-.184" transform="translate(37.361 58.372)" fill="#e06f63"/>
            <path id="Trazado_1274611" data-name="Trazado 1274611" d="M31.785,40.364a.47.47,0,0,0-.443.128,12.48,12.48,0,0,1-4.288,3.3c-.13.074-.128.187,0,.261a.59.59,0,0,0,.507,0,13.128,13.128,0,0,0,4.475-3.466c.093-.13-.172-.214-.251-.226" transform="translate(39.355 58.914)" fill="#e06f63"/>
          </g>
        </g>
        <g id="Grupo_1212592" data-name="Grupo 1212592" transform="translate(1155.995 6493.333)">
          <g id="Grupo_1212591" data-name="Grupo 1212591" clip-path="url(#clip-path-3)">
            <path id="Trazado_1279158" data-name="Trazado 1279158" d="M54.672,151.214a4.212,4.212,0,0,0-1.791-2.535,11.1,11.1,0,0,0-2.9-1.276c-.834-.23-1.685-.354-2.524-.55a11.112,11.112,0,0,1-8.216-7.041,26.857,26.857,0,0,1-1.355-5.906c-.209-1.429-.507-3.338-1.858-4.167a4.869,4.869,0,0,0-3.285-.293q-3.413.515-6.782,1.276c.056-.012.45,4.885.461,5.336.058,1.809.021,3.62-.07,5.429-.172,3.4-.563,6.782-.889,10.158q-.092.994-.1,1.99a2.078,2.078,0,0,0,.149.945c.549,1.1,3.3.649,4.3.649h3.066a1.1,1.1,0,0,1,.093-.107,1.439,1.439,0,0,1,.813-.337,2.788,2.788,0,0,1,1.814.408.565.565,0,0,1,.054.033c.014.011.07,0,.089,0H47.329c2.075,0,4.153.011,6.228,0,.465,0,1,.058,1.294-.375.358-.522.14-1.592.084-2.179a8.1,8.1,0,0,0-.263-1.46" transform="translate(19.092 97.343)" fill="#231c20"/>
            <path id="Trazado_1279159" data-name="Trazado 1279159" d="M35.148,135.23a.636.636,0,0,0-.542.07,7.768,7.768,0,0,1-2.356,1.411c-.116.044-.28.153-.144.275a.6.6,0,0,0,.542.074,8.713,8.713,0,0,0,2.642-1.555c.135-.117-.026-.242-.144-.275" transform="translate(24.135 101.794)" fill="#395795"/>
            <path id="Trazado_1279160" data-name="Trazado 1279160" d="M35,136.523a4.287,4.287,0,0,1-2.139,1.984c-.153.065-.133.217,0,.286a.677.677,0,0,0,.559,0,4.736,4.736,0,0,0,2.344-2.161c.135-.263-.64-.349-.766-.109" transform="translate(24.658 102.685)" fill="#395795"/>
            <path id="Trazado_1279161" data-name="Trazado 1279161" d="M36.016,137.551c-.151-.018-.4-.011-.487.14q-.634,1.073-1.269,2.142c-.086.151.181.237.279.249.149.018.4.011.487-.14q.634-1.07,1.266-2.144c.089-.149-.177-.235-.275-.247" transform="translate(25.782 103.56)" fill="#395795"/>
            <path id="Trazado_1279162" data-name="Trazado 1279162" d="M37.235,138.457a.621.621,0,0,0-.28-.06c-.142,0-.361.035-.4.2a5.263,5.263,0,0,1-.857,1.969c-.039.053,0,.121.039.156a.456.456,0,0,0,.238.093.522.522,0,0,0,.487-.14,5.524,5.524,0,0,0,.885-2.077c.012-.058-.075-.123-.116-.142" transform="translate(26.866 104.202)" fill="#395795"/>
            <path id="Trazado_1279163" data-name="Trazado 1279163" d="M38.386,138.962c-.019-.165-.263-.2-.4-.2-.1,0-.417.037-.4.2A4.018,4.018,0,0,1,37.292,141c-.121.28.659.352.764.107a4.207,4.207,0,0,0,.321-2.146" transform="translate(28.069 104.477)" fill="#395795"/>
            <path id="Trazado_1279164" data-name="Trazado 1279164" d="M53.118,143.436a43.546,43.546,0,0,0-5.45.273,38.723,38.723,0,0,1-5.523-.026,34.447,34.447,0,0,1-5.276-.892c-1.716-.414-3.415-.882-5.147-1.22a19.465,19.465,0,0,0-5.807-.359c-.109.012-.312.086-.258.23s.333.142.45.13c3.469-.373,6.87.684,10.2,1.5a37.117,37.117,0,0,0,5.239.94,38.487,38.487,0,0,0,5.413.112,55.568,55.568,0,0,1,6.156-.31c.109.007.365-.039.365-.186s-.263-.181-.365-.188" transform="translate(19.311 106.264)" fill="#395795"/>
            <path id="Trazado_1279165" data-name="Trazado 1279165" d="M35.809,153.893a6.636,6.636,0,0,1-.9,3.685,3.462,3.462,0,0,1-.254.321,2.5,2.5,0,0,1-1.662.74,6.136,6.136,0,0,1-1.848-.2A22.876,22.876,0,0,1,20.9,153.093c-.924-.841-1.653-1.9-2.624-2.687-.591-.477-.883-1.241-1.6-1.658a1.4,1.4,0,0,0-.85-.223.914.914,0,0,0-.138.026c-.815-.617-1.627-1.239-2.44-1.856s-3.264-1.912-3.031-3.122a2.083,2.083,0,0,1,.454-.841q.61-.791,1.285-1.52l.71-.771c.082-.084.161-.172.245-.258,1.991-2.142,4.009-4.27,5.906-6.519,1.167-1.381,2.293-2.8,3.343-4.275.263-.366,2.917-4.5,2.866-4.523q3.137,1.428,6.167,3.09a4.876,4.876,0,0,1,2.44,2.221c.573,1.479-.347,3.176-1.048,4.44a26.816,26.816,0,0,0-2.5,5.522l-.06.21c-.051.188-.1.377-.142.566a12.957,12.957,0,0,0-.28,1.779c-.021.245-.037.491-.042.736a10.3,10.3,0,0,0,.13,1.886c.04.237.089.475.151.706a7,7,0,0,0,.743,1.8,6.451,6.451,0,0,0,.435.635,5.97,5.97,0,0,0,1.11,1.1,7.356,7.356,0,0,0,.621.415l.012.007c.955.563,2.091.975,2.643,1.932a4,4,0,0,1,.4,1.984" transform="translate(7.681 94.014)" fill="#231c20"/>
            <path id="Trazado_1279166" data-name="Trazado 1279166" d="M23.521,134.1a.62.62,0,0,0-.475-.272,7.8,7.8,0,0,1-2.728-.307c-.119-.033-.316-.047-.28.135a.608.608,0,0,0,.386.386,8.721,8.721,0,0,0,3.043.363c.181-.01.126-.207.054-.3" transform="translate(15.084 100.519)" fill="#395795"/>
            <path id="Trazado_1279167" data-name="Trazado 1279167" d="M22.768,134.973a4.3,4.3,0,0,1-2.9.282c-.161-.039-.237.093-.172.23a.677.677,0,0,0,.443.338,4.737,4.737,0,0,0,3.176-.3c.268-.128-.3-.663-.543-.549" transform="translate(14.809 101.614)" fill="#395795"/>
            <path id="Trazado_1279168" data-name="Trazado 1279168" d="M22.975,136.657c-.109-.105-.31-.247-.472-.182q-1.157.465-2.307.936c-.161.065,0,.3.068.366.11.105.312.247.475.182q1.152-.471,2.3-.936c.163-.065,0-.3-.068-.366" transform="translate(15.154 102.743)" fill="#395795"/>
            <path id="Trazado_1279169" data-name="Trazado 1279169" d="M23.365,138.218a.6.6,0,0,0-.188-.216c-.116-.084-.307-.193-.438-.079a5.309,5.309,0,0,1-1.874,1.045c-.06.019-.07.1-.063.147a.473.473,0,0,0,.133.219.52.52,0,0,0,.472.182A5.561,5.561,0,0,0,23.37,138.4c.047-.042.014-.145,0-.186" transform="translate(15.661 103.808)" fill="#395795"/>
            <path id="Trazado_1279170" data-name="Trazado 1279170" d="M23.994,139.468c.084-.144-.086-.324-.193-.4-.081-.06-.352-.221-.436-.079a4.016,4.016,0,0,1-1.469,1.444c-.268.149.309.68.543.549a4.274,4.274,0,0,0,1.555-1.513" transform="translate(16.433 104.605)" fill="#395795"/>
            <path id="Trazado_1279171" data-name="Trazado 1279171" d="M33.165,149.569c-.032.1-.238.1-.321.093a25.467,25.467,0,0,1-6.309-1.427,16.292,16.292,0,0,1-4.854-2.813,24.241,24.241,0,0,1-3.532-3.951c-1.087-1.451-2.105-2.957-3.239-4.375a23.516,23.516,0,0,0-1.82-2.032,7.551,7.551,0,0,0-1.481-1.2l.244-.259a7.708,7.708,0,0,1,1.685,1.327,24.058,24.058,0,0,1,1.947,2.189c2.233,2.8,4.044,6.009,6.835,8.323,2.99,2.484,6.861,3.551,10.66,3.96.082.007.217.06.182.163" transform="translate(8.741 100.594)" fill="#395795"/>
            <path id="Trazado_1279172" data-name="Trazado 1279172" d="M15.638,114.3c1.4,8.393,2.531,16.84,4.216,25.182,1.29,6.375,2.9,12.682,4.5,18.988q5.248,20.575,10.5,41.148a3.253,3.253,0,0,0,.736,1.593,3.284,3.284,0,0,0,2.524.561c3.264-.181,18.225,1.246,17.219-3.807C48.118,161.873,43.848,125.307,41.15,88.638c-.659-8.961-1.118-18.1-3.723-26.758-2.568-8.537-11.608-7.727-19.182-6.773-6.437.813-8.724,5.055-9.7,11.287-1.862,11.867,2.105,23.75,4.724,35.472.92,4.118,1.678,8.27,2.37,12.432" transform="translate(6.072 41.061)" fill="#395795"/>
            <path id="Trazado_1279173" data-name="Trazado 1279173" d="M31.467,114.3c.85,5.117,1.6,10.248,2.445,15.368.915,5.548,2.782,9.413-.44,14.36-3.636,5.585-6.249,11.885-9.084,17.925q-3.092,6.579-6.093,13.2c-.889,1.958-1.611,3.967-2.614,5.855a45.786,45.786,0,0,0-2.815,6.458.825.825,0,0,0,.314,1.152,21.843,21.843,0,0,0,2.721,2.033,39.965,39.965,0,0,0,4.123,1.891c1.728.775,3.366,1.755,5.119,2.47,1.385.566,2.947.785,4.146,1.586,5.21-8.924,10.539-17.771,15.808-26.653,7.648-12.887,15.343-26.113,15.471-41.472.109-13.089-2.624-26.746-3.588-39.835-.659-8.961-1.118-18.1-3.723-26.758-2.57-8.537-11.615-7.727-19.189-6.773-6.437.813-8.724,5.055-9.7,11.287-1.862,11.867,2.105,23.75,4.724,35.472.92,4.118,1.678,8.27,2.37,12.432" transform="translate(9.611 41.061)" fill="#395795"/>
            <path id="Trazado_1279174" data-name="Trazado 1279174" d="M32.187,119.639q-1.107-8.254-2.312-16.5-.676-4.622-1.38-9.241c-.044-.284-.768-.242-.729.011q1.254,8.238,2.416,16.484T32.409,126.9q.6,4.633,1.166,9.275c.035.282.761.245.729-.012q-1.012-8.269-2.121-16.525" transform="translate(20.904 70.549)" fill="#231c20"/>
            <path id="Trazado_1279175" data-name="Trazado 1279175" d="M25.456,144.916q-1.425-4.964-2.685-9.967-1.257-4.98-2.349-10-.618-2.845-1.187-5.7c-.053-.265-.775-.216-.727.016q1.01,5.088,2.186,10.142,1.17,5.027,2.5,10.016.752,2.816,1.557,5.613c.063.224.782.174.7-.112" transform="translate(13.933 89.65)" fill="#231c20"/>
            <path id="Trazado_1279176" data-name="Trazado 1279176" d="M61.819,86.658a37.2,37.2,0,0,1-5.268,5.459,37.488,37.488,0,0,1-34.217,7.73,11.116,11.116,0,0,1-3.848-1.727,11.334,11.334,0,0,1-3.129-4.568c.359.037-.089-3.7-.1-4.151a49.643,49.643,0,0,1,.244-5.18,53.274,53.274,0,0,0,.375-10.139,1.5,1.5,0,0,0-.326-.908.618.618,0,0,0-.193-.128,1.207,1.207,0,0,0-.792.049c-1.744.526-3.541.91-5.254,1.515-.384.135-.766.28-1.159.417Q6.352,69.892,4.744,64.7,3,59.089,1.48,53.4c-.244-.913-.472-1.83-.671-2.754a36.872,36.872,0,0,1-.673-4.1c-.487-4.78.235-9.457,3.788-13.466a23.746,23.746,0,0,1,3.86-3.262c1.9-1.387,4.731-3.02,6.2-4.842s1.73-3.692,4.023-4.95a17.538,17.538,0,0,1,6.311-1.7,85.953,85.953,0,0,1,9.18-.654,6.7,6.7,0,0,1,2.519.3c.95.363,1.7,1.125,2.643,1.5,1.364.545,2.9.2,4.365.107a12,12,0,0,1,8.135,2.4,10.478,10.478,0,0,1,3.583,5.229C59.586,43.6,63.432,61.25,63.476,78.4c0,2.642-.016,6.018-1.66,8.253" transform="translate(0 13.295)" fill="#395795"/>
            <path id="Trazado_1279177" data-name="Trazado 1279177" d="M28.4,30.475a10.887,10.887,0,0,1-.428,1.734l-1.4,4.573c-.032.1-.084.23-.191.244a.276.276,0,0,1-.154-.032,104.134,104.134,0,0,1-12.164-5.941A7.045,7.045,0,0,1,11.5,28.975c-1.054-1.625-.67-3.693-.649-5.511.021-1.991.287-3.995.272-6.009a4.955,4.955,0,0,1,1.222-3.739,4.489,4.489,0,0,1,1.791-.931,16.852,16.852,0,0,1,4.545-.561,16.972,16.972,0,0,1,5.5.549,7.9,7.9,0,0,1,3.31,2.039c.945.957.878,1.82.713,3.1-.007.047-.012.1-.021.151-.04.31-.081.621-.116.933a37.812,37.812,0,0,0-.268,5c0,.182.011.365.016.547.075,1.972.841,3.969.58,5.935" transform="translate(8.108 9.177)" fill="#ffa87d"/>
            <path id="Trazado_1279178" data-name="Trazado 1279178" d="M26.924,22.479c-1.557,2.775-4.666,2.775-7.357,1.786-2.975-1.087-5.506-3.821-7.033-6.507a4.346,4.346,0,0,1-.559-1.369,1.82,1.82,0,0,1,.3-1.423c1.075-1.392,4.615-.5,6.081-.324a46.449,46.449,0,0,1,6.777,1.348,3.942,3.942,0,0,1,1.3.55,2.516,2.516,0,0,1,.759.938,37.518,37.518,0,0,0-.272,5" transform="translate(8.988 10.69)" fill="#e06f63"/>
            <path id="Trazado_1279179" data-name="Trazado 1279179" d="M32.044,12.073c.2,3.062.878,6.365.677,9.422a26.519,26.519,0,0,1-1.457,7.322c-1.9,5.308-7.881,4.547-12.083,2.638a11.788,11.788,0,0,1-5.469-5.939c-.361-.819-.631-1.676-1.022-2.482a43.914,43.914,0,0,0-2.512-3.923c-2.077-3.325-1.969-7.893-.8-11.534A10.341,10.341,0,0,1,11.156,4.12a6.569,6.569,0,0,1,2.9-1.664,21.511,21.511,0,0,1,7.65-1.106,15.555,15.555,0,0,1,4.7.6c1.057.342,1.637,1.327,2.428,2.019.268.237.608.368.862.622a5.235,5.235,0,0,1,.85,1.341,15.523,15.523,0,0,1,1.5,6.137" transform="translate(6.435 1.006)" fill="#ffa87d"/>
            <path id="Trazado_1279180" data-name="Trazado 1279180" d="M7.754,9.364a13.334,13.334,0,0,0,.72,7.511,32.732,32.732,0,0,0,1.86,4.142c.252.48.517,1.12.855,1.7A3.011,3.011,0,0,0,12.5,24.054c.952.4,1.38-.708,1.329-1.453-.153-2.333-.587-4.635-.715-6.966-.1-1.788-.321-4.88,2.161-5.185,1.024-.124,1.946.557,2.9.933a8.9,8.9,0,0,0,3.778.4,13.573,13.573,0,0,0,4.791-.978,6.64,6.64,0,0,0,2.477-1.86c.221-.273,1.4-2.128.95-2.466a3.423,3.423,0,0,1,.882,1.192l.771,1.441a1.345,1.345,0,0,0,.337.461.46.46,0,0,0,.533.046A.664.664,0,0,0,32.87,9C32.407,2.88,25.282-.736,19.653.126A17.337,17.337,0,0,0,17.744.55a17.154,17.154,0,0,0-5.467,2.286A10.911,10.911,0,0,0,7.754,9.364" transform="translate(5.656 0)" fill="#932409"/>
            <path id="Trazado_1279181" data-name="Trazado 1279181" d="M11.015,11.5a1.924,1.924,0,0,0-1.649,1.2,3.7,3.7,0,0,0-.018,2.312,5.222,5.222,0,0,0,4.531,4.132,1.581,1.581,0,0,0,.766-.086c1.5-.661-.033-3.807-.412-4.847A4.584,4.584,0,0,0,12.8,12a2.615,2.615,0,0,0-1.786-.5" transform="translate(6.905 8.652)" fill="#ffa87d"/>
            <path id="Trazado_1279182" data-name="Trazado 1279182" d="M20.891,7.685a5.322,5.322,0,0,1,.945.053,5.135,5.135,0,0,1,2.1.8c.268.177,1.127.61.556.824a3.936,3.936,0,0,1-1.806-.112,10.242,10.242,0,0,0-3.38.221c-.454.084-.89.209-.994-.244a.972.972,0,0,1,.247-.987,3.4,3.4,0,0,1,1.32-.431,5.78,5.78,0,0,1,1.011-.124" transform="translate(13.754 5.784)" fill="#932409"/>
            <path id="Trazado_1279183" data-name="Trazado 1279183" d="M15.052,9.075a7.285,7.285,0,0,0-3.12,2.543.38.38,0,0,0-.065.14.11.11,0,0,0,.067.123.18.18,0,0,0,.105-.011,36.088,36.088,0,0,1,5.1-1.621c.512-.088,1.411-.412,1.15-1.143a.959.959,0,0,0-.9-.5,4.608,4.608,0,0,0-2.342.473" transform="translate(8.933 6.472)" fill="#932409"/>
            <path id="Trazado_1279184" data-name="Trazado 1279184" d="M20.007,10.825c-.016-.466.058-1.045.545-1.246a.681.681,0,0,1,.7.088.773.773,0,0,1,.138.154,1.078,1.078,0,0,1,.1.116,1.339,1.339,0,0,1,.279.934.957.957,0,0,1-.193.761.93.93,0,0,1-.959.207A1.021,1.021,0,0,1,20,10.827" transform="translate(15.059 7.167)" fill="#231c20"/>
            <path id="Trazado_1279185" data-name="Trazado 1279185" d="M13.989,12.151c-.047-.482-.011-1.087.482-1.329a.828.828,0,0,1,.982.193,1.452,1.452,0,0,1,.252.487,1.532,1.532,0,0,1-.03,1.378.76.76,0,0,1-.756.316,1.063,1.063,0,0,1-.933-1.043" transform="translate(10.521 8.085)" fill="#231c20"/>
            <path id="Trazado_1279186" data-name="Trazado 1279186" d="M20.895,15.391c-.105-.2-.214-.394-.323-.587A20.217,20.217,0,0,1,18.12,9.629c-.049-.214-.633-.147-.589.042A17.4,17.4,0,0,0,19.657,14.3c.214.377.428.754.635,1.132a1.212,1.212,0,0,1,.23.617,1.2,1.2,0,0,1-.221.5,2.65,2.65,0,0,1-1.8,1.181c-.086.011-.293.044-.282.17s.223.14.305.128a3.306,3.306,0,0,0,2.047-1.05,1.781,1.781,0,0,0,.531-.968,1.218,1.218,0,0,0-.212-.617" transform="translate(13.198 7.15)" fill="#e06f63"/>
            <path id="Trazado_1279187" data-name="Trazado 1279187" d="M8.433,6.535a5.6,5.6,0,0,1,2.233-3.448c.119-.081.377-.209.515-.1s-.044.3-.138.359C8.691,4.966,8.763,8.235,9.536,10.67c.091.289-.647.628-.729.373a8.824,8.824,0,0,1-.373-4.509" transform="translate(6.246 2.217)" fill="#701807"/>
            <path id="Trazado_1279188" data-name="Trazado 1279188" d="M22.475,15.123a.56.56,0,0,0-.493.026,5.851,5.851,0,0,1-4.777.98c-.116-.033-.384-.039-.45.091s.133.214.231.244a6.857,6.857,0,0,0,5.6-1.082c.138-.091-.016-.219-.109-.258" transform="translate(12.606 11.353)" fill="#e06f63"/>
            <path id="Trazado_1279189" data-name="Trazado 1279189" d="M33.685,19.113c-.123-.216-.836-.138-.7.1a17.862,17.862,0,0,1,2.235,10.12c-.8-.11-1.6-.193-2.407-.244-.479-.032-.957-.049-1.437-.056a2.383,2.383,0,0,0-1.2.167,1.041,1.041,0,0,0-.465.834c-.075.465-.135.931-.195,1.4q-.15,1.223-.252,2.451a16.29,16.29,0,0,0-1.818-.757c-.792-.277-1.6-.431-2.412-.647A2.9,2.9,0,0,1,24,31.943a1.362,1.362,0,0,0-1.148-.151q-1.349.255-2.677.61c-.882.237-1.763.536-2.649.808a1.613,1.613,0,0,1-1.2.051,3.455,3.455,0,0,1-.875-.845c-1.187-1.344-2.37-2.692-3.462-4.111-.6-.785-1.183-1.592-1.713-2.426a5.654,5.654,0,0,1-1.038-2.673c-.016-.261-.743-.251-.727,0a5.281,5.281,0,0,0,.824,2.38,25.767,25.767,0,0,0,1.518,2.24c1.08,1.458,2.263,2.836,3.46,4.2.291.33.578.661.876.985a2.017,2.017,0,0,0,.98.647,4.6,4.6,0,0,0,2.547-.4q1.359-.439,2.75-.771c.458-.109.92-.21,1.381-.3.114-.023.23-.047.345-.067a.422.422,0,0,1,.116-.021h.016l.039.026c.177.1.319.258.5.359a4.436,4.436,0,0,0,1.215.41c.477.105.954.219,1.422.363a15.033,15.033,0,0,1,2.826,1.19c.14.075.6.105.622-.13q.1-1.27.247-2.535c.049-.4.1-.806.16-1.21a2.019,2.019,0,0,1,.266-1.054.509.509,0,0,1,.4-.121c.219,0,.435,0,.654.011.412.011.822.026,1.232.054.855.058,1.707.156,2.556.289.126.021.443,0,.461-.181a18.084,18.084,0,0,0-2.244-10.461" transform="translate(6.41 14.296)" fill="#231c20"/>
            <path id="Trazado_1279190" data-name="Trazado 1279190" d="M38.79,112.114a89.561,89.561,0,0,1-6.063-10.642c-.107-.217-.813-.149-.692.1a89.91,89.91,0,0,0,6.062,10.64c.138.2.834.116.694-.1" transform="translate(24.109 76.302)" fill="#395795"/>
            <path id="Trazado_1279191" data-name="Trazado 1279191" d="M6.024,51.83a2.548,2.548,0,0,1-1.39-.019q-1.717-5.54-3.217-11.147c-.242-.9-.468-1.8-.663-2.714a2.559,2.559,0,0,1,1.2-.754c2.237-.622,4.966,2.146,6.088,6.188s.219,7.82-2.021,8.446" transform="translate(0.568 27.94)" fill="#65bfd7"/>
            <path id="Trazado_1279192" data-name="Trazado 1279192" d="M13.745,45.162,9.214,35.533c-.1-.219-.813-.153-.694.1l4.535,9.631c.1.219.813.153.694-.1" transform="translate(6.405 26.654)" fill="#231c20"/>
            <path id="Trazado_1279193" data-name="Trazado 1279193" d="M38.084,107.455s2.926,3.865,6.405,2.65,1.625-6.142,1.625-6.142Z" transform="translate(28.674 78.276)" fill="#ffae83"/>
            <path id="Trazado_1279194" data-name="Trazado 1279194" d="M51.951,100.735c.091.247.287,5.7,4.591,4.74s3.874-6.125,3.8-6.94c-2.971.919-8.391,2.2-8.391,2.2" transform="translate(39.115 74.189)" fill="#ffae83"/>
            <path id="Trazado_1279195" data-name="Trazado 1279195" d="M79.2,104.67c.177,1.148-.275,1.741-4.36,3.353s-20.01,7.054-20.01,7.054-.4-.833-.892-1.87c-.2-.421-.421-.876-.638-1.325-.748-1.548-1.018-4.908-1.048-6.356a21.659,21.659,0,0,1,.133-2.473,3.59,3.59,0,0,0,2.7,1.255,4.551,4.551,0,0,0,3.792-2.424c.209-.752.238-2.573,1.281-2.826.585-.138.792.862,1.716,1.732s1.837,1.038,3.8.929a35.512,35.512,0,0,1,8.432.482,24.957,24.957,0,0,1,2.819.759c1.3.454,2.165,1,2.274,1.711" transform="translate(39.342 74.573)" fill="#d3b0a3"/>
            <path id="Trazado_1279196" data-name="Trazado 1279196" d="M78.51,102.979c.177,1.148-.275,1.741-4.36,3.353s-20.01,7.054-20.01,7.054-.4-.833-.892-1.87c1.869-.5,8.519-2.5,14.242-4.629,6.637-2.47,7.843-2.864,7.837-3.5a3.44,3.44,0,0,1,.908-2.123c1.3.454,2.165,1,2.274,1.711" transform="translate(40.092 76.247)" fill="#c47d5d"/>
            <path id="Trazado_1279197" data-name="Trazado 1279197" d="M81.186,118.943c.189.78,1.653,4.105,2.088,5.55a31.317,31.317,0,0,1,.645,5.8c.032,1.118,1.288,2.163.608,2.88s-8.665,3.455-9.355,2.859-2.58-6.034-2.847-6.5.556-2.09.715-2.431-.5-.852-.9-1.176-1.981-4.652-3.46-8.449-6.5-17.778-6.742-18.443-3.967-4.423-6.062-7.052S46.152,79.034,45.447,78.913s-1.942,1.651-1.828,2.742,1.6,5.166,1.646,8.638,1.614,11.383,2.714,13.622,4.985,10.816,5.862,13.981,4.791,17.769,5.345,18.509a3.907,3.907,0,0,1,.3,3.285c-.419.813.216.957.664,1.928s.536,1.217-.144,1.937-8.332,3.515-8.833,3.792a1.157,1.157,0,0,1-1.2-1.827c-1.313-1.784-5.828-12.46-5.828-12.46-1.909-4-6.347-16.267-6.2-19.738S35,103.286,34.6,101.726,26.833,83.844,23.77,77.271a17.407,17.407,0,0,1-1.6-7.446,17.082,17.082,0,0,1,.812-5.3l26.269-8.5s1.229,1.749,3.082,4.384c5.452,7.751,19.186,28.471,19.915,29.763a67.808,67.808,0,0,1,5.7,15.243c1.316,5.93,3.054,12.745,3.243,13.526" transform="translate(16.692 42.184)" fill="#76784b"/>
            <path id="Trazado_1279198" data-name="Trazado 1279198" d="M53.91,63.407a123.309,123.309,0,0,1-14.751,1.318,72.928,72.928,0,0,1-16.844-1.777,17.04,17.04,0,0,1,2.423-4.778l27.61.112s.621,2.044,1.562,5.126" transform="translate(16.801 43.797)" fill="#fde4bb"/>
            <path id="Trazado_1279199" data-name="Trazado 1279199" d="M27.228,28.526,25.43,40,36.323,50.9l4.228-11.2S39,37.9,39.311,36.437c-4.34-1.914-6.693-2.281-7.075-2.871s-2.261-4.927-2.261-4.927Z" transform="translate(19.147 21.478)" fill="#ffa780"/>
            <path id="Trazado_1279200" data-name="Trazado 1279200" d="M31.762,33.736l9.8,10.525L45.352,34.9s10.568,1.048,11.513,1.392c-.044,1.493.969,29.181,1.046,31.511a19.944,19.944,0,0,0,1.21,5.562c.31.922-2.48,4-3.406,4.219s-15.531,1.728-19.359,1.669-9.438-.34-10.209-1.061S23.518,55.22,23.355,50.28s-1.183-10.323-5.129-11.124a117,117,0,0,1,13.536-5.42" transform="translate(13.723 25.401)" fill="#d3b0a3"/>
            <path id="Trazado_1279201" data-name="Trazado 1279201" d="M27.076,32.441s-1.032-.2-2.151,3.073a13.363,13.363,0,0,0-.6,6.1l7.236,6.871.6-8.519-4.894-5.255Z" transform="translate(18.223 24.424)" fill="#fde4bb"/>
            <path id="Trazado_1279202" data-name="Trazado 1279202" d="M32.572,39.976l2.5,4.87a17.933,17.933,0,0,0,2.692-7.336,18.83,18.83,0,0,0-3.839-4.019,2.953,2.953,0,0,0,.628,1.592l-1.979,4.894" transform="translate(24.524 25.215)" fill="#fde4bb"/>
            <path id="Trazado_1279203" data-name="Trazado 1279203" d="M41.391,47.058a40.511,40.511,0,0,0,8.237,7.418c4.244,2.64,7.19.233,7.2-1.979S48.89,41.361,47.121,40.155c-2.987,3.273-5.73,6.9-5.73,6.9" transform="translate(31.164 30.234)" fill="#ffae83"/>
            <path id="Trazado_1279204" data-name="Trazado 1279204" d="M46.948,60.733a39.182,39.182,0,0,1,4.3-7.208c3.078-4.142,7.781-9.7,9.127-11.653s1.26-2.71,1.21-3.124-1.43-2.032-1.38-3.927c-.061-2.289-2.125-2.628-1.613-4.056s2.682.447,3.259,1.779,1.136,1.692,1.657,1.213.491-1.269,1.551-2.843S69.485,25.032,70,25.24s.175,1.537-.829,3.31-1.511,2.982-1.255,3.2,1.581-1.588,2.621-3.238,1.877-2.386,2.335-2.16S72.821,28,72.821,28a.9.9,0,0,1,.764,1.01c-.032,1.076-3.038,5.05-2.843,5.28s3.785-1.93,4.193-1.406-2.982,3.127-3.7,3.615-2.931,3.755-3.7,4.293-2.033.685-2.847,3.127S60.379,57.264,55.9,62.456a14.44,14.44,0,0,1-6.088,4.352Z" transform="translate(35.348 18.998)" fill="#ffae83"/>
            <path id="Trazado_1279205" data-name="Trazado 1279205" d="M36.959,63.85l-5.769.191-.147-4.431,5.765-.291Z" transform="translate(23.373 44.662)" fill="#c47d5d"/>
            <path id="Trazado_1279206" data-name="Trazado 1279206" d="M28.95,31.6s-2.563-2.626-4.438-.782,1.013,4.843,2.389,5.494A22.393,22.393,0,0,0,31,37.26a17.876,17.876,0,0,0,2,4.345c.251.533,6.992,3.1,8,3.062a7.5,7.5,0,0,0,3.53-.892c.68-.563,3.262-4.365,3.453-5.608A79.47,79.47,0,0,0,46.907,26.9c-.615-2.845-1.6-6.281-5.287-7.657-3.762-1.4-10.849-.4-12.526,2.677s-.144,9.68-.144,9.68" transform="translate(17.993 14.02)" fill="#ffae83"/>
            <path id="Trazado_1279207" data-name="Trazado 1279207" d="M29.384,31.777s.666-.5,1.16-3.995c.577-4.062-.514-5.157-.514-5.157s-2.936-3.667-3.706-3.907-1.364.121-1.97,1.359a8.393,8.393,0,0,0-.6,5.914,8.4,8.4,0,0,0,1.835,4.295,3.161,3.161,0,0,1,2.275.28,10.336,10.336,0,0,1,1.522,1.211" transform="translate(17.697 14.04)" fill="#ac4a2e"/>
            <path id="Trazado_1279208" data-name="Trazado 1279208" d="M35.117,22.854a15.82,15.82,0,0,1,2.391,2.331A5.357,5.357,0,0,1,38.7,27.3a9.694,9.694,0,0,0-.186-5.634c-1.059-2.784-1.211-2.652-1.211-2.652a3.036,3.036,0,0,0-1.818,1.22,2.98,2.98,0,0,0-.37,2.615" transform="translate(26.326 14.319)" fill="#ac4a2e"/>
            <path id="Trazado_1279209" data-name="Trazado 1279209" d="M28.693,24.972S29.95,26.7,33.68,27.589a9.624,9.624,0,0,0,9.334-2.752c1.837-2.263,2.033-4.058,1.439-5.413a2.024,2.024,0,0,0-2.382-1.264,11.376,11.376,0,0,0-5.31-2.438c-3.523-.6-7.871.193-10.439,2.652-1.493,1.632-.941,2.938-.941,2.938Z" transform="translate(19.035 11.692)" fill="#ac4a2e"/>
            <path id="Trazado_1279210" data-name="Trazado 1279210" d="M37.7,34.043a46.7,46.7,0,0,1,9.247,6.524,41.768,41.768,0,0,1,4.26,4.042l-6.631,8.433-2.808-3.376Z" transform="translate(28.388 25.632)" fill="#d3b0a3"/>
            <path id="Trazado_1279211" data-name="Trazado 1279211" d="M40.753,48.187a20.486,20.486,0,0,1,3.111-4.9,41.509,41.509,0,0,1,4.119-4.249l1.479,1.721-7.1,9.219Z" transform="translate(30.684 29.396)" fill="#fde4bb"/>
            <path id="Trazado_1279212" data-name="Trazado 1279212" d="M53.423,115.481a18.532,18.532,0,0,1-7.429,4.037c-4.782,1.388-6.6.882-6.6.882l-.54-1.481s.037-7.194.105-8.233.731-4.384,3.089-5.448,5.345,1.593,5.345,1.593,5.092,6.652,5.42,6.991a11.376,11.376,0,0,1,.607,1.66" transform="translate(29.257 79.046)" fill="#d3b0a3"/>
            <path id="Trazado_1279213" data-name="Trazado 1279213" d="M53.457,111.677a18.532,18.532,0,0,1-7.429,4.037c-4.782,1.388-6.6.882-6.6.882l-.54-1.481a6.209,6.209,0,0,0,3.266-.359c1.316-.678,1.544-2.153,3.46-2.938s3.12-.373,4.538-.38a4.406,4.406,0,0,0,2.694-1.42,11.376,11.376,0,0,1,.607,1.66" transform="translate(29.283 82.834)" fill="#c47d5d"/>
            <path id="Trazado_1279214" data-name="Trazado 1279214" d="M23.9,26.955c-.067-1.4,1.618-1.642,2.656-1.285a5.236,5.236,0,0,1,3.022,2.915,13.9,13.9,0,0,0-1.287-1.32,6.047,6.047,0,0,0-1.469-1c-.961-.468-2.61-.647-2.922.685" transform="translate(17.991 19.217)" fill="#be5d4c"/>
            <path id="Trazado_1279215" data-name="Trazado 1279215" d="M27.5,28.29c.987,1.9,1.835,3.874,2.868,5.746a.6.6,0,0,0,.188.216,7.916,7.916,0,0,0,1.078.557c1.22.554,2.477,1.045,3.721,1.539a27.367,27.367,0,0,0,2.593.929c.417.033.838.039,1.26.033a8.733,8.733,0,0,1-1.267.116,16.2,16.2,0,0,1-2.708-.736c-1.283-.428-2.549-.9-3.792-1.455-.482-.254-1.176-.468-1.457-.966A45.871,45.871,0,0,1,27.5,28.29" transform="translate(20.702 21.3)" fill="#be5d4c"/>
            <path id="Trazado_1279216" data-name="Trazado 1279216" d="M33.211,28.352c1.19.479,2.508.361,2.92-1.029.335,1.748-1.97,2.295-2.92,1.029" transform="translate(25.005 20.572)" fill="#be5d4c"/>
            <path id="Trazado_1279217" data-name="Trazado 1279217" d="M32.588,21.432a5.526,5.526,0,0,1,2.089-3.877c1.252-.855,3.376-1.018,4.314.373a4.451,4.451,0,0,1,.247,3.416,8.86,8.86,0,0,1-3.714,4.123,10.163,10.163,0,0,0,3.322-4.233,4.231,4.231,0,0,0-.247-3.05c-.8-1.174-2.629-.983-3.72-.324a5.909,5.909,0,0,0-2.291,3.572" transform="translate(24.536 12.722)" fill="#2b2b2b"/>
            <path id="Trazado_1279218" data-name="Trazado 1279218" d="M25.339,18.828a14.664,14.664,0,0,1,3.509,3.962,14.634,14.634,0,0,1-3.509-3.962" transform="translate(19.078 14.176)" fill="#2b2b2b"/>
            <path id="Trazado_1279219" data-name="Trazado 1279219" d="M32.49,24.878a10.284,10.284,0,0,0,5.1-3.984c.459-.826.9-2.081.135-2.834a1.111,1.111,0,0,0-1.355.072,2.447,2.447,0,0,0-.692,1.439,2.854,2.854,0,0,1,.114-.84,1.375,1.375,0,0,1,2.684-.181c.652,3.09-3.32,5.832-5.981,6.328" transform="translate(24.462 13.211)" fill="#2b2b2b"/>
            <path id="Trazado_1279220" data-name="Trazado 1279220" d="M31.54,39.74a110.462,110.462,0,0,1,2.4,29.921c-.144-5.006-.259-10.016-.622-15.009-.384-4.992-1.032-9.958-1.774-14.912" transform="translate(23.747 29.921)" fill="#2b2b2b"/>
            <path id="Trazado_1279221" data-name="Trazado 1279221" d="M45.685,52.9a5.2,5.2,0,0,1,.691-2.037,34.954,34.954,0,0,1,2.233-3.7c2.056-2.952,4.182-5.851,6.452-8.638-1.525,2.442-3.161,4.8-4.829,7.141-1.26,1.748-2.533,3.478-3.657,5.31a5.625,5.625,0,0,0-.89,1.928" transform="translate(34.397 29)" fill="#be5d4c"/>
            <path id="Trazado_1279222" data-name="Trazado 1279222" d="M60,30.893a13.369,13.369,0,0,1,2.989-4.081A13.377,13.377,0,0,1,60,30.893" transform="translate(45.178 20.187)" fill="#be5d4c"/>
            <path id="Trazado_1279223" data-name="Trazado 1279223" d="M40.673,108.868c-.219-1.462,2.7-2.437,3.522-1.287a1.913,1.913,0,0,0-1-.135,4.955,4.955,0,0,0-1.883.661,1.452,1.452,0,0,0-.636.761" transform="translate(30.615 80.619)" fill="#2b2b2b"/>
            <path id="Trazado_1279224" data-name="Trazado 1279224" d="M40.434,110.93c.445-1.646,3.215-2.494,4.75-2.459a2.123,2.123,0,0,1,.787.165,3.429,3.429,0,0,0-.773.065,13.764,13.764,0,0,0-2.212.645,5.193,5.193,0,0,0-2.552,1.585" transform="translate(30.444 81.669)" fill="#2b2b2b"/>
            <path id="Trazado_1279225" data-name="Trazado 1279225" d="M57.887,103.631a3.081,3.081,0,0,1,2.121-3.064,11.177,11.177,0,0,0-2.121,3.064" transform="translate(43.575 75.719)" fill="#2b2b2b"/>
            <path id="Trazado_1279226" data-name="Trazado 1279226" d="M60.439,102.8a2.045,2.045,0,0,1,.71-2.054.893.893,0,0,1,.745-.205,1.552,1.552,0,0,0-.487.465,12.105,12.105,0,0,0-.664,1.159,3.713,3.713,0,0,0-.3.636" transform="translate(45.444 75.68)" fill="#2b2b2b"/>
            <path id="Trazado_1279227" data-name="Trazado 1279227" d="M30.093,26.49a4.763,4.763,0,0,1,2.936-.58,4.772,4.772,0,0,1-2.936.58" transform="translate(22.658 19.48)" fill="#2b2b2b"/>
            <path id="Trazado_1279228" data-name="Trazado 1279228" d="M28.968,27a4.445,4.445,0,0,1,2.2-2.035,3.9,3.9,0,0,1,2.976-.11,9.035,9.035,0,0,1-2.815.638,4.75,4.75,0,0,0-2.3,1.548Z" transform="translate(21.811 18.53)" fill="#ac4a2e"/>
            <path id="Trazado_1279229" data-name="Trazado 1279229" d="M31.684,26.588c.011.328-.165.6-.393.61s-.419-.254-.429-.582.165-.6.391-.608.421.252.431.58" transform="translate(23.236 19.582)" fill="#2b2b2b"/>
            <path id="Trazado_1279230" data-name="Trazado 1279230" d="M39.115,24.875a4.131,4.131,0,0,0-2.186-.433c-.366.072-.713.244-1.1.3a5,5,0,0,1-1.206.074,3,3,0,0,1,3.5-.645c.112.04,1.267.687.992.708" transform="translate(26.072 17.976)" fill="#ac4a2e"/>
            <path id="Trazado_1279231" data-name="Trazado 1279231" d="M37.987,25.352A4.777,4.777,0,0,1,35,25.525a4.763,4.763,0,0,1,2.987-.174" transform="translate(26.352 18.966)" fill="#2b2b2b"/>
            <path id="Trazado_1279232" data-name="Trazado 1279232" d="M35.774,25.913c.011.328.205.587.431.58s.4-.279.391-.608-.2-.589-.429-.582-.4.279-.393.61" transform="translate(26.935 19.051)" fill="#2b2b2b"/>
            <path id="Trazado_1279233" data-name="Trazado 1279233" d="M33.477,30.917a2.027,2.027,0,0,1,.482-1.427,1.051,1.051,0,0,1,1.434-.123,2.658,2.658,0,0,1,.668,1.9,2.08,2.08,0,0,1-.131.985.988.988,0,0,1-1.187.526,1.841,1.841,0,0,1-1.118-1.113,2.268,2.268,0,0,1-.147-.754" transform="translate(25.204 21.941)" fill="#e06f63"/>
            <path id="Trazado_1279234" data-name="Trazado 1279234" d="M16.306,67.828a63.894,63.894,0,0,0,7.744.475c2.547.147,5.05.659,7.644.7q9.913.155,19.826.138,4.959-.008,9.913-.06a13.592,13.592,0,0,0,7.99-2.543,3.2,3.2,0,0,0,1.027-.99,2.33,2.33,0,0,0-.33-2.507,5.439,5.439,0,0,0-2.189-1.509,34.461,34.461,0,0,0-8.179-2.063c-8.135-1.357-16.416-2.267-24.317-4.661-2.61-.789-5.271-1.7-7.992-1.5-1.427.105-2.189-1.266-3.148-2.244-2.2-2.249-4.544-4.579-7.56-5.476-2.831-.845-4.968-.018-7.536,1.018a6.888,6.888,0,0,0-4.345,4.3c-.722,2.477.708,5.413,1.639,7.681A16.453,16.453,0,0,0,11.013,65.4a11.025,11.025,0,0,0,5.294,2.423" transform="translate(3.507 34.062)" fill="#ffa87d"/>
            <path id="Trazado_1279235" data-name="Trazado 1279235" d="M21.448,59.074a6.489,6.489,0,0,1-.279.8,8.5,8.5,0,0,1-1.276,2.258,2.369,2.369,0,0,1-.9.393l-3.418.954a.533.533,0,0,0-.189-.128,1.181,1.181,0,0,0-.78.047c-1.72.521-3.494.9-5.18,1.5-.375.133-.757.277-1.141.408Q6.509,60.238,4.92,55.122,3.2,49.584,1.7,43.975c-.238-.9-.465-1.8-.659-2.712a35.716,35.716,0,0,1-.664-4.039,5.333,5.333,0,0,1,1.085-2.98A5.144,5.144,0,0,1,5.552,32.73c10.078.221,13.4,12.754,15.5,20.46a10.9,10.9,0,0,1,.4,5.885" transform="translate(0.283 24.629)" fill="#395795"/>
            <path id="Trazado_1279236" data-name="Trazado 1279236" d="M34.778,66.233a2.606,2.606,0,0,0-.636.836c-.394.908.309.8,1.006.873a25.813,25.813,0,0,0,4.277-.018,14.483,14.483,0,0,0,6.719-1.8c4.9-3.047,7.126-9.743,6.375-15.27a5.169,5.169,0,0,0-1.341-3.285,2.615,2.615,0,0,0-3.024-.642,3.1,3.1,0,0,0-.777.759c-1.018,1.3-1.793,2.836-3.118,3.821-1.537,1.138-3.615,1.369-5.141,2.526a5.893,5.893,0,0,0-1.678,1.991c-.328.64-.864,1.811-.408,2.482a2.3,2.3,0,0,0,.994.659,5.006,5.006,0,0,1,1.075.694,1.43,1.43,0,0,1,.638,1.176,1.591,1.591,0,0,1-.419.77,27.811,27.811,0,0,1-3.995,3.963c-.181.145-.368.3-.545.461" transform="translate(25.62 35.16)" fill="#ffa87d"/>
            <path id="Trazado_1279237" data-name="Trazado 1279237" d="M41.766,52.923q-.313.678-.684,1.323-2.009-.247-4-.636c-.123-.025-.379-.009-.443.13s.158.207.252.223q1.98.387,3.986.636a36.036,36.036,0,0,1-5.217,6.326c-.338.347-.682.684-1.01,1.041a1.3,1.3,0,0,0-.465,1.16c.068.261.775.214.717,0a1.166,1.166,0,0,1,.456-1.069c.293-.307.592-.608.887-.913.584-.6,1.167-1.2,1.735-1.823a31.326,31.326,0,0,0,3.087-3.83,18.356,18.356,0,0,0,1.387-2.47c.114-.251-.591-.321-.694-.1" transform="translate(25.732 39.746)" fill="#e06f63"/>
            <path id="Trazado_1279238" data-name="Trazado 1279238" d="M40.565,56.192a44.141,44.141,0,0,1-4.6,4.342c-.13.107.03.216.128.251a.56.56,0,0,0,.491-.065,43.8,43.8,0,0,0,4.6-4.342c.223-.245-.463-.358-.621-.184" transform="translate(27.042 42.247)" fill="#e06f63"/>
            <path id="Trazado_1279239" data-name="Trazado 1279239" d="M42.659,56.64a.473.473,0,0,0-.443.128,12.482,12.482,0,0,1-4.288,3.3c-.13.074-.128.186,0,.261a.6.6,0,0,0,.507,0,13.131,13.131,0,0,0,4.475-3.467c.093-.13-.172-.214-.251-.226" transform="translate(28.484 42.636)" fill="#e06f63"/>
            <path id="Trazado_1279240" data-name="Trazado 1279240" d="M20.51,36.4s-2.189-.3-3.671,6.165a55.428,55.428,0,0,0-.912,15.652s10.335-1.451,10.319-1.648S28.817,38.538,20.51,36.4" transform="translate(11.847 27.402)" fill="#d3b0a3"/>
            <path id="Trazado_1279241" data-name="Trazado 1279241" d="M16.382,48.737s-.486,7.7.317,9.555,1.967,4.451,5.374,3.6,3.336-5.029,3.511-7.932a49.308,49.308,0,0,0-.223-6.661Z" transform="translate(12.224 35.609)" fill="#ffae83"/>
            <path id="Trazado_1279242" data-name="Trazado 1279242" d="M15.523,51l-.228-1.841s.393-1.1,5.35-1.8,6.482-.137,6.482-.137l.067,1.97a45.714,45.714,0,0,0-6.346.675C17.788,50.422,15.523,51,15.523,51" transform="translate(11.516 35.387)" fill="#fde4bb"/>
            <path id="Trazado_1279243" data-name="Trazado 1279243" d="M19.095,36.385a2.463,2.463,0,0,1,2.151.875c2,2.228,2.2,6.232,2.482,9.1a37.6,37.6,0,0,1-.168,7.12,72.1,72.1,0,0,0-.521-9.431A28.89,28.89,0,0,0,22.322,40c-.463-1.515-1.357-3.662-3.227-3.62" transform="translate(14.377 27.371)" fill="#2b2b2b"/>
            <path id="Trazado_1279244" data-name="Trazado 1279244" d="M26.188,53.893a6.247,6.247,0,0,1,1.231,5.232c-.429,2.714-5.315,21.7-5.329,21.794,0,0,.2,3.7.177,4.128a2.7,2.7,0,0,0-2.089.752c-.324.5-1.369,3.8-1.488,4.055-.347.734-1.569,1.416-1.828.6-1.153.587-1.29-.978-1.29-.978-.962.282-1.371-.919-1.55-1.7-1.236-1.1-1.3-1.3-.778-3.679a6.434,6.434,0,0,1,2.212-3.6,21.147,21.147,0,0,0,2.244-1.38,124.051,124.051,0,0,1,.58-13.072c.834-7.68,1.118-11.517,1.513-12.733s3.685-3.608,6.4.584" transform="translate(9.738 38.791)" fill="#ffae83"/>
            <path id="Trazado_1279245" data-name="Trazado 1279245" d="M20.379,52.943a1.179,1.179,0,0,1,.426.216,4.4,4.4,0,0,1,1.7,3.047,12.565,12.565,0,0,1-.577,3.995c-.617,2.593-1.266,5.178-2.054,7.725.428-2.633,1-5.232,1.6-7.829a14.414,14.414,0,0,0,.67-3.858,4.253,4.253,0,0,0-1.763-3.3" transform="translate(14.964 39.862)" fill="#be5d4c"/>
            <path id="Trazado_1279246" data-name="Trazado 1279246" d="M14.51,69.608a38.288,38.288,0,0,1-.9,4.551c-.44-1.222.279-3.441.9-4.551" transform="translate(10.147 52.409)" fill="#be5d4c"/>
            <path id="Trazado_1279247" data-name="Trazado 1279247" d="M15.691,70.29a15.419,15.419,0,0,1-.645,2.575,4.565,4.565,0,0,0-.468,2.486c-.612-.747-.216-1.82.026-2.633a11.682,11.682,0,0,1,1.087-2.428" transform="translate(10.731 52.923)" fill="#be5d4c"/>
            <path id="Trazado_1279248" data-name="Trazado 1279248" d="M16.762,70.778c-.251.892-.587,1.73-.868,2.575-.328.857-.41,1.742-.7,2.607a6.467,6.467,0,0,1,.261-2.756,8.261,8.261,0,0,1,1.311-2.426" transform="translate(11.409 53.29)" fill="#be5d4c"/>
          </g>
        </g>
      </g>
    </g>
  </g>
</svg>
