<svg xmlns="http://www.w3.org/2000/svg" xmlns:xlink="http://www.w3.org/1999/xlink" width="162.25" height="162.25" viewBox="0 0 162.25 162.25">
  <defs>
    <clipPath id="clip-path">
      <rect id="Rectángulo_459121" data-name="Rectángulo 459121" width="88.289" height="88.286" fill="#6a2874"/>
    </clipPath>
  </defs>
  <g id="Grupo_1212038" data-name="Grupo 1212038" transform="translate(-875.086 -5856.519)">
    <g id="Grupo_1209875" data-name="Grupo 1209875" transform="translate(569.939 -4155.94)">
      <g id="Grupo_1177470" data-name="Grupo 1177470" transform="translate(305.146 10012.421)">
        <circle id="Elipse_13609" data-name="Elipse 13609" cx="81.125" cy="81.125" r="81.125" transform="translate(0 0.038)" fill="#f6e1fe"/>
        <g id="Grupo_1207827" data-name="Grupo 1207827" transform="translate(35.635 35.96)">
          <g id="Grupo_1099618" data-name="Grupo 1099618" transform="translate(0.365 0.078)">
            <rect id="Rectángulo_401104" data-name="Rectángulo 401104" width="90" height="90" transform="translate(0)" fill="none"/>
          </g>
          <g id="Grupo_1208953" data-name="Grupo 1208953" transform="translate(1.365 1.078)">
            <g id="Grupo_1208952" data-name="Grupo 1208952" clip-path="url(#clip-path)">
              <path id="Trazado_1268059" data-name="Trazado 1268059" d="M188.984,152.485c.389-.228,2.738-4.661,3.4-5.206a2.363,2.363,0,0,1,2.35-.09l12.9,21.98a11.612,11.612,0,0,1,13.441,14.263,12.008,12.008,0,0,1-6.841,7.829c-1.283.5-4.074.691-4.709,1.108-.356.234-.669,1.093-1.033,1.5-9.161,10.138-24.628.145-19.591-12,.53-1.278,1.449-2.179,1.856-3.357l-12.568-21.874c-.116-.771,3.217-5.623,3.933-5.836,1.406-.419,6.2,2.078,6.859,1.691m-5.737,2.088c-.308.97-1.49,1.586-.86,2.681l12.35,21.554c.221,1.285-.972,1.741-1.517,2.565-6.126,9.264,5.434,17.925,12.746,10.222-2.1-.814-7.034-4.225-6.265-6.777a2.438,2.438,0,0,1,1.2-1.084c1.434-.393,2.2,1.631,2.945,2.4,3.825,3.939,10.794,3.183,13.221-1.9,2.886-6.046-1.651-12.169-8.2-11.738-1.376.09-2.352.981-3.548-.229l-11.614-20c-.29-.331-.244-.27-.5.017-.789.9-2.043,3.774-3.1,3.978-2.071.4-4.739-1.554-6.867-1.68" transform="translate(-133.12 -109.759)" fill="#6a2874"/>
              <path id="Trazado_1268060" data-name="Trazado 1268060" d="M9.62,10.383h4.173a14.97,14.97,0,0,1,3.931,1.633,1.914,1.914,0,0,1-.118,2.684c-1.192.843-2.407-.308-3.484-.6a8.289,8.289,0,0,0-9.7,3.856C.566,25.329,8.84,33.135,15.922,28.7c1.038-.65,2.129-2.23,3.323-2.024l20.6,11.776c.766-.044-.04-4.536.992-5.576.99-1,6.406-1.088,6.687-1.912a5.841,5.841,0,0,0-.091-2.373c-.193-.317-2.7-1.406-3.254-1.805-1.853-1.338-.969-3.855,1.616-3.131a51.206,51.206,0,0,1,5.067,3.025,1.136,1.136,0,0,1,.231.528,24.315,24.315,0,0,1-.438,6.128c-.615,1.462-5.337,1.756-6.889,2.09-.494,1.741.518,7.829-2.152,7.821a8.731,8.731,0,0,1-2.067-.951c-6.8-3.595-13.248-7.956-20-11.642-.382-.1-2.315,1.385-3.009,1.7C4.369,37.858-6.118,22.231,4.188,12.918c.4-.364,1.262-.677,1.5-1.033.415-.631.527-3.064.891-4.167A12.056,12.056,0,0,1,14.033.506,11.709,11.709,0,0,1,28.95,13.926c1.1.924,3.986,1.648,4.185,3.183a1.655,1.655,0,0,1-1.964,1.955,36,36,0,0,1-5.506-3.1c-.96-1.109.029-3.516-.1-5.212-.721-9.324-14.933-9.722-15.943-.37" transform="translate(0 0)" fill="#6a2874"/>
              <path id="Trazado_1268061" data-name="Trazado 1268061" d="M204.214,52.6a33.91,33.91,0,0,1-3.079-5.876c.025-1.608,2.891-2.109,2.946-2.771-.328-1.128-1.971-2.7-1.975-3.8a1.765,1.765,0,0,1,3.17-1.133,45.56,45.56,0,0,1,2.63,4.7c.918,2.577-.89,2.443-2.478,3.789.381,1.532,2.3,2.914,1.56,4.59a1.793,1.793,0,0,1-2.774.5" transform="translate(-150.262 -28.631)" fill="#6a2874"/>
              <path id="Trazado_1268062" data-name="Trazado 1268062" d="M248.437,67.2c.1,1.555-1.527,6.519-3.659,4.039-.818-.952.444-6.183,1.12-7.209,1.033-1.57,3.963.117,4.3-.123.542-1.618.752-5.893,3.391-4.512a1.582,1.582,0,0,1,.932,1.594,37.474,37.474,0,0,1-1.566,5.8c-1.189,2.111-4.09-.006-4.517.413" transform="translate(-182.668 -44.168)" fill="#6a2874"/>
              <path id="Trazado_1268063" data-name="Trazado 1268063" d="M266.415,119.686c1.667-.187,3.9-3.052,5.445-1.528a1.673,1.673,0,0,1-.154,2.65,34.938,34.938,0,0,1-5.54,3.076c-1.954.272-2.3-2.767-2.941-2.919-1.083.271-2.447,1.674-3.513,1.776A1.692,1.692,0,0,1,258.3,119.8a41.079,41.079,0,0,1,4.959-2.882c2.094-.4,2.462,1.188,3.154,2.771" transform="translate(-192.549 -87.298)" fill="#6a2874"/>
              <path id="Trazado_1268064" data-name="Trazado 1268064" d="M145.675,77.11c2.378-.426,2.81,3.347.426,3.5a1.771,1.771,0,0,1-.426-3.5" transform="translate(-107.793 -57.582)" fill="#6a2874"/>
            </g>
          </g>
        </g>
      </g>
      <ellipse id="Elipse_13678" data-name="Elipse 13678" cx="19.243" cy="19.243" rx="19.243" ry="19.243" transform="translate(305.965 10136.186)" fill="#da9dfe"/>
      <g id="Grupo_1207826" data-name="Grupo 1207826" transform="translate(305.146 10138.641)">
        <path id="Trazado_998481" data-name="Trazado 998481" d="M0,13.854q4.835.419,9.664.868l-.27.112,1.389-2.491a.373.373,0,0,1,.426-.131.271.271,0,0,1,.2.185l0,.01,1.186,5.359L11.7,17.7l1.915-4.337,1.934-4.332,1.94-4.33L19.452.377A.822.822,0,0,1,20.394.03.578.578,0,0,1,20.9.6V.609l-.77,7.01-.812,7.007-.823,7.006-.854,7L16.044,28.4c1.235-2.953,2.506-5.9,3.765-8.845l1.893-4.42,1.917-4.414,0-.011a.7.7,0,0,1,.8-.305.505.505,0,0,1,.439.47l-.29,5.628-.314,5.627-.826-.118,2.776-5.324,0-.009a.291.291,0,0,1,.3-.125l5.25.671,5.247.689-5.291-.467-5.287-.485.3-.133-2.494,5.4a.472.472,0,0,1-.54.2.338.338,0,0,1-.286-.3v-.012l.079-5.631.1-5.631L24.836,11,23.051,15.45l-1.809,4.44c-1.209,2.959-2.407,5.921-3.64,8.874a.892.892,0,0,1-1.022.4c-.373-.087-.6-.356-.57-.635v0l.812-7.007.842-7,.854-7,.9-7,1.444.232-2.048,4.3-2.069,4.3-2.074,4.3-2.093,4.29-.005.011a.513.513,0,0,1-.588.2.382.382,0,0,1-.3-.278l-.924-5.388.624.063L9.86,14.986l0,.007a.273.273,0,0,1-.265.1q-4.8-.609-9.59-1.244" transform="translate(0 4.51) rotate(-7)" fill="#fff"/>
      </g>
    </g>
    <path id="Trazado_1271664" data-name="Trazado 1271664" d="M79.8,53.239V66.476a.9.9,0,0,1-.9.895H68.265a.9.9,0,0,0-.9.9V78.909a.9.9,0,0,1-.9.9H53.239a.9.9,0,0,1-.9-.9V68.266a.9.9,0,0,0-.895-.9H40.767a.9.9,0,0,1-.9-.895V53.239a.9.9,0,0,1,.9-.9H51.449a.9.9,0,0,0,.895-.895V40.768a.9.9,0,0,1,.9-.9H66.475a.9.9,0,0,1,.9.9V51.449a.9.9,0,0,0,.9.895H78.908a.9.9,0,0,1,.9.9" transform="translate(951.755 5821.313)" fill="#8d1939"/>
  </g>
</svg>
