<svg xmlns="http://www.w3.org/2000/svg" xmlns:xlink="http://www.w3.org/1999/xlink" width="85" height="85" viewBox="0 0 85 85">
  <defs>
    <clipPath id="clip-path">
      <rect id="Rectángulo_461221" data-name="Rectángulo 461221" width="57" height="74.822" fill="#8d1939"/>
    </clipPath>
  </defs>
  <g id="Grupo_1209927" data-name="Grupo 1209927" transform="translate(0.289 0.325)">
    <path id="Sustracción_110" data-name="Sustracción 110" d="M0,0H85V85H0Z" transform="translate(-0.289 -0.325)" fill="#ffe19a"/>
    <g id="Grupo_1212547" data-name="Grupo 1212547" transform="translate(13.711 4.675)">
      <g id="Grupo_1212546" data-name="Grupo 1212546" clip-path="url(#clip-path)">
        <path id="Trazado_1279060" data-name="Trazado 1279060" d="M50.675,11.68c3.4-.311,5.843.956,6.125,4.565-.614,10.292.888,21.591-.222,31.755-.707,6.476-2.29,14.893-3.663,21.314-.526,2.459-1.053,4.3-3.7,5.193-13.322.632-26.789.084-40.165.278a5.211,5.211,0,0,1-4.7-3.558,24.177,24.177,0,0,1-.9-6.082c.189-.982,1.6-.939,2.015.1.994,2.465-.158,6.784,3.612,7.395l38.3.027c2.649-.234,2.954-1.792,3.417-3.991,1.307-6.2,3.248-15.574,3.663-21.737.689-10.233-.5-21.213-.01-31.524-.386-2.476-4.436-1.031-5.292-1.9-1.359-2.066-2.24-9.169-3.9-10.5A3.4,3.4,0,0,0,44.1,2.482l-31.668.105c-1.049.33-1.328.927-1.736,1.862-.727,1.667-2.2,8.246-3,9.064-.857.874-4.906-.572-5.292,1.9.461,10.267-.655,21.125-.021,31.323.286,4.6,1.75,9.191,2.306,13.761a1.218,1.218,0,0,1-1.133,1.136,1.209,1.209,0,0,1-1.111-.988C-1.061,46.079.317,31.123.059,16.244c.282-3.6,2.7-4.877,6.125-4.565.879-2.537,1.454-5.56,2.46-8.017a4.788,4.788,0,0,1,4.432-3.4c9.8-.84,20.781.65,30.707,0,5.405.381,5.171,7.553,6.893,11.416" transform="translate(0 0)" fill="#8d1939"/>
        <path id="Trazado_1279061" data-name="Trazado 1279061" d="M19.07,74.485l47.92.254.188,30.709c-1.375,7.134-2.187,14.415-3.662,21.526-.111.533-.289,2.021-.653,2.311l-40.148-.111a9.9,9.9,0,0,1-.552-2.2c-1.284-6.2-3.223-15.382-3.662-21.526-.7-9.734.522-20.247-.012-30.063Zm45.995,2.074H20.615l0,27.832,3.931,22.98,36.705-.014,3.81-22.966Z" transform="translate(-14.411 -58.719)" fill="#8d1939"/>
        <path id="Trazado_1279062" data-name="Trazado 1279062" d="M50.984,20.477H82.017c.368.111.438.39.58.69a64.244,64.244,0,0,1,2.281,7.475,1.328,1.328,0,0,1-.384,1.215l-35.625.061c-.706-.288-.6-.859-.52-1.488a55,55,0,0,1,2.12-7.411c.121-.265.211-.452.516-.543m31.391,7.367-1.828-5.263-28.252.1-1.458,5.165Z" transform="translate(-38.071 -16.142)" fill="#8d1939"/>
        <path id="Trazado_1279063" data-name="Trazado 1279063" d="M61.916,93.838c-1.257-.269-1.7-2.144.414-2.338,2.184-.2,5.8-.512,6.2,2.283-.355,6.73.647,14.277.059,20.913-.141,1.59-.932,2.83-2.646,2.857-8.621-.641-18.419.824-26.9,0a2.392,2.392,0,0,1-2.424-2.444c.432-6.71-.573-14.126-.007-20.751.126-1.475.6-2.661,2.225-2.855,5.607.5,12.315-.646,17.789,0,.72.085,1.145.255,1.259,1.032a1.234,1.234,0,0,1-1.051,1.3H38.95v21.378h27.3V93.838c-1.257-.182-3.18.248-4.339,0" transform="translate(-28.724 -71.977)" fill="#8d1939"/>
        <path id="Trazado_1279064" data-name="Trazado 1279064" d="M73.336,132.551a3.753,3.753,0,0,1-2.212,2.868,11.972,11.972,0,0,1-4.716.039c-2.612-.855-2.446-5.058-1.761-7.151a27.664,27.664,0,0,1,5.2-6.657c2.7-1.783,4.087,2.319,3.493,4.447h2.329v-3.069a7.1,7.1,0,0,1,.733-1.172,2.25,2.25,0,0,1,2.973.006,38.962,38.962,0,0,1,4.588,5.572c1.2,2.388,1.413,7.677-2.068,8.17a14.031,14.031,0,0,1-4.052-.144,4.244,4.244,0,0,1-2.174-2.695v-4.551H73.336c-.135,1.356.185,3.028,0,4.339m-2.328-9c-2.4,2.988-4.881,4.307-4.457,8.585.235,2.368,4.457,1.284,4.457.623Zm6.985,0v9.207c0,.921,3.632,1.1,4.249.227.45-.634.261-3.686-.185-4.5Z" transform="translate(-50.622 -95.556)" fill="#8d1939"/>
        <path id="Trazado_1279065" data-name="Trazado 1279065" d="M65.182,249.764c5.375.244,11.369-.516,16.674-.063,1.921.164,2.9.87,3.07,2.856a60.46,60.46,0,0,1-.008,8.687,2.461,2.461,0,0,1-2.424,2.445c-5.549.533-11.942-.424-17.584-.006a2.415,2.415,0,0,1-2.218-2.438,58.981,58.981,0,0,1,.019-9.084,2.573,2.573,0,0,1,2.471-2.4m17.407,2.273H65.021v9.525H82.589Z" transform="translate(-49.292 -196.732)" fill="#8d1939"/>
        <path id="Trazado_1279066" data-name="Trazado 1279066" d="M196.46,91.995c1.049-.235,4.946-.233,5.663.6.827.959.838,5.71-.2,6.562-.7.575-4.946.589-5.774.255a2.257,2.257,0,0,1-.787-.695c-.452-.7-.461-4.233-.314-5.165a2.085,2.085,0,0,1,1.408-1.555m3.871,2.284h-3.175c.105.625-.232,2.783.2,3.083l2.977.092Z" transform="translate(-153.699 -72.417)" fill="#8d1939"/>
        <path id="Trazado_1279067" data-name="Trazado 1279067" d="M196.434,179.038c.941-.211,4.916-.207,5.575.474.915.946.931,5.645-.02,6.563-.895.863-5.7.861-6.556-.2-.575-.712-.563-4.295-.407-5.284a2.085,2.085,0,0,1,1.408-1.555m3.871,2.072c-.625.105-2.783-.232-3.083.2l-.092,2.977h3.175Z" transform="translate(-153.673 -141.045)" fill="#8d1939"/>
        <path id="Trazado_1279068" data-name="Trazado 1279068" d="M196.261,136.033a30.691,30.691,0,0,1,5.03-.041c1.949.37,1.825,6.421.439,7.2-.544.306-4.273.3-5.1.206a1.625,1.625,0,0,1-1.26-.645c-.45-.625-.45-4.481-.31-5.38a1.621,1.621,0,0,1,1.2-1.343m.907,5.246h3.175V138.1h-3.175Z" transform="translate(-153.711 -107.141)" fill="#8d1939"/>
        <path id="Trazado_1279069" data-name="Trazado 1279069" d="M187.309,254.625a4.038,4.038,0,1,1-4.038-4.038,4.038,4.038,0,0,1,4.038,4.038m-2.211.025a1.827,1.827,0,1,0-1.827,1.827,1.827,1.827,0,0,0,1.827-1.827" transform="translate(-141.295 -197.546)" fill="#8d1939"/>
        <path id="Trazado_1279070" data-name="Trazado 1279070" d="M162.771,228.284h8.255c.691,0,.691,2.117,0,2.117h-8.043c-.856,0-1.072-1.7-.212-2.117" transform="translate(-127.886 -179.964)" fill="#8d1939"/>
        <path id="Trazado_1279071" data-name="Trazado 1279071" d="M137.99,229.084a1.106,1.106,0,1,1-1.106-1.106,1.106,1.106,0,0,1,1.106,1.106" transform="translate(-107.038 -179.723)" fill="#8d1939"/>
        <path id="Trazado_1279072" data-name="Trazado 1279072" d="M87.4,229.1a1.1,1.1,0,1,1-1.1-1.1,1.1,1.1,0,0,1,1.1,1.1" transform="translate(-67.163 -179.74)" fill="#8d1939"/>
        <path id="Trazado_1279073" data-name="Trazado 1279073" d="M195.325,300.583a1.1,1.1,0,1,1-1.1-1.1,1.1,1.1,0,0,1,1.1,1.1" transform="translate(-152.255 -236.097)" fill="#8d1939"/>
        <path id="Trazado_1279074" data-name="Trazado 1279074" d="M62.226,229.144a1.1,1.1,0,1,1-1.1-1.1,1.1,1.1,0,0,1,1.1,1.1" transform="translate(-47.327 -179.778)" fill="#8d1939"/>
        <path id="Trazado_1279075" data-name="Trazado 1279075" d="M112.6,229.137a1.087,1.087,0,1,1-1.087-1.087,1.087,1.087,0,0,1,1.087,1.087" transform="translate(-87.049 -179.78)" fill="#8d1939"/>
        <path id="Trazado_1279076" data-name="Trazado 1279076" d="M86.5,278.853c-.471-.472-.381-1.789.484-1.849,1.686.256,10.655-.438,11.443.185.7.551.2,1.76-.66,1.92-3.291-.2-6.915.285-10.164.014-.328-.027-.871-.036-1.1-.271" transform="translate(-67.968 -218.307)" fill="#8d1939"/>
      </g>
    </g>
  </g>
</svg>
