<svg xmlns="http://www.w3.org/2000/svg" xmlns:xlink="http://www.w3.org/1999/xlink" width="150" height="150" viewBox="0 0 150 150">
  <defs>
    <clipPath id="clip-path">
      <rect id="Rectángulo_460583" data-name="Rectángulo 460583" width="83.604" height="68.066" fill="#6a2874"/>
    </clipPath>
  </defs>
  <g id="Grupo_1212912" data-name="Grupo 1212912" transform="translate(-306 -3228.371)">
    <g id="Grupo_1210785" data-name="Grupo 1210785" transform="translate(-255.711 -5338.713)">
      <g id="Grupo_1207828" data-name="Grupo 1207828" transform="translate(561.711 8567.084)">
        <g id="Grupo_1177470" data-name="Grupo 1177470" transform="translate(0 0)">
          <circle id="Elipse_13609" data-name="Elipse 13609" cx="75" cy="75" r="75" fill="#f6e1fe"/>
          <g id="Grupo_1207827" data-name="Grupo 1207827" transform="translate(32.621 32.621)">
            <g id="Grupo_1099618" data-name="Grupo 1099618" transform="translate(-0.909 0.009)">
              <rect id="Rectángulo_401104" data-name="Rectángulo 401104" width="84.532" height="84.532" transform="translate(0)" fill="none"/>
            </g>
            <g id="Grupo_1211044" data-name="Grupo 1211044" transform="translate(-0.91 8.009)">
              <g id="Grupo_1211043" data-name="Grupo 1211043" clip-path="url(#clip-path)">
                <path id="Trazado_1273221" data-name="Trazado 1273221" d="M53.273,32.518c4.407-2.15,10.911-.186,12.906,4.3l.584-.248,3-5.245a9.728,9.728,0,0,1-5.731-.364c-8.876-3.435-7.394-9.2-2.492-15.626,5.741-7.527,17.28-2.234,15.742,6.921,2.211,1.806,7.327,2.64,6.153,6.372A43.266,43.266,0,0,1,80.521,33.6c-1.024.9-2.448.173-2.116-1.14.22-.872,2.81-4.334,2.766-4.846-.613-.674-4.311-3.057-4.919-2.7L55.907,60.122l-.761.434-26.973.05a1.382,1.382,0,0,1-.546-2.3c.9-.572,5.349.009,5.577-.219.076-1.753-.375-3.506.716-5.019H2.976l-.358.358v4.659h20.43c.9,0,1.363,2.628-.478,2.628H2.617v4.659l.358.358H58.888a12.7,12.7,0,0,0,2.072-2.946c5.088-8.288,9.5-17.027,14.578-25.325,1.037-1.76,2.952-.659,2.161,1.2L61.593,66.525a3.436,3.436,0,0,1-2.284,1.539l-56.995,0A2.787,2.787,0,0,1,.243,65.836,86.044,86.044,0,0,1,.223,53.181a3.188,3.188,0,0,1,2.753-2.742h7.288V39.328c0-1.369,2.628-1.369,2.628,0V50.439H17.91V33.594c0-.9,2.389-.9,2.389,0V50.439h5.257V33.594c0-1.943-2.747-4.855-4.546-5.49-2.56-.9-7.4-.608-8.064,2.677-.245,1.211.532,4.059-1.362,4.141-1.62.071-1.411-1.79-1.316-3,.7-8.946,13.253-8.494,16.653-1.608a18.525,18.525,0,0,1,1.024,2.8V50.439H40.609V25.111c-1.918.175-3.724-.1-4.587-1.985-.671-1.462-.578-7.052-.441-8.9.233-3.14,1.881-4.428,5.028-4.171V5.04h-3.7c-.507,0-3.366-2.648-3.579-3.11C33,1.222,33.138.141,34.052.017,35.567-.19,36.2,1.649,37.131,2.186c1.366.783,11.945-.093,14.594.221.4.047,1.548.471,1.548.842ZM50.884,5.04H43.238v5.018c3.147-.257,4.8,1.031,5.028,4.171.137,1.846.23,7.436-.441,8.9-.863,1.88-2.669,2.16-4.587,1.985v21.5L49.59,35.884c.055-.419,1.294-1.472,1.294-1.574Zm-11.53,7.466c-1.118.208-1.261.654-1.372,1.734a43.933,43.933,0,0,0,0,6.689c.109.966.273,1.663,1.3,1.8a38.934,38.934,0,0,0,5.868-.127c.543-.268.672-1.352.723-1.906.106-1.15.14-7.157-.375-7.768-.57-.678-5.168-.608-6.147-.426m28.928,1.669c-3.852.268-5.958,4-7.487,7.108-.985,2-1.4,3.605.489,5.256,5.08,4.444,10.353,3.064,12.987-3.01,1.931-4.455-1-9.7-5.989-9.353m-32.69,43.91H54.109l10.043-17.2c1.457-5.651-6.694-8.485-10.759-5.5-2.11,1.548-7.286,11.122-8.76,13.94a2.062,2.062,0,0,0-.44,1.113h5.615c1.541-1.538,5.608-10.681,6.873-11.3a1.287,1.287,0,0,1,1.811.958l-7,12.5a1.891,1.891,0,0,1-1.2.477c-3.993.463-8.724-.448-12.8.107-2.245.765-1.948,2.938-1.9,4.905" transform="translate(0 -0.001)" fill="#6a2874"/>
                <path id="Trazado_1273222" data-name="Trazado 1273222" d="M50.654,10.238a8.883,8.883,0,0,1,9.621,8.4c.53,7.637-.342,12.761-9.42,11.809-11.316-1.187-10.988-19.163-.2-20.214m-.727,2.618a6.426,6.426,0,0,0-4.726,5.31c-.325,3.648-.122,7.809,3.837,9.324a17.255,17.255,0,0,0,6.454.251,3.98,3.98,0,0,0,2.368-2.889,38.186,38.186,0,0,0,.012-6.2c-.408-4.136-3.911-6.477-7.946-5.8" transform="translate(-32.319 -7.76)" fill="#6a2874"/>
              </g>
            </g>
          </g>
        </g>
        <ellipse id="Elipse_13678" data-name="Elipse 13678" cx="18.074" cy="18.074" rx="18.074" ry="18.074" transform="translate(0.769 113.817)" fill="#da9dfe"/>
        <g id="Grupo_1207826" data-name="Grupo 1207826" transform="translate(0 116.123)">
          <path id="Trazado_998481" data-name="Trazado 998481" d="M0,13.012q4.541.393,9.077.815l-.253.1,1.3-2.34a.35.35,0,0,1,.4-.123.254.254,0,0,1,.184.174l0,.009,1.114,5.034-.836-.059,1.8-4.073,1.816-4.068,1.822-4.067L18.27.354a.772.772,0,0,1,.885-.326.543.543,0,0,1,.472.536V.572L18.9,7.156l-.762,6.581-.773,6.58-.8,6.579-1.5-.222c1.16-2.774,2.354-5.539,3.536-8.307l1.778-4.152,1.8-4.146,0-.01a.657.657,0,0,1,.753-.287.475.475,0,0,1,.413.442L23.082,15.5l-.295,5.285-.776-.111,2.607-5,0-.008a.274.274,0,0,1,.277-.117l4.931.63,4.928.647-4.969-.438-4.966-.456.281-.125L22.763,20.88a.443.443,0,0,1-.508.185.318.318,0,0,1-.269-.285v-.011l.074-5.289.1-5.289,1.17.145-1.676,4.175-1.7,4.17c-1.136,2.779-2.26,5.561-3.418,8.335a.838.838,0,0,1-.96.376c-.35-.082-.566-.334-.536-.6v0l.762-6.581.791-6.579.8-6.579L18.234.48,19.59.7,17.666,4.738,15.723,8.774l-1.948,4.035-1.966,4.029-.005.01a.482.482,0,0,1-.552.192.359.359,0,0,1-.279-.261L10.1,11.718l.586.059-1.431,2.3,0,.007a.257.257,0,0,1-.249.1Q4.5,13.609,0,13.012" transform="translate(0 4.236) rotate(-7)" fill="#fff"/>
        </g>
      </g>
      <path id="Trazado_1267128" data-name="Trazado 1267128" d="M77.377,52.427V64.859a.84.84,0,0,1-.841.84h-10a.841.841,0,0,0-.841.841v10a.841.841,0,0,1-.841.841H52.427a.841.841,0,0,1-.841-.841v-10a.841.841,0,0,0-.84-.841H40.713a.841.841,0,0,1-.841-.84V52.427a.841.841,0,0,1,.841-.841H50.745a.84.84,0,0,0,.84-.84V40.714a.841.841,0,0,1,.841-.841H64.858a.841.841,0,0,1,.841.841V50.746a.841.841,0,0,0,.841.84h10a.841.841,0,0,1,.841.841" transform="translate(630.197 8531.593)" fill="#8d1939"/>
    </g>
  </g>
</svg>
