<svg xmlns="http://www.w3.org/2000/svg" xmlns:xlink="http://www.w3.org/1999/xlink" width="101" height="101" viewBox="0 0 101 101">
  <defs>
    <clipPath id="clip-path">
      <rect id="Rectángulo_460726" data-name="Rectángulo 460726" width="43.391" height="81.348" fill="none"/>
    </clipPath>
  </defs>
  <g id="Grupo_1211273" data-name="Grupo 1211273" transform="translate(-361.711 -4646)">
    <rect id="Rectángulo_460135" data-name="Rectángulo 460135" width="101" height="101" rx="50.5" transform="translate(361.711 4646)" fill="#fee7ec"/>
    <g id="Grupo_1211272" data-name="Grupo 1211272" transform="translate(0.195 0.174)">
      <g id="Grupo_1211271" data-name="Grupo 1211271" transform="translate(390.516 4655.826)">
        <g id="Grupo_1211270" data-name="Grupo 1211270" clip-path="url(#clip-path)">
          <path id="Trazado_1273938" data-name="Trazado 1273938" d="M20.49,2.328c.026.027.289-.071.37.036a6.482,6.482,0,0,1,.773,1.8,39.327,39.327,0,0,1,.3,4.425c.323,8.381-1.085,17.469-.428,25.721.031.385.267,2.074.646,1.042.686-1.866.879-6.3,1.005-8.455.388-6.607-.287-13.9.412-20.357.15-1.387.816-3.039,2.363-3.193,2.39-.237,2.951,1.727,3.34,3.661,2.289,11.383.487,24.029,2.584,35.459.262,1.431.618,2.865.971,4.274.3.038.37-.539.39-.736a114.6,114.6,0,0,1,2.127-11.652c.644-3.032,2.146-9.744,6.322-9.409.057.534-.527.52-.686.872-.354.786-.577,4.4-.152,5,.4.57,1.438.53,2.071.5-.762,6.939-.7,13.952-1.443,20.869-.635,5.9-6.019,12.481-7.754,17.95-.912,2.874-.771,6.4-1.112,9.376-.129,1.124-.178,1.58-1.249,2.042-4.059,1.751-17.278,1.481-21.831.733-1.194-.2-4.272-.617-4.245-2.126.056-3.087.467-6.319.181-9.438-.623-6.794-4.64-13.862-5.112-21A191.6,191.6,0,0,1,.33,27.1c.15-2.53.9-10.618,2.382-12.424A2.317,2.317,0,0,1,6.721,16.2c.286,3.064-.39,6.1-.5,8.885A123.614,123.614,0,0,0,6.3,39.343l.31-.2c.118-10.61.57-21.262,2.938-31.609a2.307,2.307,0,0,1,1.891-1.5c-.137.725-.823.577-1.1,1.474a16.641,16.641,0,0,0-.328,2.563c-.014,1.865,2.374,2.655,3.237,1.168a14.41,14.41,0,0,0,.459-2.85c.023-.543-.371-1.146-.009-1.532.112.149.394.137.564.563.532,1.327.059,2.436.044,3.644-.063,5.092-.471,10.149-.823,15.217.308,3.165-.385,7.011.008,10.088.036.283.156.647.411.306L15.763,6.546c.4-1.858.108-3.686,2.054-4.629-.679,1.392-1.374,5.194.733,5.539,3.015.494,2.153-3.247,1.941-5.128m5.494,1.479c-1.217.366-1.118,2.727-.957,3.753a1.6,1.6,0,0,0,3.03.381c.412-1.413.16-4.805-2.072-4.133m-22.21,10.7c-1.388.407-1.163,5.31,1.2,3.874.727-.441,1.671-4.716-1.2-3.874m22.8,28.423A5.792,5.792,0,0,0,22.435,41.8c-1.48.111-3.072,1.238-4.742,1.425-1.65.185-3.839-.543-5.1-.165-1.588.477-2.171,2.582-3.414,3.581a14.9,14.9,0,0,1-1.661.86,9.063,9.063,0,0,0-1.207,2.441c-.243,1.534.231,3.2.2,4.726C6.45,58.057,4.625,62.2,7.692,65.051c3.555,3.309,8.987.549,13.1.822.724.048,1.544.356,2.268.4,2.344.157,4.4.1,5.976-1.836,1.986-2.44.179-4.565.954-7.061.086-.277.427-.445.525-.708.865-2.324,1.683-3.382.343-5.8-.61-1.1-1.926-2.28-2.435-3.322-.762-1.559-.323-3.389-1.852-4.619" transform="translate(0 -1.523)" fill="#e9b39d"/>
          <path id="Trazado_1273939" data-name="Trazado 1273939" d="M84.022.394a2.634,2.634,0,0,1,2.42-.155c.136.09.141.45.254.566.212,1.881,1.074,5.622-1.941,5.128-2.106-.345-1.411-4.147-.733-5.539" transform="translate(-66.206 0)" fill="#f0d3cc"/>
          <path id="Trazado_1273940" data-name="Trazado 1273940" d="M50.136,21.791a4.53,4.53,0,0,1,1.8.136c.377.152.3.483.458.687-.362.386.032.988.009,1.532A14.41,14.41,0,0,1,51.948,27c-.863,1.487-3.252.7-3.237-1.168a16.647,16.647,0,0,1,.328-2.564c.274-.9.96-.748,1.1-1.473" transform="translate(-38.694 -17.284)" fill="#f0d3cc"/>
          <path id="Trazado_1273941" data-name="Trazado 1273941" d="M199.744,120.292c-.634.031-1.668.072-2.071-.5-.425-.6-.2-4.218.152-5,.159-.352.743-.338.686-.872.559.045,1.526.534,1.641,1.135a22.109,22.109,0,0,1,0,3.692c-.045.566-.368,1.188-.407,1.547" transform="translate(-156.84 -90.492)" fill="#f0d3cc"/>
          <path id="Trazado_1273942" data-name="Trazado 1273942" d="M49.432,196.921c1.529,1.23,1.09,3.06,1.852,4.619.509,1.042,1.826,2.222,2.435,3.322,1.34,2.42.522,3.478-.343,5.8-.1.264-.439.432-.525.708-.775,2.5,1.032,4.621-.954,7.061-1.575,1.936-3.632,1.993-5.976,1.836-.724-.049-1.544-.356-2.268-.4-4.117-.273-9.549,2.487-13.1-.822-3.067-2.855-1.241-6.993-1.176-10.38.029-1.522-.445-3.192-.2-4.726a9.063,9.063,0,0,1,1.207-2.441,14.9,14.9,0,0,0,1.661-.86c1.243-1,1.826-3.1,3.414-3.581,1.257-.378,3.447.351,5.1.165,1.67-.188,3.262-1.314,4.742-1.425a5.792,5.792,0,0,1,4.141,1.126" transform="translate(-22.857 -155.515)" fill="#e6998d"/>
          <path id="Trazado_1273943" data-name="Trazado 1273943" d="M122.295,10.773c2.232-.672,2.485,2.72,2.072,4.133a1.6,1.6,0,0,1-3.03-.381c-.16-1.026-.26-3.386.957-3.753" transform="translate(-96.311 -8.488)" fill="#f0d3cc"/>
          <path id="Trazado_1273944" data-name="Trazado 1273944" d="M15.037,62.711c2.876-.842,1.932,3.433,1.2,3.874-2.367,1.436-2.592-3.467-1.2-3.874" transform="translate(-11.263 -49.728)" fill="#f0d3cc"/>
        </g>
      </g>
    </g>
  </g>
</svg>
