<svg xmlns="http://www.w3.org/2000/svg" xmlns:xlink="http://www.w3.org/1999/xlink" width="292" height="222" viewBox="0 0 292 222">
  <defs>
    <clipPath id="clip-path">
      <rect id="Rectángulo_460725" data-name="Rectángulo 460725" width="268.706" height="195.575" fill="none"/>
    </clipPath>
  </defs>
  <g id="Grupo_1211267" data-name="Grupo 1211267" transform="translate(-1017.711 -3335.594)">
    <path id="Trazado_1273937" data-name="Trazado 1273937" d="M0,0H292V222H0Z" transform="translate(1017.711 3335.594)" fill="#f6e1fe"/>
    <g id="Grupo_1210193" data-name="Grupo 1210193" transform="translate(1028.241 3340)">
      <g id="Grupo_1211266" data-name="Grupo 1211266" transform="translate(0 0)">
        <path id="Trazado_1267954" data-name="Trazado 1267954" d="M225.166,27.757c5.305,13.922-9.952,24.292-2.926,44.891,7.237,21.222,30.513,29.281,26.175,55.841-6.941,44.268-18.519,54.022-46.854,74.763-44.431,29.87-181.342,4.919-176.136-10.821-1.7-2.283-24.295-51.154,0-90.5C34.733,87.07,41.22,82.243,50.255,63.3c7.017-14.717-1.007-22.846,3.129-33.635C65.658-2.349,166.16-8.711,208.255,11.939c8.36,4.1,14.465,9.4,16.911,15.819" transform="translate(-4.479 -0.022)" fill="#ffe19a" fill-rule="evenodd"/>
        <g id="Grupo_1211269" data-name="Grupo 1211269" transform="translate(0 10.814)">
          <g id="Grupo_1211268" data-name="Grupo 1211268" clip-path="url(#clip-path)">
            <path id="Trazado_1273826" data-name="Trazado 1273826" d="M188.368,104.493l-.237-.121Z" transform="translate(16.338 9.064)" fill="#b28797"/>
            <path id="Trazado_1273827" data-name="Trazado 1273827" d="M112.7,101.78l-.016.005c.1.788.143,1.75.17,2.84.729.058,1.521.123,2.364.2-.47-3.594-.9-7.316-1.2-10.893-.143.778-.281,1.5-.4,2.091-.54,2.725-.915,5.76-.915,5.76" transform="translate(9.786 8.157)" fill="#b28797"/>
            <path id="Trazado_1273828" data-name="Trazado 1273828" d="M181.818,106.816l.036.018a.369.369,0,0,1-.038-.057l0,.038" transform="translate(15.789 9.273)" fill="#b28797"/>
            <path id="Trazado_1273829" data-name="Trazado 1273829" d="M117.422,64.608c.241,2.025-.2,6.434-.844,11.092l.217-.163c1.723-5.343,5.484-16.731,6.691-20.586a61.666,61.666,0,0,1-6.087,9.495c.009.053.017.107.024.162" transform="translate(10.124 4.772)" fill="#b28797"/>
            <path id="Trazado_1273830" data-name="Trazado 1273830" d="M181.794,106.421l0,.061a.545.545,0,0,1,.023-.052l-.026-.009" transform="translate(15.787 9.242)" fill="#b28797"/>
            <path id="Trazado_1273831" data-name="Trazado 1273831" d="M98.2,121.248c-5.372-1.648-9.12-3.015-9.55-3.24a7.281,7.281,0,0,1-.48-.821,3.111,3.111,0,0,0-1.752.975c-.082.084-.163.171-.245.266a3.764,3.764,0,0,0-.346.484c.458.388.057,1.159-.456,1.011a7.117,7.117,0,0,0-.216.826c.56.174.385.988-.141,1.076,0,.036-.005.071-.008.107l13.531.075c-.026-.052-.053-.1-.078-.157q-.137-.3-.259-.6" transform="translate(7.382 10.177)" fill="#b28797"/>
            <path id="Trazado_1273832" data-name="Trazado 1273832" d="M188.93,109.017c.382.277.792.561,1.2.81-.336-.237-.752-.522-1.2-.81" transform="translate(16.407 9.467)" fill="#b28797"/>
            <path id="Trazado_1273833" data-name="Trazado 1273833" d="M141.617,33.289q-.228-.142-.44-.3.212.16.44.3" transform="translate(12.26 2.865)" fill="#fff"/>
            <path id="Trazado_1273834" data-name="Trazado 1273834" d="M142.054,33.53c-.163-.083-.32-.171-.472-.265.152.095.309.183.472.265" transform="translate(12.295 2.889)" fill="#fff"/>
            <path id="Trazado_1273835" data-name="Trazado 1273835" d="M140.126,31.978a6.861,6.861,0,0,0,1.142,1.1,6.861,6.861,0,0,1-1.142-1.1" transform="translate(12.169 2.777)" fill="#fff"/>
            <path id="Trazado_1273836" data-name="Trazado 1273836" d="M140,31.822q-.163-.21-.313-.433.15.222.313.433" transform="translate(12.13 2.726)" fill="#fff"/>
            <path id="Trazado_1273837" data-name="Trazado 1273837" d="M143.018,33.9q-.277-.082-.538-.186.261.1.538.186" transform="translate(12.373 2.928)" fill="#fff"/>
            <path id="Trazado_1273838" data-name="Trazado 1273838" d="M142.52,33.736c-.174-.068-.341-.145-.5-.227.163.083.33.159.5.227" transform="translate(12.333 2.91)" fill="#fff"/>
            <path id="Trazado_1273839" data-name="Trazado 1273839" d="M36.847,120.566a6.715,6.715,0,0,1-1.676.4l1.657.01a1.3,1.3,0,0,0,.018-.412" transform="translate(3.054 10.47)" fill="#d08d83"/>
            <path id="Trazado_1273840" data-name="Trazado 1273840" d="M97.3,103.514a1.337,1.337,0,0,1,.863-.351c-.222.008-2.557.1-3.079.687-.285.322-.4,2.351-.289,4.883.71-.022,1.456-.043,2.235-.061-.143-2.585-.113-4.691.271-5.158" transform="translate(8.229 8.959)" fill="#4b3c4f"/>
            <path id="Trazado_1273841" data-name="Trazado 1273841" d="M97.149,120.924q.122.306.259.6c.025.053.052.1.078.157l2.118.012-.029-.041c-.839-.248-1.65-.491-2.426-.729" transform="translate(8.437 10.501)" fill="#4b3c4f"/>
            <path id="Trazado_1273842" data-name="Trazado 1273842" d="M99.41,121.636h.115l-.145-.042.029.041" transform="translate(8.63 10.559)" fill="#7c658e"/>
            <path id="Trazado_1273843" data-name="Trazado 1273843" d="M97.124,103.517c-.384.467-.414,2.574-.271,5.158,1.024-.023,2.1-.043,3.222-.057a1.421,1.421,0,0,1,.184-.356l3.159-4.188a14.7,14.7,0,0,0-5.432-.909,1.337,1.337,0,0,0-.863.351" transform="translate(8.404 8.956)" fill="#7c658e"/>
            <path id="Trazado_1273844" data-name="Trazado 1273844" d="M112.984,106.114a4.813,4.813,0,0,1-.605,1.487c-.183.32-.415.729-.665,1.181,1.441.073,2.878.164,4.293.278-.239-1.648-.476-3.355-.7-5.093-.843-.074-1.635-.139-2.364-.2.017.729.028,1.515.046,2.343" transform="translate(9.701 9.012)" fill="#88c6d1"/>
            <path id="Trazado_1273845" data-name="Trazado 1273845" d="M109.461,107.345l-.022.023a.321.321,0,0,1,.049.037c-.009-.02-.018-.039-.027-.06" transform="translate(9.504 9.322)" fill="#88c6d1"/>
            <path id="Trazado_1273846" data-name="Trazado 1273846" d="M109.633,107.727l-.011-.023a.308.308,0,0,1,0,.045l.015-.022" transform="translate(9.519 9.353)" fill="#88c6d1"/>
            <path id="Trazado_1273847" data-name="Trazado 1273847" d="M133.855,98.769l-.59.215,3.264,24.459,2.131.012Z" transform="translate(11.573 8.577)" fill="#88c6d1"/>
            <path id="Trazado_1273848" data-name="Trazado 1273848" d="M109.2,108.3l.137,0c.057-.128.11-.235.156-.322-.1.107-.195.212-.293.317" transform="translate(9.483 9.377)" fill="#88c6d1"/>
            <path id="Trazado_1273849" data-name="Trazado 1273849" d="M6.244,160.543c.142-.349.278-.714.42-1.082l-.365-2.3c-.506.981-.867,2.063-1.269,3.049-.306.75.912,1.077,1.215.335" transform="translate(0.432 13.648)" fill="#7b5d85"/>
            <path id="Trazado_1273850" data-name="Trazado 1273850" d="M77.128,109.975a1.332,1.332,0,0,1,.815-.451c-.218.034-2.528.4-2.976,1.044-.468.677.424,7.447,2.005,11.979l2.093.012c-1.16-4.665-2.569-11.6-1.938-12.585" transform="translate(6.499 9.511)" fill="#4b3c4f"/>
            <path id="Trazado_1273851" data-name="Trazado 1273851" d="M76.957,109.988c-.631.987.778,7.92,1.938,12.585l6.826.038c0-.036.005-.071.008-.107a.6.6,0,0,1-.218,0,6.143,6.143,0,0,0-3.693,0c-.662.286-1.237-.688-.571-.976a7.355,7.355,0,0,1,4.564-.113c.023,0,.04.013.061.018a6.9,6.9,0,0,1,.215-.826.6.6,0,0,1-.166-.077,6.77,6.77,0,0,0-3.98-.852.565.565,0,0,1,0-1.13,7.842,7.842,0,0,1,4.552,1.006.661.661,0,0,1,.051.042,3.691,3.691,0,0,1,.346-.484c.082-.1.163-.183.245-.266-1.2-2.721-2.053-5.636-1.479-8.46-3.074-.909-6.346-1.229-7.882-.844a1.332,1.332,0,0,0-.815.451" transform="translate(6.67 9.498)" fill="#7c658e"/>
            <path id="Trazado_1273852" data-name="Trazado 1273852" d="M86.441,118.761a3.107,3.107,0,0,1,1.753-.975,11.329,11.329,0,0,1-.762-6.55,16.837,16.837,0,0,0-2.47-.936c-.574,2.825.278,5.74,1.479,8.461" transform="translate(7.362 9.579)" fill="#fad4c8"/>
            <path id="Trazado_1273853" data-name="Trazado 1273853" d="M102.352,108.788l.162-.23c-.054.075-.109.152-.162.23" transform="translate(8.888 9.427)" fill="#74b3ba"/>
            <path id="Trazado_1273854" data-name="Trazado 1273854" d="M104.083,113.35c-.271.481-.513.942-.706,1.322.253-.426.491-.884.706-1.322" transform="translate(8.977 9.843)" fill="#74b3ba"/>
            <path id="Trazado_1273855" data-name="Trazado 1273855" d="M87.995,124.926a6.967,6.967,0,0,0,.48.821c.43.225,4.178,1.592,9.55,3.24.775.238,1.587.481,2.425.729l.145.042,11.731.065.109.395h25.091l-.139-.653,3.154.017-3.264-24.459.59-.215,4.8,24.687,13.543.075a13.172,13.172,0,0,0,2.247-11.718l-7.167-39.068c.988-6.976,2.1-15.06,2.276-15.645.13-.428.637-2.663,1.31-2.593a4.724,4.724,0,0,0,3.23-.654,3.479,3.479,0,0,0,1.261-1.611c.558-1.392,2.152-3.19,1.782-7.742,0-.043-.008-.091-.012-.137-6.253-.844-9.627-7.191-9.935-12.254a26.642,26.642,0,0,1,.1-4.077,5.169,5.169,0,0,1-2.076.43,4.948,4.948,0,0,1-1.4-.208q-.277-.082-.538-.186c-.173-.068-.341-.145-.5-.227s-.32-.171-.472-.265-.3-.2-.44-.3a6.7,6.7,0,0,1-1.142-1.1c-.057-.067-.112-.137-.166-.208q-.163-.21-.313-.431a9.775,9.775,0,0,1-.552-.929,12.208,12.208,0,0,1-.568-1.266c-2.063,1.127-5.067,1.064-9.437-1.39v0l-.041.005a16.69,16.69,0,0,0-1.793.363l.053,0c4.461,4.027-.125,18.059-5.869,28.824-1.206,3.855-4.967,15.243-6.69,20.586-.073.053-.146.108-.217.163-.86,6.259-2.069,12.968-2.436,14.957a7.023,7.023,0,0,1,.667.275s-.612,3.541-1.136,6.383c.309,3.577.735,7.3,1.205,10.892.227,1.738.464,3.446.7,5.094-1.414-.115-2.852-.207-4.293-.279a23,23,0,0,0-2.011,4.193c-.3.642-1.19-.2-1.141-1.444a7.407,7.407,0,0,1,.561-2.858l-.138-.005a24.271,24.271,0,0,1-2.493,2.364,5.1,5.1,0,0,0-1.211,1.059,14.68,14.68,0,0,0-.856,1.554c-.631,1.24-2.3,5.572-4.372,4.152-.014-.01-.025-.022-.037-.032a.329.329,0,0,1-.148-.377c-.589.5-1.342.884-1.9.264-.23-.259-.175-.488-.107-.813.133-.633.295-1.261.453-1.887q.119-.465.236-.938a2.936,2.936,0,0,1-.723.43.434.434,0,0,1-.576-.524l1.5-5.27c.009-.029.018-.058.028-.086-1.121.013-2.2.033-3.222.057-.778.017-1.525.038-2.235.06-4.565.142-7.589.348-7.589.348a16.126,16.126,0,0,0-.639,2.776,11.325,11.325,0,0,0,.762,6.549M134.555,49.5l11.551,3.835-.6,2.075-11.551-3.835Z" transform="translate(7.561 2.439)" fill="#74b3ba"/>
            <path id="Trazado_1273856" data-name="Trazado 1273856" d="M86.176,118.859c-.017-.014-.032-.029-.052-.043a7.853,7.853,0,0,0-4.551-1.006.566.566,0,0,0,0,1.131,6.77,6.77,0,0,1,3.98.852.564.564,0,0,0,.166.076c.513.148.914-.622.456-1.01" transform="translate(7.037 10.231)" fill="#fff"/>
            <path id="Trazado_1273857" data-name="Trazado 1273857" d="M85.54,120.491a.482.482,0,0,0-.06-.018,7.35,7.35,0,0,0-4.565.113c-.666.288-.09,1.262.571.976a6.126,6.126,0,0,1,3.693,0,.577.577,0,0,0,.22,0c.526-.087.7-.9.141-1.075" transform="translate(7.001 10.435)" fill="#fff"/>
            <path id="Trazado_1273858" data-name="Trazado 1273858" d="M165.255,136.78c.032-.089.063-.178.093-.267-.03.089-.062.178-.093.267" transform="translate(14.351 11.855)" fill="#db3e67"/>
            <path id="Trazado_1273859" data-name="Trazado 1273859" d="M164.195,139.859c-.2.585-.377,1.169-.534,1.753.157-.584.337-1.168.534-1.753" transform="translate(14.213 12.146)" fill="#db3e67"/>
            <path id="Trazado_1273860" data-name="Trazado 1273860" d="M164.773,138.115c.027-.074.053-.147.08-.22-.027.073-.053.146-.08.22" transform="translate(14.309 11.975)" fill="#db3e67"/>
            <path id="Trazado_1273861" data-name="Trazado 1273861" d="M164.453,139.033q.1-.29.208-.58-.1.29-.208.58" transform="translate(14.281 12.023)" fill="#db3e67"/>
            <path id="Trazado_1273862" data-name="Trazado 1273862" d="M164.975,137.558c.026-.073.052-.146.079-.218-.027.073-.053.146-.079.218" transform="translate(14.327 11.927)" fill="#db3e67"/>
            <path id="Trazado_1273863" data-name="Trazado 1273863" d="M163.592,141.8c-.07.283-.133.564-.187.847.054-.283.117-.564.187-.847" transform="translate(14.19 12.314)" fill="#db3e67"/>
            <path id="Trazado_1273864" data-name="Trazado 1273864" d="M163.346,142.976a11.935,11.935,0,0,0-.159,1.573v0a11.935,11.935,0,0,1,.159-1.573" transform="translate(14.171 12.416)" fill="#db3e67"/>
            <path id="Trazado_1273865" data-name="Trazado 1273865" d="M162.262,152.49l-.024-.083c.01.027.016.055.024.083" transform="translate(14.089 13.235)" fill="#db3e67"/>
            <path id="Trazado_1273866" data-name="Trazado 1273866" d="M166.268,133.137c.005-.03.01-.061.015-.091-.005.03-.01.061-.015.091" transform="translate(14.439 11.554)" fill="#db3e67"/>
            <path id="Trazado_1273867" data-name="Trazado 1273867" d="M166.107,133.957l.028-.13-.028.13" transform="translate(14.425 11.622)" fill="#db3e67"/>
            <path id="Trazado_1273868" data-name="Trazado 1273868" d="M165.621,135.7c-.021.064-.042.129-.063.195.021-.065.042-.13.063-.195" transform="translate(14.377 11.784)" fill="#db3e67"/>
            <path id="Trazado_1273869" data-name="Trazado 1273869" d="M165.9,134.806c.042-.151.083-.3.121-.451-.038.15-.078.3-.121.451" transform="translate(14.407 11.668)" fill="#db3e67"/>
            <path id="Trazado_1273870" data-name="Trazado 1273870" d="M160.838,133.811c0-.061.005-.121.008-.181,0,.061-.005.121-.008.181" transform="translate(13.967 11.605)" fill="#db3e67"/>
            <path id="Trazado_1273871" data-name="Trazado 1273871" d="M241.348,175.321h4.406a2.067,2.067,0,0,0,0-4.134h-5.24l.81,3.877a1.23,1.23,0,0,1,.024.258" transform="translate(20.887 14.866)" fill="#7c658e"/>
            <path id="Trazado_1273872" data-name="Trazado 1273872" d="M199.129,171.187H174.381c-2.02,1.461-4.047,2.868-5.984,4.134h31.449Z" transform="translate(14.624 14.866)" fill="#7c658e"/>
            <path id="Trazado_1273873" data-name="Trazado 1273873" d="M9.327,171.187H2.066a2.067,2.067,0,0,0,0,4.134H9.983Z" transform="translate(0 14.866)" fill="#7c658e"/>
            <path id="Trazado_1273874" data-name="Trazado 1273874" d="M79.884,171.187H52.361l.51,4.134H80.539Z" transform="translate(4.547 14.866)" fill="#7c658e"/>
            <path id="Trazado_1273875" data-name="Trazado 1273875" d="M127.321,171.187h-5.846l.51,4.134h14.46c-3.112-1.355-6.228-2.848-9.124-4.134" transform="translate(10.549 14.866)" fill="#7c658e"/>
            <path id="Trazado_1273876" data-name="Trazado 1273876" d="M236.5,126.191a2.067,2.067,0,0,0,0-4.134h-4.516l.561,4.134Z" transform="translate(20.146 10.6)" fill="#7c658e"/>
            <path id="Trazado_1273877" data-name="Trazado 1273877" d="M110.408,122.057l1.137,4.134h24.831l-.877-4.134Z" transform="translate(9.588 10.6)" fill="#7c658e"/>
            <path id="Trazado_1273878" data-name="Trazado 1273878" d="M44.467,126.191H70.635l-.877-4.134H43.33Z" transform="translate(3.763 10.6)" fill="#7c658e"/>
            <path id="Trazado_1273879" data-name="Trazado 1273879" d="M177.392,126.191h12.837l-.877-4.134h-13.1Z" transform="translate(15.306 10.6)" fill="#7c658e"/>
            <path id="Trazado_1273880" data-name="Trazado 1273880" d="M131.621,175.562h5.846c-.626-.277-1.239-.546-1.841-.8-2.737.955-6.3.375-9.01-.365-.09-.007-.2-.013-.331-.018a5.739,5.739,0,0,0-1.129.452c-.79.422-1.474,1.022-2.28,1.416a2.665,2.665,0,0,1-2.57.059,20.471,20.471,0,0,0,2.573-1.67,7.184,7.184,0,0,0-.933.337c-1.809.8-4.791,2.1-5.546,2.322a2.74,2.74,0,0,1-2.015-.258.341.341,0,0,1-.132-.629c.216-.117.434-.237.648-.359a2.6,2.6,0,0,1-1.224-.3.341.341,0,0,1-.191-.631c1.285-.693,2.525-1.465,3.757-2.249-1.088.087-2.03.149-2.4.136-1.106-.039-2.592-1.206-1.388-1.384,1.169-.171,7.772-2.066,9.6-2.533,2.023-.719,11.726.284,11.772.289a1.943,1.943,0,0,1,.439.156c.261.022.554.055.881.1,8.752,1.313,22.154,2.63,32.012,3.22l13.181-14.5c-.768-.116-1.511-.228-2.214-.333q-.352-.657-.64-1.335.289.677.64,1.335c-.855-.126-1.659-.24-2.385-.338-.14-.379-.27-.761-.393-1.142.124.381.253.763.393,1.141-.328-.043-.642-.085-.939-.122-11.69-1.459-15.7-1.445-20.374.417a14.167,14.167,0,0,0-3.856,2.479c-5.11,5.866-15.33,10.076-26.906,4.642-13.95,2.468-29.337-1-34.305-2.287-5.054,1.69-11.33,3.675-14.047,4.07-4.9.713-32.135-.878-32.135-.878a19.2,19.2,0,0,1,5.142-2.526c2.864-.865,19.187,1.209,23.887.266a12.033,12.033,0,0,0,1.4-.381q-1.2-.008-2.48-.06c-8.411-.339-19.656-2.111-34.534-6.6a2.561,2.561,0,0,1-1.362-1.011c-.342.253-.726.537-1.142.839-2.4,1.748-5.742,4.069-6.638,4.129-1.442.1-11.887-19.595-9.033-22.61a5.727,5.727,0,0,1,5.774,2.988,26.906,26.906,0,0,0,4.171,5.068c1.993,1.88,4.162,3.241,5.817,2.982a4.535,4.535,0,0,1,.37-.718c8.095-.414,22.363-.7,35.4-.828,2.354-.023,4.667-.042,6.9-.055-.714-.148-1.357-.265-1.907-.343l22.792-.353c-2.444-1.657-4.643-3.279-6.47-4.69-6.574,2.728-21.765,5.437-53.1-3.629-.042-.127-.092-.258-.146-.39-.373.228-1.366.835-2.59,1.551-2.563,1.5-6.118,3.478-7.017,3.449-1.313-.043-8.388-17.058-7.326-22.22l-3.215-.017-5.356-.03c-.812,3-1.647,5.969-2.468,8.8.121.14.222.261.306.36,0,0,9.169,6.417,6.645,7.257a1.28,1.28,0,0,1-1.194-.2l-6.022-4.7c-.088.187-.184.381-.286.579.018.013,8.074,5.7,6.117,7.076a.833.833,0,0,1-.976,0l-6.274-4.7c-.057.185-.112.367-.167.551,2.244,1.588,6.279,4.719,4.7,5.679-.348.211-.768.186-5.464-3.2-.047.155-.095.309-.142.461,1.545,1.3,2.8,2.653,1.677,2.937-.427.109-1.792-.805-2.238-1.15-1.373,4.335-2.494,7.617-3.092,9.12l1.186,7.472.224,1.414.277,1.749.365,2.3.91,5.735,1.143,7.209h.179l.655,4.134.36,2.272,47.3-.435-.227-1.837-.51-4.134H84.028l.654,4.134.415,2.616,47.3-.435-.27-2.181Z" transform="translate(0.403 10.492)" fill="#db3e67"/>
            <path id="Trazado_1273881" data-name="Trazado 1273881" d="M251.089,130.181l-.527-3.888-.56-4.134-.078-.574-47.426.438.028.136.877,4.134H190.566l-1.137-4.134-.109-.395-27.677-.154-13.542-.075-2.131-.012-3.154-.017.139.653.877,4.134H119l-1.137-4.134-.109-.395-11.731-.065h-.115l-2.118-.012-13.531-.075-6.826-.038-2.093-.011-10.089-.057.139.653.877,4.134H46.1l-1.137-4.134-.323-1.169-6.888-.039-1.657-.009-7.86-.043-3.678-.021a6.733,6.733,0,0,1,1.84,2.349,26.954,26.954,0,0,0,3.646,5.458c1.77,2.038,3.759,3.59,5.418,3.547-.029-.241-.054-.488-.073-.746,14.468-.9,45.806-3.126,57.271-2.829,13.238-2.337,40.412,5.371,47.19,7.394l.093-.01c.021-.093.04-.187.063-.279,1.182-.211,2.474-.443,3.842-.691,4.378-3.429,13.8-9.5,24.265-8.9a96.8,96.8,0,0,1,9.754.484c2.267-2.439,6.581-2.516,9.63-.46a3.751,3.751,0,0,0,.341.2l15,5.972a1.975,1.975,0,0,1,.353-.141c.9-.248,5.152.234,9.026.752a24.317,24.317,0,0,1,1.172-4.79,74.927,74.927,0,0,1,11.652,1.252,1.532,1.532,0,0,0,.113-.427c.11-1.091,1.676-1.182,1.676-1.182a1.6,1.6,0,0,0-1.215,1.539c0,.063-.009.123-.014.183q.854.176,1.693.379a.466.466,0,0,1,.235-.33.519.519,0,0,1,.7.185,2.243,2.243,0,0,1,.139.421c1.113.3,2.192.641,3.213,1.026.211-.277.388-.425.526-.416,1.723.113,9.42,5.368,9.415,7.434a2.919,2.919,0,0,1-.055.489,6.91,6.91,0,0,1,.5.813c2.373,4.5-1.111,10.337-6.208,13.522a3.849,3.849,0,0,1-.927,1.18c-1.565.947-8.9,3.634-12.4.683,0,0-3.86,5.313-.424,9.394s-3.437,9.022-7.948,3.759c-1.516-1.769-3.67-8.908-2.7-14.359l-3.654.4a4.261,4.261,0,0,1-1.16-.033c-.159,2.512-.667,5.578-2.12,7.229s-9.437,8.358-17.546,14.222H211.62l.717,4.133.195,1.119,46.392.042a1.179,1.179,0,0,0,1.178-1.162,1.153,1.153,0,0,0-.025-.256l-.809-3.877-.32-1.53-6.815-36.691-.283-1.526Z" transform="translate(2.132 10.497)" fill="#db3e67"/>
            <path id="Trazado_1273882" data-name="Trazado 1273882" d="M26.959,131.11c.734,3.619,3.082,7.822,7.539,7.893,1.224-.716,2.217-1.322,2.59-1.551a19.659,19.659,0,0,1-1.835-5.843c-1.659.042-3.647-1.51-5.418-3.549-.987,1.26-3.2,1.416-2.877,3.05" transform="translate(2.338 11.121)" fill="#ffd6ca"/>
            <path id="Trazado_1273883" data-name="Trazado 1273883" d="M21.291,119.777a2.066,2.066,0,0,0-.587,1.175c-1.061,5.161,6.015,22.177,7.327,22.22.9.029,4.454-1.949,7.016-3.449-4.456-.072-6.8-4.275-7.539-7.894-.322-1.634,1.89-1.79,2.879-3.049a26.878,26.878,0,0,1-3.649-5.458,6.744,6.744,0,0,0-1.839-2.349,5.4,5.4,0,0,0-3.608-1.2" transform="translate(1.789 10.401)" fill="#4b3c4f"/>
            <path id="Trazado_1273886" data-name="Trazado 1273886" d="M36.428,137.488c.052.133.1.263.147.39,31.336,9.068,46.528,6.357,53.1,3.63,1.827,1.41,4.027,3.031,6.472,4.689l1.572-.025a247.9,247.9,0,0,1,26.686-3.206,22.007,22.007,0,0,1,9.362-6.375,28.932,28.932,0,0,1,5.215-1.126c-6.779-2.024-33.952-9.732-47.19-7.395-11.465-.3-42.8,1.927-57.272,2.83.02.258.045.5.074.746a19.659,19.659,0,0,0,1.835,5.843" transform="translate(2.998 11.084)" fill="#ffc033"/>
            <path id="Trazado_1273887" data-name="Trazado 1273887" d="M162.472,177.671s3.262-6.219,7.943-6.895,5.885-1.663,6.568-5.058a6.845,6.845,0,0,1,5.646-4.966c-5.28.039-6.365.874-7.631,1.964s-2.721,4.752-6.121,4.122c-4.455-.923-6.122,4.122-6.122,4.122l-3.336-1.486.08-.089c-9.857-.589-23.258-1.907-32.012-3.22-.328-.049-.621-.083-.881-.1a1.875,1.875,0,0,0-.44-.155c-.043-.007-9.747-1.01-11.769-.29-1.834.467-8.435,2.363-9.6,2.535-1.2.176.28,1.344,1.387,1.382.372.013,1.315-.048,2.4-.136,1.613-1.024,3.214-2.067,4.891-2.98.387-.211.73.378.345.589-2.959,1.611-5.683,3.629-8.648,5.229a.353.353,0,0,1-.153.043,2.624,2.624,0,0,0,1.224.3c2.717-1.536,5.258-3.378,8-4.871.386-.21.73.379.345.589-2.959,1.611-5.683,3.629-8.648,5.23a.332.332,0,0,1-.214.039,2.737,2.737,0,0,0,2.016.258c.756-.222,3.737-1.522,5.546-2.322a7.352,7.352,0,0,1,.934-.336,20.478,20.478,0,0,1-2.574,1.669,2.662,2.662,0,0,0,2.57-.059c.806-.393,1.489-.994,2.28-1.415a5.7,5.7,0,0,1,1.129-.452c.128.005.241.011.333.017,2.708.74,6.272,1.321,9.009.365q.9.383,1.841.8c2.9,1.287,6.012,2.779,9.124,4.134a61.313,61.313,0,0,0,9.314,3.367,40.358,40.358,0,0,0,14.138.627l.013.012a4.317,4.317,0,0,0,1.077-.17c.027,0,.054-.008.082-.013l-.084-2.38" transform="translate(9.062 13.96)" fill="#ffd6ca"/>
            <path id="Trazado_1273888" data-name="Trazado 1273888" d="M105.638,173.015a.329.329,0,0,0,.213-.04c2.966-1.6,5.69-3.618,8.648-5.229.386-.211.042-.8-.343-.589-2.743,1.493-5.283,3.334-8,4.87-.214.122-.43.242-.647.359a.341.341,0,0,0,.13.629" transform="translate(9.148 14.512)" fill="#e9b4a3"/>
            <path id="Trazado_1273889" data-name="Trazado 1273889" d="M104.993,171.828a.351.351,0,0,0,.153-.042c2.966-1.6,5.689-3.619,8.648-5.23.386-.21.042-.8-.343-.589-1.677.913-3.279,1.956-4.891,2.981-1.234.784-2.473,1.555-3.758,2.249a.342.342,0,0,0,.191.631" transform="translate(9.086 14.409)" fill="#e9b4a3"/>
            <path id="Trazado_1273890" data-name="Trazado 1273890" d="M123.841,142.341a247.876,247.876,0,0,0-26.686,3.207l-1.573.024-22.792.354c.55.078,1.193.2,1.906.342,5.647,1.168,15.781,4.269,20.343,5.7a61.8,61.8,0,0,0-7.13,2.083c-4.521,1.714-11.66,6.509-16.457,8.093a12.179,12.179,0,0,1-1.4.38c-4.7.943-21.024-1.13-23.888-.266a19.226,19.226,0,0,0-5.142,2.526s27.236,1.592,32.136.879c2.716-.4,8.993-2.38,14.047-4.07,4.967,1.29,20.355,4.755,34.306,2.286,11.574,5.434,21.793,1.224,26.906-4.641-.536.459-1.09.973-1.666,1.552,0,0-10.773-14.678-8.238-25.959l-.092.011a28.932,28.932,0,0,0-5.215,1.126,22.01,22.01,0,0,0-9.362,6.375" transform="translate(3.562 11.709)" fill="#ffcf57"/>
            <path id="Trazado_1273891" data-name="Trazado 1273891" d="M177.683,175.248c8.109-5.864,16.092-12.568,17.547-14.222s1.962-4.716,2.12-7.227a4.31,4.31,0,0,1-2.777-1.715,23.192,23.192,0,0,1-3.758-7.321H190.7c-1.87-7.4,1.131-11.778,2.943-12.7l-15-5.972a3.751,3.751,0,0,1-.341-.2c-3.05-2.056-7.363-1.979-9.63.46a7.615,7.615,0,0,1,1.981.456c1.774.656,8.143,3.23,9.286,3.522,1.179.3-.42,1.309-1.524,1.231-.372-.026-1.306-.186-2.381-.387,1.137.9,2.28,1.792,3.478,2.609a.35.35,0,0,1-.242.636,2.648,2.648,0,0,1-1.227.165c.19.136.378.273.572.4a.356.356,0,0,1-.191.647,2.775,2.775,0,0,1-2.007.03c-.728-.3-3.557-1.9-5.272-2.888a7.261,7.261,0,0,0-.893-.431,20.5,20.5,0,0,0,2.386,1.929,2.663,2.663,0,0,1-2.551-.327c-.761-.476-1.377-1.144-2.12-1.645a5.68,5.68,0,0,0-1.076-.567c-.128-.009-.24-.014-.331-.017a26.76,26.76,0,0,1-2.953.325c-.04.792-.08,1.588-.115,2.387,0,.06-.005.121-.009.181,0-.061.005-.122.009-.181.035-.8.075-1.594.115-2.387a12.34,12.34,0,0,1-6.446-1.106c-6.756.967-15.612,2.58-22.505,3.827-1.368.247-2.659.48-3.842.691-.023.092-.042.186-.063.278-2.536,11.281,8.237,25.959,8.237,25.959.576-.579,1.13-1.093,1.666-1.552a14.174,14.174,0,0,1,3.856-2.48c4.673-1.863,8.684-1.876,20.374-.417.3.037.611.078.937.123-.138-.378-.267-.76-.392-1.142.125.383.254.764.392,1.142.728.1,1.53.213,2.387.339q-.352-.657-.64-1.336.289.678.64,1.336c.7.1,1.444.215,2.213.331l-13.181,14.5-.08.089,3.337,1.486s1.666-5.045,6.121-4.122c3.4.629,4.856-3.031,6.121-4.122s2.351-1.925,7.631-1.964a6.842,6.842,0,0,0-5.645,4.966c-.684,3.4-1.888,4.382-6.569,5.058s-7.943,6.895-7.943,6.895l.084,2.38c.015.436.034.951.054,1.561,2.132.1,6.449-2.182,11.349-5.384,1.937-1.265,3.964-2.673,5.983-4.134M169.4,133.794c0,.03-.01.061-.014.091,0-.03.01-.061.014-.091m-.16.849-.029.13.029-.13m-.137.574c-.038.15-.079.3-.122.451.042-.151.084-.3.122-.451m-.489,1.651c.022-.064.042-.129.063-.193-.021.064-.041.129-.063.193m-3.607,17.97.023.082-.023-.082m1.031-8.677a11.77,11.77,0,0,1,.159-1.574,11.77,11.77,0,0,0-.159,1.574v0m1.375-5.909q.1-.29.209-.58-.106.29-.209.58m-1.139,3.908c.054-.283.117-.564.187-.847-.07.283-.133.564-.187.847m.279-1.207c.155-.584.337-1.168.533-1.753-.2.585-.377,1.169-.533,1.753m1.826-5.389-.095.267.095-.267m-.32.9-.078.218.078-.218m-.218.6c-.027.074-.053.147-.08.22.027-.073.053-.146.08-.22" transform="translate(11.321 10.806)" fill="#4b3d51"/>
            <path id="Trazado_1273892" data-name="Trazado 1273892" d="M202.335,146.022a4.788,4.788,0,0,1-.4-2.321l-4.361-.018a19.99,19.99,0,0,0-.656-5.758c-.309-.5-2.912-.509-4.4-.47a1.522,1.522,0,0,0-1.464,1.291,15.254,15.254,0,0,0,.266,4.909l-5.34-.023a23.169,23.169,0,0,0,3.758,7.321,4.305,4.305,0,0,0,2.777,1.715,4.261,4.261,0,0,0,1.16.032l3.653-.4c.528-2.982,1.99-5.459,5-6.274" transform="translate(16.151 11.935)" fill="#fff"/>
            <path id="Trazado_1273893" data-name="Trazado 1273893" d="M185.927,144.167h.114l5.34.024a15.224,15.224,0,0,1-.265-4.909,1.521,1.521,0,0,1,1.463-1.291c1.487-.039,4.089-.033,4.4.47a19.948,19.948,0,0,1,.656,5.757l4.361.02a3.466,3.466,0,0,1,.118-.605l-.125-.1a8.923,8.923,0,0,1-3.142-5.093,16.517,16.517,0,0,1-.6-6.359c-3.875-.52-8.126-1-9.026-.752a1.89,1.89,0,0,0-.353.14c-1.812.922-4.814,5.3-2.943,12.7" transform="translate(16.095 11.399)" fill="#eef"/>
            <path id="Trazado_1273894" data-name="Trazado 1273894" d="M197.822,138.756a8.91,8.91,0,0,0,3.142,5.092c.04.034.084.067.125.1a3.475,3.475,0,0,0-.118.6,4.79,4.79,0,0,0,.4,2.323c1.025,2.46,3.7,4.586,5.361,4.023,1.763-.594.278-3.494-.738-5.135a38.12,38.12,0,0,1,4.783-1.125c2.057-5.779,4.54-12.3,5.818-13.988-1.022-.386-2.1-.726-3.214-1.026a4.24,4.24,0,0,1-.082,1.691c-.114.652-1.1.374-.99-.273a2.343,2.343,0,0,0,.046-1.322.637.637,0,0,1-.05-.373q-.84-.2-1.693-.379c-.086,1.043-.33,1.594-.752,1.837a.353.353,0,0,1-.365-.016c-.681-.468.22-1.112.558-1.932a74.916,74.916,0,0,0-11.652-1.251,24.206,24.206,0,0,0-1.172,4.79,16.52,16.52,0,0,0,.6,6.359m8.19,10.534c-.073.439-.741.252-.668-.185a3.308,3.308,0,0,0-1.261-3.138c-.347-.282.147-.768.49-.49a4,4,0,0,1,1.439,3.813m1.9-9.222-.005-.01a4.576,4.576,0,0,1-.454-3.921c.83-1.962.876-2.72,1.594-2.374,0,0,.553,1.061-.589,3.258-1.071,2.062-.612,2.937-.551,3.037l.005.01m2.163.456c-.648.113-.923-.878-.273-.991a1.857,1.857,0,0,0,1.454-1.239,8.94,8.94,0,0,0,.73-1.945c.15-.646,1.14-.371.991.273-.367,1.58-1.128,3.594-2.9,3.9m-4.415-11.587a.8.8,0,0,1,.6.057,3.12,3.12,0,0,1,.794.613,13.413,13.413,0,0,0,5.071,3.038.94.94,0,0,1,.367.209c.478.521-.454.713-.792.677a2.058,2.058,0,0,1-.355-.067c-1.912-.578-3.828-1.148-5.735-1.741a1.5,1.5,0,0,1-.528-.243c-.554-.464-.087-1.563.138-2.077a.817.817,0,0,1,.441-.464m-5.065,2.43c0-1.468.574-2.618,1.061-2.809s.726.359.726.359l0,.025a.636.636,0,0,1,.947-.239.391.391,0,0,1,.038.032s.743.62.193,1.222c.447.812-.647,1.787-1.047,2.526a18.944,18.944,0,0,0-.839,1.929,6.512,6.512,0,0,1-1.076-3.043" transform="translate(17.118 11.082)" fill="#ffd6ca"/>
            <path id="Trazado_1273895" data-name="Trazado 1273895" d="M204.466,131.375a1.477,1.477,0,0,0,.528.243c1.908.593,3.824,1.163,5.735,1.741a2.058,2.058,0,0,0,.355.067c.338.036,1.271-.157.792-.677a.94.94,0,0,0-.367-.209,13.425,13.425,0,0,1-5.071-3.037,3.1,3.1,0,0,0-.794-.614.8.8,0,0,0-.6-.057.82.82,0,0,0-.441.464c-.225.514-.692,1.613-.138,2.077" transform="translate(17.733 11.185)" fill="#f2beb3"/>
            <path id="Trazado_1273896" data-name="Trazado 1273896" d="M211,135.679a9,9,0,0,1-.729,1.947,1.859,1.859,0,0,1-1.455,1.238c-.65.114-.375,1.1.274.991,1.774-.309,2.535-2.323,2.9-3.9.149-.643-.841-.917-.991-.273" transform="translate(18.102 11.751)" fill="#4b3d51"/>
            <path id="Trazado_1273897" data-name="Trazado 1273897" d="M211.141,129.615a2.334,2.334,0,0,1-.047,1.322c-.114.647.876.924.991.273a4.247,4.247,0,0,0,.082-1.692,2.242,2.242,0,0,0-.139-.421.517.517,0,0,0-.7-.185.463.463,0,0,0-.235.33.639.639,0,0,0,.05.373" transform="translate(18.331 11.189)" fill="#4b3d51"/>
            <path id="Trazado_1273898" data-name="Trazado 1273898" d="M201.394,134.338a19.109,19.109,0,0,1,.689-5.434c.005-.013.013-.023.018-.035l0-.025s-.239-.551-.726-.359-1.064,1.341-1.061,2.809a6.512,6.512,0,0,0,1.076,3.043" transform="translate(17.396 11.154)" fill="#a0104e"/>
            <path id="Trazado_1273899" data-name="Trazado 1273899" d="M201.308,134.333a18.79,18.79,0,0,1,.84-1.929c.4-.739,1.492-1.714,1.046-2.527.55-.6-.193-1.221-.193-1.221a.392.392,0,0,0-.038-.032.636.636,0,0,0-.947.239c-.005.012-.013.022-.018.035a19.11,19.11,0,0,0-.689,5.434" transform="translate(17.482 11.159)" fill="#c42f62"/>
            <path id="Trazado_1273900" data-name="Trazado 1273900" d="M208.524,130.82a.353.353,0,0,0,.365.015c.422-.241.665-.792.751-1.836.005-.06.01-.12.014-.183a1.6,1.6,0,0,1,1.216-1.539s-1.566.091-1.677,1.182a1.5,1.5,0,0,1-.112.427c-.338.821-1.239,1.463-.558,1.932" transform="translate(18.087 11.053)" fill="#4b3d51"/>
            <path id="Trazado_1273901" data-name="Trazado 1273901" d="M207.045,139.064l.007.01-.007-.01" transform="translate(17.98 12.077)" fill="#4b3d51"/>
            <path id="Trazado_1273902" data-name="Trazado 1273902" d="M207.656,136.536c1.14-2.2.588-3.258.588-3.258-.719-.347-.764.413-1.593,2.374a4.577,4.577,0,0,0,.452,3.921c-.061-.1-.52-.975.553-3.037" transform="translate(17.922 11.567)" fill="#4b3d51"/>
            <path id="Trazado_1273903" data-name="Trazado 1273903" d="M225.086,138.127a6.8,6.8,0,0,0-.5-.812,70.067,70.067,0,0,1-5.711,14.334c5.1-3.186,8.582-9.025,6.208-13.523" transform="translate(19.008 11.925)" fill="#4b3d51"/>
            <path id="Trazado_1273904" data-name="Trazado 1273904" d="M210.855,143.278a38.5,38.5,0,0,0-4.783,1.125c1.016,1.641,2.5,4.541.738,5.136-1.665.562-4.337-1.564-5.361-4.025-3.013.815-4.475,3.292-5,6.274-.965,5.452,1.189,12.59,2.705,14.359,4.51,5.262,11.384.322,7.947-3.759s.424-9.395.424-9.395,1.5-4.561,3.333-9.716" transform="translate(17.039 12.442)" fill="#4b3d51"/>
            <path id="Trazado_1273905" data-name="Trazado 1273905" d="M204.027,144.056c-.343-.278-.837.21-.49.49a3.31,3.31,0,0,1,1.262,3.138c-.073.437.594.624.668.185a4,4,0,0,0-1.44-3.813" transform="translate(17.665 12.503)" fill="#e9b4a3"/>
            <path id="Trazado_1273906" data-name="Trazado 1273906" d="M209.951,144.429c-1.836,5.155-3.333,9.716-3.333,9.716,3.5,2.952,10.834.264,12.4-.681a3.858,3.858,0,0,0,.927-1.181,70.059,70.059,0,0,0,5.71-14.334,2.944,2.944,0,0,0,.055-.49c0-2.066-7.693-7.321-9.415-7.434-.138-.009-.315.14-.525.416-1.278,1.687-3.76,8.21-5.818,13.989m5.745-9.307c-.009-1.311,3.205-.915,3.892-.112s-.1,2.431.251,3.793,1.278,2.2.21,3.785a3.8,3.8,0,0,1-4.338,1.876c-2.016-.4-2.8-2.365-2.326-4.329s2.344.13,2.311-5.014" transform="translate(17.943 11.291)" fill="#fff"/>
            <path id="Trazado_1273907" data-name="Trazado 1273907" d="M212.855,139.8c-.477,1.963.311,3.925,2.326,4.328a3.8,3.8,0,0,0,4.338-1.875c1.069-1.584.143-2.425-.21-3.787s.437-2.989-.25-3.792-3.9-1.2-3.893.112c.034,5.144-1.833,3.051-2.311,5.014" transform="translate(18.473 11.631)" fill="#b24763"/>
            <path id="Trazado_1273908" data-name="Trazado 1273908" d="M68.547,145.406c-13.039.132-27.308.414-35.4.828a4.44,4.44,0,0,0-.368.718,7.254,7.254,0,0,0,1.051,6.6,2.559,2.559,0,0,0,1.361,1.011c14.879,4.485,26.123,6.257,34.534,6.6a42.872,42.872,0,0,0-1.175-15.757m-32.553,2.486c.323-.43,1.128-.162,1.611.214s-.2,1.347-.859,1.289c-1.236-.108-1.074-1.074-.752-1.5m29.857,8.055c-2.148,1.021-5.584-.268-8.752-.913s-5.532,0-7.787-.053-4.671-2.631-6.873-2.739c-1.835-.09-4.751.157-5.019-1.313a1.136,1.136,0,0,1,.877-1.279c1.943-.468,7.492-1.624,10.21-.308,3.33,1.611,4.3.913,6.767.913a15.353,15.353,0,0,1,7.679,1.5c2.578,1.4,5.047,3.168,2.9,4.189" transform="translate(2.812 12.627)" fill="#fff"/>
            <path id="Trazado_1273909" data-name="Trazado 1273909" d="M85.77,153.135a61.647,61.647,0,0,1,7.13-2.082c-4.561-1.429-14.7-4.53-20.343-5.7-2.23.013-4.544.033-6.9.055a42.918,42.918,0,0,1,1.175,15.757q1.283.052,2.48.06c4.8-1.584,11.936-6.379,16.457-8.093" transform="translate(5.702 12.623)" fill="#ffd6ca"/>
            <path id="Trazado_1273910" data-name="Trazado 1273910" d="M163.265,131.931c-.04.792-.08,1.588-.115,2.387.035-.8.075-1.594.115-2.387a26.756,26.756,0,0,0,2.953-.325c.091,0,.2.009.333.017a5.7,5.7,0,0,1,1.075.567c.743.5,1.361,1.169,2.12,1.645a2.663,2.663,0,0,0,2.551.327,20.684,20.684,0,0,1-2.386-1.929,7.261,7.261,0,0,1,.893.431c1.716.984,4.544,2.588,5.273,2.888a2.772,2.772,0,0,0,2.006-.03.331.331,0,0,1-.153-.058c-2.782-1.9-5.28-4.193-8.055-6.1-.36-.248-.018-.839.345-.589,2.582,1.779,4.928,3.883,7.483,5.7a2.648,2.648,0,0,0,1.227-.165.316.316,0,0,1-.1-.047c-2.782-1.9-5.28-4.193-8.055-6.1-.36-.248-.018-.839.345-.589,1.58,1.089,3.073,2.3,4.577,3.494,1.076.2,2.01.361,2.381.387,1.105.077,2.7-.929,1.525-1.231-1.144-.292-7.513-2.866-9.287-3.522a7.651,7.651,0,0,0-1.981-.458,97.139,97.139,0,0,0-9.753-.484c-10.463-.6-19.888,5.469-24.266,8.9,6.894-1.247,15.749-2.859,22.505-3.827a12.34,12.34,0,0,0,6.446,1.106" transform="translate(11.664 10.917)" fill="#ffd6ca"/>
            <path id="Trazado_1273911" data-name="Trazado 1273911" d="M167.391,128.533c-.362-.25-.7.341-.345.589,2.775,1.911,5.273,4.2,8.055,6.1a.335.335,0,0,0,.154.058.356.356,0,0,0,.19-.647c-.192-.132-.38-.268-.571-.4-2.555-1.816-4.9-3.92-7.484-5.7" transform="translate(14.493 11.157)" fill="#e9b4a3"/>
            <path id="Trazado_1273912" data-name="Trazado 1273912" d="M168.217,127.424c-.362-.25-.7.341-.345.589,2.776,1.911,5.273,4.2,8.056,6.1a.3.3,0,0,0,.1.047.35.35,0,0,0,.242-.636c-1.2-.817-2.341-1.709-3.477-2.609-1.505-1.193-3-2.405-4.578-3.494" transform="translate(14.565 11.06)" fill="#e9b4a3"/>
            <path id="Trazado_1273913" data-name="Trazado 1273913" d="M62.549,151.492a15.353,15.353,0,0,0-7.679-1.5c-2.47,0-3.437.7-6.767-.913-2.718-1.316-8.267-.161-10.21.308a1.136,1.136,0,0,0-.877,1.279c.268,1.469,3.184,1.223,5.019,1.313,2.2.108,4.618,2.684,6.873,2.739s4.618-.591,7.787.053,6.6,1.932,8.752.913-.322-2.792-2.9-4.189" transform="translate(3.213 12.893)" fill="#b24763"/>
            <path id="Trazado_1273914" data-name="Trazado 1273914" d="M37.335,147.925c-.484-.375-1.289-.643-1.611-.214s-.484,1.4.751,1.5c.662.058,1.343-.913.86-1.289" transform="translate(3.082 12.808)" fill="#b24763"/>
            <path id="Trazado_1273915" data-name="Trazado 1273915" d="M8.39,134.36l.483.338.167-.55-.28-.21c-.118.145-.241.286-.37.422" transform="translate(0.729 11.631)" fill="#74b3ba"/>
            <path id="Trazado_1273916" data-name="Trazado 1273916" d="M193.861,109.321c-.007,0,0,.015,0,.027.018-.03.033-.057,0-.027" transform="translate(16.835 9.492)" fill="#fff"/>
            <path id="Trazado_1273917" data-name="Trazado 1273917" d="M187.759,102.839c-.449-.148-.64.558-.195.7,2.139.7,3.612,2.346,5.111,3.954.71.761,1.367,1.577,2.087,2.327.042.042.075.1.114.142l0,.011c-.117.007-.255.091-.4.095a3.527,3.527,0,0,1-1.253-.333.312.312,0,0,0-.241,0,32.765,32.765,0,0,0-2.823-3,12.931,12.931,0,0,0-3.666-2.242c-.436-.178-.625.528-.195.7a12.609,12.609,0,0,1,3.8,2.465c1.113,1.015,1.989,2.232,3.038,3.3-.471.381-1.419-.013-2.391-.608-.408-.249-.817-.531-1.2-.809-.74-.538-1.369-1.049-1.641-1.223a7.36,7.36,0,0,0-2.626-.817,28.676,28.676,0,0,1-3.066-.925.3.3,0,0,0-.4.152.425.425,0,0,0-.022.051.414.414,0,0,0,.018.327.53.53,0,0,0,.038.058.373.373,0,0,0,.166.116l.065.023a24.144,24.144,0,0,0,3.485,1.007,5.3,5.3,0,0,1,1.405.306,11.552,11.552,0,0,1,1.467.951c1.088.768,4.382,3.655,5.5,1.547a.444.444,0,0,0,.035-.1.318.318,0,0,0-.068-.32c.712.157,1.516.151,1.7-.612.166-.687-1.034-1.605-1.438-2.054-.216-.238-.431-.48-.649-.722-1.647-1.839-3.38-3.7-5.765-4.488m7.151,7.046c.033-.029.018,0,0,.027,0-.012-.007-.023,0-.027" transform="translate(15.786 8.929)" fill="#eaeaea"/>
            <path id="Trazado_1273918" data-name="Trazado 1273918" d="M168.731,93.118s3.355,4.357,5,6.393,3.3,4.4,3.3,4.4l.016,0c.437,1.172,1.228,2.676,2.1,4.418a4.518,4.518,0,0,0,1.16.974,31.166,31.166,0,0,1,4.594,3.305c.534.4.905-.689.317-1.706a6.553,6.553,0,0,0-2-2.339l-.065-.023a.373.373,0,0,1-.166-.116l-.035-.018,0-.039a.414.414,0,0,1-.02-.327l0-.061.026.01a.305.305,0,0,1,.4-.152,28.484,28.484,0,0,0,3.065.925,7.361,7.361,0,0,1,2.626.817c.273.174.9.685,1.642,1.223.448.288.864.573,1.2.809.972.6,1.92.989,2.391.608-1.049-1.069-1.924-2.287-3.038-3.3a12.6,12.6,0,0,0-3.8-2.465c-.43-.176-.24-.883.195-.7a12.971,12.971,0,0,1,3.666,2.242,32.894,32.894,0,0,1,2.821,3,.313.313,0,0,1,.241,0,3.521,3.521,0,0,0,1.254.333c.14,0,.278-.088.4-.095l0-.011c-.039-.046-.073-.1-.114-.142-.719-.75-1.377-1.566-2.087-2.327-1.5-1.607-2.973-3.25-5.111-3.954-.446-.147-.254-.852.193-.7,2.386.785,4.119,2.649,5.767,4.488a2.777,2.777,0,0,0,.791.04.409.409,0,0,0,.25-.69l-3.565-3.738a1.384,1.384,0,0,0-.372-.277l-6.6-3.1a19.081,19.081,0,0,0-2.14-1.132c-3.341-2.612-5.745-9.515-6.63-11.173-.25.059-.49.124-.727.191a13.409,13.409,0,0,0-6.933,4.427m21.084,12.632c.078.038.158.078.237.121Z" transform="translate(14.653 7.685)" fill="#fff"/>
            <path id="Trazado_1273919" data-name="Trazado 1273919" d="M156.324,48.982c-.293-.015-.578-.046-.859-.084,0,.046.008.092.011.136.371,4.553-1.225,6.35-1.781,7.742a3.486,3.486,0,0,1-1.261,1.611,179.278,179.278,0,0,0,5.894,20.33c1.173,5.887,11.819,18.045,11.819,18.045a13.4,13.4,0,0,1,6.933-4.426c-2.119-6.329-8.214-20.125-8.214-20.125l-.092,0a147.9,147.9,0,0,0-6.449-25.677c-.956,1.548-3.007,2.6-6,2.444" transform="translate(13.238 4.041)" fill="#88c6d1"/>
            <path id="Trazado_1273920" data-name="Trazado 1273920" d="M139.971,28.46a5.837,5.837,0,0,1-1.316.988,12,12,0,0,0,.568,1.267,9.618,9.618,0,0,0,.551.928q.15.222.313.433c.054.071.11.139.166.208a6.861,6.861,0,0,0,1.142,1.1c.142.105.289.207.44.3s.31.184.472.266.33.158.5.227.353.13.538.186a4.939,4.939,0,0,0,1.4.206,5.109,5.109,0,0,0,1.373-.183,5.3,5.3,0,0,0,.7-.247c.068-.725.16-1.437.265-2.125-1.912,1.13-5.414,1.7-7.118-3.553" transform="translate(12.041 2.472)" fill="#88c6d1"/>
            <path id="Trazado_1273921" data-name="Trazado 1273921" d="M146.984,32.766a41.416,41.416,0,0,1,1.394-6.081c-2.987-2.223-4.721-4.818-4.94-5.732l-.417-1.161c-.117,2.465-.684,6.972-3.155,9.421,1.7,5.249,5.206,4.683,7.118,3.553" transform="translate(12.146 1.719)" fill="#f4c0b5"/>
            <path id="Trazado_1273922" data-name="Trazado 1273922" d="M142.359,51.621l-11.551-3.835-.6,2.075L141.756,53.7Z" transform="translate(11.307 4.15)" fill="#88c6d1"/>
            <path id="Trazado_1273923" data-name="Trazado 1273923" d="M115.1,92.962c.365-1.989,1.575-8.7,2.435-14.958.64-4.658,1.086-9.066.844-11.091-.007-.055-.015-.109-.024-.162a61.586,61.586,0,0,0,6.086-9.495c5.744-10.765,10.332-24.8,5.87-28.824-.018,0-.036,0-.054,0-3.752-.318-7.395,3.288-10.592,8.267-6.011,9.36-10.45,23.564-11.087,25.658h-.02s-5.184,17.1-1.768,30.22a14.938,14.938,0,0,1,8.31.388" transform="translate(9.172 2.467)" fill="#88c6d1"/>
            <path id="Trazado_1273924" data-name="Trazado 1273924" d="M99.935,110.014c-.01.028-.021.057-.028.086l-1.5,5.27a.434.434,0,0,0,.576.524,2.9,2.9,0,0,0,.723-.43c.636-2.533,1.334-5.141,3.181-7.054.347-.36.894.189.548.549-1.659,1.717-2.231,3.976-2.842,6.225-.292,1.073-.439,2.271-.829,3.309-.018.051-.032.086-.041.111.015.01.029.016.034.013.122-.072.358-.074.512-.167a4.287,4.287,0,0,0,.906-.862.337.337,0,0,1,.234-.123,34.215,34.215,0,0,1,1.155-4.184,13.8,13.8,0,0,1,2.332-3.938c.321-.383.866.168.548.549a13.263,13.263,0,0,0-2.337,4.14c-.553,1.524-.773,3.12-1.238,4.663.635.124,1.327-.712,1.938-1.741.192-.378.435-.84.706-1.322.414-.844.74-1.611.906-1.907a5.093,5.093,0,0,1,.728-1.08c.387-.4.912-.671,1.335-1.036a29.7,29.7,0,0,0,2.46-2.419.336.336,0,0,1,.453-.06.215.215,0,0,1,.022-.023c.009.02.017.04.026.059a.417.417,0,0,1,.15.331l.011.023-.015.022a.39.39,0,0,1-.1.2l-.06.064c-.047.087-.1.193-.156.322a7.432,7.432,0,0,0-.56,2.858c-.049,1.247.839,2.087,1.141,1.444a23,23,0,0,1,2.011-4.193c.25-.451.483-.861.665-1.18a4.805,4.805,0,0,0,.605-1.488c-.017-.828-.028-1.613-.046-2.343-.026-1.09-.067-2.052-.17-2.84l.016-.005s.375-3.034.915-5.76c.116-.586.254-1.312.4-2.09.524-2.842,1.135-6.383,1.135-6.383a6.9,6.9,0,0,0-.666-.275,14.948,14.948,0,0,0-8.31-.388c-.163.037-.327.076-.493.12-.011,1.992,1.149,9.659-.693,13.762a20.478,20.478,0,0,0-1.448,2.122l-1.5,1.988-3.159,4.187a1.428,1.428,0,0,0-.184.358m2.924.41-.163.23c.054-.078.109-.155.163-.23" transform="translate(8.545 7.562)" fill="#fff"/>
            <path id="Trazado_1273925" data-name="Trazado 1273925" d="M99.576,116.039c-.012,0,.008.021.03.039,0-.022-.01-.04-.03-.039" transform="translate(8.647 10.077)" fill="#fff"/>
            <path id="Trazado_1273926" data-name="Trazado 1273926" d="M110.447,108.041a.382.382,0,0,0,.1-.2c0-.015,0-.03.005-.045a.424.424,0,0,0-.15-.331.4.4,0,0,0-.049-.036.336.336,0,0,0-.453.06,29.849,29.849,0,0,1-2.458,2.419c-.424.365-.948.636-1.336,1.036a5.048,5.048,0,0,0-.727,1.08c-.166.3-.492,1.063-.908,1.907-.215.438-.453.9-.706,1.322-.611,1.029-1.3,1.865-1.937,1.741.464-1.542.685-3.139,1.238-4.663a13.26,13.26,0,0,1,2.336-4.14c.318-.38-.227-.931-.548-.549a13.8,13.8,0,0,0-2.331,3.938,34.223,34.223,0,0,0-1.156,4.184.337.337,0,0,0-.234.123,4.261,4.261,0,0,1-.906.862c-.153.093-.39.1-.511.167-.005,0-.02,0-.034-.013.009-.025.022-.06.041-.111.389-1.038.537-2.237.828-3.309.612-2.25,1.184-4.508,2.842-6.225.347-.36-.2-.909-.548-.549-1.847,1.913-2.544,4.52-3.18,7.054q-.119.473-.236.938c-.16.627-.322,1.254-.454,1.887-.068.325-.124.554.108.813.553.621,1.305.233,1.9-.264a.33.33,0,0,0,.147.377c.012.01.023.022.037.032,2.068,1.421,3.741-2.912,4.372-4.152a14.566,14.566,0,0,1,.858-1.553,5.035,5.035,0,0,1,1.211-1.06,24.5,24.5,0,0,0,2.493-2.364c.1-.1.2-.211.293-.316l.059-.064m-10.814,8.818c.021,0,.028.017.03.039-.023-.018-.042-.038-.03-.039" transform="translate(8.59 9.257)" fill="#eaeaea"/>
            <path id="Trazado_1273927" data-name="Trazado 1273927" d="M161.848,27.379c1.047-5.8,2.5-11.287,2.977-13.015q.085-.271.151-.545l.005-.02h0c.043-.177.08-.354.112-.534.784-4.38-1.625-9.483-7.75-11.8a10.41,10.41,0,0,0-5.693-.708c-.6-.467-6.129-4.23-13.4,10.617-.314.641-.618,1.267-.917,1.886-2.7,5.579-4.806,10.274-6.277,14.112-.43,1.126-.8,2.175-1.125,3.154l.041-.005v0c4.37,2.454,7.374,2.517,9.437,1.39a5.868,5.868,0,0,0,1.317-.988c2.471-2.45,3.037-6.956,3.155-9.421l-.854-2.378c-2.294-1.807-2.852-6.422-1.154-7.509,1.805-1.155,3.445,3.429,3.787,4.46.017-.059.027-.093.027-.093l.453.212c2.306-.84,5.639-7.846,6.062-8.753,1.591,2.189,5.975,7.868,9.99,9.888-.207.588-.436,1.179-.683,1.772a3.736,3.736,0,0,0-1.261-.887c-.454-.24-.859.449-.4.689a2.443,2.443,0,0,1,1.139.844.365.365,0,0,0,.173.167c-.49,1.1-1.037,2.2-1.615,3.267a5.248,5.248,0,0,1,.361.573s-1.53,5.074-5.236,7.451a18.474,18.474,0,0,1-5.429-2.811,41.463,41.463,0,0,0-1.4,6.08c-.1.688-.2,1.4-.265,2.125a26.642,26.642,0,0,0-.1,4.077c.308,5.064,3.682,11.41,9.935,12.254.281.038.566.07.859.084,2.993.154,5.045-.9,6-2.443,1.218-1.973.661-4.751-1.993-6.876-.984-.788-1.442-2.539-1.552-4.816a55.588,55.588,0,0,1,1.114-11.51" transform="translate(11.284 0)" fill="#4b3c4f"/>
            <path id="Trazado_1273928" data-name="Trazado 1273928" d="M155.2,20.412q.512-1.351,1.027-2.7a1.815,1.815,0,0,1,.149-.292c.164-.263.834-.819.953-.18a.826.826,0,0,1-.05.383,14.6,14.6,0,0,0-.671,3.439,5.3,5.3,0,0,1,1.642,1.538c.579-1.071,1.126-2.166,1.615-3.267a.375.375,0,0,1-.173-.167,2.441,2.441,0,0,0-1.139-.843c-.454-.24-.051-.93.4-.69a3.741,3.741,0,0,1,1.261.887q.372-.888.684-1.772c-4.015-2.02-8.4-7.7-9.991-9.888-.424.908-3.756,7.913-6.061,8.755,1.7.8,7.735,3.618,10.351,4.8M152.538,17.7a.559.559,0,1,1-.063.789.56.56,0,0,1,.063-.789m6.313,3.049a.56.56,0,1,1,.062-.788.56.56,0,0,1-.062.788m-4.238-4.386c-1-.453-2.669-1.078-3.6-.271-.387.335-.953-.227-.564-.565,1.3-1.13,3.146-.5,4.568.146.467.213.062.9-.4.69" transform="translate(12.579 0.595)" fill="#ffd6ca"/>
            <path id="Trazado_1273929" data-name="Trazado 1273929" d="M156.451,16.813a.828.828,0,0,0,.05-.383c-.12-.64-.789-.083-.952.18a1.831,1.831,0,0,0-.15.292c-.341.9-.686,1.8-1.027,2.7.471.213.831.374,1.036.46a3.6,3.6,0,0,1,.373.185,14.6,14.6,0,0,1,.671-3.439" transform="translate(13.406 1.401)" fill="#f4c0b5"/>
            <path id="Trazado_1273930" data-name="Trazado 1273930" d="M152.666,17.7a.56.56,0,1,0-.789-.063.561.561,0,0,0,.789.063" transform="translate(13.178 1.452)" fill="#4b3c4f"/>
            <path id="Trazado_1273931" data-name="Trazado 1273931" d="M157.87,18.933a.56.56,0,1,0-.063.789.561.561,0,0,0,.063-.789" transform="translate(13.624 1.627)" fill="#4b3c4f"/>
            <path id="Trazado_1273932" data-name="Trazado 1273932" d="M154.58,15.033c-1.422-.644-3.264-1.277-4.568-.146-.389.337.178.9.564.564.931-.808,2.6-.182,3.6.272.465.21.872-.478.4-.69" transform="translate(13.016 1.239)" fill="#4b3c4f"/>
            <path id="Trazado_1273933" data-name="Trazado 1273933" d="M148.194,27.126a18.469,18.469,0,0,0,5.43,2.811c3.705-2.376,5.235-7.45,5.235-7.45a5.728,5.728,0,0,0-2-2.112,3.6,3.6,0,0,0-.373-.184c-.2-.086-.565-.247-1.036-.461-2.616-1.185-8.65-4.007-10.351-4.8l-.454-.213-.026.095c.042.128.065.2.065.2l-.651,2c-.184.723-.375,1.518-.525,2.238l-.351-.778a3.381,3.381,0,0,1-1.172-.609l.854,2.377.416,1.161c.22.914,1.953,3.509,4.941,5.732" transform="translate(12.33 1.278)" fill="#fff"/>
            <path id="Trazado_1273934" data-name="Trazado 1273934" d="M143.326,18.83l.351.777c.15-.719.341-1.515.525-2.237l.651-2s-.023-.074-.065-.2c-.342-1.031-1.982-5.616-3.788-4.46-1.7,1.087-1.139,5.7,1.154,7.509a3.4,3.4,0,0,0,1.172.61m-1.482-6.669a3.781,3.781,0,0,1,2,3.233c.013.414-.628.412-.642,0a3.131,3.131,0,0,0-1.68-2.679c-.365-.195-.04-.749.324-.554" transform="translate(12.159 0.914)" fill="#ffd6ca"/>
            <path id="Trazado_1273935" data-name="Trazado 1273935" d="M141.413,12.588a3.131,3.131,0,0,1,1.679,2.679c.014.412.655.414.642,0a3.778,3.778,0,0,0-2-3.233c-.363-.195-.689.36-.323.554" transform="translate(12.267 1.041)" fill="#f2bbaa"/>
            <path id="Trazado_1273936" data-name="Trazado 1273936" d="M13.97,131.447l-8.833,28.9H19.97v-28.9Z" transform="translate(0 0)" fill="#db3e67"/>
            <path id="Trazado_1273885" data-name="Trazado 1273885" d="M25.665,148.053c-.484-1.593,1.7-1.969,2.56-3.32a26.948,26.948,0,0,1-4.171-5.068,5.726,5.726,0,0,0-5.773-2.988c-2.855,3.015,7.589,22.706,9.033,22.61.9-.06,4.238-2.381,6.638-4.129-4.442.372-7.2-3.576-8.286-7.1" transform="translate(1.545 11.864)" fill="#4b3c4f"/>
            <path id="Trazado_1273884" data-name="Trazado 1273884" d="M33.419,147.067c-1.655.259-3.824-1.1-5.818-2.982-.858,1.351-3.043,1.727-2.56,3.32,1.09,3.528,3.844,7.476,8.286,7.1.415-.3.8-.587,1.142-.84a7.252,7.252,0,0,1-1.051-6.6" transform="translate(2.169 12.513)" fill="#ffd6ca"/>
          </g>
        </g>
      </g>
    </g>
  </g>
</svg>
