<svg xmlns="http://www.w3.org/2000/svg" xmlns:xlink="http://www.w3.org/1999/xlink" width="96" height="96" viewBox="0 0 96 96">
  <defs>
    <clipPath id="clip-path">
      <rect id="Rectángulo_455595" data-name="Rectángulo 455595" width="96" height="96" fill="none"/>
    </clipPath>
    <clipPath id="clip-path-2">
      <rect id="Rectángulo_460733" data-name="Rectángulo 460733" width="52.636" height="50.088" fill="#fff"/>
    </clipPath>
  </defs>
  <g id="Grupo_1210250" data-name="Grupo 1210250" transform="translate(-735.746 -9118)">
    <g id="Grupo_1180407" data-name="Grupo 1180407" transform="translate(735.746 9117.971)">
      <g id="Grupo_1179172" data-name="Grupo 1179172" transform="translate(0 0.03)" clip-path="url(#clip-path)">
        <path id="Trazado_998483" data-name="Trazado 998483" d="M92.627,52.5A40.125,40.125,0,1,1,52.5,12.377,40.125,40.125,0,0,1,92.627,52.5" transform="translate(-4.488 -4.517)" fill="#8d1939"/>
        <path id="Trazado_998485" data-name="Trazado 998485" d="M90.973,46.487A44.486,44.486,0,1,1,46.487,2,44.486,44.486,0,0,1,90.973,46.487Z" transform="translate(1.527 1.499)" fill="none" stroke="#8d1939" stroke-miterlimit="10" stroke-width="4"/>
      </g>
    </g>
    <g id="Grupo_1180408" data-name="Grupo 1180408" transform="translate(755.746 9137)">
      <g id="Grupo_1099618" data-name="Grupo 1099618" transform="translate(-0.054 0.283)">
        <rect id="Rectángulo_401104" data-name="Rectángulo 401104" width="56.349" height="57.028" transform="translate(0)" fill="none"/>
      </g>
      <g id="Grupo_1211289" data-name="Grupo 1211289" transform="translate(1.947 3.283)">
        <g id="Grupo_1211288" data-name="Grupo 1211288" clip-path="url(#clip-path-2)">
          <path id="Trazado_1274008" data-name="Trazado 1274008" d="M61.077,3.951a16.955,16.955,0,0,1,3.8,2.148c.778.559,2.871,2.672,3.339,2.885.531.241,1.219.025,1.786.1,2.518.337,5.858,1.18,7.646,3.1.516.556,1.654,2.128.862,2.757-1.364,1.083-1.887-2.025-2.633-1.891-3.514,3.484-6.141,6.446-3.106,11.367.525.851,1.219.855.346,2.106-.214.306-3.063,3.18-3.29,3.311a1.386,1.386,0,0,1-.753.19c-2.254.223-10.759.319-12.754-.095-2.563-.532-3.334-2.929-3.764-5.2L51.039,28.41a4.472,4.472,0,0,1-2.917,1.61c-3.68.4-8.087-.265-11.844-.041l-.709-.423c-.4-.969-3.276-3.039-3.347-3.81a1.046,1.046,0,0,1,.989-1.018c.653.066,2.993,3.105,3.82,3.554l11.195-.045c2.521-.529,2.556-5.45,3.487-7.452a.866.866,0,0,1,1.552.129c.811,1.523,1.092,5.617,2.208,6.657,1.333,1.242,4.41.611,6.107.724,2.533-6.553-.363-11.306-7.416-11.675-4.426-.232-4.057,1.814-5.658,4.92a12.787,12.787,0,0,1-3.03,3.948C36.9,32.53,32.99,19.922,38.5,13.606c6.323-7.25,13.286-2.4,20.336-6.636a9.1,9.1,0,0,0,1.639-1.192c.153-.379-.635-.314-.907-.787a17.783,17.783,0,0,1-.9-4.213A.788.788,0,0,1,59.777.249c.82.249,1.058,2.91,1.3,3.7m2.416,24.37h5.376l2.516-2.769a8.481,8.481,0,0,1-.236-9.852c.787-1.215,2.2-2.274,2.91-3.315.109-.159.263-.186.186-.472-1.13-.275-2.206-.687-3.361-.885-.965-.165-2.537-.114-3.251-.333-.54-.166-2.838-2.465-3.59-3.012a13.71,13.71,0,0,0-1.617-1.022,35.216,35.216,0,0,1-5.16,3.077c-6.323,2.525-14.489-1.2-18.636,6.638-2.059,3.89-.917,12.3,5.046,8.253,3.112-2.11,3.07-4.534,4.762-7.309,1.985-3.255,6.407-2.711,9.585-1.731,6.013,1.854,7.241,7.135,5.471,12.731" transform="translate(-26.142 -0.152)" fill="#fff"/>
          <path id="Trazado_1274009" data-name="Trazado 1274009" d="M202.265,161.624l-2.621.771a8.147,8.147,0,0,1-3.518,6.405,1.013,1.013,0,0,1-1-1c.861-1.373,2.566-2.9,2.8-4.584.1-.769-.424-1.649.284-2.166.662-.483,2.888-.741,4.007-1.462.607-.391,2.221-2.483,2.6-.626.181.885-1.956,6.573-2.457,7.75-.77,1.811-3.253,5.348-3.584,6.6-.274,1.038.317,4.774-.591,5.073a.861.861,0,0,1-1.189-.64,29.3,29.3,0,0,1,.037-4.856c.214-1.054,2.547-4.3,3.2-5.668a40.624,40.624,0,0,0,2.04-5.6" transform="translate(-158.314 -128.362)" fill="#fff"/>
          <path id="Trazado_1274010" data-name="Trazado 1274010" d="M41.629,162.207l-1.766-.78c-.306-.042-.308-.026-.272.27a25.4,25.4,0,0,0,1.848,5.511c.583,1.29,2.586,4.24,2.822,5.288a32.716,32.716,0,0,1,.034,5.048.87.87,0,0,1-1.318.574c-.739-.442-.185-4.043-.414-5.056s-2.15-3.833-2.7-5.032a29.1,29.1,0,0,1-1.732-4.87c-.221-.86-1.1-4.369-.575-4.9.9-.9,1.4.439,1.833.81,1.1.948,3.237,1.327,3.787,1.871.577.57.085,1.3.19,2.07.229,1.682,1.936,3.211,2.8,4.584-.524,1.863-1.609.718-2.423-.238a7.9,7.9,0,0,1-2.111-5.151" transform="translate(-30.338 -128.162)" fill="#fff"/>
          <path id="Trazado_1274011" data-name="Trazado 1274011" d="M17.692,3.795c.266-.843.525-4.6,2.119-3.638.893.538-.5,3.9-.671,4.8a28.936,28.936,0,0,0-4.027,2.575c-.834.652-3,2.972-3.708,3.082-2.9.453-6.525.2-8.853,2.464-.661.642-.815,2.039-1.875,1.89C-.5,14.806.139,13.53.492,12.907c1.44-2.54,5.776-3.591,8.475-3.975a14.577,14.577,0,0,0,1.843-.043c.448-.129,3.322-2.849,4.116-3.428a14.4,14.4,0,0,1,2.767-1.666" transform="translate(0 -0.001)" fill="#fff"/>
          <path id="Trazado_1274012" data-name="Trazado 1274012" d="M18.956,233.064c1.083-.365,1.36.657,1.7.717.319.057,1.133-1.381,2.053-.557s-.586,1.453-.65,1.821l.906,1.338-.065.42c-.757,1.1-1.406.3-2.106-.356-.351-.062-1.363,1.7-2.051.555-.6-1,.595-1.512.649-1.818.024-.137-1.541-1.746-.433-2.119" transform="translate(-15.059 -189.027)" fill="#fff"/>
          <path id="Trazado_1274013" data-name="Trazado 1274013" d="M237.681,19.077c1.9-.661,1.508,2.235.068,1.573a.87.87,0,0,1-.068-1.573" transform="translate(-192.472 -15.398)" fill="#fff"/>
          <path id="Trazado_1274014" data-name="Trazado 1274014" d="M135.66,251.453c1.4-.2,1.2,1.789.145,1.789-.878,0-1.338-1.617-.145-1.789" transform="translate(-109.487 -204.013)" fill="#fff"/>
          <path id="Trazado_1274015" data-name="Trazado 1274015" d="M176.958,50.758c.269-.228.269-1.193.237-1.557-.233-2.676-2.837-2.58-4.315-.919.047,1.126,2.413,1.857,1.961,2.891-.73,1.67-3.068-.813-3.455-1.823-.649-1.693.388-2.848,1.868-3.524,3.626-1.653,6.083,1.071,5.641,4.7-.283,2.324-3.31,2.714-3.169,1.157.075-.829.967-.7,1.233-.923" transform="translate(-138.899 -36.781)" fill="#fff"/>
          <path id="Trazado_1274016" data-name="Trazado 1274016" d="M206.163,123.791a2.358,2.358,0,0,1,.184-3.939c2.283-1.357,4.153.03,4.026,2.557-.1,2-3.017,2.388-4.21,1.382m2.393-1.259c.013-.533.11-1.093-.38-1.429-1.872.047-1.306,1.734.38,1.429" transform="translate(-166.489 -96.815)" fill="#fff"/>
          <path id="Trazado_1274017" data-name="Trazado 1274017" d="M73.784,84.653c-2.124-.431-1.8,2.984-2.338,3.414a1.634,1.634,0,0,1-1.219.143c-.446-.278-.1-2.292.07-2.8,1.092-3.365,5.851-3.628,5.172.647-.2,1.228-1.253,2.1-2.037.725Z" transform="translate(-56.804 -67.236)" fill="#fff"/>
          <path id="Trazado_1274018" data-name="Trazado 1274018" d="M214.543,77.559a1.241,1.241,0,0,1-1.379-.359c-.686-1.2-.163-3.663.371-4.893.337-.777,2.181-3.824,2.944-1.99.309.742-.66,1.425-1,2.046a7.026,7.026,0,0,0-.887,2.887c-.013.443.431,2.012-.046,2.309" transform="translate(-172.692 -56.585)" fill="#fff"/>
          <path id="Trazado_1274019" data-name="Trazado 1274019" d="M108.218,64.647a.893.893,0,0,1-.276,1.427c-.748.227-1.9-.322-2.936-.107-.935.194-1.486,1.53-2.319.913-1.331-.986.907-2.436,1.944-2.61.737-.123,3.071-.138,3.587.377" transform="translate(-82.985 -52.09)" fill="#fff"/>
        </g>
      </g>
    </g>
  </g>
</svg>
