<svg xmlns="http://www.w3.org/2000/svg" xmlns:xlink="http://www.w3.org/1999/xlink" width="96" height="96" viewBox="0 0 96 96">
  <defs>
    <clipPath id="clip-path">
      <rect id="Rectángulo_455595" data-name="Rectángulo 455595" width="96" height="96" fill="none"/>
    </clipPath>
    <clipPath id="clip-path-2">
      <rect id="Rectángulo_460732" data-name="Rectángulo 460732" width="39.379" height="57.028" fill="#fff"/>
    </clipPath>
  </defs>
  <g id="Grupo_1210249" data-name="Grupo 1210249" transform="translate(-735.746 -9118)">
    <g id="Grupo_1180407" data-name="Grupo 1180407" transform="translate(735.746 9117.971)">
      <g id="Grupo_1179172" data-name="Grupo 1179172" transform="translate(0 0.03)" clip-path="url(#clip-path)">
        <path id="Trazado_998483" data-name="Trazado 998483" d="M92.627,52.5A40.125,40.125,0,1,1,52.5,12.377,40.125,40.125,0,0,1,92.627,52.5" transform="translate(-4.488 -4.517)" fill="#8d1939"/>
        <path id="Trazado_998485" data-name="Trazado 998485" d="M90.973,46.487A44.486,44.486,0,1,1,46.487,2,44.486,44.486,0,0,1,90.973,46.487Z" transform="translate(1.527 1.499)" fill="none" stroke="#8d1939" stroke-miterlimit="10" stroke-width="4"/>
      </g>
    </g>
    <g id="Grupo_1180408" data-name="Grupo 1180408" transform="translate(755.746 9137)">
      <g id="Grupo_1099618" data-name="Grupo 1099618" transform="translate(-0.054 0.283)">
        <rect id="Rectángulo_401104" data-name="Rectángulo 401104" width="56.349" height="57.028" transform="translate(0)" fill="none"/>
      </g>
      <g id="Grupo_1211287" data-name="Grupo 1211287" transform="translate(8.946 0.283)">
        <g id="Grupo_1211286" data-name="Grupo 1211286" clip-path="url(#clip-path-2)">
          <path id="Trazado_1274004" data-name="Trazado 1274004" d="M15.842,27.535v-4a.909.909,0,0,1,1.677-.206,16.305,16.305,0,0,1,.048,4.219c-.423,2.014-2.829,2.231-3.767.317-1.392-2.84-2.242-7.363-3.807-9.92a1.663,1.663,0,0,0-3.1,1.136c1.143,3.546,3.292,7.153,4.378,10.661.247.8.444,1.01.06,1.865a1.9,1.9,0,0,1-2.574.813c-1.073-.551-3.036-4.334-4.029-5.45a1.7,1.7,0,0,0-3.071,1.262c.167.876,2.512,3.5,3.142,4.55,2.373,3.961,1.19,6.7,2.586,10.324,1,2.6,3.493,3.947,4.136,6.65a7.162,7.162,0,0,1-.089,3.765c3.118.064,7.56.38,9.347,3.32A54.484,54.484,0,0,1,23.7,66.511c.015.609-.2,1.121-.175,1.717,1.347,0,2.354.323,2.289-1.385-.042-1.119-.941-5.007-.5-5.7a.983.983,0,0,1,1.333,0,35.1,35.1,0,0,1,.8,5.2c.093,1.672-.021,2.828-1.785,3.442l-15.619.071c-1.783-.249-2.423-1.307-2.367-3.023.152-4.677,1.835-9.7,2.266-14.239s-2.407-4.939-3.931-8.449c-1.263-2.909-.642-5.664-1.642-8.491C3.485,33.17,1.541,31.709.451,29.607a3.342,3.342,0,0,1,4.586-4.586c1.31.741,3.15,4.211,4.232,5.573.155.2.185.446.526.371a1.474,1.474,0,0,0-.128-.77C8.46,26.581,6.355,22.97,5.216,19.287A3.369,3.369,0,0,1,10.4,15.9,3.875,3.875,0,0,1,11.836,17.9c1.348,2.959,2.229,6.358,3.555,9.355Zm-4.717,27.8-.768,4.4c2.551.573,4.309-2.129,6.783.087,2.592,2.321-.161,5.978,1.177,7.975.532.794,2.513.36,3.42.361.737-1.638-.168-3-.582-4.506-.479-1.743-1.01-4.944-2.044-6.29-1.583-2.061-5.626-2.132-7.985-2.021m5.534,12.888a7.931,7.931,0,0,1-.5-2.207c0-1.5,1.051-3.069.153-4.551-.925-1.527-2.489-.434-3.7-.155-.9.207-1.721.135-2.577.365l-.718,5.64a1.178,1.178,0,0,0,.729.908Z" transform="translate(0 -12.834)" fill="#fff"/>
          <path id="Trazado_1274005" data-name="Trazado 1274005" d="M103.444,14.21c.411.268.657-.331.741-.645.771-2.9.926-6.3,1.756-9.193a3.367,3.367,0,0,1,6.666.608c.038,2.159-1.049,5.8-1.318,8.172a54.36,54.36,0,0,0-.328,7.27c1.66-.764,3.957-2.869,5.8-2.789a3.536,3.536,0,0,1,3.141,4.789c-.654,1.912-5.03,3.682-6.578,5.516s-1.661,4.122-3.117,5.872c-1.423,1.709-4.023,1.99-4.3,4.526-.218,2.01.944,4.616,1.044,6.686a.832.832,0,0,1-1.638.246c-.4-3.433-2.439-7.455.5-10.3a22.013,22.013,0,0,1,2.194-1.4c2.225-1.7,2.3-4.983,4.424-7.179,1.192-1.234,5.309-3.361,5.844-4.45a1.876,1.876,0,0,0-1.682-2.633c-1.789.035-5.85,4.672-7.231,1.815a4.9,4.9,0,0,1-.207-2.094,89.437,89.437,0,0,1,1.789-13.9c-.253-2.168-2.731-2.5-3.4-.291-.882,2.914-.891,7.093-1.943,9.823a2.059,2.059,0,0,1-3.939-.708l-.092-11.185a1.62,1.62,0,0,0-2.869-.4c-.874,1.226.267,4.622-.755,5.294-1.757,1.156-1.441-3.132-1.377-3.994.37-4.95,6.35-4.539,6.716-.818.323,3.3-.258,7.123-.016,10.475a3.993,3.993,0,0,0,.174.891" transform="translate(-80.736 -0.001)" fill="#fff"/>
          <path id="Trazado_1274006" data-name="Trazado 1274006" d="M75.5,115.016c1.17-1.278-.257-3.178-1.335-4.024a5.514,5.514,0,0,0-5.094-1.18,52.145,52.145,0,0,0-5.45,2.558,3.684,3.684,0,0,0-2.076,2.663,11.681,11.681,0,0,0,.418,5.709c.792,1.73,2.4,1.4,3.544,2.5.666.641,1.269,2.444,1.788,2.789,1.566,1.041,1.838-3.346,2.585-4.055.663-.629,1.607-.125,1.393.98a18.136,18.136,0,0,1-1.836,4.214,2.523,2.523,0,0,1-3.182.226c-.978-.689-1.108-2.159-1.965-2.938-.628-.571-1.71-.783-2.445-1.314-2.752-1.985-2.89-8.942-.487-11.245a38.587,38.587,0,0,1,8.416-4c3.084-.345,7.242,2.192,7.834,5.367.474,2.546-1.531,3.136-2.952,4.417-.606.546-1.629,2.305-2.284,2.308a.915.915,0,0,1-.862-.888c.057-.684,1.927-2.537,2.5-3.047.4-.359,1.146-.666,1.491-1.042" transform="translate(-49.91 -90.241)" fill="#fff"/>
          <path id="Trazado_1274007" data-name="Trazado 1274007" d="M87,133.053a2.519,2.519,0,0,1,2.965,2.969c-.225,1.779-1.346,4.774-3.375,5.122-4.316.739-6.084-4.254-3.2-6.307A20.758,20.758,0,0,1,87,133.053m-2.847,3.284a1.961,1.961,0,0,0,1.045,3.172c2.5.409,2.737-2.44,3.126-4.257a1.06,1.06,0,0,0-1-.579c-.177.027-3.043,1.536-3.169,1.663" transform="translate(-68.581 -111.284)" fill="#fff"/>
        </g>
      </g>
    </g>
  </g>
</svg>
