<svg xmlns="http://www.w3.org/2000/svg" xmlns:xlink="http://www.w3.org/1999/xlink" width="160" height="160.001" viewBox="0 0 160 160.001">
  <defs>
    <clipPath id="clip-path">
      <rect id="Rectángulo_460730" data-name="Rectángulo 460730" width="64.772" height="95.75" fill="#fff"/>
    </clipPath>
  </defs>
  <g id="Grupo_1207906" data-name="Grupo 1207906" transform="translate(-308.711 -5910)">
    <g id="Grupo_1207900" data-name="Grupo 1207900" transform="translate(308.711 5910)">
      <path id="Trazado_1267157" data-name="Trazado 1267157" d="M151.9,82.137a69.759,69.759,0,1,1-69.759-69.76A69.76,69.76,0,0,1,151.9,82.137" transform="translate(-2.135 -2.136)" fill="#6a2874"/>
      <path id="Trazado_1267158" data-name="Trazado 1267158" d="M80.5,160.5A80.021,80.021,0,0,1,49.36,6.788a80.02,80.02,0,0,1,62.281,147.425A79.5,79.5,0,0,1,80.5,160.5Zm0-154.759A74.758,74.758,0,1,0,155.258,80.5,74.843,74.843,0,0,0,80.5,5.742Z" transform="translate(-0.5 -0.5)" fill="#6a2874"/>
    </g>
    <g id="Grupo_1207901" data-name="Grupo 1207901" transform="translate(340.92 5943.687)">
      <g id="Grupo_1099618" data-name="Grupo 1099618" transform="translate(-0.498 0.313)">
        <rect id="Rectángulo_401104" data-name="Rectángulo 401104" width="94.61" height="95.75" transform="translate(0)" fill="none"/>
      </g>
      <g id="Grupo_1211283" data-name="Grupo 1211283" transform="translate(14.502 0.314)">
        <g id="Grupo_1211282" data-name="Grupo 1211282" transform="translate(0 -0.001)" clip-path="url(#clip-path)">
          <path id="Trazado_1273988" data-name="Trazado 1273988" d="M24.543,3.948a4.857,4.857,0,0,1,9.591.306l1.723,20.477,2.054-12.222c.343-4.041,4.536-6.272,7.935-3.848,2.309,1.647,1.957,4.921,1.9,7.458-.145,6.1-1.194,12.263-1.437,18.358-.111,2.773.1,5.579.014,8.352l5.79-8.486c2.787-2.558,5.846-6.676,10.057-4.394,5.418,2.936.924,10.085-.509,13.942-2.272,6.12-1.906,12.308-4.1,18.244-1.742,4.721-4.841,8.54-8.078,12.283l-.056,20.587-.464.667-2.647.04V77.331a22.263,22.263,0,0,0-3.382,1,16.565,16.565,0,0,1-13.014-3.121l1.829-2.352A14.118,14.118,0,0,0,38.4,75.35c-.273-4.542-4.028-12.086-9.191-12.18-1.971-.036-3.657,1.178-5.4,1.412-8.181,1.1-8.762-8.41-3.363-12.695,4.293-3.407,14.347-3.343,19.141-1.055,3.1,1.481,4.736,4.342,8.064,5.51,2.756.968,5.412.562,8.279.631a55.672,55.672,0,0,1,2.414-13c.939-2.815,3.829-7.489,3.179-10.273-.956-4.1-6.641,2.219-7.719,3.471-3.287,3.818-5.26,8.76-7.9,13.028-1.015.992-2.514.831-2.716-.71-.487-3.714-.156-11.037,0-15.013.234-5.914,1.228-11.887,1.423-17.807.068-2.072.744-7.139-2.763-5.606-.876.382-1.5,5.839-1.712,7.07-1.167,6.918-2.047,13.893-3.227,20.81-2.651,2.86-3.064-.148-3.321-2.479-1.168-10.6-1.4-21.337-2.573-31.937a1.828,1.828,0,0,0-1.8-1.584,2.345,2.345,0,0,0-1.584,1.838c-.651,10.806.917,22.721.027,33.4-.186,2.234-1.883,2.554-3.047.761-2.643-7.838-3.957-16.922-6.783-24.607-1.252-3.406-4.186-2.361-4.052,1.221.277,7.432,3.872,16.095,4.5,23.5.115,1.351.064,2.466-1.506,2.667L15.218,40.42,5.581,26.588c-2.455-1.3-2.928.981-2.173,3.019C5.7,35.784,11.172,42.453,13.665,48.761c-.276,10.659.443,20.928,7.768,29.277V95.712c-.734-.125-2.8.379-3.071-.464l-.046-16.073c-7-8.623-8.069-19.07-7.761-29.85C7.968,43.308,2.769,36.76.543,30.775-.6,27.69-.09,23.924,3.6,23.159c4.919-1.018,7.214,6.908,10.192,9.491-.685-4.756-2.184-9.571-2.785-14.321a21.573,21.573,0,0,1-.318-4.2,5.081,5.081,0,0,1,9.66-2.032l4.191,14.331ZM54.8,60.081H49.57c-5.119,0-8.676-5.939-13.157-7.2-3.463-.977-11.572-.821-14.4,1.707-1.69,1.511-3.319,5.816-.455,6.934,1.413.551,3.209-.676,4.677-1.015C35.568,58.351,40.46,67.54,41.665,75.36a6.591,6.591,0,0,0,2.962-.994c2.258-1.2,5.735-5.59,7.182-7.805.5-.767,3.444-6.054,2.993-6.48" transform="translate(0 0.001)" fill="#fff"/>
          <path id="Trazado_1273989" data-name="Trazado 1273989" d="M116.822,196.455v3.113l-2.847-.125c-.535-.373-.161-2.29-.266-2.989Z" transform="translate(-81.532 -140.9)" fill="#fff"/>
          <path id="Trazado_1273990" data-name="Trazado 1273990" d="M166.9,218.455l-.125,2.847c-.372.535-2.29.161-2.988.266v-3.113Z" transform="translate(-117.469 -156.678)" fill="#fff"/>
          <path id="Trazado_1273991" data-name="Trazado 1273991" d="M155.9,242.492h-3.113v-3.113c.7.1,2.616-.269,2.988.266Z" transform="translate(-109.58 -171.663)" fill="#fff"/>
        </g>
      </g>
    </g>
  </g>
</svg>
