<svg xmlns="http://www.w3.org/2000/svg" xmlns:xlink="http://www.w3.org/1999/xlink" width="96" height="96" viewBox="0 0 96 96">
  <defs>
    <clipPath id="clip-path">
      <rect id="Rectángulo_455595" data-name="Rectángulo 455595" width="96" height="96" fill="none"/>
    </clipPath>
    <clipPath id="clip-path-2">
      <rect id="Rectángulo_460751" data-name="Rectángulo 460751" width="49.982" height="49.881" fill="#fff"/>
    </clipPath>
  </defs>
  <g id="Grupo_1210317" data-name="Grupo 1210317" transform="translate(-735.746 -9118)">
    <g id="Grupo_1180407" data-name="Grupo 1180407" transform="translate(735.746 9117.971)">
      <g id="Grupo_1179172" data-name="Grupo 1179172" transform="translate(0 0.03)" clip-path="url(#clip-path)">
        <path id="Trazado_998483" data-name="Trazado 998483" d="M92.261,52.319A39.942,39.942,0,1,1,52.319,12.377,39.942,39.942,0,0,1,92.261,52.319" transform="translate(-4.304 -4.333)" fill="#8d1939"/>
        <path id="Trazado_998485" data-name="Trazado 998485" d="M90.566,46.284A44.283,44.283,0,1,1,46.284,2,44.283,44.283,0,0,1,90.566,46.284Z" transform="translate(1.731 1.702)" fill="none" stroke="#8d1939" stroke-miterlimit="10" stroke-width="4"/>
      </g>
    </g>
    <g id="Grupo_1180408" data-name="Grupo 1180408" transform="translate(755.746 9137)">
      <g id="Grupo_1099618" data-name="Grupo 1099618" transform="translate(-0.289 0.491)">
        <rect id="Rectángulo_401104" data-name="Rectángulo 401104" width="56.349" height="57.028" transform="translate(0)" fill="none"/>
      </g>
      <g id="Grupo_1211301" data-name="Grupo 1211301" transform="translate(2.711 3.491)">
        <g id="Grupo_1211300" data-name="Grupo 1211300" clip-path="url(#clip-path-2)">
          <path id="Trazado_1274053" data-name="Trazado 1274053" d="M7.689,48.336A.764.764,0,0,1,7.4,49.751a43.016,43.016,0,0,1-6.424.019c-.239-.02-.65-.022-.791-.244-.355-.561-.114-4.89.114-5.728.109-.4.7-1.524.7-1.673,0-.222-.63-1.587-.735-2.067a8.785,8.785,0,0,1,12.121-9.979c1.839.809,2.527,1.793,3.763,3.225.087.1-.005.27.325.181a7.47,7.47,0,0,0,.429-1.5,30.416,30.416,0,0,0-.028-4.824c-.088-.39-.818-1.42-1.039-1.96a23.213,23.213,0,0,0-.866-2.561c-.637-.968-2.513-1.28-3.376-3.192a15.345,15.345,0,0,1-.369-5.707,3.384,3.384,0,0,1,1.119-1.594c.235-.175.814-.332.921-.507.174-.286.029-1.068.087-1.484,1.9-13.532,21.337-13.547,23.242,0,.058.416-.087,1.2.087,1.484.107.175.686.332.921.507a3.384,3.384,0,0,1,1.119,1.594,15.345,15.345,0,0,1-.369,5.707c-.863,1.912-2.74,2.225-3.376,3.192A23.212,23.212,0,0,0,34.1,25.2c-.221.54-.951,1.57-1.039,1.96a29.721,29.721,0,0,0-.035,4.687,3.606,3.606,0,0,0,1.9,2.951c3.5,2,11.938,4,13.926,7.208,1.139,1.838,1.254,4.858,1.025,6.974-.031.286-.144.783-.5.783H9.973c-.466,0-.466-1.428,0-1.428H48.458V44.98c0-1.348-1.531-3.241-2.669-3.9-2.925-1.692-7.116-2.931-10.279-4.429-2.179-1.032-4.044-2.375-4.044-5.095V28.916a10.014,10.014,0,0,1-12.995,0v2.642a7.911,7.911,0,0,1-.5,2.069c-.165.393-.912,1.335-.92,1.495-.012.24.323.956.383,1.331A8.8,8.8,0,0,1,1.977,43.627a5.382,5.382,0,0,0-.5,1.354v3.356ZM24.153,1.4a10.333,10.333,0,0,0-9.394,9.455,7.355,7.355,0,0,1-.077,1.78c-.295.668-1.682.207-2,1.428a13.444,13.444,0,0,0,.189,4.673c.693,1.76,2.385,1.826,3.235,2.9.54.686.991,2.935,1.574,3.995,3.281,5.96,12.17,5.46,14.951-.762a23.454,23.454,0,0,1,1.194-3.233c.825-1.047,2.47-1.137,3.191-2.807a12.666,12.666,0,0,0,.305-4.414c-.2-1.682-1.753-1.064-2.071-1.785-.179-.405-.12-2.284-.256-3.028A10.328,10.328,0,0,0,24.153,1.4M8.016,30.814a7.308,7.308,0,1,0,6.515,11.8,7.319,7.319,0,0,0-6.515-11.8" transform="translate(0 0)" fill="#fff"/>
          <path id="Trazado_1274054" data-name="Trazado 1274054" d="M26.479,225.576c7.618-.734,8.625,11.075,1.1,11.667-7.808.614-8.748-10.93-1.1-11.667m-.433,1.565c-5.064.788-4.246,9.212,1.378,8.661,5.676-.556,5.068-9.664-1.378-8.661" transform="translate(-18.181 -193.336)" fill="#fff"/>
          <path id="Trazado_1274055" data-name="Trazado 1274055" d="M45.952,246.848c2.91,2.889-1.725,7.147-4.307,3.95-2.356-2.917,1.828-6.411,4.307-3.95m-2.267.691a1.544,1.544,0,0,0-1.224,1.224,1.469,1.469,0,0,0,2.745.88,1.453,1.453,0,0,0-1.521-2.1" transform="translate(-35.102 -210.884)" fill="#fff"/>
        </g>
      </g>
    </g>
  </g>
</svg>
