<svg xmlns="http://www.w3.org/2000/svg" xmlns:xlink="http://www.w3.org/1999/xlink" width="96" height="96" viewBox="0 0 96 96">
  <defs>
    <clipPath id="clip-path">
      <rect id="Rectángulo_455595" data-name="Rectángulo 455595" width="96" height="96" fill="none"/>
    </clipPath>
    <clipPath id="clip-path-2">
      <rect id="Rectángulo_460754" data-name="Rectángulo 460754" width="39.217" height="57.027" fill="#fff"/>
    </clipPath>
  </defs>
  <g id="Grupo_1210318" data-name="Grupo 1210318" transform="translate(-735.746 -9118)">
    <g id="Grupo_1180407" data-name="Grupo 1180407" transform="translate(735.746 9117.971)">
      <g id="Grupo_1179172" data-name="Grupo 1179172" transform="translate(0 0.03)" clip-path="url(#clip-path)">
        <path id="Trazado_998483" data-name="Trazado 998483" d="M92.261,52.319A39.942,39.942,0,1,1,52.319,12.377,39.942,39.942,0,0,1,92.261,52.319" transform="translate(-4.304 -4.333)" fill="#8d1939"/>
        <path id="Trazado_998485" data-name="Trazado 998485" d="M90.566,46.284A44.283,44.283,0,1,1,46.284,2,44.283,44.283,0,0,1,90.566,46.284Z" transform="translate(1.731 1.702)" fill="none" stroke="#8d1939" stroke-miterlimit="10" stroke-width="4"/>
      </g>
    </g>
    <g id="Grupo_1180408" data-name="Grupo 1180408" transform="translate(755.746 9137)">
      <g id="Grupo_1099618" data-name="Grupo 1099618" transform="translate(-0.035 0.491)">
        <rect id="Rectángulo_401104" data-name="Rectángulo 401104" width="56.349" height="57.028" transform="translate(0)" fill="none"/>
      </g>
      <g id="Grupo_1211307" data-name="Grupo 1211307" transform="translate(8.965 0.491)">
        <g id="Grupo_1211306" data-name="Grupo 1211306" clip-path="url(#clip-path-2)">
          <path id="Trazado_1274074" data-name="Trazado 1274074" d="M35.727,33.686a18.867,18.867,0,0,0-2.279-1.426c-1.349-.768-2.877-1.639-3.2-2.281a8.739,8.739,0,0,1-.47-2.335,16.385,16.385,0,0,0-.257-1.664c-.928-3.923-3.064-6.561-5.338-9.336L27.006.586,25.5,0,22.6,16.7l.037.077a17.732,17.732,0,0,0,2.111,3.182,17.084,17.084,0,0,1,2.23,3.427,14.144,14.144,0,0,1,1.14,4.11c.1.629.205,1.281.377,2.046.441,1.965,2.382,3.083,4.259,4.165a13.922,13.922,0,0,1,3.163,2.219c1.537,1.629,2.118,3.209,1.682,4.568-.477,1.485-2.166,2.615-4.634,3.1a3.639,3.639,0,0,1-.771.013,2.261,2.261,0,0,0-1.313.176,1.668,1.668,0,0,0-.451.853,3.2,3.2,0,0,1-.285.69c-.949,1.4-3.231,1.686-4.9,1.247l-.3-.079-.034.308a3.13,3.13,0,0,1-1.3,2.292,5.509,5.509,0,0,1-4.243.691l-.268-.057-.05.269a3.33,3.33,0,0,1-1.431,2.257,5.154,5.154,0,0,1-3.893.553l-.258-.054-.057.258c-.422,1.9-1.328,2.689-2.768,2.405-3.541-.7-3.434-5.148-3.339-9.074a20.255,20.255,0,0,0-.15-4.129A2.855,2.855,0,0,0,5.8,40.19a4.444,4.444,0,0,1-.853-.746C1.58,35.478.5,28.884,2.329,23.408A8.465,8.465,0,0,1,3.164,21.7a9.607,9.607,0,0,0,.679-1.3c.817-2.009.362-6.337,0-9.815-.136-1.3-.265-2.519-.3-3.417-.05-1.146-.023-2.323,0-3.462.025-1.1.05-2.238.007-3.354L3.537.146,3.329.106a.972.972,0,0,0-.857.214c-.741.652-.69,2.5-.574,4.333.017.264.032.494.036.671.029,1.019.173,2.509.339,4.235.359,3.73.806,8.372.233,10.091a7.08,7.08,0,0,1-.685,1.3,8.975,8.975,0,0,0-.789,1.489c-1.77,4.783-1.372,12.834,2.043,17.2a10.615,10.615,0,0,0,1.189,1.239,4,4,0,0,1,1.694,3.159c.018.972-.05,1.918-.116,2.833A14.219,14.219,0,0,0,6.455,53.5a5.425,5.425,0,0,0,3.916,3.468,3.844,3.844,0,0,0,.662.058,3.949,3.949,0,0,0,3.011-1.477,2.226,2.226,0,0,0,.415-.96c0-.015.007-.029.01-.042.113-.019.308-.041.485-.06a8.991,8.991,0,0,0,3.619-.973A5.455,5.455,0,0,0,20.2,51.541c.038-.069.08-.146.108-.19a5.342,5.342,0,0,1,.669-.063,7.068,7.068,0,0,0,3.362-.817,5.47,5.47,0,0,0,1.72-2.185l.046-.09.012,0a2.909,2.909,0,0,0,1.054.232,6.11,6.11,0,0,0,3.243-1.266,7.157,7.157,0,0,0,1.053-1.209,5.133,5.133,0,0,1,.525-.638A5.6,5.6,0,0,1,33.475,45a9.552,9.552,0,0,0,1.331-.247c3.116-.967,4.074-2.733,4.327-4.044.438-2.262-.867-4.952-3.406-7.021" transform="translate(0)" fill="#fff"/>
          <path id="Trazado_1274075" data-name="Trazado 1274075" d="M33.767,125.185a.781.781,0,0,0,.089-.005c.636-.074,1.2-.922,1.662-1.6a5.221,5.221,0,0,1,.356-.5c2.83-3.045,5.639-5.31,10.149-6.463a16.515,16.515,0,0,1,2.091-.328,12.934,12.934,0,0,0,2.28-.391c.721-.229.673-.818.638-1.248l-.024-.3-.254.008a21.931,21.931,0,0,0-15.141,6.615c-.025.027-2.548,2.768-2.519,3.671a.438.438,0,0,0,.137.318.778.778,0,0,0,.534.221" transform="translate(-24.261 -83.825)" fill="#fff"/>
          <path id="Trazado_1274076" data-name="Trazado 1274076" d="M57.671,14.989a.88.88,0,0,0,.189.021.665.665,0,0,0,.468-.183c.538-.507.36-1.955.132-3.395-.041-.259-.076-.483-.079-.57-.054-1.742-.026-3.523,0-5.245.026-1.654.054-3.364.008-5.042l-.006-.23L58.156.317a1.343,1.343,0,0,0-.993.153,1.4,1.4,0,0,0-.385,1,72.688,72.688,0,0,0,.27,12.383c.039.357.11,1.023.623,1.135" transform="translate(-41.498 -0.214)" fill="#fff"/>
          <path id="Trazado_1274077" data-name="Trazado 1274077" d="M76.543,153.51l.128.017.093-.09a.338.338,0,0,0,.09-.3,23.871,23.871,0,0,0-2.313-4.882,1.285,1.285,0,0,0-1.193-.017.6.6,0,0,0-.238.652,7.522,7.522,0,0,0,.931,1.736c.2.326.462.743.59.989L71.3,152.835l-.071,1.585.585-.191a9.807,9.807,0,0,1,4.734-.719" transform="translate(-52.21 -108.564)" fill="#fff"/>
          <path id="Trazado_1274078" data-name="Trazado 1274078" d="M92.337,144.5a1.05,1.05,0,0,0,.782.332,3.352,3.352,0,0,0,1.338-.431,3.755,3.755,0,0,1,1.236-.433,3.475,3.475,0,0,1,.667.077c.674.116,1.6.276,1.765-.477.1-.44-2.021-3.142-2.616-3.744-.358-.362-.565-.482-.765-.44a.66.66,0,0,0-.533.416c-.2.547.394,1.351,1.126,2.269.083.1.176.22.252.32-1.13.247-2.749.709-3.2,1.395a.758.758,0,0,0-.122.583l.016.076Z" transform="translate(-67.624 -102.166)" fill="#fff"/>
          <path id="Trazado_1274079" data-name="Trazado 1274079" d="M51.71,165.328a1.441,1.441,0,0,0-.431,1.175l.018.268.268-.02a7.66,7.66,0,0,0,1.477-.3,3.49,3.49,0,0,1,2.595-.038l.128.058.909-.552-.078-.207c-.073-.193-.184-.557-.313-.978-.686-2.247-1.1-3.352-1.571-3.556a.839.839,0,0,0-.785-.016.716.716,0,0,0-.253.666,4.138,4.138,0,0,0,.433,1.494,3.6,3.6,0,0,1,.383,1.28,4.076,4.076,0,0,0-2.78.727" transform="translate(-37.586 -118.067)" fill="#fff"/>
          <path id="Trazado_1274080" data-name="Trazado 1274080" d="M32.277,178.87l.033.047a.894.894,0,0,0,.749.441,1.879,1.879,0,0,0,.78-.241,1.993,1.993,0,0,1,.708-.239,3.366,3.366,0,0,1,.768.111c.593.128,1.264.273,1.583-.2l.041-.061,0-.073c.015-.261-.094-3.46-.9-4.146a.566.566,0,0,0-.5-.139l-.065.014-.051.043c-.654.55-.477,1.289-.321,1.94a3.328,3.328,0,0,1,.135.9,4.381,4.381,0,0,0-2.673.751.83.83,0,0,0-.3.8Z" transform="translate(-23.642 -127.81)" fill="#fff"/>
          <path id="Trazado_1274081" data-name="Trazado 1274081" d="M115.573,142.442a2.312,2.312,0,0,0,1.71-.95,3.34,3.34,0,0,1,1.012-.81,4.541,4.541,0,0,1,2.278-.377l.294.022-.028-1.257-.174-.062a4.559,4.559,0,0,0-3.837.652,3.239,3.239,0,0,0-1.574,2.5l-.013.272.271.008h.061" transform="translate(-84.476 -101.764)" fill="#fff"/>
        </g>
      </g>
    </g>
  </g>
</svg>
