<svg xmlns="http://www.w3.org/2000/svg" xmlns:xlink="http://www.w3.org/1999/xlink" width="96" height="96" viewBox="0 0 96 96">
  <defs>
    <clipPath id="clip-path">
      <rect id="Rectángulo_455595" data-name="Rectángulo 455595" width="96" height="96" fill="none"/>
    </clipPath>
    <clipPath id="clip-path-2">
      <rect id="Rectángulo_460755" data-name="Rectángulo 460755" width="41.753" height="57.028" fill="#fff" stroke="#fff" stroke-width="1"/>
    </clipPath>
  </defs>
  <g id="Grupo_1210266" data-name="Grupo 1210266" transform="translate(-735.746 -9118)">
    <g id="Grupo_1180407" data-name="Grupo 1180407" transform="translate(735.746 9117.971)">
      <g id="Grupo_1179172" data-name="Grupo 1179172" transform="translate(0 0.03)" clip-path="url(#clip-path)">
        <path id="Trazado_998483" data-name="Trazado 998483" d="M92.261,52.319A39.942,39.942,0,1,1,52.319,12.377,39.942,39.942,0,0,1,92.261,52.319" transform="translate(-4.304 -4.333)" fill="#8d1939"/>
        <path id="Trazado_998485" data-name="Trazado 998485" d="M90.566,46.284A44.283,44.283,0,1,1,46.284,2,44.283,44.283,0,0,1,90.566,46.284Z" transform="translate(1.731 1.702)" fill="none" stroke="#8d1939" stroke-miterlimit="10" stroke-width="4"/>
      </g>
    </g>
    <g id="Grupo_1180408" data-name="Grupo 1180408" transform="translate(755.746 9137)">
      <g id="Grupo_1099618" data-name="Grupo 1099618" transform="translate(-0.035 0.275)">
        <rect id="Rectángulo_401104" data-name="Rectángulo 401104" width="56.349" height="57.028" transform="translate(0)" fill="none"/>
      </g>
      <g id="Grupo_1211309" data-name="Grupo 1211309" transform="translate(6.965 0.275)">
        <g id="Grupo_1211308" data-name="Grupo 1211308" clip-path="url(#clip-path-2)">
          <path id="Trazado_1274082" data-name="Trazado 1274082" d="M26.9,90.458a3.614,3.614,0,0,1,5.455-2.342,4.669,4.669,0,0,1,1.558-2.592c2.129-1.559,4.448-.4,5.537,1.716,3.544-2.127,6.275,1.085,5.632,4.69a3.554,3.554,0,0,1,5.546,2.677c-.347,6.928.437,14.26,0,21.139a12.1,12.1,0,0,1-11.352,11.331c-13.679,1.01-14.285-8.711-20.547-17.887a3.668,3.668,0,0,1,5.485-4.619l2.684,3.462Zm6.926-2.078v15.41c0,.227-.689.355-.924.235l-.449-.766-.086-12.9c-.924-2.26-3.9-1.641-4.081.791L28.2,110.8l-.523.284c-1.035-.01-3.571-5.328-4.923-5.749a2.368,2.368,0,0,0-3.091,1.955,5.244,5.244,0,0,0,.8,2.066,118.972,118.972,0,0,0,6.815,11.711c2.757,3.94,6.833,4.942,11.488,4.629,5.829-.393,10.092-4.394,10.476-10.3.433-6.644-.346-13.752,0-20.446a2.087,2.087,0,1,0-4.171-.175c-.288,2.977.371,6.593-.009,9.52a1.077,1.077,0,0,1-.2.577c-.613.245-1.092.191-1.179-.556-.519-4.485.443-9.924-.032-14.512a2.078,2.078,0,0,0-4.119-.046c-.494,4.085.6,9.521-.007,13.5-.2,1.281-1.417,1.161-1.553-.5-.4-4.825.343-10.152-.033-15.031-.872-2.323-3.782-1.717-4.116.653" transform="translate(-15.107 -70.121)" fill="#fff" stroke="#fff" stroke-width="1"/>
          <path id="Trazado_1274083" data-name="Trazado 1274083" d="M98.867,6.745c-.247-.152-.239-.345-.269-.6A38.39,38.39,0,0,1,98.612.6a.656.656,0,0,1,.6-.6c.3-.027.783.314.783.6V5.359H102.5a1.168,1.168,0,0,1,.446.291,22.675,22.675,0,0,1-.025,6.188.519.519,0,0,1-.425.281c-.364.159-.948-.311-.948-.614V6.745Z" transform="translate(-81.449 0)" fill="#fff" stroke="#fff" stroke-width="1"/>
          <path id="Trazado_1274084" data-name="Trazado 1274084" d="M1.179,36.219c.689.588,1.684,3.232,2.316,4.093.952-.044,2.207-1.691,3.052-.977l2.824,5.221a.685.685,0,0,1-1.225.361c-.6-.575-1.919-3.766-2.41-4-.9.074-2,1.624-2.876.975C2.137,41.358.832,37.939.047,37.079c-.236-.785.462-1.432,1.132-.86" transform="translate(0 -29.767)" fill="#fff" stroke="#fff" stroke-width="1"/>
          <path id="Trazado_1274085" data-name="Trazado 1274085" d="M189.884,39.311c.751-.737,2.2.976,3.057.983.633-.861,1.627-3.5,2.316-4.093.6-.517,1.244-.068,1.163.71a47.272,47.272,0,0,1-2.844,4.963c-.878.649-1.978-.9-2.876-.975l-2.714,4.229a.71.71,0,0,1-.921-.59c-.074-.812,2.476-4.189,2.818-5.228" transform="translate(-154.674 -29.75)" fill="#fff" stroke="#fff" stroke-width="1"/>
        </g>
      </g>
    </g>
  </g>
</svg>
