<svg xmlns="http://www.w3.org/2000/svg" xmlns:xlink="http://www.w3.org/1999/xlink" width="96" height="96" viewBox="0 0 96 96">
  <defs>
    <clipPath id="clip-path">
      <rect id="Rectángulo_455595" data-name="Rectángulo 455595" width="96" height="96" fill="none"/>
    </clipPath>
    <clipPath id="clip-path-2">
      <rect id="Rectángulo_460752" data-name="Rectángulo 460752" width="56.349" height="50.793" fill="#fff" stroke="#fff" stroke-width="1"/>
    </clipPath>
  </defs>
  <g id="Grupo_1210265" data-name="Grupo 1210265" transform="translate(-735.746 -9118)">
    <g id="Grupo_1180407" data-name="Grupo 1180407" transform="translate(735.746 9117.971)">
      <g id="Grupo_1179172" data-name="Grupo 1179172" transform="translate(0 0.03)" clip-path="url(#clip-path)">
        <path id="Trazado_998483" data-name="Trazado 998483" d="M92.261,52.319A39.942,39.942,0,1,1,52.319,12.377,39.942,39.942,0,0,1,92.261,52.319" transform="translate(-4.304 -4.333)" fill="#8d1939"/>
        <path id="Trazado_998485" data-name="Trazado 998485" d="M90.566,46.284A44.283,44.283,0,1,1,46.284,2,44.283,44.283,0,0,1,90.566,46.284Z" transform="translate(1.731 1.702)" fill="none" stroke="#8d1939" stroke-miterlimit="10" stroke-width="4"/>
      </g>
    </g>
    <g id="Grupo_1180408" data-name="Grupo 1180408" transform="translate(755.746 9137)">
      <g id="Grupo_1099618" data-name="Grupo 1099618" transform="translate(-0.035 1.275)">
        <rect id="Rectángulo_401104" data-name="Rectángulo 401104" width="56.349" height="57.028" transform="translate(0)" fill="none"/>
      </g>
      <g id="Grupo_1211303" data-name="Grupo 1211303" transform="translate(-0.035 4.275)">
        <g id="Grupo_1211302" data-name="Grupo 1211302" clip-path="url(#clip-path-2)">
          <path id="Trazado_1274056" data-name="Trazado 1274056" d="M91.252,95.269c0-.051.419-.513-.07-.395-1.1.265-2.217.835-3.447,1.073-3.566.692-6.283-.387-9.317,2.142-3.237,2.7-6.147,6.552-9.348,9.373-.693.436-1.4.014-.9-.743,3.322-2.9,6.279-6.783,9.607-9.6C81.23,94.195,84.7,95.541,88.7,94.5c.938-.244,1.844-.634,2.756-.956l.262-.223a11.422,11.422,0,0,1,6.09-6.822c.7-.305,2.671-.7,3.039-1a17.5,17.5,0,0,0,1.566-2.792,19.435,19.435,0,0,0,1.584-6c.216-3-.344-4.877,1.71-7.49.389-.5,1.454-1.819,2.1-1.318.719.56-.9,1.606-1.29,2.125-1.568,2.062-1.021,3.274-1.226,5.553a21.179,21.179,0,0,1-3.065,9.926,11.08,11.08,0,1,1-8.85,17.648,12.236,12.236,0,0,1-2.126-5.3c0-.855-.045-1.731,0-2.582m10.787-8.6c-13.109.294-12.473,20.592.921,19.819,12.538-.723,11.992-20.109-.921-19.819" transform="translate(-57.023 -56.846)" fill="#fff" stroke="#fff" stroke-width="1"/>
          <path id="Trazado_1274057" data-name="Trazado 1274057" d="M82.825,121.788a.715.715,0,0,1-.5-.474c-.091-.265.052-.441.184-.646.529-.814,4.353-4.087,4.42-4.471a5.754,5.754,0,0,1,.415-8.613c4.054-3.065,9.507.438,8.959,5.325a5.543,5.543,0,1,1-3.31,9.2c-.783.575-3.643,4.044-4.362,4.029-.66-.013-.768-1.435-.9-1.918-2.113.286-1.77-.793-1.76-2.437-.961-.112-2.232.153-3.147,0m1.533-1.291H86.7a1.532,1.532,0,0,1,.361.2l.2,2.378,1.3.074.4,1.216c.8-.52,3.1-3.49,3.748-3.683.873-.261.882.477,1.331.866a4.392,4.392,0,1,0,.7-6.9c-.449.258-1.069,1.19-1.622.637-.931-.93,1.711-1.755,1.865-2.169.759-2.031-.872-4.659-2.876-5.295a4.412,4.412,0,0,0-4.748,7.007c.339.4,1.311.856,1.181,1.352Z" transform="translate(-69.014 -89.256)" fill="#fff" stroke="#fff" stroke-width="1"/>
          <path id="Trazado_1274058" data-name="Trazado 1274058" d="M163.032,33.85a5.55,5.55,0,1,1,3.308-9.2l6.932-6.946c.526-.437,1.363.131.906.742l-7.6,7.578c-.713.338-.991-.606-1.536-1.044a4.469,4.469,0,0,0-6.758,1.464,4.392,4.392,0,0,0,4.487,6.261c.506-.05,1.337-.6,1.637.021-.14,1.57-.451,2.4.256,3.931,2.667,5.755,11.563.275,7.239-4.818-.42-.495-1.316-.777-1.01-1.488l7.379-7.481c.584-.357,1.182-.2,1.062.566-.125.795-6.134,5.943-6.932,7.131a5.679,5.679,0,0,1,1.09,6.729c-2.727,5.522-11.319,2.69-10.462-3.443" transform="translate(-131.384 -14.716)" fill="#fff" stroke="#fff" stroke-width="1"/>
          <path id="Trazado_1274059" data-name="Trazado 1274059" d="M17.822,9.023A22.2,22.2,0,0,1,29.514,2.88c2.636-.4,5.29.242,7.671-1.206.874-.531,1.957-2.334,2.783-1.422.273.548-1.677,2.105-2.137,2.391-2.713,1.683-5.22.9-8.158,1.364-8.125,1.285-15.6,8.733-16.864,16.869-.584,3.75.457,6.054-2.3,9.318s-6.589,6.18-9.437,9.446c-.681.433-1.4.023-.905-.743,2.822-3.2,6.675-6.111,9.373-9.348,2.6-3.124,1.577-5.28,2.12-8.856A22.192,22.192,0,0,1,17.822,9.023" transform="translate(0 0)" fill="#fff" stroke="#fff" stroke-width="1"/>
          <path id="Trazado_1274060" data-name="Trazado 1274060" d="M24.916,215.694c-1.978,1.842-3.695,3.966-5.647,5.817a16.329,16.329,0,0,1-1.276,1.137c-.747.333-1.135-.292-.752-.91l7.548-7.3c.761.046,3.779-.26,4.2.166l.2,2.384c1.364-.661,2.08,1.8,1.94,2.654-.136.825-6.7,6.518-7.585,7.758-.426.426-.962.613-1.272-.038l.13-.619,7.41-7.452-.147-1.166c-2.115.306-1.78-.787-1.767-2.43Z" transform="translate(-14.332 -179.773)" fill="#fff" stroke="#fff" stroke-width="1"/>
          <path id="Trazado_1274061" data-name="Trazado 1274061" d="M51.045,133.014a.732.732,0,0,1,1.012.121c.173.287.317,2.614-.495,2.591-.989.141-.843-2.374-.517-2.712" transform="translate(-42.601 -111.418)" fill="#fff" stroke="#fff" stroke-width="1"/>
          <path id="Trazado_1274062" data-name="Trazado 1274062" d="M129.089,289.228c-.236-.147-.381-2.381.139-2.645,1.468-.743,1.277,3.526-.139,2.645" transform="translate(-108.074 -240.255)" fill="#fff" stroke="#fff" stroke-width="1"/>
          <path id="Trazado_1274063" data-name="Trazado 1274063" d="M156.237,279.563c.592-.194,2.608,1.79,1.848,2.34-.716.422-2.9-2-1.848-2.34" transform="translate(-130.785 -234.43)" fill="#fff" stroke="#fff" stroke-width="1"/>
          <path id="Trazado_1274064" data-name="Trazado 1274064" d="M8.209,174.557h2.34c.292,0,.893,1-.475,1.139-1.023.1-2.537.26-1.866-1.139" transform="translate(-6.745 -146.383)" fill="#fff" stroke="#fff" stroke-width="1"/>
          <path id="Trazado_1274065" data-name="Trazado 1274065" d="M162.555,255.362c.386-.115,2.334-.145,2.457.228.358,1.086-1.854,1.016-2.457.836a.544.544,0,0,1,0-1.064" transform="translate(-135.959 -214.082)" fill="#fff" stroke="#fff" stroke-width="1"/>
          <path id="Trazado_1274066" data-name="Trazado 1274066" d="M17.8,142.6c.505-.168,2.415,1.492,1.83,2.168-.567.655-1.979-1.127-2.2-1.617Z" transform="translate(-14.611 -119.57)" fill="#fff" stroke="#fff" stroke-width="1"/>
          <path id="Trazado_1274067" data-name="Trazado 1274067" d="M249.547,211.013h3.632c.23.142.223.322.25.557.147,1.252-.105,2.813-.031,4.1l-3.851.184v3.47a.805.805,0,0,1-.36.458,14.853,14.853,0,0,1-4.372-.043,1.088,1.088,0,0,1-.271-.415v-3.47h-3.632c-.23-.142-.223-.322-.25-.557a25.756,25.756,0,0,1,.008-3.882.522.522,0,0,1,.242-.4h3.632v-3.47a1.851,1.851,0,0,1,.323-.484h4.358a1.848,1.848,0,0,1,.323.484Zm-1.291-2.905h-2.421v3.47a2.471,2.471,0,0,1-.4.565H241.8v2.582h3.632a2.7,2.7,0,0,1,.4.4v3.47h2.421v-3.47a2.694,2.694,0,0,1,.4-.4h3.632v-2.582H248.66a2.471,2.471,0,0,1-.4-.565Z" transform="translate(-201.76 -173.639)" fill="#fff" stroke="#fff" stroke-width="1"/>
        </g>
      </g>
    </g>
  </g>
</svg>
