<svg xmlns="http://www.w3.org/2000/svg" xmlns:xlink="http://www.w3.org/1999/xlink" width="85" height="85" viewBox="0 0 85 85">
  <defs>
    <clipPath id="clip-path">
      <rect id="Rectángulo_460759" data-name="Rectángulo 460759" width="44.915" height="76.987" fill="#8d1939"/>
    </clipPath>
  </defs>
  <g id="Grupo_1210332" data-name="Grupo 1210332" transform="translate(0.289 -0.013)">
    <path id="Sustracción_110" data-name="Sustracción 110" d="M0,0H85V85H0Z" transform="translate(-0.289 0.013)" fill="#ffe19a"/>
    <g id="Grupo_1211315" data-name="Grupo 1211315" transform="translate(19.711 4.012)">
      <g id="Grupo_1211314" data-name="Grupo 1211314" clip-path="url(#clip-path)">
        <path id="Trazado_1274195" data-name="Trazado 1274195" d="M12.861,33.215,9.429,39.8C6.076,45.13-1.6,41.726.3,35.52c1.359-4.432,5.141-12.411,7.308-16.7,1.714-3.395,4.567-6.016,8.559-6.09-1.2-2.548-2.024-4.54-1.112-7.39,2.809-8.776,16.3-6.12,15.187,3.512-.174,1.509-.98,2.541-1.517,3.877,3.76.083,6.62,2.5,8.306,5.682,2.334,4.41,5.083,10.848,6.931,15.537,1.336,3.391,1.532,4.92-1.135,7.754l0,27.754a1.44,1.44,0,0,1-2.875.007l.01-26.994a5.311,5.311,0,0,1-4.184-2.094l-3.745-7.159V68.129a13.91,13.91,0,0,1-1.005,2.079A5.472,5.472,0,0,1,24.1,71.984V75.4c0,.763-.917,1.353-1.647,1.437a54.621,54.621,0,0,1-8.159,0,1.388,1.388,0,0,1-1.265-.718l-.157-20.1c.308-1.651,2.858-.942,2.858-.226V67.248l.33.33h4.956V45.44c0-.7,2.414-1.359,2.817.047.242.843-.218,1.785.255,2.609.132.23,3.523,3.609,3.757,3.734.375.2,1.1-.268,1.1-.331V39.823H16.055l-.33.33V45c0,.265-1.041.893-1.432.893s-1.432-.628-1.432-.893ZM21.394,3.089c-5.617.954-4.69,10.52,2.1,9.367,5.657-.961,4.689-10.52-2.1-9.367m7.547,33.87V22.972a1.683,1.683,0,0,1,2.2-1.319c1.518.7.617,3.508.99,4.96a113.805,113.805,0,0,0,5.8,11.6c1.656,2.453,4.7.829,3.8-1.817-2.67-5.289-4.6-11.248-7.311-16.478-1.236-2.382-3-4.039-5.809-4.324a87.247,87.247,0,0,0-12.121-.011c-3.556.306-5,2.289-6.459,5.216-2.542,5.111-4.5,10.762-6.983,15.927A2.06,2.06,0,0,0,6.66,38.578c2.26-3.135,3.743-8.49,6.03-11.812.622-1.431-.832-5.5,1.8-5.225.318.033,1.232.548,1.232.77V36.629l.33.33Zm-5.066,15.2v3.965c.682-.584,1.566-1.073,1.946-1.907.019-.441-1.521-1.723-1.946-2.058m0,11.9c.384.1.44-.159.662-.329a43.215,43.215,0,0,0,4.4-4.407V55.683l-5.066,4.956Zm5.066-.441-4.61,4.546c.486,2.3,4.61,1.262,4.61-.251Zm-7.93,10.133-.206-3.208H15.931l-.206,3.208Z" transform="translate(0.001 0)" fill="#8d1939"/>
        <path id="Trazado_1274196" data-name="Trazado 1274196" d="M182.612,334.882c1.715-.27,2.373,2.848.37,3.047-2.1.209-2.147-2.767-.37-3.047" transform="translate(-141.395 -261.101)" fill="#8d1939"/>
        <path id="Trazado_1274197" data-name="Trazado 1274197" d="M60.869,222.466c1.381,1.461-1.229,3.747-2.379,1.832a1.515,1.515,0,0,1,2.379-1.832" transform="translate(-45.421 -173.115)" fill="#8d1939"/>
      </g>
    </g>
  </g>
</svg>
