<svg xmlns="http://www.w3.org/2000/svg" xmlns:xlink="http://www.w3.org/1999/xlink" width="96" height="96" viewBox="0 0 96 96">
  <defs>
    <clipPath id="clip-path">
      <rect id="Rectángulo_455595" data-name="Rectángulo 455595" width="96" height="96" fill="none"/>
    </clipPath>
    <clipPath id="clip-path-2">
      <rect id="Rectángulo_460783" data-name="Rectángulo 460783" width="33.191" height="56.348" fill="#fff"/>
    </clipPath>
  </defs>
  <g id="Grupo_1210443" data-name="Grupo 1210443" transform="translate(-735.746 -9118)">
    <g id="Grupo_1180407" data-name="Grupo 1180407" transform="translate(735.746 9117.971)">
      <g id="Grupo_1179172" data-name="Grupo 1179172" transform="translate(0 0.03)" clip-path="url(#clip-path)">
        <path id="Trazado_998483" data-name="Trazado 998483" d="M92.261,52.319A39.942,39.942,0,1,1,52.319,12.377,39.942,39.942,0,0,1,92.261,52.319" transform="translate(-4.304 -4.333)" fill="#8d1939"/>
        <path id="Trazado_998485" data-name="Trazado 998485" d="M90.566,46.284A44.283,44.283,0,1,1,46.284,2,44.283,44.283,0,0,1,90.566,46.284Z" transform="translate(1.731 1.702)" fill="none" stroke="#8d1939" stroke-miterlimit="10" stroke-width="4"/>
      </g>
    </g>
    <g id="Grupo_1180408" data-name="Grupo 1180408" transform="translate(755.746 9137)">
      <g id="Grupo_1099618" data-name="Grupo 1099618" transform="translate(-0.035 0.127)">
        <rect id="Rectángulo_401104" data-name="Rectángulo 401104" width="56.349" height="57.028" transform="translate(0)" fill="none"/>
      </g>
      <g id="Grupo_1211365" data-name="Grupo 1211365" transform="translate(56.314 12.127) rotate(90)">
        <g id="Grupo_1211364" data-name="Grupo 1211364" clip-path="url(#clip-path-2)">
          <path id="Trazado_1274401" data-name="Trazado 1274401" d="M27.525,13.258l.69-1.975a2.67,2.67,0,0,1,4.4-.614c.832,1,.589,2.09.316,3.234-.687,2.885-1.959,5.8-2.5,8.723.686.026,1.485.184,1.417,1.007-.085,1.032-.794,2.435-.912,3.617-.333,3.306.091,6.435-1.786,9.52L29.1,45.122c-.174.79-1.081.778-1.742.761l-.151,10.105-.448.36-15.029-.166-.2-10.3c-.654.034-1.4.072-1.746-.6-.329-3.126.556-6.834-.554-9.782a12.549,12.549,0,0,0-1.9-3.264c-.985-1.19-2.377-1.774-2.832-3.306-.108-.364.01-.876-.149-1.144C3.921,27.064.327,26.666.1,25.906c-.513-1.71,1.047-3.875,2.678-4.365.421-.127,1.571-.17,1.634-.224a4,4,0,0,1,.193-.692c.473-.732,1.51-.216,2.086-.5l.8-1.458,1.616.083L7.835,4.31A2.69,2.69,0,0,1,10,1.787c2.526-.3,3.061,1.4,3.314,3.477.482,3.951.511,7.992.971,11.95l.244.4c.161.084.563-.108.563-.24V1.871a7.387,7.387,0,0,1,.485-.807,2.6,2.6,0,0,1,4.2,0,7.376,7.376,0,0,1,.485.807V17.215c0,.279.8.7.965-.165.387-3.363.376-6.818.813-10.17.288-2.208,1.482-4.105,3.985-3.02.493.214,1.5,1.242,1.5,1.726ZM18.48,17.377V2.194a1.02,1.02,0,0,0-1.615,0V17.215A2.248,2.248,0,0,1,13.752,19.2c-1.3-.611-1.279-2.368-1.409-3.6-.366-3.467-.382-7.024-.829-10.477C11.3,3.5,10.173,2.86,9.646,4.583c.422,4.263.808,8.532,1.242,12.795.052.507-.21,1.381.269,1.669L28.5,22.23l2.862-9.254-.109-1.229a.918.918,0,0,0-1.433.335L27.18,20.746a.871.871,0,0,1-1.6-.454,38.511,38.511,0,0,1,.176-5.493c.039-2.907-.039-5.818-.01-8.725-.829-1.381-1.717-.695-1.917.661-.494,3.35-.314,7.136-.839,10.467a2.269,2.269,0,0,1-4.509.175m-.888,12.517h4.765L8.541,20.841c-.712.6-1.278,1.275-2.336,1.139l.078.487Zm12.195-5.652L12.5,21.174l4.155,2.708L28.9,27.792c.359.042.182-.034.233-.239.268-1.075.334-2.239.65-3.311M4.428,23.111A2.256,2.256,0,0,0,1.845,24.8l2.583.894ZM6.2,24.564v4.119a6.755,6.755,0,0,0,1.373,1.211h6.7Zm22.935,5.33c-.049-.307-.34-.265-.546-.342A44.81,44.81,0,0,0,22.6,27.631c-.358-.053-.287.07-.075.237a32.677,32.677,0,0,0,3.143,2.026Zm-.323,1.777H9.274l1.081,1.745c1.007.3,4.726-.627,4.722.92l-.553.888H11.05l.4,1.619.326.159,15.495.007.578-1.786H17.269c-.36,0-.568-1.142-.324-1.456l.4-.248L28.5,33.373Zm-1.454,7.107H11.535v1.777H27.363Zm0,3.553H11.535v1.777H27.363Zm-1.777,3.553H13.312v8.722H25.587Z" transform="translate(0 0)" fill="#fff"/>
        </g>
      </g>
    </g>
  </g>
</svg>
