<svg xmlns="http://www.w3.org/2000/svg" xmlns:xlink="http://www.w3.org/1999/xlink" width="96" height="96" viewBox="0 0 96 96">
  <defs>
    <clipPath id="clip-path">
      <rect id="Rectángulo_455595" data-name="Rectángulo 455595" width="96" height="96" fill="none"/>
    </clipPath>
    <clipPath id="clip-path-2">
      <rect id="Rectángulo_460775" data-name="Rectángulo 460775" width="43.946" height="56.847" fill="#fff"/>
    </clipPath>
  </defs>
  <g id="Grupo_1210386" data-name="Grupo 1210386" transform="translate(-735.746 -9118)">
    <g id="Grupo_1180407" data-name="Grupo 1180407" transform="translate(735.746 9117.971)">
      <g id="Grupo_1179172" data-name="Grupo 1179172" transform="translate(0 0.03)" clip-path="url(#clip-path)">
        <path id="Trazado_998483" data-name="Trazado 998483" d="M92.562,52.469A40.092,40.092,0,1,1,52.469,12.377,40.093,40.093,0,0,1,92.562,52.469" transform="translate(-4.455 -4.484)" fill="#8d1939"/>
        <path id="Trazado_998485" data-name="Trazado 998485" d="M90.9,46.451A44.45,44.45,0,1,1,46.451,2,44.45,44.45,0,0,1,90.9,46.451Z" transform="translate(1.564 1.535)" fill="none" stroke="#8d1939" stroke-miterlimit="10" stroke-width="4"/>
      </g>
    </g>
    <g id="Grupo_1180408" data-name="Grupo 1180408" transform="translate(755.746 9137)">
      <g id="Grupo_1099618" data-name="Grupo 1099618" transform="translate(-0.035 -0.465)">
        <rect id="Rectángulo_401104" data-name="Rectángulo 401104" width="56.349" height="57.028" transform="translate(0)" fill="none"/>
      </g>
      <g id="Grupo_1211348" data-name="Grupo 1211348" transform="translate(6.965 -0.465)">
        <g id="Grupo_1211347" data-name="Grupo 1211347" clip-path="url(#clip-path-2)">
          <path id="Trazado_1274330" data-name="Trazado 1274330" d="M39.985,55.117c3.068-.38,3.08-4.149.144-4.522-2.45-.311-5.012.4-7.282-1.3l-3.961,7.166a1.634,1.634,0,0,1-.9.276c-2.668.156-5.854-.836-8.584-.98a40.389,40.389,0,0,0-4.385.009C11.675,56,8.651,57.7,5.25,56.121c-4.927-2.291-2.114-9.794-1.174-13.7a6.107,6.107,0,0,1-2.748-4.429C1.144,30.054.188,22.1,0,14.177a4.439,4.439,0,0,1,1.3-3.742c.509-.464,1.094-.589,1.6-.991L2.6,4.77C2.553,2.65,2.326.528,4.956.141c5.977.328,12.41-.435,18.333-.007,2.325.168,2.762,1.35,2.667,3.493-.084,1.892-.673,3.912-.647,5.84.057.455.58.457.893.728,1.9,1.645,1.579,3.157,1.376,5.431-.592,6.614-2.029,13.532-2.429,20.113-.075,1.231-.185,1.941.73,2.835,2.17,2.118,7.41,4.041,7.821,7.259.224,1.753-.863,1.854,1.256,2.638,2.556.945,5.44-.213,7.459,1.3a3.858,3.858,0,0,1-1.177,6.761,47.943,47.943,0,0,1-8.864.2c-.963-.159-1.2-.94-.5-1.612,2.551-.229,5.624.307,8.109,0M4.551,9.385H23.444l.244-.405c-.2-1.373,1.035-5.742.567-6.731a1.323,1.323,0,0,0-1.127-.494l-18.26.081c-.366.152-.664.379-.649.811ZM2.037,16.358H18.9c.608,0,.608,1.622,0,1.622H1.956c.1.72-.253,1.709.243,2.27H25.309l.162-2.27H22.147a1.674,1.674,0,0,1-.576-.738,1.288,1.288,0,0,1,.576-.884H25.8c.071-1.9,1.07-4.082-1.129-5.115L3.207,11.2c-2.161.969-1.38,2.884-1.413,4.75Zm4.622,5.514h-4.3c-.266.176-.259.434-.258.729.012,2.172.385,4.617.5,6.814.138,2.651.043,5.67.325,8.27.347,3.2,2.871,3.584,5.137,4.918,4.561,2.683,8.762,6.265,10.426,11.467,3.088.034,6.083.97,9.176.9l.254-.112,3.857-7.135a2.547,2.547,0,0,0-.708-3.31c-2.223-2.14-7.77-4.248-7.712-7.691l1.781-14.457a.454.454,0,0,0-.235-.389H8.443v3.811c0,.649-1.784.808-1.784-.162ZM5.762,43.3c-.164.071-.19.229-.252.373-.849,1.958-1.829,7.01-1.205,9.016,1.262,4.056,7.1,1.781,9.916,1.478a18.575,18.575,0,0,0,2.335-.1c.262-.2.074-.194.024-.352-1.448-4.5-6.738-8.394-10.817-10.417" transform="translate(0 0)" fill="#fff"/>
        </g>
      </g>
    </g>
  </g>
</svg>
