<svg xmlns="http://www.w3.org/2000/svg" xmlns:xlink="http://www.w3.org/1999/xlink" width="96" height="96" viewBox="0 0 96 96">
  <defs>
    <clipPath id="clip-path">
      <rect id="Rectángulo_455595" data-name="Rectángulo 455595" width="96" height="96" fill="none"/>
    </clipPath>
    <clipPath id="clip-path-2">
      <rect id="Rectángulo_460785" data-name="Rectángulo 460785" width="45.949" height="55.719" fill="#fff"/>
    </clipPath>
  </defs>
  <g id="Grupo_1210448" data-name="Grupo 1210448" transform="translate(-735.711 -9118.127)">
    <g id="Grupo_1180407" data-name="Grupo 1180407" transform="translate(735.711 9118.098)">
      <g id="Grupo_1179172" data-name="Grupo 1179172" transform="translate(0 0.03)" clip-path="url(#clip-path)">
        <path id="Trazado_998483" data-name="Trazado 998483" d="M92.261,52.319A39.942,39.942,0,1,1,52.319,12.377,39.942,39.942,0,0,1,92.261,52.319" transform="translate(-4.304 -4.333)" fill="#8d1939"/>
        <path id="Trazado_998485" data-name="Trazado 998485" d="M90.566,46.284A44.283,44.283,0,1,1,46.284,2,44.283,44.283,0,0,1,90.566,46.284Z" transform="translate(1.731 1.702)" fill="none" stroke="#8d1939" stroke-miterlimit="10" stroke-width="4"/>
      </g>
    </g>
    <g id="Grupo_1180408" data-name="Grupo 1180408" transform="translate(755.746 9137)">
      <g id="Grupo_1099618" data-name="Grupo 1099618" transform="translate(-0.035 0.127)">
        <rect id="Rectángulo_401104" data-name="Rectángulo 401104" width="56.349" height="57.028" transform="translate(0)" fill="none"/>
      </g>
      <g id="Grupo_1211369" data-name="Grupo 1211369" transform="translate(4.965 1.127)">
        <g id="Grupo_1211368" data-name="Grupo 1211368" clip-path="url(#clip-path-2)">
          <path id="Trazado_1274410" data-name="Trazado 1274410" d="M40.675,15.053l.654-7.682L41.483,0h1.782a138.609,138.609,0,0,1-.82,14.659c0,.645.913.656.822,1.445.39,7.507-.528,15.55-.01,22.994.336,4.824,6.175,11.86-.476,15.373-5.381,2.842-9.139-.495-14.484-.579-1.839-.029-3.353.848-5.071,1.257C19,56.154,11.77,55.865,7.807,53.991c-.286-.135-.57-.506-.753-.555-.262-.069-1.092.409-1.584.464-3.576.4-5.825-1.606-5.424-5.262a3.985,3.985,0,0,1,3.48-3.48c.947-.1,2.587.2,3.374.008.167-.04.2-.509.438-.729.672-.625,6.408-2.7,7.679-3.166a66.267,66.267,0,0,1,11.392-3.257c-.024-5.061-1.057-10.07-1.433-15.113-.128-1.718-.12-3.461-.157-5.185-.032-1.5-.8-2.846,1.611-2.665l-.653-7.2L25.621,0H27.4a122.54,122.54,0,0,0,.809,15.054Zm.809,1.78H29.345l7.715,4.182a34.733,34.733,0,0,0,4.274-2.795c.278-.386.118-.931.151-1.387m0,8.417L26.429,17.564c.368.859.039,4.678.486,5.179l14.57,7.525Zm0-1.942V20.233l-2.425,1.7ZM29.506,26.22l-.267-.3-2.322-1.157.324,2.75Zm5.18,2.752a17.131,17.131,0,0,0-3.126-1.821c-.284-.084-.245-.04-.481.062-1.088.47-2.314,1.8-3.479,2.278l.291,3.852Zm6.8,8.1V32.453l-4.965-2.641-4.1,2.562a11.944,11.944,0,0,0,9.064,4.692M31.109,33.517l-2.983,1.935.236,3.163a28.261,28.261,0,0,0,14.416,5.572,17.39,17.39,0,0,1-1.293-5.341,13.571,13.571,0,0,1-10.376-5.329M43.574,45.984a28.6,28.6,0,0,1-16.449-6.132l-1.341.129A44.765,44.765,0,0,0,37.29,50.406a31.846,31.846,0,0,0,4.478,2.334c.943.163,2.061-1.387,2.235-2.23a10.674,10.674,0,0,0-.429-4.526M24.489,41.6c.2-.23-.527-1.061-.719-1.246l-3.162,1.005,1.4,1.35Zm-6.038.357-3.506,1.356L16.8,46.617l3.636-2.833Zm-5.13,11.784,5.664.081a24.009,24.009,0,0,1,9.386-8.254l-2.531-2.657a29.517,29.517,0,0,0-10.411,7.679c-.3.341-2.361,2.906-2.108,3.151M13.3,44.046l-1.774.571A20.849,20.849,0,0,0,13.16,50.5L15.4,47.858ZM9.92,45.321l-1.138.433L8.788,52.2c.116.635,1.9.909,2.484,1.034,1.318-1.185.422-1.626-.055-2.815a15.857,15.857,0,0,1-1.3-5.1m-5.5,1.458c-.2-.191-2.011.473-2.1.969.887.032,1.992.169,2.1-.969m2.591,0-.8.007c-.139,2.481-2.251,2.985-4.378,2.744-.334,2.975,3.411,3.272,5.18,1.7Zm32.533,6.8A28.059,28.059,0,0,1,34.056,50.4c-.695-.493-3.831-3.183-4.188-3.271-.687-.169-2.51,1.22-3.275,1.431.718.9,1.289,2.442,1.964,3.293.467.589,2.1.484,2.926.635,2.182.4,5.044,1.541,7.149,1.389.168-.012.9-.076.909-.3m-12.786-1.3-1.7-2.585a17.977,17.977,0,0,0-3.8,4.042Z" transform="translate(0 0.001)" fill="#fff"/>
          <path id="Trazado_1274411" data-name="Trazado 1274411" d="M10.583,87.84a11.521,11.521,0,0,1,10.389,18.812c0,.813,3.731,2.656,2.273,3.886l-12.389.086c-13.218-1.3-13.417-21.3-.273-22.784M20.492,109c-.1-.757-1.8-1.6-1.744-2.32.034-.409,1.785-2.4,2.156-3.177A9.732,9.732,0,0,0,7.273,90.844C-1.176,95.688,2.587,109,11.671,109Z" transform="translate(-0.698 -73.551)" fill="#fff"/>
          <path id="Trazado_1274412" data-name="Trazado 1274412" d="M36.825,119h3.8a2.8,2.8,0,0,1,.483.489,17.572,17.572,0,0,1-.066,4.581,1.092,1.092,0,0,1-.416.272h-3.8v3.8a1.092,1.092,0,0,1-.272.416,17.868,17.868,0,0,1-4.584.069c-.871-.415-.341-3.409-.484-4.29-.937-.173-3.878.436-4.286-.488a17.291,17.291,0,0,1,.035-4.328c.443-.964,3.282-.355,4.251-.523.221-1.105-.64-4.176.882-4.379a24.761,24.761,0,0,1,3.727.011,1.588,1.588,0,0,1,.732.563Zm-1.78-2.59h-1.78v3.8a.943.943,0,0,1-.567.567h-3.8v1.78h3.8a3.794,3.794,0,0,1,.567.567v3.8h1.78v-3.8a3.794,3.794,0,0,1,.567-.567h3.8v-1.78h-3.8a3.794,3.794,0,0,1-.567-.567Z" transform="translate(-22.695 -96.015)" fill="#fff"/>
        </g>
      </g>
    </g>
  </g>
</svg>
